<svg xmlns="http://www.w3.org/2000/svg" viewBox="0 0 246.957 260.712">
    <title>
        phone_profile
    </title>
    <path d="M107.422 8.846c33.485 12.183 44.246 67.09 24.036 122.639s-63.739 90.7-97.224 78.521-44.246-67.09-24.034-122.639S73.937-3.337 107.422 8.846zM203.957 36.5a42 42 0 1 1-42 42 42 42 0 0 1 42-42zm9.843 123.946a41.794 41.794 0 0 1 29.546 51.191c-3.455 12.887-4.788 33.739-16.644 38.808-7.837 3.357-25.14-6.741-34.548-9.263a41.794 41.794 0 0 1 21.646-80.736z" fill="#f4f4f4"/>
    <path d="M227.457 182.5a2.5 2.5 0 1 1-2.5 2.5 2.5 2.5 0 0 1 2.5-2.5zm-175-141a2.5 2.5 0 1 1-2.5 2.5 2.5 2.5 0 0 1 2.5-2.5zm192 68a2.5 2.5 0 1 1-2.5 2.5 2.5 2.5 0 0 1 2.5-2.5zm-223-16a2.5 2.5 0 1 1-2.5 2.5 2.5 2.5 0 0 1 2.5-2.5zm201.736 40.39l3.326-8.306 3.019 8.306 8.413 2.925-8.413 3.376-3.019 8.167-3.326-8.166-8.114-3.377z" fill="#e94937"/>
    <path d="M19.457 112.5a4.5 4.5 0 1 1-4.5 4.5 4.5 4.5 0 0 1 4.5-4.5zm9.859-85.565l2.2-5.489 2 5.489 5.56 1.933-5.56 2.232-2 5.4-2.2-5.4-5.359-2.228z" fill="#a0c864"/>
    <path d="M183.477 13.283a2 2 0 0 1 3.96-.566l1 7a2 2 0 0 1-1.7 2.263 1.97 1.97 0 0 1-.285.02 2 2 0 0 1-1.978-1.717zm8.769 10.9a2 2 0 0 0 2.687-.883l10.31-20.4a2 2 0 0 0-3.57-1.8l-10.31 20.4a2 2 0 0 0 .883 2.685zm20.58-5.726L197.27 25.53a2 2 0 1 0 1.655 3.641l15.556-7.071a2 2 0 1 0-1.655-3.641zm.631 238.253h-23.35a11.94 11.94 0 0 0 3.074-8V38.612a12 12 0 0 0-12-12H79.057a12 12 0 0 0-12 12v210.1a12 12 0 0 0 12 12h134.4a2 2 0 0 0 0-4zm5.5.036a1.964 1.964 0 1 0 1.964 1.964 1.964 1.964 0 0 0-1.964-1.962z" fill="#575756"/>
    <path d="M179.814 31.147h-25.042a4.235 4.235 0 0 0-4.237 4.235 4.237 4.237 0 0 1-4.237 4.237h-32.359a4.237 4.237 0 0 1-4.237-4.237 4.236 4.236 0 0 0-4.235-4.237H80.422a8.828 8.828 0 0 0-8.829 8.828v207.374a8.83 8.83 0 0 0 8.83 8.83h99.39a8.83 8.83 0 0 0 8.83-8.83V39.978a8.829 8.829 0 0 0-8.827-8.831z" fill="#fff"/>
    <path d="M179.814 31.147h-25.043a4.235 4.235 0 0 0-4.237 4.235 4.237 4.237 0 0 1-4.237 4.237h-32.358a4.237 4.237 0 0 1-4.237-4.237 4.236 4.236 0 0 0-4.235-4.237H80.422a8.828 8.828 0 0 0-8.829 8.828v65.311h117.05V39.976a8.829 8.829 0 0 0-8.829-8.829zM149.437 253.4H110.8a1.954 1.954 0 0 1-1.954-1.954 1.955 1.955 0 0 1 1.954-1.955h38.637a1.954 1.954 0 0 1 1.954 1.954 1.954 1.954 0 0 1-1.954 1.954z" fill="#ef7f73"/>
    <path d="M179.814 31.147h-25.043c-2.34 0-4.24 1.628-4.4 4.952s-4.074 3.522-4.074 3.522 34.37 4.1 20.051 16.967-80.294 22.2-77.329 34.48 99.623 14.218 99.623 14.218v-65.31a8.828 8.828 0 0 0-8.828-8.829z" fill="#ed6859"/>
    <path d="M182.7 34.919h-1v-.825h-8.317v4.083h8.317v-.826h1zm-1.911 2.35h-1.454V35h1.454zm-103.324-.446H78.6v1.564h-1.135zm2.155 1.563h1.134v-2.445H79.62zm2.154 0h1.134V34.8h-1.134zm2.155-4.5v4.5h1.134v-4.5z" fill="#fff"/>
    <path d="M188.458 101.433c-2.021-.008-49.532-.343-52.437-12.364a3.754 3.754 0 0 1 .5-3.141c1.072-1.589 3.461-2.812 7.517-3.848 3.624-.925 8.147-1.592 12.938-2.3 12.646-1.864 26.98-3.977 31.482-11.756v33.409z" fill="#e94937"/>
    <path d="M129.765 86.041a19.15 19.15 0 1 1-19.15 19.15 19.15 19.15 0 0 1 19.15-19.15z" fill="#f1f0f1" stroke="#fff" stroke-width="3"/>
    <path d="M81.853 160.5h26.852a3 3 0 0 1 3 3v9a3 3 0 0 1-3 3H81.853a3 3 0 0 1-3-3v-9a3 3 0 0 1 3-3z" fill="#88c380"/>
    <path d="M116.582 160.5h26.852a3 3 0 0 1 3 3v9a3 3 0 0 1-3 3h-26.852a3 3 0 0 1-3-3v-9a3 3 0 0 1 3-3z" fill="#8669ab"/>
    <path d="M151.311 160.5h26.852a3 3 0 0 1 3 3v9a3 3 0 0 1-3 3h-26.852a3 3 0 0 1-3-3v-9a3 3 0 0 1 3-3z" fill="#6989c6"/>
    <path d="M161.791 134.2H97.739c-1.135 0-2.056-1.31-2.056-2.927 0-1.616.921-2.927 2.056-2.927h64.052c1.135 0 2.056 1.311 2.056 2.927 0 1.612-.921 2.927-2.056 2.927zm-9.961 9.532H107.7a2.928 2.928 0 0 1-2.927-2.927 2.929 2.929 0 0 1 2.927-2.927h44.13a2.927 2.927 0 0 1 2.926 2.927 2.926 2.926 0 0 1-2.925 2.927zM81.957 190.5h39a3 3 0 0 1 3 3 3 3 0 0 1-3 3h-39a3 3 0 0 1-3-3 3 3 0 0 1 3-3zm0 10h96a3 3 0 0 1 3 3v10a3 3 0 0 1-3 3h-96a3 3 0 0 1-3-3v-10a3 3 0 0 1 3-3z" fill="#f1f0f1"/>
</svg>
