<svg xmlns="http://www.w3.org/2000/svg" viewBox="0 0 259.259 221.5">
    <path d="M133.376 11.675c27.684 22.418 24.486 72.253-7.142 111.311S46.523 175.533 18.84 153.114s-24.486-72.252 7.142-111.31 79.71-52.547 107.394-30.129zm83.883 10.826a42 42 0 1 1-42 42 42 42 0 0 1 42-42zm12.812 137.368a41.789 41.789 0 0 1-46.571 36.386c-13.241-1.626-34.073-.041-40.743-11.073-4.417-7.293 3.171-25.831 4.358-35.5a41.789 41.789 0 0 1 82.955 10.185z" fill="#f4f4f4"/>
    <path d="M226.759 172.501a2.5 2.5 0 1 1-2.5 2.5 2.5 2.5 0 0 1 2.5-2.5zm-164-134a2.5 2.5 0 1 1-2.5 2.5 2.5 2.5 0 0 1 2.5-2.5zm181 46a2.5 2.5 0 1 1-2.5 2.5 2.5 2.5 0 0 1 2.5-2.5zm-200 3a2.5 2.5 0 1 1-2.5 2.5 2.5 2.5 0 0 1 2.5-2.5zm178.741 36.39l3.326-8.306 3.019 8.306 8.413 2.925-8.413 3.376-3.019 8.167-3.326-8.166-8.114-3.377z" fill="#e94937"/>
    <path d="M252.759 132.501a4.5 4.5 0 1 1-4.5 4.5 4.5 4.5 0 0 1 4.5-4.5zM31.618 69.936l2.2-5.489 2 5.489 5.56 1.933-5.56 2.231-2 5.4-2.2-5.4-5.359-2.228z" fill="#a0c864"/>
    <path d="M195.22 125.939l-4.635-7.715a12 12 0 0 0-14.117-5.187l-8.693-19.423c-13.393-24.164-43.689-26.6-43.689-26.6s29.924 18.913 29.647 39.3-30.768 42.218-30.768 42.218l5.111-3.147-.274.186c-5.68 3.413-29.652 24.765-21.6 38.161 3.413 5.68 6.376 5.864 12.056 2.451l72.86-43.779a12 12 0 0 0 4.102-16.465z" fill="#ef7f73"/>
    <path d="M139.8 153.572l44.213-28.206c5.681-3.413-1.116-11.436-1.116-11.436s13.433 5.864 13.43 10.7 3.194 12.89-2.483 16.3l-72.858 43.784s-.889 7.226-4.3 1.544c-5.571-8.267 17.436-29.273 23.114-32.686z" fill="#ed6859"/>
    <path d="M149.8 159.572s35.913-24.352 41-27.462 1.385-10.562 1.385-10.562c5.68-3.414 3.929 10.744 3.929 15.578s-2.061 4.315-7.742 7.728l-58.666 34.36c-5.68 3.413 14.416-16.229 20.094-19.642z" fill="#e94937"/>
    <path d="M87.731 81.247a15.37 15.37 0 0 1 26.333-15.816 50.029 50.029 0 0 1 54.29 22.971 45.5 45.5 0 0 1 3.66 8.137 27.66 27.66 0 0 0 9.683 13.022 2.978 2.978 0 0 1 1.249.872 28.953 28.953 0 0 0 5.555 2.854 18.224 18.224 0 0 1 2.84 32.627l-27.811 16.71a18.468 18.468 0 0 1-31.24 18.771l-9.773 5.872a18.224 18.224 0 0 1-27.481-17.825 28.017 28.017 0 0 0-7.042-22.423 45.45 45.45 0 0 1-5.466-7.052 50.141 50.141 0 0 1 5.203-58.72zm65.063 98.89a12.478 12.478 0 0 0 5.5-14.366l-20.771 12.48a12.475 12.475 0 0 0 15.269 1.886zM96.367 65.801a9.4 9.4 0 0 0-4.108 10.892 50.529 50.529 0 0 1 15.656-9.407 9.383 9.383 0 0 0-11.548-1.485zm4.622 104.371a12.232 12.232 0 0 0 18.443 11.961l68.825-41.353a12.233 12.233 0 0 0-1.9-21.9 35.014 35.014 0 0 1-5.862-2.9l-79.316 47.657a35.034 35.034 0 0 1-.187 6.54zm-13.325-33.286a39.6 39.6 0 0 0 4.743 6.086 33.513 33.513 0 0 1 7.744 14.285l75.189-45.178a33.5 33.5 0 0 1-8.976-13.545 39.663 39.663 0 0 0-3.144-7.045 44.073 44.073 0 1 0-75.556 45.4zm12.941-48.418a3 3 0 1 1 4.075 4.393 27.316 27.316 0 0 0-5.727 8.812c-2.968 7.355-2.273 14.936 2.068 22.534a3 3 0 0 1-5.2 2.971c-6.6-11.547-4.955-21.461-2.421-27.747a32.837 32.837 0 0 1 7.205-10.963zm68.554-71.513l5.467-14.241a2 2 0 1 0-3.734-1.43l-5.467 14.238a2 2 0 1 0 3.734 1.433zm5.817 4.17l9.877-6.45a2 2 0 0 0-2.188-3.349l-9.877 6.45a2 2 0 1 0 2.188 3.349zm-14.119-4.4a2 2 0 0 0 1.405-2.455l-1.573-5.792a2 2 0 1 0-3.86 1.049l1.571 5.787a2 2 0 0 0 1.929 1.476 2.034 2.034 0 0 0 .528-.067zm-11.6 39.326a18.161 18.161 0 1 1 24.551-7.546 18.183 18.183 0 0 1-24.551 7.544zm15.132-28.563a14.162 14.162 0 1 0 5.885 19.144 14.179 14.179 0 0 0-5.885-19.146zm-7.178 17.044a2 2 0 0 0 2-2l-.011-10.589a2 2 0 0 0-4 0l.012 10.584a2 2 0 0 0 2 2zm1.183 2.01a1.688 1.688 0 0 1 .676 2.29 1.689 1.689 0 0 1-2.291.677 1.688 1.688 0 0 1-.676-2.29 1.689 1.689 0 0 1 2.291-.679zm-9.635 172.96a2 2 0 0 0-2-2h-48a2 2 0 0 0 0 4h48a2 2 0 0 0 2-2.002zm21.5-2a2 2 0 1 1-2 2 2 2 0 0 1 2-2.001zm22.5 2a2 2 0 0 0-2-2h-14a2 2 0 0 0 0 4h14a2 2 0 0 0 2-2.002z" fill="#575756"/>
</svg>
