<svg xmlns="http://www.w3.org/2000/svg" viewBox="0 0 268.585 195.43">
    <path d="M133.376 36.283c27.684 22.417 24.486 72.253-7.142 111.311S46.523 200.141 18.84 177.723s-24.486-72.254 7.142-111.311 79.71-52.547 107.394-30.129zm94.883-11.175a37 37 0 1 1-37 37 37 37 0 0 1 37-37zm13.405 91.528a36.318 36.318 0 0 1 25.673 44.484c-3 11.2-4.161 29.318-14.462 33.722-6.811 2.917-21.845-5.857-30.021-8.049a36.317 36.317 0 0 1 18.81-70.157z" fill="#f4f4f4"/>
    <path d="M98.259 93.43h103v81h-23a80 80 0 0 1-80-80v-1z" fill="#ef7f73"/>
    <path d="M128.259 148.561a80.031 80.031 0 0 1-17.559-25.613 79.59 79.59 0 0 1-4.778-15.187 80.56 80.56 0 0 1-1.666-16.331v-1h24z" fill="#e94944" opacity=".5"/>
    <path d="M137.259 146.561a80.031 80.031 0 0 1-17.559-25.613 79.59 79.59 0 0 1-4.778-15.187 80.56 80.56 0 0 1-1.666-16.331v-1h24z" fill="#e94937"/>
    <path d="M190.759 153.93a2 2 0 0 1-2-2v-38a2 2 0 1 1 4 0v38a2 2 0 0 1-2 2z" fill="#fff"/>
    <path d="M80.259 74.43h116a12 12 0 0 1 12 12v10a12 12 0 0 1-12 12h-116a12 12 0 0 1-12-12v-10a12 12 0 0 1 12-12z" fill="#ef7f73"/>
    <path d="M82.674 77.43h111.17a14.415 14.415 0 0 1 14.415 14.415h-140A14.415 14.415 0 0 1 82.674 77.43z" fill="#e94944" opacity=".5"/>
    <path d="M78.359 75.43h118.8a9.1 9.1 0 0 1 9.1 9.1h-137a9.1 9.1 0 0 1 9.1-9.1z" fill="#e94944"/>
    <path d="M130.259 67.74h17a4.917 4.917 0 0 1 5 4.831V191.43h-27V72.571a4.918 4.918 0 0 1 5-4.831z" fill="#fff"/>
    <path d="M143.259 69.43h8v122h-8z" fill="#f4f4f4"/>
    <path d="M132.934 59.748a2 2 0 0 0 3.651-1.636l-13-29a2 2 0 0 0-3.651 1.636z" fill="#575756"/>
    <path d="M141.057 60.8a2 2 0 0 0 2.575-1.171l6-16a2 2 0 0 0-3.746-1.4l-6 16a2 2 0 0 0 1.171 2.571z" fill="#575756"/>
    <path d="M223.759 191.43h-24.573a11.94 11.94 0 0 0 3.073-8v-76.623a12 12 0 0 0 6-10.377v-10a12.013 12.013 0 0 0-12-12H189.4c.147-.115.3-.224.446-.342 12.022-10.04 12.238-23.479 4.847-31.688s-19.679-7.528-31.7 2.512c-6.206 5.183-10.364 15.04-12.941 23.371a4.97 4.97 0 0 0-2.79-.853h-17a4.975 4.975 0 0 0-3.595 1.541c-2.559-8.468-6.78-18.734-13.156-24.059C101.486 34.872 89.2 34.191 81.806 42.4s-7.174 21.647 4.848 31.687c.142.119.3.228.447.343h-6.842a12.014 12.014 0 0 0-12 12v10a11.981 11.981 0 0 0 5 9.727v77.273a12 12 0 0 0 12 12h138.5a2 2 0 0 0 0-4zm-27.5-113a8.009 8.009 0 0 1 8 8v10a8.009 8.009 0 0 1-8 8h-44v-26h44zm-42.125-9.822c3.157-9.891 7.106-17.023 11.42-20.626 5.206-4.348 10.5-6.831 15.313-7.18a13.565 13.565 0 0 1 5.982.839 12.867 12.867 0 0 1 4.87 3.435 15.251 15.251 0 0 1 3.913 11.38 17.792 17.792 0 0 1-2.205 7.277 25.514 25.514 0 0 1-6.147 7.285 22.069 22.069 0 0 1-6.17 3.412h-28.65c.466-1.8 1.02-3.771 1.674-5.822zM83.07 63.733a17.822 17.822 0 0 1-2.2-7.278 15.247 15.247 0 0 1 3.914-11.379 12.864 12.864 0 0 1 4.869-3.435 13.572 13.572 0 0 1 5.983-.839c4.811.349 10.106 2.832 15.312 7.18 4.331 3.616 8.291 10.785 11.454 20.731.641 2.016 1.185 3.95 1.642 5.717H95.388a22.03 22.03 0 0 1-6.17-3.413 25.514 25.514 0 0 1-6.148-7.284zM72.259 96.43v-10a8.009 8.009 0 0 1 8-8h45v26h-45a8.009 8.009 0 0 1-8-8zm13 95a8 8 0 0 1-8-8v-75h48v83zm44 0v-119a1 1 0 0 1 1-1h17a1 1 0 0 1 1 1v119zm23 0v-83h46v75a8 8 0 0 1-8 8z" fill="#575756"/>
    <circle cx="230.259" cy="193.43" r="2" fill="#575756"/>
    <path d="M190.758 159.934a2.605 2.605 0 0 1-.39-.04 2.449 2.449 0 0 1-.369-.12 1.842 1.842 0 0 1-.351-.181 1.717 1.717 0 0 1-.3-.25 1.991 1.991 0 0 1 0-2.829 2.312 2.312 0 0 1 .3-.25 1.784 1.784 0 0 1 .351-.18 1.556 1.556 0 0 1 .369-.11 1.995 1.995 0 0 1 2.39 1.96 1.982 1.982 0 0 1-.589 1.409 2.013 2.013 0 0 1-1.411.591z" fill="#fff"/>
    <path d="M217.759 57a2.5 2.5 0 1 1-2.5 2.5 2.5 2.5 0 0 1 2.5-2.5zm-157 116a2.5 2.5 0 1 1-2.5 2.5 2.5 2.5 0 0 1 2.5-2.5zm174-173a2.5 2.5 0 1 1-2.5 2.5 2.5 2.5 0 0 1 2.5-2.5zm-14.141 24.435l2.2-5.489 2 5.489 5.56 1.933-5.56 2.231-2 5.4-2.2-5.4-5.359-2.228z" fill="#e94937"/>
    <path d="M243.759 48.43a4.5 4.5 0 1 1-4.5 4.5 4.5 4.5 0 0 1 4.5-4.5zM37.618 157.865l2.2-5.489 2 5.489 5.56 1.933-5.56 2.231-2 5.4-2.2-5.4-5.359-2.229z" fill="#a0c864"/>
</svg>
