<svg xmlns="http://www.w3.org/2000/svg" viewBox="0 0 294.259 219.731">
    <title>
        calendar
    </title>
    <path d="M133.376 10.835c27.684 22.418 24.486 72.254-7.142 111.311s-79.711 52.547-107.394 30.13-24.486-72.254 7.142-111.312 79.71-52.547 107.394-30.129zm101.883-2.174a42 42 0 1 1-42 42 42 42 0 0 1 42-42zm22.812 174.368a41.789 41.789 0 0 1-46.571 36.386c-13.241-1.626-34.073-.041-40.743-11.073-4.417-7.292 3.171-25.831 4.358-35.5a41.789 41.789 0 0 1 82.955 10.184z" fill="#f4f4f4"/>
    <path d="M85.735 75.216l144.524 1.445v103.585H85.735s92.637 6.823 120.813-3.685 27.046-32.966 25.411-61.368S85.735 75.216 85.735 75.216zm41.524 46.445h8a5 5 0 0 1 5 5v8a5 5 0 0 1-5 5h-8a5 5 0 0 1-5-5v-8a5 5 0 0 1 5-5z" fill="#ef7f73"/>
    <path d="M125.052 137.828h11.715a1.925 1.925 0 0 0 1.925-1.925v-11.745a1.925 1.925 0 0 0-1.924-1.926l-.06 11.746a1.907 1.907 0 0 1-1.889 1.925h-11.69a1.925 1.925 0 0 0 1.923 1.925z" fill="#ed6859"/>
    <path d="M263.759 142.661a2.5 2.5 0 1 1-2.5 2.5 2.5 2.5 0 0 1 2.5-2.5zm-181-131a2.5 2.5 0 1 1-2.5 2.5 2.5 2.5 0 0 1 2.5-2.5zm198 70a2.5 2.5 0 1 1-2.5 2.5 2.5 2.5 0 0 1 2.5-2.5zm-246 25a2.5 2.5 0 1 1-2.5 2.5 2.5 2.5 0 0 1 2.5-2.5zM251.5 59.051l3.326-8.306 3.019 8.306 8.413 2.925-8.413 3.376-3.019 8.167-3.326-8.166-8.114-3.377z" fill="#e94937"/>
    <path d="M289.759 129.661a4.5 4.5 0 1 1-4.5 4.5 4.5 4.5 0 0 1 4.5-4.5zm-271 0a4.5 4.5 0 1 1-4.5 4.5 4.5 4.5 0 0 1 4.5-4.5zM56.618 7.1l2.2-5.489 2 5.489 5.56 1.933-5.56 2.231-2 5.4-2.2-5.4-5.359-2.235z" fill="#a0c864"/>
    <path d="M68.259 60.661a11 11 0 1 1 11-11 11.012 11.012 0 0 1-11 11zm0-18a7 7 0 1 0 7 7 7.008 7.008 0 0 0-7-7zm67 114a4 4 0 1 1-4-4 4 4 0 0 1 4 4zm5-30v8a5.006 5.006 0 0 1-5 5h-8a5.006 5.006 0 0 1-5-5v-8a5.006 5.006 0 0 1 5-5h8a5.006 5.006 0 0 1 5 5zm-2 0a3 3 0 0 0-3-3h-8a3 3 0 0 0-3 3v8a3 3 0 0 0 3 3h8a3 3 0 0 0 3-3zm-7-16a4 4 0 1 0-4-4 4 4 0 0 0 4 4zm25 17a4 4 0 1 0 4 4 4 4 0 0 0-4-4zm-50 25a4 4 0 1 0 4 4 4 4 0 0 0-4-4zm-39.5 26h-21a2 2 0 1 0 0 4h21a2 2 0 0 0 0-4zm39.5-51a4 4 0 1 0 4 4 4 4 0 0 0-4-4zm0-25a4 4 0 1 0 4 4 4 4 0 0 0-4-4zm50 50a4 4 0 1 0 4 4 4 4 0 0 0-4-4zm50-50a4 4 0 1 0 4 4 4 4 0 0 0-4-4zm42.5 78a2 2 0 0 1-2 2h-157.5a13.014 13.014 0 0 1-13-13v-84a13.014 13.014 0 0 1 13-13h23.5v-6.5a3 3 0 0 1 6 0v6.5h21v-6.5a3 3 0 0 1 6 0v6.5h21v-6.5a3 3 0 0 1 6 0v6.5h21v-6.5a3 3 0 1 1 6 0v6.5h21.5a13.014 13.014 0 0 1 13 13v84a12.946 12.946 0 0 1-3.641 9h16.141a2 2 0 0 1 2 1.999zm-27.5-2a9.01 9.01 0 0 0 9-9v-84a9.011 9.011 0 0 0-9-9h-21.5v7.5a3 3 0 0 1-6 0v-7.5h-21v7.5a3 3 0 0 1-6 0v-7.5h-21v7.5a3 3 0 0 1-6 0v-7.5h-21v7.5a3 3 0 0 1-6 0v-7.5h-23.5a9.01 9.01 0 0 0-9 9v84a9.01 9.01 0 0 0 9 9h132zm-65-76a4 4 0 1 0 4 4 4 4 0 0 0-4-4zm102.5 76a2.5 2.5 0 1 0 2.5 2.5 2.5 2.5 0 0 0-2.5-2.5zm-52.5-51a4 4 0 1 0 4 4 4 4 0 0 0-4-4zm-25 0a4 4 0 1 0 4 4 4 4 0 0 0-4-4zm0 25a4 4 0 1 0 4 4 4 4 0 0 0-4-4zm0-50a4 4 0 1 0 4 4 4 4 0 0 0-4-4zm25 50a4 4 0 1 0 4 4 4 4 0 0 0-4-4z" fill="#575756"/>
</svg>
