<svg xmlns="http://www.w3.org/2000/svg" viewBox="0 0 255 210.069">
    <title>
        collectible
    </title>
    <path d="M91.3 3.229c34.7 8.015 53.656 54.2 42.348 103.147s-48.6 82.136-83.3 74.121S-3.31 126.3 8 77.351 56.6-4.786 91.3 3.229zM196 18a42 42 0 1 1-42 42 42 42 0 0 1 42-42zm22.813 155.367a41.789 41.789 0 0 1-46.569 36.386c-13.244-1.626-34.074-.041-40.744-11.073-4.417-7.292 3.171-25.831 4.358-35.5a41.789 41.789 0 0 1 82.955 10.184z" fill="#f4f4f4"/>
    <path d="M240.5 176a2.5 2.5 0 1 1-2.5 2.5 2.5 2.5 0 0 1 2.5-2.5zM15.5 16a2.5 2.5 0 1 1-2.5 2.5 2.5 2.5 0 0 1 2.5-2.5zm237 45a2.5 2.5 0 1 1-2.5 2.5 2.5 2.5 0 0 1 2.5-2.5zm-237 67a2.5 2.5 0 1 1-2.5 2.5 2.5 2.5 0 0 1 2.5-2.5zm218.736-43.611l3.326-8.306 3.019 8.306 8.413 2.925-8.413 3.376-3.019 8.167-3.326-8.166-8.114-3.377z" fill="#e94937"/>
    <path d="M227.5 186a4.5 4.5 0 1 1-4.5 4.5 4.5 4.5 0 0 1 4.5-4.5zm-223-45a4.5 4.5 0 1 1-4.5 4.5 4.5 4.5 0 0 1 4.5-4.5zM40.359 14.434l2.2-5.489 2 5.489 5.56 1.933-5.56 2.233-2 5.4-2.2-5.4L35 16.367z" fill="#a0c864"/>
    <path d="M160.665 122.462c-4.688-24.462 16.805-8.9 16.805-8.9l8.109 24.608-5.891 35.666-31.288-5.561s16.954-21.346 12.265-45.813zm-59.725-4.542c12.223-1.763 34.475 32.039 34.475 32.039l5.728 17.608-30.388-5.187-24.234-5.37s2.195-37.328 14.419-39.09zM79 136.14s-2.12 8.826 8.88 20.326 30.94 8.984 30.94 8.984L79 168.671l-6.159-19.778zm60.566-106.08L201.4 42.151l-7.9 56.281s-1.279-24.913-14.763-42.006-39.171-26.366-39.171-26.366zm-58.148 7.986l25.764-3.828-1.931 12.1s-.985-2.089-6.94-4.157-16.893-4.115-16.893-4.115z" fill="#ef7f73"/>
    <path d="M89.444 133.312c12.223-1.763 35.971 32.647 35.971 32.647l-38.5-7.583s-.796-24.585 2.529-25.064zM154.13 31.906l47.439 10.064-6.469 46.981a40.266 40.266 0 0 0-7.366-35.525c-13.482-17.093-33.604-21.52-33.604-21.52z" fill="#ed6859"/>
    <path d="M198.116 38.039l-83.682-14.756a7.5 7.5 0 0 0-8.683 6.084l-.582 3.3-40.154 7.067a12.526 12.526 0 0 0-10.156 14.5l19.1 108.307a12.532 12.532 0 0 0 14.5 10.117l33.478-5.92 51.888 9.15a7.483 7.483 0 0 0 8.678-6.054l.005-.029 21.7-123.075a7.517 7.517 0 0 0-6.092-8.691zM59.783 53.364a7.523 7.523 0 0 1 6.093-8.706l38.367-6.748-3.556 20.162A12.5 12.5 0 1 0 93.651 78.8a12.446 12.446 0 0 0 3.611-1.288l-5.373 30.391-1.638-2.035c-.017-.023-.046-.033-.067-.055a2.4 2.4 0 0 0-.549-.46c-.073-.045-.135-.1-.21-.14a2.41 2.41 0 0 0-.62-.192 2.83 2.83 0 0 0-.317-.066c-.066 0-.118-.034-.183-.034a2.252 2.252 0 0 0-.575.1.3.3 0 0 0-.138.022 2.478 2.478 0 0 0-1.432 1.137 2.2 2.2 0 0 0-.122.282 2.358 2.358 0 0 0-.159.36c-.5 1.75-7.248 22.93-10.747 33.613zM97.62 70.785a7.5 7.5 0 1 1-7.446-11.692 7.24 7.24 0 0 1 1.314-.118 7.508 7.508 0 0 1 6.131 11.81zm-10.026 96.947a7.54 7.54 0 0 1-8.7-6.072l-2.142-12.088c.25-.182 9.283-26.547 12.55-36.929l1.447 1.8-6.7 37.991a7.517 7.517 0 0 0 6.094 8.691l17.424 3.072zm3.4-11.518a2.5 2.5 0 0 1-2.027-2.9l4.3-24.365c1.145-1.35 20.78-26.547 22.745-29.144l21.824 64.652zm86.6 12.718a2.5 2.5 0 0 1-2.892 2.027l-31.243-5.5-11.04-32.668L164.928 83.7l18 54.988zm21.691-123.084l-14.517 82.4-16.7-51.017a2.5 2.5 0 0 0-4.459-.6L130.4 126.81l-11.05-32.725-.017-.085a2.5 2.5 0 0 0-1.827-1.894 2.562 2.562 0 0 0-2.53.812 2.323 2.323 0 0 0-.227.312c-1.275 1.727-12.5 16.277-19.671 25.427l15.594-88.426a2.5 2.5 0 0 1 2.892-2.027l83.694 14.748a2.5 2.5 0 0 1 2.027 2.896zm-63.27-1a12.5 12.5 0 1 0-4.855 24.524q.256.051.516.091a12.768 12.768 0 0 0 2.2.192 12.5 12.5 0 0 0 2.139-24.807zm5.216 13.607a7.5 7.5 0 1 1-7.4-8.8 7.659 7.659 0 0 1 1.318.115 7.5 7.5 0 0 1 6.078 8.685zM158.5 196a2 2 0 0 1-2 2h-73a2 2 0 0 1 0-4h73a2 2 0 0 1 2 2zm13.5 0a2 2 0 1 1-2-2 2 2 0 0 1 2 2zm-102 0a2 2 0 1 1-2-2 2 2 0 0 1 2 2zm122.5 0a2 2 0 0 1-2 2h-14a2 2 0 0 1 0-4h14a2 2 0 0 1 2 2zm3-190A11.5 11.5 0 1 0 207 17.5 11.513 11.513 0 0 0 195.5 6zm0 19a7.5 7.5 0 1 1 7.5-7.5 7.508 7.508 0 0 1-7.5 7.5zm17-25a5.5 5.5 0 1 0 5.5 5.5 5.506 5.506 0 0 0-5.5-5.5zm0 7a1.5 1.5 0 1 1 1.5-1.5 1.5 1.5 0 0 1-1.5 1.5z" fill="#585857"/>
</svg>
