<svg xmlns="http://www.w3.org/2000/svg" viewBox="0 0 269.257 218.516">
    <title>
        heart
    </title>
    <path d="M133.375 15.621c27.684 22.417 24.486 72.253-7.142 111.311s-79.711 52.547-107.394 30.129-24.486-72.254 7.142-111.315S105.691-6.8 133.375 15.621zm79.883-10.175a42 42 0 1 1-42 42 42 42 0 0 1 42-42zm11.812 176.369a41.789 41.789 0 0 1-46.571 36.385c-13.241-1.626-34.073-.041-40.743-11.073-4.417-7.293 3.171-25.831 4.358-35.5a41.79 41.79 0 1 1 82.971 10.059l-.016.126z" fill="#f4f4f4"/>
    <path d="M208.758 188.446a2.5 2.5 0 1 1-2.5 2.5 2.5 2.5 0 0 1 2.5-2.5zm-135-163a2.5 2.5 0 1 1-2.5 2.5 2.5 2.5 0 0 1 2.5-2.5zm175 45a2.5 2.5 0 1 1-2.5 2.5 2.5 2.5 0 0 1 2.5-2.5zm-213 54a2.5 2.5 0 1 1-2.5 2.5 2.5 2.5 0 0 1 2.5-2.5zm218.741-71.61l3.326-8.306 3.019 8.306 8.413 2.925-8.413 3.376-3.019 8.163-3.326-8.162-8.114-3.377z" fill="#e94937"/>
    <path d="M234.758 175.446a4.5 4.5 0 1 1-4.5 4.5 4.5 4.5 0 0 1 4.5-4.5zm-215-28a4.5 4.5 0 1 1-4.5 4.5 4.5 4.5 0 0 1 4.5-4.5zM50.617 10.881l2.2-5.489 2 5.489 5.56 1.933-5.56 2.232-2 5.4-2.2-5.4-5.359-2.228z" fill="#a0c864"/>
    <path d="M135.258 29.446a73 73 0 1 1-73 73 73 73 0 0 1 73-73z" fill="#ef7f73"/>
    <path d="M136.899 29.382a73 73 0 0 1 73 73c0 40.317-32.692 73.855-73 73-5.169-.109-7.472-.172-7.848-.2-2.049-.128 56.224-1.469 56.224-32.315-.002-36.496-88.695-113.485-48.376-113.485z" fill="#ed6859"/>
    <path d="M94.543 73.682c19.694-22.628 40.356 1.172 40.356 1.172.166-.131 28.184-26.655 43.859 3.8 9.036 17.557-14.418 37.84-14.418 37.84l-28.654 24.478-21.468-18.872S78.266 97.215 94.543 73.682z" fill="#fff"/>
    <path d="M174.625 86.807a17.98 17.98 0 0 0-13.089-16.2 2.461 2.461 0 0 0-1.319 4.742 13.058 13.058 0 0 1 9.5 11.759 2.461 2.461 0 0 0 2.454 2.309h.154a2.459 2.459 0 0 0 2.3-2.608z" fill="#ef7f73"/>
    <path d="M175.709 69.346a26.58 26.58 0 0 0-37.587-.436l-.223.22-2.592 2.594-2.594-2.6a26.583 26.583 0 1 0-37.647 37.541l.053.053 33.226 33.228a9.854 9.854 0 0 0 13.922 0l33.011-33.009a26.83 26.83 0 0 0 .431-37.591zm-3.91 34.112l-33.011 33.01a4.928 4.928 0 0 1-6.961 0l-33.228-33.222a21.661 21.661 0 0 1 30.634-30.633l2.6 2.6-3.979 3.97a2.461 2.461 0 1 0 3.479 3.483l10.047-10.053a21.66 21.66 0 0 1 30.629 0l.18.182a21.89 21.89 0 0 1-.39 30.663zm-36.541 82.988a84.066 84.066 0 0 1-80.62-107.664 2 2 0 1 1 3.839 1.125A80.024 80.024 0 0 0 179.213 169.3a2 2 0 0 1 2.256 3.3l-.056.037a83.643 83.643 0 0 1-46.155 13.809zm53.049-19.468a2 2 0 0 1-1.3-3.524A80.008 80.008 0 1 0 61.789 70.735a2 2 0 0 1-3.672-1.589 83.985 83.985 0 0 1 77.14-50.7A84 84 0 0 1 189.599 166.5a1.991 1.991 0 0 1-1.292.478zm-5.859-142.632a2 2 0 0 1-1.784-2.9l10.31-20.4a2 2 0 0 1 3.57 1.8l-10.31 20.4a2 2 0 0 1-1.786 1.1zm6.951 3.954a2 2 0 0 1-1.007-3.73l14.36-8.35a2 2 0 0 1 2.05 3.435l-.04.023-14.36 8.35a1.985 1.985 0 0 1-1 .273zm-13.641-7.35a2.083 2.083 0 0 1-.223-.012 2 2 0 0 1-1.767-2.208l1-9a2 2 0 0 1 3.976.441l-1 9a2 2 0 0 1-1.984 1.775z" fill="#575756"/>
</svg>
