<svg xmlns="http://www.w3.org/2000/svg" viewBox="0 0 237.272 289.8">
    <title>
        delivery
    </title>
    <path d="M86.568 51.229c34.7 8.016 53.656 54.2 42.348 103.147s-48.6 82.137-83.3 74.121S-8.038 174.3 3.27 125.351s48.602-82.137 83.298-74.122zM195.272 87a42 42 0 1 1-42 42 42 42 0 0 1 42-42zm13.813 140.369a41.789 41.789 0 0 1-46.569 36.385c-13.241-1.626-34.073-.041-40.743-11.073-4.416-7.292 3.171-25.831 4.358-35.5a41.789 41.789 0 0 1 82.955 10.185z" fill="#f4f4f4"/>
    <path d="M192.772 212a2.5 2.5 0 1 1-2.5 2.5 2.5 2.5 0 0 1 2.5-2.5zm-173-122a2.5 2.5 0 1 1-2.5 2.5 2.5 2.5 0 0 1 2.5-2.5zm185 68a2.5 2.5 0 1 1-2.5 2.5 2.5 2.5 0 0 1 2.5-2.5zm-170 38a2.5 2.5 0 1 1-2.5 2.5 2.5 2.5 0 0 1 2.5-2.5zm182.736-61.61l3.326-8.306 3.019 8.306 8.413 2.925-8.413 3.376-3.019 8.167-3.326-8.166-8.114-3.377z" fill="#e94937"/>
    <path d="M218.772 199a4.5 4.5 0 1 1-4.5 4.5 4.5 4.5 0 0 1 4.5-4.5zm-155 27a4.5 4.5 0 1 1-4.5 4.5 4.5 4.5 0 0 1 4.5-4.5zM29.631 56.434l2.2-5.489 2 5.489 5.56 1.933-5.56 2.233-2 5.4-2.2-5.4-5.359-2.228z" fill="#a0c864"/>
    <path d="M124.272 1.61c-.1-.524 75.713 2.543 75.522 76.39s-75.522 78-75.522 78 48.477-19 48.615-78-48.515-75.866-48.615-76.39zm-36.433 122.4c9.323 31.368 44.889 28.861 44.889 28.861s-18.912-1.009-22.234-17.705 2.509-37.282-8.4-51.679-22.106-9.373-22.106-9.373-1.472 18.529 7.851 49.897z" fill="#ef7f73"/>
    <path d="M137.56 3.262c-.1-.524 62.681 7.955 62.385 73.738s-62.385 76.139-62.385 76.139S186.749 136 186.887 77 137.663 3.786 137.56 3.262z" fill="#ed6859"/>
    <path d="M112.84 229.434c0-7.947 11.5-14.968 11.5-14.968l32.981 16.134-32.976 15.654s-11.505-8.873-11.505-16.82z" fill="#f9c98a"/>
    <path d="M124.507 246.078c15.611-10.142 34.193-15.6 34.193-15.6l.572 41.522-34 16.41s-29.127-10.766-29.016-17.368c.175-10.352 12.644-14.822 28.251-24.964z" fill="#f8b478"/>
    <path d="M124.272 0a77.957 77.957 0 0 0-66.945 117.975 2.471 2.471 0 0 0 .3.805l57.973 97.225-25.923 12.563a1.977 1.977 0 0 0-1.117 1.708v41.166a1.958 1.958 0 0 0 1.117 1.773l33.776 16.372c.016 0 .016 0 .033.016a.578.578 0 0 1 .148.066c.016 0 .033.016.066.016l.148.049c.016 0 .033.016.049.016.049.016.115.016.164.033h.049c.066 0 .148.016.213.016a.947.947 0 0 0 .213-.016h.049a.576.576 0 0 0 .164-.033c.016 0 .033-.016.049-.016l.148-.049c.016 0 .033-.016.066-.016a.571.571 0 0 0 .148-.069c.016 0 .016 0 .033-.016l33.875-16.42a1.988 1.988 0 0 0 1.117-1.773v-41c-.032-.017-.032-.033-.032-.049a2.034 2.034 0 0 0-.2-.87 1.9 1.9 0 0 0-1.33-1.051l-17.485-8.481a2.5 2.5 0 0 0-1.166-.565l-6.332-3.075 57.3-97.858c.041-.066.078-.135.118-.2l.867-1.481c.024-.041.036-.084.057-.125A77.94 77.94 0 0 0 124.272 0zm-73 78a73.071 73.071 0 0 1 71.406-72.96 2.5 2.5 0 0 0 .426.164c22.915 6.228 45.979 32.6 45.723 70.96-.24 35.948-17.462 74.646-44.886 74.645h-.168c-10.463-.061-22.116-9.4-31.168-24.98-10.34-17.794-16.46-43.535-8.154-58.3a2.5 2.5 0 0 0-4.358-2.451c-4.29 7.628-5.562 18.105-3.677 30.3a96.873 96.873 0 0 0 11.865 32.97c4.981 8.572 10.649 15.348 16.607 20.027A73.117 73.117 0 0 1 51.272 78zm71 139.427l-.132-.221.132-.064zM75.29 138.642a77.6 77.6 0 0 0 46.982 17.307v56.824l-2.153 1.043zm42.336 80.758l3.345 5.608-7.452-3.614zm-13.5 56.433L92.5 270.194v-36.667l11.626 5.637zm-9.114-45.47L109 223.579l10.852 5.26-13.774 6.887zm27.324 54.3l-13.21-6.405v-36.669l13.21 6.405zm1.97-40.1l-12.549-6.083 13.774-6.887 12.765 6.188zm31.906 25.567l-29.934 14.53v-36.666l14.007-6.8v9.59a1.971 1.971 0 0 0 3.941 0v-11.51l11.987-5.813zm-15.607-46.073l13 6.3-10.792 5.243-12.841-6.228zm-5.677-2.752l-5.962 2.98 2.678-4.572zm-5.8-7.188l-1.855-.9v-57.293a77.609 77.609 0 0 0 46.11-17.383zm57.772-98.666l-.258.439a73.341 73.341 0 0 1-40.542 31.771 59.105 59.105 0 0 0 14.353-17.39C168.821 115.5 173.7 95.793 173.827 76.2c.222-33.252-16.224-58.115-35.694-69.86A72.948 72.948 0 0 1 186.9 115.451z" fill="#575756"/>
</svg>
