<svg xmlns="http://www.w3.org/2000/svg" viewBox="0 0 242.092 202.438">
    <title>
        shop_bag
    </title>
    <path d="M92.013 1.811c34.233 9.832 50.74 56.955 36.869 105.253s-52.868 79.481-87.1 69.649S-8.958 119.758 4.913 71.46 57.78-8.021 92.013 1.811zM188.1 9.368a42 42 0 1 1-42 42 42 42 0 0 1 42-42zm28.813 156.369a41.788 41.788 0 0 1-46.569 36.385c-13.241-1.625-34.073-.04-40.744-11.073-4.416-7.292 3.172-25.831 4.359-35.5a41.789 41.789 0 0 1 82.955 10.185z" fill="#f4f4f4"/>
    <path d="M190.6 189.368a2.5 2.5 0 1 1-2.5 2.5 2.5 2.5 0 0 1 2.5-2.5zm-115-156a2.5 2.5 0 1 1-2.5 2.5 2.5 2.5 0 0 1 2.5-2.5zm139 55a2.5 2.5 0 1 1-2.5 2.5 2.5 2.5 0 0 1 2.5-2.5zm-174 20a2.5 2.5 0 1 1-2.5 2.5 2.5 2.5 0 0 1 2.5-2.5zm186.736-56.61l3.326-8.306 3.019 8.306 8.413 2.925-8.413 3.376-3.019 8.167-3.326-8.166-8.114-3.377z" fill="#e94937"/>
    <path d="M227.6 127.368a4.5 4.5 0 1 1-4.5 4.5 4.5 4.5 0 0 1 4.5-4.5zm-203 4a4.5 4.5 0 1 1-4.5 4.5 4.5 4.5 0 0 1 4.5-4.5zM52.457 18.8l2.2-5.489 2 5.489 5.56 1.933-5.56 2.231-2 5.4-2.2-5.4-5.357-2.228z" fill="#a0c864"/>
    <path d="M78.568 51.787h97.061l2.008 29.537s-33.516-5.118-58.283 1.753S73.2 112.918 73.2 112.918z" fill="#ef7f73"/>
    <path d="M78.916 53.133h96.7l.929 12.378s-36.06-5.077-60.828 1.794-40.789 25.737-40.789 25.737z" fill="#ed6859"/>
    <path d="M212.6 161.368a2.5 2.5 0 1 1-2.5 2.5 2.5 2.5 0 0 1 2.5-2.5zm-12 0h-.009l-22.667.075a19.937 19.937 0 0 0 6.883-15.075l-8.627-95.749h-21.089a27.866 27.866 0 0 0-2.273-10.844 28.368 28.368 0 0 0-6.214-9.059 28.942 28.942 0 0 0-9.218-6.108 29.562 29.562 0 0 0-22.576 0 28.953 28.953 0 0 0-9.218 6.108 28.387 28.387 0 0 0-6.215 9.059A27.866 27.866 0 0 0 97.1 50.619H75.949l-9.04 95.749a19.958 19.958 0 0 0 7.259 15.416l-25.579.084a2.5 2.5 0 0 0 .009 5h.008l152-.5a2.5 2.5 0 0 0-.008-5zM103.969 41.752a23.418 23.418 0 0 1 5.128-7.47 23.962 23.962 0 0 1 7.633-5.057 24.56 24.56 0 0 1 18.737 0 23.969 23.969 0 0 1 7.632 5.057 23.406 23.406 0 0 1 5.127 7.469 22.911 22.911 0 0 1 1.869 8.816H102.1a22.9 22.9 0 0 1 1.869-8.815zM71.91 146.587l8.59-90.968h16.6v15.249a2.5 2.5 0 0 0 5 0V55.619h48v15.249a2.5 2.5 0 0 0 5 0V55.619h16.51l8.2 90.958a15 15 0 0 1-15 14.791h-77.9a15 15 0 0 1-15-14.781zm87.69 25.781h-66a2.5 2.5 0 0 0 0 5h66a2.5 2.5 0 0 0 0-5zm41.5-157a13 13 0 1 0 13 13 13.014 13.014 0 0 0-13-13zm0 21a8 8 0 1 1 8-8 8.009 8.009 0 0 1-8 8zm-88.81 72.115a2.64 2.64 0 0 0 2.691-2.588v-.1a11.3 11.3 0 1 1 11.3 11.509 2.64 2.64 0 0 0-2.64 2.64v11.825a2.64 2.64 0 1 0 5.279.1v-9.5a16.577 16.577 0 0 0 14.168-18.674 16.786 16.786 0 0 0-33.386 2.1 2.64 2.64 0 0 0 2.586 2.688zm13.768 32.5a2.889 2.889 0 1 0 2.889 2.889 2.889 2.889 0 0 0-2.891-2.886z" fill="#575756"/>
</svg>
