<svg xmlns="http://www.w3.org/2000/svg" viewBox="0 0 245.957 260.824">
    <path d="M107.422 8.846c33.485 12.183 44.246 67.091 24.036 122.639s-63.739 90.7-97.224 78.521-44.246-67.09-24.034-122.639S73.937-3.336 107.422 8.846zM203.957 36.5a42 42 0 1 1-42 42 42 42 0 0 1 42-42zm9.843 123.947a41.794 41.794 0 0 1 29.546 51.191c-3.455 12.886-4.788 33.739-16.644 38.807-7.837 3.358-25.14-6.74-34.548-9.263a41.794 41.794 0 0 1 21.646-80.735z" fill="#f4f4f4"/>
    <path d="M215.457 213.5a2.5 2.5 0 1 1-2.5 2.5 2.5 2.5 0 0 1 2.5-2.5zm-163-172a2.5 2.5 0 1 1-2.5 2.5 2.5 2.5 0 0 1 2.5-2.5zm180 99a2.5 2.5 0 1 1-2.5 2.5 2.5 2.5 0 0 1 2.5-2.5zm-21.264 24.39l3.326-8.306 3.019 8.306 8.413 2.925-8.413 3.376-3.019 8.167-3.326-8.166-8.114-3.377z" fill="#e94937"/>
    <path d="M241.457 188.5a4.5 4.5 0 1 1-4.5 4.5 4.5 4.5 0 0 1 4.5-4.5zM29.316 26.935l2.2-5.489 2 5.489 5.56 1.933-5.56 2.232-2 5.4-2.2-5.4-5.359-2.228z" fill="#a0c864"/>
    <path d="M215.457 258.445a2.146 2.146 0 0 1-2 2.267h-134.4a12 12 0 0 1-12-12v-210.1a12 12 0 0 1 12-12h102.124a12 12 0 0 1 12 12v210.1a11.941 11.941 0 0 1-2.614 7.465h22.89a2.147 2.147 0 0 1 2 2.268zm3.5-2.268a2.324 2.324 0 1 0 2.323 2.323 2.323 2.323 0 0 0-2.323-2.323z" fill="#575756"/>
    <path d="M179.814 31.147h-25.042a4.236 4.236 0 0 0-4.237 4.235 4.237 4.237 0 0 1-4.237 4.237h-32.359a4.237 4.237 0 0 1-4.237-4.237 4.237 4.237 0 0 0-4.235-4.237H80.422a8.829 8.829 0 0 0-8.829 8.828v207.374a8.83 8.83 0 0 0 8.83 8.83h99.39a8.83 8.83 0 0 0 8.83-8.83V39.978a8.829 8.829 0 0 0-8.827-8.831z" fill="#fff"/>
    <path d="M151.391 251.445a1.954 1.954 0 0 1-1.954 1.954H110.8a1.954 1.954 0 0 1-1.954-1.954 1.956 1.956 0 0 1 1.954-1.955h38.637a1.954 1.954 0 0 1 1.954 1.955zm28.425-220.3h-25.045a4.236 4.236 0 0 0-4.237 4.235 4.237 4.237 0 0 1-4.237 4.237h-32.358a4.237 4.237 0 0 1-4.237-4.237 4.237 4.237 0 0 0-4.235-4.237H80.422a8.829 8.829 0 0 0-8.829 8.828v23.776h117.05V39.978a8.829 8.829 0 0 0-8.827-8.831z" fill="#ef7f73"/>
    <path d="M113.22 120.5h10a5 5 0 0 1 5 5v10a5 5 0 0 1-5 5h-10a5 5 0 0 1-5-5v-10a5 5 0 0 1 5-5zm26.869 27h10a5 5 0 0 1 5 5v10a5 5 0 0 1-5 5h-10a5 5 0 0 1-5-5v-10a5 5 0 0 1 5-5zm0 27h10a5 5 0 0 1 5 5v10a5 5 0 0 1-5 5h-10a5 5 0 0 1-5-5v-10a5 5 0 0 1 5-5z" fill="#ef7f73"/>
    <path d="M111.482 140.357h14.252a2.343 2.343 0 0 0 2.343-2.343v-14.291a2.343 2.343 0 0 0-2.343-2.343l-.071 14.291a2.321 2.321 0 0 1-2.3 2.343h-14.224a2.343 2.343 0 0 0 2.343 2.343zm27 27h14.252a2.343 2.343 0 0 0 2.343-2.343v-14.291a2.343 2.343 0 0 0-2.343-2.343l-.071 14.291a2.321 2.321 0 0 1-2.3 2.343h-14.224a2.343 2.343 0 0 0 2.343 2.343zm0 27h14.252a2.343 2.343 0 0 0 2.343-2.343v-14.291a2.343 2.343 0 0 0-2.343-2.343l-.071 14.291a2.321 2.321 0 0 1-2.3 2.343h-14.224a2.343 2.343 0 0 0 2.343 2.343z" fill="#ed6859"/>
    <path d="M162.381 79.14H97.855a2.071 2.071 0 0 1-2.071-2.071A2.072 2.072 0 0 1 97.855 75h64.526a2.073 2.073 0 0 1 2.071 2.071 2.071 2.071 0 0 1-2.071 2.069z" fill="#d7d8d7"/>
    <path d="M85.352 93.5h10a5 5 0 0 1 5 5v10a5 5 0 0 1-5 5h-10a5 5 0 0 1-5-5v-10a5 5 0 0 1 5-5zm1 27h10a5 5 0 0 1 5 5v10a5 5 0 0 1-5 5h-10a5 5 0 0 1-5-5v-10a5 5 0 0 1 5-5zm0 27h10a5 5 0 0 1 5 5v10a5 5 0 0 1-5 5h-10a5 5 0 0 1-5-5v-10a5 5 0 0 1 5-5zm0 27h10a5 5 0 0 1 5 5v10a5 5 0 0 1-5 5h-10a5 5 0 0 1-5-5v-10a5 5 0 0 1 5-5zm25.868-81h10a5 5 0 0 1 5 5v10a5 5 0 0 1-5 5h-10a5 5 0 0 1-5-5v-10a5 5 0 0 1 5-5zm1 54h10a5 5 0 0 1 5 5v10a5 5 0 0 1-5 5h-10a5 5 0 0 1-5-5v-10a5 5 0 0 1 5-5zm0 27h10a5 5 0 0 1 5 5v10a5 5 0 0 1-5 5h-10a5 5 0 0 1-5-5v-10a5 5 0 0 1 5-5zm25.869-81h10a5 5 0 0 1 5 5v10a5 5 0 0 1-5 5h-10a5 5 0 0 1-5-5v-10a5 5 0 0 1 5-5zm1 27h10a5 5 0 0 1 5 5v10a5 5 0 0 1-5 5h-10a5 5 0 0 1-5-5v-10a5 5 0 0 1 5-5zm25.868-27h10a5 5 0 0 1 5 5v10a5 5 0 0 1-5 5h-10a5 5 0 0 1-5-5v-10a5 5 0 0 1 5-5zm1 27h10a5 5 0 0 1 5 5v10a5 5 0 0 1-5 5h-10a5 5 0 0 1-5-5v-10a5 5 0 0 1 5-5zm0 27h10a5 5 0 0 1 5 5v10a5 5 0 0 1-5 5h-10a5 5 0 0 1-5-5v-10a5 5 0 0 1 5-5zm0 27h10a5 5 0 0 1 5 5v10a5 5 0 0 1-5 5h-10a5 5 0 0 1-5-5v-10a5 5 0 0 1 5-5zm-85.5-88h99a.5.5 0 0 1 .5.5.5.5 0 0 1-.5.5h-99a.5.5 0 0 1-.5-.5.5.5 0 0 1 .5-.5zm4.9 130.924h90.6a5 5 0 0 1 5 5V230a5 5 0 0 1-5 5h-90.6a5 5 0 0 1-5-5v-7.572a5 5 0 0 1 4.995-5.004zm61.756-3.687h-64.53a2.071 2.071 0 0 1-2.071-2.071 2.071 2.071 0 0 1 2.071-2.071h64.525a2.071 2.071 0 0 1 2.071 2.071 2.071 2.071 0 0 1-2.071 2.071z" fill="#f1f0f1"/>
    <path d="M123.22 141.5h-10a6.007 6.007 0 0 1-6-6v-10a6.007 6.007 0 0 1 6-6h10a6.007 6.007 0 0 1 6 6v10a6.006 6.006 0 0 1-6 6zm-10-20a4.005 4.005 0 0 0-4 4v10a4 4 0 0 0 4 4h10a4 4 0 0 0 4-4v-10a4 4 0 0 0-4-4zm37 47h-10a6.007 6.007 0 0 1-6-6v-10a6.007 6.007 0 0 1 6-6h10a6.007 6.007 0 0 1 6 6v10a6.006 6.006 0 0 1-6 6zm-10-20a4.005 4.005 0 0 0-4 4v10a4 4 0 0 0 4 4h10a4 4 0 0 0 4-4v-10a4 4 0 0 0-4-4zm10 47h-10a6.007 6.007 0 0 1-6-6v-10a6.007 6.007 0 0 1 6-6h10a6.007 6.007 0 0 1 6 6v10a6.006 6.006 0 0 1-6 6zm-10-20a4.005 4.005 0 0 0-4 4v10a4 4 0 0 0 4 4h10a4 4 0 0 0 4-4v-10a4 4 0 0 0-4-4zm54.713-152.2l10.31-20.4a2 2 0 1 0-3.57-1.8l-10.31 20.4a2 2 0 1 0 3.57 1.8zm3.992 5.869l15.556-7.069a2 2 0 1 0-1.655-3.642l-15.557 7.072a2 2 0 0 0 1.656 3.642zM186.74 21.98a2 2 0 0 0 1.7-2.262l-1-7a2 2 0 1 0-3.96.565l1 7A2 2 0 0 0 186.455 22a1.973 1.973 0 0 0 .285-.02z" fill="#575756"/>
    <path d="M182.7 34.919h-1v-.825h-8.317v4.083h8.317v-.826h1zm-1.911 2.35h-1.454V35h1.454z" fill="#fff"/>
    <path d="M77.465 36.823H78.6v1.564h-1.135zm2.155-.882h1.134v2.445H79.62zm2.154-1.141h1.134v3.582h-1.134zm2.155-.919h1.134v4.5h-1.134z" fill="#fff"/>
</svg>
