<?xml version="1.0" encoding="UTF-8" standalone="no"?>
<svg xmlns="http://www.w3.org/2000/svg" xmlns:xlink="http://www.w3.org/1999/xlink" width="288" height="73" viewBox="0 0 288 73"><defs><path id="a" d="M841.04 81.8c-2.45 2.4-5.7 3.59-9.7 3.59-4 0-7.25-1.15-9.64-3.5-2.42-2.23-3.6-5.22-3.6-8.98h5.12c0 5.47 2.72 8.2 8.12 8.2 2.61 0 4.6-.7 6.03-2.1 1.42-1.42 2.15-3.33 2.15-5.77 0-1.8-.53-3.29-1.59-4.4-1.16-1.22-3.58-2.67-7.15-4.38-3.78-1.78-6.46-3.5-8.05-5.14a8.9 8.9 0 0 1-2.55-6.35c0-2.7.96-4.97 2.88-6.78 2.02-1.98 4.77-2.93 8.18-2.93 3.31 0 6.03.82 8.18 2.53a8.74 8.74 0 0 1 3.31 7.15h-4.96c0-3.62-2.16-5.43-6.43-5.43-4.07 0-6.13 1.77-6.13 5.3 0 1.67.57 3.02 1.7 4.08 1.08 1.01 3.34 2.33 6.65 3.88 4.3 1.97 7.22 3.85 8.77 5.63 1.5 1.7 2.22 3.91 2.22 6.68 0 3.52-1.15 6.45-3.5 8.72zm39.35-10.76c0 4.18-1.26 7.6-3.8 10.2-2.66 2.77-6.23 4.15-10.77 4.15-4.57 0-8.15-1.38-10.8-4.15-2.55-2.6-3.8-6.02-3.8-10.2v-26.6h4.83v26.6c0 2.86.83 5.2 2.45 7 1.75 1.98 4.17 2.97 7.32 2.97 3.08 0 5.53-.99 7.32-2.96 1.62-1.81 2.42-4.15 2.42-7.01v-26.6h4.83zm43.09 14.61l-29.15-30.77V84.2h-4.7V43l29.15 30.7V44.41h4.7zm42.13-1.45h-5.07l-4.9-11.06h-17.99l-4.9 11.06h-5.06L946.63 43zm-11.8-15.14l-7.18-16.12-7.15 16.12zm49.82 16.6l-29.15-30.78V84.2h-4.7V43l29.15 30.7V44.41h4.7zm41.96-2.8a35.53 35.53 0 0 1-12.35 2.46c-6.33 0-11.5-1.8-15.57-5.46-4.3-3.85-6.42-9.02-6.42-15.5 0-6.36 1.99-11.49 6-15.34 3.97-3.85 9.3-5.76 15.99-5.76 3.21 0 7.32.99 12.35 3v5.3c-5.07-2.6-9.17-3.92-12.35-3.92-4.93 0-8.94 1.41-12.02 4.28-3.25 3.02-4.87 7.17-4.87 12.44 0 4.9 1.46 8.88 4.37 11.88 3.05 3.13 7.22 4.7 12.52 4.7 2.75 0 5.3-.46 7.72-1.34V67.29h-10v-4.45h14.63zm31.04 1.34h-21.83V44.44h21.83v4.25h-16.96v11.75h15.83v4.18h-15.83v15.27h16.96zm26.36 0h-18.35V44.44h4.87V79.9h13.48zm-186.43 23.5c0 1.55-.33 2.67-.96 3.33-.67.65-1.6.98-2.78.98-1.2 0-2.09-.33-2.69-.98-.6-.63-.93-1.62-.93-2.9l1.6-.2c.03.86.2 1.48.53 1.91.32.43.82.63 1.49.63.6 0 1.06-.14 1.35-.4.27-.26.47-.6.53-.95.07-.37.1-.8.1-1.35v-8.79h1.76zm15.6 4.08h-10v-12.8h9.67v1.55h-7.92v3.88h7.42v1.51h-7.42v4.35h8.25zm21.03-12.8l-3.71 12.8h-1.7l-2.9-10.07c-.17-.53-.24-.92-.3-1.18h-.04l-.36 1.51-2.85 9.74h-1.79l-3.57-12.8h1.79l2.08 8.4c.27 1.11.43 1.9.53 2.43v.2h.03c.27-1.12.44-1.91.6-2.37l2.52-8.66h2.15l1.92 6.48c.46 1.62.83 3.13 1.03 4.55h.03c.13-.7.33-1.65.63-2.8l2.12-8.23zm14.27 12.8h-10v-12.8h9.67v1.55h-7.91v3.88h7.41v1.51h-7.41v4.35h8.24zm13.38 0h-8.38v-12.8h1.76v11.29h6.62zm16.5 0h-2.22c-1.33-2-2.15-3.25-2.49-3.72a7.31 7.31 0 0 0-1.02-1.18c-.37-.3-.7-.53-1-.63a6.6 6.6 0 0 0-1.26-.1h-2.05v5.63h-1.75v-12.8h5.92c.8 0 1.5.07 2.03.17a3.21 3.21 0 0 1 2.42 1.8c.19.5.32 1 .32 1.55 0 .96-.32 1.75-.95 2.34-.63.56-1.6.95-2.82 1.08v.07a5.93 5.93 0 0 1 2.55 2.3zm-10.04-7.17h3.8c.77 0 1.4-.03 1.83-.17.46-.13.8-.36 1.1-.72.26-.36.4-.8.4-1.22 0-.6-.24-1.08-.67-1.48-.46-.43-1.2-.62-2.22-.62h-4.24zm24.88-5.63l-5.33 7.37v5.43h-1.8v-5.43l-5.16-7.37h2.18l2.92 4.31c.3.43.66 1.02 1.06 1.71.26-.46 1.62-2.47 4.07-6.02zm-105.6 7.93c-29.97-.46-67.33-.53-88.59-1.41 21.2-1.12 58.62-.8 88.6-1.19zm108.31-2.6c29.97.4 66.9.07 88.07 1.19-21.23.88-58.1.95-88.07 1.41z"/></defs><g transform="translate(-816 -41)"><use fill="#1a1a1a" xlink:href="#a"/></g></svg>