<svg xmlns="http://www.w3.org/2000/svg" xmlns:xlink="http://www.w3.org/1999/xlink" width="23" height="29" viewBox="0 0 23 29"><defs><path id="a" d="M945.99 711.41a11.07 11.07 0 0 1-.92 4.37c-1.07 2.64-3.45 6.7-8.64 11.05a.69.69 0 0 1-.89 0c-5.2-4.35-7.57-8.41-8.64-11.05a10.39 10.39 0 0 1-.91-4.37c0-5.74 4.48-10.42 9.99-10.42 5.5 0 10 4.68 10 10.42zm-5.08.12a5.05 5.05 0 0 0-4.93-5.15 5.05 5.05 0 0 0-4.93 5.15c0 2.84 2.2 5.14 4.93 5.14 2.72 0 4.93-2.3 4.93-5.14z"/></defs><g transform="translate(-924 -699)"><use fill="#ee8b76" xlink:href="#a"/></g></svg>