<?xml version="1.0" standalone="no"?>
<!DOCTYPE svg PUBLIC "-//W3C//DTD SVG 20010904//EN"
 "http://www.w3.org/TR/2001/REC-SVG-20010904/DTD/svg10.dtd">
<svg version="1.0" xmlns="http://www.w3.org/2000/svg"
 width="700.000000pt" height="700.000000pt" viewBox="0 0 700.000000 700.000000"
 preserveAspectRatio="xMidYMid meet">
<metadata>
Created by potrace 1.11, written by Peter Selinger 2001-2013
</metadata>
<g transform="translate(0.000000,700.000000) scale(0.100000,-0.100000)"
fill="#000000" stroke="none">
<path d="M730 6980 c-144 -30 -238 -72 -355 -155 -170 -121 -309 -330 -351
-526 -2 -13 -9 -44 -14 -69 -12 -59 -13 -5431 -1 -5463 5 -13 12 -39 15 -58 3
-19 14 -61 26 -94 95 -279 318 -490 615 -582 l90 -28 2725 0 c1499 0 2743 3
2765 7 314 55 591 287 699 587 26 72 29 85 46 176 5 29 8 1165 7 2760 l-2
2710 -28 89 c-37 118 -59 166 -122 261 -130 196 -351 345 -580 391 -22 4
-1257 9 -2745 10 -2584 3 -2709 2 -2790 -16z"/>
</g>
</svg>
