<svg xmlns="http://www.w3.org/2000/svg" width="50.572" height="81.831">
    <title>
        map pin
    </title>
    <g transform="translate(-9.967 -7.063) scale(.04832)">
        <title>
            Layer 1
        </title>
        <path d="M730.94 1839.63c-38.766-190.3-107.116-348.67-189.903-495.44-61.407-108.87-132.544-209.36-198.364-314.94-21.972-35.243-40.934-72.476-62.047-109.053-42.216-73.137-76.444-157.935-74.269-267.932 2.125-107.473 33.208-193.684 78.03-264.172 73.719-115.935 197.201-210.989 362.884-235.969 135.466-20.424 262.475 14.082 352.543 66.748 73.596 43.038 130.596 100.527 173.916 168.28 45.22 70.716 76.36 154.26 78.97 263.232 1.34 55.83-7.8 107.532-20.68 150.418-13.03 43.409-33.99 79.695-52.64 118.454-36.41 75.659-82.05 144.984-127.86 214.344-136.437 206.61-264.496 417.31-320.58 706.03z" clip-rule="evenodd" fill="#ff7f00" fill-rule="evenodd"/>
        <circle cx="729.546" cy="651.047" r="183.333" clip-rule="evenodd" fill="#fff" fill-rule="evenodd"/>
    </g>
</svg>
