<svg xmlns="http://www.w3.org/2000/svg" height="405.785" width="2133.335" viewBox="0 0 2133.335 405.78501">
    <path fill-opacity=".118" d="M320 258.969l25.173 146.816-131.84-69.316-131.848 69.316 25.182-146.816L0 154.995l147.409-21.419L213.333 0l65.916 133.576 147.418 21.419z"/>
    <path fill-opacity=".118" d="M426.667 154.995l147.409-21.419L640 0l65.916 133.576 147.418 21.419-106.667 103.974 25.173 146.816L640 336.469l-131.848 69.316 25.182-146.816z"/>
    <path fill-opacity=".118" d="M853.334 154.995l147.409-21.419L1066.667 0l65.916 133.576 147.418 21.419-106.667 103.974 25.173 146.816-131.84-69.316-131.848 69.316 25.182-146.816z"/>
    <path fill-opacity=".118" d="M1600.001 258.969l25.173 146.816-131.84-69.316-131.848 69.316 25.182-146.816-106.667-103.974 147.409-21.419L1493.334 0l65.916 133.576 147.418 21.419z"/>
    <path fill-opacity=".118" d="M1706.668 154.995l147.409-21.419L1920.001 0l65.916 133.576 147.418 21.419-106.667 103.974 25.173 146.816-131.84-69.316-131.848 69.316 25.182-146.816z"/>
</svg>
