<svg xmlns="http://www.w3.org/2000/svg" xmlns:xlink="http://www.w3.org/1999/xlink" width="184" height="164" viewBox="0 0 184 164"><defs><path id="md59a" d="M123.335 215.325c0-35.616 28.872-64.489 64.488-64.489 35.617 0 64.49 28.873 64.49 64.49 0 35.616-28.873 64.488-64.49 64.488-35.616 0-64.489-28.872-64.489-64.489z"/><path id="md59c" d="M154.175 212.573l23.996 23.996"/><path id="md59d" d="M220.913 193.826l-41.992 41.993"/><path id="md59e" d="M268.346 226.711l4.988 4.989"/><path id="md59f" d="M282.219 222.814l-8.729 8.729"/><path id="md59g" d="M113.873 173.216l6.742 6.743"/><path id="md59h" d="M132.625 167.948l-11.799 11.8"/><path id="md59i" d="M125.12 279.109l2.831 2.83"/><path id="md59j" d="M132.994 276.897l-4.954 4.955"/><path id="md59k" d="M185.11 132.466l4 4"/><path id="md59l" d="M196.233 129.342l-6.998 6.998"/><path id="md59m" d="M119.497 142.09a7.499 7.499 0 1 1 14.997 0 7.499 7.499 0 0 1-14.997 0z"/><path id="md59n" d="M212.48 135.715a6.374 6.374 0 1 1 12.748 0 6.374 6.374 0 0 1-12.747 0z"/><path id="md59o" d="M260.472 209.578a5.999 5.999 0 1 1 11.998 0 5.999 5.999 0 0 1-11.998 0z"/><path id="md59p" d="M150.991 285.315a5.999 5.999 0 1 1 11.998 0 5.999 5.999 0 0 1-11.998 0z"/><path id="md59q" d="M103.75 252.695a5.624 5.624 0 1 1 11.247 0 5.624 5.624 0 0 1-11.248 0z"/><path id="md59r" d="M240.976 272.567a7.499 7.499 0 1 1 14.997 0 7.499 7.499 0 0 1-14.997 0z"/><path id="md59s" d="M100 209.578c0-5.384 4.364-9.749 9.748-9.749 5.384 0 9.749 4.365 9.749 9.749s-4.365 9.748-9.749 9.748-9.748-4.364-9.748-9.748z"/><path id="md59t" d="M239.476 156.337c0-5.798 4.7-10.498 10.498-10.498 5.798 0 10.498 4.7 10.498 10.498 0 5.798-4.7 10.498-10.498 10.498-5.798 0-10.498-4.7-10.498-10.498z"/><path id="md59u" d="M245.475 176.208a4.874 4.874 0 1 1 9.748 0 4.874 4.874 0 0 1-9.748 0z"/><path id="md59v" d="M117.997 254.57a3.75 3.75 0 1 1 7.499 0 3.75 3.75 0 0 1-7.5 0z"/><path id="md59w" d="M162.99 146.214a3.374 3.374 0 1 1 6.748 0 3.374 3.374 0 0 1-6.749 0z"/><path id="md59x" d="M180.986 285.315a2.25 2.25 0 1 1 4.5 0 2.25 2.25 0 0 1-4.5 0z"/><path id="md59y" d="M162.99 146.214a3.374 3.374 0 1 1 6.748 0 3.374 3.374 0 0 1-6.749 0z"/><clipPath id="md59b"><use fill="#fff" xlink:href="#md59a"/></clipPath></defs><g><g transform="translate(-100 -128)"><g><use fill="#fff" xlink:href="#md59a"/><use fill="#fff" fill-opacity="0" stroke="#efefef" stroke-miterlimit="50" stroke-width="6" clip-path="url(&quot;#md59b&quot;)" xlink:href="#md59a"/></g><g><g><use fill="#fff" fill-opacity="0" stroke="#ff806e" stroke-linecap="square" stroke-miterlimit="50" stroke-width="5" xlink:href="#md59c"/></g><g><use fill="#fff" fill-opacity="0" stroke="#ff806e" stroke-linecap="square" stroke-miterlimit="50" stroke-width="5" xlink:href="#md59d"/></g></g><g><g><use fill="#fff" fill-opacity="0" stroke="#e6e6e6" stroke-linecap="square" stroke-miterlimit="50" stroke-width="2" xlink:href="#md59e"/></g><g><use fill="#fff" fill-opacity="0" stroke="#e6e6e6" stroke-linecap="square" stroke-miterlimit="50" stroke-width="2" xlink:href="#md59f"/></g></g><g><g><use fill="#fff" fill-opacity="0" stroke="#e6e6e6" stroke-linecap="square" stroke-miterlimit="50" stroke-width="2" xlink:href="#md59g"/></g><g><use fill="#fff" fill-opacity="0" stroke="#e6e6e6" stroke-linecap="square" stroke-miterlimit="50" stroke-width="2" xlink:href="#md59h"/></g></g><g><g><use fill="#fff" fill-opacity="0" stroke="#e6e6e6" stroke-linecap="square" stroke-miterlimit="50" xlink:href="#md59i"/></g><g><use fill="#fff" fill-opacity="0" stroke="#e6e6e6" stroke-linecap="square" stroke-miterlimit="50" xlink:href="#md59j"/></g></g><g><g><use fill="#fff" fill-opacity="0" stroke="#e6e6e6" stroke-linecap="square" stroke-miterlimit="50" xlink:href="#md59k"/></g><g><use fill="#fff" fill-opacity="0" stroke="#e6e6e6" stroke-linecap="square" stroke-miterlimit="50" xlink:href="#md59l"/></g></g><g><use fill="#e6e6e6" xlink:href="#md59m"/></g><g><use fill="#efefef" xlink:href="#md59n"/></g><g><use fill="#efefef" xlink:href="#md59o"/></g><g><use fill="#efefef" xlink:href="#md59p"/></g><g><use fill="#efefef" xlink:href="#md59q"/></g><g><use fill="#e6e6e6" xlink:href="#md59r"/></g><g><use fill="#e6e6e6" xlink:href="#md59s"/></g><g><use fill="#e6e6e6" xlink:href="#md59t"/></g><g><use fill="#e6e6e6" xlink:href="#md59u"/></g><g><use fill="#e6e6e6" xlink:href="#md59v"/></g><g><use fill="#e6e6e6" xlink:href="#md59w"/></g><g><use fill="#e6e6e6" xlink:href="#md59x"/></g><g><use fill="#e6e6e6" xlink:href="#md59y"/></g></g></g></svg>