<svg width="109" height="44" viewBox="0 0 109 44" fill="none" xmlns="http://www.w3.org/2000/svg"><path d="M7.735 14.09c3.41-4.388 12.217-10.089 20.193-8.272 5.759 1.312 9.573 9.735 9.974 16.618.355 6.088-6.95 16.402-23.555 15.105C-2.257 36.242 2.35 21.023 7.735 14.09z" fill="url(#a)"/><path d="M10.75 18.6a4.388 4.388 0 0 1 4.388-4.388h16.148a.44.44 0 0 1 .439.44 4.388 4.388 0 0 1-4.388 4.387H11.189a.439.439 0 0 1-.44-.439zm0 6.704a4.388 4.388 0 0 1 4.388-4.387h9.593c.243 0 .44.196.44.438a4.388 4.388 0 0 1-4.389 4.388h-9.594a.439.439 0 0 1-.438-.439zm0 6.704a4.388 4.388 0 0 1 4.388-4.388h3.3a.44.44 0 0 1 .44.439 4.388 4.388 0 0 1-4.388 4.388h-3.302a.439.439 0 0 1-.438-.439z" fill="#fff"/><path d="M45.912 30h2.185v-7.41h3.515V20.5h-3.515v-.532c0-1.102.532-1.463 1.33-1.463.969 0 1.786.342 2.375.779l.798-1.919c-.855-.608-1.919-.95-3.173-.95-2.014 0-3.515.931-3.515 3.572V30zm7.373-3.306c0 2.584 1.31 3.496 3.078 3.496.855 0 1.634-.19 2.204-.551l-.684-1.919c-.304.228-.741.38-1.197.38-.722 0-1.197-.342-1.197-1.387V16.7h-2.204v9.994zM67.628 20.5h-2.204v7.372c-.342.19-.741.323-1.35.323-1.52 0-2.507-.646-2.507-2.641V20.5h-2.185v4.902c0 3.363 1.919 4.883 4.37 4.883.532 0 1.216-.095 1.672-.323v.589c0 1.501-.855 2.128-2.071 2.128-1.197 0-2.3-.304-3.078-.779l-.684 1.919c1.026.608 2.28.931 3.762.931 2.47 0 4.275-1.425 4.275-4.199V20.5z" fill="#C45092"/><path d="M70.04 30h1.577v-9.5H70.04V30zm-.209-12.388c0 .551.437.988 1.007.988a.981.981 0 0 0 .988-.988.986.986 0 0 0-.988-1.007.99.99 0 0 0-1.007 1.007zM74.03 30h1.558v-7.885c.456-.19 1.026-.361 1.938-.361 1.615 0 2.679.798 2.679 3.173V30h1.558v-4.978c0-3.344-1.748-4.75-4.142-4.75-1.596 0-2.85.38-3.591.798V30zm9.51-.779c.893.532 2.147.95 3.705.95 1.957 0 3.876-.665 3.876-2.641 0-1.767-1.102-2.755-3.61-3.23-.74-.133-2.185-.247-2.185-1.349 0-.893 1.026-1.197 2.11-1.197 1.367 0 2.431.456 2.982.836l.532-1.368c-.684-.418-1.805-.95-3.515-.95-1.786 0-3.686.551-3.686 2.717s1.976 2.584 3.382 2.85c1.406.266 2.413.665 2.413 1.653 0 .798-1.064 1.197-2.299 1.197-1.786 0-2.926-.684-3.173-.817l-.532 1.349zm9.638-2.47c0 2.527 1.368 3.42 3.211 3.42 1.102 0 2.09-.323 2.85-.95a39.66 39.66 0 0 1-.531-1.349c-.456.437-1.102.703-1.843.76a3.661 3.661 0 0 1-.913 0c-.74-.133-1.215-.646-1.215-1.881v-4.769h3.8V20.5h-3.8v-2.85h-1.559v9.101zm14.471-3.059c0-2.546-1.672-3.42-3.857-3.42-1.368 0-2.527.342-3.515.95l.57 1.273a5.734 5.734 0 0 1 2.85-.741c1.444 0 2.394.418 2.394 1.748v.285l-1.824.133c-2.641.133-4.35 1.102-4.35 3.002v.095c0 2.204 1.861 3.211 4.027 3.211 1.52 0 2.736-.285 3.705-.798v-5.738zm-1.558 4.712c-.513.19-1.178.342-2.109.342-1.444 0-2.508-.513-2.508-1.729v-.095c0-1.178 1.064-1.653 2.793-1.748l1.824-.095v3.325z" fill="#fff"/><defs><linearGradient id="a" x1="5.376" y1="16.728" x2="37.377" y2="26.923" gradientUnits="userSpaceOnUse"><stop stop-color="#C286CF"/><stop offset="1" stop-color="#EC848E"/></linearGradient></defs></svg>