<svg xmlns="http://www.w3.org/2000/svg" viewBox="0 0 294.911 61.02">
  <defs>
    <style>
      .cls-1 {
        fill: #d6e3f3;
      }

      .cls-2 {
        fill: #fee47a;
      }

      .cls-3 {
        fill: #fdc9a6;
      }

      .cls-4 {
        fill: #ffcceb;
      }

      .cls-5 {
        fill: #5770ff;
      }

      .cls-6 {
        fill: #ff3f62;
      }

      .cls-7 {
        fill: #ed204c;
      }

      .cls-8 {
        fill: #ff80ab;
      }

      .cls-9 {
        fill: #616161;
      }

      .cls-10 {
        fill: #b0bec5;
      }

      .cls-11 {
        fill: #90a4ae;
      }

      .cls-12 {
        fill: #424242;
      }

      .cls-13 {
        fill: #ff4081;
      }

      .cls-14 {
        fill: #fff;
      }

      .cls-15 {
        fill: #fcde76;
      }

      .cls-16 {
        fill: #fcd9b1;
      }

      .cls-17 {
        fill: #fab364;
      }

      .cls-18 {
        fill: #ad7dc9;
      }

      .cls-19 {
        fill: #8a6cbd;
      }

      .cls-20 {
        fill: #f0f0f1;
      }

      .cls-21 {
        fill: #e1e0e4;
      }

      .cls-22 {
        fill: #e6608d;
      }

      .cls-23 {
        fill: #d4506f;
      }

      .cls-24 {
        fill: #38c7c2;
      }

      .cls-25 {
        fill: #00b5b8;
      }
    </style>
  </defs>
  <g id="_1" data-name="1" transform="translate(11336.959 11465.047)">
    <g id="_1-2" data-name="1" transform="translate(-11336.959 -11465.047)">
      <ellipse id="Ellipse_969" data-name="Ellipse 969" class="cls-1" cx="30.5" cy="30.5" rx="30.5" ry="30.5" transform="translate(0 0)"/>
      <g id="makeup_6_" data-name="makeup (6)" transform="translate(19.539 16.993)">
        <path id="Path_6249" data-name="Path 6249" class="cls-2" d="M169.612,12.907h0a8.787,8.787,0,0,1,4.922,1.5,4.953,4.953,0,0,0-9.845,0A8.787,8.787,0,0,1,169.612,12.907Z" transform="translate(-158.616 -9.462)"/>
        <g id="Group_1725" data-name="Group 1725" transform="translate(0.538 10.019)">
          <path id="Path_6250" data-name="Path 6250" class="cls-3" d="M54.661,253.478h0a1.753,1.753,0,0,0-1.712,1.787l0,1.364a1.753,1.753,0,0,0,1.712,1.794H72.137a1.753,1.753,0,0,0,1.712-1.794l0-1.364a1.753,1.753,0,0,0-1.712-1.787H54.661Z" transform="translate(-52.946 -250.431)"/>
          <path id="Path_6251" data-name="Path 6251" class="cls-3" d="M108.828,196.868V202a11.535,11.535,0,0,1-8.347,11.293l-.008,0h0A11.536,11.536,0,0,1,92.129,202v-5.134Z" transform="translate(-90.02 -196.868)"/>
        </g>
        <path id="Path_6252" data-name="Path 6252" class="cls-2" d="M101.171,71.152h0a8.467,8.467,0,0,0,7.09,3.956h.568v-2.28A8.6,8.6,0,0,0,100.479,64h0a8.6,8.6,0,0,0-8.349,8.828v1.507l.251.773.366-.088a24.253,24.253,0,0,0,11.016-6.009l.221-.209Z" transform="translate(-89.482 -60.555)"/>
        <path id="Path_6253" data-name="Path 6253" class="cls-4" d="M278.158,359.557l-1.984,1.984-3.034-1.257a.489.489,0,0,1-.294-.539l0-.011a4.452,4.452,0,0,1,3.58-3.58h0a.489.489,0,0,1,.544.306Z" transform="translate(-261.137 -337.553)"/>
        <path id="Path_6254" data-name="Path 6254" class="cls-5" d="M341.222,423.958l-4.44-4.44L334.8,421.5l2.456,2.456Z" transform="translate(-320.045 -397.514)"/>
        <path id="Path_6255" data-name="Path 6255" d="M146.625,292.82a1.442,1.442,0,0,1-2.038,0,.538.538,0,0,0-.761.761,2.52,2.52,0,0,0,3.56,0,.538.538,0,0,0-.761-.761Z" transform="translate(-138.519 -277.26)"/>
        <path id="Path_6256" data-name="Path 6256" d="M299.3,292.82a1.442,1.442,0,0,1-2.038,0,.538.538,0,1,0-.761.761,2.52,2.52,0,0,0,3.56,0,.538.538,0,0,0-.761-.761Z" transform="translate(-283.385 -277.26)"/>
        <path id="Path_6257" data-name="Path 6257" d="M56.289,24.969a10.518,10.518,0,0,1-2.352.943A10.812,10.812,0,0,1,46,15.4v-.673l.223-.051a25.421,25.421,0,0,0,8.295-3.584,9.145,9.145,0,0,0,7.311,3.683h.059V15.4a11.082,11.082,0,0,1-1.262,5.136.533.533,0,0,0,.211.714.5.5,0,0,0,.244.063.514.514,0,0,0,.455-.278,12.031,12.031,0,0,0,.919-2.305h.242a2.194,2.194,0,0,0,1.58-.669,2.29,2.29,0,0,0,.652-1.615l0-1.335a2.266,2.266,0,0,0-2.006-2.264v-.827a9.226,9.226,0,0,0-3.777-7.471,5.246,5.246,0,0,0-10.4,0,9.226,9.226,0,0,0-3.777,7.471v.826a2.266,2.266,0,0,0-2.019,2.265l0,1.335a2.29,2.29,0,0,0,.652,1.615,2.194,2.194,0,0,0,1.58.669h.25a11.765,11.765,0,0,0,8.384,8.24.505.505,0,0,0,.249,0l.009,0A11.537,11.537,0,0,0,56.777,25.9a.533.533,0,0,0,.21-.714A.51.51,0,0,0,56.289,24.969Zm7.6-9.86,0,1.335a1.231,1.231,0,0,1-.351.868,1.179,1.179,0,0,1-.842.36,12.165,12.165,0,0,0,.216-2.275v-1.49A1.222,1.222,0,0,1,63.892,15.109ZM53.943,1.054a4.225,4.225,0,0,1,3.93,2.719,8.793,8.793,0,0,0-7.86,0A4.225,4.225,0,0,1,53.943,1.054Zm0,2.846a8.04,8.04,0,0,1,7.944,8.116v1.705h-.059A8.12,8.12,0,0,1,55.371,10.5q.536-.388,1.051-.8a.535.535,0,0,0,.085-.74.509.509,0,0,0-.725-.087A24.433,24.433,0,0,1,46,13.647V12.016A8.04,8.04,0,0,1,53.943,3.9ZM45.178,17.673a1.18,1.18,0,0,1-.849-.36,1.231,1.231,0,0,1-.351-.868l0-1.335a1.221,1.221,0,0,1,.987-1.2v1.5a12.246,12.246,0,0,0,.212,2.272Z" transform="translate(-42.946)"/>
        <path id="Path_6258" data-name="Path 6258" d="M315.353,144.307a.537.537,0,0,0,.358-.137l.007-.007a.538.538,0,0,0-.717-.8l-.007.007a.538.538,0,0,0,.359.94Z" transform="translate(-300.821 -135.682)"/>
        <path id="Path_6259" data-name="Path 6259" d="M269.161,349.8l-1.144-2.99a1.028,1.028,0,0,0-1.144-.643,5.015,5.015,0,0,0-4.012,4.011l0,.013a1.033,1.033,0,0,0,.617,1.133l2.935,1.216,2.381,2.381a.538.538,0,0,0,.761-.761l-2.076-2.076,1.222-1.222,2.674,2.674a.538.538,0,0,0,.761-.761Zm-2.135-2.567,1.045,2.733-1.482,1.482-2.664-1.1A3.935,3.935,0,0,1,267.027,347.229Z" transform="translate(-251.963 -328.091)"/>
        <path id="Path_6260" data-name="Path 6260" d="M444.67,492a.538.538,0,1,0,.381.158A.545.545,0,0,0,444.67,492Z" transform="translate(-423.493 -466.094)"/>
      </g>
    </g>
    <g id="_2" data-name="2" transform="translate(-11103.049 -11465.047)">
      <ellipse id="Ellipse_974" data-name="Ellipse 974" class="cls-1" cx="30.5" cy="30.5" rx="30.5" ry="30.5" transform="translate(0 0)"/>
      <g id="mascara_1_" data-name="mascara (1)" transform="translate(16.176 19.499)">
        <path id="Path_6426" data-name="Path 6426" class="cls-5" d="M10.146,85.5h0a1.554,1.554,0,0,0,2,1.042L27.2,81.033a3.259,3.259,0,0,1,3.1.478l7.545,5.705L33.307,80.06a6.7,6.7,0,0,0-8.235-2.772L11.238,82.969A2.046,2.046,0,0,0,10.146,85.5Z" transform="translate(-9.431 -76.19)"/>
        <path id="Path_6427" data-name="Path 6427" d="M28.923,77.522l-4.551-7.156a7.639,7.639,0,0,0-3.978-3.161,7.1,7.1,0,0,0-4.951.163l-4.156,1.7a.621.621,0,0,0-.327.783.556.556,0,0,0,.732.35l4.156-1.7a6.159,6.159,0,0,1,7.588,2.547l2.8,4.4-5.016-3.782a3.822,3.822,0,0,0-3.623-.556L2.5,76.616a1,1,0,0,1-1.287-.669,1.416,1.416,0,0,1,.763-1.764l5.193-2.127a.621.621,0,0,0,.327-.783.556.556,0,0,0-.732-.35L1.568,73.05a2.649,2.649,0,0,0-1.427,3.3,2.124,2.124,0,0,0,2.722,1.415l15.094-5.511a2.748,2.748,0,0,1,2.6.4l7.567,5.706a.54.54,0,0,0,.326.111.547.547,0,0,0,.4-.174A.639.639,0,0,0,28.923,77.522Z" transform="translate(0 -66.838)"/>
        <path id="Path_6428" data-name="Path 6428" d="M155.875,118.5a.607.607,0,1,0-.429-.178A.611.611,0,0,0,155.875,118.5Z" transform="translate(-146.492 -114.228)"/>
        <path id="Path_6429" data-name="Path 6429" d="M52.609,284.273l-.021-.007a3.235,3.235,0,0,1-1.654-1.294,15.62,15.62,0,0,0,1.2-1.179.646.646,0,0,0,0-.858.525.525,0,0,0-.787,0,13.231,13.231,0,0,1-7.987,4.269.522.522,0,0,0-.06.008,12.833,12.833,0,0,1-1.666.109h0a12.822,12.822,0,0,1-1.666-.109.488.488,0,0,0-.06-.008,13.231,13.231,0,0,1-7.987-4.269.525.525,0,0,0-.787,0,.646.646,0,0,0,0,.858,15.623,15.623,0,0,0,1.2,1.179,3.234,3.234,0,0,1-1.653,1.294l-.022.007a.618.618,0,0,0-.368.759.564.564,0,0,0,.532.428.516.516,0,0,0,.164-.027l.023-.008a4.352,4.352,0,0,0,2.216-1.728q.286.215.579.414a3.166,3.166,0,0,1-1.752,2.046l-.172.074a.626.626,0,0,0-.312.788.559.559,0,0,0,.518.383.516.516,0,0,0,.205-.043l.173-.075a4.311,4.311,0,0,0,2.325-2.563q.321.182.649.346a3.015,3.015,0,0,1-1.472,2.457l-.033.019a.635.635,0,0,0-.236.819.552.552,0,0,0,.494.326.517.517,0,0,0,.257-.069l.033-.019a4.194,4.194,0,0,0,2.026-3.052q.354.142.715.263a4.238,4.238,0,0,1-.974,2.59.646.646,0,0,0,.034.857.53.53,0,0,0,.376.159.535.535,0,0,0,.41-.2,5.486,5.486,0,0,0,1.25-3.09q.48.118.969.2a6.675,6.675,0,0,1-.771,2.648l-.075.139a.638.638,0,0,0,.2.831.52.52,0,0,0,.281.084.549.549,0,0,0,.48-.3l.075-.139a7.966,7.966,0,0,0,.917-3.119q.338.03.68.044v3.6a.559.559,0,1,0,1.113,0v-3.6q.341-.014.68-.044a7.966,7.966,0,0,0,.917,3.119l.075.139a.549.549,0,0,0,.48.3.52.52,0,0,0,.281-.084.638.638,0,0,0,.2-.831l-.075-.139a6.676,6.676,0,0,1-.771-2.648q.489-.084.969-.2a5.486,5.486,0,0,0,1.25,3.09.535.535,0,0,0,.41.2.53.53,0,0,0,.376-.159.646.646,0,0,0,.034-.857,4.239,4.239,0,0,1-.974-2.59q.361-.122.715-.263a4.194,4.194,0,0,0,2.026,3.052l.033.019a.517.517,0,0,0,.257.069.552.552,0,0,0,.494-.326.634.634,0,0,0-.236-.819l-.033-.019a3.015,3.015,0,0,1-1.473-2.457q.328-.164.649-.346a4.311,4.311,0,0,0,2.325,2.563l.172.075a.516.516,0,0,0,.205.043.559.559,0,0,0,.518-.383.626.626,0,0,0-.312-.788l-.172-.074a3.166,3.166,0,0,1-1.752-2.046q.294-.2.579-.414a4.352,4.352,0,0,0,2.217,1.728l.022.007a.512.512,0,0,0,.164.027.565.565,0,0,0,.532-.428A.618.618,0,0,0,52.609,284.273Z" transform="translate(-28.441 -269.216)"/>
      </g>
    </g>
    <g id="_6" data-name="6" transform="translate(-11258.969 -11465.027)">
      <ellipse id="Ellipse_975" data-name="Ellipse 975" class="cls-1" cx="30.5" cy="30.5" rx="30.5" ry="30.5" transform="translate(0 0)"/>
      <g id="make-up" transform="translate(18.956 20.568)">
        <g id="Group_1730" data-name="Group 1730" transform="translate(0.418 0.354)">
          <path id="Path_6295" data-name="Path 6295" class="cls-6" d="M33.406,115.529l-.432.964-.106.236a9.78,9.78,0,0,1-8.927,5.783H19.224a9.776,9.776,0,0,1-9.373-6.983Z" transform="translate(-9.851 -110.347)"/>
          <path id="Path_6296" data-name="Path 6296" class="cls-6" d="M25.61,7.622a2.844,2.844,0,0,0-3.983,2.606,2.844,2.844,0,0,0-3.983-2.606L9.85,12.578H33.405Z" transform="translate(-9.85 -7.381)"/>
        </g>
        <path id="Path_6297" data-name="Path 6297" class="cls-7" d="M32.98,115.529H9.85a9.776,9.776,0,0,0,9.373,6.983H23.94a9.78,9.78,0,0,0,8.927-5.783l.106-.236.432-.964Zm-13.758,6.035a9.783,9.783,0,0,1-8.573-5.071h15.67l-4.065,2.4v2.674Zm7.419-.38v-4.691h5.872A9.785,9.785,0,0,1,26.641,121.184Z" transform="translate(-9.432 -109.993)"/>
        <path id="Path_6298" data-name="Path 6298" class="cls-8" d="M290.993,172.131H288.5v-4.36l2.492-1.469Z" transform="translate(-274.732 -158.333)"/>
        <rect id="Rectangle_7726" data-name="Rectangle 7726" class="cls-9" width="4.739" height="5.972" transform="translate(12.645 18.206)"/>
        <rect id="Rectangle_7727" data-name="Rectangle 7727" class="cls-10" width="3.792" height="4.408" transform="translate(13.119 13.798)"/>
        <rect id="Rectangle_7728" data-name="Rectangle 7728" class="cls-11" width="3.792" height="1.422" transform="translate(13.119 16.784)"/>
        <rect id="Rectangle_7729" data-name="Rectangle 7729" class="cls-12" width="4.739" height="0.948" transform="translate(12.645 23.229)"/>
        <rect id="Rectangle_7730" data-name="Rectangle 7730" class="cls-13" width="2.492" height="0.948" transform="translate(13.769 12.85)"/>
        <path id="Path_6299" data-name="Path 6299" d="M17.479.28,17.454.269a3.2,3.2,0,0,0-4.125,1.463A3.2,3.2,0,0,0,9.2.269L9.179.28l-8.045,5.1.077.258a10.065,10.065,0,0,0,3.657,5.228,10.065,10.065,0,0,0,6.056,2.008h3.624v.569H13.9V17.85h-.474v6.683h5.45V17.85H18.4V13.442h-.65v-.79a10.13,10.13,0,0,0,7.143-5.77l.665-1.465Zm.684,23.542H14.135V18.561h4.029ZM14.609,17.85v-3.7h3.081v3.7Zm.65-4.408v-3.8l1.781-1.05v4.852Zm2.492-1.519V7.346l-3.2,1.888v2.928H10.924A9.491,9.491,0,0,1,2.042,5.891H4.964V5.18H2.776L9.513.91A2.488,2.488,0,0,1,12.974,3.2h.711A2.488,2.488,0,0,1,17.145.91l6.716,4.27H5.675v.711H24.562l-.317.7A9.421,9.421,0,0,1,17.75,11.923Z" transform="translate(-1.134 0)"/>
        <g id="Group_1731" data-name="Group 1731" transform="translate(2.531 1.42)">
          <path id="Path_6300" data-name="Path 6300" class="cls-14" d="M61.225,153.617a8.606,8.606,0,0,1-1.411-.117l.117-.7a7.89,7.89,0,0,0,1.294.107v.711Zm-2.136-.27a8.779,8.779,0,0,1-5.123-3.632l.591-.395a8.069,8.069,0,0,0,4.708,3.338Z" transform="translate(-53.966 -143.585)"/>
          <path id="Path_6301" data-name="Path 6301" class="cls-14" d="M118.031,32.344l-.381-.6,3.126-1.981.036-.013a1.752,1.752,0,0,1,1.58.183l-.389.595a1.051,1.051,0,0,0-.913-.122Z" transform="translate(-114.599 -29.64)"/>
          <path id="Path_6302" data-name="Path 6302" class="cls-14" d="M278.614,31.418H277.9a1.749,1.749,0,0,1,.8-1.487,1.752,1.752,0,0,1,1.579-.184l-.244.668a1.067,1.067,0,0,0-1.428,1Z" transform="translate(-267.173 -29.638)"/>
          <path id="Path_6303" data-name="Path 6303" class="cls-14" d="M379.721,162.623l-.321-.634a8.052,8.052,0,0,0,2.7-2.223l.561.437A8.767,8.767,0,0,1,379.721,162.623Z" transform="translate(-363.807 -153.531)"/>
          <rect id="Rectangle_7731" data-name="Rectangle 7731" class="cls-14" width="0.711" height="1.422" transform="translate(11.56 13.657)"/>
          <path id="Path_6304" data-name="Path 6304" class="cls-14" d="M289,411.955h-.711v-.711H289Zm0-1.422h-.711v-1.9H289Z" transform="translate(-277.061 -390.477)"/>
        </g>
      </g>
    </g>
    <g id="_3" data-name="3" transform="translate(-11180.936 -11465.047)">
      <ellipse id="Ellipse_983" data-name="Ellipse 983" class="cls-1" cx="30.453" cy="30.453" rx="30.453" ry="30.453" transform="translate(0 0)"/>
      <g id="nail_3_" data-name="nail (3)" transform="translate(18.029 16.923)">
        <g id="Group_1793" data-name="Group 1793" transform="translate(1.678)">
          <path id="Path_6555" data-name="Path 6555" class="cls-15" d="M219.775,1.678A1.26,1.26,0,0,1,218.516.419a.419.419,0,0,0-.839,0,1.26,1.26,0,0,1-1.258,1.258.419.419,0,1,0,0,.839,1.26,1.26,0,0,1,1.258,1.258.419.419,0,0,0,.839,0,1.26,1.26,0,0,1,1.258-1.258.419.419,0,0,0,0-.839Z" transform="translate(-207.193 0)"/>
          <path id="Path_6556" data-name="Path 6556" class="cls-15" d="M387.775,105.678a1.26,1.26,0,0,1-1.258-1.258.419.419,0,1,0-.839,0,1.26,1.26,0,0,1-1.258,1.258.419.419,0,0,0,0,.839,1.26,1.26,0,0,1,1.258,1.258.419.419,0,1,0,.839,0,1.26,1.26,0,0,1,1.258-1.258.419.419,0,1,0,0-.839Z" transform="translate(-366.386 -98.548)"/>
          <path id="Path_6557" data-name="Path 6557" class="cls-15" d="M51.774,73.678a1.26,1.26,0,0,1-1.258-1.258.419.419,0,1,0-.839,0,1.26,1.26,0,0,1-1.258,1.258.419.419,0,0,0,0,.839,1.26,1.26,0,0,1,1.258,1.258.419.419,0,0,0,.839,0,1.26,1.26,0,0,1,1.258-1.258.419.419,0,0,0,0-.839Z" transform="translate(-48 -68.226)"/>
        </g>
        <path id="Path_6558" data-name="Path 6558" class="cls-16" d="M19.774,232A3.779,3.779,0,0,0,16,235.775v10.485a.419.419,0,0,0,.419.419h6.71a.419.419,0,0,0,.419-.419V235.775A3.779,3.779,0,0,0,19.774,232Z" transform="translate(-16 -219.838)"/>
        <path id="Path_6559" data-name="Path 6559" class="cls-17" d="M17.258,246.259V235.775a3.78,3.78,0,0,1,3.145-3.721,3.771,3.771,0,0,0-4.4,3.721v10.485a.419.419,0,0,0,.419.419h1.258A.419.419,0,0,1,17.258,246.259Z" transform="translate(-16 -219.838)"/>
        <path id="Path_6560" data-name="Path 6560" class="cls-18" d="M42.516,192A2.519,2.519,0,0,0,40,194.516v5.452a2.1,2.1,0,0,0,2.1,2.1h.839a2.1,2.1,0,0,0,2.1-2.1v-5.452A2.519,2.519,0,0,0,42.516,192Z" transform="translate(-38.742 -181.935)"/>
        <path id="Path_6561" data-name="Path 6561" class="cls-19" d="M40.839,199.968v-5.452a2.52,2.52,0,0,1,2.1-2.481A2.514,2.514,0,0,0,40,194.516v5.452a2.1,2.1,0,0,0,2.1,2.1h.839A2.1,2.1,0,0,1,40.839,199.968Z" transform="translate(-38.742 -181.935)"/>
        <g id="Group_1794" data-name="Group 1794" transform="translate(2.516 11.323)">
          <path id="Path_6562" data-name="Path 6562" class="cls-20" d="M80.472,216.839h-.052a.419.419,0,0,1,0-.839h.052a.419.419,0,0,1,0,.839Z" transform="translate(-79.161 -216)"/>
          <path id="Path_6563" data-name="Path 6563" class="cls-20" d="M96.472,240.839h-.052a.419.419,0,1,1,0-.839h.052a.419.419,0,1,1,0,.839Z" transform="translate(-94.322 -238.742)"/>
          <path id="Path_6564" data-name="Path 6564" class="cls-20" d="M64.472,240.839h-.052a.419.419,0,1,1,0-.839h.052a.419.419,0,1,1,0,.839Z" transform="translate(-64 -238.742)"/>
          <path id="Path_6565" data-name="Path 6565" class="cls-20" d="M96.472,272.839h-.052a.419.419,0,0,1,0-.839h.052a.419.419,0,1,1,0,.839Z" transform="translate(-94.322 -269.064)"/>
          <path id="Path_6566" data-name="Path 6566" class="cls-20" d="M64.472,272.839h-.052a.419.419,0,1,1,0-.839h.052a.419.419,0,1,1,0,.839Z" transform="translate(-64 -269.064)"/>
          <path id="Path_6567" data-name="Path 6567" class="cls-20" d="M96.472,304.839h-.052a.419.419,0,0,1,0-.839h.052a.419.419,0,0,1,0,.839Z" transform="translate(-94.322 -299.387)"/>
          <path id="Path_6568" data-name="Path 6568" class="cls-20" d="M64.472,304.839h-.052a.419.419,0,1,1,0-.839h.052a.419.419,0,1,1,0,.839Z" transform="translate(-64 -299.387)"/>
          <path id="Path_6569" data-name="Path 6569" class="cls-20" d="M96.472,336.839h-.052a.419.419,0,0,1,0-.839h.052a.419.419,0,1,1,0,.839Z" transform="translate(-94.322 -329.709)"/>
          <path id="Path_6570" data-name="Path 6570" class="cls-20" d="M64.472,336.839h-.052a.419.419,0,1,1,0-.839h.052a.419.419,0,1,1,0,.839Z" transform="translate(-64 -329.709)"/>
        </g>
        <path id="Path_6571" data-name="Path 6571" class="cls-16" d="M187.774,144A3.779,3.779,0,0,0,184,147.775v15.1a.419.419,0,0,0,.419.419h6.71a.419.419,0,0,0,.419-.419v-15.1A3.779,3.779,0,0,0,187.774,144Z" transform="translate(-175.193 -136.451)"/>
        <path id="Path_6572" data-name="Path 6572" class="cls-17" d="M185.258,162.872v-15.1a3.78,3.78,0,0,1,3.145-3.721,3.771,3.771,0,0,0-4.4,3.721v15.1a.419.419,0,0,0,.419.419h1.258A.419.419,0,0,1,185.258,162.872Z" transform="translate(-175.193 -136.451)"/>
        <path id="Path_6573" data-name="Path 6573" class="cls-20" d="M210.516,112A2.519,2.519,0,0,0,208,114.516v5.452a2.1,2.1,0,0,0,2.1,2.1h.839a2.1,2.1,0,0,0,2.1-2.1v-5.452A2.519,2.519,0,0,0,210.516,112Z" transform="translate(-197.935 -106.129)"/>
        <path id="Path_6574" data-name="Path 6574" class="cls-21" d="M208.839,119.968v-5.452a2.52,2.52,0,0,1,2.1-2.481A2.514,2.514,0,0,0,208,114.516v5.452a2.1,2.1,0,0,0,2.1,2.1h.839A2.1,2.1,0,0,1,208.839,119.968Z" transform="translate(-197.935 -106.129)"/>
        <g id="Group_1795" data-name="Group 1795" transform="translate(10.065 5.871)">
          <path id="Path_6575" data-name="Path 6575" class="cls-22" d="M208,154.722a2.1,2.1,0,0,0,.013.232l5.019-5.019v-.665a2.51,2.51,0,0,0-.071-.594L208,153.637Z" transform="translate(-208 -146.753)"/>
          <path id="Path_6576" data-name="Path 6576" class="cls-22" d="M243.8,246.5h.839a2.1,2.1,0,0,0,2.1-2.1v-1.084l-3.168,3.168A2.119,2.119,0,0,0,243.8,246.5Z" transform="translate(-241.702 -236.43)"/>
          <path id="Path_6577" data-name="Path 6577" class="cls-22" d="M214.773,200.691l4.047-4.047v-1.33l-4.712,4.712A2.11,2.11,0,0,0,214.773,200.691Z" transform="translate(-213.788 -190.946)"/>
          <path id="Path_6578" data-name="Path 6578" class="cls-22" d="M210.516,112A2.519,2.519,0,0,0,208,114.516v.665l3.11-3.11A2.511,2.511,0,0,0,210.516,112Z" transform="translate(-208 -112)"/>
          <path id="Path_6579" data-name="Path 6579" class="cls-22" d="M211.931,120.328,208,124.259v1.33l4.6-4.6A2.538,2.538,0,0,0,211.931,120.328Z" transform="translate(-208 -119.891)"/>
        </g>
        <g id="Group_1796" data-name="Group 1796" transform="translate(10.065 5.871)">
          <path id="Path_6580" data-name="Path 6580" class="cls-23" d="M208,228.153v1.084a2.1,2.1,0,0,0,.013.233l.826-.826v-1.33Z" transform="translate(-208 -221.269)"/>
          <path id="Path_6581" data-name="Path 6581" class="cls-23" d="M214.108,274.623a2.113,2.113,0,0,0,.665.665l.384-.384a2.094,2.094,0,0,1-.464-.866Z" transform="translate(-213.788 -265.543)"/>
          <path id="Path_6582" data-name="Path 6582" class="cls-23" d="M210.934,112.036a2.511,2.511,0,0,0-2.934,2.48v.665l.846-.846A2.52,2.52,0,0,1,210.934,112.036Z" transform="translate(-208 -112)"/>
          <path id="Path_6583" data-name="Path 6583" class="cls-23" d="M208,180.153v1.33l.839-.839v-1.33Z" transform="translate(-208 -175.785)"/>
        </g>
        <path id="Path_6584" data-name="Path 6584" class="cls-16" d="M355.775,256A3.779,3.779,0,0,0,352,259.774V269a.419.419,0,0,0,.419.419h6.71a.419.419,0,0,0,.419-.419v-9.227A3.779,3.779,0,0,0,355.775,256Z" transform="translate(-334.386 -242.58)"/>
        <path id="Path_6585" data-name="Path 6585" class="cls-17" d="M353.258,269v-9.227a3.78,3.78,0,0,1,3.145-3.721,3.771,3.771,0,0,0-4.4,3.721V269a.419.419,0,0,0,.419.419h1.258A.419.419,0,0,1,353.258,269Z" transform="translate(-334.386 -242.58)"/>
        <path id="Path_6586" data-name="Path 6586" class="cls-20" d="M378.516,224A2.519,2.519,0,0,0,376,226.516v5.452a2.1,2.1,0,0,0,2.1,2.1h.839a2.1,2.1,0,0,0,2.1-2.1v-5.452A2.519,2.519,0,0,0,378.516,224Z" transform="translate(-357.128 -212.257)"/>
        <path id="Path_6587" data-name="Path 6587" class="cls-21" d="M376.839,231.968v-5.452a2.52,2.52,0,0,1,2.1-2.481A2.514,2.514,0,0,0,376,226.516v5.452a2.1,2.1,0,0,0,2.1,2.1h.839A2.1,2.1,0,0,1,376.839,231.968Z" transform="translate(-357.128 -212.257)"/>
        <g id="Group_1797" data-name="Group 1797" transform="translate(18.872 11.744)">
          <path id="Path_6588" data-name="Path 6588" class="cls-24" d="M425.678,226.122a1.667,1.667,0,0,0,.765-.185,2.52,2.52,0,0,0-2.389-1.91,1.677,1.677,0,0,0,1.625,2.1Z" transform="translate(-421.485 -224.026)"/>
          <path id="Path_6589" data-name="Path 6589" class="cls-24" d="M379.355,322.873a4.167,4.167,0,0,0,1.677-.351v-1.257a4.189,4.189,0,0,1-5.033-1.33v1.259A4.19,4.19,0,0,0,379.355,322.873Z" transform="translate(-376 -314.906)"/>
          <path id="Path_6590" data-name="Path 6590" class="cls-24" d="M402.516,230.284a2.5,2.5,0,0,0,1.258-.338V229.3a2.514,2.514,0,0,1-3.339-2.652q-.109.038-.212.085a2.515,2.515,0,0,0,2.293,3.551Z" transform="translate(-398.742 -226.511)"/>
          <path id="Path_6591" data-name="Path 6591" class="cls-24" d="M379.355,368.773A5.012,5.012,0,0,1,376,367.488v.446a2.1,2.1,0,0,0,2.1,2.1h.839a2.1,2.1,0,0,0,2.015-1.518A5.013,5.013,0,0,1,379.355,368.773Z" transform="translate(-376 -359.967)"/>
          <path id="Path_6592" data-name="Path 6592" class="cls-24" d="M379.355,250.157a3.331,3.331,0,0,0,1.677-.452v-1.052a3.354,3.354,0,0,1-4.613-3.11c0-.046,0-.091,0-.136A2.5,2.5,0,0,0,376,246.8,3.359,3.359,0,0,0,379.355,250.157Z" transform="translate(-376 -244.287)"/>
        </g>
        <g id="Group_1798" data-name="Group 1798" transform="translate(18.872 11.744)">
          <path id="Path_6593" data-name="Path 6593" class="cls-25" d="M424.5,224.026c-.011.044-.02.089-.028.135a2.494,2.494,0,0,1,.393-.1A2.516,2.516,0,0,0,424.5,224.026Z" transform="translate(-421.933 -224.026)"/>
          <path id="Path_6594" data-name="Path 6594" class="cls-25" d="M376,319.934v1.259a4.234,4.234,0,0,0,.839.84v-1.258A4.238,4.238,0,0,1,376,319.934Z" transform="translate(-376 -314.906)"/>
          <path id="Path_6595" data-name="Path 6595" class="cls-25" d="M400.5,227.143c-.006-.071-.01-.142-.01-.215a2.506,2.506,0,0,1,.016-.281q-.109.038-.212.085a2.5,2.5,0,0,0-.219.9A2.534,2.534,0,0,1,400.5,227.143Z" transform="translate(-398.809 -226.511)"/>
          <path id="Path_6596" data-name="Path 6596" class="cls-25" d="M376.846,368.1a5.061,5.061,0,0,1-.846-.612v.446a2.1,2.1,0,0,0,2.1,2.1h.839A2.1,2.1,0,0,1,376.846,368.1Z" transform="translate(-376 -359.967)"/>
          <path id="Path_6597" data-name="Path 6597" class="cls-25" d="M376.419,245.544c0-.046,0-.091,0-.136A2.5,2.5,0,0,0,376,246.8a3.341,3.341,0,0,0,.839,2.216v-1.852A3.334,3.334,0,0,1,376.419,245.544Z" transform="translate(-376 -244.287)"/>
        </g>
      </g>
    </g>
  </g>
</svg>
