<svg xmlns="http://www.w3.org/2000/svg" viewBox="0 0 294.989 61"><defs><style>.cls-1{fill:#e3a8c6}.cls-2{fill:#f9c295}.cls-3{fill:#e8a26a}.cls-4{fill:#d8e6f0}.cls-5{fill:#aac0d1}.cls-6{fill:#78baf6}.cls-7{fill:#606572}.cls-8{fill:#3b4254}.cls-9{fill:#8e9fff}.cls-10{fill:#b3beff}.cls-11{fill:#e4e8ff}.cls-12{fill:#fe80cc}.cls-13{fill:#5770ff}.cls-14{fill:#fff9e0}.cls-15{fill:#fee891}.cls-16{fill:#ffdd09}.cls-17{fill:#fd9808}</style></defs><g id="_2" data-name="2" transform="translate(11336.978 11388)"><g id="_5" data-name="5" transform="translate(-11180.989 -11388)"><ellipse id="Ellipse_993" data-name="Ellipse 993" class="cls-1" cx="30.5" cy="30.5" rx="30.5" ry="30.5"/><g id="hair-removal_1_" data-name="hair-removal (1)" transform="translate(19.77 19.263)"><g id="Group_1611" data-name="Group 1611" transform="translate(.331 .333)"><path id="Path_5754" data-name="Path 5754" class="cls-2" d="M21.857 29.022a.624.624 0 0 1-.811.418c-.911-.324-2.612-.919-3.744-1.245a30.194 30.194 0 0 0-3.07-.469c-1.017-.208-1.187-1.979-.21-3.049a15.561 15.561 0 0 0-1.345-5.525c-1.389-2.49-1.9-4.322-1.164-6.227-.307.224-1.317.975-2.254 1.673V8.276C11.438 7.6 13.316 7.206 14.3 8c1.21.975 2.245 10.739 2.293 15.263a2.34 2.34 0 0 0 .891 1.81l4.16 3.289a.624.624 0 0 1 .213.66z" transform="translate(-9.259 -7.558)"/><path id="Path_5755" data-name="Path 5755" class="cls-3" d="M84.978 28.369l-4.16-3.289a2.34 2.34 0 0 1-.891-1.81c-.047-4.524-1.083-14.289-2.293-15.263a2.859 2.859 0 0 0-2.119-.407 2.052 2.052 0 0 1 1.032.408c1.21.975 2.245 10.739 2.293 15.263a2.34 2.34 0 0 0 .891 1.81l4.16 3.289a.626.626 0 0 1 .06.927l.43.153a.625.625 0 0 0 .6-1.079z" transform="translate(-72.593 -7.567)"/><g id="Group_1610" data-name="Group 1610" transform="translate(9.328 4.632)"><path id="Path_5756" data-name="Path 5756" class="cls-4" d="M262.635 116.363a.618.618 0 0 0 .024-.827c-.693-.815-2.231-2.532-3.1-2.8-1.328-.407-5.367.2-6.826.439a.636.636 0 0 0-.533.628v4.222a.637.637 0 0 0 .637.637h4.974a.587.587 0 0 1 .573.456l1.187 5.188a1.217 1.217 0 0 0 1.458.915 1.217 1.217 0 0 0 .915-1.458l-1.117-4.884a.944.944 0 0 1 .237-.862z" transform="translate(-250.811 -112.599)"/><path id="Path_5757" data-name="Path 5757" class="cls-5" d="M379.948 116.365a.618.618 0 0 0 .024-.827c-.693-.815-2.231-2.532-3.1-2.8a6.651 6.651 0 0 0-1.946-.124 3.706 3.706 0 0 1 .844.124c.873.267 2.411 1.985 3.1 2.8a.618.618 0 0 1-.024.827l-1.576 1.655a.944.944 0 0 0-.237.862l1.117 4.884a1.217 1.217 0 0 1-.635 1.356 1.219 1.219 0 0 0 1.737-1.356l-1.117-4.884a.944.944 0 0 1 .237-.862z" transform="translate(-368.124 -112.601)"/><path id="Path_5758" data-name="Path 5758" class="cls-6" d="M368.419 273.841h-.562a.685.685 0 0 0-.685.685.685.685 0 0 0 .685.685h.876z" transform="translate(-360.715 -266.73)"/><path id="Path_5759" data-name="Path 5759" class="cls-6" d="M220.768 150.472v2.479a.27.27 0 0 0 .27.27h1.116V150.2h-1.116a.27.27 0 0 0-.27.272z" transform="translate(-220.768 -148.544)"/><path id="Path_5760" data-name="Path 5760" class="cls-7" d="M418.018 315.112a1.217 1.217 0 0 0 1.458.915 1.217 1.217 0 0 0 .915-1.458l-.54-2.362a5.357 5.357 0 0 1-1.892 2.646z" transform="translate(-409.263 -303.404)"/><path id="Path_5761" data-name="Path 5761" class="cls-8" d="M434.906 312.207a6.079 6.079 0 0 1-.76 1.5l.2.864a1.217 1.217 0 0 1-.635 1.356 1.218 1.218 0 0 0 1.737-1.356z" transform="translate(-424.318 -303.404)"/></g></g><g id="Group_1612" data-name="Group 1612"><path id="Path_5762" data-name="Path 5762" d="M14.684 117.285L10.524 114a2 2 0 0 1-.765-1.554A83.524 83.524 0 0 0 8.7 101.131a.331.331 0 0 0-.652.113A82.725 82.725 0 0 1 9.1 112.449a2.658 2.658 0 0 0 1.017 2.066l4.16 3.289a.294.294 0 0 1-.281.508c-.916-.326-2.622-.923-3.764-1.252a9.7 9.7 0 0 0-1.916-.32 10.638 10.638 0 0 1-1.179-.155.739.739 0 0 1-.52-.545 2.092 2.092 0 0 1 .488-1.957.331.331 0 0 0 .082-.172 15.578 15.578 0 0 0-1.387-5.736c-1.465-2.625-1.786-4.292-1.144-5.946a.331.331 0 0 0-.5-.387c-.332.242-1.423 1.054-2.257 1.675a.331.331 0 1 0 .4.53l1.473-1.1c-.333 1.8.343 3.547 1.458 5.546a15.876 15.876 0 0 1 1.312 5.229 2.739 2.739 0 0 0-.551 2.519 1.382 1.382 0 0 0 1.009.992 11.308 11.308 0 0 0 1.251.165 9.158 9.158 0 0 1 1.794.3c1.125.324 2.816.915 3.724 1.239a.956.956 0 0 0 .914-1.65z" transform="translate(-1.763 -96.408)"/><path id="Path_5763" data-name="Path 5763" d="M2.188 1.366c1.93-.6 3.839-1.057 4.735-.335.094.076.433.479.866 2.5a.331.331 0 0 0 .647-.131C7.974 1.235 7.588.717 7.338.516 6.263-.35 4.423-.023 1.991.735a.331.331 0 0 0 .2.632z" transform="translate(-1.759)"/><path id="Path_5764" data-name="Path 5764" d="M383.33 156.092a.331.331 0 0 0 .311-.444l-.636-1.747a.331.331 0 0 0-.622.226l.636 1.747a.331.331 0 0 0 .311.218z" transform="translate(-365.578 -146.906)"/><path id="Path_5765" data-name="Path 5765" d="M341.111 155.874a.331.331 0 1 0 .622-.226l-.633-1.748a.331.331 0 1 0-.622.226z" transform="translate(-325.519 -146.906)"/><path id="Path_5766" data-name="Path 5766" d="M226.036 119.493h-.123a1.788 1.788 0 0 1-1.7-1.244 1.547 1.547 0 0 0 .836-1.739l-1.117-4.884a.612.612 0 0 1 .154-.56l1.576-1.655a.947.947 0 0 0 .036-1.269c-1.808-2.127-2.77-2.752-3.259-2.9a9.475 9.475 0 0 0-3.112-.071.331.331 0 0 0 .056.659 8.68 8.68 0 0 1 2.862.044 10 10 0 0 1 2.948 2.7.287.287 0 0 1-.011.384l-1.576 1.655a1.272 1.272 0 0 0-.32 1.164l.555 2.427a5.229 5.229 0 0 1-1.343 2.079l-.561-2.452-.271-1.185-.178-.778a.914.914 0 0 0-.9-.714h-4.968a.306.306 0 0 1-.306-.306v-4.222a.3.3 0 0 1 .256-.3c.6-.1 1.517-.24 2.515-.359a.331.331 0 1 0-.078-.657 59.14 59.14 0 0 0-2.544.363.964.964 0 0 0-.81.955v.123h-.785a.6.6 0 0 0-.6.6v2.479a.6.6 0 0 0 .6.6h.785v.417a.969.969 0 0 0 .967.967h4.974a.255.255 0 0 1 .25.2l.043.187h-.147a1.016 1.016 0 1 0 0 2.032h.612a25.8 25.8 0 0 0 .791 3.29 1.55 1.55 0 0 0 1.426.88 2.451 2.451 0 0 0 2.344 1.752h.123a.331.331 0 1 0 0-.661zm-12.107-9.727v-2.358h.725v2.358zm10.159 5.507l.316 1.384q.01.043.015.087a.886.886 0 0 1-1.743.308l-.011-.048a5.407 5.407 0 0 0 1.422-1.731zm-3.347-1.7a.355.355 0 1 1 0-.709h.3v.02l.158.69z" transform="translate(-203.939 -100.453)"/></g></g></g><g id="_7" data-name="7" transform="translate(-11259.049 -11388)"><ellipse id="Ellipse_976" data-name="Ellipse 976" class="cls-1" cx="30.5" cy="30.5" rx="30.5" ry="30.5"/><g id="massage" transform="translate(19.068 18.351)"><g id="Group_1774" data-name="Group 1774" transform="translate(4.218 .361)"><path id="Path_6457" data-name="Path 6457" class="cls-2" d="M115.023 311.984h13.624l-.115-1.823a3.1 3.1 0 0 0-2.354-2.819l-1.98-.489a.218.218 0 0 1-.166-.212v-4.431h-4.416v4.437a.219.219 0 0 1-.166.212l-1.957.484a3.1 3.1 0 0 0-2.354 2.819z" transform="translate(-115.023 -287.968)"/><path id="Path_6458" data-name="Path 6458" class="cls-3" d="M279.889 310.162a3.1 3.1 0 0 0-2.354-2.819l-1.98-.489a.218.218 0 0 1-.166-.212v-4.432h-1.323v4.431a.218.218 0 0 0 .166.212l1.98.489a3.1 3.1 0 0 1 2.354 2.819l.115 1.823H280z" transform="translate(-266.38 -287.968)"/><path id="Path_6459" data-name="Path 6459" class="cls-3" d="M210.064 305.887a4.472 4.472 0 0 0 4.416.012v-3.689h-4.416v3.677z" transform="translate(-205.471 -287.968)"/><path id="Path_6460" data-name="Path 6460" class="cls-2" d="M149.927 95.481a5.246 5.246 0 0 1 5.183 4.415 19.033 19.033 0 0 1 .18 3.48 5.367 5.367 0 0 1-10.725 0 19.028 19.028 0 0 1 .18-3.48 5.246 5.246 0 0 1 5.182-4.415z" transform="translate(-143.115 -91.228)"/><path id="Path_6461" data-name="Path 6461" class="cls-3" d="M254.621 99.9a5.246 5.246 0 0 0-5.183-4.415c-.112 0-.222 0-.333.012a4.9 4.9 0 0 1 4.286 4.4 21.5 21.5 0 0 1 .159 3.48 5.468 5.468 0 0 1-4.445 5.145c.113.01.224.016.333.016a5.745 5.745 0 0 0 5.363-5.161 19.025 19.025 0 0 0-.18-3.477z" transform="translate(-242.627 -91.229)"/><path id="Path_6462" data-name="Path 6462" class="cls-4" d="M258.068 60.656s3.883-.241 3.917 4.38c1.256.725.659 3.118.231 4.055a.36.36 0 0 1-.254.2l-.587.123a6.58 6.58 0 0 0-5.384-5.443c1.317-2.971 2.077-3.315 2.077-3.315z" transform="translate(-249.177 -58.084)"/><path id="Path_6463" data-name="Path 6463" class="cls-5" d="M260.334 61.306a4.019 4.019 0 0 0-2.265-.65s-.759.342-2.079 3.317a7.6 7.6 0 0 1 2.127.752c1.18-.864 2.166-1.909 2.231-3.022a2.21 2.21 0 0 0-.014-.397z" transform="translate(-249.178 -58.085)"/><path id="Path_6464" data-name="Path 6464" class="cls-4" d="M116.472 19.627c0-1.531 1.395-3.288 3.078-4.079s5.482-2.737 5.612-4.959-3.331-5.265-7.671-.861c-3.384 3.434-2.4 8.28-2.112 9.465.083.341 1.093.964 1.093.434z" transform="translate(-115.023 -7.48)"/></g><g id="Group_1776" data-name="Group 1776" transform="translate(.362 6.039)"><path id="Path_6465" data-name="Path 6465" class="cls-2" d="M345.832 125.187v4.455h-1.187a7.01 7.01 0 0 0-2.271 1.405.707.707 0 0 0-.09 1.021.707.707 0 0 0 .823.176l1.935-.879a.255.255 0 0 1 .358.2 11.1 11.1 0 0 1 .092 1.351c0 .872-2.025 2.59-2.948 3.2-.722.475-.321 1.646 1.53 1.019s4.539-2.032 4.539-4.718v-7.433" transform="translate(-327.278 -124.981)"/><path id="Path_6466" data-name="Path 6466" class="cls-3" d="M358.041 125.06v7.352c0 2.686-2.688 4.091-4.539 4.718a3.868 3.868 0 0 1-.344.1 2.171 2.171 0 0 0 1.433-.1c1.851-.626 4.539-2.032 4.539-4.718v-7.433z" transform="translate(-337.795 -124.979)"/><path id="Path_6467" data-name="Path 6467" class="cls-2" d="M38.016 125.187v4.455H39.2a7.011 7.011 0 0 1 2.271 1.405.707.707 0 0 1 .09 1.021.707.707 0 0 1-.823.176l-1.935-.879a.255.255 0 0 0-.358.2 11.1 11.1 0 0 0-.092 1.351c0 .872 2.025 2.59 2.948 3.2.722.475.321 1.646-1.53 1.019s-4.539-2.032-4.539-4.718v-7.433" transform="translate(-35.234 -124.981)"/><g id="Group_1775" data-name="Group 1775" transform="translate(1.899 .141)"><path id="Path_6468" data-name="Path 6468" class="cls-3" d="M101.461 223.87a.707.707 0 0 1-.109.1l.169.077a.707.707 0 0 0 .733-1.2 7.011 7.011 0 0 0-2.271-1.405H99.1a7.01 7.01 0 0 1 2.271 1.405.707.707 0 0 1 .09 1.023z" transform="translate(-97.913 -216.923)"/><path id="Path_6469" data-name="Path 6469" class="cls-3" d="M85.392 261.382c-.923-.607-2.948-2.324-2.948-3.2a11.029 11.029 0 0 1 .087-1.315l-.52-.236a.255.255 0 0 0-.358.2 11.1 11.1 0 0 0-.092 1.351c0 .872 2.025 2.59 2.948 3.2a.608.608 0 0 1-.18 1.147c1.447.291 1.719-.716 1.063-1.147z" transform="translate(-81.222 -250.391)"/><path id="Path_6470" data-name="Path 6470" class="cls-3" d="M74.54 127.891v4.521h.883v-4.455z" transform="translate(-74.54 -127.891)"/></g></g><g id="Group_1777" data-name="Group 1777"><path id="Path_6471" data-name="Path 6471" d="M121.755 302.826a3.453 3.453 0 0 0-.727-1.915.362.362 0 0 0-.571.446 2.731 2.731 0 0 1 .575 1.515l.091 1.438H108.27l.091-1.437a2.742 2.742 0 0 1 2.08-2.49l1.957-.484a.58.58 0 0 0 .442-.564v-1.4a4.631 4.631 0 0 0 3.691.009v1.382a.58.58 0 0 0 .442.565l1.98.489a2.735 2.735 0 0 1 .493.173.362.362 0 1 0 .3-.658 3.458 3.458 0 0 0-.623-.219l-1.871-.462V297.6a6.278 6.278 0 0 0 2.511-2.547.362.362 0 0 0-.642-.336 5.561 5.561 0 0 1-2.4 2.343 4.111 4.111 0 0 1-4.085-.011 5.568 5.568 0 0 1-2.341-2.27.362.362 0 1 0-.638.345 6.287 6.287 0 0 0 2.451 2.464v1.631l-1.848.457a3.466 3.466 0 0 0-2.629 3.148l-.115 1.823a.362.362 0 0 0 .362.385h13.624a.362.362 0 0 0 .362-.385z" transform="translate(-103.666 -280.293)"/><path id="Path_6472" data-name="Path 6472" d="M49.433 5.677a.362.362 0 0 0-.362.362v7.433c0 2.542-2.69 3.832-4.293 4.374-.852.289-1.288.135-1.372-.038-.05-.1.014-.241.157-.335.617-.406 3.111-2.3 3.111-3.5a11.433 11.433 0 0 0-.095-1.4.617.617 0 0 0-.868-.484l-1.935.879a.345.345 0 0 1-.357-.583c.345-.275.635-.493.877-.665l.009-.006a5.186 5.186 0 0 1 1.035-.62l.021-.008a.39.39 0 0 1 .1-.027h1.187a.362.362 0 0 0 .362-.362V6.245a.362.362 0 1 0-.725 0v4.093h-.578a5.678 5.678 0 0 0 .162-1.514 2.174 2.174 0 0 0-.754-1.706 5.053 5.053 0 0 0-1-3.091 3.785 3.785 0 0 0-1.716-1.2A3.6 3.6 0 0 0 40.042.21c-1.048-.364-3.2-.569-5.879 2.146a.362.362 0 0 0 .516.509C37.074.434 38.918.587 39.8.895a2.989 2.989 0 0 1 .683.339 2.956 2.956 0 0 0-.7.061 4.619 4.619 0 0 0-2.2 1.261.362.362 0 0 0 .5.528A3.929 3.929 0 0 1 39.936 2a2.07 2.07 0 0 1 1.471.216 2.442 2.442 0 0 1 .314.922 1.784 1.784 0 0 1 .009.306 1.835 1.835 0 0 1-.072.409 3.429 3.429 0 0 1-.858 1.358q-.084.088-.176.177l-.027.027a9.49 9.49 0 0 1-1 .822A20.382 20.382 0 0 1 36.326 8.1a6.231 6.231 0 0 0-2.913 2.864 4.672 4.672 0 0 0-1.026-.569 9.563 9.563 0 0 1 1.393-6.439.362.362 0 1 0-.6-.408 10.216 10.216 0 0 0-1.529 6.791h-.41V6.245a.362.362 0 0 0-.725 0V10.7a.362.362 0 0 0 .362.362h1.186c.013 0 .285.018 1.292.75l.012.008c.213.155.459.342.742.568a.345.345 0 0 1-.357.583l-1.935-.879a.617.617 0 0 0-.868.484 11.433 11.433 0 0 0-.095 1.4c0 1.195 2.494 3.094 3.111 3.5.143.094.208.232.157.335-.085.173-.52.327-1.372.038-1.6-.543-4.293-1.832-4.293-4.374V6.039a.362.362 0 1 0-.725 0v7.433a4.363 4.363 0 0 0 1.7 3.408 9.692 9.692 0 0 0 3.082 1.653 3.355 3.355 0 0 0 1.065.2 1.23 1.23 0 0 0 1.191-.605 1 1 0 0 0-.411-1.259 12.892 12.892 0 0 1-1.76-1.455c-.752-.743-1.02-1.231-1.02-1.44a10.453 10.453 0 0 1 .071-1.16l1.8.819a1.069 1.069 0 0 0 1.109-1.81c-.2-.158-.38-.3-.549-.425a5.509 5.509 0 0 1 2.62-2.639 21.653 21.653 0 0 0 3.23-1.822 6 6 0 0 1 3.8 4.351 29.58 29.58 0 0 0-.7.535 1.07 1.07 0 0 0 1.109 1.81l1.8-.819a10.451 10.451 0 0 1 .071 1.16c0 .209-.268.7-1.02 1.44a12.89 12.89 0 0 1-1.765 1.454 1 1 0 0 0-.411 1.259 1.23 1.23 0 0 0 1.191.605 3.356 3.356 0 0 0 1.065-.2 9.691 9.691 0 0 0 3.082-1.653 4.363 4.363 0 0 0 1.7-3.408V6.039a.362.362 0 0 0-.35-.362zm-8.893.749l.014-.012.046-.038.072-.06.047-.04.069-.06.044-.039.072-.065.037-.033.1-.1.008-.008.093-.09.033-.032.065-.066.036-.037.06-.063.034-.037.059-.065.03-.033.072-.083.013-.015.081-.1.021-.026.056-.071.026-.034.048-.064.026-.036.046-.064.023-.034.049-.074.015-.023.061-.1.011-.019.046-.078.018-.033.035-.064.019-.036.031-.063.017-.035.031-.067.013-.03c.014-.032.028-.064.04-.1l.034-.091.011-.031.022-.065.011-.036.018-.061.01-.036.016-.063.008-.033.017-.079v-.016q.009-.048.016-.1V3.66c0-.017 0-.035.007-.052a3.461 3.461 0 0 1 1.911 2.961l-.141-.1a.362.362 0 0 0-.417.593l.756.532.013.008.015.01c.742.428.657 1.773.345 2.861a5.486 5.486 0 0 0-.634.364 6.7 6.7 0 0 0-3.735-4.411z" transform="translate(-27.735)"/></g></g></g><g id="_16" data-name="16" transform="translate(-11336.978 -11388)"><ellipse id="Ellipse_979" data-name="Ellipse 979" class="cls-1" cx="30.5" cy="30.5" rx="30.5" ry="30.5"/><g id="makeup_7_" data-name="makeup (7)" transform="translate(19.146 18.715)"><path id="Rectangle_7723" data-name="Rectangle 7723" class="cls-9" transform="translate(10.749 17.941)" d="M0 0h1.822v3.094H0z"/><g id="Group_1726" data-name="Group 1726" transform="translate(2.915 .451)"><path id="Path_6261" data-name="Path 6261" class="cls-10" d="M186.087 461.867h-3.173a1.825 1.825 0 0 0-1.825 1.825h6.822a1.825 1.825 0 0 0-1.824-1.825z" transform="translate(-175.755 -441.283)"/><path id="Path_6262" data-name="Path 6262" class="cls-10" d="M78.922 24.908a8.736 8.736 0 1 0-11.254.943 8.745 8.745 0 0 0 11.254-.943z" transform="translate(-63.993 -9.979)"/></g><g id="Group_1727" data-name="Group 1727" transform="translate(1.275 2.637)"><path id="Path_6263" data-name="Path 6263" class="cls-11" d="M125.105 64.534a6.559 6.559 0 1 0-2.152 4.858 6.559 6.559 0 0 0 2.152-4.858z" transform="translate(-108.162 -57.975)"/><path id="Path_6264" data-name="Path 6264" class="cls-11" d="M32.37 268.867H28v-2.459a.456.456 0 0 1 .455-.456h3.462a.455.455 0 0 1 .455.456v2.459z" transform="translate(-27.998 -256.478)"/></g><path id="Path_6265" data-name="Path 6265" class="cls-12" d="M43.276 163.567H40v-3.974a.911.911 0 0 1 1.341-.8l1.457.781a.911.911 0 0 1 .481.8z" transform="translate(-38.175 -151.456)"/><path id="Path_6266" data-name="Path 6266" class="cls-13" d="M15.1 337.779h-4.19a.911.911 0 0 1-.911-.911V330.4a.455.455 0 0 1 .455-.455h5.1a.455.455 0 0 1 .455.455v6.468a.911.911 0 0 1-.909.911z" transform="translate(-9.544 -314.919)"/><path id="Path_6267" data-name="Path 6267" class="cls-14" d="M343.287 180.414h-4.04l-1.325-2.87a3.718 3.718 0 0 1 .791-4.23l.052-.05a3.718 3.718 0 0 1 5.169 0 3.718 3.718 0 0 1 .75 4.316z" transform="translate(-322.203 -164.377)"/><path id="Path_6268" data-name="Path 6268" class="cls-9" d="M376.957 358.963h-1.344a1.344 1.344 0 0 1-1.344-1.344v-5.479h4.031v5.479a1.344 1.344 0 0 1-1.343 1.344z" transform="translate(-357.221 -336.103)"/><path id="Rectangle_7724" data-name="Rectangle 7724" class="cls-15" transform="translate(17.049 16.037)" d="M0 0h4.036v2.171H0z"/><path id="Path_6269" data-name="Path 6269" d="M190.275 258.4a.455.455 0 1 0-.322-.134.46.46 0 0 0 .322.134z" transform="translate(-181.173 -245.767)"/><path id="Path_6270" data-name="Path 6270" d="M22.048 8.636a4.169 4.169 0 0 0-1.309-.859 9.2 9.2 0 0 0-17.954-.93 1.37 1.37 0 0 0-1.419 1.366v3.6a.912.912 0 0 0-.547.834v2.009a.912.912 0 0 0-.82.906v6.468a1.368 1.368 0 0 0 1.366 1.366h4.19a1.368 1.368 0 0 0 1.366-1.366v-4.867a9.084 9.084 0 0 0 3.37 1.21v2.283h-.22a2.283 2.283 0 0 0-2.28 2.28.455.455 0 0 0 .455.455h6.822a.455.455 0 0 0 .455-.455 2.283 2.283 0 0 0-2.28-2.28h-.22v-2.284a9.083 9.083 0 0 0 3.567-1.331v4.551a1.8 1.8 0 0 0 1.8 1.8h1.344a1.8 1.8 0 0 0 1.8-1.8v-5.364l1.356-2.748a4.16 4.16 0 0 0-.842-4.844zM2.277 8.213a.455.455 0 0 1 .671-.4l1.457.781a.455.455 0 0 1 .24.4v2.738H2.277zm-.547 4.43h3.462v2H1.731zm4.281 9.383a.456.456 0 0 1-.455.455h-4.19a.456.456 0 0 1-.455-.455v-6.468h5.1zm.089-7.374v-2.009a.912.912 0 0 0-.547-.834V8.994a1.364 1.364 0 0 0-.721-1.2l-1.19-.638a8.291 8.291 0 0 1 16.115.355 4.175 4.175 0 0 0-1.307.014A7.015 7.015 0 0 0 5.642 5.668a.455.455 0 1 0 .781.469 6.1 6.1 0 0 1 6.93-2.726L9.992 6.772a.455.455 0 1 0 .644.644l3.649-3.649a6.162 6.162 0 0 1 1.578 1.086L10.01 10.7a.455.455 0 1 0 .644.644l5.822-5.822a6.049 6.049 0 0 1 1.1 2.24 4.169 4.169 0 0 0-1.33.868l-.052.05a4.177 4.177 0 0 0-.888 4.748l.248.538a6.105 6.105 0 0 1-7.2.431.455.455 0 1 0-.494.765 7.016 7.016 0 0 0 8.089-.345l.547 1.184a8.351 8.351 0 0 1-9.571.069v-.519a.912.912 0 0 0-.825-.899zm14.522 1.917v1.26H17.5v-1.26zm-6.087 5.912H8.782a1.372 1.372 0 0 1 1.291-.914h3.173a1.371 1.371 0 0 1 1.292.914zm-2.422-1.825H11.2v-2.194c.15.007.3.011.452.011h.125c.112 0 .223-.005.334-.011v2.195zm7.621 1.825h-1.341a.89.89 0 0 1-.889-.889V18.74h3.121v2.852a.89.89 0 0 1-.889.889zm2.337-9.4L20.8 15.658h-.234v-1.871a.455.455 0 0 0-.911 0v1.871h-2.319l-1.2-2.606a3.266 3.266 0 0 1 .694-3.712l.052-.05a3.262 3.262 0 0 1 5.194 3.787z" transform="translate(0 -.077)"/><path id="Path_6271" data-name="Path 6271" d="M431.979 257.493a.456.456 0 1 0 .322.134.459.459 0 0 0-.322-.134z" transform="translate(-411.866 -245.767)"/></g></g><g id="_20" data-name="20" transform="translate(-11102.989 -11388)"><ellipse id="Ellipse_999" data-name="Ellipse 999" class="cls-1" cx="30.5" cy="30.5" rx="30.5" ry="30.5"/><g id="eyelashes_копия" data-name="eyelashes — копия" transform="translate(18.878 18.715)"><path id="Path_5096" data-name="Path 5096" class="cls-16" d="M396.634 35.012h-2.681a.555.555 0 0 1-.569-.569v-1.3a.555.555 0 0 1 .569-.569h2.681z" transform="translate(-374.706 -30.949)"/><path id="Path_5097" data-name="Path 5097" class="cls-17" d="M460.532 35.012h1.219v-2.438h-1.219z" transform="translate(-438.603 -30.949)"/><g id="Group_1516" data-name="Group 1516" transform="translate(.406)"><path id="Path_5098" data-name="Path 5098" class="cls-16" d="M318.25 27.431a.384.384 0 0 1-.406-.406v-2.438a.406.406 0 1 1 .813 0v2.438a.384.384 0 0 1-.407.406z" transform="translate(-303.228 -22.962)"/><path id="Path_5099" data-name="Path 5099" class="cls-16" d="M343.43 35.012a.384.384 0 0 1-.406-.406V32.98a.406.406 0 0 1 .813 0v1.625a.384.384 0 0 1-.407.407z" transform="translate(-327.19 -30.949)"/><path id="Path_5100" data-name="Path 5100" class="cls-16" d="M368.611 35.012a.384.384 0 0 1-.406-.406V32.98a.406.406 0 1 1 .813 0v1.625a.384.384 0 0 1-.407.407z" transform="translate(-351.152 -30.949)"/><path id="Path_5101" data-name="Path 5101" class="cls-16" d="M293.07 19.85a.384.384 0 0 1-.406-.406v-3.25a.406.406 0 1 1 .813 0v3.25a.384.384 0 0 1-.407.406z" transform="translate(-279.267 -14.974)"/><path id="Path_5102" data-name="Path 5102" class="cls-16" d="M267.889 12.269a.384.384 0 0 1-.406-.406V7.8a.406.406 0 0 1 .813 0v4.063a.384.384 0 0 1-.407.406z" transform="translate(-255.305 -6.988)"/><path id="Path_5103" data-name="Path 5103" class="cls-16" d="M242.709 4.688a.384.384 0 0 1-.406-.406V-.594a.384.384 0 0 1 .406-.406.384.384 0 0 1 .406.406v4.876a.384.384 0 0 1-.406.406z" transform="translate(-231.344 1)"/><path id="Path_5104" data-name="Path 5104" class="cls-16" d="M217.529 4.688a.384.384 0 0 1-.406-.406V-.594a.384.384 0 0 1 .406-.406.384.384 0 0 1 .406.406v4.876a.384.384 0 0 1-.406.406z" transform="translate(-207.383 1)"/><path id="Path_5105" data-name="Path 5105" class="cls-16" d="M192.348 4.688a.384.384 0 0 1-.406-.406V-.594a.384.384 0 0 1 .406-.406.384.384 0 0 1 .406.406v4.876a.384.384 0 0 1-.406.406z" transform="translate(-183.421 1)"/><path id="Path_5106" data-name="Path 5106" class="cls-16" d="M167.168 4.688a.384.384 0 0 1-.406-.406V-.594a.384.384 0 0 1 .406-.406.384.384 0 0 1 .406.406v4.876a.384.384 0 0 1-.406.406z" transform="translate(-159.459 1)"/><path id="Path_5107" data-name="Path 5107" class="cls-16" d="M141.988 12.269a.384.384 0 0 1-.406-.406V7.8a.406.406 0 1 1 .813 0v4.063a.384.384 0 0 1-.407.406z" transform="translate(-135.498 -6.988)"/><path id="Path_5108" data-name="Path 5108" class="cls-16" d="M116.807 19.85a.384.384 0 0 1-.406-.406v-3.25a.406.406 0 0 1 .813 0v3.25a.384.384 0 0 1-.407.406z" transform="translate(-111.536 -14.974)"/><path id="Path_5109" data-name="Path 5109" class="cls-16" d="M91.627 27.431a.384.384 0 0 1-.406-.406v-2.438a.406.406 0 0 1 .813 0v2.438a.384.384 0 0 1-.407.406z" transform="translate(-87.575 -22.962)"/><path id="Path_5110" data-name="Path 5110" class="cls-16" d="M66.447 35.012a.384.384 0 0 1-.406-.406V32.98a.406.406 0 1 1 .813 0v1.625a.384.384 0 0 1-.407.407z" transform="translate(-63.614 -30.949)"/><path id="Path_5111" data-name="Path 5111" class="cls-16" d="M17.509 284.766a.439.439 0 0 1-.284-.122.393.393 0 0 1 0-.569l.041-.041c2.072-2.235-1.259-7.11-1.3-7.191a.385.385 0 0 1 .081-.528.4.4 0 0 1 .569.122c.122.163 2.438 3.575 2.072 6.3 1.3-1.1 3.21-2.4 4.916-2.4h1.1a13.872 13.872 0 0 1 4.063.609 16.762 16.762 0 0 0 5 .609.406.406 0 0 1 0 .813 16.8 16.8 0 0 1-5.241-.65 13.585 13.585 0 0 0-3.819-.569H23.6c-2.316 0-5.444 3.169-5.769 3.494l-.041.041a.587.587 0 0 1-.281.082z" transform="translate(-15.894 -262.827)"/><path id="Path_5112" data-name="Path 5112" class="cls-16" d="M66.447 414.341a.369.369 0 0 1-.284-.122.393.393 0 0 1 0-.569c.162-.122 3.616-3.372 6.379-3.372h1.1a17.522 17.522 0 0 1 4.307.813.4.4 0 0 1-.2.772 16.382 16.382 0 0 0-4.063-.813h-1.144c-2.438 0-5.769 3.128-5.81 3.128a.352.352 0 0 1-.285.163z" transform="translate(-63.614 -390.37)"/><path id="Path_5113" data-name="Path 5113" class="cls-16" d="M67.446 227.8a.439.439 0 0 1-.284-.122.393.393 0 0 1 0-.569c1.666-1.747-.081-6.582-.894-8.288A.4.4 0 1 1 67 218.5c.122.284 3.128 6.7.731 9.223a.588.588 0 0 1-.285.077z" transform="translate(-63.8 -207.652)"/><path id="Path_5114" data-name="Path 5114" class="cls-16" d="M116.993 194.757a.577.577 0 0 1-.244-.081.437.437 0 0 1-.081-.569c2.56-3.21-.041-8.816-.041-8.857a.4.4 0 1 1 .731-.325c.122.244 2.844 6.135-.041 9.71a.461.461 0 0 1-.324.122z" transform="translate(-111.722 -175.702)"/><path id="Path_5115" data-name="Path 5115" class="cls-16" d="M158.775 160.551a.369.369 0 0 1-.284-.122.393.393 0 0 1 0-.569c2.885-2.885.731-9.669.731-9.751a.411.411 0 0 1 .772-.284c.081.284 2.316 7.354-.894 10.563a.419.419 0 0 1-.325.163z" transform="translate(-151.473 -142.268)"/><path id="Path_5116" data-name="Path 5116" class="cls-16" d="M192.2 136.968a.489.489 0 0 1-.406-.284.418.418 0 0 1 .284-.488c4.063-1.138 2.966-10.848 2.966-10.97a.4.4 0 0 1 .366-.447.384.384 0 0 1 .447.366c.041.447 1.178 10.523-3.535 11.823z" transform="translate(-183.268 -118.685)"/><path id="Path_5117" data-name="Path 5117" class="cls-16" d="M242.709 153.31a.406.406 0 0 1 0-.813c4.266 0 4.469-10.279 4.469-10.4a.384.384 0 0 1 .406-.406.407.407 0 0 1 .406.406c.001.487-.202 11.213-5.281 11.213z" transform="translate(-231.344 -134.783)"/><path id="Path_5118" data-name="Path 5118" class="cls-16" d="M293.07 193.814a.406.406 0 1 1 0-.813c4.063 0 5.282-8.9 5.282-8.979a.408.408 0 1 1 .813.081c-.041.407-1.341 9.711-6.095 9.711z" transform="translate(-279.267 -174.719)"/><path id="Path_5119" data-name="Path 5119" class="cls-16" d="M368.611 273.969a.406.406 0 0 1 0-.813 3.877 3.877 0 0 0 3.738-2.6 9.419 9.419 0 0 0 .731-2.722.408.408 0 0 1 .813.081c0 .041-.447 6.054-5.282 6.054z" transform="translate(-351.152 -254.468)"/></g><path id="Path_5120" data-name="Path 5120" d="M9.116 293.159a.438.438 0 0 1-.284-.122.393.393 0 0 1 0-.569l.041-.041c2.072-2.235-1.259-7.11-1.3-7.191a.385.385 0 0 1 .081-.528.4.4 0 0 1 .569.122c.122.163 2.438 3.575 2.072 6.3 1.3-1.1 3.21-2.4 4.916-2.4h1.1a13.872 13.872 0 0 1 4.063.609 16.762 16.762 0 0 0 5 .609.406.406 0 0 1 0 .813 16.806 16.806 0 0 1-5.241-.65 13.587 13.587 0 0 0-3.819-.569h-1.1c-2.316 0-5.444 3.169-5.769 3.494l-.041.041a.587.587 0 0 1-.288.082z" transform="translate(-7.501 -270.813)"/><path id="Path_5121" data-name="Path 5121" d="M58.053 422.735a.369.369 0 0 1-.284-.122.393.393 0 0 1 0-.569c.162-.122 3.616-3.372 6.379-3.372h1.1a17.52 17.52 0 0 1 4.307.813.4.4 0 1 1-.2.772 16.381 16.381 0 0 0-4.063-.813h-1.144c-2.438 0-5.769 3.128-5.81 3.128a.352.352 0 0 1-.285.163z" transform="translate(-55.22 -398.358)"/><path id="Path_5122" data-name="Path 5122" d="M59.052 236.2a.439.439 0 0 1-.284-.122.393.393 0 0 1 0-.569c1.666-1.747-.081-6.582-.894-8.288a.4.4 0 0 1 .731-.325c.122.284 3.128 6.7.731 9.223a.587.587 0 0 1-.284.081z" transform="translate(-55.406 -215.639)"/><path id="Path_5123" data-name="Path 5123" d="M108.6 203.151a.577.577 0 0 1-.244-.081.437.437 0 0 1-.081-.569c2.56-3.21-.041-8.816-.041-8.857a.4.4 0 1 1 .731-.325c.122.244 2.844 6.135-.041 9.71a.461.461 0 0 1-.324.122z" transform="translate(-103.329 -183.69)"/><path id="Path_5124" data-name="Path 5124" d="M150.382 168.944a.369.369 0 0 1-.284-.122.393.393 0 0 1 0-.569c2.885-2.885.731-9.669.731-9.751a.411.411 0 1 1 .772-.284c.081.284 2.316 7.354-.894 10.563a.419.419 0 0 1-.325.163z" transform="translate(-143.079 -150.255)"/><path id="Path_5125" data-name="Path 5125" d="M183.8 145.361a.489.489 0 0 1-.406-.284.418.418 0 0 1 .284-.488c4.063-1.138 2.966-10.848 2.966-10.97a.408.408 0 1 1 .813-.081c.041.447 1.178 10.523-3.535 11.823z" transform="translate(-174.875 -126.672)"/><path id="Path_5126" data-name="Path 5126" d="M234.316 161.7a.406.406 0 1 1 0-.812c4.266 0 4.469-10.279 4.469-10.4a.406.406 0 0 1 .813 0c.002.489-.203 11.212-5.282 11.212z" transform="translate(-222.951 -142.77)"/><path id="Path_5127" data-name="Path 5127" d="M284.676 202.207a.406.406 0 0 1 0-.813c4.063 0 5.282-8.9 5.282-8.979a.408.408 0 0 1 .813.081c-.041.404-1.341 9.711-6.095 9.711z" transform="translate(-270.873 -182.706)"/><path id="Path_5128" data-name="Path 5128" d="M360.217 282.363a.406.406 0 1 1 0-.813 3.877 3.877 0 0 0 3.738-2.6 9.417 9.417 0 0 0 .731-2.722.408.408 0 1 1 .813.081c.001.041-.447 6.054-5.282 6.054z" transform="translate(-342.758 -262.456)"/><path id="Path_5129" data-name="Path 5129" d="M65.911 50.175H49.66a.406.406 0 1 1 0-.813h16.251a.406.406 0 1 1 0 .813z" transform="translate(-47.233 -46.924)"/><path id="Path_5130" data-name="Path 5130" d="M390.274 27.431h-4.307a.989.989 0 0 1-.975-.975v-1.3a.989.989 0 0 1 .975-.975h4.307zm-4.307-2.438a.175.175 0 0 0-.162.162v1.3a.175.175 0 0 0 .162.162h3.494v-1.623z" transform="translate(-366.72 -22.962)"/><path id="Path_5131" data-name="Path 5131" d="M309.857 27.431a.384.384 0 0 1-.406-.406v-2.438a.406.406 0 1 1 .813 0v2.438a.384.384 0 0 1-.407.406z" transform="translate(-294.835 -22.962)"/><path id="Path_5132" data-name="Path 5132" d="M335.037 35.012a.384.384 0 0 1-.406-.406V32.98a.406.406 0 1 1 .813 0v1.625a.384.384 0 0 1-.407.407z" transform="translate(-318.796 -30.949)"/><path id="Path_5133" data-name="Path 5133" d="M360.217 35.012a.384.384 0 0 1-.406-.406V32.98a.406.406 0 0 1 .813 0v1.625a.384.384 0 0 1-.407.407z" transform="translate(-342.758 -30.949)"/><path id="Path_5134" data-name="Path 5134" d="M284.676 19.85a.384.384 0 0 1-.406-.406v-3.25a.406.406 0 0 1 .813 0v3.25a.384.384 0 0 1-.407.406z" transform="translate(-270.873 -14.974)"/><path id="Path_5135" data-name="Path 5135" d="M259.5 12.269a.384.384 0 0 1-.406-.406V7.8a.406.406 0 0 1 .813 0v4.063a.384.384 0 0 1-.407.406z" transform="translate(-246.912 -6.988)"/><path id="Path_5136" data-name="Path 5136" d="M234.316 4.688a.384.384 0 0 1-.406-.406V-.594a.384.384 0 0 1 .406-.406.384.384 0 0 1 .406.406v4.876a.384.384 0 0 1-.406.406z" transform="translate(-222.951 1)"/><path id="Path_5137" data-name="Path 5137" d="M209.135 4.688a.384.384 0 0 1-.406-.406V-.594a.384.384 0 0 1 .406-.406.384.384 0 0 1 .406.406v4.876a.384.384 0 0 1-.406.406z" transform="translate(-198.989 1)"/><path id="Path_5138" data-name="Path 5138" d="M183.955 4.688a.384.384 0 0 1-.406-.406V-.594a.384.384 0 0 1 .406-.406.384.384 0 0 1 .406.406v4.876a.384.384 0 0 1-.406.406z" transform="translate(-175.028 1)"/><path id="Path_5139" data-name="Path 5139" d="M158.775 4.688a.384.384 0 0 1-.406-.406V-.594a.384.384 0 0 1 .406-.406.384.384 0 0 1 .406.406v4.876a.384.384 0 0 1-.406.406z" transform="translate(-151.066 1)"/><path id="Path_5140" data-name="Path 5140" d="M133.594 12.269a.384.384 0 0 1-.406-.406V7.8a.406.406 0 1 1 .813 0v4.063a.384.384 0 0 1-.407.406z" transform="translate(-127.104 -6.988)"/><path id="Path_5141" data-name="Path 5141" d="M108.414 19.85a.384.384 0 0 1-.406-.406v-3.25a.406.406 0 0 1 .813 0v3.25a.384.384 0 0 1-.407.406z" transform="translate(-103.143 -14.974)"/><path id="Path_5142" data-name="Path 5142" d="M83.234 27.431a.384.384 0 0 1-.406-.406v-2.438a.406.406 0 0 1 .813 0v2.438a.384.384 0 0 1-.407.406z" transform="translate(-79.182 -22.962)"/><path id="Path_5143" data-name="Path 5143" d="M58.053 35.012a.384.384 0 0 1-.406-.406V32.98a.406.406 0 0 1 .813 0v1.625a.384.384 0 0 1-.407.407z" transform="translate(-55.22 -30.949)"/></g></g></g></svg>