<svg xmlns="http://www.w3.org/2000/svg" viewBox="0 0 294.521 61">
  <defs>
    <style>
      .cls-1 {
        fill: #4d4d4d;
      }

      .cls-2 {
        fill: #ffa64d;
      }

      .cls-3 {
        fill: #fff;
      }
    </style>
  </defs>
  <g id="_4" data-name="4" transform="translate(10946 11526)">
    <g id="_1" data-name="1" transform="translate(-10946 -11526)">
      <path id="Path_7366" data-name="Path 7366" class="cls-1" d="M30.5,0A30.5,30.5,0,1,1,0,30.5,30.5,30.5,0,0,1,30.5,0Z"/>
      <g id="_028-hipster" data-name="028-hipster" transform="translate(16.951 14.361)">
        <g id="Group_1246" data-name="Group 1246" transform="translate(3.612)">
          <rect id="Rectangle_7348" data-name="Rectangle 7348" class="cls-2" width="15.434" height="1.963" transform="translate(2.454 27.069)"/>
          <path id="Path_4093" data-name="Path 4093" class="cls-2" d="M120.751,2.556l-.318-.346a7.176,7.176,0,0,0-5.3-2.21h-.968C108.563,0,104,3.963,104,8.833V13.25h.565a2.127,2.127,0,0,1,2.26-1.963V9.324h14.691v1.963a2.127,2.127,0,0,1,2.26,1.963h.565V7.709A5.74,5.74,0,0,0,120.751,2.556Z" transform="translate(-104 0)"/>
        </g>
        <g id="Group_1247" data-name="Group 1247" transform="translate(0 8.833)">
          <path id="Path_4094" data-name="Path 4094" class="cls-3" d="M70.894,161.221a6.653,6.653,0,0,0-5.38-4.383l-2.807-.409V155.9a7.264,7.264,0,0,0,3.634-4.724,2.548,2.548,0,0,0,.171-5.061V144H51.294v2.111a2.548,2.548,0,0,0,.171,5.061A7.264,7.264,0,0,0,55.1,155.9v.533l-2.807.409a6.652,6.652,0,0,0-5.38,4.383l-1.792,5.431H72.685Zm-14.708-4.834a7.879,7.879,0,0,0,5.435,0v.408a3.089,3.089,0,0,1-5.435,0ZM67.6,148.633a1.552,1.552,0,0,1-1.11,1.456c.009-.142.023-.283.023-.427v-2.479A1.551,1.551,0,0,1,67.6,148.633Zm-17.391,0a1.551,1.551,0,0,1,1.087-1.45v2.479c0,.144.014.285.023.427A1.552,1.552,0,0,1,50.207,148.633Zm2.174,1.03V145.03H65.424v4.633a6.531,6.531,0,0,1-13.044,0Zm-4.432,11.865a5.574,5.574,0,0,1,4.509-3.673l2.829-.412a4.268,4.268,0,0,0,7.233,0l2.829.412a5.575,5.575,0,0,1,4.509,3.673l1.351,4.094h-4.2l-.5-5.195-1.083.093.489,5.1H51.889l.49-5.1-1.083-.093-.5,5.2H46.6Z" transform="translate(-45.12 -144)"/>
          <path id="Path_4095" data-name="Path 4095" class="cls-3" d="M177.227,176a1.227,1.227,0,1,0,1.227,1.227A1.228,1.228,0,0,0,177.227,176Zm0,1.472a.245.245,0,1,1,.245-.245A.246.246,0,0,1,177.227,177.472Z" transform="translate(-167.014 -174.037)"/>
          <path id="Path_4096" data-name="Path 4096" class="cls-3" d="M281.227,178.454A1.227,1.227,0,1,0,280,177.227,1.228,1.228,0,0,0,281.227,178.454Zm0-1.472a.245.245,0,1,1-.245.245A.246.246,0,0,1,281.227,176.981Z" transform="translate(-263.874 -174.037)"/>
        </g>
        <g id="Group_1248" data-name="Group 1248" transform="translate(6.422 15.833)">
          <path id="Path_4097" data-name="Path 4097" class="cls-2" d="M135.361,249.472A1.3,1.3,0,0,0,133.889,248c-1.963,0-1.963,2.454-3.435,2.454a3.755,3.755,0,0,1-2.454-.981s.491,2.944,2.944,2.944S135.361,250.454,135.361,249.472Z" transform="translate(-128 -248)"/>
          <path id="Path_4098" data-name="Path 4098" class="cls-2" d="M248,249.472A1.3,1.3,0,0,1,249.472,248c1.963,0,1.963,2.454,3.435,2.454a3.755,3.755,0,0,0,2.454-.981s-.491,2.944-2.944,2.944S248,250.454,248,249.472Z" transform="translate(-240.639 -248)"/>
        </g>
      </g>
    </g>
    <g id="_3" data-name="3" transform="translate(-10790.317 -11526)">
      <ellipse id="Ellipse_969" data-name="Ellipse 969" class="cls-1" cx="30.5" cy="30.5" rx="30.5" ry="30.5"/>
      <g id="_018-shaver" data-name="018-shaver" transform="translate(16.039 15.056)">
        <g id="Group_1228" data-name="Group 1228" transform="translate(1.007 0.504)">
          <rect id="Rectangle_7305" data-name="Rectangle 7305" class="cls-2" width="13.093" height="2.014" transform="translate(16.114 22.66)"/>
          <path id="Path_4039" data-name="Path 4039" class="cls-2" d="M29.093,8H17.007A1.007,1.007,0,0,0,16,9.007v2.014H30.1V9.007A1.007,1.007,0,0,0,29.093,8Z" transform="translate(-16 -8)"/>
        </g>
        <g id="Group_1229" data-name="Group 1229" transform="translate(0 0)">
          <path id="Path_4040" data-name="Path 4040" class="cls-3" d="M16.114,4.028a1,1,0,0,0-.5-.867V1.511A1.513,1.513,0,0,0,14.1,0H2.014A1.513,1.513,0,0,0,.5,1.511V3.161a1,1,0,0,0-.5.867v6.624a4.509,4.509,0,0,0,1.7,3.539l.832.665.875,14a2.522,2.522,0,0,0,2.513,2.361h4.272a2.522,2.522,0,0,0,2.513-2.361l.875-14,.832-.665a4.509,4.509,0,0,0,1.7-3.539ZM14.6,1.511V3.021H13.6V1.007h.5A.5.5,0,0,1,14.6,1.511ZM3.525,3.021V1.007H4.532V3.021ZM5.539,1.007H6.546V3.021H5.539Zm2.014,0H8.561V3.021H7.553Zm2.014,0h1.007V3.021H9.568Zm2.014,0h1.007V3.021H11.582Zm-9.568,0h.5V3.021H1.511V1.511A.5.5,0,0,1,2.014,1.007Zm8.179,29.206H5.921A1.513,1.513,0,0,1,4.413,28.8l-.038-.6h7.363l-.037.6A1.513,1.513,0,0,1,10.193,30.214Zm3.591-16.808-1.18.944-.8,12.843H4.312l-.8-12.843-1.18-.944a3.508,3.508,0,0,1-1.323-2.752V7.05H13.093V6.043H1.007V4.028h14.1V6.043H14.1V7.05h1.007v3.6A3.508,3.508,0,0,1,13.784,13.405Z" transform="translate(0 0)"/>
          <path id="Path_4041" data-name="Path 4041" class="cls-3" d="M90.518,168A2.521,2.521,0,0,0,88,170.518v5.036a2.518,2.518,0,0,0,5.036,0v-5.036A2.521,2.521,0,0,0,90.518,168Zm0,1.007a1.513,1.513,0,0,1,1.511,1.511v.5H89.007v-.5A1.513,1.513,0,0,1,90.518,169.007Zm1.511,3.021v2.014H89.007v-2.014Zm-1.511,5.036a1.513,1.513,0,0,1-1.511-1.511v-.5h3.021v.5A1.513,1.513,0,0,1,90.518,177.064Z" transform="translate(-82.461 -157.425)"/>
          <path id="Path_4042" data-name="Path 4042" class="cls-3" d="M268.085,208v9.064h-1.007V208h-3.021v9.064H263.05V208h-3.021v9.064h-1.007V208H256v11.582a4.535,4.535,0,0,0,3.021,4.268v2.279h9.064V223.85a4.535,4.535,0,0,0,3.021-4.268V208Zm-3.021,1.007h1.007v8.057h-1.007Zm-4.029,0h1.007v8.057h-1.007Zm-4.028,0h1.007v8.057h-1.007Zm10.071,16.114h-7.05v-1.037a4.5,4.5,0,0,0,.5.03h6.043a4.5,4.5,0,0,0,.5-.03Zm3.021-5.539a3.529,3.529,0,0,1-3.525,3.525h-6.043a3.529,3.529,0,0,1-3.525-3.525v-1.511H270.1Zm-1.007-2.518v-8.057H270.1v8.057Z" transform="translate(-239.886 -194.907)"/>
        </g>
        <rect id="Rectangle_7306" data-name="Rectangle 7306" class="cls-2" width="14.1" height="2.014" transform="translate(1.007 7.05)"/>
      </g>
    </g>
    <g id="_2" data-name="2" transform="translate(-10868.158 -11526)">
      <ellipse id="Ellipse_969-2" data-name="Ellipse 969" class="cls-1" cx="30.5" cy="30.5" rx="30.5" ry="30.5"/>
      <g id="_009-foam" data-name="009-foam" transform="translate(17.943 15.687)">
        <g id="Group_1213" data-name="Group 1213" transform="translate(1.822 9.11)">
          <rect id="Rectangle_7234" data-name="Rectangle 7234" class="cls-2" width="12.754" height="8.199" transform="translate(0 5.466)"/>
          <path id="Path_4012" data-name="Path 4012" class="cls-2" d="M288.654,165.01a5.836,5.836,0,0,0-2.1-4.482l-.634-.528-.393.982a2.364,2.364,0,0,1-1.9,1.468,2.58,2.58,0,0,0-2.26,2.56,1.366,1.366,0,0,0,0,2.733h7.288a1.366,1.366,0,0,0,0-2.733Z" transform="translate(-265.88 -160)"/>
          <rect id="Rectangle_7235" data-name="Rectangle 7235" class="cls-2" width="9.11" height="3.644" transform="translate(14.575 12.298)"/>
        </g>
        <g id="Group_1214" data-name="Group 1214" transform="translate(0 0)">
          <path id="Path_4013" data-name="Path 4013" class="cls-3" d="M121.366,34.733A1.366,1.366,0,1,0,120,33.366,1.368,1.368,0,0,0,121.366,34.733Zm0-1.822a.455.455,0,1,1-.455.455A.456.456,0,0,1,121.366,32.911Z" transform="translate(-113.168 -30.178)"/>
          <rect id="Rectangle_7236" data-name="Rectangle 7236" class="cls-3" width="0.911" height="0.911" transform="translate(3.188 15.942)"/>
          <rect id="Rectangle_7237" data-name="Rectangle 7237" class="cls-3" width="8.199" height="0.911" transform="translate(5.01 15.942)"/>
          <rect id="Rectangle_7238" data-name="Rectangle 7238" class="cls-3" width="10.021" height="0.911" transform="translate(3.188 17.764)"/>
          <rect id="Rectangle_7239" data-name="Rectangle 7239" class="cls-3" width="8.199" height="0.911" transform="translate(3.188 19.586)"/>
          <rect id="Rectangle_7240" data-name="Rectangle 7240" class="cls-3" width="0.911" height="0.911" transform="translate(12.298 19.586)"/>
          <path id="Path_4014" data-name="Path 4014" class="cls-3" d="M25.963,18.219h-.455V17.055a1.811,1.811,0,0,0-.477-3.333,6.264,6.264,0,0,0-2.241-4.435l-1.115-.929-.626,1.565a1.91,1.91,0,0,1-1.536,1.186,3.039,3.039,0,0,0-2.629,2.612,1.811,1.811,0,0,0-.485,3.335v1.164h-.455a2.255,2.255,0,0,0-.911.193V11.387A2.28,2.28,0,0,0,12.754,9.11V8.654a1.368,1.368,0,0,0-1.366-1.366h-.911V5.415A3.185,3.185,0,1,0,5.322,1.822H0V4.555H5.322a3.205,3.205,0,0,0,.6.86V7.288H5.01A1.368,1.368,0,0,0,3.644,8.654V9.11a2.28,2.28,0,0,0-2.277,2.277V25.963A2.28,2.28,0,0,0,3.644,28.24h9.11a2.284,2.284,0,0,0,1.6-.654,2.268,2.268,0,0,0,1.593.654H25.963a2.28,2.28,0,0,0,2.277-2.277V20.5A2.28,2.28,0,0,0,25.963,18.219Zm-8.654-3.644h1.366v-.911h-.856a2.125,2.125,0,0,1,1.806-1.652,2.821,2.821,0,0,0,2.269-1.751l.16-.4.152.127a5.358,5.358,0,0,1,1.91,3.677H23.23v.911H24.6a.911.911,0,0,1,0,1.822H17.308a.911.911,0,1,1,0-1.821Zm0,2.733H24.6v.911H17.308ZM8.2.911A2.277,2.277,0,1,1,5.921,3.188,2.28,2.28,0,0,1,8.2.911ZM.911,2.733h.911v.911H.911Zm1.822.911V2.733H5.047a3.2,3.2,0,0,0-.036.455,3.2,3.2,0,0,0,.036.455Zm4.1,2.421a3.148,3.148,0,0,0,2.733,0V7.288H6.832ZM4.555,8.654A.456.456,0,0,1,5.01,8.2h6.377a.456.456,0,0,1,.455.455V9.11H4.555Zm8.2,18.675H3.644a1.368,1.368,0,0,1-1.366-1.366V11.387a1.368,1.368,0,0,1,1.366-1.366h9.11a1.368,1.368,0,0,1,1.366,1.366V19.13h.012a2.254,2.254,0,0,0-.467,1.366v5.466a2.254,2.254,0,0,0,.161.828A1.364,1.364,0,0,1,12.754,27.329Zm14.575-1.366a1.368,1.368,0,0,1-1.366,1.366H15.942a1.368,1.368,0,0,1-1.366-1.366V20.5a1.368,1.368,0,0,1,1.366-1.366H25.963A1.368,1.368,0,0,1,27.329,20.5Z" transform="translate(0 0)"/>
          <rect id="Rectangle_7241" data-name="Rectangle 7241" class="cls-3" width="0.911" height="0.911" transform="translate(19.586 13.665)"/>
        </g>
      </g>
    </g>
    <g id="_4-2" data-name="4" transform="translate(-10712.479 -11526)">
      <ellipse id="Ellipse_969-3" data-name="Ellipse 969" class="cls-1" cx="30.5" cy="30.5" rx="30.5" ry="30.5"/>
      <g id="_026-hair-salon" data-name="026-hair-salon" transform="translate(15.961 13.751)">
        <g id="Group_1242" data-name="Group 1242" transform="translate(3.809 0.608)">
          <path id="Path_4080" data-name="Path 4080" class="cls-2" d="M57.885,38.858l7.294,2.735V8.944l-7.294,2.735a2.176,2.176,0,0,0-1.413,2.038v23.1A2.176,2.176,0,0,0,57.885,38.858Z" transform="translate(-56.472 -8.944)"/>
          <path id="Path_4081" data-name="Path 4081" class="cls-2" d="M306.649,10.032l-2.177-1.088V27.99h2.177Z" transform="translate(-287.603 -8.944)"/>
        </g>
        <g id="Group_1243" data-name="Group 1243" transform="translate(0)">
          <path id="Path_4082" data-name="Path 4082" class="cls-3" d="M211.193,384.944a2.721,2.721,0,1,0,2.721,2.721A2.724,2.724,0,0,0,211.193,384.944Zm0,4.353a1.632,1.632,0,1,1,1.632-1.633A1.634,1.634,0,0,1,211.193,389.3Z" transform="translate(-194.324 -358.76)"/>
          <path id="Path_4083" data-name="Path 4083" class="cls-3" d="M339.193,384.944a2.721,2.721,0,1,0,2.721,2.721A2.724,2.724,0,0,0,339.193,384.944Zm0,4.353a1.632,1.632,0,1,1,1.632-1.633A1.634,1.634,0,0,1,339.193,389.3Z" transform="translate(-313.617 -358.76)"/>
          <path id="Path_4084" data-name="Path 4084" class="cls-3" d="M290.1,324.209a1.633,1.633,0,1,0-1.632-1.633A1.634,1.634,0,0,0,290.1,324.209Zm0-2.177a.544.544,0,1,1-.544.544A.545.545,0,0,1,290.1,322.032Z" transform="translate(-268.882 -299.113)"/>
          <path id="Path_4085" data-name="Path 4085" class="cls-3" d="M34.21,31.625a8.713,8.713,0,0,1-3.65-.817,4.9,4.9,0,0,0-3.968-6.769V22.375A2.711,2.711,0,0,0,25.486,20.2H25.5V5.891A6.416,6.416,0,0,0,21.937.121L21.694,0l-.243.122a6.414,6.414,0,0,0-3.566,5.769V20.2H17.9A2.711,2.711,0,0,0,16.8,22.375v1.665a4.892,4.892,0,0,0-3.265,1.794V.064H4.281A3.813,3.813,0,0,0,.472,3.873v26.12A3.814,3.814,0,0,0,4.281,33.8h9.251V31.976a4.887,4.887,0,0,0,8.162-.838,4.885,4.885,0,0,0,8.322.625,9.811,9.811,0,0,0,4.194.951ZM18.973,5.891a5.326,5.326,0,0,1,2.177-4.31v15.9h1.088V1.581a5.326,5.326,0,0,1,2.177,4.31V19.709a2.718,2.718,0,0,0-.544-.055H22.238V18.566H21.15v1.088H19.518a2.718,2.718,0,0,0-.544.055Zm.544,14.851h4.353A1.634,1.634,0,0,1,25.5,22.375v1.665a4.9,4.9,0,0,0-3.809,2.632,4.9,4.9,0,0,0-3.809-2.632V22.375A1.634,1.634,0,0,1,19.518,20.742ZM7.282,30.537h5.161v1.936ZM4.825,7.682h5.442V6.594H4.825V5.382a1.629,1.629,0,0,1,.321-.964h7.3V6.594H11.355V7.682h1.088V9.859H4.825Zm7.618-4.353H7.283l5.161-1.936ZM4.825,10.947h7.618v2.177H4.825Zm0,3.265h7.618v2.177H4.825Zm0,3.265h7.618v2.177H4.825Zm0,3.265h7.618v2.177H4.825Zm.321,8.707a1.63,1.63,0,0,1-.321-.964V27.272H5.914V26.184H4.825V24.007h7.618v2.177H7v1.088h5.442v2.177Zm-3.585.544V3.873A2.724,2.724,0,0,1,4.281,1.153H9.987L5.5,2.834A2.734,2.734,0,0,0,3.737,5.382v23.1A2.735,2.735,0,0,0,5.5,31.033l4.484,1.681H4.281A2.725,2.725,0,0,1,1.56,29.993Zm15.781,2.721A3.809,3.809,0,1,1,21.15,28.9,3.814,3.814,0,0,1,17.341,32.714Zm8.707,0A3.809,3.809,0,1,1,29.857,28.9,3.814,3.814,0,0,1,26.047,32.714Z" transform="translate(-0.472)"/>
        </g>
      </g>
    </g>
  </g>
</svg>
