<svg xmlns="http://www.w3.org/2000/svg" xmlns:xlink="http://www.w3.org/1999/xlink" viewBox="0 0 295.001 61"><defs><style>.cls-1{fill:url(#radial-gradient)}.cls-2{fill:url(#linear-gradient)}.cls-3{fill:url(#linear-gradient-2)}.cls-4{fill:url(#linear-gradient-3)}.cls-5{fill:url(#linear-gradient-4)}.cls-6{fill:url(#linear-gradient-5)}.cls-7{fill:url(#linear-gradient-6)}.cls-8{fill:url(#linear-gradient-7)}.cls-9{fill:url(#linear-gradient-8)}.cls-10{fill:url(#linear-gradient-9)}.cls-11{fill:#55d4be}.cls-12{fill:#24bfb2}.cls-13{fill:#f2edec}.cls-14{fill:#fce780}.cls-15{fill:#fee2ca}.cls-16{fill:#fdd0ab}.cls-17{fill:#fa892d}.cls-18{fill:#fc1a40}.cls-19{fill:#c60034}.cls-20{fill:#fe9923}.cls-21{fill:#fe8821}.cls-22{fill:#ff3e75}.cls-23{fill:#fcbf29}.cls-24{fill:#b06e53}.cls-25{fill:#ffd7a3}.cls-26{fill:#e4ebf0}.cls-27{fill:#d0d7dc}.cls-28{fill:#fdc88e}.cls-29{fill:#ffe1b2}.cls-30{fill:#545465}</style><radialGradient id="radial-gradient" cx=".5" cy="0" r="2.008" gradientTransform="rotate(90 .5 0)"><stop offset="0" stop-color="#3c0856"/><stop offset="1" stop-color="#0c0211"/></radialGradient><linearGradient id="linear-gradient" x1=".036" y1=".484" x2=".681" y2=".305" gradientUnits="objectBoundingBox"><stop offset="0" stop-color="#ffb92d"/><stop offset="1" stop-color="#f59500"/></linearGradient><linearGradient id="linear-gradient-2" x1=".851" y1=".36" x2=".346" y2=".362" gradientUnits="objectBoundingBox"><stop offset="0" stop-color="#be3f45" stop-opacity="0"/><stop offset="1" stop-color="#be3f45"/></linearGradient><linearGradient id="linear-gradient-3" x1=".02" y1=".612" x2=".687" y2=".184" gradientUnits="objectBoundingBox"><stop offset="0" stop-color="#fff465"/><stop offset="1" stop-color="#ffe600"/></linearGradient><linearGradient id="linear-gradient-4" x1=".441" y1="-.601" x2=".096" y2="-.255" gradientUnits="objectBoundingBox"><stop offset="0" stop-color="#ffe600" stop-opacity="0"/><stop offset="1" stop-color="#f59500"/></linearGradient><linearGradient id="linear-gradient-5" x1=".772" y1="-.82" x2=".142" y2="-.312" xlink:href="#linear-gradient-4"/><linearGradient id="linear-gradient-6" x1="1.1" y1="-2.423" x2=".027" y2="-1.561" xlink:href="#linear-gradient-4"/><linearGradient id="linear-gradient-7" x1=".495" y1="-.226" x2=".495" y2="-1.338" gradientUnits="objectBoundingBox"><stop offset="0" stop-color="#fff"/><stop offset="1" stop-color="#e2edf2"/></linearGradient><linearGradient id="linear-gradient-8" x1=".915" y1="1.262" x2="-.338" y2="1.824" xlink:href="#linear-gradient-4"/><linearGradient id="linear-gradient-9" x1=".233" y1="2.348" x2="1.163" y2="2.348" gradientUnits="objectBoundingBox"><stop offset="0" stop-color="#62e1fb"/><stop offset="1" stop-color="#00a2f3"/></linearGradient></defs><g id="_5" data-name="5" transform="translate(10946 11435)"><g id="_1" data-name="1" transform="translate(-10946 -11435)"><path id="Path_6598" data-name="Path 6598" class="cls-1" d="M30.5 0A30.5 30.5 0 1 1 0 30.5 30.5 30.5 0 0 1 30.5 0z"/><g id="discount" transform="translate(20.543 15.124)"><path id="Path_4794" data-name="Path 4794" class="cls-2" d="M98.554 81.574L90.9 67a2.636 2.636 0 0 0-2.175-1.4l-1.351-.08-4.977-.3-.1-.006h-.223a2.637 2.637 0 0 0-2.184 1.263L76.519 72a2.635 2.635 0 0 0-.082 2.6l7.655 14.571a3.026 3.026 0 0 0 3.689 1.443 3.127 3.127 0 0 0 .395-.172l1.2-.631 7.906-4.154a3.024 3.024 0 0 0 1.272-4.083zM83.378 72.3l-.106.1a.598.598 0 0 1-.048.04 1.8 1.8 0 0 1-.164.114c-.019.012-.038.024-.057.034a.55.55 0 0 1-.058.032 1.755 1.755 0 1 1 .242-2.964c.046.034.092.072.136.113l.054.052a1.755 1.755 0 0 1 .001 2.479z" transform="translate(-73.969 -61.469)"/><path id="Path_4795" data-name="Path 4795" class="cls-3" d="M84.091 89.176a3.026 3.026 0 0 0 3.689 1.443 3.13 3.13 0 0 0 .395-.172l1.2-.631 7.906-4.154a3.024 3.024 0 0 0 1.271-4.083l-3.577-6.81L89.7 69.49a2.636 2.636 0 0 0-.665-.574l-1.159-.7-4.35-2.628a2.63 2.63 0 0 0-1.153-.37h-.406a2.631 2.631 0 0 0-1.157.367l-.219.132a2.632 2.632 0 0 0-.7.758l-3.37 5.537a2.635 2.635 0 0 0-.082 2.6zM80.9 69.821a1.753 1.753 0 0 1 2.291-.165c.046.034.092.072.136.113l.054.052a1.755 1.755 0 0 1 0 2.482l-.106.1a.598.598 0 0 1-.048.04 1.81 1.81 0 0 1-.164.114c-.019.012-.038.024-.057.034a.551.551 0 0 1-.058.032 1.755 1.755 0 0 1-2.049-2.8z" transform="translate(-73.968 -61.475)"/><path id="Path_4796" data-name="Path 4796" class="cls-4" d="M53.368 68.914l-1.159-.7-4.35-2.628a2.635 2.635 0 0 0-2.717 0l-5.558 3.334a2.634 2.634 0 0 0-1.28 2.259v16.46a3.024 3.024 0 0 0 3.024 3.024h10.289a3.024 3.024 0 0 0 3.024-3.024V71.168a2.634 2.634 0 0 0-1.273-2.254zM45.232 72.3a1.755 1.755 0 0 1 2.291-2.647 1.672 1.672 0 0 1 .136.113l.054.052a1.755 1.755 0 0 1 0 2.482l-.105.1a.847.847 0 0 1-.048.04 1.742 1.742 0 0 1-.164.115l-.057.034a.649.649 0 0 1-.058.032 1.755 1.755 0 0 1-2.049-.321z" transform="translate(-38.305 -61.472)"/><path id="Path_4797" data-name="Path 4797" class="cls-5" d="M95.666 278.743v-.207L85.524 268.4a2.43 2.43 0 0 0-1.563-.472q-2.137 0-2.137 1.969v2.37a1.848 1.848 0 0 0 .628 1.553l7.951 7.951h2.24a3.024 3.024 0 0 0 3.023-3.028z" transform="translate(-79.331 -252.581)"/><path id="Path_4798" data-name="Path 4798" class="cls-6" d="M126.578 257.2a.71.71 0 0 0-.468-.176.476.476 0 0 0-.479.288l-5.856 11.764a.478.478 0 0 0-.064.24.576.576 0 0 0 .177.408l1.767 1.767h6.705a3.024 3.024 0 0 0 3.024-3.024v-6.437z" transform="translate(-115.05 -242.301)"/><path id="Path_4799" data-name="Path 4799" class="cls-7" d="M208.819 362.615a2.429 2.429 0 0 0-1.563-.472q-2.137 0-2.137 1.969v2.369a1.848 1.848 0 0 0 .628 1.553l2.556 2.556h.575a3.024 3.024 0 0 0 3.024-3.023V365.7z" transform="translate(-195.566 -341.405)"/><path id="Path_4800" data-name="Path 4800" class="cls-8" d="M81.823 261.982v-2.37q0-1.969 2.137-1.969a2.43 2.43 0 0 1 1.563.472 1.8 1.8 0 0 1 .59 1.5v2.37a1.8 1.8 0 0 1-.59 1.5 2.428 2.428 0 0 1-1.563.472q-2.137-.006-2.137-1.975zm1.137-.027q0 .924 1 .923 1.016 0 1.017-.923v-2.316q0-.923-1.017-.923-1 0-1 .923v2.316zm1.033 7.356a.478.478 0 0 1 .064-.24l5.856-11.764a.476.476 0 0 1 .479-.288.71.71 0 0 1 .468.176.544.544 0 0 1 .21.432.728.728 0 0 1-.048.256L85.165 269.6a.544.544 0 0 1-.543.3.6.6 0 0 1-.452-.184.577.577 0 0 1-.177-.405zm4.891-1.9v-2.388q0-1.984 2.137-1.984a2.416 2.416 0 0 1 1.563.476 1.824 1.824 0 0 1 .59 1.508v2.388a1.824 1.824 0 0 1-.59 1.508 2.416 2.416 0 0 1-1.563.476q-2.138 0-2.137-1.985zm1.137-.022q0 .934 1 .934 1.016 0 1.017-.934v-2.343q0-.933-1.017-.934-1 0-1 .934v2.343z" transform="translate(-79.331 -242.301)"/><path id="Path_4801" data-name="Path 4801" class="cls-9" d="M170.172 71.167v5.6l-6.783-6.783a1.789 1.789 0 0 0-.143-.164l-.054-.052a.471.471 0 0 0-.038-.032 1.062 1.062 0 0 0-.1-.08 1.753 1.753 0 0 0-2.2.081v-4.255a2.635 2.635 0 0 1 2.3-.025 2.521 2.521 0 0 1 .238.127l4.35 2.628 1.158.7a2.633 2.633 0 0 1 1.272 2.255z" transform="translate(-153.836 -61.471)"/><path id="Path_4802" data-name="Path 4802" class="cls-10" d="M162 10.352a1.15 1.15 0 0 1-1.15-1.15V1.15a1.15 1.15 0 1 1 2.3 0V9.2a1.15 1.15 0 0 1-1.15 1.152z" transform="translate(-153.836)"/></g></g><g id="_1-2" data-name="1" transform="translate(-10868 -11435)"><path id="Path_6598-2" data-name="Path 6598" class="cls-1" d="M30.5 0A30.5 30.5 0 1 1 0 30.5 30.5 30.5 0 0 1 30.5 0z"/><g id="review" transform="translate(17.766 17.63)"><path id="Path_7354" data-name="Path 7354" class="cls-11" d="M68.29 138.951h-3.221A1.074 1.074 0 0 1 64 137.877v-8.8A1.074 1.074 0 0 1 65.069 128h3.221a1.074 1.074 0 0 1 1.074 1.074v8.8a1.074 1.074 0 0 1-1.074 1.077z" transform="translate(-60.777 -121.517)"/><path id="Path_7355" data-name="Path 7355" class="cls-12" d="M65.069 137.34V128A1.074 1.074 0 0 0 64 129.078v8.8a1.074 1.074 0 0 0 1.074 1.074h3.216a1.074 1.074 0 0 0 1.074-1.074h-3.758a.537.537 0 0 1-.537-.538z" transform="translate(-60.777 -121.517)"/><ellipse id="Ellipse_888" data-name="Ellipse 888" class="cls-13" cx=".805" cy=".805" rx=".805" ry=".805" transform="translate(5.097 14.212)"/><path id="Path_7356" data-name="Path 7356" class="cls-14" d="M184.442 7.752A1.342 1.342 0 0 0 183.1 6.41h-6.766a5.07 5.07 0 0 0 .811-2.357c.405-2.838-.612-3.928-1.622-4.051a.422.422 0 0 0-.472.42 15.505 15.505 0 0 1-.744 3.631c-1.217 2.433-4.362 3.647-4.362 3.647v8.646a2.954 2.954 0 0 0 2.148.8h9.933a1.342 1.342 0 0 0 0-2.685h.537a1.342 1.342 0 0 0 1.342-1.342 1.342 1.342 0 0 0-1.342-1.342h.537a1.342 1.342 0 0 0 1.342-1.342 1.342 1.342 0 0 0-1.342-1.34 1.342 1.342 0 0 0 1.342-1.343z" transform="translate(-161.358 .001)"/><path id="Path_7357" data-name="Path 7357" class="cls-15" d="M184.442 7.752A1.342 1.342 0 0 0 183.1 6.41h-6.766a5.07 5.07 0 0 0 .811-2.357c.405-2.838-.612-3.928-1.622-4.051a.422.422 0 0 0-.472.42 15.505 15.505 0 0 1-.744 3.631c-1.217 2.433-4.362 3.647-4.362 3.647v8.646a2.954 2.954 0 0 0 2.148.8h9.933a1.342 1.342 0 0 0 0-2.685h.537a1.342 1.342 0 0 0 1.342-1.342 1.342 1.342 0 0 0-1.342-1.342h.537a1.342 1.342 0 0 0 1.342-1.342 1.342 1.342 0 0 0-1.342-1.34 1.342 1.342 0 0 0 1.342-1.343z" transform="translate(-161.358 .001)"/><g id="Group_2056" data-name="Group 2056" transform="translate(8.587 7.217)"><path id="Path_7358" data-name="Path 7358" class="cls-16" d="M182.025 304.859h-9.933a2.954 2.954 0 0 1-2.148-.8v.811a2.954 2.954 0 0 0 2.148.8h9.933a1.343 1.343 0 0 0 1.28-1.748 1.343 1.343 0 0 1-1.28.937z" transform="translate(-169.944 -295.737)"/><path id="Path_7359" data-name="Path 7359" class="cls-16" d="M404.375 143.207h-1.342v1.074h1.342a1.342 1.342 0 0 0 1.342-1.342 1.336 1.336 0 0 0-.112-.537 1.342 1.342 0 0 1-1.23.805z" transform="translate(-391.221 -142.402)"/><path id="Path_7360" data-name="Path 7360" class="cls-16" d="M404.375 196.182h-1.342v1.074h1.342a1.342 1.342 0 0 0 1.342-1.342 1.336 1.336 0 0 0-.112-.537 1.342 1.342 0 0 1-1.23.805z" transform="translate(-391.221 -192.692)"/><path id="Path_7361" data-name="Path 7361" class="cls-16" d="M403.837 249.157h-.805v1.074h.805a1.342 1.342 0 0 0 1.342-1.342 1.337 1.337 0 0 0-.112-.537 1.342 1.342 0 0 1-1.23.805z" transform="translate(-391.22 -242.983)"/></g><g id="Group_2057" data-name="Group 2057" transform="translate(0 18.878)"><path id="Path_7362" data-name="Path 7362" class="cls-17" d="M190.065 374.929h-2.258l-.7-2.147a.38.38 0 0 0-.723 0l-.7 2.147h-2.258a.38.38 0 0 0-.223.688l1.827 1.327-.7 2.147a.38.38 0 0 0 .585.425l1.827-1.327 1.827 1.327a.38.38 0 0 0 .585-.425l-.7-2.147 1.827-1.327a.38.38 0 0 0-.223-.688z" transform="translate(-173.8 -372.519)"/><path id="Path_7363" data-name="Path 7363" class="cls-17" d="M372.981 375.191a.38.38 0 0 0-.362-.263h-2.258l-.7-2.147a.38.38 0 0 0-.723 0l-.7 2.147h-2.258a.38.38 0 0 0-.223.688l1.827 1.327-.7 2.147a.38.38 0 0 0 .585.425l1.827-1.327 1.827 1.327a.38.38 0 0 0 .585-.425l-.7-2.147 1.827-1.327a.38.38 0 0 0 .146-.425z" transform="translate(-347.103 -372.518)"/><path id="Path_7364" data-name="Path 7364" class="cls-17" d="M7.506 374.929H5.248l-.7-2.147a.38.38 0 0 0-.723 0l-.7 2.147H.872a.38.38 0 0 0-.223.688l1.827 1.327-.7 2.147a.38.38 0 0 0 .585.425l1.827-1.327 1.827 1.327a.38.38 0 0 0 .585-.425l-.7-2.147 1.827-1.327a.38.38 0 0 0-.223-.688z" transform="translate(-.491 -372.519)"/></g></g></g><g id="_1-3" data-name="1" transform="translate(-10790 -11435)"><path id="Path_6598-3" data-name="Path 6598" class="cls-1" d="M30.5 0A30.5 30.5 0 1 1 0 30.5 30.5 30.5 0 0 1 30.5 0z"/><g id="gift-box" transform="translate(18.57 16.122)"><path id="Path_5367" data-name="Path 5367" class="cls-18" d="M55.976 242l-2.626-.957a.759.759 0 0 0-.276-.049H36.246a.8.8 0 0 0-.811.811v11.4a2.429 2.429 0 0 0 2.432 2.432h16.212a2.429 2.429 0 0 0 2.432-2.432v-10.439a.8.8 0 0 0-.535-.766z" transform="translate(-35.275 -227.975)"/><path id="Path_5368" data-name="Path 5368" class="cls-19" d="M240.973 242.766v10.446a2.429 2.429 0 0 1-2.432 2.432h-8.106V241h7.1a.758.758 0 0 1 .276.049l2.626.957a.8.8 0 0 1 .536.76z" transform="translate(-219.738 -227.975)"/><path id="Path_5369" data-name="Path 5369" class="cls-20" d="M172.047 5.285a3.282 3.282 0 0 0-2.221-2.351 3.23 3.23 0 0 0-3.145.681L164.8 5.268l-.373-2.48a3.284 3.284 0 0 0-1.993-2.545 3.078 3.078 0 0 0-.634-.179 3.224 3.224 0 0 0-2.562.567 3.273 3.273 0 0 0 .811 5.739L161.8 7l2.156.794h.016l3.745 1.378a3.478 3.478 0 0 0 1.135.195 3.3 3.3 0 0 0 3.194-4.086z" transform="translate(-151.104)"/><path id="Path_5370" data-name="Path 5370" class="cls-21" d="M239.676 9.65a3.278 3.278 0 0 1-2.189.843 3.479 3.479 0 0 1-1.135-.195l-3.745-1.378h-.016l-2.156-.794V1.187a3.083 3.083 0 0 1 .632.178 3.284 3.284 0 0 1 1.994 2.545l.373 2.48 1.881-1.654a3.23 3.23 0 0 1 3.145-.681 3.285 3.285 0 0 1 1.216 5.593z" transform="translate(-219.738 -1.123)"/><path id="Path_5371" data-name="Path 5371" class="cls-22" d="M56.49 60.344l-1.1 3.048a.821.821 0 0 1-.762.519.758.758 0 0 1-.276-.049l-8.382-3.048-.764-2.514-2.027.454-1.779.406-8.382-3.048a.825.825 0 0 1-.486-1.038l1.119-3.048a2.417 2.417 0 0 1 3.113-1.459L43.18 52.9l.438.162s1.751 3.178 1.8 3.178c.032 0 .73-.389 1.41-.762s1.362-.762 1.362-.762l6.841 2.5a2.457 2.457 0 0 1 1.378 1.265 2.4 2.4 0 0 1 .081 1.863z" transform="translate(-32.482 -47.693)"/><path id="Path_5372" data-name="Path 5372" class="cls-18" d="M243.745 103.84l-1.1 3.048a.821.821 0 0 1-.762.519.758.758 0 0 1-.276-.049l-8.382-3.048-.762-2.513-2.026.454V96.4l.438.162s1.751 3.178 1.8 3.178c.032 0 .73-.389 1.41-.762s1.362-.762 1.362-.762l6.841 2.5a2.458 2.458 0 0 1 1.378 1.265 2.4 2.4 0 0 1 .079 1.859z" transform="translate(-219.738 -91.19)"/><g id="Group_1532" data-name="Group 1532" transform="translate(8.266 5.372)"><path id="Path_5373" data-name="Path 5373" class="cls-23" d="M185.435 241v14.645h4.865V241z" transform="translate(-185.435 -233.347)"/><path id="Path_5374" data-name="Path 5374" class="cls-23" d="M199.656 99.4l-.438 1.2-1.783 4.9 1.783.649 2.027.73.762.276 2.221-6.1z" transform="translate(-196.786 -99.398)"/></g><g id="Group_1533" data-name="Group 1533" transform="translate(10.697 5.372)"><path id="Rectangle_7538" data-name="Rectangle 7538" class="cls-20" transform="translate(0 7.652)" d="M0 0h2.432v14.645H0z"/><path id="Path_5375" data-name="Path 5375" class="cls-20" d="M235.444 101.052l-2.221 6.1-.762-.276-2.026-.73V100.6l.438-1.2z" transform="translate(-230.435 -99.398)"/></g></g></g><g id="_1-4" data-name="1" transform="translate(-10712 -11435)"><path id="Path_6598-4" data-name="Path 6598" class="cls-1" d="M30.5 0A30.5 30.5 0 1 1 0 30.5 30.5 30.5 0 0 1 30.5 0z"/><g id="croupier" transform="translate(19.596 16.716)"><g id="Group_1405" data-name="Group 1405" transform="translate(3.072)"><path id="Path_4617" data-name="Path 4617" class="cls-24" d="M100.747 1.21C99.826.254 94.608-.741 91.735.8c-3.533 1.895-5.07 9.73 1.229 15.567.009.008 1.639-.41 1.639-.41z" transform="translate(-88.661 -.001)"/></g><g id="Group_1406" data-name="Group 1406" transform="translate(6.964 13.499)"><path id="Path_4618" data-name="Path 4618" class="cls-25" d="M157.765 217.789h-.022v-.957h-5.735v.956a2.938 2.938 0 0 1-.819 2.57v9.174h7.374v-9.188a2.964 2.964 0 0 1-.798-2.555z" transform="translate(-151.188 -216.832)"/></g><g id="Group_1407" data-name="Group 1407" transform="translate(0 16.534)"><path id="Path_4619" data-name="Path 4619" class="cls-26" d="M56.12 266.644h-.137c-1.605 0-2.388-.438-2.771-1.062L52.4 269.1h-4.853l-.809-3.52c-.384.623-1.166 1.062-2.771 1.062h-.137a4.506 4.506 0 0 0-4.506 4.506v2.868a1.229 1.229 0 0 0 1.229 1.229H59.4a1.229 1.229 0 0 0 1.229-1.229v-2.868a4.506 4.506 0 0 0-4.509-4.504z" transform="translate(-39.324 -265.583)"/></g><g id="Group_1408" data-name="Group 1408" transform="translate(10.242 22.512)"><ellipse id="Ellipse_629" data-name="Ellipse 629" class="cls-27" cx=".41" cy=".41" rx=".41" ry=".41"/></g><g id="Group_1409" data-name="Group 1409" transform="translate(10.242 24.56)"><ellipse id="Ellipse_630" data-name="Ellipse 630" class="cls-27" cx=".41" cy=".41" rx=".41" ry=".41"/></g><g id="Group_1410" data-name="Group 1410" transform="translate(11.471 .799)"><path id="Path_4620" data-name="Path 4620" class="cls-24" d="M226.44 12.842l-2.868 15.567 2.048-2.868c4.336-3.174 6.196-12.699.82-12.699z" transform="translate(-223.572 -12.842)"/></g><g id="Group_1411" data-name="Group 1411" transform="translate(7.784 13.499)"><path id="Path_4621" data-name="Path 4621" class="cls-28" d="M170.494 222.157a2.258 2.258 0 0 0 .41.073v-1.887a2.964 2.964 0 0 1-.8-2.555h-.022v-.957h-4.506l-1.229.41c.821.921 3.33 4.148 6.147 4.916z" transform="translate(-164.349 -216.831)"/></g><g id="Group_1412" data-name="Group 1412" transform="translate(4.916 3.667)"><path id="Path_4622" data-name="Path 4622" class="cls-29" d="M129.759 63.41c0 3.281-3.263 7.374-5.735 7.374s-5.735-4.093-5.735-7.374 2.568-4.506 5.735-4.506 5.735 1.226 5.735 4.506z" transform="translate(-118.288 -58.904)"/></g><g id="Group_1413" data-name="Group 1413" transform="translate(4.031 1.619)"><path id="Path_4623" data-name="Path 4623" class="cls-24" d="M111.511 26a8.406 8.406 0 0 0-1.588.485l-.05-.076-.23.181c-.34.129-.589.229-.589.229l.1.16c-1.555 1.225-4.693 2.8-5.012 3.118-.41.41 1.229 5.07 1.229 4.916 0-4.25 3.989-4.722 6.555-5.326 1.161-.273 2.731-.956 2.868-1.639S111.92 26 111.511 26z" transform="translate(-104.071 -26.003)"/></g><g id="Group_1414" data-name="Group 1414" transform="translate(11.88 .8)"><path id="Path_4624" data-name="Path 4624" class="cls-24" d="M232.2 16.12c0 2.117 1.024 3.917 2.432 4.276.772.2.435-2.228.435-2.228s-1.092-2.8-1.229-2.868a27.475 27.475 0 0 1-1.229-2.458l-2.458 2.048z" transform="translate(-230.153 -12.843)"/></g><g id="Group_1415" data-name="Group 1415" transform="translate(14.748 8.173)"><path id="Path_4625" data-name="Path 4625" class="cls-29" d="M277.243 131.325c.67-.154 1.109.175 1.109.819 0 .853-.9 2.944-1.849 1.639s.74-2.458.74-2.458z" transform="translate(-276.214 -131.288)"/></g><g id="Group_1416" data-name="Group 1416" transform="translate(5.735 16.367)"><path id="Path_4626" data-name="Path 4626" class="cls-27" d="M136.363 265.974l-2.048 2.048-2.868-4.053.954-.954a.41.41 0 0 1 .564-.015z" transform="translate(-131.447 -262.896)"/></g><g id="Group_1417" data-name="Group 1417" transform="translate(10.651 16.367)"><path id="Path_4627" data-name="Path 4627" class="cls-27" d="M210.411 265.974l2.048 2.048 2.868-4.053-.954-.954a.41.41 0 0 0-.564-.015z" transform="translate(-210.411 -262.896)"/></g><g id="Group_1418" data-name="Group 1418" transform="translate(9.832 19.446)"><path id="Path_4628" data-name="Path 4628" class="cls-30" d="M198.89 313.578a.411.411 0 0 1-.41.41h-.819a.411.411 0 0 1-.41-.41v-.819a.411.411 0 0 1 .41-.41h.819a.411.411 0 0 1 .41.41z" transform="translate(-197.251 -312.349)"/></g><g id="Group_1419" data-name="Group 1419" transform="translate(7.374 18.837)"><path id="Path_4629" data-name="Path 4629" class="cls-30" d="M160.637 303.6l-2.3-.984a.41.41 0 0 0-.571.377v2.035a.41.41 0 0 0 .571.377l2.3-.984z" transform="translate(-157.769 -302.58)"/></g><g id="Group_1420" data-name="Group 1420" transform="translate(11.061 18.837)"><path id="Path_4630" data-name="Path 4630" class="cls-30" d="M216.991 303.6l2.3-.984a.41.41 0 0 1 .571.377v2.035a.41.41 0 0 1-.571.377l-2.3-.984z" transform="translate(-216.991 -302.58)"/></g><g id="Group_1421" data-name="Group 1421" transform="translate(2.868 17.506)"><path id="Path_4631" data-name="Path 4631" class="cls-30" d="M87.161 281.277h-.137a4.487 4.487 0 0 0-1.639.312v8.291h5.326l-2.44-8.693a6.273 6.273 0 0 1-1.11.09z" transform="translate(-85.386 -281.187)"/></g><g id="Group_1422" data-name="Group 1422" transform="translate(13.109 17.506)"><path id="Path_4632" data-name="Path 4632" class="cls-30" d="M253.443 281.277h.136a4.487 4.487 0 0 1 1.639.312v8.291h-5.326l2.44-8.693a6.272 6.272 0 0 0 1.111.09z" transform="translate(-249.893 -281.187)"/></g></g></g></g></svg>