<svg xmlns="http://www.w3.org/2000/svg" viewBox="0 0 136.264 104.856">
    <defs>
        <style>
            .cls-1,.cls-11,.cls-2{fill:#707070}.cls-2{stroke:#707070}.cls-3{fill:#f2f2f2}.cls-4{fill:#8a8a8a}.cls-5{fill:#fff}.cls-6{fill:#565656}.cls-7{fill:#e18577}.cls-8{fill:#e8e7e7}.cls-9{fill:#d1d1d1}.cls-10{fill:#cccbca}.cls-11{opacity:.7}
        </style>
    </defs>
    <g id="icon_3" data-name="icon 3" transform="translate(-122.001 -2038.016)">
        <g id="Group_3297" data-name="Group 3297" transform="translate(135.661 2038.016)">
            <g id="_002-alarm-clock" data-name="002-alarm-clock">
                <g id="Group_3263" data-name="Group 3263" transform="translate(26.776 76.515)">
                    <path id="Path_11828" data-name="Path 11828" class="cls-1" d="M173.109 338.7l-1.507-1.947 7.978-7.742 3.011 3.881z" transform="translate(-171.602 -329.014)"/>
                    <path id="Path_11829" data-name="Path 11829" class="cls-1" d="M301.522 354.149l1.948-1.515-5.807-9.479-3.885 3.011z" transform="translate(-243.8 -337.37)"/>
                </g>
                <path id="Path_11830" data-name="Path 11830" class="cls-2" d="M309.745 175.976l-21.519-16.33.817-1.077a12.157 12.157 0 0 1 17.032-2.336l2.153 1.629a12.157 12.157 0 0 1 2.337 17.035z" transform="translate(-213.743 -148.938)"/>
                <path id="Path_11831" data-name="Path 11831" class="cls-3" d="M296.324 162.742a1.118 1.118 0 0 1-.671-.337 1.13 1.13 0 0 1 .03-1.594A10.35 10.35 0 0 1 301.5 158a10.52 10.52 0 0 1 7.749 2.029 1.127 1.127 0 1 1-1.363 1.8 8.242 8.242 0 0 0-6.082-1.593 8.11 8.11 0 0 0-4.56 2.2 1.111 1.111 0 0 1-.92.306z" transform="translate(-217.947 -151.388)"/>
                <path id="Rectangle_8068" data-name="Rectangle 8068" class="cls-4" transform="rotate(127.16 38.234 31.23)" d="M0 0h2.454v2.457H0z"/>
                <path id="Path_11832" data-name="Path 11832" class="cls-1" d="M211.008 150.665l-24.9 10.478-.527-1.247a12.163 12.163 0 0 1 6.491-15.922l2.49-1.045a12.153 12.153 0 0 1 15.919 6.492z" transform="translate(-152.524 -141.973)"/>
                <path id="Path_11833" data-name="Path 11833" class="cls-3" d="M190.02 163.542a1.128 1.128 0 0 1-.956-.846 10.483 10.483 0 0 1 6.107-12.148 1.127 1.127 0 0 1 .875 2.078 8.232 8.232 0 0 0-4.8 9.529 1.131 1.131 0 0 1-1.23 1.387z" transform="translate(-154.965 -146.987)"/>
                <g id="Group_3264" data-name="Group 3264" transform="translate(44.898 7.849)">
                    <path id="Rectangle_8069" data-name="Rectangle 8069" class="cls-4" transform="rotate(157.171 .815 4.26)" d="M0 0h2.457v2.457H0z"/>
                    <path id="Rectangle_8070" data-name="Rectangle 8070" class="cls-4" transform="rotate(97.158 11.188 10.034)" d="M0 0h4.911v1.472H0z"/>
                </g>
                <g id="Group_3265" data-name="Group 3265" transform="translate(22.985 3.941)">
                    <path id="Path_11834" data-name="Path 11834" class="cls-2" d="M259.3 153.354a1.721 1.721 0 0 0 1.487 1.919l5.119.645a1.722 1.722 0 0 0 1.919-1.489l.03-.242a1.725 1.725 0 0 0-1.491-1.923l-5.117-.645a1.72 1.72 0 0 0-1.917 1.492z" transform="translate(-219.628 -151.606)"/>
                    <path id="Path_11835" data-name="Path 11835" class="cls-2" d="M238.659 215.607a38.311 38.311 0 1 1-33.219-42.8 38.316 38.316 0 0 1 33.219 42.8z" transform="translate(-162.333 -163.953)"/>
                </g>
                <path id="Path_11836" data-name="Path 11836" class="cls-5" d="M240.986 222.4a33.174 33.174 0 1 1-28.766-37.058 33.174 33.174 0 0 1 28.766 37.058z" transform="translate(-146.772 -168.442)"/>
                <g id="Group_3266" data-name="Group 3266" transform="translate(31.534 21.049)">
                    <path id="Rectangle_8071" data-name="Rectangle 8071" class="cls-1" transform="rotate(97.175 17.113 15.3)" d="M0 0h6.369v1.859H0z"/>
                    <path id="Rectangle_8072" data-name="Rectangle 8072" class="cls-1" transform="rotate(97.141 -8.148 15.838)" d="M0 0h1.851v6.374H0z"/>
                    <path id="Rectangle_8073" data-name="Rectangle 8073" class="cls-1" transform="rotate(97.204 -9.568 38.828)" d="M0 0h6.368v1.86H0z"/>
                    <path id="Rectangle_8074" data-name="Rectangle 8074" class="cls-1" transform="rotate(97.261 15.414 42.503)" d="M0 0h1.853v6.37H0z"/>
                    <path id="Path_11837" data-name="Path 11837" class="cls-6" d="M255.916 219.9l-2.5 18.783a1.062 1.062 0 1 0 2.106.284l2.5-18.783z" transform="translate(-224.701 -209.072)"/>
                    <path id="Path_11838" data-name="Path 11838" class="cls-6" d="M240.87 263.817l-9.328 7.734 1.357 1.634 9.325-7.737a1.06 1.06 0 1 0-1.354-1.631z" transform="translate(-211.781 -234.877)"/>
                </g>
                <path id="Rectangle_8075" data-name="Rectangle 8075" class="cls-7" transform="rotate(111.302 21.725 58.248)" d="M0 0h.837v28.186H0z"/>
                <ellipse id="Ellipse_1004" data-name="Ellipse 1004" class="cls-7" cx="2.229" cy="2.229" rx="2.229" ry="2.229" transform="translate(59.072 48.575)"/>
                <path id="Path_11839" data-name="Path 11839" class="cls-8" d="M212.218 185.334a33.172 33.172 0 1 0 28.766 37.058 33.172 33.172 0 0 0-28.766-37.058zm-8.1 64.245a31.583 31.583 0 1 1 35.288-27.385 31.614 31.614 0 0 1-35.287 27.384z" transform="translate(-146.77 -167.439)"/>
                <g id="Group_3267" data-name="Group 3267" transform="translate(31.44 20.943)">
                    <path id="Rectangle_8076" data-name="Rectangle 8076" class="cls-6" transform="rotate(107.145 18.97 15.095)" d="M0 0h2.522v.632H0z"/>
                    <path id="Rectangle_8077" data-name="Rectangle 8077" class="cls-6" transform="rotate(117.111 20.845 15.095)" d="M0 0h2.511v.627H0z"/>
                    <path id="Path_11840" data-name="Path 11840" class="cls-6" d="M296.325 209.894l-.5-.383 1.516-2 .5.38z" transform="translate(-249.675 -201.642)"/>
                    <path id="Path_11841" data-name="Path 11841" class="cls-6" d="M304.978 218.134l-.425-.462 1.841-1.705.426.454z" transform="translate(-254.831 -206.64)"/>
                    <path id="Path_11842" data-name="Path 11842" class="cls-6" d="M312.141 227.828l-.336-.528 2.109-1.363.344.529z" transform="translate(-259.117 -212.532)"/>
                    <path id="Rectangle_8078" data-name="Rectangle 8078" class="cls-6" transform="rotate(157.058 26.878 15.119)" d="M0 0h2.517v.63H0z"/>
                    <path id="Rectangle_8079" data-name="Rectangle 8079" class="cls-6" transform="rotate(167.162 28.206 15.091)" d="M0 0h2.51v.634H0z"/>
                    <path id="Path_11843" data-name="Path 11843" class="cls-6" d="M322.809 262.555l-.029-.622 2.509-.129.03.629z" transform="translate(-265.602 -233.726)"/>
                    <path id="Path_11844" data-name="Path 11844" class="cls-6" d="M319.68 285.792l.187-.61 2.4.747-.184.6z" transform="translate(-263.77 -247.541)"/>
                    <path id="Path_11845" data-name="Path 11845" class="cls-6" d="M315.162 296.6l.285-.553 2.234 1.142-.291.56z" transform="translate(-261.1 -253.962)"/>
                    <path id="Path_11846" data-name="Path 11846" class="cls-6" d="M308.831 306.473l.382-.5 2 1.522-.381.506z" transform="translate(-257.359 -259.827)"/>
                    <path id="Path_11847" data-name="Path 11847" class="cls-6" d="M300.9 315.136l.459-.422 1.71 1.84-.464.428z" transform="translate(-252.675 -264.992)"/>
                    <path id="Rectangle_8080" data-name="Rectangle 8080" class="cls-6" transform="rotate(147.085 15.063 34.24)" d="M0 0h.628v2.513H0z"/>
                    <path id="Path_11848" data-name="Path 11848" class="cls-6" d="M281.244 327.77l.576-.243.975 2.314-.581.25z" transform="translate(-241.057 -272.563)"/>
                    <path id="Path_11849" data-name="Path 11849" class="cls-6" d="M270.1 331.357l.61-.141.557 2.45-.615.142z" transform="translate(-234.47 -274.743)"/>
                    <path id="Path_11850" data-name="Path 11850" class="cls-6" d="M258.527 332.966l.626-.02.119 2.511-.625.025z" transform="translate(-227.633 -275.765)"/>
                    <path id="Rectangle_8081" data-name="Rectangle 8081" class="cls-6" transform="rotate(107.283 -9.607 36.174)" d="M0 0h2.513v.626H0z"/>
                    <path id="Path_11851" data-name="Path 11851" class="cls-6" d="M223.1 325.317l.557.288-1.149 2.237-.56-.295z" transform="translate(-206.016 -271.257)"/>
                    <path id="Path_11852" data-name="Path 11852" class="cls-6" d="M212.766 318.992l.5.384-1.517 2.006-.5-.387z" transform="translate(-199.693 -267.52)"/>
                    <path id="Rectangle_8082" data-name="Rectangle 8082" class="cls-6" transform="rotate(137.5 -4.462 26.292)" d="M0 0h2.511v.63H0z"/>
                    <path id="Rectangle_8083" data-name="Rectangle 8083" class="cls-6" transform="rotate(147.488 -3.037 23.507)" d="M0 0h2.509v.627H0z"/>
                    <path id="Path_11853" data-name="Path 11853" class="cls-6" d="M190.7 291.39l.244.582-2.319.978-.241-.583z" transform="translate(-186.183 -251.209)"/>
                    <path id="Rectangle_8084" data-name="Rectangle 8084" class="cls-6" transform="rotate(167.444 -.368 18.303)" d="M0 0h2.51v.625H0z"/>
                    <path id="Rectangle_8085" data-name="Rectangle 8085" class="cls-6" transform="rotate(176.893 .844 15.796)" d="M0 0h2.512v.632H0z"/>
                    <path id="Path_11854" data-name="Path 11854" class="cls-6" d="M188.583 244.595l-.189.6-2.4-.742.193-.6z" transform="translate(-184.77 -223.116)"/>
                    <path id="Path_11855" data-name="Path 11855" class="cls-6" d="M193.2 233.265l-.284.56-2.238-1.148.293-.559z" transform="translate(-187.537 -216.184)"/>
                    <path id="Rectangle_8086" data-name="Rectangle 8086" class="cls-6" transform="rotate(127.23 .884 8.579)" d="M0 0h.63v2.512H0z"/>
                    <path id="Path_11856" data-name="Path 11856" class="cls-6" d="M207.963 213.912l-.46.42-1.71-1.837.467-.427z" transform="translate(-196.47 -204.336)"/>
                    <path id="Path_11857" data-name="Path 11857" class="cls-6" d="M217.667 206.482l-.53.342-1.361-2.117.528-.333z" transform="translate(-202.37 -199.79)"/>
                    <path id="Path_11858" data-name="Path 11858" class="cls-6" d="M228.525 200.856l-.577.243-.976-2.311.583-.246z" transform="translate(-208.986 -196.343)"/>
                    <path id="Path_11859" data-name="Path 11859" class="cls-6" d="M240.212 197.221l-.61.137-.562-2.443.619-.14z" transform="translate(-216.117 -194.118)"/>
                    <path id="Path_11860" data-name="Path 11860" class="cls-6" d="M252.394 195.684l-.624.021-.125-2.5.632-.034z" transform="translate(-223.566 -193.168)"/>
                </g>
                <g id="Group_3268" data-name="Group 3268" transform="translate(0 12.889)">
                    <path id="Rectangle_8087" data-name="Rectangle 8087" class="cls-9" transform="rotate(97.18 41.532 76.492)" d="M0 0h1.58v8.43H0z"/>
                    <path id="Rectangle_8088" data-name="Rectangle 8088" class="cls-9" transform="rotate(112.192 39.07 70.142)" d="M0 0h1.578v8.43H0z"/>
                    <path id="Rectangle_8089" data-name="Rectangle 8089" class="cls-9" transform="scale(-1) rotate(-7.81 -283.065 881.513)" d="M0 0h8.43v1.582H0z"/>
                    <path id="Path_11861" data-name="Path 11861" class="cls-9" d="M383.636 207.368l-7.769 3.269-.617-1.455 7.776-3.27z" transform="translate(-265.169 -192.644)"/>
                    <path id="Rectangle_8090" data-name="Rectangle 8090" class="cls-9" transform="rotate(97.187 -9.16 19.017)" d="M0 0h1.58v8.43H0z"/>
                    <path id="Rectangle_8092" data-name="Rectangle 8092" class="cls-9" transform="rotate(112.192 .404 12.67)" d="M0 0h1.581v8.43H0z"/>
                    <path id="Rectangle_8093" data-name="Rectangle 8093" class="cls-9" transform="rotate(127.16 8.405 7.353)" d="M0 0h1.581v8.43H0z"/>
                </g>
            </g>
        </g>
        <g id="icon_analytics" data-name="icon analytics" transform="translate(113.748 2083.346)">
            <g id="Group_1120" data-name="Group 1120" transform="translate(8.253 11.923)">
                <g id="Group_1119" data-name="Group 1119" transform="translate(16.46 13.119)">
                    <path id="Path_3542" data-name="Path 3542" class="cls-6" d="M147.454 260.44H143.9a5.549 5.549 0 1 1 0-11.1h7.7v2.793h-7.7a2.747 2.747 0 0 0-2.762 2.746 2.731 2.731 0 0 0 .805 1.95 2.764 2.764 0 0 0 1.956.814h3.557z" transform="translate(-138.337 -248.362)"/>
                    <path id="Path_3543" data-name="Path 3543" class="cls-6" d="M149.345 279.962h-7.715v-2.795h7.715a2.767 2.767 0 0 0 1.957-.824 2.683 2.683 0 0 0 .793-1.933 2.75 2.75 0 0 0-.79-1.95 2.8 2.8 0 0 0-1.96-.813h-3.557v-2.795h3.557a5.554 5.554 0 0 1 0 11.108z" transform="translate(-140.229 -259.569)"/>
                    <path id="Rectangle_6719" data-name="Rectangle 6719" class="cls-6" transform="translate(5.94)" d="M0 0h2.794v21.368H0z"/>
                </g>
                <path id="Path_3544" data-name="Path 3544" class="cls-3" d="M188.409 272.15a16.739 16.739 0 0 1-4.923 11.875l4.948 4.952a23.733 23.733 0 0 0 6.971-16.827z" transform="translate(-147.81 -248.343)"/>
                <path id="Path_3545" data-name="Path 3545" class="cls-10" d="M155.566 223.21a16.81 16.81 0 0 1 16.805 16.814h7a23.806 23.806 0 0 0-23.8-23.805v6.989z" transform="translate(-131.772 -216.22)"/>
                <path id="Path_3546" data-name="Path 3546" class="cls-11" d="M143.282 223.207v-6.99a23.382 23.382 0 0 0-9.1 1.82l2.672 6.45a16.819 16.819 0 0 1 6.428-1.28z" transform="translate(-119.493 -216.217)"/>
                <path id="Path_3547" data-name="Path 3547" class="cls-7" d="M135.333 254.37a16.807 16.807 0 1 1-18.3-27.425l-2.672-6.45a23.8 23.8 0 1 0 25.93 38.82z" transform="translate(-99.665 -218.674)"/>
            </g>
        </g>
    </g>
</svg>
