<svg xmlns="http://www.w3.org/2000/svg" viewBox="0 0 108.219 104.025">
    <defs>
        <style>
            .cls-1{fill:#707070}.cls-2{fill:#f2f2f2}.cls-3{fill:#353f49}.cls-4{fill:#fff}.cls-5{fill:#e18577}.cls-6{fill:#cfcfcf}
        </style>
    </defs>
    <g id="_101-smartphone-1" data-name="101-smartphone-1" transform="translate(-41.285 -49.555)">
        <path id="Path_1529" data-name="Path 1529" class="cls-1" d="M150.91 153.58a7.268 7.268 0 0 1-7.252-7.247V56.809a7.28 7.28 0 0 1 7.252-7.254h42.105a7.278 7.278 0 0 1 7.249 7.254v89.524a7.266 7.266 0 0 1-7.249 7.247z" transform="translate(-76.517)"/>
        <g id="Group_661" data-name="Group 661" transform="translate(89.165 55.2)">
            <path id="Path_1530" data-name="Path 1530" class="cls-2" d="M243.63 425.4a1.724 1.724 0 0 1-1.729 1.732h-9.091a1.739 1.739 0 0 1-1.733-1.732v-.725a1.749 1.749 0 0 1 1.733-1.739h9.09a1.734 1.734 0 0 1 1.729 1.739z" transform="translate(-231.078 -334.512)"/>
            <path id="Path_1531" data-name="Path 1531" class="cls-2" d="M251.664 74.17a2.215 2.215 0 1 1-2.209-2.209 2.206 2.206 0 0 1 2.209 2.209z" transform="translate(-243.163 -71.961)"/>
        </g>
        <path id="Path_1532" data-name="Path 1532" class="cls-3" d="M254.069 77.808a.969.969 0 0 1-.969.989.987.987 0 1 1 0-1.973.974.974 0 0 1 .969.984z" transform="translate(-157.643 -20.398)"/>
        <path id="Rectangle_4916" data-name="Rectangle 4916" class="cls-4" transform="translate(71.252 65.282)" d="M0 0h48.393v72.584H0z"/>
        <g id="Group_662" data-name="Group 662" transform="translate(41.285 96.484)">
            <path id="Rectangle_4918" data-name="Rectangle 4918" class="cls-5" transform="rotate(90 2.541 12.89)" d="M0 0h32.108v10.158H0z"/>
            <path id="Path_1534" data-name="Path 1534" class="cls-5" d="M10.349 20.7V0L0 10.351z" transform="rotate(90 10.35 10.35)"/>
        </g>
        <path id="Rectangle_4919" data-name="Rectangle 4919" class="cls-2" transform="translate(81.197 94.251)" d="M0 0h52.512v30.434H0z"/>
        <path id="Rectangle_4920" data-name="Rectangle 4920" class="cls-6" transform="translate(82.778 92.672)" d="M0 0h52.512v30.431H0z"/>
        <path id="Rectangle_4921" data-name="Rectangle 4921" class="cls-2" transform="translate(84.359 91.093)" d="M0 0h52.512v30.433H0z"/>
        <path id="Rectangle_4922" data-name="Rectangle 4922" class="cls-6" transform="translate(85.94 89.516)" d="M0 0h52.512v30.433H0z"/>
        <path id="Rectangle_4923" data-name="Rectangle 4923" class="cls-2" transform="translate(87.518 87.934)" d="M0 0h52.512v30.435H0z"/>
        <path id="Rectangle_4924" data-name="Rectangle 4924" class="cls-6" transform="translate(89.097 86.353)" d="M0 0h52.512v30.43H0z"/>
        <path id="Rectangle_4925" data-name="Rectangle 4925" class="cls-2" transform="translate(90.675 84.78)" d="M0 0h52.512v30.434H0z"/>
        <path id="Rectangle_4926" data-name="Rectangle 4926" class="cls-6" transform="translate(92.257 83.199)" d="M0 0h52.512v30.429H0z"/>
        <path id="Rectangle_4927" data-name="Rectangle 4927" class="cls-2" transform="translate(93.838 81.618)" d="M0 0h52.512v30.433H0z"/>
        <path id="Rectangle_4928" data-name="Rectangle 4928" class="cls-6" transform="translate(95.411 80.04)" d="M0 0h52.512v30.429H0z"/>
        <path id="Rectangle_4929" data-name="Rectangle 4929" class="cls-2" transform="translate(96.992 78.46)" d="M0 0h52.512v30.434H0z"/>
        <path id="Rectangle_4930" data-name="Rectangle 4930" class="cls-6" transform="translate(98.573 80.04)" d="M0 0h49.349v27.283H0z"/>
        <path id="Rectangle_4931" data-name="Rectangle 4931" class="cls-2" transform="translate(100.212 81.68)" d="M0 0h46.071v24.006H0z"/>
        <path id="Path_1535" data-name="Path 1535" class="cls-5" d="M329.764 197.306a9.22 9.22 0 1 1 9.223 9.225 9.221 9.221 0 0 1-9.223-9.225z" transform="translate(-215.736 -103.627)"/>
        <g id="Group_663" data-name="Group 663" transform="translate(119.731 88.554)">
            <path id="Path_1536" data-name="Path 1536" class="cls-4" d="M356.776 211.532h-1.713a2.664 2.664 0 1 1 0-5.328h3.7v1.346h-3.7a1.294 1.294 0 0 0-.93.377 1.315 1.315 0 0 0-.39.939 1.293 1.293 0 0 0 .384.93 1.321 1.321 0 0 0 .935.4h1.713v1.342z" transform="translate(-352.402 -205.738)"/>
            <path id="Path_1537" data-name="Path 1537" class="cls-4" d="M358.772 227.36h-3.7v-1.343h3.7a1.322 1.322 0 0 0 0-2.643h-1.713v-1.341h1.713a2.646 2.646 0 0 1 1.883.782 2.667 2.667 0 0 1 0 3.768 2.649 2.649 0 0 1-1.883.777z" transform="translate(-354.398 -217.579)"/>
            <path id="Rectangle_4932" data-name="Rectangle 4932" class="cls-4" transform="translate(2.851)" d="M0 0h1.339v10.247H0z"/>
        </g>
        <g id="Group_664" data-name="Group 664" transform="translate(98.572 80.04)">
            <path id="Path_1538" data-name="Path 1538" class="cls-6" d="M442.091 178.039v-7.481h-7.483a9.19 9.19 0 0 0 7.483 7.481z" transform="translate(-392.738 -170.558)"/>
            <path id="Path_1539" data-name="Path 1539" class="cls-6" d="M268.417 249.123v7.49h7.483a9.193 9.193 0 0 0-7.483-7.49z" transform="translate(-268.417 -229.33)"/>
            <path id="Path_1540" data-name="Path 1540" class="cls-6" d="M268.417 178.039a9.194 9.194 0 0 0 7.482-7.481h-7.482z" transform="translate(-268.417 -170.558)"/>
            <path id="Path_1541" data-name="Path 1541" class="cls-6" d="M434.6 256.613h7.483v-7.49a9.2 9.2 0 0 0-7.483 7.49z" transform="translate(-392.736 -229.33)"/>
        </g>
    </g>
</svg>
