<svg xmlns="http://www.w3.org/2000/svg" viewBox="0 0 167.972 126.574">
    <defs>
        <style>
            .cls-1{fill:#666}.cls-2{fill:#f2f2f2}.cls-3{fill:#5d6d7e}.cls-4{fill:#e18577}.cls-5{fill:#fff}.cls-6{fill:#e5e9ee}.cls-7{fill:#283a4d}
        </style>
    </defs>
    <g id="_002-alarm-clock" data-name="002-alarm-clock" transform="translate(-102.349 -142.214)">
        <g id="Group_1793" data-name="Group 1793" transform="rotate(-7 2124.86 -1051.172)">
            <path id="Path_11867" data-name="Path 11867" class="cls-1" d="M2.052 13.191L0 10.54 10.861 0l4.1 5.283z"/>
            <path id="Path_11868" data-name="Path 11868" class="cls-1" d="M10.543 14.967L13.2 12.9 5.29 0 0 4.1z" transform="translate(68.042 7.875)"/>
        </g>
        <path id="Path_11869" data-name="Path 11869" class="cls-1" d="M29.3 30.244L0 8.013l1.112-1.466A16.552 16.552 0 0 1 24.3 3.367l2.931 2.218a16.549 16.549 0 0 1 3.181 23.191z" transform="rotate(-7 1294.503 -1533.33)"/>
        <path id="Path_11870" data-name="Path 11870" class="cls-2" d="M1.342 6.584a1.522 1.522 0 0 1-.914-.459 1.538 1.538 0 0 1 .041-2.17A14.091 14.091 0 0 1 8.393.131a14.322 14.322 0 0 1 10.55 2.763 1.534 1.534 0 1 1-1.855 2.445 11.223 11.223 0 0 0-8.28-2.169A11.042 11.042 0 0 0 2.6 6.164a1.512 1.512 0 0 1-1.258.42z" transform="rotate(-7 1311.39 -1566.867)"/>
        <path id="Rectangle_8076" data-name="Rectangle 8076" class="cls-3" transform="rotate(120.193 60.147 143.964)" d="M0 0h3.34v3.345H0z"/>
        <path id="Path_11871" data-name="Path 11871" class="cls-1" d="M35.914 11.834L2.018 26.1 1.3 24.4a16.557 16.557 0 0 1 8.838-21.675L13.529 1.3A16.545 16.545 0 0 1 35.2 10.139z" transform="rotate(-7 1269.68 -1058.396)"/>
        <path id="Path_11872" data-name="Path 11872" class="cls-2" d="M1.716 17.81a1.535 1.535 0 0 1-1.3-1.152A14.271 14.271 0 0 1 8.729.12a1.535 1.535 0 0 1 1.192 2.829 11.207 11.207 0 0 0-6.53 12.973 1.52 1.52 0 0 1-1.116 1.851 1.518 1.518 0 0 1-.559.037z" transform="rotate(-7 1307.17 -1079.57)"/>
        <g id="Group_1794" data-name="Group 1794" transform="rotate(-7 1348.331 -1206.117)">
            <path id="Rectangle_8077" data-name="Rectangle 8077" class="cls-3" transform="rotate(157.171 1.109 5.799)" d="M0 0h3.345v3.345H0z"/>
            <path id="Rectangle_8078" data-name="Rectangle 8078" class="cls-3" transform="rotate(97.158 15.232 13.66)" d="M0 0h6.685v2.004H0z"/>
        </g>
        <g id="Group_1795" data-name="Group 1795" transform="rotate(-7 1319.746 -959.575)">
            <path id="Path_11873" data-name="Path 11873" class="cls-4" d="M.018 2.38a2.342 2.342 0 0 0 2.025 2.613l6.969.878a2.344 2.344 0 0 0 2.612-2.027l.041-.329A2.348 2.348 0 0 0 9.635.9L2.669.019A2.341 2.341 0 0 0 .059 2.05z" transform="translate(53.997)"/>
            <path id="Path_11874" data-name="Path 11874" class="cls-1" d="M103.913 58.684A52.158 52.158 0 1 1 58.688.415a52.165 52.165 0 0 1 45.225 58.269z" transform="translate(0 11.636)"/>
        </g>
        <path id="Path_11875" data-name="Path 11875" class="cls-5" d="M89.979 50.809A45.165 45.165 0 1 1 50.816.36a45.165 45.165 0 0 1 39.163 50.449z" transform="rotate(-7 1468.616 -1026.084)"/>
        <g id="Group_1796" data-name="Group 1796" transform="rotate(-7 1504.329 -1066.371)">
            <path id="Rectangle_8079" data-name="Rectangle 8079" class="cls-1" transform="rotate(97.175 23.299 20.83)" d="M0 0h8.67v2.531H0z"/>
            <path id="Rectangle_8080" data-name="Rectangle 8080" class="cls-1" transform="rotate(97.141 -11.092 21.562)" d="M0 0h2.521v8.678H0z"/>
            <path id="Rectangle_8081" data-name="Rectangle 8081" class="cls-1" transform="rotate(97.204 -13.024 52.86)" d="M0 0h8.67v2.532H0z"/>
            <path id="Rectangle_8082" data-name="Rectangle 8082" class="cls-1" transform="rotate(97.261 20.986 57.864)" d="M0 0h2.522v8.673H0z"/>
            <path id="Path_11876" data-name="Path 11876" class="cls-1" d="M3.418 0L.012 25.57a1.446 1.446 0 1 0 2.867.387L6.282.385z" transform="translate(39.08 14.744)"/>
            <path id="Path_11877" data-name="Path 11877" class="cls-1" d="M12.7.335L0 10.864l1.848 2.224 12.7-10.533A1.443 1.443 0 1 0 12.7.335z" transform="translate(26.904 39.064)"/>
        </g>
        <path id="Rectangle_8083" data-name="Rectangle 8083" class="cls-4" transform="rotate(104.302 24.341 193.894)" d="M0 0h1.141v38.373H0z"/>
        <circle id="Ellipse_1014" data-name="Ellipse 1014" class="cls-4" cx="3.034" cy="3.034" r="3.034" transform="rotate(-7 1791.933 -1391.59)"/>
        <path id="Path_11878" data-name="Path 11878" class="cls-6" d="M50.816.36a45.159 45.159 0 1 0 39.163 50.45A45.162 45.162 0 0 0 50.816.36zM39.791 87.821A43 43 0 1 1 87.833 50.54a43.04 43.04 0 0 1-48.042 37.281z" transform="rotate(-7 1468.599 -1026.068)"/>
        <g id="Group_1797" data-name="Group 1797" transform="rotate(-7 1503.218 -1065.25)">
            <path id="Rectangle_8084" data-name="Rectangle 8084" class="cls-7" transform="rotate(107.145 25.828 20.55)" d="M0 0h3.433v.86H0z"/>
            <path id="Rectangle_8085" data-name="Rectangle 8085" class="cls-7" transform="rotate(117.111 28.38 20.55)" d="M0 0h3.419v.854H0z"/>
            <path id="Path_11879" data-name="Path 11879" class="cls-7" d="M.676 3.246L0 2.724 2.063 0l.676.517z" transform="translate(62.834 7.987)"/>
            <path id="Path_11880" data-name="Path 11880" class="cls-7" d="M.579 2.95L0 2.321 2.506 0l.58.619z" transform="translate(67.694 12.697)"/>
            <path id="Path_11881" data-name="Path 11881" class="cls-7" d="M.458 2.574L0 1.855 2.871 0l.468.72z" transform="translate(71.732 18.25)"/>
            <path id="Rectangle_8086" data-name="Rectangle 8086" class="cls-7" transform="rotate(157.058 36.593 20.583)" d="M0 0h3.426v.857H0z"/>
            <path id="Rectangle_8087" data-name="Rectangle 8087" class="cls-7" transform="rotate(167.162 38.401 20.545)" d="M0 0h3.417v.864H0z"/>
            <path id="Path_11882" data-name="Path 11882" class="cls-7" d="M.04 1.022L0 .175 3.416 0l.04.857z" transform="translate(77.844 38.225)"/>
            <path id="Path_11883" data-name="Path 11883" class="cls-7" d="M0 .83L.255 0 3.52 1.016l-.251.821z" transform="translate(76.118 51.244)"/>
            <path id="Path_11884" data-name="Path 11884" class="cls-7" d="M0 .753L.389 0 3.43 1.555l-.4.762z" transform="translate(73.602 57.296)"/>
            <path id="Path_11885" data-name="Path 11885" class="cls-7" d="M0 .68L.52 0l2.725 2.072-.519.688z" transform="translate(70.076 62.824)"/>
            <path id="Path_11886" data-name="Path 11886" class="cls-7" d="M0 .575L.624 0l2.329 2.505-.632.583z" transform="translate(65.662 67.691)"/>
            <path id="Rectangle_8088" data-name="Rectangle 8088" class="cls-7" transform="rotate(147.085 20.508 46.613)" d="M0 0h.855v3.421H0z"/>
            <path id="Path_11887" data-name="Path 11887" class="cls-7" d="M0 .331L.784 0l1.328 3.15-.791.341z" transform="translate(54.712 74.827)"/>
            <path id="Path_11888" data-name="Path 11888" class="cls-7" d="M0 .192L.831 0l.759 3.336-.837.194z" transform="translate(48.505 76.881)"/>
            <path id="Path_11889" data-name="Path 11889" class="cls-7" d="M0 .027L.853 0l.162 3.419-.851.035z" transform="translate(42.061 77.845)"/>
            <path id="Rectangle_8089" data-name="Rectangle 8089" class="cls-7" transform="rotate(107.283 -13.078 49.246)" d="M0 0h3.421v.853H0z"/>
            <path id="Path_11890" data-name="Path 11890" class="cls-7" d="M1.568 0l.759.392L.762 3.438 0 3.037z" transform="translate(21.689 73.596)"/>
            <path id="Path_11891" data-name="Path 11891" class="cls-7" d="M2.07 0l.677.523L.682 3.254 0 2.727z" transform="translate(15.729 70.074)"/>
            <path id="Rectangle_8090" data-name="Rectangle 8090" class="cls-7" transform="rotate(137.5 -6.074 35.793)" d="M0 0h3.419v.857H0z"/>
            <path id="Rectangle_8091" data-name="Rectangle 8091" class="cls-7" transform="rotate(147.488 -4.134 32.002)" d="M0 0h3.416v.854H0z"/>
            <path id="Path_11892" data-name="Path 11892" class="cls-7" d="M3.152 0l.332.792L.328 2.124 0 1.33z" transform="translate(2.997 54.702)"/>
            <path id="Rectangle_8092" data-name="Rectangle 8092" class="cls-7" transform="rotate(167.444 -.501 24.918)" d="M0 0h3.417v.851H0z"/>
            <path id="Rectangle_8093" data-name="Rectangle 8093" class="cls-7" transform="rotate(176.893 1.15 21.504)" d="M0 0h3.42v.86H0z"/>
            <path id="Path_11893" data-name="Path 11893" class="cls-7" d="M3.525 1.016l-.257.811L0 .817.262 0z" transform="translate(1.666 28.225)"/>
            <path id="Path_11894" data-name="Path 11894" class="cls-7" d="M3.433 1.561l-.387.763L0 .761.4 0z" transform="translate(4.273 21.692)"/>
            <path id="Rectangle_8094" data-name="Rectangle 8094" class="cls-7" transform="rotate(127.23 1.203 11.68)" d="M0 0h.858v3.42H0z"/>
            <path id="Path_11895" data-name="Path 11895" class="cls-7" d="M2.954 2.511l-.626.572L0 .582.636 0z" transform="translate(12.692 10.526)"/>
            <path id="Path_11896" data-name="Path 11896" class="cls-7" d="M2.574 2.869l-.721.466L0 .453.719 0z" transform="translate(18.253 6.241)"/>
            <path id="Path_11897" data-name="Path 11897" class="cls-7" d="M2.115 3.151l-.786.331L0 .335.793 0z" transform="translate(24.487 2.992)"/>
            <path id="Path_11898" data-name="Path 11898" class="cls-7" d="M1.6 3.33l-.83.187L0 .191.843 0z" transform="translate(31.208 .895)"/>
            <path id="Path_11899" data-name="Path 11899" class="cls-7" d="M1.02 3.426l-.85.028L0 .047.86 0z" transform="translate(38.228)"/>
        </g>
        <g id="Group_1798" data-name="Group 1798" transform="rotate(-7 1434.972 -709.85)">
            <path id="Rectangle_8095" data-name="Rectangle 8095" class="cls-4" transform="rotate(97.18 56.545 104.138)" d="M0 0h2.151v11.478H0z"/>
            <path id="Rectangle_8096" data-name="Rectangle 8096" class="cls-4" transform="rotate(112.192 53.193 95.492)" d="M0 0h2.149v11.476H0z"/>
            <path id="Rectangle_8097" data-name="Rectangle 8097" class="cls-4" transform="scale(-1) rotate(-7.81 -385.37 1200.121)" d="M0 0h11.477v2.154H0z"/>
            <path id="Path_11900" data-name="Path 11900" class="cls-4" d="M11.417 1.983L.84 6.433 0 4.451 10.586 0z" transform="translate(149.869 18.062)"/>
            <path id="Rectangle_8098" data-name="Rectangle 8098" class="cls-4" transform="rotate(97.187 -12.47 25.89)" d="M0 0h2.151v11.476H0z"/>
            <path id="Rectangle_8099" data-name="Rectangle 8099" class="cls-4" transform="scale(-1) rotate(-7.81 -463.397 54.366)" d="M0 0h11.477v2.151H0z"/>
            <path id="Rectangle_8100" data-name="Rectangle 8100" class="cls-4" transform="rotate(112.192 .55 17.25)" d="M0 0h2.152v11.476H0z"/>
            <path id="Rectangle_8101" data-name="Rectangle 8101" class="cls-4" transform="rotate(127.16 11.443 10.011)" d="M0 0h2.153v11.477H0z"/>
        </g>
    </g>
</svg>
