<svg xmlns="http://www.w3.org/2000/svg" viewBox="0 0 134.356 107.981">
    <defs>
        <style>
            .cls-1{fill:#cccbca}.cls-2{fill:#fff}.cls-13,.cls-3{fill:#707070}.cls-4{fill:#ff916e}.cls-5,.cls-6,.cls-7{fill:#e18577}.cls-5{opacity:.6}.cls-7{opacity:.8}.cls-8{fill:#e6e5e5}.cls-9{fill:#565656}.cls-10{fill:#474f59}.cls-11{fill:#353f49}.cls-12{fill:#f2f2f2}.cls-13{opacity:.7}
        </style>
    </defs>
    <g id="icon_analytics" data-name="icon analytics" transform="translate(-4.748 -32.927)">
        <path id="Path_2270" data-name="Path 2270" class="cls-1" d="M233.045 393.268h-33.031l1.8-15.85h29.439z" transform="translate(-137.987 -254.209)"/>
        <g id="Group_872" data-name="Group 872" transform="translate(17.649 112.638)">
            <path id="Path_2271" data-name="Path 2271" class="cls-2" d="M223.864 433h-46.236v-.787a1.061 1.061 0 0 1 .311-.751 1.039 1.039 0 0 1 .746-.309h44.126a1.048 1.048 0 0 1 .743.309 1.059 1.059 0 0 1 .309.751V433z" transform="translate(-140.021 -404.729)"/>
            <path id="Path_2272" data-name="Path 2272" class="cls-2" d="M175.942 349.516a2.573 2.573 0 0 1-.8 1.864 2.7 2.7 0 0 1-1.905.777H57.183a2.713 2.713 0 0 1-1.9-.777 2.589 2.589 0 0 1-.791-1.864v-7.929h121.45v7.929z" transform="translate(-54.487 -341.587)"/>
        </g>
        <path id="Path_2273" data-name="Path 2273" class="cls-3" d="M175.942 77.229a2.6 2.6 0 0 0-.8-1.872 2.714 2.714 0 0 0-1.905-.77H57.183a2.726 2.726 0 0 0-1.9.77 2.613 2.613 0 0 0-.791 1.872v76.124h121.45V77.229z" transform="translate(-36.838 -41.66)"/>
        <path id="Rectangle_5890" data-name="Rectangle 5890" class="cls-2" transform="translate(23.597 38.872)" d="M0 0h109.564v66.868H0z"/>
        <path id="Rectangle_5891" data-name="Rectangle 5891" class="cls-4" transform="translate(31.736 88.97)" d="M0 0h7.654v11.05H0z"/>
        <path id="Rectangle_5892" data-name="Rectangle 5892" class="cls-5" transform="translate(39.546 69.785)" d="M0 0h7.648v30.137H0z"/>
        <path id="Rectangle_5893" data-name="Rectangle 5893" class="cls-5" transform="translate(47.353 79.887)" d="M0 0h7.654v20.093H0z"/>
        <path id="Rectangle_5894" data-name="Rectangle 5894" class="cls-6" transform="translate(55.164 75.513)" d="M0 0h7.652v24.444H0z"/>
        <path id="Rectangle_5895" data-name="Rectangle 5895" class="cls-7" transform="translate(62.974 83.421)" d="M0 0h7.651v16.576H0z"/>
        <path id="Rectangle_5896" data-name="Rectangle 5896" class="cls-6" transform="translate(70.781 63.377)" d="M0 0h7.652v36.501H0z"/>
        <path id="Rectangle_5897" data-name="Rectangle 5897" class="cls-7" transform="translate(78.591 76.183)" d="M0 0h7.648v23.777H0z"/>
        <path id="Rectangle_5898" data-name="Rectangle 5898" class="cls-6" transform="translate(86.396 78.541)" d="M0 0h7.656v21.432H0z"/>
        <path id="Rectangle_5899" data-name="Rectangle 5899" class="cls-6" transform="translate(94.212 69.785)" d="M0 0h7.649v30.137H0z"/>
        <path id="Rectangle_5900" data-name="Rectangle 5900" class="cls-6" transform="translate(102.019 60.001)" d="M0 0h7.649v39.849H0z"/>
        <path id="Rectangle_5901" data-name="Rectangle 5901" class="cls-7" transform="translate(109.823 55.61)" d="M0 0h7.654v44.2H0z"/>
        <g id="Group_873" data-name="Group 873" transform="translate(72.007 46.701)">
            <path id="Rectangle_5902" data-name="Rectangle 5902" class="cls-6" transform="translate(45.908 18.786)" d="M0 0h7.651v33.987H0z"/>
            <path id="Rectangle_5903" data-name="Rectangle 5903" class="cls-6" d="M0 0h4.165v4.168H0z"/>
        </g>
        <path id="Rectangle_5904" data-name="Rectangle 5904" class="cls-8" transform="translate(77.182 48.784)" d="M0 0h9.387v2.086H0z"/>
        <path id="Rectangle_5905" data-name="Rectangle 5905" class="cls-7" transform="translate(90.082 46.701)" d="M0 0h4.168v4.168H0z"/>
        <path id="Rectangle_5906" data-name="Rectangle 5906" class="cls-8" transform="translate(96.538 48.784)" d="M0 0h9.386v2.086H0z"/>
        <path id="Rectangle_5907" data-name="Rectangle 5907" class="cls-5" transform="translate(109.425 46.701)" d="M0 0h4.168v4.168H0z"/>
        <path id="Rectangle_5908" data-name="Rectangle 5908" class="cls-8" transform="translate(116.178 48.784)" d="M0 0h9.39v2.086H0z"/>
        <path id="Rectangle_5909" data-name="Rectangle 5909" class="cls-9" transform="translate(31.86 43.223)" d="M0 0h30.604v7.649H0z"/>
        <path id="Rectangle_5910" data-name="Rectangle 5910" class="cls-2" transform="translate(35.328 46.126)" d="M0 0h11.803v2.086H0z"/>
        <g id="Group_874" data-name="Group 874" transform="translate(31.86 53.143)">
            <path id="Rectangle_5911" data-name="Rectangle 5911" class="cls-8" d="M0 0h30.604v2.086H0z"/>
            <path id="Rectangle_5912" data-name="Rectangle 5912" class="cls-8" transform="translate(0 4.168)" d="M0 0h15.303v2.086H0z"/>
        </g>
        <path id="Rectangle_5913" data-name="Rectangle 5913" class="cls-9" transform="translate(103.28 112.539)" d="M0 0h5.099v6.222H0z"/>
        <path id="Path_2274" data-name="Path 2274" class="cls-9" d="M317.318 220.975a21.2 21.2 0 1 1-21.206-21.206 21.2 21.2 0 0 1 21.206 21.206z" transform="translate(-189.675 -129.373)"/>
        <path id="Path_2275" data-name="Path 2275" class="cls-2" d="M323.209 231.112a16.964 16.964 0 1 1-16.964-16.964 16.961 16.961 0 0 1 16.964 16.964z" transform="translate(-199.805 -139.518)"/>
        <path id="Rectangle_5914" data-name="Rectangle 5914" class="cls-9" transform="translate(101.826 123.209)" d="M0 0h8.033v17.699H0z"/>
        <path id="Rectangle_5915" data-name="Rectangle 5915" class="cls-3" transform="translate(101.17 118.801)" d="M0 0h9.368v4.243H0z"/>
        <path id="Path_2276" data-name="Path 2276" class="cls-6" d="M297.547 301.37a17.012 17.012 0 0 0 8.87 7.226v-7.226z" transform="translate(-206.432 -200.908)"/>
        <path id="Path_2277" data-name="Path 2277" class="cls-6" d="M327.614 252.7v21.583a16.99 16.99 0 0 0 11.3 0V252.7z" transform="translate(-227.405 -166.643)"/>
        <path id="Path_2278" data-name="Path 2278" class="cls-7" d="M372.253 230.892h-6.318v28.02a16.963 16.963 0 0 0 6.318-28.02z" transform="translate(-253.847 -151.303)"/>
        <path id="Path_2279" data-name="Path 2279" class="cls-3" d="M10.755 234.337a2.275 2.275 0 0 1 2.271-2.272h37.207a2.277 2.277 0 0 1 2.269 2.272v56.037a2.275 2.275 0 0 1-2.269 2.269H13.026a2.273 2.273 0 0 1-2.271-2.269z" transform="translate(-6.007 -151.736)"/>
        <g id="Group_875" data-name="Group 875" transform="translate(22.309 82.246)">
            <path id="Path_2280" data-name="Path 2280" class="cls-10" d="M71.293 423.4a1.012 1.012 0 0 1-1.01-1.009v-.25a1.014 1.014 0 0 1 1.01-1.012H75.9a1.014 1.014 0 0 1 1.009 1.012v.25A1.012 1.012 0 0 1 75.9 423.4z" transform="translate(-70.283 -367.273)"/>
            <path id="Path_2281" data-name="Path 2281" class="cls-10" d="M79.029 240.644a1.041 1.041 0 0 1 0-2.082 1.041 1.041 0 1 1 0 2.082z" transform="translate(-75.721 -238.562)"/>
        </g>
        <circle id="Ellipse_485" data-name="Ellipse 485" class="cls-11" cx=".434" cy=".434" r=".434" transform="translate(25.187 82.346)"/>
        <path id="Rectangle_5916" data-name="Rectangle 5916" class="cls-2" transform="translate(7.114 86.248)" d="M0 0h37.008v47.324H0z"/>
        <path id="Rectangle_5917" data-name="Rectangle 5917" class="cls-8" transform="translate(12.121 125.15)" d="M0 0h26.993v.93H0z"/>
        <path id="Rectangle_5918" data-name="Rectangle 5918" class="cls-1" transform="translate(12.121 120.94)" d="M0 0h26.993v3.28H0z"/>
        <g id="Group_1120" data-name="Group 1120" transform="translate(14.248 94.054)">
            <g id="Group_1119" data-name="Group 1119" transform="translate(7.86 6.265)">
                <path id="Path_3542" data-name="Path 3542" class="cls-9" d="M142.691 254.642h-1.7a2.65 2.65 0 1 1 0-5.3h3.677v1.334h-3.677a1.312 1.312 0 0 0-1.319 1.311 1.3 1.3 0 0 0 .385.931 1.32 1.32 0 0 0 .934.389h1.7z" transform="translate(-138.337 -248.874)"/>
                <path id="Path_3543" data-name="Path 3543" class="cls-9" d="M145.314 274.159h-3.684v-1.335h3.684a1.322 1.322 0 0 0 .935-.393 1.281 1.281 0 0 0 .379-.923 1.313 1.313 0 0 0-.377-.931 1.339 1.339 0 0 0-.936-.388h-1.7v-1.335h1.7a2.652 2.652 0 0 1 0 5.3z" transform="translate(-140.961 -264.42)"/>
                <path id="Rectangle_6719" data-name="Rectangle 6719" class="cls-9" transform="translate(2.837)" d="M0 0h1.334v10.204H0z"/>
            </g>
            <path id="Path_3544" data-name="Path 3544" class="cls-12" d="M185.837 272.15a7.993 7.993 0 0 1-2.351 5.671l2.363 2.365a11.333 11.333 0 0 0 3.329-8.036z" transform="translate(-166.449 -260.781)"/>
            <path id="Path_3545" data-name="Path 3545" class="cls-9" d="M155.565 219.559a8.028 8.028 0 0 1 8.025 8.029h3.341a11.368 11.368 0 0 0-11.368-11.368v3.338z" transform="translate(-144.202 -216.221)"/>
            <path id="Path_3546" data-name="Path 3546" class="cls-13" d="M138.529 219.555v-3.338a11.166 11.166 0 0 0-4.344.869l1.276 3.08a8.031 8.031 0 0 1 3.068-.611z" transform="translate(-127.168 -216.217)"/>
            <path id="Path_3547" data-name="Path 3547" class="cls-6" d="M116.7 236.671a8.026 8.026 0 1 1-8.74-13.1l-1.276-3.08a11.364 11.364 0 1 0 12.383 18.538z" transform="translate(-99.665 -219.626)"/>
        </g>
    </g>
</svg>
