<svg xmlns="http://www.w3.org/2000/svg" viewBox="0 0 94.011 93.999">
    <defs>
        <style>
            .cls-1{fill:#e18577}.cls-2{fill:#f2f2f2}.cls-3{fill:#fff}.cls-4{fill:#d9d9d9}.cls-5{fill:#707070}.cls-6{fill:#666}
        </style>
    </defs>
    <g id="makeup_5_" data-name="makeup (5)" transform="translate(0 -.032)">
        <path id="Path_6238" data-name="Path 6238" class="cls-1" d="M335.858 48.844h-19.134l-6.273-13.594a17.605 17.605 0 0 1 3.749-20.032l.245-.237a17.606 17.606 0 0 1 24.477 0 17.606 17.606 0 0 1 3.554 20.438z" transform="translate(-252.124 -8.163)"/>
        <path id="Path_6239" data-name="Path 6239" class="cls-2" d="M364.662 272.928H358.3a6.365 6.365 0 0 1-6.365-6.365v-45.149h19.094v45.149a6.365 6.365 0 0 1-6.367 6.365z" transform="translate(-287.313 -180.733)"/>
        <path id="Rectangle_7722" data-name="Rectangle 7722" class="cls-3" transform="translate(64.62 40.681)" d="M0 0h19.094v15.346H0z"/>
        <path id="Path_6240" data-name="Path 6240" class="cls-3" d="M45.621 277.749H28v-9.914A1.836 1.836 0 0 1 29.832 266h13.953a1.836 1.836 0 0 1 1.836 1.836z" transform="translate(-22.856 -217.132)"/>
        <path id="Path_6241" data-name="Path 6241" class="cls-2" d="M30.561 361.569h-16.89A3.672 3.672 0 0 1 10 357.9v-26.07a1.836 1.836 0 0 1 1.836-1.836H32.4a1.836 1.836 0 0 1 1.836 1.836v26.07a3.672 3.672 0 0 1-3.675 3.669z" transform="translate(-8.163 -269.374)"/>
        <path id="Path_6242" data-name="Path 6242" class="cls-1" d="M53.214 178.425H39.995v-16.02a3.672 3.672 0 0 1 5.406-3.237l5.875 3.148a3.672 3.672 0 0 1 1.938 3.237z" transform="translate(-32.651 -129.558)"/>
        <path id="Path_6243" data-name="Path 6243" class="cls-4" d="M195.65 301.163a47.568 47.568 0 0 0 6.889-24.656V256h-20.562v20.508a47.568 47.568 0 0 0 6.889 24.656h6.784z" transform="translate(-148.563 -208.969)"/>
        <path id="Path_6244" data-name="Path 6244" class="cls-5" d="M332.05 5.5a19.442 19.442 0 0 0-27.03 0l-.245.237a19.462 19.462 0 0 0-4.137 22.122l6.125 13.272v44.7a8.21 8.21 0 0 0 8.2 8.2h6.363a8.21 8.21 0 0 0 8.2-8.2V41.149l6.446-13.081A19.383 19.383 0 0 0 332.05 5.5zm-18.831 37.018h12.637v11.674h-15.422V42.518zm8.108 47.842h-6.363a4.535 4.535 0 0 1-4.529-4.529V57.864h8.082V69.7a1.836 1.836 0 0 0 3.672 0V57.864h3.668V85.83a4.534 4.534 0 0 1-4.53 4.53zm11.353-63.915l-6.111 12.4h-.806l1.48-8.878a1.836 1.836 0 1 0-3.622-.6l-1.58 9.481h-2.059v-9.18a1.836 1.836 0 0 0-3.672 0v9.18h-1.525l-1.58-9.481a1.836 1.836 0 1 0-3.622.6l1.48 8.878h-1.31l-5.781-12.527a15.786 15.786 0 0 1 3.356-17.944l.245-.237a15.77 15.77 0 0 1 25.107 18.308z" transform="translate(-243.978 -.001)"/>
        <path id="Path_6245" data-name="Path 6245" class="cls-5" d="M24.6 180.188v-8.1a3.676 3.676 0 0 0-2.2-3.363v-11.341a5.5 5.5 0 0 0-2.906-4.855l-5.875-3.148a5.508 5.508 0 0 0-8.109 4.855v14.492a3.676 3.676 0 0 0-2.2 3.363v8.1a3.677 3.677 0 0 0-3.31 3.65v26.07a5.514 5.514 0 0 0 5.508 5.508H22.4a5.514 5.514 0 0 0 5.508-5.508v-26.07a3.676 3.676 0 0 0-3.308-3.653zm-17.625-8.1h13.954v8.078H6.977v-8.078zm2.2-17.855a1.836 1.836 0 0 1 2.7-1.618l5.875 3.148a1.833 1.833 0 0 1 .969 1.618v11.039H9.18zm15.054 55.675a1.838 1.838 0 0 1-1.836 1.836h-3.3v-13.949a1.836 1.836 0 1 0-3.672 0v13.953H5.508a1.838 1.838 0 0 1-1.836-1.836v-26.07h20.562z" transform="translate(0 -121.388)"/>
        <path id="Path_6246" data-name="Path 6246" d="M85.825 367.986a1.837 1.837 0 1 0 1.3.538 1.849 1.849 0 0 0-1.3-.538z" transform="translate(-68.567 -300.392)"/>
        <path id="Path_6247" data-name="Path 6247" class="cls-6" d="M194.377 45.2h-8.445v-18h3.123a1.836 1.836 0 0 0 0-3.672h-3.123v-2.2h3.123a1.836 1.836 0 0 0 0-3.672h-3.123v-2.2h3.123a1.836 1.836 0 0 0 0-3.672h-3.123v-2.2h3.123a1.836 1.836 0 0 0 0-3.672h-3.123V3.7h3.123a1.836 1.836 0 0 0 0-3.672h-9.918a1.836 1.836 0 1 0 0 3.672h3.123v2.2h-3.123a1.836 1.836 0 1 0 0 3.672h3.123v2.2h-3.123a1.836 1.836 0 1 0 0 3.672h3.123v2.2h-3.123a1.836 1.836 0 1 0 0 3.672h3.123v2.2h-3.123a1.836 1.836 0 1 0 0 3.672h3.123V45.2h-8.445a1.836 1.836 0 0 0-1.836 1.836v20.503a49.4 49.4 0 0 0 7.155 25.607 1.836 1.836 0 0 0 1.57.884h6.784a1.836 1.836 0 0 0 1.57-.884 49.4 49.4 0 0 0 7.155-25.607V47.031a1.836 1.836 0 0 0-1.836-1.831zm-1.836 22.343a45.728 45.728 0 0 1-6.1 22.82h-4.69a45.73 45.73 0 0 1-6.1-22.82V56.945h11.063a1.836 1.836 0 0 0 0-3.672h-11.063v-4.406h16.89v18.672z" transform="translate(-140.401)"/>
        <path id="Path_6248" data-name="Path 6248" d="M407.784 404.431a1.837 1.837 0 1 0 1.3.538 1.849 1.849 0 0 0-1.3-.538z" transform="translate(-331.41 -330.145)"/>
    </g>
</svg>
