<svg id="clients" xmlns="http://www.w3.org/2000/svg" viewBox="0 0 54.605 46.168">
    <defs>
        <style>
            .cls-1{fill:#fff}.cls-2{fill:#e4e4e4}.cls-3{fill:#858585}.cls-4{fill:#ec9d91}
        </style>
    </defs>
    <path id="Path_6606" data-name="Path 6606" class="cls-1" d="M26.6 239.86h3.647l.3 3.047.892.65 5.309 1.668a2.09 2.09 0 0 1 .9 1.441c.09.466.28 9.784.478 13.764a30.984 30.984 0 0 1-17.876-15.253l5.2-1.644.856-.626z" transform="translate(-20.25 -215.817)"/>
    <path id="Path_6607" data-name="Path 6607" class="cls-2" d="M58.528 266.681a4.1 4.1 0 0 1-5.437-.282l2.746 8.1z" transform="translate(-47.752 -238.011)"/>
    <path id="Path_6608" data-name="Path 6608" class="cls-1" d="M39.519 185.017c-1.144-.2-.169 3.185.667 2.68l.449 1.3a9.829 9.829 0 0 0 2.2 3.093 3.244 3.244 0 0 0 2.455.013 8.745 8.745 0 0 0 2.261-3.112l.41-1.3c.837.5 1.81-2.88.667-2.68.079-2.635-1.8-5.192-4.553-5.2-2.752.012-4.632 2.569-4.553 5.2z" transform="translate(-35.902 -165.6)"/>
    <path id="Path_6609" data-name="Path 6609" class="cls-3" d="M25.448 262.3l-5.2 1.644A30.979 30.979 0 0 0 38.2 279.215c-.224-2.6-.452-13.264-.553-13.788a2.091 2.091 0 0 0-.9-1.441l-5.309-1.668-3.011 8.753-2.978-8.771z" transform="translate(-20.252 -234.579)"/>
    <path id="Path_6610" data-name="Path 6610" class="cls-3" d="M48.782 178.162a2.891 2.891 0 0 1 1.63 2.243 8.585 8.585 0 0 1-.128 2.457c-.821-.039-.563 1.205-.741 1.4l-.231.005-.087-.835c-1.023-.635.4-3.146-.62-3.366a8.61 8.61 0 0 1-6.615 1.592c-.636.084.289.881.021 1.8a1.467 1.467 0 0 0-.08.882l-.3.037s-.187-1.548-.758-1.542a6.27 6.27 0 0 1-.158-1.771c.2-3.234 4.582-5.076 8.062-2.9z" transform="translate(-37.329 -163.43)"/>
    <g id="Group_1778" data-name="Group 1778" transform="translate(41.869 13.631)">
        <path id="Path_6616" data-name="Path 6616" class="cls-3" d="M276.91 189.956c.822-1.37 2.117-2.959.8-5.376-1.936-8.392 6.987-10.094 8.336-6.63 2.2.821 2.137 5.338 1.008 7.7-.05.973-1.071 1.822.773 4.331l.133-.029c-2.39.689-8.522.372-11.05.004z" transform="translate(-276.91 -176.261)"/>
    </g>
    <path id="Path_6617" data-name="Path 6617" class="cls-1" d="M270.48 249.106a2.521 2.521 0 0 1-1.367 2.466c-.379.332-3.711.73-4.161 1.937-.1.256-.384 8.24-.657 13.523a30.978 30.978 0 0 0 14.819-13.894c-.958-1.01-3.75-1.251-4.079-1.524a2.606 2.606 0 0 1-1.335-2.507s-1.091.838-1.769.709a4.366 4.366 0 0 1-1.451-.71z" transform="translate(-224.509 -223.549)"/>
    <path id="Path_6618" data-name="Path 6618" class="cls-1" d="M285.267 207.129a5.835 5.835 0 0 0 1.757 2.629 4.343 4.343 0 0 0 1.451.723c.678.132 1.769-.723 1.769-.723a5.822 5.822 0 0 0 1.756-2.629c.165.087.337.205.471.053a7.65 7.65 0 0 0 .656-2.395c-.115-.266-.227-.1-.4.024.009-.058-.135.714-.133.6.016-.933-.645-1.081-.853-3.549-3.049 3-5.9 1.623-6.891 1.824-.288.058-.372.788-.319 1.129-1.076-.761.232 2.339.259 2.37.134.152.306.034.471-.053z" transform="translate(-241.053 -184.038)"/>
    <path id="Path_6619" data-name="Path 6619" class="cls-4" d="M263.51 264.143c-1.26.523-3.22.546-4.2 1.818-.186.241-1.068 8.829-1.726 14.109a30.984 30.984 0 0 0 15.928-14.361c-1.036-1.156-3.081-1.051-4.056-1.57l-2.862 5.8z" transform="translate(-218.906 -236.121)"/>
    <g id="Group_1779" data-name="Group 1779" transform="translate(45.954 30.554)">
        <path id="Path_6621" data-name="Path 6621" class="cls-2" d="M301.642 279.628a6.026 6.026 0 0 0 3.344 0l-1.61 3.263-1.734-3.261z" transform="translate(-301.642 -279.626)"/>
    </g>
    <path id="Path_6626" data-name="Path 6626" class="cls-1" d="M89.927 213.319h7l.568 5.852 1.714 1.247 10.2 3.2a4.017 4.017 0 0 1 1.73 2.769c.207 1.077.694 3.845 1.154 6.622a31.176 31.176 0 0 1-38.116.532c.613-2.959 1.346-6.156 1.538-7.155a5.017 5.017 0 0 1 1.73-2.769l10.268-3.249 1.644-1.2.567-5.852z" transform="translate(-65.545 -193.62)"/>
    <path id="Path_6627" data-name="Path 6627" class="cls-3" d="M169.24 264.843c-1.691 1.957-7.335 2.8-10.444-.542l5.276 15.567 5.168-15.025z" transform="translate(-136.182 -236.257)"/>
    <path id="Path_6628" data-name="Path 6628" class="cls-1" d="M132.725 107.978c-2.2-.386-.324 6.117 1.28 5.147l.861 2.507c.775 2.258 2.732 4.314 4.221 5.941.581.635 4.141.625 4.716.024 1.649-1.719 3.608-3.65 4.343-5.979l.788-2.494c1.607.969 3.476-5.533 1.28-5.147.152-5.062-3.459-9.973-8.745-10-5.285.023-8.896 4.939-8.744 10.001z" transform="translate(-113.583 -97.167)"/>
    <path id="Path_6629" data-name="Path 6629" class="cls-2" d="M87.717 256.42l-10.268 3.249a5.017 5.017 0 0 0-1.73 2.768c-.192 1-.925 4.2-1.538 7.155a31.175 31.175 0 0 0 38.116-.533 325.414 325.414 0 0 0-1.154-6.622 4.019 4.019 0 0 0-1.73-2.768l-10.2-3.2-5.783 16.809z" transform="translate(-65.547 -229.665)"/>
    <path id="Path_6630" data-name="Path 6630" class="cls-3" d="M150.53 94.812c.62-.071 2.862 1.958 3.131 4.309a16.51 16.51 0 0 1-.248 4.72c-1.577-.076-1.08 2.314-1.424 2.692l-.444.01-.166-1.6c-1.964-1.22.775-6.043-1.19-6.465a16.539 16.539 0 0 1-12.706 3.057c-1.222.161.556 1.693.04 3.454a2.817 2.817 0 0 0-.153 1.695l-.568.07s-.359-2.974-1.455-2.961a12.045 12.045 0 0 1-.3-3.4c.375-6.213 8.8-9.751 15.485-5.573z" transform="translate(-116.34 -92.999)"/>
</svg>
