<svg xmlns="http://www.w3.org/2000/svg" viewBox="0 0 81.161 102.516">
    <defs>
        <style>
            .cls-1,.cls-3{fill:#fff}.cls-1{stroke:#707070}.cls-2{fill:#707070}.cls-4{fill:#f2f2f2}.cls-5{fill:#e18577}.cls-6{fill:#949494}.cls-7{fill:#353f49}
        </style>
    </defs>
    <g id="phone" transform="translate(-146.491 -4601.484)">
        <g id="icon_online" data-name="icon online" transform="translate(146.991 4601.984)">
            <path id="Path_2390" data-name="Path 2390" class="cls-1" d="M34.675 155.033A7.057 7.057 0 0 1 27.637 148V63.469a7.063 7.063 0 0 1 7.038-7.038h40.853a7.053 7.053 0 0 1 7.031 7.038V148a7.047 7.047 0 0 1-7.031 7.031z" transform="translate(-27.637 -56.431)"/>
            <g id="Group_910" data-name="Group 910" transform="translate(20.106 6.805)">
                <path id="Path_2391" data-name="Path 2391" class="cls-2" d="M126.337 418.847a1.675 1.675 0 0 1-1.675 1.674h-8.825a1.685 1.685 0 0 1-1.683-1.674v-.71a1.7 1.7 0 0 1 1.683-1.685h8.825a1.684 1.684 0 0 1 1.675 1.685z" transform="translate(-112.886 -334.317)"/>
                <path id="Path_2392" data-name="Path 2392" class="cls-2" d="M123.744 84.949a.682.682 0 0 1-.681.686h-13.352a.685.685 0 0 1-.688-.686v-.288a.69.69 0 0 1 .688-.684h13.353a.688.688 0 0 1 .681.684v.288z" transform="translate(-109.023 -83.977)"/>
            </g>
            <path id="Rectangle_6132" data-name="Rectangle 6132" class="cls-3" transform="translate(3.993 15.27)" d="M0 0h46.951v68.087H0z"/>
            <path id="Rectangle_6133" data-name="Rectangle 6133" class="cls-4" transform="translate(6.72 17.99)" d="M0 0h41.5v62.635H0z"/>
            <rect id="Rectangle_7183" data-name="Rectangle 7183" class="cls-5" width="39.111" height="2.173" rx="1.086" transform="rotate(-41 81.075 13.436)"/>
            <rect id="Rectangle_7184" data-name="Rectangle 7184" class="cls-5" width="31.144" height="2.173" rx="1.086" transform="rotate(-41 97.54 7.968)"/>
        </g>
        <g id="analytics-5" transform="translate(188.011 4653.324)">
            <g id="Group_1130" data-name="Group 1130">
                <path id="Path_3562" data-name="Path 3562" class="cls-6" d="M82.659 274.327a5.283 5.283 0 1 1 5.287-5.282 5.288 5.288 0 0 1-5.287 5.282zm0-9.716a4.434 4.434 0 1 0 4.437 4.434 4.442 4.442 0 0 0-4.437-4.434z" transform="translate(-62.842 -263.76)"/>
                <path id="Path_3563" data-name="Path 3563" class="cls-6" d="M45.807 337.625A19.821 19.821 0 1 1 25.983 317.8a19.826 19.826 0 0 1 19.824 19.825z" transform="translate(-6.166 -306.769)"/>
            </g>
            <path id="Path_3564" data-name="Path 3564" class="cls-3" d="M52.509 346.632A17.507 17.507 0 1 1 35 329.118a17.512 17.512 0 0 1 17.509 17.514z" transform="translate(-15.182 -315.776)"/>
            <path id="Path_3565" data-name="Path 3565" class="cls-5" d="M103.245 329.121v17.513l12.386 12.376a17.513 17.513 0 0 0-12.386-29.89z" transform="translate(-83.428 -315.778)"/>
            <g id="Group_1131" data-name="Group 1131" transform="translate(3.456 14.486)">
                <path id="Rectangle_6758" data-name="Rectangle 6758" class="cls-7" transform="translate(16.2)" d="M0 0h.327v1.462H0z"/>
                <path id="Path_3566" data-name="Path 3566" class="cls-7" d="M94.563 336.541l-.329.038-.149-1.445.325-.039z" transform="translate(-79.593 -335.019)"/>
                <path id="Rectangle_6759" data-name="Rectangle 6759" class="cls-7" transform="rotate(168.2 6.62 1.571)" d="M0 0h.327v1.453H0z"/>
                <path id="Path_3567" data-name="Path 3567" class="cls-7" d="M78.5 339.79l-.317.1-.445-1.385.312-.1z" transform="translate(-66.586 -337.652)"/>
                <path id="Path_3568" data-name="Path 3568" class="cls-7" d="M70.812 342.683l-.3.132-.589-1.329.3-.131z" transform="translate(-60.362 -340)"/>
                <path id="Path_3569" data-name="Path 3569" class="cls-7" d="M63.5 346.347l-.294.169-.721-1.265.286-.161z" transform="translate(-54.446 -342.974)"/>
                <path id="Rectangle_6760" data-name="Rectangle 6760" class="cls-7" transform="scale(-1) rotate(-35.64 -10.413 9.913)" d="M0 0h.329v1.454H0z"/>
                <path id="Path_3570" data-name="Path 3570" class="cls-7" d="M50.245 355.87l-.246.217-.972-1.074.244-.225z" transform="translate(-43.733 -350.691)"/>
                <path id="Path_3571" data-name="Path 3571" class="cls-7" d="M44.451 361.625l-.219.248-1.082-.974.225-.25z" transform="translate(-39.055 -355.355)"/>
                <path id="Path_3572" data-name="Path 3572" class="cls-7" d="M39.3 368l-.2.27-1.177-.855.2-.267z" transform="translate(-34.898 -360.526)"/>
                <path id="Path_3573" data-name="Path 3573" class="cls-7" d="M34.848 374.856l-.161.287-1.264-.729.166-.284z" transform="translate(-31.314 -366.086)"/>
                <path id="Path_3574" data-name="Path 3574" class="cls-7" d="M31.161 382.142l-.141.3-1.327-.592.138-.3z" transform="translate(-28.346 -371.99)"/>
                <path id="Path_3575" data-name="Path 3575" class="cls-7" d="M28.268 389.816l-.1.315-1.384-.445.1-.314z" transform="translate(-26.03 -378.214)"/>
                <path id="Path_3576" data-name="Path 3576" class="cls-7" d="M26.186 397.746l-.063.328-1.424-.308.065-.318z" transform="translate(-24.371 -384.643)"/>
                <path id="Path_3577" data-name="Path 3577" class="cls-7" d="M24.934 405.858l-.038.338-1.446-.157.034-.329z" transform="translate(-23.377 -391.219)"/>
                <path id="Rectangle_6761" data-name="Rectangle 6761" class="cls-7" transform="translate(0 16.206)" d="M0 0h1.459v.327H0z"/>
                <path id="Path_3578" data-name="Path 3578" class="cls-7" d="M24.9 421.706l.038.335-1.45.151-.034-.331z" transform="translate(-23.377 -403.948)"/>
                <path id="Path_3579" data-name="Path 3579" class="cls-7" d="M26.123 429.266l.063.331-1.423.3-.065-.321z" transform="translate(-24.371 -409.965)"/>
                <path id="Path_3580" data-name="Path 3580" class="cls-7" d="M28.157 436.7l.1.314-1.387.444-.1-.308z" transform="translate(-26.02 -415.88)"/>
                <path id="Path_3581" data-name="Path 3581" class="cls-7" d="M31.02 443.863l.141.3-1.33.592-.138-.3z" transform="translate(-28.346 -421.582)"/>
                <path id="Path_3582" data-name="Path 3582" class="cls-7" d="M34.687 450.708l.161.285-1.259.727-.166-.286z" transform="translate(-31.314 -427.03)"/>
                <path id="Path_3583" data-name="Path 3583" class="cls-7" d="M39.1 457.162l.2.268-1.177.856-.2-.269z" transform="translate(-34.898 -432.167)"/>
                <path id="Path_3584" data-name="Path 3584" class="cls-7" d="M44.225 463.16l.219.246-1.077.975-.226-.25z" transform="translate(-39.049 -436.94)"/>
                <path id="Path_3585" data-name="Path 3585" class="cls-7" d="M50 468.639l.249.216-.974 1.087-.244-.228z" transform="translate(-43.733 -441.301)"/>
                <path id="Rectangle_6762" data-name="Rectangle 6762" class="cls-7" transform="rotate(35.804 -40.121 25.72)" d="M0 0h.33v1.457H0z"/>
                <path id="Path_3586" data-name="Path 3586" class="cls-7" d="M63.2 477.719l.294.169-.729 1.258-.288-.163z" transform="translate(-54.438 -448.527)"/>
                <path id="Path_3587" data-name="Path 3587" class="cls-7" d="M70.51 481.288l.3.132-.589 1.327-.3-.132z" transform="translate(-60.362 -451.367)"/>
                <path id="Path_3588" data-name="Path 3588" class="cls-7" d="M78.176 484.1l.317.1-.45 1.384-.314-.1z" transform="translate(-66.576 -453.608)"/>
                <path id="Path_3589" data-name="Path 3589" class="cls-7" d="M86.109 486.182l.317.062-.3 1.422-.32-.061z" transform="translate(-73.004 -455.262)"/>
                <path id="Path_3590" data-name="Path 3590" class="cls-7" d="M94.234 487.432l.329.04-.153 1.441-.325-.035z" transform="translate(-79.593 -456.257)"/>
                <path id="Rectangle_6763" data-name="Rectangle 6763" class="cls-7" transform="translate(16.2 31.272)" d="M0 0h.327v1.462H0z"/>
                <path id="Path_3591" data-name="Path 3591" class="cls-7" d="M110.08 487.472l.329-.04.15 1.446-.324.035z" transform="translate(-92.323 -456.257)"/>
                <path id="Path_3592" data-name="Path 3592" class="cls-7" d="M117.637 486.244l.328-.062.3 1.424-.324.061z" transform="translate(-98.338 -455.262)"/>
                <path id="Rectangle_6764" data-name="Rectangle 6764" class="cls-7" transform="rotate(-17.82 108.01 -51.06)" d="M0 0h.33v1.456H0z"/>
                <path id="Path_3593" data-name="Path 3593" class="cls-7" d="M132.229 481.42l.3-.132.589 1.327-.3.132z" transform="translate(-109.951 -451.367)"/>
                <path id="Path_3594" data-name="Path 3594" class="cls-7" d="M139.072 477.881l.283-.17.733 1.267-.29.164z" transform="translate(-115.397 -448.521)"/>
                <path id="Rectangle_6765" data-name="Rectangle 6765" class="cls-7" transform="rotate(-35.57 56.951 -24.707)" d="M0 0h.332v1.455H0z"/>
                <path id="Path_3595" data-name="Path 3595" class="cls-7" d="M151.542 468.855l.246-.216.971 1.075-.248.228z" transform="translate(-125.321 -441.301)"/>
                <path id="Path_3596" data-name="Path 3596" class="cls-7" d="M156.987 463.406l.222-.246 1.077.972-.218.249z" transform="translate(-129.655 -436.94)"/>
                <path id="Rectangle_6766" data-name="Rectangle 6766" class="cls-7" transform="rotate(-53.91 39.005 -15.219)" d="M0 0h.331v1.455H0z"/>
                <path id="Path_3597" data-name="Path 3597" class="cls-7" d="M166.093 450.993l.166-.285 1.256.726-.162.286z" transform="translate(-136.902 -427.03)"/>
                <path id="Path_3598" data-name="Path 3598" class="cls-7" d="M169.649 444.164l.133-.3 1.325.592-.127.3z" transform="translate(-139.732 -421.582)"/>
                <path id="Path_3599" data-name="Path 3599" class="cls-7" d="M172.465 437.012l.1-.314 1.388.45-.111.308z" transform="translate(-141.973 -415.88)"/>
                <path id="Path_3600" data-name="Path 3600" class="cls-7" d="M174.515 429.6l.07-.334 1.422.31-.068.322z" transform="translate(-143.605 -409.965)"/>
                <path id="Path_3601" data-name="Path 3601" class="cls-7" d="M175.811 422.043l.031-.337 1.45.156-.039.33z" transform="translate(-144.636 -403.948)"/>
                <path id="Rectangle_6767" data-name="Rectangle 6767" class="cls-7" transform="translate(31.27 16.206)" d="M0 0h1.453v.327H0z"/>
                <path id="Path_3602" data-name="Path 3602" class="cls-7" d="M175.842 406.2l-.031-.338 1.442-.147.039.33z" transform="translate(-144.636 -391.219)"/>
                <path id="Path_3603" data-name="Path 3603" class="cls-7" d="M174.585 398.075l-.07-.329 1.422-.3.073.318z" transform="translate(-143.605 -384.643)"/>
                <path id="Path_3604" data-name="Path 3604" class="cls-7" d="M172.566 390.13l-.1-.313 1.379-.446.111.314z" transform="translate(-141.973 -378.214)"/>
                <path id="Path_3605" data-name="Path 3605" class="cls-7" d="M169.782 382.449l-.133-.3 1.33-.59.129.3z" transform="translate(-139.732 -371.996)"/>
                <path id="Rectangle_6768" data-name="Rectangle 6768" class="cls-7" transform="rotate(-120.232 17.285 -3.906)" d="M0 0h.332v1.453H0z"/>
                <path id="Path_3606" data-name="Path 3606" class="cls-7" d="M162.054 368.267l-.195-.271 1.178-.851.195.267z" transform="translate(-133.532 -360.526)"/>
                <path id="Path_3607" data-name="Path 3607" class="cls-7" d="M157.209 361.872l-.222-.248 1.081-.977.218.25z" transform="translate(-129.655 -355.355)"/>
                <path id="Path_3608" data-name="Path 3608" class="cls-7" d="M151.788 356.087l-.246-.217.969-1.082.248.225z" transform="translate(-125.321 -350.691)"/>
                <path id="Path_3609" data-name="Path 3609" class="cls-7" d="M145.788 350.938l-.27-.192.857-1.178.268.193z" transform="translate(-120.527 -346.537)"/>
                <path id="Path_3610" data-name="Path 3610" class="cls-7" d="M139.363 346.516l-.281-.169.724-1.256.29.161z" transform="translate(-115.405 -342.974)"/>
                <path id="Path_3611" data-name="Path 3611" class="cls-7" d="M132.531 342.815l-.3-.132.59-1.328.3.131z" transform="translate(-109.951 -340)"/>
                <path id="Path_3612" data-name="Path 3612" class="cls-7" d="M125.357 339.893l-.316-.1.452-1.386.312.1z" transform="translate(-104.23 -337.652)"/>
                <path id="Path_3613" data-name="Path 3613" class="cls-7" d="M117.965 337.834l-.328-.067.3-1.421.326.068z" transform="translate(-98.338 -336.014)"/>
                <path id="Path_3614" data-name="Path 3614" class="cls-7" d="M110.409 336.579l-.329-.038.156-1.445.326.038z" transform="translate(-92.323 -335.019)"/>
                <path id="Path_3615" data-name="Path 3615" class="cls-2" d="M90.068 402.174l.466-.469 14.082 14.077-.469.466z" transform="translate(-76.396 -388.031)"/>
            </g>
            <path id="Path_3616" data-name="Path 3616" class="cls-2" d="M98.926 409.072a1.5 1.5 0 1 1-1.5-1.5 1.5 1.5 0 0 1 1.5 1.5z" transform="translate(-77.607 -378.216)"/>
            <path id="Path_3617" data-name="Path 3617" class="cls-3" d="M101.515 412.56a.6.6 0 1 1-.6-.6.6.6 0 0 1 .6.6z" transform="translate(-81.093 -381.704)"/>
            <path id="Rectangle_6769" data-name="Rectangle 6769" class="cls-6" transform="translate(18.171 7.797)" d="M0 0h3.304v3.31H0z"/>
            <path id="Rectangle_6770" data-name="Rectangle 6770" class="cls-6" transform="translate(17.178 5.157)" d="M0 0h5.278v2.639H0z"/>
            <path id="Rectangle_6771" data-name="Rectangle 6771" class="cls-6" transform="rotate(45 -1.15 48.13)" d="M0 0h2.949v1.324H0z"/>
            <path id="Path_3618" data-name="Path 3618" class="cls-6" d="M169.144 325.393l2.919 2.924 2.4-2.392-2.921-2.925z" transform="translate(-135.875 -310.907)"/>
            <path id="Path_3619" data-name="Path 3619" class="cls-6" d="M28.147 337.733l-2.088 2.086-.93-.936 2.085-2.088z" transform="translate(-21.258 -321.886)"/>
            <path id="Path_3620" data-name="Path 3620" class="cls-6" d="M16.648 325.4l-2.924 2.924-2.4-2.392 2.921-2.922z" transform="translate(-10.274 -310.917)"/>
        </g>
    </g>
</svg>
