<svg xmlns="http://www.w3.org/2000/svg" viewBox="0 0 108.668 103.999">
    <defs>
        <style>
            .cls-1{fill:#f2f2f2}.cls-2{fill:#d9d9d9}.cls-3{fill:#666}.cls-4{fill:#707070}.cls-5{fill:#e18577}.cls-6{fill:#d16453}.cls-7{fill:#fff}
        </style>
    </defs>
    <g id="digital-campaign" transform="translate(0 -11.001)">
        <path id="Path_11848" data-name="Path 11848" class="cls-1" d="M52 0A52 52 0 1 1 0 52 52 52 0 0 1 52 0z" transform="translate(3.568 11.001)"/>
        <path id="Path_11823" data-name="Path 11823" class="cls-2" d="M287.241 132.459h-50.773V152.1a1.064 1.064 0 0 1-1.061 1.061h-6.9v19.12a1.437 1.437 0 0 0 1.433 1.433h57.3a1.437 1.437 0 0 0 1.433-1.433v-38.389a1.437 1.437 0 0 0-1.432-1.433z" transform="translate(-180.006 -95.679)"/>
        <path id="Path_11824" data-name="Path 11824" class="cls-3" d="M232.716 249.136v-19.12h-4.211v19.12a1.437 1.437 0 0 0 1.433 1.433h4.211a1.437 1.437 0 0 1-1.433-1.433z" transform="translate(-180.006 -172.531)"/>
        <path id="Path_11825" data-name="Path 11825" class="cls-1" d="M270.371 206.554a1.055 1.055 0 0 0-1.665 0l-6.716 7.969a1.055 1.055 0 0 1-1.665 0l-12.677-15.039a1.054 1.054 0 0 0-1.665 0l-17.477 20.733v2.022a1.3 1.3 0 0 0 1.292 1.292h51.674a1.3 1.3 0 0 0 1.292-1.292v-.983z" transform="translate(-174.789 -145.895)"/>
        <circle id="Ellipse_1010" data-name="Ellipse 1010" class="cls-1" cx="5.372" cy="5.372" r="5.372" transform="translate(93.257 42.069)"/>
        <path id="Path_11826" data-name="Path 11826" class="cls-4" d="M442.362 162.749a5.374 5.374 0 0 1 3.888-5.163 5.373 5.373 0 1 0 0 10.326 5.373 5.373 0 0 1-3.888-5.163z" transform="translate(-346.136 -115.308)"/>
        <path id="Path_11827" data-name="Path 11827" class="cls-5" d="M56.674 67.664a1.064 1.064 0 0 1-1.061 1.061H1.061A1.064 1.064 0 0 1 0 67.664V26.06A1.064 1.064 0 0 1 1.061 25h54.552a1.064 1.064 0 0 1 1.061 1.061z" transform="translate(0 -11.027)"/>
        <path id="Path_11828" data-name="Path 11828" class="cls-1" d="M82.5 74.237c0-1.167.827-1.645 1.838-1.061l17.98 10.38a1.122 1.122 0 0 1 0 2.122L84.334 96.059c-1.011.584-1.838.106-1.838-1.061z" transform="translate(-64.987 -48.782)"/>
        <path id="Path_11829" data-name="Path 11829" class="cls-2" d="M86.707 74.546l-2.373-1.37c-1.011-.584-1.838-.106-1.838 1.061V95c0 1.167.827 1.645 1.838 1.061l2.373-1.37z" transform="translate(-64.987 -48.782)"/>
        <g id="Group_1791" data-name="Group 1791" transform="translate(3.294 17.052)">
            <path id="Path_11830" data-name="Path 11830" class="cls-6" d="M230.238 44.606a.639.639 0 0 1-.637.637h-4.457a.639.639 0 0 1-.637-.637V40.15a.639.639 0 0 1 .637-.637h4.456a.639.639 0 0 1 .637.637v4.457z" transform="translate(-180.152 -39.513)"/>
            <path id="Path_11831" data-name="Path 11831" class="cls-6" d="M230.238 82.1a.639.639 0 0 1-.637.637h-4.457a.639.639 0 0 1-.637-.637v-4.452a.639.639 0 0 1 .637-.637h4.456a.639.639 0 0 1 .637.637V82.1z" transform="translate(-180.152 -69.052)"/>
            <path id="Path_11832" data-name="Path 11832" class="cls-6" d="M230.238 119.6a.639.639 0 0 1-.637.637h-4.457a.639.639 0 0 1-.637-.637v-4.457a.639.639 0 0 1 .637-.637h4.456a.639.639 0 0 1 .637.637v4.457z" transform="translate(-180.152 -98.592)"/>
            <path id="Path_11833" data-name="Path 11833" class="cls-6" d="M230.238 157.1a.639.639 0 0 1-.637.637h-4.457a.639.639 0 0 1-.637-.637v-4.457a.639.639 0 0 1 .637-.637h4.456a.639.639 0 0 1 .637.637v4.457z" transform="translate(-180.152 -128.131)"/>
            <path id="Path_11834" data-name="Path 11834" class="cls-6" d="M230.238 194.6a.639.639 0 0 1-.637.637h-4.457a.639.639 0 0 1-.637-.637v-4.457a.639.639 0 0 1 .637-.637h4.456a.639.639 0 0 1 .637.637v4.457z" transform="translate(-180.152 -157.67)"/>
            <path id="Path_11835" data-name="Path 11835" class="cls-6" d="M21.249 44.606a.639.639 0 0 1-.637.637h-4.456a.639.639 0 0 1-.637-.637V40.15a.639.639 0 0 1 .637-.637h4.457a.639.639 0 0 1 .637.637z" transform="translate(-15.519 -39.513)"/>
            <path id="Path_11836" data-name="Path 11836" class="cls-6" d="M21.249 82.1a.639.639 0 0 1-.637.637h-4.456a.639.639 0 0 1-.637-.637v-4.452a.639.639 0 0 1 .637-.637h4.457a.639.639 0 0 1 .637.637z" transform="translate(-15.519 -69.052)"/>
            <path id="Path_11837" data-name="Path 11837" class="cls-6" d="M21.249 119.6a.639.639 0 0 1-.637.637h-4.456a.639.639 0 0 1-.637-.637v-4.457a.639.639 0 0 1 .637-.637h4.457a.639.639 0 0 1 .637.637z" transform="translate(-15.519 -98.592)"/>
            <path id="Path_11838" data-name="Path 11838" class="cls-6" d="M21.249 157.1a.639.639 0 0 1-.637.637h-4.456a.639.639 0 0 1-.637-.637v-4.457a.639.639 0 0 1 .637-.637h4.457a.639.639 0 0 1 .637.637z" transform="translate(-15.519 -128.131)"/>
            <path id="Path_11839" data-name="Path 11839" class="cls-6" d="M21.249 194.6a.639.639 0 0 1-.637.637h-4.456a.639.639 0 0 1-.637-.637v-4.457a.639.639 0 0 1 .637-.637h4.457a.639.639 0 0 1 .637.637z" transform="translate(-15.519 -157.67)"/>
        </g>
        <path id="Path_11840" data-name="Path 11840" class="cls-2" d="M65.012 254.956H28.1a1.064 1.064 0 0 0-1.061 1.061v14.06a51.763 51.763 0 0 0 6.418 13.729h13.389l8.655 8.655c.413.413.75.273.75-.311v-8.344h8.761a1.064 1.064 0 0 0 1.061-1.061v-26.728a1.065 1.065 0 0 0-1.061-1.061z" transform="translate(-21.301 -192.177)"/>
        <path id="Path_11841" data-name="Path 11841" class="cls-4" d="M31.251 256.017a1.064 1.064 0 0 1 1.061-1.061H28.1a1.064 1.064 0 0 0-1.061 1.061v14.06a51.678 51.678 0 0 0 4.211 10.068z" transform="translate(-21.301 -192.177)"/>
        <g id="Group_1792" data-name="Group 1792" transform="translate(13.13 70.146)">
            <path id="Path_11842" data-name="Path 11842" class="cls-7" d="M84.522 292.851H63.455a1.592 1.592 0 0 1 0-3.184h21.067a1.592 1.592 0 0 1 0 3.184z" transform="translate(-61.863 -289.667)"/>
            <path id="Path_11843" data-name="Path 11843" class="cls-7" d="M84.522 318.963H63.455a1.592 1.592 0 0 1 0-3.184h21.067a1.592 1.592 0 0 1 0 3.184z" transform="translate(-61.863 -310.237)"/>
            <path id="Path_11844" data-name="Path 11844" class="cls-7" d="M74.03 345.074H63.455a1.592 1.592 0 0 1 0-3.184H74.03a1.592 1.592 0 0 1 0 3.184z" transform="translate(-61.863 -330.806)"/>
        </g>
        <path id="Path_11845" data-name="Path 11845" class="cls-5" d="M263.517 352.558h-33.451a1.064 1.064 0 0 0-1.061 1.061v25.323a1.064 1.064 0 0 0 1.061 1.058h26.079a51.853 51.853 0 0 0 8.432-4.515v-21.87a1.064 1.064 0 0 0-1.06-1.057z" transform="translate(-180.4 -269.064)"/>
        <path id="Path_11846" data-name="Path 11846" class="cls-6" d="M233.216 378.942v-25.323a1.064 1.064 0 0 1 1.061-1.061h-4.211a1.064 1.064 0 0 0-1.061 1.061v25.323a1.064 1.064 0 0 0 1.061 1.058h4.211a1.065 1.065 0 0 1-1.061-1.058z" transform="translate(-180.4 -269.064)"/>
        <path id="Path_11847" data-name="Path 11847" class="cls-7" d="M285.025 385.375c0-1.167.827-1.645 1.838-1.061l9.917 5.725a1.122 1.122 0 0 1 0 2.122l-9.917 5.725c-1.011.584-1.838.106-1.838-1.061z" transform="translate(-224.53 -293.883)"/>
    </g>
</svg>
