<svg xmlns="http://www.w3.org/2000/svg" viewBox="0 0 123.015 119.431">
    <defs>
        <style>
            .cls-1{fill:#ecf0f1}.cls-2{fill:#e18577}.cls-3{fill:#fff}.cls-4{fill:#707070}.cls-5{fill:#d9d9d9}.cls-6{fill:#666}.cls-7{fill:#e6e5e5}.cls-8{fill:#cccbca}.cls-9{fill:#f2f2f2}
        </style>
    </defs>
    <g id="удобство" transform="translate(-9.27 -19.542)">
        <circle id="Ellipse_1005" data-name="Ellipse 1005" class="cls-1" cx="42.554" cy="42.554" r="42.554" transform="translate(27.181 22.107)"/>
        <path id="Path_6670" data-name="Path 6670" class="cls-2" d="M175.538 281.677l-5.969 1.728-12.3 2.917s-1.5-1.05-2.416 1.76c-.413 1.267-1.578 7.829-2.733 14.654a45.353 45.353 0 0 0 60.307 0c-1.154-6.823-2.319-13.387-2.733-14.654-.914-2.81-2.416-1.76-2.416-1.76l-12.3-2.917-5.969-1.728-6.736.3-6.736-.3z" transform="translate(-112.54 -209.563)"/>
        <path id="Path_6671" data-name="Path 6671" class="cls-3" d="M222.205 243.478h11.215l.909 9.671 1.613 1.325 3.4 2.216-11.531 27.873-11.528-27.873 3.4-2.216 1.614-1.323.908-9.671z" transform="translate(-158.078 -182.453)"/>
        <path id="Path_6673" data-name="Path 6673" class="cls-4" d="M246.481 296.759l.8 2.006-1.766 22.857 3.047 2.387 3.047-2.387-1.766-22.857.8-2.006-2.076-.084z" transform="translate(-178.821 -220.208)"/>
        <path id="Path_6674" data-name="Path 6674" class="cls-5" d="M214.154 283.639l-3.546 1.158-.681 9.207s.188.756.751.688l3.2 1.231a.381.381 0 0 1 .023.485l-2.739 1.92 7.808 17.072q2.1.2 4.244.207l-9.057-31.965zm13.482 31.761l7.806-17.067-2.739-1.92a.379.379 0 0 1 .023-.485l3.2-1.231c.563.069.751-.688.751-.688L236 284.83l-3.436-1.116-9.169 31.892c1.431 0 2.845-.074 4.243-.207z" transform="translate(-153.567 -210.956)"/>
        <path id="Path_6675" data-name="Path 6675" class="cls-3" d="M232.154 160.075c0 .838.32 1.66.3 2.465 3-.532 1.554 7.99-.146 9.163-.135.092-.468-.114-.748-.286-.59 3.135-5.623 11.511-8.823 15.037-.889.979-6.325.963-7.2.038-3.277-3.445-8.3-11.921-8.9-15.073-.28.172-.613.378-.748.286-1.7-1.172-3.151-9.7-.146-9.163-.024-.8.3-1.625.3-2.465.166-6.618 6.447-9.922 13.06-9.95 6.613.028 12.893 3.332 13.06 9.95z" transform="translate(-149.359 -116.199)"/>
        <path id="Path_6676" data-name="Path 6676" class="cls-6" d="M229.4 143.865a5.018 5.018 0 0 1 4.781 4.355 41.688 41.688 0 0 1 .215 6.645 3.074 3.074 0 0 0-2.258 2.447c-.252 1.963-.073 1.963-.073 1.963l-.727-.156-.518-3.365c-3-1.8.023-4.454-2.978-5.076-8.1 5.515-15.256 4.571-18.48 1.977 0 0 .752 2.714.173 3.682a4 4 0 0 0-.235 2.492l-.754-.035s.137-4-1.537-3.98c-6.358-10.024 13.77-22.476 22.389-10.948z" transform="translate(-150.631 -108.475)"/>
        <g id="Group_1811" data-name="Group 1811" transform="translate(60.397 69.315)">
            <path id="Path_6677" data-name="Path 6677" class="cls-3" d="M226.579 272.037c.236.017-2.745 3.457-2.745 3.457l2.537 8.888 6.8-5.193c-3.74-1.879-5.971-4.311-6.592-7.152z" transform="translate(-223.834 -272.037)"/>
            <path id="Path_6678" data-name="Path 6678" class="cls-3" d="M262.594 272.037c-.236.017 2.743 3.457 2.743 3.457l-2.537 8.888-6.8-5.193c3.741-1.879 5.973-4.311 6.594-7.152z" transform="translate(-246.663 -272.037)"/>
        </g>
        <path id="Path_6679" data-name="Path 6679" class="cls-2" d="M59.591 278.73l-3.03.877-6.243 1.482s-.762-.534-1.227.893c-.209.644-.8 3.974-1.386 7.437a23.044 23.044 0 0 0 23.746 4.227 42.279 42.279 0 0 1-5.323-14.9l-3.119.139-3.419-.153z" transform="translate(-38.435 -207.472)"/>
        <path id="Path_6680" data-name="Path 6680" class="cls-3" d="M83.274 259.344h5.465a42.541 42.541 0 0 0 1.6 10.661l-4.22 10.195-5.853-14.15 1.727-1.125.819-.672.46-4.909z" transform="translate(-61.544 -193.713)"/>
        <path id="Path_6682" data-name="Path 6682" class="cls-4" d="M95.6 286.384l.4 1.016-.9 11.6 1.546 1.211L98.2 299l-.9-11.6.4-1.018-1.054-.043-1.054.043z" transform="translate(-72.078 -212.873)"/>
        <path id="Path_6683" data-name="Path 6683" class="cls-5" d="M79.194 279.727l-1.8.587-.346 4.673s.1.385.381.35l1.624.625a.194.194 0 0 1 .012.247l-1.39.974 3.962 8.663q1.064.1 2.153.1l-4.6-16.224zm6.842 16.119l3.372-7.372a42.273 42.273 0 0 1-1.768-5.59l-3.756 13.066c.727 0 1.444-.038 2.153-.1z" transform="translate(-59.261 -208.179)"/>
        <path id="Path_6684" data-name="Path 6684" class="cls-3" d="M75.073 211.722c0 .456-.162.9-.15 1.339-1.525-.29-.788 4.346.075 4.984.069.051.237-.062.379-.156.3 1.7 2.853 6.261 4.478 8.179.452.532 3.21.523 3.656.02a14.36 14.36 0 0 0 .992-1.283q-.191-2.011-.194-4.072a42.511 42.511 0 0 1 2.024-13 7.731 7.731 0 0 0-4.631-1.429c-3.356.015-6.544 1.813-6.629 5.413z" transform="translate(-57.126 -156.073)"/>
        <path id="Path_6685" data-name="Path 6685" class="cls-6" d="M78.381 202.913a2.6 2.6 0 0 0-2.427 2.368 24.447 24.447 0 0 0-.109 3.615 1.613 1.613 0 0 1 1.146 1.33c.127 1.069.036 1.069.036 1.069l.369-.084.263-1.83c1.523-.976-.011-2.423 1.512-2.761 2.737 2 5.259 2.436 7.124 2.092a42.374 42.374 0 0 1 1.73-6.43c-2.715-2.269-7.137-2.958-9.643.634z" transform="translate(-58.39 -151.879)"/>
        <g id="Group_1812" data-name="Group 1812" transform="translate(19.836 69.837)">
            <path id="Path_6686" data-name="Path 6686" class="cls-3" d="M85.5 273.835a16.862 16.862 0 0 1-1.393 1.754l1.287 4.51 3.451-2.636c-1.9-.953-3.032-2.188-3.347-3.63z" transform="translate(-84.106 -273.834)"/>
            <path id="Path_6687" data-name="Path 6687" class="cls-3" d="M104.254 280.958l-.373 1.307-3.453-2.636a6.4 6.4 0 0 0 3.038-2.746q.3 2.072.786 4.075z" transform="translate(-95.69 -275.998)"/>
        </g>
        <path id="Path_6688" data-name="Path 6688" class="cls-2" d="M390.631 278.73l-1.873.543a42.267 42.267 0 0 1-4.814 13.639 23.031 23.031 0 0 0 25.41-3.492c-.586-3.463-1.177-6.794-1.386-7.437-.464-1.426-1.227-.893-1.227-.893l-6.243-1.482-3.029-.877-3.419.153-3.419-.153z" transform="translate(-277.07 -207.472)"/>
        <path id="Path_6689" data-name="Path 6689" class="cls-3" d="M402.379 259.343h5.69l.461 4.907.819.672 1.727 1.125-5.853 14.147-5.533-13.373c.075-.37.143-.743.209-1.117l1.2-.78.819-.672.46-4.909z" transform="translate(-288.245 -193.712)"/>
        <path id="Path_6691" data-name="Path 6691" class="cls-4" d="M413.928 286.384l.4 1.018-.9 11.6 1.546 1.211L416.53 299l-.9-11.6.4-1.018-1.054-.043-1.054.043z" transform="translate(-298 -212.873)"/>
        <path id="Path_6692" data-name="Path 6692" class="cls-5" d="M398.09 279.727l-.643.209a42.292 42.292 0 0 1-1.268 5.379.269.269 0 0 0 .146.022l1.624.625a.193.193 0 0 1 .012.247l-1.39.974 3.962 8.663q1.064.1 2.153.1l-4.6-16.224zm6.842 16.119l3.962-8.663-1.39-.974a.193.193 0 0 1 .012-.247l1.624-.625c.286.035.381-.35.381-.35l-.345-4.658-1.744-.566-4.653 16.186c.727 0 1.444-.038 2.153-.1z" transform="translate(-285.753 -208.179)"/>
        <path id="Path_6693" data-name="Path 6693" class="cls-3" d="M398.994 221.676a28.948 28.948 0 0 0 2.859 4.393c.452.532 3.21.523 3.656.02 1.664-1.873 4.215-6.484 4.516-8.2.142.092.311.205.379.156.863-.637 1.6-5.274.075-4.984.012-.437-.15-.884-.15-1.339-.085-3.6-3.271-5.4-6.629-5.413-2.624.012-5.146 1.113-6.161 3.314a42.572 42.572 0 0 1 1.468 11.11c0 .315-.006.629-.012.943z" transform="translate(-286.719 -156.073)"/>
        <path id="Path_6694" data-name="Path 6694" class="cls-6" d="M398.131 202.906a2.55 2.55 0 0 0-1.978 1.121 42.5 42.5 0 0 1 1.266 5.338c1.507-.976-.017-2.418 1.5-2.755 4.113 3 7.743 2.486 9.38 1.076 0 0-.382 1.476-.087 2a2.324 2.324 0 0 1 .118 1.356l.382-.019s-.07-2.173.78-2.164c3.227-5.452-6.989-12.224-11.363-5.955z" transform="translate(-285.734 -151.873)"/>
        <g id="Group_1813" data-name="Group 1813" transform="translate(112.241 69.837)">
            <path id="Path_6695" data-name="Path 6695" class="cls-3" d="M403.823 273.835a16.87 16.87 0 0 1-1.393 1.754l1.287 4.51 3.451-2.636c-1.9-.953-3.032-2.188-3.347-3.63z" transform="translate(-402.43 -273.834)"/>
            <path id="Path_6696" data-name="Path 6696" class="cls-3" d="M422.1 273.835a16.865 16.865 0 0 0 1.393 1.754l-1.287 4.51-3.453-2.636c1.9-.953 3.032-2.188 3.347-3.63z" transform="translate(-414.018 -273.834)"/>
        </g>
        <path id="Path_6697" data-name="Path 6697" class="cls-4" d="M251.431 409.9v8.265H245.1V409.9c1.046.075 2.1.115 3.164.115s2.122-.042 3.167-.115z" transform="translate(-178.532 -300.564)"/>
        <path id="Path_6698" data-name="Path 6698" class="cls-7" d="M145.688 100.573a45.12 45.12 0 1 1-31.9 13.215 44.982 44.982 0 0 1 31.9-13.215zm28.275 16.845a39.987 39.987 0 1 0 11.712 28.275 39.869 39.869 0 0 0-11.713-28.275z" transform="translate(-75.953 -81.031)"/>
        <path id="Path_6699" data-name="Path 6699" class="cls-8" d="M229.971 438.365h11.771a2.36 2.36 0 0 1 2.353 2.353v18.565a74.467 74.467 0 0 1-16.479 0v-18.565a2.36 2.36 0 0 1 2.353-2.353z" transform="translate(-166.121 -320.767)"/>
        <path id="Path_6700" data-name="Path 6700" class="cls-9" d="M227.622 448.347H244.1v1.282h-16.478zm0 2.49H244.1v1.282h-16.478z" transform="translate(-166.125 -327.851)"/>
        <g id="Group_1814" data-name="Group 1814" transform="translate(29.938 26.497)">
            <path id="Path_6701" data-name="Path 6701" class="cls-3" d="M146.412 200.86a40.23 40.23 0 0 1 0-76.329 42.968 42.968 0 0 0 0 76.329z" transform="translate(-118.905 -124.531)"/>
            <path id="Path_6702" data-name="Path 6702" class="cls-3" d="M312.824 206.245c12.831-4.8 22.083-18.4 22.083-34.436s-9.252-29.636-22.083-34.436a33.949 33.949 0 0 1 4.206 2.9c9.742 6.247 16.311 18.03 16.311 31.539s-6.57 25.295-16.314 31.541a34.124 34.124 0 0 1-4.2 2.9z" transform="translate(-256.532 -133.645)"/>
        </g>
    </g>
</svg>
