<svg xmlns="http://www.w3.org/2000/svg" viewBox="0 0 86.883 94">
    <defs>
        <style>
            .cls-1{fill:#fff}.cls-2{fill:#ecf0f1}.cls-3{fill:#e18577}.cls-4{fill:#e4e4e4}.cls-5{fill:#707070}.cls-6{fill:#666}.cls-7{fill:#807d7d}
        </style>
    </defs>
    <g id="video-chat" transform="translate(-87.979 -82.767)">
        <path id="Path_6673" data-name="Path 6673" class="cls-1" d="M354.5 233.056h-16.428l-1.331 13.844-2.363 1.9-4.987 3.174 11.128 26.287h11.538l11.129-26.287-4.986-3.174-2.365-1.9-1.33-13.85z" transform="translate(-214.866 -101.497)"/>
        <path id="Path_6674" data-name="Path 6674" class="cls-2" d="M352.746 268.96l13.62 4.346-17.41 24.094H331l-15.084-25.356 9.623-3.05 8.474 5.982h10.159z" transform="translate(-207.686 -120.631)"/>
        <path id="Path_6675" data-name="Path 6675" class="cls-3" d="M364.65 280.519l-1.165 2.871 1.59 20.1h-6.934l1.59-20.1-1.165-2.871 3.041-.122 3.042.122z" transform="translate(-230.188 -126.726)"/>
        <path id="Path_6676" data-name="Path 6676" class="cls-4" d="M329.407 268.8l24.091 7.69s3.119 1.62 4.06 6.553c.817 4.278 1.276 8.643 1.886 14.269h-39.616zm-56.846 28.512c.609-5.626 1.069-9.992 1.887-14.269.94-4.932 4.059-6.553 4.059-6.553l23.927-7.584 9.687 28.406z" transform="translate(-184.581 -120.546)"/>
        <path id="Path_6677" data-name="Path 6677" class="cls-5" d="M356.61 268.8l5.2 1.659 1 13.185s-.276 1.084-1.1.986l-4.689 1.763a.538.538 0 0 0-.033.7l4.014 2.75-3.965 7.473h-10l9.573-28.516zm-27.229 28.512l-3.965-7.473 4.013-2.75a.537.537 0 0 0-.033-.7l-4.689-1.763c-.825.1-1.1-.986-1.1-.986l.993-13.14 5.036-1.6 9.687 28.406z" transform="translate(-211.784 -120.546)"/>
        <path id="Path_6678" data-name="Path 6678" class="cls-1" d="M359.464 155.336c0 1.287.469 2.547.435 3.782 4.4-.817 2.277 12.263-.215 14.061-.2.143-.685-.176-1.1-.438-.864 4.81-8.239 17.665-12.93 23.076-1.3 1.5-9.267 1.476-10.556.056-4.8-5.286-12.17-18.3-13.039-23.132-.411.262-.9.581-1.1.438-2.491-1.8-4.618-14.877-.213-14.061-.036-1.235.434-2.495.434-3.782.244-10.157 9.447-15.228 19.138-15.271 9.699.044 18.902 5.114 19.146 15.271z" transform="translate(-208.905 -51.942)"/>
        <path id="Path_6679" data-name="Path 6679" class="cls-6" d="M354.432 136.787a7.458 7.458 0 0 1 7.006 6.682 67.114 67.114 0 0 1 .316 10.2 4.6 4.6 0 0 0-3.309 3.754c-.369 3.013-.106 3.013-.106 3.013l-1.065-.24-.758-5.164c-4.4-2.754.034-6.836-4.365-7.791-11.876 8.465-22.355 7.016-27.081 3.034 0 0 1.1 4.165.253 5.65a6.4 6.4 0 0 0-.343 3.825l-1.105-.053s.2-6.134-2.251-6.107c-9.318-15.384 20.178-34.493 32.808-16.8z" transform="translate(-209.774 -46.413)"/>
        <g id="Group_1789" data-name="Group 1789" transform="translate(117.738 143.43)">
            <path id="Path_6680" data-name="Path 6680" class="cls-1" d="M375.226 258.471c-.344.024 4.022 4.95 4.022 4.95l-3.716 12.728-9.966-7.436c5.482-2.69 8.753-6.174 9.66-10.241z" transform="translate(-351.882 -258.471)"/>
            <path id="Path_6681" data-name="Path 6681" class="cls-1" d="M340.292 258.471c.344.024-4.022 4.95-4.022 4.95l3.717 12.728 9.966-7.436c-5.482-2.69-8.754-6.174-9.662-10.241z" transform="translate(-336.27 -258.471)"/>
        </g>
        <path id="Path_6682" data-name="Path 6682" class="cls-3" d="M360.017 155.727c2.084-10.4-1.945-17.666-8.273-21.695a25.55 25.55 0 0 0-13.505-3.789 24.463 24.463 0 0 0-13.382 3.7c-6.089 3.964-9.873 11.184-7.75 21.78l-1.62.323c-2.28-11.376 1.85-19.172 8.474-23.483a26.113 26.113 0 0 1 14.284-3.969 27.2 27.2 0 0 1 14.382 4.047c6.869 4.373 11.251 12.22 9.009 23.405l-1.62-.323z" transform="translate(-207.12 -45.831)"/>
        <path id="Path_6683" data-name="Path 6683" class="cls-7" d="M317.856 182.672a1.843 1.843 0 0 0-1.613 2.041l1.432 12.209a1.84 1.84 0 1 0 3.654-.429l-1.429-12.209a1.844 1.844 0 0 0-2.044-1.612z" transform="translate(-207.853 -74.641)"/>
        <path id="Path_6684" data-name="Path 6684" class="cls-3" d="M310.64 187.34l1.783-.209 1.4 11.923-1.8.212a1.787 1.787 0 0 1-1.978-1.563l-.982-8.37a1.8 1.8 0 0 1 1.577-1.993z" transform="translate(-204.029 -77.024)"/>
        <path id="Path_6685" data-name="Path 6685" class="cls-7" d="M407.442 182.672a1.842 1.842 0 0 1 1.612 2.041l-1.432 12.209a1.839 1.839 0 1 1-3.654-.429l1.432-12.209a1.844 1.844 0 0 1 2.041-1.612z" transform="translate(-254.603 -74.641)"/>
        <g id="Group_1790" data-name="Group 1790" transform="translate(135.312 110.107)">
            <path id="Path_6686" data-name="Path 6686" class="cls-3" d="M415.051 187.34l-1.784-.209-1.4 11.923 1.8.212a1.787 1.787 0 0 0 1.978-1.563l.982-8.37a1.8 1.8 0 0 0-1.573-1.993z" transform="translate(-394.131 -187.131)"/>
            <path id="Path_6687" data-name="Path 6687" class="cls-3" d="M392.361 210.5a18.443 18.443 0 0 1-8.317 11.654 24.813 24.813 0 0 1-10.15 3.569v1.657a26.526 26.526 0 0 0 11.035-3.838 20.042 20.042 0 0 0 9.136-13.042z" transform="translate(-373.894 -199.582)"/>
        </g>
        <path id="Path_6688" data-name="Path 6688" class="cls-6" d="M363 239.836h5.6a.73.73 0 0 1 .729.728v2.914a.731.731 0 0 1-.729.728H363a.73.73 0 0 1-.728-.728v-2.914a.73.73 0 0 1 .728-.728z" transform="translate(-232.387 -105.111)"/>
    </g>
</svg>
