<svg xmlns="http://www.w3.org/2000/svg" viewBox="0 0 114.015 103.828">
    <defs>
        <style>
            .cls-1{fill:#f2f2f2}.cls-2{fill:#d9d9d9}.cls-3{fill:#fff}.cls-4{fill:#666}.cls-5{fill:#474f59}.cls-6{fill:#e18577}.cls-7{fill:#cccbca}.cls-8{fill:#232e38}
        </style>
    </defs>
    <g id="_101-laptop-2" data-name="101-laptop-2" transform="translate(0 -22.871)">
        <path id="Path_1666" data-name="Path 1666" class="cls-1" d="M338.8 118.815V153.4h-49.612v-41.707h42.495z" transform="translate(-224.79 -69.043)"/>
        <g id="Group_697" data-name="Group 697" transform="translate(0 42.65)">
            <path id="Path_1667" data-name="Path 1667" class="cls-2" d="M487.14 118.815h-7.122v-7.122z" transform="translate(-373.125 -111.693)"/>
            <path id="Path_1668" data-name="Path 1668" class="cls-2" d="M0 225.426v41.5a3.608 3.608 0 0 0 3.6 3.61h69.693a3.606 3.606 0 0 0 3.6-3.61v-41.5z" transform="translate(0 -200.099)"/>
        </g>
        <g id="Group_698" data-name="Group 698" transform="translate(4.584 72.474)">
            <path id="Path_1669" data-name="Path 1669" class="cls-3" d="M148.877 374.586a.289.289 0 0 1-.289.291h-18.52a.287.287 0 0 1-.286-.291v-10.994a.288.288 0 0 1 .286-.292h18.521a.29.29 0 0 1 .289.292v10.994z" transform="translate(-105.465 -337.095)"/>
            <path id="Path_1670" data-name="Path 1670" class="cls-3" d="M24.461 249.275a.228.228 0 0 1-.227.227H20.8a.223.223 0 0 1-.217-.227v-3.429a.219.219 0 0 1 .217-.224h3.434a.225.225 0 0 1 .227.224z" transform="translate(-20.583 -245.622)"/>
            <path id="Path_1671" data-name="Path 1671" class="cls-3" d="M56.376 270.491a.221.221 0 0 1-.219.226h-3.432a.227.227 0 0 1-.227-.226v-3.433a.229.229 0 0 1 .227-.221h3.432a.223.223 0 0 1 .219.221z" transform="translate(-45.391 -262.113)"/>
            <path id="Path_1672" data-name="Path 1672" class="cls-3" d="M61.406 291.719a.223.223 0 0 1-.221.223h-3.43a.226.226 0 0 1-.23-.223v-3.434a.226.226 0 0 1 .23-.224h3.43a.223.223 0 0 1 .221.224v3.434z" transform="translate(-49.299 -278.611)"/>
            <path id="Path_1673" data-name="Path 1673" class="cls-3" d="M51.034 312.94a.226.226 0 0 1-.229.225h-3.433a.224.224 0 0 1-.219-.225v-3.432a.222.222 0 0 1 .219-.224h3.434a.224.224 0 0 1 .229.224v3.432z" transform="translate(-41.236 -295.107)"/>
            <path id="Path_1674" data-name="Path 1674" class="cls-3" d="M24.461 334.75a.226.226 0 0 1-.227.225H20.8a.22.22 0 0 1-.217-.225v-4.03a.222.222 0 0 1 .217-.224h3.434a.227.227 0 0 1 .227.224z" transform="translate(-20.583 -311.596)"/>
            <path id="Path_1675" data-name="Path 1675" class="cls-3" d="M45.6 334.75a.221.221 0 0 1-.22.225h-3.429a.223.223 0 0 1-.228-.225v-4.03a.226.226 0 0 1 .228-.224h3.431a.223.223 0 0 1 .22.224z" transform="translate(-37.015 -311.596)"/>
            <path id="Path_1676" data-name="Path 1676" class="cls-3" d="M66.789 334.75a.228.228 0 0 1-.229.225h-3.43a.221.221 0 0 1-.22-.225v-4.03a.224.224 0 0 1 .22-.224h3.431a.231.231 0 0 1 .229.224l-.001 4.03z" transform="translate(-53.484 -311.596)"/>
            <path id="Path_1677" data-name="Path 1677" class="cls-3" d="M247.532 334.75a.229.229 0 0 1-.229.225h-3.432a.227.227 0 0 1-.226-.225v-4.03a.23.23 0 0 1 .226-.224h3.429a.232.232 0 0 1 .229.224z" transform="translate(-193.973 -311.596)"/>
            <path id="Path_1678" data-name="Path 1678" class="cls-3" d="M268.756 342.571a.219.219 0 0 1-.218.225h-3.43a.224.224 0 0 1-.231-.225v-1.791a.224.224 0 0 1 .231-.223h3.43a.219.219 0 0 1 .218.223z" transform="translate(-210.477 -319.416)"/>
            <path id="Path_1679" data-name="Path 1679" class="cls-3" d="M311.183 342.571a.22.22 0 0 1-.218.225h-3.431a.229.229 0 0 1-.229-.225v-1.791a.229.229 0 0 1 .229-.223h3.431a.22.22 0 0 1 .218.223z" transform="translate(-243.456 -319.416)"/>
            <path id="Path_1680" data-name="Path 1680" class="cls-3" d="M89.166 334.75a.221.221 0 0 1-.217.225h-4.666a.223.223 0 0 1-.226-.225v-4.03a.225.225 0 0 1 .226-.224h4.666a.223.223 0 0 1 .217.224z" transform="translate(-69.922 -311.596)"/>
            <path id="Path_1681" data-name="Path 1681" class="cls-3" d="M222.018 334.75a.223.223 0 0 1-.229.225h-4.663a.225.225 0 0 1-.222-.225v-4.03a.227.227 0 0 1 .222-.224h4.664a.225.225 0 0 1 .229.224v4.03z" transform="translate(-173.186 -311.596)"/>
            <path id="Path_1682" data-name="Path 1682" class="cls-3" d="M133.589 334.75a.222.222 0 0 1-.22.225h-22.338a.223.223 0 0 1-.221-.225v-4.03a.225.225 0 0 1 .221-.224h22.338a.224.224 0 0 1 .22.224z" transform="translate(-90.718 -311.596)"/>
            <path id="Path_1683" data-name="Path 1683" class="cls-3" d="M72.229 312.94a.222.222 0 0 1-.217.225h-3.433a.231.231 0 0 1-.227-.225v-3.432a.229.229 0 0 1 .227-.224h3.432a.22.22 0 0 1 .217.224v3.432z" transform="translate(-57.715 -295.107)"/>
            <path id="Path_1684" data-name="Path 1684" class="cls-3" d="M93.463 312.94a.223.223 0 0 1-.217.225h-3.433a.226.226 0 0 1-.228-.225v-3.432a.224.224 0 0 1 .228-.224h3.433a.222.222 0 0 1 .217.224z" transform="translate(-74.219 -295.107)"/>
            <path id="Path_1685" data-name="Path 1685" class="cls-3" d="M114.692 312.94a.226.226 0 0 1-.23.225h-3.431a.225.225 0 0 1-.221-.225v-3.432a.223.223 0 0 1 .221-.224h3.431a.224.224 0 0 1 .23.224z" transform="translate(-90.718 -295.107)"/>
            <path id="Path_1686" data-name="Path 1686" class="cls-3" d="M135.9 312.94a.224.224 0 0 1-.22.225h-3.431a.227.227 0 0 1-.227-.225v-3.432a.225.225 0 0 1 .227-.224h3.431a.222.222 0 0 1 .22.224z" transform="translate(-107.203 -295.107)"/>
            <path id="Path_1687" data-name="Path 1687" class="cls-3" d="M157.127 312.94a.226.226 0 0 1-.229.225h-3.424a.226.226 0 0 1-.227-.225v-3.432a.225.225 0 0 1 .227-.224h3.426a.224.224 0 0 1 .229.224z" transform="translate(-123.705 -295.107)"/>
            <path id="Path_1688" data-name="Path 1688" class="cls-3" d="M178.358 312.94a.224.224 0 0 1-.226.225H174.7a.224.224 0 0 1-.222-.225v-3.432a.222.222 0 0 1 .222-.224h3.433a.222.222 0 0 1 .226.224z" transform="translate(-140.207 -295.107)"/>
            <path id="Path_1689" data-name="Path 1689" class="cls-3" d="M199.563 312.94a.224.224 0 0 1-.22.225h-3.434a.225.225 0 0 1-.225-.225v-3.432a.223.223 0 0 1 .225-.224h3.434a.222.222 0 0 1 .22.224z" transform="translate(-156.692 -295.107)"/>
            <path id="Path_1690" data-name="Path 1690" class="cls-3" d="M220.786 312.94a.225.225 0 0 1-.226.225h-3.434a.227.227 0 0 1-.222-.225v-3.432a.225.225 0 0 1 .222-.224h3.434a.223.223 0 0 1 .226.224z" transform="translate(-173.186 -295.107)"/>
            <path id="Path_1691" data-name="Path 1691" class="cls-3" d="M242.022 312.94a.229.229 0 0 1-.226.225h-3.434a.225.225 0 0 1-.222-.225v-3.432a.223.223 0 0 1 .222-.224h3.438a.227.227 0 0 1 .226.224z" transform="translate(-189.694 -295.107)"/>
            <path id="Path_1692" data-name="Path 1692" class="cls-3" d="M263.224 312.94a.224.224 0 0 1-.221.225h-3.431a.226.226 0 0 1-.229-.225v-3.432a.225.225 0 0 1 .229-.224H263a.223.223 0 0 1 .221.224z" transform="translate(-206.175 -295.107)"/>
            <path id="Path_1693" data-name="Path 1693" class="cls-3" d="M290.538 312.94a.221.221 0 0 1-.215.225h-9.352a.223.223 0 0 1-.226-.225v-3.432a.222.222 0 0 1 .226-.224h9.352a.22.22 0 0 1 .215.224z" transform="translate(-222.811 -295.107)"/>
            <path id="Path_1694" data-name="Path 1694" class="cls-3" d="M82.641 291.719a.222.222 0 0 1-.226.223H78.98a.222.222 0 0 1-.219-.223v-3.434a.222.222 0 0 1 .219-.224h3.434a.222.222 0 0 1 .226.224v3.434z" transform="translate(-65.806 -278.611)"/>
            <path id="Path_1695" data-name="Path 1695" class="cls-3" d="M103.848 291.719a.222.222 0 0 1-.22.223H100.2a.224.224 0 0 1-.225-.223v-3.434a.224.224 0 0 1 .225-.224h3.432a.222.222 0 0 1 .22.224z" transform="translate(-82.292 -278.611)"/>
            <path id="Path_1696" data-name="Path 1696" class="cls-3" d="M125.076 291.719a.223.223 0 0 1-.226.223h-3.434a.223.223 0 0 1-.219-.223v-3.434a.223.223 0 0 1 .219-.224h3.434a.223.223 0 0 1 .226.224z" transform="translate(-98.793 -278.611)"/>
            <path id="Path_1697" data-name="Path 1697" class="cls-3" d="M146.31 291.719a.231.231 0 0 1-.226.223h-3.434a.223.223 0 0 1-.22-.223v-3.434a.222.222 0 0 1 .22-.224h3.434a.231.231 0 0 1 .226.224z" transform="translate(-115.297 -278.611)"/>
            <path id="Path_1698" data-name="Path 1698" class="cls-3" d="M167.5 291.719a.224.224 0 0 1-.22.223h-3.432a.228.228 0 0 1-.23-.223v-3.434a.228.228 0 0 1 .23-.224h3.432a.224.224 0 0 1 .22.224z" transform="translate(-131.769 -278.611)"/>
            <path id="Path_1699" data-name="Path 1699" class="cls-3" d="M188.743 291.719a.223.223 0 0 1-.226.223h-3.432a.222.222 0 0 1-.218-.223v-3.434a.222.222 0 0 1 .218-.224h3.432a.223.223 0 0 1 .226.224v3.434z" transform="translate(-148.283 -278.611)"/>
            <path id="Path_1700" data-name="Path 1700" class="cls-3" d="M209.95 291.719a.228.228 0 0 1-.224.223h-3.432a.228.228 0 0 1-.226-.223v-3.434a.228.228 0 0 1 .226-.224h3.432a.227.227 0 0 1 .224.224v3.434z" transform="translate(-164.763 -278.611)"/>
            <path id="Path_1701" data-name="Path 1701" class="cls-3" d="M231.172 291.719a.223.223 0 0 1-.221.223h-3.431a.225.225 0 0 1-.228-.223v-3.434a.225.225 0 0 1 .228-.224h3.431a.223.223 0 0 1 .221.224z" transform="translate(-181.261 -278.611)"/>
            <path id="Path_1702" data-name="Path 1702" class="cls-3" d="M252.4 291.719a.223.223 0 0 1-.227.223h-3.433a.223.223 0 0 1-.22-.223v-3.434a.222.222 0 0 1 .22-.224h3.432a.223.223 0 0 1 .227.224v3.434z" transform="translate(-197.765 -278.611)"/>
            <path id="Path_1703" data-name="Path 1703" class="cls-3" d="M273.6 291.719a.225.225 0 0 1-.221.223h-3.429a.23.23 0 0 1-.229-.223v-3.434a.23.23 0 0 1 .229-.224h3.432a.225.225 0 0 1 .221.224z" transform="translate(-214.242 -278.611)"/>
            <path id="Path_1704" data-name="Path 1704" class="cls-3" d="M294.841 291.719a.223.223 0 0 1-.22.223h-3.433a.222.222 0 0 1-.225-.223v-3.434a.222.222 0 0 1 .225-.224h3.433a.223.223 0 0 1 .22.224z" transform="translate(-230.753 -278.611)"/>
            <path id="Path_1705" data-name="Path 1705" class="cls-3" d="M77.6 270.491a.224.224 0 0 1-.224.226h-3.437a.226.226 0 0 1-.224-.226v-3.433a.228.228 0 0 1 .224-.221h3.436a.226.226 0 0 1 .224.221z" transform="translate(-61.883 -262.113)"/>
            <path id="Path_1706" data-name="Path 1706" class="cls-3" d="M98.842 270.491a.229.229 0 0 1-.23.226h-3.431a.222.222 0 0 1-.22-.226v-3.433a.224.224 0 0 1 .22-.221h3.431a.232.232 0 0 1 .23.221z" transform="translate(-78.398 -262.113)"/>
            <path id="Path_1707" data-name="Path 1707" class="cls-3" d="M120.038 270.491a.223.223 0 0 1-.22.226h-3.432a.225.225 0 0 1-.228-.226v-3.433a.227.227 0 0 1 .228-.221h3.432a.225.225 0 0 1 .22.221z" transform="translate(-94.874 -262.113)"/>
            <path id="Path_1708" data-name="Path 1708" class="cls-3" d="M141.267 270.491a.223.223 0 0 1-.224.226h-3.434a.222.222 0 0 1-.221-.226v-3.433a.224.224 0 0 1 .221-.221h3.434a.225.225 0 0 1 .224.221z" transform="translate(-111.377 -262.113)"/>
            <path id="Path_1709" data-name="Path 1709" class="cls-3" d="M162.5 270.491a.23.23 0 0 1-.23.226h-3.43a.225.225 0 0 1-.22-.226v-3.433a.226.226 0 0 1 .22-.221h3.432a.233.233 0 0 1 .23.221z" transform="translate(-127.881 -262.113)"/>
            <path id="Path_1710" data-name="Path 1710" class="cls-3" d="M183.7 270.491a.219.219 0 0 1-.217.226h-3.434a.225.225 0 0 1-.227-.226v-3.433a.227.227 0 0 1 .227-.221h3.434a.222.222 0 0 1 .217.221z" transform="translate(-144.359 -262.113)"/>
            <path id="Path_1711" data-name="Path 1711" class="cls-3" d="M204.94 270.491a.223.223 0 0 1-.227.226h-3.432a.222.222 0 0 1-.219-.226v-3.433a.223.223 0 0 1 .219-.221h3.432a.224.224 0 0 1 .227.221v3.433z" transform="translate(-160.872 -262.113)"/>
            <path id="Path_1712" data-name="Path 1712" class="cls-3" d="M226.151 270.491a.231.231 0 0 1-.23.226h-3.431a.228.228 0 0 1-.227-.226v-3.433a.23.23 0 0 1 .227-.221h3.431a.234.234 0 0 1 .23.221z" transform="translate(-177.351 -262.113)"/>
            <path id="Path_1713" data-name="Path 1713" class="cls-3" d="M247.371 270.491a.221.221 0 0 1-.216.226h-3.435a.223.223 0 0 1-.226-.226v-3.433a.225.225 0 0 1 .226-.221h3.435a.223.223 0 0 1 .216.221z" transform="translate(-193.855 -262.113)"/>
            <path id="Path_1714" data-name="Path 1714" class="cls-3" d="M268.612 270.491a.224.224 0 0 1-.226.226h-3.432a.222.222 0 0 1-.218-.226v-3.433a.224.224 0 0 1 .218-.221h3.432a.226.226 0 0 1 .226.221v3.433z" transform="translate(-210.366 -262.113)"/>
            <path id="Path_1715" data-name="Path 1715" class="cls-3" d="M289.8 270.491a.22.22 0 0 1-.217.226h-3.435a.231.231 0 0 1-.226-.226v-3.433a.233.233 0 0 1 .226-.221h3.435a.222.222 0 0 1 .217.221z" transform="translate(-226.834 -262.113)"/>
            <path id="Path_1716" data-name="Path 1716" class="cls-3" d="M26.85 270.491a.224.224 0 0 1-.23.226H20.8a.222.222 0 0 1-.217-.226v-3.433a.223.223 0 0 1 .217-.221h5.82a.227.227 0 0 1 .23.221v3.433z" transform="translate(-20.583 -262.113)"/>
            <path id="Path_1717" data-name="Path 1717" class="cls-3" d="M302.85 249.275a.224.224 0 0 1-.218.227h-5.823a.225.225 0 0 1-.225-.227v-3.429a.222.222 0 0 1 .225-.224h5.823a.221.221 0 0 1 .218.224z" transform="translate(-235.123 -245.622)"/>
            <path id="Path_1718" data-name="Path 1718" class="cls-3" d="M27.963 291.719a.224.224 0 0 1-.223.223H20.8a.222.222 0 0 1-.217-.223v-3.434a.221.221 0 0 1 .217-.224h6.94a.223.223 0 0 1 .223.224z" transform="translate(-20.583 -278.611)"/>
            <path id="Path_1719" data-name="Path 1719" class="cls-3" d="M25.652 312.94a.224.224 0 0 1-.218.225H20.8a.223.223 0 0 1-.217-.225v-3.432a.22.22 0 0 1 .217-.224h4.634a.222.222 0 0 1 .218.224v3.432z" transform="translate(-20.583 -295.107)"/>
            <path id="Path_1720" data-name="Path 1720" class="cls-3" d="M45.657 249.275a.222.222 0 0 1-.22.227h-3.43a.225.225 0 0 1-.228-.227v-3.429a.222.222 0 0 1 .228-.224h3.43a.219.219 0 0 1 .22.224v3.429z" transform="translate(-37.059 -245.622)"/>
            <path id="Path_1721" data-name="Path 1721" class="cls-3" d="M66.9 249.275a.225.225 0 0 1-.23.227h-3.43a.222.222 0 0 1-.217-.227v-3.429a.219.219 0 0 1 .217-.224h3.43a.223.223 0 0 1 .23.224z" transform="translate(-53.57 -245.622)"/>
            <path id="Path_1722" data-name="Path 1722" class="cls-3" d="M88.1 249.275a.233.233 0 0 1-.232.227H84.44a.229.229 0 0 1-.226-.227v-3.429a.226.226 0 0 1 .226-.224h3.431a.231.231 0 0 1 .232.224z" transform="translate(-70.044 -245.622)"/>
            <path id="Path_1723" data-name="Path 1723" class="cls-3" d="M109.318 249.275a.225.225 0 0 1-.222.227h-3.432a.226.226 0 0 1-.229-.227v-3.429a.223.223 0 0 1 .229-.224h3.436a.222.222 0 0 1 .222.224z" transform="translate(-86.54 -245.622)"/>
            <path id="Path_1724" data-name="Path 1724" class="cls-3" d="M130.544 249.275a.223.223 0 0 1-.226.227h-3.434a.225.225 0 0 1-.22-.227v-3.429a.222.222 0 0 1 .22-.224h3.434a.22.22 0 0 1 .226.224z" transform="translate(-103.042 -245.622)"/>
            <path id="Path_1725" data-name="Path 1725" class="cls-3" d="M151.756 249.275a.225.225 0 0 1-.222.227h-3.428a.231.231 0 0 1-.229-.227v-3.429a.228.228 0 0 1 .229-.224h3.428a.222.222 0 0 1 .222.224z" transform="translate(-119.53 -245.622)"/>
            <path id="Path_1726" data-name="Path 1726" class="cls-3" d="M172.986 249.275a.223.223 0 0 1-.219.227h-3.431a.225.225 0 0 1-.229-.227v-3.429a.222.222 0 0 1 .229-.224h3.431a.22.22 0 0 1 .219.224z" transform="translate(-136.034 -245.622)"/>
            <path id="Path_1727" data-name="Path 1727" class="cls-3" d="M194.213 249.275a.227.227 0 0 1-.23.227h-3.431a.224.224 0 0 1-.22-.227v-3.429a.221.221 0 0 1 .22-.224h3.431a.224.224 0 0 1 .23.224z" transform="translate(-152.531 -245.622)"/>
            <path id="Path_1728" data-name="Path 1728" class="cls-3" d="M215.411 249.275a.222.222 0 0 1-.217.227h-3.432a.229.229 0 0 1-.23-.227v-3.429a.226.226 0 0 1 .23-.224h3.432a.219.219 0 0 1 .217.224z" transform="translate(-169.01 -245.622)"/>
            <path id="Path_1729" data-name="Path 1729" class="cls-3" d="M236.648 249.275a.224.224 0 0 1-.226.227h-3.436a.225.225 0 0 1-.22-.227v-3.429a.222.222 0 0 1 .22-.224h3.436a.222.222 0 0 1 .226.224z" transform="translate(-185.517 -245.622)"/>
            <path id="Path_1730" data-name="Path 1730" class="cls-3" d="M257.884 249.275a.232.232 0 0 1-.23.227h-3.432a.223.223 0 0 1-.22-.227v-3.429a.219.219 0 0 1 .22-.224h3.432a.23.23 0 0 1 .23.224v3.429z" transform="translate(-202.023 -245.622)"/>
            <path id="Path_1731" data-name="Path 1731" class="cls-3" d="M279.087 249.275a.223.223 0 0 1-.22.227h-3.433a.225.225 0 0 1-.226-.227v-3.429a.222.222 0 0 1 .226-.224h3.433a.22.22 0 0 1 .22.224z" transform="translate(-218.507 -245.622)"/>
            <path id="Path_1732" data-name="Path 1732" class="cls-3" d="M286.113 341.117v1.889a.2.2 0 0 0 .067.157.214.214 0 0 0 .152.068h3.433a.222.222 0 0 0 .16-.068.2.2 0 0 0 .066-.157v-1.889z" transform="translate(-226.983 -319.852)"/>
            <path id="Path_1733" data-name="Path 1733" class="cls-3" d="M289.992 332.611v-1.889a.2.2 0 0 0-.066-.155.228.228 0 0 0-.16-.068h-3.433a.221.221 0 0 0-.152.068.2.2 0 0 0-.067.155v1.889z" transform="translate(-226.984 -311.598)"/>
            <path id="Path_1734" data-name="Path 1734" class="cls-3" d="M307.532 266.833a.222.222 0 0 0-.16.068.243.243 0 0 0-.067.153v3.433a.261.261 0 0 0 .067.163.245.245 0 0 0 .16.064h.895v4.5a.193.193 0 0 0 .066.155.214.214 0 0 0 .163.068h2.309a.225.225 0 0 0 .161-.068.228.228 0 0 0 .058-.155v-8.163a.215.215 0 0 0-.219-.221h-3.432z" transform="translate(-243.456 -262.109)"/>
        </g>
        <path id="Path_1735" data-name="Path 1735" class="cls-4" d="M3.6 22.872A3.608 3.608 0 0 0 0 26.481v41.5h76.894v-41.5a3.606 3.606 0 0 0-3.6-3.61H3.6z"/>
        <path id="Path_1736" data-name="Path 1736" class="cls-5" d="M170.5 28.847a.865.865 0 1 1-1.73 0 .865.865 0 0 1 1.73 0z" transform="translate(-131.186 -3.978)"/>
        <path id="Path_1737" data-name="Path 1737" class="cls-3" d="M171.78 30.63a.352.352 0 1 1-.351-.348.354.354 0 0 1 .351.348z" transform="translate(-132.979 -5.761)"/>
        <path id="Rectangle_4993" data-name="Rectangle 4993" class="cls-1" transform="translate(69.788 66.354)" d="M0 0h5.048v3.248H0z"/>
        <path id="Rectangle_4994" data-name="Rectangle 4994" class="cls-1" transform="translate(69.788 67.979)" d="M0 0h5.048v1.623H0z"/>
        <path id="Rectangle_4995" data-name="Rectangle 4995" class="cls-1" transform="translate(2.053 66.354)" d="M0 0h5.049v3.248H0z"/>
        <path id="Rectangle_4996" data-name="Rectangle 4996" class="cls-1" transform="translate(2.053 67.979)" d="M0 0h5.049v1.623H0z"/>
        <path id="Rectangle_4997" data-name="Rectangle 4997" class="cls-3" transform="translate(4.583 27.368)" d="M0 0h67.725v36.108H0z"/>
        <g id="Group_699" data-name="Group 699" transform="translate(8.98 30.388)">
            <path id="Rectangle_4998" data-name="Rectangle 4998" class="cls-6" d="M0 0h3.004v1.095H0z"/>
            <path id="Rectangle_4999" data-name="Rectangle 4999" class="cls-6" transform="translate(0 7.206)" d="M0 0h3.004v1.096H0z"/>
            <path id="Rectangle_5000" data-name="Rectangle 5000" class="cls-6" transform="translate(3.779)" d="M0 0h14.147v1.095H0z"/>
            <path id="Rectangle_5001" data-name="Rectangle 5001" class="cls-6" transform="translate(3.779 7.206)" d="M0 0h10.831v1.096H0z"/>
            <path id="Rectangle_5002" data-name="Rectangle 5002" class="cls-6" transform="translate(3.003 2.739)" d="M0 0h4.769v1.095H0z"/>
            <path id="Rectangle_5003" data-name="Rectangle 5003" class="cls-6" transform="translate(3.003 15.42)" d="M0 0h4.769v1.095H0z"/>
            <path id="Rectangle_5004" data-name="Rectangle 5004" class="cls-6" transform="translate(8.903 15.42)" d="M0 0h12.479v1.095H0z"/>
            <path id="Rectangle_5005" data-name="Rectangle 5005" class="cls-6" transform="translate(5.701 23.504)" d="M0 0h3.932v1.096H0z"/>
            <path id="Rectangle_5006" data-name="Rectangle 5006" class="cls-6" transform="translate(33.04 28.976)" d="M0 0h5.12v1.096H0z"/>
            <path id="Rectangle_5007" data-name="Rectangle 5007" class="cls-6" transform="translate(22.793 15.42)" d="M0 0h8.975v1.095H0z"/>
            <path id="Rectangle_5008" data-name="Rectangle 5008" class="cls-6" transform="translate(33.593 15.42)" d="M0 0h5.495v1.095H0z"/>
            <path id="Rectangle_5009" data-name="Rectangle 5009" class="cls-6" transform="translate(3.003 9.946)" d="M0 0h7.123v1.096H0z"/>
            <path id="Rectangle_5010" data-name="Rectangle 5010" class="cls-6" transform="translate(3.003 12.684)" d="M0 0h10.099v1.097H0z"/>
            <path id="Rectangle_5011" data-name="Rectangle 5011" class="cls-6" transform="translate(5.701 26.241)" d="M0 0h11.578v1.095H0z"/>
            <path id="Rectangle_5012" data-name="Rectangle 5012" class="cls-6" transform="translate(5.701 28.976)" d="M0 0h10.638v1.096H0z"/>
            <path id="Rectangle_5013" data-name="Rectangle 5013" class="cls-6" transform="translate(19.78 28.976)" d="M0 0h11.029v1.096H0z"/>
            <path id="Rectangle_5014" data-name="Rectangle 5014" class="cls-6" transform="translate(0 23.504)" d="M0 0h4.092v1.096H0z"/>
            <path id="Rectangle_5015" data-name="Rectangle 5015" class="cls-6" transform="translate(14.183 12.684)" d="M0 0h10.102v1.097H0z"/>
            <path id="Rectangle_5016" data-name="Rectangle 5016" class="cls-6" transform="translate(34.939 12.684)" d="M0 0h5.9v1.097H0z"/>
            <path id="Rectangle_5017" data-name="Rectangle 5017" class="cls-6" transform="translate(24.979 12.684)" d="M0 0h6.311v1.097H0z"/>
            <path id="Rectangle_5018" data-name="Rectangle 5018" class="cls-6" transform="translate(12.456 9.946)" d="M0 0h10.94v1.096H0z"/>
            <path id="Rectangle_5019" data-name="Rectangle 5019" class="cls-6" transform="translate(10.753 2.739)" d="M0 0h4.39v1.095H0z"/>
        </g>
        <path id="Path_1738" data-name="Path 1738" class="cls-1" d="M395.943 384.5a5.839 5.839 0 0 1-5.822 5.823h-4.235a5.84 5.84 0 0 1-5.822-5.823v-16.66a5.838 5.838 0 0 1 5.822-5.822h4.235a5.837 5.837 0 0 1 5.822 5.822z" transform="translate(-295.43 -263.626)"/>
        <path id="Path_1739" data-name="Path 1739" class="cls-2" d="M393.589 366.2a5.846 5.846 0 0 1 .094 1.011v12.637a9.851 9.851 0 0 1-9.848 9.847h-.21a5.782 5.782 0 0 1-3.141-.934 5.841 5.841 0 0 0 5.728 4.812h4.235a5.838 5.838 0 0 0 5.822-5.823v-16.66a5.827 5.827 0 0 0-2.68-4.89z" transform="translate(-295.756 -266.873)"/>
        <path id="Path_1740" data-name="Path 1740" class="cls-4" d="M412.43 384.737a1.321 1.321 0 1 1-1.321-1.326 1.32 1.32 0 0 1 1.321 1.326z" transform="translate(-318.534 -280.253)"/>
        <path id="Path_1741" data-name="Path 1741" class="cls-3" d="M483.665 200.6l-1.823-5.99-1.824 5.99z" transform="translate(-373.125 -133.498)"/>
        <path id="Path_1742" data-name="Path 1742" class="cls-7" d="M488.207 194.614l1.823 5.99h-1.146z" transform="translate(-379.491 -133.498)"/>
        <path id="Rectangle_5020" data-name="Rectangle 5020" class="cls-6" transform="translate(106.895 67.106)" d="M0 0h3.647v42.835H0z"/>
        <path id="Rectangle_5021" data-name="Rectangle 5021" class="cls-6" transform="translate(109.391 67.106)" d="M0 0h1.146v42.835H0z"/>
        <path id="Path_1743" data-name="Path 1743" class="cls-4" d="M486.417 196.959l-.713-2.345-.717 2.345z" transform="translate(-376.988 -133.498)"/>
        <path id="Path_1744" data-name="Path 1744" class="cls-8" d="M488.92 196.959l-.713-2.345.265 2.345z" transform="translate(-379.491 -133.498)"/>
        <path id="Rectangle_5022" data-name="Rectangle 5022" class="cls-1" transform="translate(106.895 109.942)" d="M0 0h3.647v2.116H0z"/>
        <path id="Rectangle_5023" data-name="Rectangle 5023" class="cls-7" transform="translate(109.391 109.942)" d="M0 0h1.146v2.116H0z"/>
        <path id="Path_1745" data-name="Path 1745" class="cls-4" d="M483.663 425.658a1.825 1.825 0 0 1-1.824 1.824 1.825 1.825 0 0 1-1.824-1.824v-2.28h3.647v2.28z" transform="translate(-373.124 -311.32)"/>
        <path id="Path_1746" data-name="Path 1746" class="cls-4" d="M480.9 426.946a1.8 1.8 0 0 1-.435-.713 1.885 1.885 0 0 0 .577.1 1.825 1.825 0 0 0 1.824-1.824v-1.133h1.146v2.28a1.823 1.823 0 0 1-3.112 1.29z" transform="translate(-373.474 -311.319)"/>
    </g>
</svg>
