<svg xmlns="http://www.w3.org/2000/svg" viewBox="0 0 100.576 108.314">
    <defs>
        <style>
            .cls-1{fill:#666}.cls-2{fill:#fff}.cls-3{fill:#ecf0f1}.cls-4{fill:#e8e8e8}.cls-5{fill:gray}.cls-6{fill:#e18577}.cls-7{fill:#dce3db}.cls-8{fill:#b0b0b0}
        </style>
    </defs>
    <g id="Мобильность" transform="translate(-25.75 -14.624)">
        <path id="Path_6646" data-name="Path 6646" class="cls-1" d="M79.3 42.577h75.37a4.328 4.328 0 0 1 4.33 4.328v99.658a4.328 4.328 0 0 1-4.328 4.328H79.3a4.328 4.328 0 0 1-4.328-4.328V46.9a4.328 4.328 0 0 1 4.328-4.323z" transform="translate(-49.22 -27.953)"/>
        <path id="Path_6648" data-name="Path 6648" class="cls-2" d="M92.6 70.173h73.506a.5.5 0 0 1 .5.5v89.5a.5.5 0 0 1-.5.5H92.6a.5.5 0 0 1-.5-.5v-89.5a.5.5 0 0 1 .5-.5z" transform="translate(-61.591 -47.883)"/>
        <circle id="Ellipse_1002" data-name="Ellipse 1002" class="cls-3" cx="2.823" cy="2.823" r="2.823" transform="translate(64.943 114.863)"/>
        <path id="Path_6649" data-name="Path 6649" class="cls-4" d="M106.219 110.525h66.668v39.294h-66.668z" transform="translate(-71.788 -77.026)"/>
        <path id="Path_6650" data-name="Path 6650" class="cls-5" d="M297.706 182.131h34.918a2.2 2.2 0 0 1 2.2 2.2v65.153a2.2 2.2 0 0 1-2.2 2.2h-34.918a2.2 2.2 0 0 1-2.2-2.2v-65.156a2.2 2.2 0 0 1 2.2-2.197z" transform="translate(-208.495 -128.74)"/>
        <path id="Path_6651" data-name="Path 6651" class="cls-2" d="M308.744 205.567h31.647a.216.216 0 0 1 .216.216v56.093a.216.216 0 0 1-.216.216h-31.647a.216.216 0 0 1-.216-.216v-56.092a.217.217 0 0 1 .216-.217z" transform="translate(-217.898 -145.666)"/>
        <g id="Group_1808" data-name="Group 1808" transform="translate(100.872 56.976)">
            <circle id="Ellipse_1003" data-name="Ellipse 1003" class="cls-3" cx="1.986" cy="1.986" r="1.986" transform="translate(3.811 60.427)"/>
            <path id="Path_6652" data-name="Path 6652" class="cls-3" d="M345.882 195.036h10.626a.485.485 0 0 1 .485.485.485.485 0 0 1-.485.485h-10.626a.485.485 0 0 1-.485-.485.485.485 0 0 1 .485-.485z" transform="translate(-345.397 -195.036)"/>
        </g>
        <path id="Path_6653" data-name="Path 6653" class="cls-6" d="M138.643 272.36a5.914 5.914 0 1 1-5.914 5.914 5.913 5.913 0 0 1 5.914-5.914z" transform="translate(-90.934 -193.904)"/>
        <path id="Path_6654" data-name="Path 6654" class="cls-7" d="M123.473 324.067h16.971v1.2h-16.971zm0 7.541h11.4v1.2h-11.4zm0-3.771h16.971v1.2h-16.971z" transform="translate(-84.249 -231.248)"/>
        <path id="Path_6655" data-name="Path 6655" class="cls-8" d="M221.735 272.36a5.914 5.914 0 1 1-5.914 5.914 5.913 5.913 0 0 1 5.914-5.914z" transform="translate(-150.944 -193.904)"/>
        <path id="Path_6656" data-name="Path 6656" class="cls-7" d="M206.562 324.067h16.971v1.2h-16.971zm0 7.541h11.4v1.2h-11.4zm0-3.771h16.971v1.2h-16.971z" transform="translate(-144.257 -231.248)"/>
        <path id="Path_6657" data-name="Path 6657" class="cls-6" d="M166.611 78.783H92.1v-8.106a.5.5 0 0 1 .5-.5h73.507a.5.5 0 0 1 .5.5v8.106z" transform="translate(-61.591 -47.884)"/>
        <g id="Group_1809" data-name="Group 1809" transform="translate(34.092 24.739)">
            <path id="Path_6658" data-name="Path 6658" class="cls-2" d="M106.939 78.989A1.938 1.938 0 1 1 105 80.927a1.937 1.937 0 0 1 1.939-1.938z" transform="translate(-105.001 -78.989)"/>
            <path id="Path_6659" data-name="Path 6659" class="cls-2" d="M126.581 78.989a1.938 1.938 0 1 1-1.938 1.938 1.937 1.937 0 0 1 1.938-1.938z" transform="translate(-119.187 -78.989)"/>
            <path id="Path_6660" data-name="Path 6660" class="cls-2" d="M146.222 78.989a1.938 1.938 0 1 1-1.938 1.938 1.937 1.937 0 0 1 1.938-1.938z" transform="translate(-133.372 -78.989)"/>
            <path id="Path_6661" data-name="Path 6661" class="cls-2" d="M188.872 80.548h44.311a.708.708 0 0 1 .593.781v1.449a.708.708 0 0 1-.593.781h-44.311a.708.708 0 0 1-.593-.781v-1.449a.708.708 0 0 1 .593-.781z" transform="translate(-165.145 -80.115)"/>
        </g>
        <path id="Path_6662" data-name="Path 6662" class="cls-2" d="M340.608 209.331h-32.08v-3.544a.216.216 0 0 1 .216-.216h31.648a.216.216 0 0 1 .216.216v3.544z" transform="translate(-217.898 -145.669)"/>
        <g id="Group_1810" data-name="Group 1810" transform="translate(91.788 60.537)">
            <path id="Path_6663" data-name="Path 6663" class="cls-6" d="M313.8 207.857a1.108 1.108 0 1 1-1.108 1.108 1.108 1.108 0 0 1 1.108-1.108z" transform="translate(-312.696 -207.857)"/>
            <path id="Path_6664" data-name="Path 6664" class="cls-6" d="M325.032 207.857a1.108 1.108 0 1 1-1.108 1.108 1.107 1.107 0 0 1 1.108-1.108z" transform="translate(-320.805 -207.857)"/>
            <path id="Path_6665" data-name="Path 6665" class="cls-6" d="M336.258 207.857a1.108 1.108 0 1 1-1.108 1.108 1.107 1.107 0 0 1 1.108-1.108z" transform="translate(-328.913 -207.857)"/>
            <path id="Path_6666" data-name="Path 6666" class="cls-6" d="M354.232 208.374h17.839a.433.433 0 0 1 .433.433v1.159a.433.433 0 0 1-.433.433h-17.839a.433.433 0 0 1-.433-.433v-1.159a.433.433 0 0 1 .433-.433z" transform="translate(-342.381 -208.23)"/>
        </g>
        <path id="Path_6667" data-name="Path 6667" class="cls-4" d="M314.125 223.478h28.969v17.074h-28.969z" transform="translate(-221.94 -158.601)"/>
        <path id="Path_6668" data-name="Path 6668" class="cls-6" d="M355.357 297.551a5.377 5.377 0 1 1-5.377 5.377 5.376 5.376 0 0 1 5.377-5.377z" transform="translate(-247.835 -212.098)"/>
        <path id="Path_6669" data-name="Path 6669" class="cls-7" d="M335.739 350.363H354.4v1.319h-18.661zm0 8.295h12.537v1.32h-12.537zm0-4.147H354.4v1.319h-18.661z" transform="translate(-237.55 -250.239)"/>
    </g>
</svg>
