<svg xmlns="http://www.w3.org/2000/svg" width="405.166" height="402.996" viewBox="0 0 405.16633 402.99558">
    <path d="M171.822 401.846c-6.472-.999-19.433-4.28-28.802-7.29-71.765-23.058-122.993-79.828-140-155.148-4.362-19.321-3.936-58.62.869-80.013C20.779 84.192 77.407 24.44 150.273 4.938 167.007.459 171.832 0 202.17 0c30.219 0 35.2.47 51.615 4.867 36.103 9.67 68.83 29.35 95.197 57.243 41.137 43.52 61.224 100.851 55.104 157.275-2.838 26.168-7.71 43.482-18.773 66.72-11.076 23.264-20.989 38.022-36.8 54.782-27.547 29.202-64.938 49.996-105.084 58.441-16.358 3.441-56.49 4.852-71.607 2.518z" fill="#adadad" stroke-width="1.858"/>
</svg>
