<svg xmlns="http://www.w3.org/2000/svg" viewBox="0 0 120.748 101.949">
    <defs>
        <style>
            .cls-1{fill:#707070;stroke:#707070}.cls-2{fill:#fff}.cls-3{fill:#f2f2f2}.cls-4{fill:#e18577}
        </style>
    </defs>
    <g id="icon_notices" data-name="icon notices" transform="translate(.5 -123.958)">
        <path id="Path_3383" data-name="Path 3383" class="cls-1" d="M7.042 362.856A7.064 7.064 0 0 1 0 355.82v-86.881a7.06 7.06 0 0 1 7.042-7.032h40.847a7.057 7.057 0 0 1 7.037 7.032v86.881a7.06 7.06 0 0 1-7.037 7.036H7.042z" transform="translate(0 -137.448)"/>
        <g id="Group_1088" data-name="Group 1088" transform="translate(20.099 131.253)">
            <path id="Path_3384" data-name="Path 3384" class="cls-2" d="M47.79 416.4a1.671 1.671 0 0 1-1.679 1.681H37.3a1.683 1.683 0 0 1-1.683-1.681v-.7a1.69 1.69 0 0 1 1.683-1.689h8.81a1.678 1.678 0 0 1 1.68 1.689z" transform="translate(-34.342 -329.52)"/>
            <path id="Path_3385" data-name="Path 3385" class="cls-2" d="M48.225 274.2a.678.678 0 0 1-.7.682H34.183a.68.68 0 0 1-.692-.682v-.288a.694.694 0 0 1 .692-.686h13.344a.693.693 0 0 1 .7.686z" transform="translate(-33.491 -273.228)"/>
        </g>
        <path id="Rectangle_6608" data-name="Rectangle 6608" class="cls-2" transform="translate(3.995 139.724)" d="M0 0h46.948v70.425H0z"/>
        <g id="Group_1089" data-name="Group 1089" transform="translate(13.784 149.515)">
            <path id="Rectangle_6609" data-name="Rectangle 6609" class="cls-3" d="M0 0h27.361v27.375H0z"/>
            <path id="Rectangle_6610" data-name="Rectangle 6610" class="cls-3" transform="translate(0 33.761)" d="M0 0h27.361v6.398H0z"/>
        </g>
        <path id="Path_3966" data-name="Path 3966" class="cls-4" d="M0 0h27.361v6.38H0z" transform="translate(13.784 194.258)"/>
        <g id="Group_1090" data-name="Group 1090" transform="translate(63.756 124.99)">
            <path id="Rectangle_6612" data-name="Rectangle 6612" class="cls-3" d="M0 0h56.492v36.245H0z"/>
            <path id="Path_3386" data-name="Path 3386" class="cls-3" d="M45.756 251.685l9.314-9.319h-9.314z" transform="translate(-41.223 -206.984)"/>
        </g>
        <g id="Group_1091" data-name="Group 1091" transform="translate(79.04 140.359)">
            <path id="Path_3387" data-name="Path 3387" class="cls-2" d="M73.8 201.354a2.75 2.75 0 1 1-2.755-2.749 2.748 2.748 0 0 1 2.755 2.749z" transform="translate(-68.301 -198.605)"/>
            <path id="Path_3388" data-name="Path 3388" class="cls-2" d="M95.212 201.354a2.752 2.752 0 1 1-2.746-2.749 2.743 2.743 0 0 1 2.746 2.749z" transform="translate(-79.5 -198.605)"/>
            <path id="Path_3389" data-name="Path 3389" class="cls-2" d="M116.636 201.354a2.756 2.756 0 1 1-2.747-2.749 2.749 2.749 0 0 1 2.747 2.749z" transform="translate(-90.703 -198.605)"/>
        </g>
    </g>
</svg>
