<svg xmlns="http://www.w3.org/2000/svg" viewBox="0 0 118.75 101.962">
    <defs>
        <style>
            .cls-1,.cls-3,.cls-6{fill:#fff}.cls-1,.cls-6{stroke:#707070}.cls-2{fill:#707070}.cls-4{fill:#f2f2f2}.cls-5{fill:#e18577}.cls-6{stroke-width:.5px}
        </style>
    </defs>
    <g id="icon_online" data-name="icon online" transform="translate(.5 -55.931)">
        <path id="Path_2389" data-name="Path 2389" class="cls-1" d="M6.991 224.925a7 7 0 0 0 0 14 6.993 6.993 0 0 0 0 13.985H7a6.994 6.994 0 1 0 0 13.988 7 7 0 1 0 0 13.992h83.061v-55.96z" transform="translate(0 -125.873)"/>
        <path id="Path_2390" data-name="Path 2390" class="cls-1" d="M34.843 157.393a7.226 7.226 0 0 1-7.206-7.2V63.637a7.232 7.232 0 0 1 7.206-7.206h41.831a7.222 7.222 0 0 1 7.2 7.206v86.557a7.215 7.215 0 0 1-7.2 7.2z" transform="translate(-20.646)"/>
        <g id="Group_910" data-name="Group 910" transform="translate(27.578 63.399)">
            <path id="Path_2391" data-name="Path 2391" class="cls-2" d="M126.628 418.9a1.715 1.715 0 0 1-1.715 1.714h-9.036a1.726 1.726 0 0 1-1.723-1.714v-.727a1.736 1.736 0 0 1 1.723-1.726h9.036a1.725 1.725 0 0 1 1.715 1.726z" transform="translate(-112.856 -332.351)"/>
            <path id="Path_2392" data-name="Path 2392" class="cls-2" d="M124.1 84.972a.7.7 0 0 1-.7.7h-13.673a.7.7 0 0 1-.7-.7v-.295a.707.707 0 0 1 .7-.7H123.4a.7.7 0 0 1 .7.7v.295z" transform="translate(-109.023 -83.977)"/>
        </g>
        <path id="Rectangle_6132" data-name="Rectangle 6132" class="cls-3" transform="translate(11.08 72.067)" d="M0 0h48.075v69.716H0z"/>
        <path id="Rectangle_6133" data-name="Rectangle 6133" class="cls-4" transform="translate(13.871 74.851)" d="M0 0h42.493v64.134H0z"/>
        <path id="Path_2393" data-name="Path 2393" class="cls-1" d="M230.709 120.252a7 7 0 0 0-13.992 0A35.285 35.285 0 0 0 251.96 155.5v-14a21.275 21.275 0 0 1-21.251-21.248z" transform="translate(-161.898 -42.453)"/>
        <path id="Rectangle_6152" data-name="Rectangle 6152" class="cls-5" d="M0 0h27.314a2 2 0 0 1 2 2v56.722a2 2 0 0 1-2 2H0V0z" transform="translate(88.936 96.674)"/>
        <path id="Path_2394" data-name="Path 2394" class="cls-3" d="M383.742 411.393a3.353 3.353 0 1 1-3.353-3.35 3.352 3.352 0 0 1 3.353 3.35z" transform="translate(-281.664 -262.671)"/>
        <g id="Group_913" data-name="Group 913" transform="translate(0 99.052)">
            <path id="Path_2395" data-name="Path 2395" class="cls-6" d="M13.991 231.922a7 7 0 1 1-7-7 7 7 0 0 1 7 7z" transform="translate(0 -224.926)"/>
            <path id="Path_2396" data-name="Path 2396" class="cls-6" d="M13.991 287.243a7 7 0 1 1-7-6.991 7 7 0 0 1 7 6.991z" transform="translate(0 -266.257)"/>
            <path id="Path_2397" data-name="Path 2397" class="cls-6" d="M13.991 342.554a7 7 0 1 1-7-7 7 7 0 0 1 7 7z" transform="translate(0 -307.572)"/>
            <path id="Path_2398" data-name="Path 2398" class="cls-6" d="M13.991 397.867a7 7 0 1 1-7-6.995 7 7 0 0 1 7 6.995z" transform="translate(0 -348.895)"/>
        </g>
        <rect id="Rectangle_7183" data-name="Rectangle 7183" class="cls-5" width="40.046" height="2.225" rx="1.112" transform="rotate(-41 161.977 32.624)"/>
        <rect id="Rectangle_7184" data-name="Rectangle 7184" class="cls-5" width="31.889" height="2.225" rx="1.112" transform="rotate(-41 178.836 27.026)"/>
    </g>
</svg>
