<svg xmlns="http://www.w3.org/2000/svg" viewBox="0 0 32.984 32.984">
    <defs>
        <style>
            .cls-1{fill:#e18577}
        </style>
    </defs>
    <path id="language" class="cls-1" d="M16.492 0a16.492 16.492 0 1 0 16.492 16.492A16.492 16.492 0 0 0 16.492 0zm14.264 22.27l-4.69.809a24.611 24.611 0 0 0 .863-6.037h4.943a15.291 15.291 0 0 1-1.116 5.228zM1.113 17.042h4.943a24.611 24.611 0 0 0 .863 6.037l-4.69-.809a15.291 15.291 0 0 1-1.116-5.228zm1.116-6.327l4.69-.809a24.611 24.611 0 0 0-.863 6.037H1.113a15.291 15.291 0 0 1 1.116-5.228zm14.813-1.888a37.818 37.818 0 0 1 5.893.538l1.94.335a23.6 23.6 0 0 1 .954 6.243h-8.787zm6.081-.545a38.967 38.967 0 0 0-6.081-.554V1.13c3.152.3 5.889 3.188 7.441 7.388zm-7.18-.554a38.96 38.96 0 0 0-6.08.554L8.5 8.517c1.552-4.2 4.289-7.087 7.441-7.389zM10.05 9.365a37.809 37.809 0 0 1 5.893-.538v7.116H7.155A23.6 23.6 0 0 1 8.109 9.7zm-2.895 7.677h8.788v7.116a37.818 37.818 0 0 1-5.893-.538l-1.94-.335a23.6 23.6 0 0 1-.954-6.243zM9.862 24.7a39.1 39.1 0 0 0 6.081.557v6.6c-3.152-.3-5.889-3.189-7.441-7.388zm7.18.557a39.1 39.1 0 0 0 6.08-.557l1.361-.235c-1.552 4.2-4.289 7.087-7.441 7.389zm5.893-1.641a37.809 37.809 0 0 1-5.893.538v-7.112h8.788a23.6 23.6 0 0 1-.954 6.243zm3.994-7.677a24.611 24.611 0 0 0-.863-6.037l4.69.809a15.291 15.291 0 0 1 1.116 5.228zM30.2 9.5l-4.5-.776a15.159 15.159 0 0 0-4.37-6.841A15.466 15.466 0 0 1 30.2 9.5zM11.655 1.883a15.159 15.159 0 0 0-4.374 6.844l-4.5.776a15.466 15.466 0 0 1 8.87-7.62zm-8.87 21.6l4.5.776a15.159 15.159 0 0 0 4.37 6.841 15.466 15.466 0 0 1-8.87-7.62zM21.33 31.1a15.159 15.159 0 0 0 4.37-6.843l4.5-.776a15.466 15.466 0 0 1-8.87 7.62zm0 0"/>
</svg>
