<svg xmlns="http://www.w3.org/2000/svg" viewBox="0 0 111.653 105.016">
    <defs>
        <style>
            .cls-1{fill:#807d7d}.cls-2{fill:#474f59}.cls-3{fill:#fff}.cls-4{fill:#e4e4e4}.cls-5{fill:#535353}.cls-6{fill:#e18577}.cls-7{fill:#e2a399}.cls-8{fill:#cccbca}.cls-9{fill:#707070}.cls-10{fill:#353f49}
        </style>
    </defs>
    <g id="_101-shopping-bag" data-name="101-shopping-bag" transform="translate(-16.516 -36.243)">
        <path id="Path_1519" data-name="Path 1519" class="cls-1" d="M151.071 189.4a2.936 2.936 0 0 0-2.123-.879H64.082a3 3 0 0 0-3.008 3.007v52.445h90.878v-52.444a2.954 2.954 0 0 0-.881-2.129z" transform="translate(-34.171 -107.353)"/>
        <path id="Path_1520" data-name="Path 1520" class="cls-2" d="M253.069 194.238a1.273 1.273 0 1 1-1.269-1.267 1.271 1.271 0 0 1 1.269 1.267z" transform="translate(-179.457 -110.765)"/>
        <path id="Path_1521" data-name="Path 1521" class="cls-3" d="M254.743 196.643a.549.549 0 1 1-.549-.537.548.548 0 0 1 .549.537z" transform="translate(-181.851 -113.169)"/>
        <path id="Rectangle_4890" data-name="Rectangle 4890" class="cls-4" transform="translate(31.635 85.795)" d="M0 0h81.422v50.829H0z"/>
        <path id="Path_1522" data-name="Path 1522" class="cls-5" d="M16.516 433.823A34.264 34.264 0 0 0 30.4 436.73h83.886a34.292 34.292 0 0 0 13.886-2.908z" transform="translate(0 -295.472)"/>
        <path id="Path_1234" data-name="Path 1234" class="cls-6" d="M214.951 99.419a11.459 11.459 0 1 1-11.458-11.465 11.457 11.457 0 0 1 11.458 11.465z" transform="translate(-131.489 -31.782)"/>
        <path id="Path_1235" data-name="Path 1235" class="cls-7" d="M220.486 107.264a9.164 9.164 0 1 1-9.162-9.167 9.158 9.158 0 0 1 9.162 9.167z" transform="translate(-139.32 -39.627)"/>
        <g id="Group_607" data-name="Group 607" transform="translate(45.225 54.528)">
            <path id="Path_1236" data-name="Path 1236" class="cls-3" d="M230.046 121.4h-1.926a3.014 3.014 0 0 1-3-3 2.987 2.987 0 0 1 3-3h4.169v1.512h-4.169a1.488 1.488 0 0 0-1.057 2.535 1.484 1.484 0 0 0 1.057.443h1.926v1.51z" transform="translate(-202.304 -107.535)"/>
            <path id="Path_1237" data-name="Path 1237" class="cls-3" d="M232.625 141.211h-4.17V139.7h4.17a1.489 1.489 0 0 0 1.055-.436 1.491 1.491 0 0 0-1.055-2.542H230.7v-1.512h1.926a3 3 0 1 1 0 6z" transform="translate(-204.884 -122.86)"/>
            <path id="Rectangle_4757" data-name="Rectangle 4757" class="cls-3" transform="translate(26.019 7.336)" d="M0 0h1.51v11.542H0z"/>
            <ellipse id="Ellipse_419" data-name="Ellipse 419" class="cls-6" cx="5.033" cy="5.033" rx="5.033" ry="5.033"/>
        </g>
        <path id="Path_1238" data-name="Path 1238" class="cls-7" d="M136.933 89.167a4.025 4.025 0 1 1-4.025-4.024 4.023 4.023 0 0 1 4.025 4.024z" transform="translate(-82.647 -29.608)"/>
        <g id="Group_608" data-name="Group 608" transform="translate(48.521 36.243)">
            <path id="Path_1239" data-name="Path 1239" class="cls-3" d="M141.133 95.369h-.845a1.318 1.318 0 1 1 0-2.636h1.829v.667h-1.829a.653.653 0 0 0-.465 1.113.652.652 0 0 0 .465.194h.845v.665z" transform="translate(-138.97 -71.722)"/>
            <path id="Path_1240" data-name="Path 1240" class="cls-3" d="M142.265 104.071h-1.831v-.664h1.831a.653.653 0 0 0 .463-.191.656.656 0 0 0 0-.921.65.65 0 0 0-.465-.194h-.845v-.665h.845a1.318 1.318 0 1 1 0 2.636z" transform="translate(-140.102 -78.452)"/>
            <path id="Rectangle_4758" data-name="Rectangle 4758" class="cls-3" transform="translate(1.408 20.781)" d="M0 0h.663v5.069H0z"/>
            <path id="Path_1241" data-name="Path 1241" class="cls-6" d="M293.292 6.658A6.656 6.656 0 1 1 286.636 0a6.656 6.656 0 0 1 6.656 6.658z" transform="translate(-248.029)"/>
        </g>
        <path id="Path_1242" data-name="Path 1242" class="cls-7" d="M296.5 11.212a5.323 5.323 0 1 1-5.321-5.324 5.319 5.319 0 0 1 5.321 5.324z" transform="translate(-204.055 31.689)"/>
        <g id="Group_609" data-name="Group 609" transform="translate(84.822 39.55)">
            <path id="Path_1243" data-name="Path 1243" class="cls-3" d="M302.048 19.423h-1.12a1.754 1.754 0 0 1-1.744-1.745 1.741 1.741 0 0 1 1.744-1.741h2.423v.879h-2.423a.865.865 0 0 0 0 1.73h1.12v.878z" transform="translate(-299.184 -15.632)"/>
            <path id="Path_1244" data-name="Path 1244" class="cls-3" d="M303.557 30.933h-2.422v-.877h2.422a.868.868 0 0 0 .614-.255.865.865 0 0 0 0-1.219.871.871 0 0 0-.615-.258h-1.12v-.878h1.12a1.743 1.743 0 1 1 0 3.486z" transform="translate(-300.693 -24.534)"/>
            <path id="Rectangle_4759" data-name="Rectangle 4759" class="cls-3" transform="translate(1.863)" d="M0 0h.878v6.705H0z"/>
        </g>
        <g id="Group_610" data-name="Group 610" transform="translate(65.786 48.15)">
            <path id="Rectangle_4760" data-name="Rectangle 4760" class="cls-8" transform="translate(10.835 1.634)" d="M0 0h1.603v5.729H0z"/>
            <path id="Rectangle_4761" data-name="Rectangle 4761" class="cls-8" transform="translate(5.418)" d="M0 0h1.603v5.73H0z"/>
            <path id="Rectangle_4762" data-name="Rectangle 4762" class="cls-8" transform="translate(0 1.634)" d="M0 0h1.604v5.729H0z"/>
        </g>
        <path id="Rectangle_4891" data-name="Rectangle 4891" class="cls-9" transform="translate(16.516 136.624)" d="M0 0h111.653v1.73H0z"/>
        <path id="Rectangle_4892" data-name="Rectangle 4892" class="cls-8" transform="translate(62.654 136.624)" d="M0 0h19.374v.863H0z"/>
        <path id="Rectangle_4902" data-name="Rectangle 4902" class="cls-3" transform="translate(43.063 72.565)" d="M0 0h58.56v64.058H0z"/>
        <g id="Group_659" data-name="Group 659" transform="translate(54.531 78.03)">
            <path id="Path_1524" data-name="Path 1524" class="cls-10" d="M313.063 177.316a2.258 2.258 0 1 0 2.242-2.258 2.252 2.252 0 0 0-2.242 2.258z" transform="translate(-281.95 -175.058)"/>
            <path id="Path_1525" data-name="Path 1525" class="cls-10" d="M179.593 177.316a2.255 2.255 0 1 0 2.253-2.258 2.254 2.254 0 0 0-2.253 2.258z" transform="translate(-179.593 -175.058)"/>
        </g>
        <path id="Path_1526" data-name="Path 1526" class="cls-8" d="M202.7 205.673a16.2 16.2 0 0 1-16.2-16.2v-6.858a.646.646 0 0 1 1.293 0v6.858a14.909 14.909 0 0 0 29.819 0v-6.858a.65.65 0 0 1 .644-.645.643.643 0 0 1 .645.645v6.858a16.193 16.193 0 0 1-16.2 16.2z" transform="translate(-130.353 -102.326)"/>
        <path id="Path_6689" data-name="Path 6689" class="cls-6" d="M3.516 0A3.516 3.516 0 1 1 0 3.516 3.516 3.516 0 0 1 3.516 0z" transform="translate(68.857 114.681)"/>
        <g id="Group_660" data-name="Group 660" transform="translate(61.27 107.101)">
            <path id="Path_1527" data-name="Path 1527" class="cls-1" d="M262.03 362.041l-5.918-14.667 14.662 5.921-5.7 3.034z" transform="translate(-245.013 -336.277)"/>
            <path id="Rectangle_4903" data-name="Rectangle 4903" class="cls-1" transform="rotate(135 7.721 16.982)" d="M0 0h2.333v6.909H0z"/>
            <path id="Rectangle_4904" data-name="Rectangle 4904" class="cls-6" transform="rotate(-134.98 4.49 2.157)" d="M0 0h4.59v1.008H0z"/>
            <path id="Rectangle_4905" data-name="Rectangle 4905" class="cls-6" transform="rotate(-157.536 3.35 4.047)" d="M0 0h4.592v1.006H0z"/>
            <path id="Rectangle_4906" data-name="Rectangle 4906" class="cls-6" transform="translate(0 10.595)" d="M0 0h4.594v1.01H0z"/>
            <path id="Rectangle_4907" data-name="Rectangle 4907" class="cls-6" transform="rotate(-112.52 5.802 7.557)" d="M0 0h1.01v4.596H0z"/>
            <path id="Rectangle_4908" data-name="Rectangle 4908" class="cls-6" transform="rotate(-135 5.802 8.903)" d="M0 0h1.01v4.593H0z"/>
            <path id="Rectangle_4909" data-name="Rectangle 4909" class="cls-6" transform="rotate(-157.567 5.797 10.046)" d="M0 0h1.009v4.601H0z"/>
            <path id="Rectangle_4910" data-name="Rectangle 4910" class="cls-6" transform="translate(10.595 17.602)" d="M0 0h1.006v4.593H0z"/>
            <path id="Rectangle_4911" data-name="Rectangle 4911" class="cls-6" transform="translate(17.598 10.588)" d="M0 0h4.597v1.011H0z"/>
            <path id="Path_1528" data-name="Path 1528" class="cls-6" d="M281.438 329.841l-.39-.932 4.252-1.754.383.93z" transform="translate(-264.136 -320.771)"/>
            <path id="Rectangle_4912" data-name="Rectangle 4912" class="cls-6" transform="rotate(-134.91 9.45 .095)" d="M0 0h1.006v4.592H0z"/>
            <path id="Rectangle_4913" data-name="Rectangle 4913" class="cls-6" transform="rotate(-157.605 7.552 1.252)" d="M0 0h1.013v4.596H0z"/>
            <path id="Rectangle_4914" data-name="Rectangle 4914" class="cls-6" transform="translate(10.595)" d="M0 0h1.006v4.591H0z"/>
            <path id="Rectangle_4915" data-name="Rectangle 4915" class="cls-6" transform="rotate(-112.52 5.836 -.08)" d="M0 0h4.594v1.009H0z"/>
        </g>
    </g>
</svg>
