<svg xmlns="http://www.w3.org/2000/svg" viewBox="0 0 119.342 99.647">
    <defs>
        <style>
            .cls-1{fill:#e18577}.cls-2{fill:#707070}.cls-3{fill:#fff}.cls-4{fill:#f2f2f2}.cls-5{fill:#c2c2c4}.cls-6{fill:#b0b0b0}.cls-7{fill:#ecf0f1}.cls-8{fill:#b6b6b8}.cls-9{fill:#828282}.cls-10{fill:#6f6f6f}
        </style>
    </defs>
    <g id="Простота" transform="translate(-253.477 -756.839)">
        <g id="computer" transform="translate(253.477 756.839)">
            <ellipse id="Ellipse_994" data-name="Ellipse 994" class="cls-1" cx="47.453" cy="3.741" rx="47.453" ry="3.741" transform="translate(12.558 92.166)"/>
            <path id="Path_6613" data-name="Path 6613" class="cls-2" d="M31.572 53.236h102.036a6.113 6.113 0 0 1 6.095 6.095v62.855H25.477V59.331a6.113 6.113 0 0 1 6.095-6.095z" transform="translate(-25.477 -53.236)"/>
            <g id="Group_1801" data-name="Group 1801" transform="translate(0 4.139)">
                <path id="Path_6614" data-name="Path 6614" class="cls-3" d="M41.375 129.806h105.948V71.09a1.973 1.973 0 0 0-1.956-1.956H43.331a1.973 1.973 0 0 0-1.956 1.956v58.716z" transform="translate(-37.236 -69.134)"/>
                <path id="Path_6615" data-name="Path 6615" class="cls-3" d="M139.7 318.095v6.666c0 3.352-3.023 6.095-6.719 6.095H32.2c-3.7 0-6.719-2.743-6.719-6.095v-6.666z" transform="translate(-25.477 -253.284)"/>
            </g>
            <path id="Path_6616" data-name="Path 6616" class="cls-1" d="M64.509 129.811V69.138H43.328a1.973 1.973 0 0 0-1.956 1.956v58.716h23.137z" transform="translate(-37.234 -64.998)"/>
            <path id="Path_6617" data-name="Path 6617" class="cls-3" d="M59.282 96.624H73.72v1.77H59.282zm0 42.594H73.72v1.77H59.282zm0-8.519H71.4v1.77H59.282zm0-8.519H73.72v1.77H59.282zm0-8.519H68.3v1.77h-9.018zm0-8.519h9.9v1.77h-9.9z" transform="translate(-50.482 -85.329)"/>
            <path id="Rectangle_7733" data-name="Rectangle 7733" class="cls-4" transform="translate(32.088 11.131)" d="M0 0h13.389v1.751H0z"/>
            <path id="Rectangle_7734" data-name="Rectangle 7734" class="cls-4" transform="translate(48.018 11.131)" d="M0 0h19.868v1.751H0z"/>
            <path id="Rectangle_7735" data-name="Rectangle 7735" class="cls-4" transform="translate(32.088 16.8)" d="M0 0h13.389v1.751H0z"/>
            <path id="Rectangle_7736" data-name="Rectangle 7736" class="cls-4" transform="translate(48.018 16.8)" d="M0 0h23.947v1.751H0z"/>
            <path id="Rectangle_7737" data-name="Rectangle 7737" class="cls-4" transform="translate(73.852 16.8)" d="M0 0h3.48v1.751H0z"/>
            <path id="Rectangle_7738" data-name="Rectangle 7738" class="cls-4" transform="translate(32.088 22.469)" d="M0 0h8.85v1.751H0z"/>
            <path id="Rectangle_7739" data-name="Rectangle 7739" class="cls-4" transform="translate(43.526 22.469)" d="M0 0h17.881v1.751H0z"/>
            <g id="Group_1802" data-name="Group 1802" transform="translate(32.088 22.469)">
                <path id="Rectangle_7740" data-name="Rectangle 7740" class="cls-4" transform="translate(31.857)" d="M0 0h13.389v1.751H0z"/>
                <path id="Rectangle_7741" data-name="Rectangle 7741" class="cls-4" transform="translate(0 5.669)" d="M0 0h13.389v1.751H0z"/>
            </g>
            <path id="Rectangle_7742" data-name="Rectangle 7742" class="cls-4" transform="translate(48.813 28.138)" d="M0 0h28.123v1.751H0z"/>
            <path id="Rectangle_7743" data-name="Rectangle 7743" class="cls-4" transform="translate(78.328 28.138)" d="M0 0h11.733v1.751H0z"/>
            <path id="Rectangle_7744" data-name="Rectangle 7744" class="cls-4" transform="translate(32.088 33.807)" d="M0 0h16.449v1.751H0z"/>
            <path id="Rectangle_7745" data-name="Rectangle 7745" class="cls-4" transform="translate(51.658 33.807)" d="M0 0h16.449v1.751H0z"/>
            <g id="Group_1803" data-name="Group 1803" transform="translate(32.088 33.807)">
                <path id="Rectangle_7746" data-name="Rectangle 7746" class="cls-4" transform="translate(39.137)" d="M0 0h16.449v1.751H0z"/>
                <path id="Rectangle_7747" data-name="Rectangle 7747" class="cls-4" transform="translate(0 5.669)" d="M0 0h13.389v1.751H0z"/>
            </g>
            <path id="Rectangle_7748" data-name="Rectangle 7748" class="cls-4" transform="translate(48.018 39.477)" d="M0 0h8.031v1.751H0z"/>
            <path id="Rectangle_7749" data-name="Rectangle 7749" class="cls-4" transform="translate(57.571 39.477)" d="M0 0h8.031v1.751H0z"/>
            <path id="Path_6618" data-name="Path 6618" class="cls-5" d="M194.65 376.416l9.4 3.011h-44.342l7.581-3.011v-9.3h27.361z" transform="translate(-124.764 -285.407)"/>
            <path id="Path_6619" data-name="Path 6619" class="cls-6" d="M216.191 376.416l-27.362-9.3h27.362z" transform="translate(-146.304 -285.407)"/>
            <path id="Path_6620" data-name="Path 6620" class="cls-7" d="M167.285 402.831h27.362l9.4 3.011v1.3H159.7v-1.3l7.581-3.011z" transform="translate(-124.76 -311.822)"/>
            <circle id="Ellipse_995" data-name="Ellipse 995" class="cls-8" cx="2.034" cy="2.034" r="2.034" transform="translate(55.077 73.297)"/>
        </g>
        <g id="browser" transform="translate(327.649 806.016)">
            <path id="Path_6605" data-name="Path 6605" class="cls-9" d="M378.02 234.442h2.214v-6.175h-2.214z" transform="translate(-356.542 -228.267)"/>
            <path id="Path_6606" data-name="Path 6606" class="cls-10" d="M362.889 228.267h6.445a.683.683 0 0 1 .681.681v2.815h-7.806v-2.815a.683.683 0 0 1 .681-.681z" transform="translate(-343.526 -228.267)"/>
            <ellipse id="Ellipse_988" data-name="Ellipse 988" class="cls-6" cx="22.585" cy="22.585" rx="22.585" ry="22.585" transform="translate(0 4.904)"/>
            <ellipse id="Ellipse_989" data-name="Ellipse 989" class="cls-7" cx="20.711" cy="20.711" rx="20.711" ry="20.711" transform="translate(1.874 6.778)"/>
            <ellipse id="Ellipse_990" data-name="Ellipse 990" class="cls-3" cx="19.816" cy="19.816" rx="19.816" ry="19.816" transform="translate(2.769 7.673)"/>
            <path id="Path_6607" data-name="Path 6607" class="cls-1" d="M296.129 284.057l.524-.17.466 1.432-.525.17zm11.941 34.966l-.524.17-.466-1.433.524-.17.466 1.433zm11.513-23.454l.17.524-1.432.466-.17-.524zm-12.037-11.683l.524.17-.466 1.432-.524-.17zm5.188 2.547l.446.324-.885 1.219-.446-.324zm4.148 4.026l.324.446-1.219.886-.324-.446zm2.871 16.527l-.17.524-1.432-.466.17-.525zm-2.547 5.188l-.324.446-1.219-.886.324-.447zm-4.026 4.148l-.446.324-.886-1.219.447-.324zm-16.527 2.871l-.524-.17.466-1.433.525.17-.466 1.433zm-5.189-2.547l-.446-.324.886-1.219.446.324zm-4.148-4.026l-.324-.446 1.219-.886.324.446zm-2.7-5.11l-.17-.524 1.433-.466.17.525-1.433.466zm-.17-11.417l.17-.524 1.433.466-.17.524-1.433-.466zm2.547-5.189l.324-.446 1.219.885-.324.446zm4.026-4.148l.446-.324.886 1.219-.446.324z" transform="translate(-279.514 -274.052)"/>
            <path id="Path_6608" data-name="Path 6608" class="cls-9" d="M380.968 310.469l.626-.626.612.626v12.464h-1.239v-12.464z" transform="translate(-358.968 -295.418)"/>
            <path id="Path_6609" data-name="Path 6609" class="cls-9" d="M315.966 392.711l-.854.167.4-.767 11.194-8.391.45.6-11.194 8.391z" transform="translate(-304.758 -356.231)"/>
            <path id="Path_6610" data-name="Path 6610" class="cls-9" d="M395.92 379.864l.713.621-.7.618-11.384.106-.009-1.239 11.384-.106z" transform="translate(-361.905 -353.057)"/>
            <ellipse id="Ellipse_991" data-name="Ellipse 991" class="cls-7" cx="2.086" cy="2.086" rx="2.086" ry="2.086" transform="translate(20.5 25.404)"/>
            <g id="Group_1800" data-name="Group 1800" transform="translate(4.916 9.819)">
                <path id="Path_6611" data-name="Path 6611" class="cls-2" d="M316.795 381.014h2.9v.956h-2.9zm-32.439 0h2.9v.956h-2.9z" transform="translate(-284.356 -363.822)"/>
                <path id="Path_6612" data-name="Path 6612" class="cls-2" d="M381.577 286.7v-2.9h.956v2.9zm0 32.438v-2.9h.956v2.9z" transform="translate(-364.385 -283.794)"/>
            </g>
            <ellipse id="Ellipse_992" data-name="Ellipse 992" class="cls-1" cx="1.657" cy="1.657" rx="1.657" ry="1.657" transform="translate(20.928 25.832)"/>
        </g>
    </g>
</svg>
