<svg xmlns="http://www.w3.org/2000/svg" viewBox="0 0 109.976 101.407">
    <defs>
        <style>
            .cls-1{fill:#e4e4e4}.cls-2{fill:#fff}.cls-3{fill:#807d7d}.cls-4{fill:#707070}.cls-5{fill:#d8d8d8}.cls-6{fill:#e18577}
        </style>
    </defs>
    <g id="graduates" transform="translate(-15.93 -56.751)">
        <path id="Path_6605" data-name="Path 6605" class="cls-1" d="M15.93 165.892l17.658 8.015 16.622-7.546-17.658-8.016-16.622 7.546z" transform="translate(0 -69.222)"/>
        <path id="Path_6606" data-name="Path 6606" class="cls-2" d="M32.5 239.86h7.036l.57 5.93 1.722 1.264 10.238 3.246a4.067 4.067 0 0 1 1.738 2.8c.174.907.54 19.043.923 26.789a59.929 59.929 0 0 1-34.477-29.681l10.024-3.2 1.652-1.219z" transform="translate(-2.944 -124.763)"/>
        <path id="Path_6607" data-name="Path 6607" class="cls-1" d="M63.581 266.948c-1.7 1.983-7.368 2.839-10.49-.549l5.3 15.773z" transform="translate(-25.32 -142.846)"/>
        <path id="Path_6608" data-name="Path 6608" class="cls-2" d="M40 189.941c-2.206-.391-.326 6.2 1.286 5.216l.866 2.54c.779 2.287 2.744 4.371 4.241 6.02.584.644 4.16.633 4.736.025 1.657-1.742 3.624-3.7 4.363-6.058l.791-2.527c1.615.981 3.491-5.606 1.286-5.216.153-5.129-3.474-10.106-8.784-10.128-5.31.023-8.937 5-8.784 10.128z" transform="translate(-15.718 -83.849)"/>
        <path id="Path_6609" data-name="Path 6609" class="cls-3" d="M30.277 262.3l-10.024 3.2a59.917 59.917 0 0 0 34.62 29.732c-.432-5.064-.872-25.816-1.066-26.835a4.068 4.068 0 0 0-1.738-2.8l-10.244-3.257-5.809 17.035-5.738-17.075z" transform="translate(-2.946 -140.05)"/>
        <path id="Path_6610" data-name="Path 6610" class="cls-4" d="M56.285 179.055c.624-.073 2.875 1.983 3.145 4.366a16.853 16.853 0 0 1-.248 4.782c-1.585-.077-1.085 2.346-1.43 2.728l-.446.01-.167-1.626c-1.974-1.236.778-6.123-1.2-6.552a16.5 16.5 0 0 1-12.763 3.1c-1.228.163.558 1.715.04 3.5a2.879 2.879 0 0 0-.154 1.717l-.571.071s-.361-3.013-1.462-3a12.307 12.307 0 0 1-.3-3.447c.377-6.295 8.84-9.879 15.554-5.646z" transform="translate(-16.883 -82.081)"/>
        <path id="Path_6611" data-name="Path 6611" class="cls-5" d="M40.348 179.122c4-3.051 15.065-3.11 18.637-.028l.189 4.976a33.188 33.188 0 0 0-19.043.19l.218-5.138z" transform="translate(-16.49 -81.802)"/>
        <path id="Path_6612" data-name="Path 6612" class="cls-2" d="M29.021 175.62l.028 8.821v.273h-.517v-8.926c.018-.507.453-.576.489-.168z" transform="translate(-8.586 -80.812)"/>
        <path id="Path_6613" data-name="Path 6613" class="cls-6" d="M25.247 205.756a21.278 21.278 0 0 1-.521 4.507c-.028.135.447.578.539.135s-.009.01.411.039.5-.177.5-.183.088.211.5.183.32-.482.411-.039.566 0 .538-.135a21.291 21.291 0 0 1-.52-4.507c-.023-.9-.374-1.324-.931-1.453-.553.13-.905.553-.927 1.453z" transform="translate(-5.993 -100.536)"/>
        <path id="Path_6614" data-name="Path 6614" class="cls-3" d="M27.37 204.3c.924 0 .951.587.9 1.129a1.543 1.543 0 0 0-1.807 0c-.029-.629-.016-1.129.907-1.129z" transform="translate(-7.173 -100.536)"/>
        <g id="Group_1778" data-name="Group 1778" transform="translate(94.591 89.124)">
            <path id="Path_6615" data-name="Path 6615" class="cls-1" d="M262.8 165.243l16.131 7.322 15.183-6.893-16.131-7.322z" transform="translate(-262.796 -158.349)"/>
            <path id="Path_6616" data-name="Path 6616" class="cls-4" d="M276.91 202.915c1.586-2.666 4.084-5.759 1.547-10.463-3.736-16.334 13.48-19.646 16.084-12.9 4.235 1.6 4.123 10.39 1.945 14.991-.1 1.894-2.066 3.545 1.492 8.43l.257-.056c-4.617 1.332-16.447.716-21.325-.002z" transform="translate(-272.413 -170.554)"/>
        </g>
        <path id="Path_6617" data-name="Path 6617" class="cls-2" d="M276.229 249.106c-.158 2.924-1.2 4.029-2.637 4.8-.732.647-7.16 1.421-8.029 3.769-.184.5-.74 16.038-1.268 26.32a59.985 59.985 0 0 0 28.593-27.043c-1.848-1.965-7.235-2.435-7.87-2.965-1.408-.788-2.42-1.947-2.576-4.88 0 0-2.1 1.632-3.413 1.381a8.4 8.4 0 0 1-2.8-1.382z" transform="translate(-169.227 -131.063)"/>
        <path id="Path_6618" data-name="Path 6618" class="cls-2" d="M286.341 212.116c1.3 2.78 1.779 3.865 3.39 5.116a8.354 8.354 0 0 0 2.8 1.408c1.309.257 3.413-1.408 3.413-1.408 1.613-1.249 2.092-2.335 3.39-5.116.318.169.651.4.909.1s1.489-4.143 1.267-4.661-.438-.187-.767.048c.017-.112-.261 1.389-.256 1.161.031-1.815-1.245-2.1-1.645-6.907-5.883 5.838-11.38 3.159-13.295 3.55-.555.113-.718 1.534-.615 2.2-2.076-1.482.447 4.553.5 4.613.259.3.591.067.909-.1z" transform="translate(-182.729 -98.871)"/>
        <path id="Path_6619" data-name="Path 6619" class="cls-6" d="M269.019 264.147c-2.431 1.018-6.212 1.063-8.1 3.539-.359.469-2.061 17.184-3.33 27.461a59.968 59.968 0 0 0 30.726-27.947c-2-2.251-5.944-2.046-7.826-3.056l-5.521 11.285z" transform="translate(-164.654 -141.306)"/>
        <path id="Path_6620" data-name="Path 6620" class="cls-5" d="M282.955 178c4.156-2.786 14.277-2.667 17.986.149l.383 4.662a35.284 35.284 0 0 0-18.8.106l.428-4.915z" transform="translate(-181.65 -81.23)"/>
        <g id="Group_1779" data-name="Group 1779" transform="translate(97.765 94.197)">
            <path id="Path_6621" data-name="Path 6621" class="cls-1" d="M301.643 279.629a11.529 11.529 0 0 0 6.451 0l-3.106 6.35-3.346-6.348z" transform="translate(-292.439 -246.055)"/>
            <path id="Path_6622" data-name="Path 6622" class="cls-2" d="M273.2 174.507l.026 7.942v.246h-.472v-8.037c.022-.458.42-.519.446-.151z" transform="translate(-272.759 -174.268)"/>
        </g>
        <path id="Path_6623" data-name="Path 6623" class="cls-6" d="M269.758 201.652a19.414 19.414 0 0 1-.475 4.117c-.025.123.408.528.493.123s-.009.009.376.036.456-.162.458-.167.081.193.459.167.292-.44.375-.036.516 0 .492-.123a19.333 19.333 0 0 1-.475-4.117c-.021-.821-.343-1.209-.852-1.328-.509.119-.831.507-.851 1.328z" transform="translate(-172.624 -97.825)"/>
        <path id="Path_6624" data-name="Path 6624" class="cls-3" d="M271.663 200.328c.843 0 .869.536.826 1.032a1.414 1.414 0 0 0-1.651 0c-.031-.576-.018-1.032.825-1.032z" transform="translate(-173.679 -97.828)"/>
        <path id="Path_6625" data-name="Path 6625" class="cls-4" d="M87.414 71.245l33.92 15.4 31.929-14.495-33.919-15.4-31.929 14.496z" transform="translate(-48.706)"/>
        <path id="Path_6626" data-name="Path 6626" class="cls-2" d="M104.564 213.32h13.513l1.1 11.389 3.307 2.428 19.677 6.237a7.817 7.817 0 0 1 3.338 5.39c.4 2.1 1.34 7.484 2.226 12.889a59.738 59.738 0 0 1-73.541 1.036c1.183-5.759 2.6-11.981 2.967-13.926a9.768 9.768 0 0 1 3.338-5.39l19.811-6.323 3.172-2.341 1.094-11.39z" transform="translate(-39.689 -106.678)"/>
        <path id="Path_6627" data-name="Path 6627" class="cls-4" d="M178.947 265.356c-3.262 3.809-14.152 5.454-20.151-1.054l10.18 30.3 9.972-29.244z" transform="translate(-97.344 -141.417)"/>
        <path id="Path_6628" data-name="Path 6628" class="cls-2" d="M133.655 117.437c-4.237-.751-.625 11.906 2.471 10.018l1.661 4.879c1.5 4.395 5.271 8.4 8.144 11.564 1.121 1.235 7.989 1.216 9.1.048 3.181-3.346 6.961-7.1 8.38-11.636l1.52-4.854c3.1 1.885 6.706-10.768 2.471-10.018.294-9.852-6.673-19.411-16.873-19.454-10.2.041-17.167 9.6-16.874 19.453z" transform="translate(-78.898 -28.093)"/>
        <path id="Path_6629" data-name="Path 6629" class="cls-1" d="M100.3 256.42l-19.811 6.323a9.768 9.768 0 0 0-3.338 5.388c-.371 1.944-1.784 8.166-2.967 13.926a59.736 59.736 0 0 0 73.541-1.037c-.886-5.406-1.826-10.792-2.226-12.889a7.82 7.82 0 0 0-3.338-5.388l-19.677-6.237-11.163 32.724z" transform="translate(-39.69 -136.046)"/>
        <path id="Path_6630" data-name="Path 6630" class="cls-4" d="M164.943 96.527c1.2-.139 5.522 3.81 6.041 8.386a32.408 32.408 0 0 1-.478 9.186c-3.043-.149-2.085 4.5-2.748 5.24l-.856.019-.32-3.123c-3.79-2.375 1.5-11.761-2.3-12.584-6.489 5.345-16.116 7.323-24.515 5.95-2.357.314 1.073 3.294.078 6.722a5.527 5.527 0 0 0-.3 3.3l-1.1.137s-.693-5.787-2.808-5.764a23.642 23.642 0 0 1-.583-6.621c.724-12.093 16.981-18.979 29.878-10.847z" transform="translate(-81.146 -24.698)"/>
        <path id="Path_6631" data-name="Path 6631" class="cls-3" d="M134.313 96.652c7.692-5.858 28.938-5.974 35.8-.053l.361 9.557c-11.976-3.555-24.334-3.229-36.579.364l.418-9.869z" transform="translate(-80.377 -24.159)"/>
        <path id="Path_6632" data-name="Path 6632" class="cls-2" d="M112.564 89.926l.054 16.944v.525h-.993V90.247c.034-.971.875-1.105.939-.321z" transform="translate(-65.203 -22.257)"/>
        <path id="Path_6633" data-name="Path 6633" class="cls-6" d="M105.307 147.811a40.732 40.732 0 0 1-1 8.656c-.053.259.859 1.11 1.035.259s-.017.018.789.073.959-.338.965-.351c.005.013.171.406.965.351s.614-.925.79-.073 1.088 0 1.035-.259a40.877 40.877 0 0 1-1-8.656c-.043-1.728-.72-2.543-1.789-2.793-1.071.249-1.748 1.064-1.79 2.793z" transform="translate(-60.215 -60.141)"/>
        <path id="Path_6634" data-name="Path 6634" class="cls-3" d="M109.387 145.018c1.774 0 1.826 1.126 1.736 2.17a2.971 2.971 0 0 0-3.471 0c-.063-1.212-.038-2.17 1.735-2.17z" transform="translate(-62.484 -60.141)"/>
    </g>
</svg>
