<?xml version="1.0" standalone="no"?>
<!DOCTYPE svg PUBLIC "-//W3C//DTD SVG 1.1//EN" "http://www.w3.org/Graphics/SVG/1.1/DTD/svg11.dtd" >
<svg xmlns="http://www.w3.org/2000/svg" xmlns:xlink="http://www.w3.org/1999/xlink" version="1.1">
<metadata>
Created by FontForge 20160405 at Thu Oct  5 05:36:48 2017
 By www-data
Copyright (c) 2005-2009 Parachute :, www.parachute.gr.  All rights reserved.
</metadata>
<defs>
<font id="PFEncoreSansPro-ExtraThin" horiz-adv-x="1818" >
  <font-face 
    font-family="PF Encore Sans Pro ExtraThin"
    font-weight="200"
    font-stretch="normal"
    units-per-em="1000"
    panose-1="2 0 5 3 4 0 0 2 0 4"
    ascent="750"
    descent="-250"
    x-height="477"
    cap-height="674"
    bbox="-307 -246 1760 913"
    underline-thickness="25"
    underline-position="-100"
    stemh="23"
    stemv="28"
    unicode-range="U+0020-FB05"
  />
<missing-glyph horiz-adv-x="428" 
d="M0 0v700h428v-700h-428zM229 350l178 -323v650zM20 672v-643l179 321zM214 369l170 310h-340zM44 21h340l-170 310z" />
    <glyph glyph-name="fj" unicode="fj" horiz-adv-x="436" 
d="M277 -180h-22v23h23c46 0 57 28 57 86v525h-214v-454h-26v454h-83v18l83 6v83c0 110 67 156 166 156c29 0 53 -2 85 -8v-22c-28 4 -50 6 -78 6c-95 0 -147 -34 -147 -131v-84h240v-550c0 -71 -17 -108 -84 -108z" />
    <glyph glyph-name="ffj" unicode="ffj" horiz-adv-x="680" 
d="M521 -180h-22v23h23c46 0 57 28 57 86v525h-215v-454h-26v454h-214v-454h-26v454h-83v18l83 6v86c0 105 39 148 127 148c19 0 40 -2 57 -6v-23c-20 3 -37 5 -54 5c-70 0 -104 -23 -104 -119v-91h214v93c0 110 67 156 166 156c29 0 53 -2 85 -8v-22c-28 4 -50 6 -78 6
c-95 0 -147 -34 -147 -131v-94h241v-550c0 -71 -17 -108 -84 -108z" />
    <glyph glyph-name="ff" unicode="ff" horiz-adv-x="542" 
d="M530 478v-24h-156v-454h-26v454h-214v-454h-26v454h-83v18l83 6v90c0 105 32 148 127 148c19 0 40 -2 57 -6v-23c-20 3 -37 5 -54 5c-80 0 -104 -23 -104 -119v-95h214v110c0 105 32 148 127 148c19 0 40 -2 57 -6v-23c-20 3 -37 5 -54 5c-80 0 -104 -23 -104 -119v-115
h156z" />
    <glyph glyph-name="fi" unicode="fi" horiz-adv-x="436" 
d="M121 478h240v-478h-26v454h-214v-454h-26v454h-83v18l83 6v83c0 110 67 156 166 156c29 0 53 -2 85 -8v-22c-28 4 -50 6 -78 6c-95 0 -147 -34 -147 -131v-84z" />
    <glyph glyph-name="fl" unicode="fl" horiz-adv-x="436" 
d="M271 478v-24h-150v-454h-26v454h-83v18l83 6v83c0 110 67 156 166 156c27 0 51 -2 80 -7h20v-710h-26v688c-23 3 -43 5 -67 5c-95 0 -147 -34 -147 -131v-84h150z" />
    <glyph glyph-name="ffi" unicode="ffi" horiz-adv-x="680" 
d="M364 478h241v-478h-26v454h-215v-454h-26v454h-214v-454h-26v454h-83v18l83 6v86c0 105 39 148 127 148c19 0 40 -2 57 -6v-23c-20 3 -37 5 -54 5c-70 0 -104 -23 -104 -119v-91h214v93c0 110 67 156 166 156c29 0 53 -2 85 -8v-22c-28 4 -50 6 -78 6
c-95 0 -147 -34 -147 -131v-94z" />
    <glyph glyph-name="ffl" unicode="ffl" horiz-adv-x="677" 
d="M511 478v-24h-150v-454h-26v454h-214v-454h-26v454h-83v18l83 6v86c0 105 39 148 127 148c19 0 40 -2 57 -6v-23c-20 3 -37 5 -54 5c-70 0 -104 -23 -104 -119v-91h214v93c0 110 68 156 167 156c27 0 51 -2 80 -7h20v-720h-26v698c-23 3 -43 5 -67 5
c-95 0 -148 -34 -148 -131v-94h150z" />
    <glyph glyph-name="ft" unicode="ft" horiz-adv-x="554" 
d="M374 596v-118h148v-22h-148v-312c0 -93 37 -127 112 -127c15 0 48 1 62 3v-23c-15 -2 -50 -3 -65 -3c-103 0 -136 46 -136 156v306h-213v-455h-26v455h-83v17l83 5v91c0 105 32 147 127 147c19 0 40 -1 57 -5v-23c-20 3 -37 5 -54 5c-80 0 -104 -23 -104 -119v-96h213
l10 118h17z" />
    <glyph glyph-name="fb" unicode="fb" horiz-adv-x="790" 
d="M366 76h-4c0 -34 1 -58 -6 -76h-21v688c-23 3 -43 5 -67 5c-95 0 -147 -34 -147 -131v-84h150v-24h-150v-454h-26v454h-83v18l83 6v83c0 110 67 156 166 156c25 0 47 -2 74 -6h27v-226c0 -37 0 -74 -3 -109l3 -1c21 52 80 111 177 111c154 0 201 -108 201 -249
c0 -142 -60 -245 -205 -245c-78 0 -135 25 -169 84zM536 462c-123 0 -174 -109 -174 -196v-70c0 -108 60 -181 171 -181c123 0 179 79 179 222c0 131 -40 225 -176 225z" />
    <glyph glyph-name="ffb" unicode="ffb" horiz-adv-x="1030" 
d="M361 562v-84h150v-24h-150v-454h-26v454h-214v-454h-26v454h-83v18l83 6v86c0 105 39 148 127 148c19 0 40 -2 57 -6v-23c-20 3 -37 5 -54 5c-70 0 -104 -23 -104 -119v-91h214v83c0 110 67 156 166 156c25 0 47 -2 74 -6h27v-226c0 -37 0 -74 -3 -109l3 -1
c21 52 80 111 177 111c154 0 201 -108 201 -249c0 -142 -60 -245 -205 -245c-78 0 -135 25 -169 84h-4c0 -34 1 -58 -6 -76h-21v688c-23 3 -43 5 -67 5c-95 0 -147 -34 -147 -131zM776 462c-123 0 -174 -109 -174 -196v-70c0 -108 60 -181 171 -181c123 0 179 79 179 222
c0 131 -40 225 -176 225z" />
    <glyph glyph-name="fh" unicode="fh" horiz-adv-x="781" 
d="M359 386h4c30 63 93 100 178 100c158 0 182 -99 182 -214v-272h-28v272c0 97 -14 189 -157 189c-123 0 -176 -91 -176 -188v-273h-27v688c-23 3 -43 5 -67 5c-95 0 -147 -34 -147 -131v-84h150v-24h-150v-454h-26v454h-83v18l83 6v83c0 110 67 156 166 156
c25 0 47 -2 74 -6h27v-231c0 -30 0 -61 -3 -94z" />
    <glyph glyph-name="ffh" unicode="ffh" horiz-adv-x="1021" 
d="M361 562v-84h150v-24h-150v-454h-26v454h-214v-454h-26v454h-83v18l83 6v86c0 105 39 148 127 148c19 0 40 -2 57 -6v-23c-20 3 -37 5 -54 5c-70 0 -104 -23 -104 -119v-91h214v83c0 110 67 156 166 156c25 0 47 -2 74 -6h27v-231c0 -30 0 -61 -3 -94h4
c30 63 93 100 178 100c158 0 182 -99 182 -214v-272h-28v272c0 97 -14 189 -157 189c-123 0 -176 -91 -176 -188v-273h-27v688c-23 3 -43 5 -67 5c-95 0 -147 -34 -147 -131z" />
    <glyph glyph-name="fk" unicode="fk" horiz-adv-x="706" 
d="M654 478h32l-187 -218l197 -260h-34l-186 247h-114v-247h-27v688c-23 3 -43 5 -67 5c-95 0 -147 -34 -147 -131v-84h150v-24h-150v-454h-26v454h-83v18l83 6v83c0 110 67 156 166 156c25 0 47 -2 74 -6h27v-438h114z" />
    <glyph glyph-name="ffk" unicode="ffk" horiz-adv-x="946" 
d="M361 562v-84h150v-24h-150v-454h-26v454h-214v-454h-26v454h-83v18l83 6v86c0 105 39 148 127 148c19 0 40 -2 57 -6v-23c-20 3 -37 5 -54 5c-70 0 -104 -23 -104 -119v-91h214v83c0 110 67 156 166 156c25 0 47 -2 74 -6h27v-438h114l178 205h32l-187 -218l197 -260h-34
l-186 247h-114v-247h-27v688c-23 3 -43 5 -67 5c-95 0 -147 -34 -147 -131z" />
    <glyph glyph-name="r_y" unicode="ry" horiz-adv-x="654" 
d="M102 0h-27v478h21c6 -22 6 -62 6 -94h4c24 60 88 102 173 103l79 -212c27 -71 64 -169 91 -248h7c20 69 52 155 79 233l75 217h29l-180 -530c-25 -75 -40 -143 -141 -143h-53v24h50c58 0 82 23 103 82l30 88l-18 -2c-26 81 -56 152 -80 217l-90 245
c-139 -15 -158 -120 -158 -195v-263z" />
    <glyph glyph-name=".notdef" horiz-adv-x="428" 
d="M0 0v700h428v-700h-428zM229 350l178 -323v650zM20 672v-643l179 321zM214 369l170 310h-340zM44 21h340l-170 310z" />
    <glyph glyph-name="quotedbl" unicode="&#x22;" horiz-adv-x="262" 
d="M186 472h-17l-8 202h33zM100 472h-17l-8 202h32z" />
    <glyph glyph-name="numbersign" unicode="#" horiz-adv-x="572" 
d="M579 426h-121l-31 -188h119l-4 -22h-119l-36 -216h-24l38 216h-200l-38 -216h-22l38 216h-119l4 22h118l33 188h-122l4 21h122l34 203h21l-33 -203h199l33 203h23l-35 -203h123zM237 426l-32 -188h199l32 188h-199z" />
    <glyph glyph-name="dollar" unicode="$" horiz-adv-x="572" 
d="M310 -83v807h23v-71c101 -9 183 -60 183 -159c0 -4 -1 -10 -2 -13h-23c0 65 -35 131 -158 145v-274c115 -24 200 -65 200 -177c0 -84 -60 -167 -200 -180v-78h-23zM273 724v-807h-23v77c-128 11 -208 73 -208 175c0 5 0 11 1 17h25c0 -72 32 -148 182 -167v324
c-112 23 -184 53 -184 149c0 75 54 147 184 161v71h23zM505 169c0 87 -45 130 -172 157v-306c131 15 172 88 172 149zM97 494c0 -74 45 -99 153 -123v255c-109 -12 -153 -69 -153 -132z" />
    <glyph glyph-name="percent" unicode="%" horiz-adv-x="780" 
d="M191 -30h-28l417 733h28zM206 678c126 0 162 -95 162 -200c0 -98 -38 -193 -162 -193c-126 0 -164 79 -164 192c0 119 45 201 164 201zM205 654c-103 0 -137 -72 -137 -177c0 -115 47 -169 137 -169c81 0 136 54 136 170c0 104 -38 176 -136 176zM587 388
c126 0 162 -95 162 -200c0 -98 -38 -193 -162 -193c-126 0 -164 79 -164 192c0 119 45 201 164 201zM586 364c-103 0 -137 -72 -137 -177c0 -115 47 -169 137 -169c81 0 136 54 136 170c0 104 -38 176 -136 176z" />
    <glyph glyph-name="quotesingle" unicode="'" horiz-adv-x="195" 
d="M110 472h-17l-8 202h32z" />
    <glyph glyph-name="parenleft" unicode="(" horiz-adv-x="275" 
d="M83 299c0 -162 70 -297 153 -402l-12 -11c-94 99 -168 242 -168 406c0 172 72 313 168 414l12 -9c-89 -109 -153 -244 -153 -398z" />
    <glyph glyph-name="parenright" unicode=")" horiz-adv-x="275" 
d="M185 299c0 154 -64 289 -153 398l12 9c96 -101 168 -242 168 -414c0 -164 -74 -307 -168 -406l-12 11c83 105 153 240 153 402z" />
    <glyph glyph-name="asterisk" unicode="*" horiz-adv-x="423" 
d="M229 515l85 -106l-28 -20l-73 116l-69 -115l-27 19l83 106l-128 39l12 30l122 -53l-5 132h28l-8 -131l125 52l11 -29z" />
    <glyph glyph-name="comma" unicode="," horiz-adv-x="188" 
d="M47 -126l43 120c-17 2 -31 16 -31 34c0 20 15 36 34 36c20 0 36 -13 36 -35c0 -3 -1 -12 -5 -21l-65 -138z" />
    <glyph glyph-name="period" unicode="." horiz-adv-x="188" 
d="M59 28c0 20 15 36 34 36c20 0 36 -16 36 -36c0 -19 -16 -34 -36 -34c-19 0 -34 15 -34 34z" />
    <glyph glyph-name="slash" unicode="/" horiz-adv-x="484" 
d="M32 -45h-28l448 762h28z" />
    <glyph glyph-name="zero" unicode="0" horiz-adv-x="572" 
d="M288 654c192 0 246 -161 246 -337c0 -164 -57 -325 -247 -325c-192 0 -250 133 -250 324c0 200 69 338 251 338zM286 631c-167 0 -223 -130 -223 -315c0 -204 77 -302 223 -302c133 0 222 98 222 303c0 184 -62 314 -222 314z" />
    <glyph glyph-name="one" unicode="1" horiz-adv-x="572" 
d="M483 22v-22h-394v22h184v589l-161 -30v17l160 45h28v-621h183z" />
    <glyph glyph-name="two" unicode="2" horiz-adv-x="572" 
d="M285 654c147 0 205 -74 205 -159c0 -100 -96 -161 -178 -213c-153 -97 -230 -127 -228 -259h419v-23h-447v29c0 134 92 183 233 270c93 57 170 108 170 195c0 80 -52 134 -173 134c-146 0 -193 -81 -194 -155h-21c-1 6 -1 11 -1 14c0 111 97 166 215 167z" />
    <glyph glyph-name="four" unicode="4" horiz-adv-x="572" 
d="M398 644h25v-444h112v-25h-112v-175h-28v175h-359v27zM71 205l2 -5h322v394l-4 2z" />
    <glyph glyph-name="five" unicode="5" horiz-adv-x="572" 
d="M508 199c0 -121 -87 -207 -236 -207c-118 0 -215 51 -215 162c0 3 0 8 1 14h21c1 -74 48 -152 192 -152c135 0 210 75 210 179c0 133 -98 186 -209 186c-46 0 -105 -8 -148 -21l-25 10l41 274h328v-24h-306l-35 -235c41 13 98 20 144 20c121 0 237 -55 237 -206z" />
    <glyph glyph-name="six" unicode="6" horiz-adv-x="572" 
d="M87 250l5 -1c21 78 100 149 205 149c129 0 213 -71 213 -197c0 -120 -73 -209 -221 -209c-161 0 -225 84 -225 293c0 183 49 369 240 369c97 0 181 -51 181 -143c0 -3 0 -7 -1 -12h-20c-1 62 -39 132 -160 132c-180 0 -214 -184 -217 -381zM295 375
c-106 0 -193 -90 -193 -189c0 -131 97 -173 190 -173c100 0 192 57 192 186c0 101 -56 176 -189 176z" />
    <glyph glyph-name="seven" unicode="7" horiz-adv-x="572" 
d="M192 0h-29l312 620h-408v23h437v-23z" />
    <glyph glyph-name="eight" unicode="8" horiz-adv-x="572" 
d="M346 351v-4c147 -34 165 -135 165 -180c0 -90 -75 -175 -226 -175c-141 0 -225 65 -225 173c0 53 28 142 173 181l1 4c-134 32 -147 108 -147 148c0 71 62 156 198 156c151 0 200 -85 200 -156c0 -42 -29 -114 -139 -147zM486 165c0 89 -69 160 -199 171
c-127 -17 -202 -82 -202 -173c0 -106 97 -150 200 -150c96 0 201 47 201 152zM285 631c-93 0 -171 -49 -171 -133c0 -78 65 -114 172 -140c109 18 173 74 173 141c0 86 -81 132 -174 132z" />
    <glyph glyph-name="nine" unicode="9" horiz-adv-x="572" 
d="M481 396l-5 1c-19 -81 -97 -149 -195 -149c-134 0 -212 69 -212 197c0 125 74 209 217 209s219 -92 219 -293c0 -196 -38 -369 -244 -369c-97 0 -180 51 -180 143c0 3 0 7 1 12h22c1 -55 38 -132 159 -132c189 0 215 159 218 381zM283 270c106 0 183 91 183 190
c0 120 -93 171 -180 171c-93 0 -191 -43 -191 -184c0 -101 49 -177 188 -177z" />
    <glyph glyph-name="colon" unicode=":" horiz-adv-x="188" 
d="M59 366c0 20 15 36 34 36c20 0 36 -16 36 -36c0 -19 -16 -34 -36 -34c-19 0 -34 15 -34 34zM59 28c0 20 15 36 34 36c20 0 36 -16 36 -36c0 -19 -16 -34 -36 -34c-19 0 -34 15 -34 34z" />
    <glyph glyph-name="semicolon" unicode=";" horiz-adv-x="188" 
d="M59 366c0 20 15 36 34 36c20 0 36 -16 36 -36c0 -19 -16 -34 -36 -34c-19 0 -34 15 -34 34zM47 -126l43 120c-17 2 -31 16 -31 34c0 20 15 36 34 36c20 0 36 -13 36 -35c0 -3 -1 -12 -5 -21l-65 -138z" />
    <glyph glyph-name="less" unicode="&#x3c;" horiz-adv-x="572" 
d="M97 254v31l378 181v-25l-354 -170l354 -170v-27z" />
    <glyph glyph-name="greater" unicode="&#x3e;" horiz-adv-x="572" 
d="M475 285v-31l-378 -180v27l354 170l-354 170v25z" />
    <glyph glyph-name="question" unicode="?" horiz-adv-x="572" 
d="M469 542c0 -56 -37 -105 -93 -157c-57 -53 -105 -106 -105 -202v-21h-30v15c0 82 29 147 97 211c58 54 100 97 100 150c0 80 -43 134 -159 134c-146 0 -175 -81 -176 -155h-23c-1 6 -1 11 -1 14c0 111 81 167 199 167c138 0 191 -70 191 -156zM219 29c0 18 16 34 34 34
s34 -16 34 -34s-16 -34 -34 -34s-34 16 -34 34z" />
    <glyph glyph-name="at" unicode="@" horiz-adv-x="830" 
d="M395 507c99 0 138 -54 138 -121v-154c0 -40 25 -66 68 -66c74 0 127 60 127 201c0 185 -149 280 -305 280c-180 0 -328 -135 -328 -328c0 -196 140 -333 340 -333c56 0 119 4 193 37l9 -23c-63 -25 -131 -38 -201 -38c-210 0 -368 138 -368 357c0 194 147 351 355 351
c190 0 331 -115 331 -303c0 -148 -60 -225 -153 -225c-29 0 -79 16 -89 64h-5c-31 -46 -81 -66 -143 -66c-63 0 -119 30 -119 98c0 63 55 122 174 122c27 0 55 -2 88 -9v29c0 38 -9 105 -111 105c-83 0 -109 -47 -110 -85h-20v11c0 71 77 96 129 96zM364 162
c114 0 143 73 143 123v43c-34 8 -62 10 -89 10c-104 0 -147 -47 -147 -100c0 -42 27 -76 93 -76z" />
    <glyph glyph-name="A" unicode="A" horiz-adv-x="566" 
d="M525 0l-71 187h-344l-71 -187h-29l255 674h33l258 -674h-31zM285 637h-7c-22 -65 -46 -130 -70 -192l-89 -232h327l-90 232c-25 64 -47 128 -71 192z" />
    <glyph glyph-name="D" unicode="D" horiz-adv-x="619" 
d="M93 25h150c107 0 291 49 291 311c0 260 -181 313 -292 313h-149v-624zM65 0v673h186c143 0 313 -80 313 -339c0 -209 -132 -334 -313 -334h-186z" />
    <glyph glyph-name="E" unicode="E" horiz-adv-x="519" 
d="M65 0v674h410v-25h-382v-286h353v-25h-353v-313h396v-25h-424z" />
    <glyph glyph-name="F" unicode="F" horiz-adv-x="495" 
d="M65 0v674h420v-25h-392v-292h347v-26h-347v-331h-28z" />
    <glyph glyph-name="G" unicode="G" horiz-adv-x="628" 
d="M349 320v25h224v-110c0 -136 -77 -241 -248 -241c-202 0 -270 136 -270 336c0 207 81 351 276 351c115 0 223 -55 223 -166c0 -3 0 -8 -1 -14h-22c-1 74 -52 156 -204 156c-169 0 -245 -132 -245 -327c0 -215 84 -313 242 -313c189 0 222 140 222 222v81h-197z" />
    <glyph glyph-name="H" unicode="H" horiz-adv-x="628" 
d="M534 0v338h-442v-338h-27v675h27v-312h442v312h29v-675h-29z" />
    <glyph glyph-name="I" unicode="I" horiz-adv-x="197" 
d="M85 0v674h27v-674h-27z" />
    <glyph glyph-name="J" unicode="J" horiz-adv-x="532" 
d="M237 19c131 0 197 75 197 195v460h28v-466c0 -107 -61 -214 -224 -214c-129 0 -218 60 -218 171c0 3 0 8 1 14h24c1 -74 38 -160 192 -160z" />
    <glyph glyph-name="K" unicode="K" horiz-adv-x="521" 
d="M92 674v-311h137l240 311h33l-249 -322l258 -352h-36l-245 338h-138v-338h-27v674h27z" />
    <glyph glyph-name="L" unicode="L" horiz-adv-x="511" 
d="M65 0v674h28v-649h408v-25h-436z" />
    <glyph glyph-name="M" unicode="M" horiz-adv-x="759" 
d="M99 674l178 -346l100 -191h6c34 68 67 133 104 204l172 333h35v-674h-29v622h-4c-30 -61 -61 -123 -94 -185l-173 -334h-30l-190 365c-27 50 -53 102 -78 155h-4v-623h-27v674h34z" />
    <glyph glyph-name="N" unicode="N" horiz-adv-x="633" 
d="M98 620h-6v-620h-27v674h25l297 -414c50 -69 99 -139 147 -208h5v622h29v-674h-28l-318 441c-42 58 -84 118 -124 179z" />
    <glyph glyph-name="O" unicode="O" horiz-adv-x="658" 
d="M332 681c218 0 271 -166 271 -350c0 -171 -59 -337 -280 -337c-210 0 -268 136 -268 336c0 207 71 351 277 351zM330 657c-184 0 -248 -132 -248 -327c0 -215 77 -313 240 -313c161 0 251 98 251 314c0 194 -60 326 -243 326z" />
    <glyph glyph-name="P" unicode="P" horiz-adv-x="540" 
d="M312 258h-219v-258h-28v674h247c137 0 213 -94 213 -211c0 -87 -48 -205 -213 -205zM307 649h-214v-365h214c93 0 189 43 189 180c0 115 -79 185 -189 185z" />
    <glyph glyph-name="Q" unicode="Q" horiz-adv-x="658" 
d="M332 681c218 0 271 -166 271 -350c0 -159 -51 -315 -229 -337c69 -37 131 -57 177 -71l-12 -27c-68 23 -144 56 -208 96c-216 0 -276 138 -276 338c0 207 71 351 277 351zM330 657c-184 0 -248 -132 -248 -327c0 -215 79 -314 248 -314c152 0 243 99 243 315
c0 194 -60 326 -243 326z" />
    <glyph glyph-name="R" unicode="R" horiz-adv-x="554" 
d="M315 289h-23l219 -289h-33l-220 289h-165v-289h-28v674h248c143 0 216 -79 216 -195c0 -78 -42 -190 -214 -190zM309 649h-216v-333h216c93 0 190 31 190 163c0 115 -80 170 -190 170z" />
    <glyph glyph-name="S" unicode="S" horiz-adv-x="591" 
d="M292 -6c-152 0 -237 67 -237 193c0 5 0 11 1 17h25c0 -89 37 -185 209 -185c162 0 219 84 219 157c0 100 -66 150 -206 169c-125 17 -231 37 -231 160c0 88 62 177 229 177c119 0 225 -52 225 -178c0 -4 -1 -10 -2 -14h-24c0 85 -53 166 -198 166
c-134 0 -199 -70 -199 -146c0 -108 85 -119 226 -141c116 -18 209 -66 209 -186c0 -92 -63 -189 -246 -189z" />
    <glyph glyph-name="T" unicode="T" horiz-adv-x="534" 
d="M283 649v-649h-28v649h-240v25h504v-25h-236z" />
    <glyph glyph-name="U" unicode="U" horiz-adv-x="637" 
d="M572 674v-404c0 -161 -59 -277 -252 -277c-199 0 -255 105 -255 276v405h27v-405c0 -193 82 -251 229 -251c137 0 222 65 222 252v404h29z" />
    <glyph glyph-name="V" unicode="V" horiz-adv-x="565" 
d="M300 0h-35l-255 674h31l144 -381c32 -84 65 -171 96 -258h4c32 84 62 170 94 255l146 384h30z" />
    <glyph glyph-name="W" unicode="W" horiz-adv-x="839" 
d="M421 629h-4c-21 -77 -44 -157 -67 -233l-120 -396h-36l-184 674h31l100 -375c23 -88 46 -176 70 -262h4c28 92 53 181 79 268l110 369h32l104 -345c29 -96 56 -187 85 -292h4l78 291l92 346h30l-183 -674h-36l-117 387z" />
    <glyph glyph-name="X" unicode="X" horiz-adv-x="524" 
d="M479 0l-218 326l-219 -326h-34l237 349l-218 325h32l202 -303l204 303h32l-219 -325l236 -349h-35z" />
    <glyph glyph-name="Y" unicode="Y" horiz-adv-x="512" 
d="M248 306h7l100 172l114 196h33l-236 -402v-272h-29v271l-227 403h32l107 -188c33 -59 67 -119 99 -180z" />
    <glyph glyph-name="Z" unicode="Z" horiz-adv-x="529" 
d="M25 0v26l434 624h-419v25h454v-24l-435 -626h445v-25h-479z" />
    <glyph glyph-name="bracketleft" unicode="[" horiz-adv-x="284" 
d="M79 -124v834h132v-22h-106v-790h106v-22h-132z" />
    <glyph glyph-name="backslash" unicode="\" horiz-adv-x="492" 
d="M480 -45h-28l-448 762h28z" />
    <glyph glyph-name="bracketright" unicode="]" horiz-adv-x="284" 
d="M211 710l-1 -834h-131v22h106v790h-106v22h132z" />
    <glyph glyph-name="asciicircum" unicode="^" horiz-adv-x="572" 
d="M274 674h24c68 -138 138 -272 206 -409h-29l-189 375c-60 -125 -130 -251 -189 -375h-29c69 140 137 269 206 409z" />
    <glyph glyph-name="underscore" unicode="_" horiz-adv-x="500" 
d="M0 -104v24h500v-24h-500z" />
    <glyph glyph-name="grave" unicode="`" horiz-adv-x="513" 
d="M369 553l-13 -10l-126 125l32 23z" />
    <glyph glyph-name="b" unicode="b" horiz-adv-x="515" 
d="M261 462c-123 0 -174 -109 -174 -196v-70c0 -108 60 -181 171 -181c123 0 179 79 179 222c0 131 -40 225 -176 225zM91 76h-4c0 -34 1 -58 -6 -76h-21v711h27v-226c0 -37 -1 -75 -4 -110l3 -1c21 52 81 112 178 112c154 0 201 -108 201 -249c0 -142 -60 -245 -205 -245
c-78 0 -135 25 -169 84z" />
    <glyph glyph-name="c" unicode="c" horiz-adv-x="472" 
d="M257 -8c-148 0 -207 79 -207 242c0 133 50 252 210 252c93 0 168 -40 168 -129c0 -3 0 -7 -1 -12h-21c-1 54 -36 118 -148 118c-125 0 -180 -98 -180 -227c0 -168 67 -221 181 -221c124 0 155 76 156 130h21c1 -5 1 -9 1 -12c0 -91 -78 -141 -180 -141z" />
    <glyph glyph-name="d" unicode="d" horiz-adv-x="515" 
d="M254 462c-129 0 -176 -99 -176 -230c0 -149 56 -218 177 -218c119 0 173 90 173 182v70c0 96 -51 196 -174 196zM455 710v-710h-21c-7 19 -6 47 -6 85h-4c-43 -74 -105 -93 -176 -93c-156 0 -198 111 -198 240c0 141 53 254 205 254c111 0 150 -63 169 -106h4v330h27z
" />
    <glyph glyph-name="e" unicode="e" horiz-adv-x="495" 
d="M255 462c-127 0 -170 -95 -175 -198h335c0 106 -28 198 -160 198zM257 15c131 0 158 76 159 130h21c1 -5 1 -9 1 -12c0 -91 -81 -141 -183 -141c-155 0 -205 102 -205 246c0 136 54 248 205 248c142 0 185 -93 185 -203c0 -14 -1 -28 -2 -42h-360
c0 -156 59 -226 179 -226z" />
    <glyph glyph-name="f" unicode="f" horiz-adv-x="303" 
d="M134 478h158v-24h-158v-454h-26v454h-83v18l83 6v90c0 105 32 147 127 147c19 0 40 -2 57 -6v-22c-20 3 -37 5 -54 5c-80 0 -104 -23 -104 -119v-95z" />
    <glyph glyph-name="g" unicode="g" horiz-adv-x="527" 
d="M257 486c20 0 53 -1 80 -8h145v-18c-16 -5 -62 -6 -88 -6v-4c43 -24 73 -69 73 -134c0 -99 -73 -169 -203 -169c-82 0 -120 23 -132 28c-36 -20 -49 -45 -49 -62c0 -53 106 -55 209 -69c118 -15 190 -41 190 -121c0 -94 -107 -126 -235 -126c-149 0 -202 47 -202 117
c0 57 41 101 88 127c-46 10 -76 32 -76 68c0 26 16 58 57 80c-35 28 -58 69 -58 125c0 105 85 172 201 172zM258 463c-106 0 -174 -60 -174 -148c0 -82 49 -145 178 -145c113 0 178 55 178 147c0 60 -37 146 -182 146zM290 21l-123 14c-57 -27 -97 -68 -97 -121
c0 -57 55 -95 181 -95c100 0 205 21 205 103c0 49 -29 83 -166 99z" />
    <glyph glyph-name="h" unicode="h" horiz-adv-x="506" 
d="M84 386h4c30 63 93 100 178 100c158 0 182 -99 182 -214v-272h-28v272c0 97 -14 189 -157 189c-123 0 -176 -91 -176 -188v-273h-27v710h27v-230c0 -30 0 -61 -3 -94z" />
    <glyph glyph-name="i" unicode="i" horiz-adv-x="210" 
d="M92 0v478h27v-478h-27zM80 650c0 14 11 25 25 25s25 -11 25 -25s-11 -25 -25 -25s-25 11 -25 25z" />
    <glyph glyph-name="j" unicode="j" horiz-adv-x="210" 
d="M36 -196h-22v23h23c46 0 57 28 57 86v565h26v-566c0 -71 -17 -108 -84 -108zM82 650c0 14 11 25 25 25s25 -11 25 -25s-11 -25 -25 -25s-25 11 -25 25z" />
    <glyph glyph-name="k" unicode="k" horiz-adv-x="431" 
d="M379 478h32l-180 -218l190 -260h-34l-179 247h-121v-247h-27v711h27v-438h121z" />
    <glyph glyph-name="l" unicode="l" horiz-adv-x="193" 
d="M75 710h26v-644c0 -44 20 -49 59 -48v-23c-15 -2 -10 -1 -25 -1c-57 0 -60 35 -60 78v638z" />
    <glyph glyph-name="m" unicode="m" horiz-adv-x="847" 
d="M60 0v478h21c8 -20 6 -45 6 -83h4c45 76 115 91 171 91c100 0 153 -52 166 -118c32 79 97 119 185 119c158 0 176 -106 176 -221v-266h-28v266c0 97 -12 196 -151 196c-119 0 -172 -92 -172 -189v-273h-28v257c0 97 -14 204 -151 204c-119 0 -172 -91 -172 -188v-273h-27
z" />
    <glyph glyph-name="n" unicode="n" horiz-adv-x="506" 
d="M60 0v478h21c8 -20 6 -45 6 -83h4c45 76 123 92 179 92c151 0 178 -98 178 -203v-284h-28v272c0 77 -6 190 -153 190c-119 0 -180 -92 -180 -189v-273h-27z" />
    <glyph glyph-name="o" unicode="o" horiz-adv-x="521" 
d="M263 486c165 0 208 -121 208 -249c0 -126 -47 -245 -209 -245c-161 0 -212 92 -212 241c0 145 58 253 213 253zM263 463c-135 0 -185 -98 -185 -230c0 -146 51 -218 185 -218c114 0 180 69 180 222c0 128 -45 226 -180 226z" />
    <glyph glyph-name="p" unicode="p" horiz-adv-x="515" 
d="M261 15c129 0 176 100 176 231c0 147 -66 217 -177 217c-119 0 -173 -92 -173 -184v-72c0 -96 51 -192 174 -192zM60 -196v674h21c7 -17 6 -46 6 -84h4c40 69 103 92 174 92c146 0 200 -111 200 -240c0 -141 -53 -254 -205 -254c-105 0 -150 54 -169 97h-4v-285h-27z" />
    <glyph glyph-name="q" unicode="q" horiz-adv-x="515" 
d="M254 16c123 0 174 109 174 196v70c0 108 -60 181 -171 181c-123 0 -179 -85 -179 -228c0 -131 40 -219 176 -219zM424 402h4c0 34 0 59 6 76h21v-674h-27v189c0 37 0 74 3 109l-3 1c-21 -52 -80 -111 -177 -111c-154 0 -201 102 -201 243c0 142 60 251 205 251
c78 0 135 -25 169 -84z" />
    <glyph glyph-name="r" unicode="r" horiz-adv-x="286" 
d="M102 0h-27v478h21c6 -22 6 -56 6 -94h4c24 60 87 103 169 104l3 -31c-154 -10 -176 -97 -176 -194v-263z" />
    <glyph glyph-name="s" unicode="s" horiz-adv-x="457" 
d="M223 15c117 0 159 57 159 108c0 70 -52 101 -151 113c-86 10 -172 30 -172 120c0 69 47 130 170 130c85 0 166 -36 166 -124c0 -3 0 -7 -1 -12h-21c-1 54 -33 113 -145 113c-96 0 -141 -48 -141 -101c0 -78 60 -89 162 -103c87 -12 160 -43 160 -131
c0 -69 -50 -136 -184 -136c-102 0 -180 43 -180 141c0 3 0 7 1 12h21c1 -60 32 -130 156 -130z" />
    <glyph glyph-name="t" unicode="t" horiz-adv-x="313" 
d="M129 596v-118h148v-24h-148v-310c0 -99 43 -127 117 -127c17 0 36 1 57 4v-23c-24 -3 -45 -4 -64 -4c-93 0 -137 36 -137 156v304h-82v18l82 7l10 117h17z" />
    <glyph glyph-name="u" unicode="u" horiz-adv-x="496" 
d="M436 478v-478h-21c-8 20 -6 47 -6 85h-4c-45 -76 -116 -93 -166 -93c-157 0 -181 99 -181 214v272h28v-272c0 -97 17 -189 156 -189c111 0 167 91 167 188v273h27z" />
    <glyph glyph-name="v" unicode="v" horiz-adv-x="417" 
d="M205 28h4c25 76 56 160 92 254l75 196h29l-182 -481h-34l-181 481h29l79 -208c31 -81 63 -161 89 -242z" />
    <glyph glyph-name="w" unicode="w" horiz-adv-x="669" 
d="M334 447h-4c-22 -75 -48 -159 -76 -245l-67 -204h-34l-145 480h28l59 -196c25 -83 50 -168 73 -253h4c27 88 51 171 77 250l65 199h37l65 -201c27 -85 52 -172 77 -249h4c24 87 49 172 73 254l59 196h28l-145 -480h-34l-66 200c-29 87 -54 170 -78 249z" />
    <glyph glyph-name="x" unicode="x" horiz-adv-x="407" 
d="M363 0l-160 225l-159 -225h-34l176 247l-165 231h34l148 -211l148 211h33l-164 -231l177 -247h-34z" />
    <glyph glyph-name="y" unicode="y" horiz-adv-x="409" 
d="M204 27h7c20 69 52 155 79 233l75 217h29l-180 -530c-25 -75 -40 -143 -141 -143h-53v24h50c58 0 82 23 103 82l30 88l-18 -2c-26 81 -56 152 -80 217l-98 264h29l77 -202c27 -71 64 -169 91 -248z" />
    <glyph glyph-name="z" unicode="z" horiz-adv-x="409" 
d="M15 0v22l331 431h-304v25h337v-25l-329 -430h329v-23h-364z" />
    <glyph glyph-name="braceleft" unicode="{" horiz-adv-x="338" 
d="M129 286v-2c48 -17 49 -71 49 -120v-180c0 -59 14 -87 59 -87h26v-22h-32c-45 0 -75 34 -75 91v188c0 76 -5 106 -63 123v18c60 13 62 46 62 125v200c0 55 24 86 70 86h38v-20h-29c-52 0 -55 -36 -55 -83v-200c0 -54 -2 -96 -50 -117z" />
    <glyph glyph-name="bar" unicode="|" horiz-adv-x="264" 
d="M115 -124v841h27v-841h-27z" />
    <glyph glyph-name="braceright" unicode="}" horiz-adv-x="338" 
d="M227 284v2c-48 21 -50 63 -50 117v200c0 47 -3 83 -55 83h-29v20h38c46 0 70 -31 70 -86v-200c0 -79 2 -112 62 -125v-18c-58 -17 -63 -47 -63 -123v-188c0 -57 -30 -91 -75 -91h-32v22h26c45 0 59 28 59 87v180c0 49 1 103 49 120z" />
    <glyph glyph-name="asciitilde" unicode="~" horiz-adv-x="572" 
d="M382 263c45 0 70 16 99 60l21 -10c-25 -55 -73 -75 -118 -75c-69 0 -143 62 -196 62c-39 0 -63 -13 -92 -57l-20 11c24 51 66 71 111 71c64 0 143 -62 195 -62z" />
    <glyph glyph-name="Adieresis" unicode="&#xc4;" horiz-adv-x="566" 
d="M525 0l-71 187h-344l-71 -187h-29l255 674h33l258 -674h-31zM285 637h-7c-22 -65 -46 -130 -70 -192l-89 -232h327l-90 232c-25 64 -47 128 -71 192zM183 774c0 13 10 24 23 24s24 -11 24 -24s-11 -23 -24 -23s-23 10 -23 23zM336 774c0 13 10 24 23 24s24 -11 24 -24
s-11 -23 -24 -23s-23 10 -23 23z" />
    <glyph glyph-name="Eacute" unicode="&#xc9;" horiz-adv-x="519" 
d="M65 0v674h410v-25h-382v-286h353v-25h-353v-313h396v-25h-424zM247 729l-9 13l132 99l21 -28z" />
    <glyph glyph-name="Odieresis" unicode="&#xd6;" horiz-adv-x="658" 
d="M332 681c218 0 271 -166 271 -350c0 -171 -59 -337 -280 -337c-210 0 -268 136 -268 336c0 207 71 351 277 351zM330 657c-184 0 -248 -132 -248 -327c0 -215 77 -313 240 -313c161 0 251 98 251 314c0 194 -60 326 -243 326zM222 774c0 13 10 24 23 24s24 -11 24 -24
s-11 -23 -24 -23s-23 10 -23 23zM375 774c0 13 10 24 23 24s24 -11 24 -24s-11 -23 -24 -23s-23 10 -23 23z" />
    <glyph glyph-name="Udieresis" unicode="&#xdc;" horiz-adv-x="637" 
d="M572 674v-404c0 -161 -59 -277 -252 -277c-199 0 -255 105 -255 276v405h27v-405c0 -193 82 -251 229 -251c137 0 222 65 222 252v404h29zM219 774c0 13 10 24 23 24s24 -11 24 -24s-11 -23 -24 -23s-23 10 -23 23zM372 774c0 13 10 24 23 24s24 -11 24 -24
s-11 -23 -24 -23s-23 10 -23 23z" />
    <glyph glyph-name="agrave" unicode="&#xe0;" horiz-adv-x="468" 
d="M229 486c135 0 181 -72 181 -164v-322h-21c-7 17 -6 45 -6 83h-4c-50 -78 -129 -91 -189 -91c-83 0 -155 36 -155 130c0 85 70 162 227 162c35 0 76 -4 121 -13v43c0 56 -14 148 -150 148c-112 0 -147 -64 -148 -118h-21c-1 5 -1 9 -1 12c0 94 89 130 166 130zM189 14
c154 0 194 103 194 171v62c-46 10 -87 14 -122 14c-138 0 -199 -66 -199 -139c0 -60 39 -108 127 -108zM281 553l-13 -10l-126 125l32 23z" />
    <glyph glyph-name="acircumflex" unicode="&#xe2;" horiz-adv-x="468" 
d="M229 486c135 0 181 -72 181 -164v-322h-21c-7 17 -6 45 -6 83h-4c-50 -78 -129 -91 -189 -91c-83 0 -155 36 -155 130c0 85 70 162 227 162c35 0 76 -4 121 -13v43c0 56 -14 148 -150 148c-112 0 -147 -64 -148 -118h-21c-1 5 -1 9 -1 12c0 94 89 130 166 130zM189 14
c154 0 194 103 194 171v62c-46 10 -87 14 -122 14c-138 0 -199 -66 -199 -139c0 -60 39 -108 127 -108zM365 545l-133 101c-43 -35 -89 -68 -133 -102c-1 2 -8 8 -11 11c44 39 89 80 134 121h25c42 -40 87 -81 129 -120z" />
    <glyph glyph-name="adieresis" unicode="&#xe4;" horiz-adv-x="468" 
d="M229 486c135 0 181 -72 181 -164v-322h-21c-7 17 -6 45 -6 83h-4c-50 -78 -129 -91 -189 -91c-83 0 -155 36 -155 130c0 85 70 162 227 162c35 0 76 -4 121 -13v43c0 56 -14 148 -150 148c-112 0 -147 -64 -148 -118h-21c-1 5 -1 9 -1 12c0 94 89 130 166 130zM189 14
c154 0 194 103 194 171v62c-46 10 -87 14 -122 14c-138 0 -199 -66 -199 -139c0 -60 39 -108 127 -108zM133 592c0 13 10 24 23 24s24 -11 24 -24s-11 -23 -24 -23s-23 10 -23 23zM286 592c0 13 10 24 23 24s24 -11 24 -24s-11 -23 -24 -23s-23 10 -23 23z" />
    <glyph glyph-name="ccedilla" unicode="&#xe7;" horiz-adv-x="472" 
d="M250 -200c-28 0 -54 5 -80 16l8 19c29 -11 55 -14 70 -14c27 0 67 13 67 51c0 31 -28 49 -63 49c-10 0 -21 -1 -34 -6l-17 10l37 68c-134 6 -188 85 -188 241c0 133 50 252 210 252c93 0 168 -40 168 -129c0 -3 0 -7 -1 -12h-21c-1 54 -36 118 -148 118
c-125 0 -180 -98 -180 -227c0 -168 67 -221 181 -221c124 0 155 76 156 130h21c1 -5 1 -9 1 -12c0 -90 -76 -139 -175 -141l-29 -51c9 1 18 2 26 2c64 0 84 -44 84 -69c0 -40 -30 -73 -93 -74z" />
    <glyph glyph-name="eacute" unicode="&#xe9;" horiz-adv-x="495" 
d="M255 462c-127 0 -170 -95 -175 -198h335c0 106 -28 198 -160 198zM257 15c131 0 158 76 159 130h21c1 -5 1 -9 1 -12c0 -91 -81 -141 -183 -141c-155 0 -205 102 -205 246c0 136 54 248 205 248c142 0 185 -93 185 -203c0 -14 -1 -28 -2 -42h-360
c0 -156 59 -226 179 -226zM239 548l-13 10l102 131l32 -24z" />
    <glyph glyph-name="egrave" unicode="&#xe8;" horiz-adv-x="495" 
d="M255 462c-127 0 -170 -95 -175 -198h335c0 106 -28 198 -160 198zM257 15c131 0 158 76 159 130h21c1 -5 1 -9 1 -12c0 -91 -81 -141 -183 -141c-155 0 -205 102 -205 246c0 136 54 248 205 248c142 0 185 -93 185 -203c0 -14 -1 -28 -2 -42h-360
c0 -156 59 -226 179 -226zM306 553l-13 -10l-126 125l32 23z" />
    <glyph glyph-name="ecircumflex" unicode="&#xea;" horiz-adv-x="495" 
d="M255 462c-127 0 -170 -95 -175 -198h335c0 106 -28 198 -160 198zM257 15c131 0 158 76 159 130h21c1 -5 1 -9 1 -12c0 -91 -81 -141 -183 -141c-155 0 -205 102 -205 246c0 136 54 248 205 248c142 0 185 -93 185 -203c0 -14 -1 -28 -2 -42h-360
c0 -156 59 -226 179 -226zM389 545l-133 101c-43 -35 -89 -68 -133 -102c-1 2 -8 8 -11 11c44 39 89 80 134 121h25c42 -40 87 -81 129 -120z" />
    <glyph glyph-name="edieresis" unicode="&#xeb;" horiz-adv-x="495" 
d="M255 462c-127 0 -170 -95 -175 -198h335c0 106 -28 198 -160 198zM257 15c131 0 158 76 159 130h21c1 -5 1 -9 1 -12c0 -91 -81 -141 -183 -141c-155 0 -205 102 -205 246c0 136 54 248 205 248c142 0 185 -93 185 -203c0 -14 -1 -28 -2 -42h-360
c0 -156 59 -226 179 -226zM156 592c0 13 10 24 23 24s24 -11 24 -24s-11 -23 -24 -23s-23 10 -23 23zM309 592c0 13 10 24 23 24s24 -11 24 -24s-11 -23 -24 -23s-23 10 -23 23z" />
    <glyph glyph-name="dagger" unicode="&#x2020;" horiz-adv-x="539" 
d="M268 464v-579h-31v579h-170v26h169v200h30v-200h167v-26h-165z" />
    <glyph glyph-name="germandbls" unicode="&#xdf;" horiz-adv-x="515" 
d="M328 424v-4c104 -17 144 -103 144 -205c0 -114 -62 -222 -205 -222c-14 0 -28 1 -43 3l5 21c15 -4 30 -4 45 -4c97 0 173 76 173 201c0 151 -83 192 -176 194v22c81 5 130 67 130 129c0 95 -67 137 -156 137c-137 0 -155 -111 -155 -201v-495h-26v510
c0 118 53 207 182 207c117 0 181 -62 181 -159c0 -32 -24 -110 -99 -134z" />
    <glyph glyph-name="registered" unicode="&#xae;" horiz-adv-x="564" 
d="M511 464c0 -128 -105 -232 -235 -232c-142 0 -233 104 -233 232c0 130 104 235 233 235c136 0 235 -105 235 -235zM489 464c0 118 -95 217 -213 217c-122 0 -212 -99 -212 -217c0 -115 87 -213 212 -213c118 0 213 98 213 213zM313 455l64 -125h-24l-61 123h-70v-123h-21
v275h87c47 0 88 -23 88 -79c0 -29 -14 -62 -63 -71zM290 586h-68v-115h69c37 0 63 15 63 56c0 43 -36 59 -64 59z" />
    <glyph glyph-name="copyright" unicode="&#xa9;" horiz-adv-x="809" 
d="M401 -13c-221 0 -358 155 -358 367c0 213 162 366 358 366c195 0 356 -153 356 -366c0 -212 -161 -367 -356 -367zM401 695c-190 0 -332 -151 -332 -341c0 -207 137 -344 332 -344c184 0 331 152 331 344c0 190 -147 341 -331 341zM401 95c-148 0 -207 79 -207 242
c0 132 53 252 209 252c85 0 169 -38 169 -129c0 -3 0 -7 -1 -12h-21c-1 54 -36 118 -148 118c-125 0 -180 -93 -180 -227c0 -168 67 -221 181 -221c124 0 155 76 156 130h21c1 -5 1 -9 1 -12c0 -91 -78 -141 -180 -141z" />
    <glyph glyph-name="plusminus" unicode="&#xb1;" horiz-adv-x="572" 
d="M298 252v-165h-24v165h-174v24h174v166h24v-166h173v-24h-173zM100 24h371v-24h-371v24z" />
    <glyph glyph-name="yen" unicode="&#xa5;" horiz-adv-x="572" 
d="M74 208h430v-23h-207v-185h-29v185h-194v23zM504 267h-430v23h187l-210 354h33l99 -168c32 -54 65 -110 96 -166h8c30 53 61 105 93 156l110 178h32l-217 -354h199v-23z" />
    <glyph glyph-name="guillemotleft" unicode="&#xab;" horiz-adv-x="396" 
d="M223 29l-158 186v14l149 189l13 -9l-129 -187l139 -183zM339 29l-158 186v14l149 189l13 -9l-129 -187l139 -183z" />
    <glyph glyph-name="guillemotright" unicode="&#xbb;" horiz-adv-x="396" 
d="M353 215l-158 -186l-14 10l139 183l-129 187l13 9l149 -189v-14zM237 215l-158 -186l-14 10l139 183l-129 187l13 9l149 -189v-14z" />
    <glyph glyph-name="ellipsis" unicode="&#x2026;" horiz-adv-x="623" 
d="M59 28c0 20 15 36 34 36c20 0 36 -16 36 -36c0 -19 -16 -34 -36 -34c-19 0 -34 15 -34 34zM277 28c0 20 15 36 34 36c20 0 36 -16 36 -36c0 -19 -16 -34 -36 -34c-19 0 -34 15 -34 34zM496 28c0 20 15 36 34 36c20 0 36 -16 36 -36c0 -19 -16 -34 -36 -34
c-19 0 -34 15 -34 34z" />
    <glyph glyph-name="oe" unicode="&#x153;" horiz-adv-x="890" 
d="M263 486c117 0 172 -61 195 -142c24 83 83 142 192 142c142 0 185 -93 185 -203c0 -14 -1 -28 -2 -42h-360c0 -156 59 -226 179 -226c131 0 158 76 159 130h21c1 -5 1 -9 1 -12c0 -91 -81 -141 -183 -141c-113 0 -170 54 -193 139c-24 -80 -81 -139 -195 -139
c-161 0 -212 92 -212 241c0 145 58 253 213 253zM263 463c-135 0 -185 -98 -185 -230c0 -146 51 -218 185 -218c114 0 180 69 180 222c0 128 -45 226 -180 226zM650 462c-127 0 -170 -95 -175 -198h335c0 106 -28 198 -160 198z" />
    <glyph glyph-name="endash" unicode="&#x2013;" horiz-adv-x="500" 
d="M26 240v25h452v-25h-452z" />
    <glyph glyph-name="quotedblleft" unicode="&#x201c;" horiz-adv-x="292" 
d="M135 721l-36 -105c17 -2 31 -16 31 -34c0 -20 -15 -36 -34 -36c-20 0 -36 13 -36 35c0 3 1 12 5 21l58 123zM232 721l-36 -105c17 -2 31 -16 31 -34c0 -20 -15 -36 -34 -36c-20 0 -36 13 -36 35c0 3 1 12 5 21l58 123z" />
    <glyph glyph-name="quotedblright" unicode="&#x201d;" horiz-adv-x="292" 
d="M157 545l36 105c-17 2 -31 16 -31 34c0 20 15 36 34 36c20 0 36 -13 36 -35c0 -3 -1 -12 -5 -21l-58 -123zM60 545l36 105c-17 2 -31 16 -31 34c0 20 15 36 34 36c20 0 36 -13 36 -35c0 -3 -1 -12 -5 -21l-58 -123z" />
    <glyph glyph-name="quoteleft" unicode="&#x2018;" horiz-adv-x="195" 
d="M135 721l-36 -105c17 -2 31 -16 31 -34c0 -20 -15 -36 -34 -36c-20 0 -36 13 -36 35c0 3 1 12 5 21l58 123z" />
    <glyph glyph-name="quoteright" unicode="&#x2019;" horiz-adv-x="195" 
d="M60 545l36 105c-17 2 -31 16 -31 34c0 20 15 36 34 36c20 0 36 -13 36 -35c0 -3 -1 -12 -5 -21l-58 -123z" />
    <glyph glyph-name="divide" unicode="&#xf7;" horiz-adv-x="572" 
d="M471 248h-371v28h371v-28zM254 409c0 20 17 37 37 37s37 -17 37 -37s-17 -37 -37 -37s-37 17 -37 37zM254 105c0 20 17 37 37 37s37 -17 37 -37s-17 -37 -37 -37s-37 17 -37 37z" />
    <glyph glyph-name="a" unicode="a" horiz-adv-x="468" 
d="M229 486c135 0 181 -72 181 -164v-322h-21c-7 17 -6 45 -6 83h-4c-50 -78 -129 -91 -189 -91c-83 0 -155 36 -155 130c0 85 70 162 227 162c35 0 76 -4 121 -13v43c0 56 -14 148 -150 148c-112 0 -147 -64 -148 -118h-21c-1 5 -1 9 -1 12c0 94 89 130 166 130zM189 14
c154 0 194 103 194 171v62c-46 10 -87 14 -122 14c-138 0 -199 -66 -199 -139c0 -60 39 -108 127 -108z" />
    <glyph glyph-name="B" unicode="B" horiz-adv-x="595" 
d="M419 352v-4c85 -20 126 -93 126 -167c0 -88 -56 -181 -212 -181h-268v674h260c121 0 199 -59 199 -174c0 -44 -22 -123 -105 -148zM340 338h-247v-313h235c92 0 188 39 188 151c0 115 -89 162 -176 162zM314 649h-221v-286h239c87 0 164 40 164 137
c0 117 -91 149 -182 149z" />
    <glyph glyph-name="ampersand" unicode="&#x26;" horiz-adv-x="704" 
d="M62 163c0 75 58 153 157 210c-52 59 -85 114 -85 163c0 66 47 138 137 138c83 0 128 -53 128 -119c0 -77 -59 -136 -146 -189c83 -102 172 -195 272 -280c87 66 124 168 124 255c0 67 -22 125 -102 164l8 18c81 -33 117 -101 117 -180c0 -88 -38 -199 -131 -272
c39 -32 79 -63 121 -93l-14 -18c-44 30 -87 62 -127 96c-57 -38 -132 -62 -227 -62c-127 0 -232 41 -232 169zM292 15c88 0 158 22 212 56c-97 84 -186 180 -272 284c-97 -58 -146 -121 -146 -192c0 -99 83 -148 206 -148zM270 651c-83 0 -109 -71 -109 -112
c0 -57 38 -105 78 -154c76 47 134 89 134 167c0 57 -40 99 -103 99z" />
    <glyph glyph-name="tonos" unicode="&#x384;" horiz-adv-x="468" 
d="M239 542l-15 7l65 152l37 -15z" />
    <glyph glyph-name="dieresistonos" unicode="&#x385;" horiz-adv-x="468" 
d="M226 542l-15 7l65 152l37 -15zM143 592c0 13 10 24 23 24s24 -11 24 -24s-11 -23 -24 -23s-23 10 -23 23zM305 592c0 13 10 24 23 24s24 -11 24 -24s-11 -23 -24 -23s-23 10 -23 23z" />
    <glyph glyph-name="dieresis" unicode="&#xa8;" horiz-adv-x="468" 
d="M146 592c0 13 10 24 23 24s24 -11 24 -24s-11 -23 -24 -23s-23 10 -23 23zM299 592c0 13 10 24 23 24s24 -11 24 -24s-11 -23 -24 -23s-23 10 -23 23z" />
    <glyph glyph-name="circumflex" unicode="&#x2c6;" horiz-adv-x="468" 
d="M373 545l-133 101c-43 -35 -89 -68 -133 -102c-1 2 -8 8 -11 11c44 39 89 80 134 121h25c42 -40 87 -81 129 -120z" />
    <glyph glyph-name="caron" unicode="&#x2c7;" horiz-adv-x="468" 
d="M237 577l133 101l11 -11c-42 -39 -87 -80 -129 -120h-25c-45 41 -90 82 -134 121c3 3 10 9 11 11c44 -34 90 -67 133 -102z" />
    <glyph glyph-name="tilde" unicode="&#x2dc;" horiz-adv-x="468" 
d="M297 600c28 0 43 9 63 42l18 -9c-18 -44 -51 -59 -82 -59c-44 0 -96 38 -130 38c-24 0 -40 -9 -60 -42l-19 9c17 41 50 59 81 59c44 0 98 -38 129 -38z" />
    <glyph glyph-name="Grave" unicode="&#xf6ce;" horiz-adv-x="658" 
d="M363 742l-9 -13l-142 84l19 28z" />
    <glyph glyph-name="Acute" unicode="&#xf6c9;" horiz-adv-x="658" 
d="M307 729l-9 13l132 99l21 -28z" />
    <glyph glyph-name="Dieresis" unicode="&#xf6cb;" horiz-adv-x="658" 
d="M238 774c0 13 10 24 23 24s24 -11 24 -24s-11 -23 -24 -23s-23 10 -23 23zM391 774c0 13 10 24 23 24s24 -11 24 -24s-11 -23 -24 -23s-23 10 -23 23z" />
    <glyph glyph-name="ugrave" unicode="&#xf9;" horiz-adv-x="496" 
d="M436 478v-478h-21c-8 20 -6 47 -6 85h-4c-45 -76 -116 -93 -166 -93c-157 0 -181 99 -181 214v272h28v-272c0 -97 17 -189 156 -189c111 0 167 91 167 188v273h27zM290 553l-13 -10l-126 125l32 23z" />
    <glyph glyph-name="perthousand" unicode="&#x2030;" horiz-adv-x="1134" 
d="M191 -30h-28l417 733h28zM206 678c126 0 162 -95 162 -200c0 -98 -38 -193 -162 -193c-126 0 -164 79 -164 192c0 119 45 201 164 201zM205 654c-103 0 -137 -72 -137 -177c0 -115 47 -169 137 -169c81 0 136 54 136 170c0 104 -38 176 -136 176zM587 388
c126 0 162 -95 162 -200c0 -98 -38 -193 -162 -193c-126 0 -164 79 -164 192c0 119 45 201 164 201zM586 364c-103 0 -137 -72 -137 -177c0 -115 47 -169 137 -169c81 0 136 54 136 170c0 104 -38 176 -136 176zM940 388c126 0 162 -95 162 -200c0 -98 -38 -193 -162 -193
c-126 0 -164 79 -164 192c0 119 45 201 164 201zM939 364c-103 0 -137 -72 -137 -177c0 -115 47 -169 137 -169c81 0 136 54 136 170c0 104 -38 176 -136 176z" />
    <glyph glyph-name="cedilla" unicode="&#xb8;" horiz-adv-x="472" 
d="M250 -200c-28 0 -54 5 -80 16l8 19c29 -11 55 -14 70 -14c27 0 67 13 67 51c0 31 -28 49 -63 49c-10 0 -21 -1 -34 -6l-17 10l46 83h25l-39 -67c9 1 18 2 26 2c64 0 84 -44 84 -69c0 -40 -30 -73 -93 -74z" />
    <glyph glyph-name="afii00208" unicode="&#x2015;" horiz-adv-x="1000" 
d="M18 240v25h969v-25h-969z" />
    <glyph glyph-name="otilde" unicode="&#xf5;" horiz-adv-x="521" 
d="M263 486c165 0 208 -121 208 -249c0 -126 -47 -245 -209 -245c-161 0 -212 92 -212 241c0 145 58 253 213 253zM263 463c-135 0 -185 -98 -185 -230c0 -146 51 -218 185 -218c114 0 180 69 180 222c0 128 -45 226 -180 226zM324 600c28 0 43 9 63 42l18 -9
c-18 -44 -51 -59 -82 -59c-44 0 -96 38 -130 38c-24 0 -40 -9 -60 -42l-19 9c17 41 50 59 81 59c44 0 98 -38 129 -38z" />
    <glyph glyph-name="sterling" unicode="&#xa3;" horiz-adv-x="572" 
d="M312 655c105 0 195 -52 195 -137c0 -3 0 -7 -1 -12h-20c-1 62 -53 126 -174 126c-113 0 -175 -65 -175 -157c0 -29 16 -83 28 -122h196v-22h-192c15 -66 16 -95 16 -119c0 -65 -21 -133 -59 -189h370v-23h-430v23h30c43 51 65 135 65 192c0 29 -6 66 -19 116h-75v22h71
c-20 70 -26 98 -26 129c0 95 65 173 200 173z" />
    <glyph glyph-name="trademark" unicode="&#x2122;" horiz-adv-x="681" 
d="M468 442h4l130 233h19v-366h-21v307l-4 1l-117 -209h-19l-118 211l-3 -1v-309h-23v366h23zM170 652v-343h-24v343h-112v23h249v-23h-113z" />
    <glyph glyph-name="bullet" unicode="&#x2022;" horiz-adv-x="353" 
d="M94 247c0 45 36 81 81 81s81 -36 81 -81s-36 -81 -81 -81s-81 36 -81 81z" />
    <glyph glyph-name="brokenbar" unicode="&#xa6;" horiz-adv-x="318" 
d="M141 257h27v-381h-27v381zM168 361h-27v356h27v-356z" />
    <glyph glyph-name="Euro" unicode="&#x20ac;" horiz-adv-x="572" 
d="M458 368h-437v22h55c8 156 90 266 254 266c111 0 206 -53 206 -160c0 -3 0 -8 -1 -13h-22c-1 71 -47 148 -187 148c-141 0 -214 -94 -223 -241h355v-22zM22 309h438v-23h-360c3 -185 82 -268 225 -268c154 0 201 89 202 164h21c1 -7 1 -11 1 -15
c0 -105 -93 -173 -223 -173c-183 0 -250 113 -253 292h-51v23z" />
    <glyph glyph-name="dotlessi" unicode="&#x131;" horiz-adv-x="210" 
d="M92 0v478h27v-478h-27z" />
    <glyph glyph-name="icircumflex" unicode="&#xee;" horiz-adv-x="210" 
d="M92 0v478h27v-478h-27zM238 545l-133 101c-43 -35 -89 -68 -133 -102c-1 2 -8 8 -11 11c44 39 89 80 134 121h25c42 -40 87 -81 129 -120z" />
    <glyph glyph-name="idieresis" unicode="&#xef;" horiz-adv-x="210" 
d="M92 0v478h27v-478h-27zM5 592c0 13 10 24 23 24s24 -11 24 -24s-11 -23 -24 -23s-23 10 -23 23zM158 592c0 13 10 24 23 24s24 -11 24 -24s-11 -23 -24 -23s-23 10 -23 23z" />
    <glyph glyph-name="ocircumflex" unicode="&#xf4;" horiz-adv-x="521" 
d="M263 486c165 0 208 -121 208 -249c0 -126 -47 -245 -209 -245c-161 0 -212 92 -212 241c0 145 58 253 213 253zM263 463c-135 0 -185 -98 -185 -230c0 -146 51 -218 185 -218c114 0 180 69 180 222c0 128 -45 226 -180 226zM396 545l-133 101c-43 -35 -89 -68 -133 -102
c-1 2 -8 8 -11 11c44 39 89 80 134 121h25c42 -40 87 -81 129 -120z" />
    <glyph glyph-name="odieresis" unicode="&#xf6;" horiz-adv-x="521" 
d="M263 486c165 0 208 -121 208 -249c0 -126 -47 -245 -209 -245c-161 0 -212 92 -212 241c0 145 58 253 213 253zM263 463c-135 0 -185 -98 -185 -230c0 -146 51 -218 185 -218c114 0 180 69 180 222c0 128 -45 226 -180 226zM164 592c0 13 10 24 23 24s24 -11 24 -24
s-11 -23 -24 -23s-23 10 -23 23zM317 592c0 13 10 24 23 24s24 -11 24 -24s-11 -23 -24 -23s-23 10 -23 23z" />
    <glyph glyph-name="ucircumflex" unicode="&#xfb;" horiz-adv-x="496" 
d="M436 478v-478h-21c-8 20 -6 47 -6 85h-4c-45 -76 -116 -93 -166 -93c-157 0 -181 99 -181 214v272h28v-272c0 -97 17 -189 156 -189c111 0 167 91 167 188v273h27zM389 545l-133 101c-43 -35 -89 -68 -133 -102c-1 2 -8 8 -11 11c44 39 89 80 134 121h25
c42 -40 87 -81 129 -120z" />
    <glyph glyph-name="udieresis" unicode="&#xfc;" horiz-adv-x="496" 
d="M436 478v-478h-21c-8 20 -6 47 -6 85h-4c-45 -76 -116 -93 -166 -93c-157 0 -181 99 -181 214v272h28v-272c0 -97 17 -189 156 -189c111 0 167 91 167 188v273h27zM145 592c0 13 10 24 23 24s24 -11 24 -24s-11 -23 -24 -23s-23 10 -23 23zM298 592c0 13 10 24 23 24
s24 -11 24 -24s-11 -23 -24 -23s-23 10 -23 23z" />
    <glyph glyph-name="Gamma" unicode="&#x393;" horiz-adv-x="506" 
d="M65 0v674h420v-26h-394v-648h-26z" />
    <glyph glyph-name="Alpha" unicode="&#x391;" horiz-adv-x="566" 
d="M525 0l-71 187h-344l-71 -187h-29l255 674h33l258 -674h-31zM285 637h-7c-22 -65 -46 -130 -70 -192l-89 -232h327l-90 232c-25 64 -47 128 -71 192z" />
    <glyph glyph-name="Iotadieresis" unicode="&#x3aa;" horiz-adv-x="197" 
d="M85 0v674h27v-674h-27zM-1 774c0 13 10 24 23 24s24 -11 24 -24s-11 -23 -24 -23s-23 10 -23 23zM152 774c0 13 10 24 23 24s24 -11 24 -24s-11 -23 -24 -23s-23 10 -23 23z" />
    <glyph glyph-name="periodcentered" unicode="&#xb7;" horiz-adv-x="188" 
d="M58 251c0 21 16 38 36 38c21 0 38 -17 38 -38c0 -20 -17 -36 -38 -36c-20 0 -36 16 -36 36z" />
    <glyph glyph-name="Sigma" unicode="&#x3a3;" horiz-adv-x="545" 
d="M36 28l236 331l-234 289v27h474v-25h-441l237 -291l-240 -333h458v-26h-490v28z" />
    <glyph glyph-name="Lambda" unicode="&#x39b;" horiz-adv-x="566" 
d="M525 0l-169 445l-71 192h-7c-22 -65 -46 -130 -70 -192l-168 -445h-30l255 674h33l258 -674h-31z" />
    <glyph glyph-name="Pi" unicode="&#x3a0;" horiz-adv-x="628" 
d="M534 0v649h-442v-649h-27v674h498v-674h-29z" />
    <glyph glyph-name="logicalnot" unicode="&#xac;" horiz-adv-x="572" 
d="M471 281v-194h-24v170h-347v24h371z" />
    <glyph glyph-name="section" unicode="&#xa7;" horiz-adv-x="514" 
d="M92 295c0 -93 102 -128 213 -144c64 13 121 57 121 119c0 80 -91 125 -224 142c-68 -25 -110 -71 -110 -117zM243 -119c-85 0 -178 38 -178 129c0 3 0 7 1 12h21c1 -54 45 -118 157 -118c101 0 164 47 164 116c0 71 -69 103 -147 118c-106 20 -193 63 -193 156
c0 50 39 101 104 128c-55 24 -86 61 -86 112c0 59 42 140 180 140c85 0 169 -38 169 -129c0 -3 0 -7 -1 -12h-21c-1 54 -36 118 -148 118c-96 0 -152 -47 -152 -116c0 -71 68 -95 146 -110c103 -20 193 -66 193 -155c0 -52 -41 -107 -107 -130c68 -31 90 -70 90 -122
c0 -59 -53 -137 -192 -137z" />
    <glyph glyph-name="notequal" unicode="&#x2260;" horiz-adv-x="572" 
d="M411 464l-63 -107h123v-23h-137l-75 -129h212v-24h-225l-62 -108l-20 11l55 97h-119v24h133l74 129h-207v23h219l69 118z" />
    <glyph glyph-name="lessequal" unicode="&#x2264;" horiz-adv-x="572" 
d="M102 256v26l369 165v-26l-338 -150l338 -150v-27zM100 25h371v-25h-371v25z" />
    <glyph glyph-name="greaterequal" unicode="&#x2265;" horiz-adv-x="572" 
d="M469 282v-26l-369 -162v27l338 150l-338 150v26zM100 25h371v-25h-371v25z" />
    <glyph glyph-name="approxequal" unicode="&#x2248;" horiz-adv-x="572" 
d="M377 312c-76 0 -114 51 -186 51c-28 0 -53 -11 -82 -40l-17 14c29 32 65 51 104 51c66 0 114 -52 184 -52c23 0 56 11 85 39l15 -14c-30 -30 -68 -49 -103 -49zM377 152c-76 0 -114 51 -186 51c-28 0 -53 -11 -82 -40l-17 14c29 32 65 51 104 51c66 0 114 -52 184 -52
c23 0 56 11 85 39l15 -14c-30 -30 -68 -49 -103 -49z" />
    <glyph glyph-name="ae" unicode="&#xe6;" horiz-adv-x="831" 
d="M593 15c131 0 158 76 159 130h21c1 -5 1 -9 1 -12c0 -91 -81 -141 -183 -141c-105 0 -158 46 -183 109c-72 -103 -160 -109 -218 -109c-83 0 -155 36 -155 130c0 85 53 143 205 143h145v49c0 56 -16 148 -152 148c-112 0 -147 -64 -148 -118h-21c-1 5 -1 9 -1 12
c0 97 99 130 169 130c107 0 160 -51 174 -122c27 73 85 122 185 122c142 0 185 -93 185 -203c0 -14 -1 -28 -2 -42h-361c0 -156 60 -226 180 -226zM189 14c136 0 183 73 208 114c-9 37 -13 63 -12 112h-146c-130 0 -177 -45 -177 -118c0 -60 39 -108 127 -108zM591 462
c-127 0 -170 -95 -175 -198h335c0 106 -28 198 -160 198z" />
    <glyph glyph-name="degree" unicode="&#xb0;" horiz-adv-x="476" 
d="M222 420c-68 0 -125 53 -125 119c0 67 57 119 125 119c69 0 126 -52 126 -119c0 -66 -57 -119 -126 -119zM221 636c-52 0 -99 -42 -99 -97c0 -52 47 -97 99 -97c54 0 100 45 100 97c0 54 -46 97 -100 97z" />
    <glyph glyph-name="Delta" unicode="&#x394;" horiz-adv-x="566" 
d="M556 0h-546l255 674h33zM285 637h-7c-22 -65 -61 -170 -85 -232l-143 -379h467l-146 384c-25 64 -62 163 -86 227z" />
    <glyph glyph-name="Delta" unicode="&#x2206;" horiz-adv-x="566" 
d="M556 0h-546l255 674h33zM285 637h-7c-22 -65 -61 -170 -85 -232l-143 -379h467l-146 384c-25 64 -62 163 -86 227z" />
    <glyph glyph-name="Theta" unicode="&#x398;" horiz-adv-x="675" 
d="M161 338v25h355v-25h-355zM342 681c218 0 278 -166 278 -350c0 -171 -62 -337 -283 -337c-210 0 -282 136 -282 336c0 207 81 351 287 351zM340 657c-184 0 -257 -132 -257 -327c0 -215 90 -313 253 -313c161 0 255 98 255 314c0 194 -68 326 -251 326z" />
    <glyph glyph-name="Xi" unicode="&#x39e;" horiz-adv-x="549" 
d="M30 25h489v-25h-489v25zM74 364h399v-25h-399v25zM502 649h-460v25h460v-25z" />
    <glyph glyph-name="Beta" unicode="&#x392;" horiz-adv-x="595" 
d="M419 352v-4c85 -20 126 -93 126 -167c0 -88 -56 -181 -212 -181h-268v674h260c121 0 199 -59 199 -174c0 -44 -22 -123 -105 -148zM340 338h-247v-313h235c92 0 188 39 188 151c0 115 -89 162 -176 162zM314 649h-221v-286h239c87 0 164 40 164 137
c0 117 -91 149 -182 149z" />
    <glyph glyph-name="Epsilon" unicode="&#x395;" horiz-adv-x="519" 
d="M65 0v674h410v-25h-382v-286h353v-25h-353v-313h396v-25h-424z" />
    <glyph glyph-name="Zeta" unicode="&#x396;" horiz-adv-x="529" 
d="M25 0v26l434 624h-419v25h454v-24l-435 -626h445v-25h-479z" />
    <glyph glyph-name="Eta" unicode="&#x397;" horiz-adv-x="628" 
d="M534 0v338h-442v-338h-27v675h27v-312h442v312h29v-675h-29z" />
    <glyph glyph-name="Iota" unicode="&#x399;" horiz-adv-x="197" 
d="M85 0v674h27v-674h-27z" />
    <glyph glyph-name="Kappa" unicode="&#x39a;" horiz-adv-x="521" 
d="M92 674v-311h137l240 311h33l-249 -322l258 -352h-36l-245 338h-138v-338h-27v674h27z" />
    <glyph glyph-name="Mu" unicode="&#x39c;" horiz-adv-x="759" 
d="M99 674l178 -346l100 -191h6c34 68 67 133 104 204l172 333h35v-674h-29v622h-4c-30 -61 -61 -123 -94 -185l-173 -334h-30l-190 365c-27 50 -53 102 -78 155h-4v-623h-27v674h34z" />
    <glyph glyph-name="Nu" unicode="&#x39d;" horiz-adv-x="633" 
d="M98 620h-6v-620h-27v674h25l297 -414c50 -69 99 -139 147 -208h5v622h29v-674h-28l-318 441c-42 58 -84 118 -124 179z" />
    <glyph glyph-name="Omicron" unicode="&#x39f;" horiz-adv-x="658" 
d="M332 681c218 0 271 -166 271 -350c0 -171 -59 -337 -280 -337c-210 0 -268 136 -268 336c0 207 71 351 277 351zM330 657c-184 0 -248 -132 -248 -327c0 -215 77 -313 240 -313c161 0 251 98 251 314c0 194 -60 326 -243 326z" />
    <glyph glyph-name="Rho" unicode="&#x3a1;" horiz-adv-x="540" 
d="M312 258h-219v-258h-28v674h247c137 0 213 -94 213 -211c0 -87 -48 -205 -213 -205zM307 649h-214v-365h214c93 0 189 43 189 180c0 115 -79 185 -189 185z" />
    <glyph glyph-name="Tau" unicode="&#x3a4;" horiz-adv-x="534" 
d="M283 649v-649h-28v649h-240v25h504v-25h-236z" />
    <glyph glyph-name="Upsilon" unicode="&#x3a5;" horiz-adv-x="512" 
d="M248 306h7l100 172l114 196h33l-236 -402v-272h-29v271l-227 403h32l107 -188c33 -59 67 -119 99 -180z" />
    <glyph glyph-name="Chi" unicode="&#x3a7;" horiz-adv-x="524" 
d="M479 0l-218 326l-219 -326h-34l237 349l-218 325h32l202 -303l204 303h32l-219 -325l236 -349h-35z" />
    <glyph glyph-name="eta" unicode="&#x3b7;" horiz-adv-x="506" 
d="M60 0v478h21c8 -20 6 -45 6 -83h4c45 76 123 92 179 92c151 0 178 -98 178 -203v-284h-28v272c0 77 -6 190 -153 190c-119 0 -180 -92 -180 -189v-273h-27z" />
    <glyph glyph-name="iota" unicode="&#x3b9;" horiz-adv-x="210" 
d="M92 0v478h27v-478h-27z" />
    <glyph glyph-name="kappa" unicode="&#x3ba;" horiz-adv-x="431" 
d="M379 478h32l-180 -218l190 -260h-34l-179 247h-121v-247h-27v478h27v-205h121z" />
    <glyph glyph-name="nu" unicode="&#x3bd;" horiz-adv-x="417" 
d="M205 28h4c25 76 56 160 92 254l75 196h29l-182 -481h-34l-181 481h29l79 -208c31 -81 63 -161 89 -242z" />
    <glyph glyph-name="omicron" unicode="&#x3bf;" horiz-adv-x="521" 
d="M263 486c165 0 208 -121 208 -249c0 -126 -47 -245 -209 -245c-161 0 -212 92 -212 241c0 145 58 253 213 253zM263 463c-135 0 -185 -98 -185 -230c0 -146 51 -218 185 -218c114 0 180 69 180 222c0 128 -45 226 -180 226z" />
    <glyph glyph-name="chi" unicode="&#x3c7;" horiz-adv-x="407" 
d="M363 0l-160 225l-159 -225h-34l176 247l-165 231h34l148 -211l148 211h33l-164 -231l177 -247h-34z" />
    <glyph glyph-name="iotadieresis" unicode="&#x3ca;" horiz-adv-x="210" 
d="M92 0v478h27v-478h-27zM10 592c0 13 10 24 23 24s24 -11 24 -24s-11 -23 -24 -23s-23 10 -23 23zM163 592c0 13 10 24 23 24s24 -11 24 -24s-11 -23 -24 -23s-23 10 -23 23z" />
    <glyph glyph-name="iotadieresistonos" unicode="&#x390;" horiz-adv-x="210" 
d="M92 0v478h27v-478h-27zM98 542l-15 7l65 152l37 -15zM15 592c0 13 10 24 23 24s24 -11 24 -24s-11 -23 -24 -23s-23 10 -23 23zM177 592c0 13 10 24 23 24s24 -11 24 -24s-11 -23 -24 -23s-23 10 -23 23z" />
    <glyph glyph-name="alpha" unicode="&#x3b1;" horiz-adv-x="515" 
d="M254 16c123 0 174 109 174 196v70c0 108 -60 181 -171 181c-123 0 -179 -85 -179 -228c0 -131 40 -219 176 -219zM455 478v-478h-21c-7 19 -6 55 -6 93h-4c-43 -74 -103 -101 -173 -101c-154 0 -201 102 -201 243c0 142 62 251 207 251c76 0 133 -25 167 -84h4
c0 34 0 59 6 76h21z" />
    <glyph glyph-name="alphatonos" unicode="&#x3ac;" horiz-adv-x="515" 
d="M254 16c123 0 174 109 174 196v70c0 108 -60 181 -171 181c-123 0 -179 -85 -179 -228c0 -131 40 -219 176 -219zM455 478v-478h-21c-7 19 -6 55 -6 93h-4c-43 -74 -103 -101 -173 -101c-154 0 -201 102 -201 243c0 142 62 251 207 251c76 0 133 -25 167 -84h4
c0 34 0 59 6 76h21zM260 542l-15 7l65 152l37 -15z" />
    <glyph glyph-name="Upsilondieresis" unicode="&#x3ab;" horiz-adv-x="512" 
d="M248 306h7l100 172l114 196h33l-236 -402v-272h-29v271l-227 403h32l107 -188c33 -59 67 -119 99 -180zM152 766c0 13 10 24 23 24s24 -11 24 -24s-11 -23 -24 -23s-23 10 -23 23zM305 766c0 13 10 24 23 24s24 -11 24 -24s-11 -23 -24 -23s-23 10 -23 23z" />
    <glyph glyph-name="Alphatonos" unicode="&#x386;" horiz-adv-x="566" 
d="M525 0l-71 187h-344l-71 -187h-29l255 674h33l258 -674h-31zM285 637h-7c-22 -65 -46 -130 -70 -192l-89 -232h327l-90 232c-25 64 -47 128 -71 192zM-12 542l-15 7l65 152l37 -15z" />
    <glyph glyph-name="Epsilontonos" unicode="&#x388;" horiz-adv-x="519" 
d="M65 0v674h410v-25h-382v-286h353v-25h-353v-313h396v-25h-424zM-121 542l-15 7l65 152l37 -15z" />
    <glyph glyph-name="Etatonos" unicode="&#x389;" horiz-adv-x="628" 
d="M534 0v338h-442v-338h-27v675h27v-312h442v312h29v-675h-29zM-120 542l-15 7l65 152l37 -15z" />
    <glyph glyph-name="Iotatonos" unicode="&#x38a;" horiz-adv-x="197" 
d="M85 0v674h27v-674h-27zM-105 542l-15 7l65 152l37 -15z" />
    <glyph glyph-name="Omicrontonos" unicode="&#x38c;" horiz-adv-x="658" 
d="M332 681c218 0 271 -166 271 -350c0 -171 -59 -337 -280 -337c-210 0 -268 136 -268 336c0 207 71 351 277 351zM330 657c-184 0 -248 -132 -248 -327c0 -215 77 -313 240 -313c161 0 251 98 251 314c0 194 -60 326 -243 326zM-74 542l-15 7l65 152l37 -15z" />
    <glyph glyph-name="Upsilontonos" unicode="&#x38e;" horiz-adv-x="512" 
d="M248 306h7l100 172l114 196h33l-236 -402v-272h-29v271l-227 403h32l107 -188c33 -59 67 -119 99 -180zM-145 542l-15 7l65 152l37 -15z" />
    <glyph glyph-name="mu" unicode="&#xb5;" horiz-adv-x="496" 
d="M436 478v-478h-21c-8 20 -6 47 -6 85h-4c-45 -76 -116 -93 -166 -93c-83 0 -128 27 -153 70v-258h-28v674h28v-272c0 -97 17 -189 156 -189c111 0 167 91 167 188v273h27z" />
    <glyph glyph-name="mu" unicode="&#x3bc;" horiz-adv-x="496" 
d="M436 478v-478h-21c-8 20 -6 47 -6 85h-4c-45 -76 -116 -93 -166 -93c-83 0 -128 27 -153 70v-258h-28v674h28v-272c0 -97 17 -189 156 -189c111 0 167 91 167 188v273h27z" />
    <glyph glyph-name="lambda" unicode="&#x3bb;" horiz-adv-x="432" 
d="M221 454h-5c-23 -61 -47 -122 -71 -184l-107 -270h-28l189 479h14l-43 131c-22 66 -39 76 -80 76h-31v25h40c59 0 76 -31 100 -103l182 -552c10 -31 13 -32 42 -30l4 -19c-13 -5 -21 -7 -30 -7c-24 0 -30 13 -38 37l-76 229c-21 61 -40 126 -62 188z" />
    <glyph glyph-name="tau" unicode="&#x3c4;" horiz-adv-x="351" 
d="M336 453h-168l-1 -309c0 -93 37 -127 112 -127c15 0 48 1 62 3v-23c-15 -2 -50 -3 -65 -3c-103 0 -136 46 -136 156v303h-127v25h323v-25z" />
    <glyph glyph-name="Phi" unicode="&#x3a6;" horiz-adv-x="708" 
d="M373 675v-29c228 -9 285 -151 285 -298c0 -133 -68 -279 -285 -290v-58h-29v57c-218 9 -294 133 -294 290c0 167 86 293 294 299v29h29zM77 347c0 -168 89 -257 267 -267v543c-195 -9 -267 -124 -267 -276zM628 348c0 150 -60 267 -255 275v-543c159 11 255 101 255 268z
" />
    <glyph glyph-name="Psi" unicode="&#x3a8;" horiz-adv-x="672" 
d="M325 0v187c-219 8 -283 122 -283 268v219h28v-216c0 -168 93 -236 255 -244v460h29v-461c150 10 249 81 249 246v215h28v-218c0 -120 -62 -259 -277 -269v-187h-29z" />
    <glyph glyph-name="Omega" unicode="&#x3a9;" horiz-adv-x="689" 
d="M347 682c210 0 287 -166 287 -342c0 -131 -41 -257 -138 -310v-4h155v-26h-215v30c104 36 169 128 169 310c0 186 -84 318 -260 318c-179 0 -261 -134 -261 -319c0 -195 58 -268 167 -309v-30h-213v26h150v4c-100 52 -131 161 -131 309c0 199 90 343 290 343z" />
    <glyph glyph-name="Omegatonos" unicode="&#x38f;" horiz-adv-x="689" 
d="M347 682c210 0 287 -166 287 -342c0 -131 -41 -257 -138 -310v-4h155v-26h-215v30c104 36 169 128 169 310c0 186 -84 318 -260 318c-179 0 -261 -134 -261 -319c0 -195 58 -268 167 -309v-30h-213v26h150v4c-100 52 -131 161 -131 309c0 199 90 343 290 343zM-55 542
l-15 7l65 152l37 -15z" />
    <glyph glyph-name="etatonos" unicode="&#x3ae;" horiz-adv-x="506" 
d="M222 542l-15 7l65 152l37 -15zM60 0v478h21c8 -20 6 -45 6 -83h4c45 76 123 92 179 92c151 0 178 -98 178 -203v-284h-28v272c0 77 -6 190 -153 190c-119 0 -180 -92 -180 -189v-273h-27z" />
    <glyph glyph-name="iotatonos" unicode="&#x3af;" horiz-adv-x="210" 
d="M92 0v478h27v-478h-27zM108 542l-15 7l65 152l37 -15z" />
    <glyph glyph-name="omicrontonos" unicode="&#x3cc;" horiz-adv-x="521" 
d="M263 486c165 0 208 -121 208 -249c0 -126 -47 -245 -209 -245c-161 0 -212 92 -212 241c0 145 58 253 213 253zM263 463c-135 0 -185 -98 -185 -230c0 -146 51 -218 185 -218c114 0 180 69 180 222c0 128 -45 226 -180 226zM267 542l-15 7l65 152l37 -15z" />
    <glyph glyph-name="pi" unicode="&#x3c0;" horiz-adv-x="518" 
d="M430 453h-343v-453h-27v478h398v-478h-28v453z" />
    <glyph glyph-name="sigma" unicode="&#x3c3;" horiz-adv-x="527" 
d="M373 457l-2 -4c69 -33 100 -110 100 -224c0 -111 -46 -237 -208 -237c-163 0 -213 97 -213 236c0 133 52 250 213 250h236v-25h-38c-29 0 -65 1 -88 4zM263 455c-142 0 -185 -105 -185 -227c0 -138 52 -213 185 -213c112 0 180 72 180 214c0 135 -47 226 -180 226z" />
    <glyph glyph-name="rho" unicode="&#x3c1;" horiz-adv-x="520" 
d="M60 -196v442c0 141 58 240 204 240c160 0 206 -118 206 -248c0 -120 -43 -246 -208 -246c-69 0 -141 26 -170 98h-5v-286h-27zM260 16c133 0 181 88 181 225c0 148 -65 222 -177 222c-137 0 -176 -111 -176 -203v-51c0 -96 49 -193 172 -193z" />
    <glyph glyph-name="delta" unicode="&#x3b4;" horiz-adv-x="521" 
d="M79 229c0 -128 41 -215 183 -214c139 1 181 116 181 217c0 68 -19 142 -74 206c-31 5 -59 7 -86 7c-128 0 -204 -74 -204 -216zM441 673h-313c244 -152 343 -275 343 -441c0 -148 -77 -240 -214 -240c-144 0 -207 88 -207 231c0 105 43 246 227 246c22 0 46 -1 72 -5
c-66 73 -139 130 -267 206v28h359v-25z" />
    <glyph glyph-name="upsilon" unicode="&#x3c5;" horiz-adv-x="509" 
d="M455 179c0 -127 -82 -187 -204 -187c-124 0 -196 62 -196 187v299h27v-302c0 -119 81 -161 170 -161c87 0 175 42 175 162v301h28v-299z" />
    <glyph glyph-name="upsilontonos" unicode="&#x3cd;" horiz-adv-x="509" 
d="M455 179c0 -127 -82 -187 -204 -187c-124 0 -196 62 -196 187v299h27v-302c0 -119 81 -161 170 -161c87 0 175 42 175 162v301h28v-299zM247 542l-15 7l65 152l37 -15z" />
    <glyph glyph-name="upsilondieresis" unicode="&#x3cb;" horiz-adv-x="509" 
d="M455 179c0 -127 -82 -187 -204 -187c-124 0 -196 62 -196 187v299h27v-302c0 -119 81 -161 170 -161c87 0 175 42 175 162v301h28v-299zM155 592c0 13 10 24 23 24s24 -11 24 -24s-11 -23 -24 -23s-23 10 -23 23zM308 592c0 13 10 24 23 24s24 -11 24 -24
s-11 -23 -24 -23s-23 10 -23 23z" />
    <glyph glyph-name="upsilondieresistonos" unicode="&#x3b0;" horiz-adv-x="509" 
d="M455 179c0 -127 -82 -187 -204 -187c-124 0 -196 62 -196 187v299h27v-302c0 -119 81 -161 170 -161c87 0 175 42 175 162v301h28v-299zM239 542l-15 7l65 152l37 -15zM156 592c0 13 10 24 23 24s24 -11 24 -24s-11 -23 -24 -23s-23 10 -23 23zM318 592c0 13 10 24 23 24
s24 -11 24 -24s-11 -23 -24 -23s-23 10 -23 23z" />
    <glyph glyph-name="gamma" unicode="&#x3b3;" horiz-adv-x="414" 
d="M210 60h4l71 189l86 229h29l-173 -458v-216h-30v215l-139 396c-11 31 -14 40 -31 40c-4 0 -9 0 -15 -1l-3 25c12 3 21 5 29 5c25 0 32 -18 44 -52l59 -167c24 -68 47 -137 69 -205z" />
    <glyph glyph-name="sigma1" unicode="&#x3c2;" horiz-adv-x="444" 
d="M260 486c85 0 169 -38 169 -129c0 -3 0 -7 -1 -12h-21c-1 54 -36 118 -148 118c-137 0 -180 -100 -180 -234c0 -102 52 -134 184 -190c79 -34 114 -49 114 -85c0 -17 -20 -63 -55 -109l-22 14c29 44 44 81 44 95c0 20 -35 36 -110 68c-131 56 -184 102 -184 207
c0 136 43 257 210 257z" />
    <glyph glyph-name="beta" unicode="&#x3b2;" horiz-adv-x="513" 
d="M88 -150h-28v660c0 118 57 207 183 207c124 0 182 -62 182 -159c0 -34 -20 -105 -88 -131v-4c86 -20 131 -103 131 -208c0 -115 -49 -223 -205 -223c-106 0 -152 55 -171 98h-4v-240zM241 693c-137 0 -153 -126 -153 -198v-285c0 -99 51 -195 178 -195
c115 0 173 75 173 205c0 156 -106 188 -156 188h-70v25h65c69 0 117 61 117 126c0 95 -60 134 -154 134z" />
    <glyph glyph-name="theta" unicode="&#x3b8;" horiz-adv-x="515" 
d="M258 717c178 0 207 -178 207 -365c0 -165 -29 -360 -207 -360c-172 0 -208 162 -208 358c0 206 44 367 208 367zM258 15c140 0 181 128 181 355h-362c0 -216 31 -355 181 -355zM258 694c-141 0 -176 -135 -181 -301h360c-4 167 -39 301 -179 301z" />
    <glyph glyph-name="omega" unicode="&#x3c9;" horiz-adv-x="777" 
d="M727 236c0 -118 -27 -244 -184 -244c-81 0 -130 47 -151 93h-4c-23 -44 -69 -93 -154 -93c-157 0 -184 110 -184 244c0 139 49 250 202 252v-25c-135 -3 -174 -99 -174 -227c0 -127 27 -221 156 -221c89 0 141 71 141 144v157h28v-167c0 -68 62 -134 140 -134
c129 0 156 103 156 221c0 121 -44 222 -174 227v25c150 -3 202 -117 202 -252z" />
    <glyph glyph-name="omegatonos" unicode="&#x3ce;" horiz-adv-x="777" 
d="M727 236c0 -118 -27 -244 -184 -244c-81 0 -130 47 -151 93h-4c-23 -44 -69 -93 -154 -93c-157 0 -184 110 -184 244c0 139 49 250 202 252v-25c-135 -3 -174 -99 -174 -227c0 -127 27 -221 156 -221c89 0 141 71 141 144v157h28v-167c0 -68 62 -134 140 -134
c129 0 156 103 156 221c0 121 -44 222 -174 227v25c150 -3 202 -117 202 -252zM382 542l-15 7l65 152l37 -15z" />
    <glyph glyph-name="epsilon" unicode="&#x3b5;" horiz-adv-x="441" 
d="M232 15c133 0 157 79 158 133h20c1 -5 1 -9 1 -12c0 -91 -70 -144 -181 -144c-135 0 -185 66 -185 139c0 39 13 100 82 125v4c-59 20 -72 59 -72 96c0 69 48 130 176 130c86 0 165 -46 165 -129c0 -3 0 -7 -1 -12h-21c-1 54 -36 118 -148 118c-74 0 -141 -31 -141 -105
c0 -63 57 -84 105 -84h97v-27h-101c-70 0 -112 -52 -112 -115c0 -64 45 -117 158 -117z" />
    <glyph glyph-name="epsilontonos" unicode="&#x3ad;" horiz-adv-x="441" 
d="M232 15c133 0 157 79 158 133h20c1 -5 1 -9 1 -12c0 -91 -70 -144 -181 -144c-135 0 -185 66 -185 139c0 39 13 100 82 125v4c-59 20 -72 59 -72 96c0 69 48 130 176 130c86 0 165 -46 165 -129c0 -3 0 -7 -1 -12h-21c-1 54 -36 118 -148 118c-74 0 -141 -31 -141 -105
c0 -63 57 -84 105 -84h97v-27h-101c-70 0 -112 -52 -112 -115c0 -64 45 -117 158 -117zM219 542l-15 7l65 152l37 -15z" />
    <glyph glyph-name="psi" unicode="&#x3c8;" horiz-adv-x="589" 
d="M276 -196v189c-133 6 -218 61 -218 207v278h28v-276c0 -138 85 -181 190 -186v462h28v-462c105 5 198 43 198 186v276h29v-278c0 -146 -95 -203 -227 -207v-189h-28z" />
    <glyph glyph-name="phi" unicode="&#x3c6;" horiz-adv-x="616" 
d="M322 460v-444c136 9 216 70 216 223c0 135 -56 220 -216 221zM294 16v468h31c196 0 241 -122 241 -245c0 -117 -51 -239 -244 -245v-190h-28v190c-193 4 -244 124 -244 245c0 102 37 191 126 229l11 -21c-76 -33 -109 -109 -109 -208c0 -153 78 -214 216 -223z" />
    <glyph glyph-name="xi" unicode="&#x3be;" horiz-adv-x="413" 
d="M252 714c85 0 169 -38 169 -129c0 -3 0 -7 -1 -12h-21c-1 54 -36 118 -148 118c-110 0 -154 -61 -154 -131c0 -105 108 -135 180 -135h91v-26h-101c-130 0 -190 -100 -190 -186c0 -95 52 -134 233 -187c79 -23 96 -43 96 -72c0 -9 -3 -36 -55 -109l-22 14
c37 61 44 84 44 93c0 19 -17 34 -80 52c-164 47 -243 92 -243 205c0 75 37 168 142 201v5c-97 28 -125 88 -125 146c0 79 56 155 185 153z" />
    <glyph glyph-name="zeta" unicode="&#x3b6;" horiz-adv-x="389" 
d="M276 20c79 -34 114 -49 114 -85c0 -17 -25 -63 -65 -109l-22 14c36 48 54 81 54 95c0 20 -35 36 -110 68c-131 56 -202 96 -202 207c0 148 193 335 349 468h-322v25h355v-27c-181 -159 -353 -328 -353 -470c0 -95 82 -135 202 -186z" />
    <glyph glyph-name="three" unicode="3" horiz-adv-x="572" 
d="M266 16c135 0 213 69 213 178c0 116 -75 168 -221 168c-9 0 -27 0 -36 -1l-14 20l250 235l-2 4h-372v24h413v-26l-246 -229l2 -4c7 1 14 1 21 1c144 0 232 -61 232 -188c0 -124 -90 -206 -239 -206c-118 0 -215 51 -215 162c0 3 0 8 1 14h21c1 -74 48 -152 192 -152z" />
    <glyph glyph-name="onesuperior" unicode="&#xb9;" horiz-adv-x="372" 
d="M316 403v-23h-262v23h117v331l-103 -17v20l107 26h23v-360h118z" />
    <glyph glyph-name="twosuperior" unicode="&#xb2;" horiz-adv-x="372" 
d="M184 770c98 0 136 -45 136 -97c0 -61 -62 -99 -117 -128c-95 -51 -143 -76 -143 -141h268v-24h-296v23c0 75 53 103 152 159c58 33 106 62 106 110c0 44 -31 74 -105 74c-90 0 -120 -48 -120 -91h-22c-2 8 -2 12 -2 13c0 68 65 101 143 102z" />
    <glyph glyph-name="threesuperior" unicode="&#xb3;" horiz-adv-x="372" 
d="M278 735l-1 5h-226v24h274v-22l-153 -127h5c95 0 153 -38 153 -115c0 -75 -60 -125 -157 -125c-79 0 -143 32 -143 100v12h24c1 -43 29 -88 118 -88c84 0 131 38 131 98c0 65 -45 94 -136 94c-5 0 -14 0 -26 -2l-14 19z" />
    <glyph glyph-name="sfthyphen" unicode="&#xad;" horiz-adv-x="448" 
d="M103 233v33h242v-33h-242z" />
    <glyph glyph-name="acute" unicode="&#xb4;" horiz-adv-x="468" 
d="M230 548l-13 10l102 131l32 -24z" />
    <glyph glyph-name="space" unicode=" " horiz-adv-x="262" 
 />
    <glyph glyph-name="emdash" unicode="&#x2014;" horiz-adv-x="1000" 
d="M18 240v25h969v-25h-969z" />
    <glyph glyph-name="daggerdbl" unicode="&#x2021;" horiz-adv-x="539" 
d="M237 209v255h-170v26h169v200h30v-200h167v-26h-165v-255h165v-26h-165v-298h-31v298h-170v26h170z" />
    <glyph glyph-name="guilsinglleft" unicode="&#x2039;" horiz-adv-x="300" 
d="M223 29l-158 186v14l149 189l13 -9l-129 -187l139 -183z" />
    <glyph glyph-name="guilsinglright" unicode="&#x203a;" horiz-adv-x="300" 
d="M237 215l-158 -186l-14 10l139 183l-129 187l13 9l149 -189v-14z" />
    <glyph glyph-name="quotesinglbase" unicode="&#x201a;" horiz-adv-x="188" 
d="M47 -126l43 120c-17 2 -31 16 -31 34c0 20 15 36 34 36c20 0 36 -13 36 -35c0 -3 -1 -12 -5 -21l-65 -138z" />
    <glyph glyph-name="quotedblbase" unicode="&#x201e;" horiz-adv-x="288" 
d="M47 -126l43 120c-17 2 -31 16 -31 34c0 20 15 36 34 36c20 0 36 -13 36 -35c0 -3 -1 -12 -5 -21l-65 -138zM144 -126l43 120c-17 2 -31 16 -31 34c0 20 15 36 34 36c20 0 36 -13 36 -35c0 -3 -1 -12 -5 -21l-65 -138z" />
    <glyph glyph-name="exclamdown" unicode="&#xa1;" horiz-adv-x="274" 
d="M129 313h21c3 -169 4 -360 7 -529h-35c4 169 4 360 7 529zM105 445c0 18 16 34 34 34s34 -16 34 -34s-16 -34 -34 -34s-34 16 -34 34z" />
    <glyph glyph-name="questiondown" unicode="&#xbf;" horiz-adv-x="488" 
d="M59 -66c0 56 37 105 93 157c57 53 105 106 105 202v21h30v-15c0 -82 -29 -147 -97 -211c-58 -54 -100 -97 -100 -150c0 -80 43 -134 159 -134c146 0 175 81 176 155h23c1 -6 1 -11 1 -14c0 -111 -81 -167 -199 -167c-138 0 -191 70 -191 156zM309 447
c0 -18 -16 -34 -34 -34s-34 16 -34 34s16 34 34 34s34 -16 34 -34z" />
    <glyph glyph-name="AE" unicode="&#xc6;" horiz-adv-x="927" 
d="M479 252h-266l-171 -252h-33l456 674h425v-24h-381v-307h348v-24h-348v-294h390v-25h-420v252zM480 642l-5 1l-244 -364h248z" />
    <glyph glyph-name="OE" unicode="&#x152;" horiz-adv-x="846" 
d="M330 681c26 0 49 -3 71 -7h411v-24h-381v-287h348v-24h-348v-314h390v-25h-417c-22 -5 -47 -8 -75 -8c-210 0 -276 138 -276 338c0 207 71 351 277 351zM328 15c26 0 50 3 73 9v625c-22 5 -46 8 -73 8c-184 0 -248 -132 -248 -327c0 -215 85 -315 248 -315z" />
    <glyph glyph-name="thorn" unicode="&#xfe;" horiz-adv-x="513" 
d="M261 15c129 0 176 100 176 231c0 147 -66 217 -177 217c-119 0 -173 -92 -173 -184v-72c0 -96 51 -192 174 -192zM60 -205v916h27v-317h4c40 69 103 92 174 92c146 0 200 -111 200 -240c0 -141 -53 -254 -205 -254c-105 0 -150 54 -169 97h-4v-294h-27z" />
    <glyph glyph-name="Thorn" unicode="&#xde;" horiz-adv-x="550" 
d="M312 148h-219v-148h-28v673h28v-120h219c137 0 213 -89 213 -206c0 -87 -48 -199 -213 -199zM307 528h-214v-354h214c93 0 189 37 189 174c0 115 -79 180 -189 180z" />
    <glyph glyph-name="multiply" unicode="&#xd7;" horiz-adv-x="572" 
d="M124 124l145 145l-144 143l17 17l144 -143l143 143l17 -17l-143 -143l144 -145l-17 -17l-144 145l-145 -145z" />
    <glyph glyph-name="Oslash" unicode="&#xd8;" horiz-adv-x="658" 
d="M332 681c87 0 147 -26 189 -70l58 78l19 -14l-62 -82c51 -65 67 -161 67 -262c0 -171 -59 -337 -280 -337c-88 0 -149 23 -190 65l-59 -78l-19 12l63 83c-47 60 -63 148 -63 254c0 207 71 351 277 351zM330 657c-184 0 -248 -132 -248 -327c0 -103 17 -179 53 -230
l368 488c-38 44 -94 69 -173 69zM573 331c0 98 -16 181 -55 238l-368 -487c39 -44 96 -65 172 -65c161 0 251 98 251 314z" />
    <glyph glyph-name="oslash" unicode="&#xf8;" horiz-adv-x="521" 
d="M263 486c66 0 112 -20 144 -51l45 53l20 -15l-48 -57c35 -47 47 -112 47 -179c0 -126 -47 -245 -209 -245c-70 0 -119 17 -153 49l-42 -50l-18 13l45 54c-32 42 -44 101 -44 175c0 145 58 253 213 253zM443 237c0 62 -11 117 -37 157l-279 -332c29 -32 74 -47 136 -47
c114 0 180 69 180 222zM263 463c-135 0 -185 -98 -185 -230c0 -66 10 -117 34 -153l278 334c-28 31 -70 49 -127 49z" />
    <glyph glyph-name="breve" unicode="&#x2d8;" horiz-adv-x="468" 
d="M243 548c-96 0 -135 79 -135 132h25c-1 -39 27 -105 111 -105c81 0 111 69 111 105h23c-1 -54 -41 -132 -135 -132z" />
    <glyph glyph-name="dotaccent" unicode="&#x2d9;" horiz-adv-x="468" 
d="M215 597c0 16 12 28 28 28s28 -12 28 -28s-12 -28 -28 -28s-28 12 -28 28z" />
    <glyph glyph-name="ring" unicode="&#x2da;" horiz-adv-x="468" 
d="M238 541c-47 0 -87 40 -87 86s40 85 87 85c49 0 87 -39 87 -85s-39 -86 -87 -86zM238 693c-36 0 -64 -30 -64 -66c0 -35 28 -66 64 -66c38 0 66 31 66 66s-28 66 -66 66z" />
    <glyph glyph-name="ogonek" unicode="&#x2db;" horiz-adv-x="468" 
d="M396 15l8 -9c-59 -53 -72 -98 -72 -127c0 -34 23 -53 66 -53c23 0 49 4 72 12l4 -13c-27 -13 -55 -21 -89 -21c-57 0 -82 28 -82 65s23 96 93 146z" />
    <glyph glyph-name="hungarumlaut" unicode="&#x2dd;" horiz-adv-x="468" 
d="M170 548l-13 10l102 131l32 -24zM272 548l-13 10l102 131l32 -24z" />
    <glyph glyph-name="Circumflex" unicode="&#xf6c0;" horiz-adv-x="658" 
d="M468 728l-133 83l-133 -84c-1 2 -8 10 -11 13l134 101h25l129 -100z" />
    <glyph glyph-name="commaaccent" unicode="&#xf6c3;" horiz-adv-x="658" 
d="M292 -208l34 96c-16 2 -29 15 -29 31c0 19 13 34 31 34c19 0 34 -12 34 -33c0 -2 -1 -11 -5 -19l-53 -113z" />
    <glyph glyph-name="Caron" unicode="&#xf6ca;" horiz-adv-x="658" 
d="M335 756l133 83l11 -13l-129 -100h-25l-134 101c3 3 10 11 11 13z" />
    <glyph glyph-name="DieresisAcute" unicode="&#xf6cc;" horiz-adv-x="567" 
d="M271 715l-15 7l64 152l31 -14zM191 774c0 13 10 24 23 24s24 -11 24 -24s-11 -23 -24 -23s-23 10 -23 23zM349 774c0 13 10 24 23 24s24 -11 24 -24s-11 -23 -24 -23s-23 10 -23 23z" />
    <glyph glyph-name="DieresisGrave" unicode="&#xf6cd;" horiz-adv-x="567" 
d="M322 724l-15 -7l-80 145l31 14zM182 774c0 13 10 24 23 24s24 -11 24 -24s-11 -23 -24 -23s-23 10 -23 23zM340 774c0 13 10 24 23 24s24 -11 24 -24s-11 -23 -24 -23s-23 10 -23 23z" />
    <glyph glyph-name="Hungarumlaut" unicode="&#xf6cf;" horiz-adv-x="658" 
d="M249 731l-9 13l132 99l23 -28zM369 731l-9 13l132 99l25 -27z" />
    <glyph glyph-name="Macron" unicode="&#xf6d0;" horiz-adv-x="658" 
d="M196 761v29h279v-29h-279z" />
    <glyph glyph-name="cyrBreve" unicode="&#xf6d1;" horiz-adv-x="658" 
d="M332 729c-96 0 -135 79 -135 132h25c-1 -39 27 -105 111 -105c81 0 111 69 111 105h23c-1 -54 -41 -132 -135 -132z" />
    <glyph glyph-name="cyrbreve" unicode="&#xf6d4;" horiz-adv-x="501" 
d="M267 551c-96 0 -135 79 -135 132h25c-1 -39 27 -105 111 -105c81 0 111 69 111 105h23c-1 -54 -41 -132 -135 -132z" />
    <glyph glyph-name="uniF6DA" unicode="&#xf6da;" horiz-adv-x="535" 
d="M306 545l-15 -7l-102 177l37 15z" />
    <glyph glyph-name="uniF6DB" unicode="&#xf6db;" horiz-adv-x="501" 
d="M257 538l-15 7l80 185l37 -15z" />
    <glyph glyph-name="uniF6DC" unicode="&#xf6dc;" horiz-adv-x="468" 
d="M303 608c28 0 43 9 63 42l18 -9c-18 -44 -51 -59 -82 -59c-44 0 -96 38 -130 38c-24 0 -40 -9 -60 -42l-19 9c17 41 50 59 81 59c44 0 98 -38 129 -38z" />
    <glyph glyph-name="macron" unicode="&#xaf;" horiz-adv-x="468" 
d="M98 574v26h279v-26h-279z" />
    <glyph glyph-name="Scaron" unicode="&#x160;" horiz-adv-x="591" 
d="M292 -6c-152 0 -237 67 -237 193c0 5 0 11 1 17h25c0 -89 37 -185 209 -185c162 0 219 84 219 157c0 100 -66 150 -206 169c-125 17 -231 37 -231 160c0 88 62 177 229 177c119 0 225 -52 225 -178c0 -4 -1 -10 -2 -14h-24c0 85 -53 166 -198 166
c-134 0 -199 -70 -199 -146c0 -108 85 -119 226 -141c116 -18 209 -66 209 -186c0 -92 -63 -189 -246 -189zM298 756l133 83l11 -13l-129 -100h-25l-134 101c3 3 10 11 11 13z" />
    <glyph glyph-name="Zcaron" unicode="&#x17d;" horiz-adv-x="529" 
d="M25 0v26l434 624h-419v25h454v-24l-435 -626h445v-25h-479zM274 756l133 83l11 -13l-129 -100h-25l-134 101c3 3 10 11 11 13z" />
    <glyph glyph-name="scaron" unicode="&#x161;" horiz-adv-x="457" 
d="M223 15c117 0 159 57 159 108c0 70 -52 101 -151 113c-86 10 -172 30 -172 120c0 69 47 130 170 130c85 0 166 -36 166 -124c0 -3 0 -7 -1 -12h-21c-1 54 -33 113 -145 113c-96 0 -141 -48 -141 -101c0 -78 60 -89 162 -103c87 -12 160 -43 160 -131
c0 -69 -50 -136 -184 -136c-102 0 -180 43 -180 141c0 3 0 7 1 12h21c1 -60 32 -130 156 -130zM234 577l133 101l11 -11c-42 -39 -87 -80 -129 -120h-25c-45 41 -90 82 -134 121c3 3 10 9 11 11c44 -34 90 -67 133 -102z" />
    <glyph glyph-name="zcaron" unicode="&#x17e;" horiz-adv-x="409" 
d="M15 0v22l331 431h-304v25h337v-25l-329 -430h329v-23h-364zM209 577l133 101l11 -11c-42 -39 -87 -80 -129 -120h-25c-45 41 -90 82 -134 121c3 3 10 9 11 11c44 -34 90 -67 133 -102z" />
    <glyph glyph-name="Ydieresis" unicode="&#x178;" horiz-adv-x="512" 
d="M248 306h7l100 172l114 196h33l-236 -402v-272h-29v271l-227 403h32l107 -188c33 -59 67 -119 99 -180zM157 760c0 13 10 24 23 24s24 -11 24 -24s-11 -23 -24 -23s-23 10 -23 23zM310 760c0 13 10 24 23 24s24 -11 24 -24s-11 -23 -24 -23s-23 10 -23 23z" />
    <glyph glyph-name="Agrave" unicode="&#xc0;" horiz-adv-x="566" 
d="M525 0l-71 187h-344l-71 -187h-29l255 674h33l258 -674h-31zM285 637h-7c-22 -65 -46 -130 -70 -192l-89 -232h327l-90 232c-25 64 -47 128 -71 192zM305 742l-9 -13l-142 84l19 28z" />
    <glyph glyph-name="Aacute" unicode="&#xc1;" horiz-adv-x="566" 
d="M525 0l-71 187h-344l-71 -187h-29l255 674h33l258 -674h-31zM285 637h-7c-22 -65 -46 -130 -70 -192l-89 -232h327l-90 232c-25 64 -47 128 -71 192zM274 729l-9 13l132 99l21 -28z" />
    <glyph glyph-name="Acircumflex" unicode="&#xc2;" horiz-adv-x="566" 
d="M525 0l-71 187h-344l-71 -187h-29l255 674h33l258 -674h-31zM285 637h-7c-22 -65 -46 -130 -70 -192l-89 -232h327l-90 232c-25 64 -47 128 -71 192zM410 715l-133 83l-133 -84c-1 2 -8 10 -11 13l134 101h25l129 -100z" />
    <glyph glyph-name="Atilde" unicode="&#xc3;" horiz-adv-x="566" 
d="M525 0l-71 187h-344l-71 -187h-29l255 674h33l258 -674h-31zM285 637h-7c-22 -65 -46 -130 -70 -192l-89 -232h327l-90 232c-25 64 -47 128 -71 192zM345 772c28 0 43 9 63 42l18 -9c-18 -44 -51 -59 -82 -59c-44 0 -96 38 -130 38c-24 0 -40 -9 -60 -42l-19 9
c17 41 50 59 81 59c44 0 98 -38 129 -38z" />
    <glyph glyph-name="Egrave" unicode="&#xc8;" horiz-adv-x="519" 
d="M65 0v674h410v-25h-382v-286h353v-25h-353v-313h396v-25h-424zM334 742l-9 -13l-142 84l19 28z" />
    <glyph glyph-name="Ecircumflex" unicode="&#xca;" horiz-adv-x="519" 
d="M65 0v674h410v-25h-382v-286h353v-25h-353v-313h396v-25h-424zM397 728l-133 83l-133 -84c-1 2 -8 10 -11 13l134 101h25l129 -100z" />
    <glyph glyph-name="Edieresis" unicode="&#xcb;" horiz-adv-x="519" 
d="M65 0v674h410v-25h-382v-286h353v-25h-353v-313h396v-25h-424zM161 774c0 13 10 24 23 24s24 -11 24 -24s-11 -23 -24 -23s-23 10 -23 23zM314 774c0 13 10 24 23 24s24 -11 24 -24s-11 -23 -24 -23s-23 10 -23 23z" />
    <glyph glyph-name="Igrave" unicode="&#xcc;" horiz-adv-x="197" 
d="M85 0v674h27v-674h-27zM123 742l-9 -13l-142 84l19 28z" />
    <glyph glyph-name="Iacute" unicode="&#xcd;" horiz-adv-x="197" 
d="M85 0v674h27v-674h-27zM93 729l-9 13l132 99l21 -28z" />
    <glyph glyph-name="Icircumflex" unicode="&#xce;" horiz-adv-x="197" 
d="M85 0v674h27v-674h-27zM230 728l-133 83l-133 -84c-1 2 -8 10 -11 13l134 101h25l129 -100z" />
    <glyph glyph-name="Idieresis" unicode="&#xcf;" horiz-adv-x="197" 
d="M85 0v674h27v-674h-27zM-2 774c0 13 10 24 23 24s24 -11 24 -24s-11 -23 -24 -23s-23 10 -23 23zM151 774c0 13 10 24 23 24s24 -11 24 -24s-11 -23 -24 -23s-23 10 -23 23z" />
    <glyph glyph-name="Eth" unicode="&#xd0;" horiz-adv-x="619" 
d="M65 363v310h186c143 0 313 -80 313 -339c0 -209 -132 -334 -313 -334h-186v338h-65v25h65zM93 25h150c107 0 291 49 291 311c0 260 -181 313 -292 313h-149v-286h269v-25h-269v-313z" />
    <glyph glyph-name="Ntilde" unicode="&#xd1;" horiz-adv-x="633" 
d="M98 620h-6v-620h-27v674h25l297 -414c50 -69 99 -139 147 -208h5v622h29v-674h-28l-318 441c-42 58 -84 118 -124 179zM394 763c28 0 43 9 63 42l18 -9c-18 -44 -51 -59 -82 -59c-44 0 -96 38 -130 38c-24 0 -40 -9 -60 -42l-19 9c17 41 50 59 81 59c44 0 98 -38 129 -38
z" />
    <glyph glyph-name="Ograve" unicode="&#xd2;" horiz-adv-x="658" 
d="M332 681c218 0 271 -166 271 -350c0 -171 -59 -337 -280 -337c-210 0 -268 136 -268 336c0 207 71 351 277 351zM330 657c-184 0 -248 -132 -248 -327c0 -215 77 -313 240 -313c161 0 251 98 251 314c0 194 -60 326 -243 326zM365 742l-9 -13l-142 84l19 28z" />
    <glyph glyph-name="Oacute" unicode="&#xd3;" horiz-adv-x="658" 
d="M332 681c218 0 271 -166 271 -350c0 -171 -59 -337 -280 -337c-210 0 -268 136 -268 336c0 207 71 351 277 351zM330 657c-184 0 -248 -132 -248 -327c0 -215 77 -313 240 -313c161 0 251 98 251 314c0 194 -60 326 -243 326zM324 729l-9 13l132 99l21 -28z" />
    <glyph glyph-name="Ocircumflex" unicode="&#xd4;" horiz-adv-x="658" 
d="M332 681c218 0 271 -166 271 -350c0 -171 -59 -337 -280 -337c-210 0 -268 136 -268 336c0 207 71 351 277 351zM330 657c-184 0 -248 -132 -248 -327c0 -215 77 -313 240 -313c161 0 251 98 251 314c0 194 -60 326 -243 326zM460 728l-133 83l-133 -84
c-1 2 -8 10 -11 13l134 101h25l129 -100z" />
    <glyph glyph-name="Otilde" unicode="&#xd5;" horiz-adv-x="658" 
d="M332 681c218 0 271 -166 271 -350c0 -171 -59 -337 -280 -337c-210 0 -268 136 -268 336c0 207 71 351 277 351zM330 657c-184 0 -248 -132 -248 -327c0 -215 77 -313 240 -313c161 0 251 98 251 314c0 194 -60 326 -243 326zM397 780c28 0 43 9 63 42l18 -9
c-18 -44 -51 -59 -82 -59c-44 0 -96 38 -130 38c-24 0 -40 -9 -60 -42l-19 9c17 41 50 59 81 59c44 0 98 -38 129 -38z" />
    <glyph glyph-name="Ugrave" unicode="&#xd9;" horiz-adv-x="637" 
d="M572 674v-404c0 -161 -59 -277 -252 -277c-199 0 -255 105 -255 276v405h27v-405c0 -193 82 -251 229 -251c137 0 222 65 222 252v404h29zM376 742l-9 -13l-142 84l19 28z" />
    <glyph glyph-name="Uacute" unicode="&#xda;" horiz-adv-x="637" 
d="M572 674v-404c0 -161 -59 -277 -252 -277c-199 0 -255 105 -255 276v405h27v-405c0 -193 82 -251 229 -251c137 0 222 65 222 252v404h29zM281 729l-9 13l132 99l21 -28z" />
    <glyph glyph-name="Ucircumflex" unicode="&#xdb;" horiz-adv-x="637" 
d="M572 674v-404c0 -161 -59 -277 -252 -277c-199 0 -255 105 -255 276v405h27v-405c0 -193 82 -251 229 -251c137 0 222 65 222 252v404h29zM449 728l-133 83l-133 -84c-1 2 -8 10 -11 13l134 101h25l129 -100z" />
    <glyph glyph-name="Yacute" unicode="&#xdd;" horiz-adv-x="512" 
d="M248 306h7l100 172l114 196h33l-236 -402v-272h-29v271l-227 403h32l107 -188c33 -59 67 -119 99 -180zM238 712l-9 13l132 99l21 -28z" />
    <glyph glyph-name="aacute" unicode="&#xe1;" horiz-adv-x="468" 
d="M229 486c135 0 181 -72 181 -164v-322h-21c-7 17 -6 45 -6 83h-4c-50 -78 -129 -91 -189 -91c-83 0 -155 36 -155 130c0 85 70 162 227 162c35 0 76 -4 121 -13v43c0 56 -14 148 -150 148c-112 0 -147 -64 -148 -118h-21c-1 5 -1 9 -1 12c0 94 89 130 166 130zM189 14
c154 0 194 103 194 171v62c-46 10 -87 14 -122 14c-138 0 -199 -66 -199 -139c0 -60 39 -108 127 -108zM227 548l-13 10l102 131l32 -24z" />
    <glyph glyph-name="atilde" unicode="&#xe3;" horiz-adv-x="468" 
d="M229 486c135 0 181 -72 181 -164v-322h-21c-7 17 -6 45 -6 83h-4c-50 -78 -129 -91 -189 -91c-83 0 -155 36 -155 130c0 85 70 162 227 162c35 0 76 -4 121 -13v43c0 56 -14 148 -150 148c-112 0 -147 -64 -148 -118h-21c-1 5 -1 9 -1 12c0 94 89 130 166 130zM189 14
c154 0 194 103 194 171v62c-46 10 -87 14 -122 14c-138 0 -199 -66 -199 -139c0 -60 39 -108 127 -108zM295 600c28 0 43 9 63 42l18 -9c-18 -44 -51 -59 -82 -59c-44 0 -96 38 -130 38c-24 0 -40 -9 -60 -42l-19 9c17 41 50 59 81 59c44 0 98 -38 129 -38z" />
    <glyph glyph-name="aring" unicode="&#xe5;" horiz-adv-x="468" 
d="M229 486c135 0 181 -72 181 -164v-322h-21c-7 17 -6 45 -6 83h-4c-50 -78 -129 -91 -189 -91c-83 0 -155 36 -155 130c0 85 70 162 227 162c35 0 76 -4 121 -13v43c0 56 -14 148 -150 148c-112 0 -147 -64 -148 -118h-21c-1 5 -1 9 -1 12c0 94 89 130 166 130zM189 14
c154 0 194 103 194 171v62c-46 10 -87 14 -122 14c-138 0 -199 -66 -199 -139c0 -60 39 -108 127 -108zM229 541c-47 0 -87 40 -87 86s40 85 87 85c49 0 87 -39 87 -85s-39 -86 -87 -86zM229 693c-36 0 -64 -30 -64 -66c0 -35 28 -66 64 -66c38 0 66 31 66 66s-28 66 -66 66
z" />
    <glyph glyph-name="igrave" unicode="&#xec;" horiz-adv-x="210" 
d="M92 0v478h27v-478h-27zM138 553l-13 -10l-126 125l32 23z" />
    <glyph glyph-name="iacute" unicode="&#xed;" horiz-adv-x="210" 
d="M92 0v478h27v-478h-27zM92 548l-13 10l102 131l32 -24z" />
    <glyph glyph-name="ntilde" unicode="&#xf1;" horiz-adv-x="506" 
d="M60 0v478h21c8 -20 6 -45 6 -83h4c45 76 123 92 179 92c151 0 178 -98 178 -203v-284h-28v272c0 77 -6 190 -153 190c-119 0 -180 -92 -180 -189v-273h-27zM313 600c28 0 43 9 63 42l18 -9c-18 -44 -51 -59 -82 -59c-44 0 -96 38 -130 38c-24 0 -40 -9 -60 -42l-19 9
c17 41 50 59 81 59c44 0 98 -38 129 -38z" />
    <glyph glyph-name="ograve" unicode="&#xf2;" horiz-adv-x="521" 
d="M263 486c165 0 208 -121 208 -249c0 -126 -47 -245 -209 -245c-161 0 -212 92 -212 241c0 145 58 253 213 253zM263 463c-135 0 -185 -98 -185 -230c0 -146 51 -218 185 -218c114 0 180 69 180 222c0 128 -45 226 -180 226zM305 553l-13 -10l-126 125l32 23z" />
    <glyph glyph-name="oacute" unicode="&#xf3;" horiz-adv-x="521" 
d="M263 486c165 0 208 -121 208 -249c0 -126 -47 -245 -209 -245c-161 0 -212 92 -212 241c0 145 58 253 213 253zM263 463c-135 0 -185 -98 -185 -230c0 -146 51 -218 185 -218c114 0 180 69 180 222c0 128 -45 226 -180 226zM259 548l-13 10l102 131l32 -24z" />
    <glyph glyph-name="uacute" unicode="&#xfa;" horiz-adv-x="496" 
d="M436 478v-478h-21c-8 20 -6 47 -6 85h-4c-45 -76 -116 -93 -166 -93c-157 0 -181 99 -181 214v272h28v-272c0 -97 17 -189 156 -189c111 0 167 91 167 188v273h27zM231 548l-13 10l102 131l32 -24z" />
    <glyph glyph-name="yacute" unicode="&#xfd;" horiz-adv-x="409" 
d="M204 27h7c20 69 52 155 79 233l75 217h29l-180 -530c-25 -75 -40 -143 -141 -143h-53v24h50c58 0 82 23 103 82l30 88l-18 -2c-26 81 -56 152 -80 217l-98 264h29l77 -202c27 -71 64 -169 91 -248zM202 539l-13 10l102 131l32 -24z" />
    <glyph glyph-name="ydieresis" unicode="&#xff;" horiz-adv-x="409" 
d="M204 27h7c20 69 52 155 79 233l75 217h29l-180 -530c-25 -75 -40 -143 -141 -143h-53v24h50c58 0 82 23 103 82l30 88l-18 -2c-26 81 -56 152 -80 217l-98 264h29l77 -202c27 -71 64 -169 91 -248zM106 588c0 13 10 24 23 24s24 -11 24 -24s-11 -23 -24 -23
s-23 10 -23 23zM259 588c0 13 10 24 23 24s24 -11 24 -24s-11 -23 -24 -23s-23 10 -23 23z" />
    <glyph glyph-name="Amacron" unicode="&#x100;" horiz-adv-x="566" 
d="M525 0l-71 187h-344l-71 -187h-29l255 674h33l258 -674h-31zM285 637h-7c-22 -65 -46 -130 -70 -192l-89 -232h327l-90 232c-25 64 -47 128 -71 192zM140 761v29h279v-29h-279z" />
    <glyph glyph-name="amacron" unicode="&#x101;" horiz-adv-x="468" 
d="M229 486c135 0 181 -72 181 -164v-322h-21c-7 17 -6 45 -6 83h-4c-50 -78 -129 -91 -189 -91c-83 0 -155 36 -155 130c0 85 70 162 227 162c35 0 76 -4 121 -13v43c0 56 -14 148 -150 148c-112 0 -147 -64 -148 -118h-21c-1 5 -1 9 -1 12c0 94 89 130 166 130zM189 14
c154 0 194 103 194 171v62c-46 10 -87 14 -122 14c-138 0 -199 -66 -199 -139c0 -60 39 -108 127 -108zM86 574v26h279v-26h-279z" />
    <glyph glyph-name="Abreve" unicode="&#x102;" horiz-adv-x="566" 
d="M525 0l-71 187h-344l-71 -187h-29l255 674h33l258 -674h-31zM285 637h-7c-22 -65 -46 -130 -70 -192l-89 -232h327l-90 232c-25 64 -47 128 -71 192zM282 729c-96 0 -135 79 -135 132h25c-1 -39 27 -105 111 -105c81 0 111 69 111 105h23c-1 -54 -41 -132 -135 -132z" />
    <glyph glyph-name="abreve" unicode="&#x103;" horiz-adv-x="468" 
d="M229 486c135 0 181 -72 181 -164v-322h-21c-7 17 -6 45 -6 83h-4c-50 -78 -129 -91 -189 -91c-83 0 -155 36 -155 130c0 85 70 162 227 162c35 0 76 -4 121 -13v43c0 56 -14 148 -150 148c-112 0 -147 -64 -148 -118h-21c-1 5 -1 9 -1 12c0 94 89 130 166 130zM189 14
c154 0 194 103 194 171v62c-46 10 -87 14 -122 14c-138 0 -199 -66 -199 -139c0 -60 39 -108 127 -108zM234 551c-96 0 -135 79 -135 132h25c-1 -39 27 -105 111 -105c81 0 111 69 111 105h23c-1 -54 -41 -132 -135 -132z" />
    <glyph glyph-name="Aogonek" unicode="&#x104;" horiz-adv-x="566" 
d="M441 -131c0 35 20 90 81 137l-68 181h-344l-71 -187h-29l255 674h33l258 -674h-21c-53 -50 -65 -93 -65 -121c0 -34 23 -53 66 -53c23 0 49 4 72 12l4 -13c-27 -13 -55 -21 -89 -21c-57 0 -82 28 -82 65zM285 637h-7c-22 -65 -46 -130 -70 -192l-89 -232h327l-90 232
c-25 64 -47 128 -71 192z" />
    <glyph glyph-name="aogonek" unicode="&#x105;" horiz-adv-x="468" 
d="M229 486c135 0 181 -72 181 -164v-322h-16c-53 -50 -65 -93 -65 -121c0 -34 23 -53 66 -53c23 0 49 4 72 12l4 -13c-27 -13 -55 -21 -89 -21c-57 0 -82 28 -82 65c0 36 21 92 86 140c-4 17 -3 42 -3 74h-4c-50 -78 -129 -91 -189 -91c-83 0 -155 36 -155 130
c0 85 70 162 227 162c35 0 76 -4 121 -13v43c0 56 -14 148 -150 148c-112 0 -147 -64 -148 -118h-21c-1 5 -1 9 -1 12c0 94 89 130 166 130zM189 14c154 0 194 103 194 171v62c-46 10 -87 14 -122 14c-138 0 -199 -66 -199 -139c0 -60 39 -108 127 -108z" />
    <glyph glyph-name="Cacute" unicode="&#x106;" horiz-adv-x="581" 
d="M308 729l-9 13l132 99l21 -28zM318 18c160 0 209 93 210 171h22c1 -7 1 -11 1 -15c0 -109 -97 -180 -232 -180c-202 0 -264 136 -264 336c0 207 74 351 269 351c115 0 214 -55 214 -166c0 -3 0 -8 -1 -14h-21c-1 74 -50 155 -196 155c-169 0 -238 -131 -238 -326
c0 -215 78 -312 236 -312z" />
    <glyph glyph-name="cacute" unicode="&#x107;" horiz-adv-x="472" 
d="M257 -8c-148 0 -207 79 -207 242c0 133 50 252 210 252c93 0 168 -40 168 -129c0 -3 0 -7 -1 -12h-21c-1 54 -36 118 -148 118c-125 0 -180 -98 -180 -227c0 -168 67 -221 181 -221c124 0 155 76 156 130h21c1 -5 1 -9 1 -12c0 -91 -78 -141 -180 -141zM238 548l-13 10
l102 131l32 -24z" />
    <glyph glyph-name="Ccircumflex" unicode="&#x108;" horiz-adv-x="581" 
d="M457 728l-133 83l-133 -84c-1 2 -8 10 -11 13l134 101h25l129 -100zM318 18c160 0 209 93 210 171h22c1 -7 1 -11 1 -15c0 -109 -97 -180 -232 -180c-202 0 -264 136 -264 336c0 207 74 351 269 351c115 0 214 -55 214 -166c0 -3 0 -8 -1 -14h-21c-1 74 -50 155 -196 155
c-169 0 -238 -131 -238 -326c0 -215 78 -312 236 -312z" />
    <glyph glyph-name="ccircumflex" unicode="&#x109;" horiz-adv-x="472" 
d="M257 -8c-148 0 -207 79 -207 242c0 133 50 252 210 252c93 0 168 -40 168 -129c0 -3 0 -7 -1 -12h-21c-1 54 -36 118 -148 118c-125 0 -180 -98 -180 -227c0 -168 67 -221 181 -221c124 0 155 76 156 130h21c1 -5 1 -9 1 -12c0 -91 -78 -141 -180 -141zM389 545l-133 101
c-43 -35 -89 -68 -133 -102c-1 2 -8 8 -11 11c44 39 89 80 134 121h25c42 -40 87 -81 129 -120z" />
    <glyph glyph-name="Cdotaccent" unicode="&#x10a;" horiz-adv-x="581" 
d="M293 767c0 16 12 28 28 28s28 -12 28 -28s-12 -28 -28 -28s-28 12 -28 28zM318 18c160 0 209 93 210 171h22c1 -7 1 -11 1 -15c0 -109 -97 -180 -232 -180c-202 0 -264 136 -264 336c0 207 74 351 269 351c115 0 214 -55 214 -166c0 -3 0 -8 -1 -14h-21
c-1 74 -50 155 -196 155c-169 0 -238 -131 -238 -326c0 -215 78 -312 236 -312z" />
    <glyph glyph-name="cdotaccent" unicode="&#x10b;" horiz-adv-x="472" 
d="M257 -8c-148 0 -207 79 -207 242c0 133 50 252 210 252c93 0 168 -40 168 -129c0 -3 0 -7 -1 -12h-21c-1 54 -36 118 -148 118c-125 0 -180 -98 -180 -227c0 -168 67 -221 181 -221c124 0 155 76 156 130h21c1 -5 1 -9 1 -12c0 -91 -78 -141 -180 -141zM225 597
c0 16 12 28 28 28s28 -12 28 -28s-12 -28 -28 -28s-28 12 -28 28z" />
    <glyph glyph-name="Ccaron" unicode="&#x10c;" horiz-adv-x="581" 
d="M319 756l133 83l11 -13l-129 -100h-25l-134 101c3 3 10 11 11 13zM318 18c160 0 209 93 210 171h22c1 -7 1 -11 1 -15c0 -109 -97 -180 -232 -180c-202 0 -264 136 -264 336c0 207 74 351 269 351c115 0 214 -55 214 -166c0 -3 0 -8 -1 -14h-21c-1 74 -50 155 -196 155
c-169 0 -238 -131 -238 -326c0 -215 78 -312 236 -312z" />
    <glyph glyph-name="ccaron" unicode="&#x10d;" horiz-adv-x="472" 
d="M257 -8c-148 0 -207 79 -207 242c0 133 50 252 210 252c93 0 168 -40 168 -129c0 -3 0 -7 -1 -12h-21c-1 54 -36 118 -148 118c-125 0 -180 -98 -180 -227c0 -168 67 -221 181 -221c124 0 155 76 156 130h21c1 -5 1 -9 1 -12c0 -91 -78 -141 -180 -141zM254 577l133 101
l11 -11c-42 -39 -87 -80 -129 -120h-25c-45 41 -90 82 -134 121c3 3 10 9 11 11c44 -34 90 -67 133 -102z" />
    <glyph glyph-name="Dcaron" unicode="&#x10e;" horiz-adv-x="619" 
d="M93 25h150c107 0 291 49 291 311c0 260 -181 313 -292 313h-149v-624zM65 0v673h186c143 0 313 -80 313 -339c0 -209 -132 -334 -313 -334h-186zM276 756l133 83l11 -13l-129 -100h-25l-134 101c3 3 10 11 11 13z" />
    <glyph glyph-name="dcaron" unicode="&#x10f;" horiz-adv-x="590" 
d="M517 564l34 96c-16 2 -29 15 -29 31c0 19 13 34 31 34c19 0 34 -12 34 -33c0 -2 -1 -11 -5 -19l-53 -113zM254 462c-129 0 -176 -99 -176 -230c0 -149 56 -218 177 -218c119 0 173 90 173 182v70c0 96 -51 196 -174 196zM455 710v-710h-21c-7 19 -6 47 -6 85h-4
c-43 -74 -105 -93 -176 -93c-156 0 -198 111 -198 240c0 141 53 254 205 254c111 0 150 -63 169 -106h4v330h27z" />
    <glyph glyph-name="Dcroat" unicode="&#x110;" horiz-adv-x="619" 
d="M65 363v310h186c143 0 313 -80 313 -339c0 -209 -132 -334 -313 -334h-186v338h-65v25h65zM93 25h150c107 0 291 49 291 311c0 260 -181 313 -292 313h-149v-286h269v-25h-269v-313z" />
    <glyph glyph-name="dcroat" unicode="&#x111;" horiz-adv-x="515" 
d="M455 584v-584h-21c-7 19 -6 47 -6 85h-4c-43 -74 -105 -93 -176 -93c-156 0 -198 111 -198 240c0 141 53 254 205 254c111 0 150 -63 169 -106h4v204h-177v22h177v104h27v-104h60v-22h-60zM254 462c-129 0 -176 -99 -176 -230c0 -149 56 -218 177 -218
c119 0 173 90 173 182v70c0 96 -51 196 -174 196z" />
    <glyph glyph-name="Emacron" unicode="&#x112;" horiz-adv-x="519" 
d="M65 0v674h410v-25h-382v-286h353v-25h-353v-313h396v-25h-424zM135 761v29h279v-29h-279z" />
    <glyph glyph-name="emacron" unicode="&#x113;" horiz-adv-x="495" 
d="M255 462c-127 0 -170 -95 -175 -198h335c0 106 -28 198 -160 198zM257 15c131 0 158 76 159 130h21c1 -5 1 -9 1 -12c0 -91 -81 -141 -183 -141c-155 0 -205 102 -205 246c0 136 54 248 205 248c142 0 185 -93 185 -203c0 -14 -1 -28 -2 -42h-360
c0 -156 59 -226 179 -226zM121 574v26h279v-26h-279z" />
    <glyph glyph-name="Ebreve" unicode="&#x114;" horiz-adv-x="519" 
d="M65 0v674h410v-25h-382v-286h353v-25h-353v-313h396v-25h-424zM278 729c-96 0 -135 79 -135 132h25c-1 -39 27 -105 111 -105c81 0 111 69 111 105h23c-1 -54 -41 -132 -135 -132z" />
    <glyph glyph-name="ebreve" unicode="&#x115;" horiz-adv-x="495" 
d="M255 462c-127 0 -170 -95 -175 -198h335c0 106 -28 198 -160 198zM257 15c131 0 158 76 159 130h21c1 -5 1 -9 1 -12c0 -91 -81 -141 -183 -141c-155 0 -205 102 -205 246c0 136 54 248 205 248c142 0 185 -93 185 -203c0 -14 -1 -28 -2 -42h-360
c0 -156 59 -226 179 -226zM243 548c-96 0 -135 79 -135 132h25c-1 -39 27 -105 111 -105c81 0 111 69 111 105h23c-1 -54 -41 -132 -135 -132z" />
    <glyph glyph-name="Edotaccent" unicode="&#x116;" horiz-adv-x="519" 
d="M65 0v674h410v-25h-382v-286h353v-25h-353v-313h396v-25h-424zM240 767c0 16 12 28 28 28s28 -12 28 -28s-12 -28 -28 -28s-28 12 -28 28z" />
    <glyph glyph-name="edotaccent" unicode="&#x117;" horiz-adv-x="495" 
d="M255 462c-127 0 -170 -95 -175 -198h335c0 106 -28 198 -160 198zM257 15c131 0 158 76 159 130h21c1 -5 1 -9 1 -12c0 -91 -81 -141 -183 -141c-155 0 -205 102 -205 246c0 136 54 248 205 248c142 0 185 -93 185 -203c0 -14 -1 -28 -2 -42h-360
c0 -156 59 -226 179 -226zM226 597c0 16 12 28 28 28s28 -12 28 -28s-12 -28 -28 -28s-28 12 -28 28z" />
    <glyph glyph-name="Eogonek" unicode="&#x118;" horiz-adv-x="519" 
d="M65 0v674h410v-25h-382v-276h353v-25h-353v-323h396v-25h-32c-57 -52 -69 -96 -69 -125c0 -34 23 -53 66 -53c23 0 49 4 72 12l4 -13c-27 -13 -55 -21 -89 -21c-57 0 -82 28 -82 65c0 35 20 88 78 135h-372z" />
    <glyph glyph-name="eogonek" unicode="&#x119;" horiz-adv-x="495" 
d="M257 15c131 0 158 76 159 130h21c1 -5 1 -9 1 -12c0 -56 -31 -97 -78 -120c-49 -47 -60 -88 -60 -115c0 -34 23 -53 66 -53c23 0 49 4 72 12l4 -13c-27 -13 -55 -21 -89 -21c-57 0 -82 28 -82 65c0 29 14 72 54 112c-22 -5 -45 -8 -70 -8c-155 0 -205 102 -205 246
c0 136 54 248 205 248c142 0 185 -93 185 -203c0 -14 -1 -28 -2 -42h-360c0 -156 59 -226 179 -226zM255 462c-127 0 -170 -95 -175 -198h335c0 106 -28 198 -160 198z" />
    <glyph glyph-name="Ecaron" unicode="&#x11a;" horiz-adv-x="519" 
d="M65 0v674h410v-25h-382v-286h353v-25h-353v-313h396v-25h-424zM274 756l133 83l11 -13l-129 -100h-25l-134 101c3 3 10 11 11 13z" />
    <glyph glyph-name="ecaron" unicode="&#x11b;" horiz-adv-x="495" 
d="M255 462c-127 0 -170 -95 -175 -198h335c0 106 -28 198 -160 198zM257 15c131 0 158 76 159 130h21c1 -5 1 -9 1 -12c0 -91 -81 -141 -183 -141c-155 0 -205 102 -205 246c0 136 54 248 205 248c142 0 185 -93 185 -203c0 -14 -1 -28 -2 -42h-360
c0 -156 59 -226 179 -226zM254 577l133 101l11 -11c-42 -39 -87 -80 -129 -120h-25c-45 41 -90 82 -134 121c3 3 10 9 11 11c44 -34 90 -67 133 -102z" />
    <glyph glyph-name="Gcircumflex" unicode="&#x11c;" horiz-adv-x="628" 
d="M349 320v25h224v-110c0 -136 -77 -241 -248 -241c-202 0 -270 136 -270 336c0 207 81 351 276 351c115 0 223 -55 223 -166c0 -3 0 -8 -1 -14h-22c-1 74 -52 156 -204 156c-169 0 -245 -132 -245 -327c0 -215 84 -313 242 -313c189 0 222 140 222 222v81h-197zM456 728
l-133 83l-133 -84c-1 2 -8 10 -11 13l134 101h25l129 -100z" />
    <glyph glyph-name="gcircumflex" unicode="&#x11d;" horiz-adv-x="527" 
d="M257 486c20 0 53 -1 80 -8h145v-18c-16 -5 -62 -6 -88 -6v-4c43 -24 73 -69 73 -134c0 -99 -73 -169 -203 -169c-82 0 -120 23 -132 28c-36 -20 -49 -45 -49 -62c0 -53 106 -55 209 -69c118 -15 190 -41 190 -121c0 -94 -107 -126 -235 -126c-149 0 -202 47 -202 117
c0 57 41 101 88 127c-46 10 -76 32 -76 68c0 26 16 58 57 80c-35 28 -58 69 -58 125c0 105 85 172 201 172zM258 463c-106 0 -174 -60 -174 -148c0 -82 49 -145 178 -145c113 0 178 55 178 147c0 60 -37 146 -182 146zM290 21l-123 14c-57 -27 -97 -68 -97 -121
c0 -57 55 -95 181 -95c100 0 205 21 205 103c0 49 -29 83 -166 99zM390 545l-133 101c-43 -35 -89 -68 -133 -102c-1 2 -8 8 -11 11c44 39 89 80 134 121h25c42 -40 87 -81 129 -120z" />
    <glyph glyph-name="Gbreve" unicode="&#x11e;" horiz-adv-x="628" 
d="M349 320v25h224v-110c0 -136 -77 -241 -248 -241c-202 0 -270 136 -270 336c0 207 81 351 276 351c115 0 223 -55 223 -166c0 -3 0 -8 -1 -14h-22c-1 74 -52 156 -204 156c-169 0 -245 -132 -245 -327c0 -215 84 -313 242 -313c189 0 222 140 222 222v81h-197zM322 729
c-96 0 -135 79 -135 132h25c-1 -39 27 -105 111 -105c81 0 111 69 111 105h23c-1 -54 -41 -132 -135 -132z" />
    <glyph glyph-name="gbreve" unicode="&#x11f;" horiz-adv-x="527" 
d="M257 486c20 0 53 -1 80 -8h145v-18c-16 -5 -62 -6 -88 -6v-4c43 -24 73 -69 73 -134c0 -99 -73 -169 -203 -169c-82 0 -120 23 -132 28c-36 -20 -49 -45 -49 -62c0 -53 106 -55 209 -69c118 -15 190 -41 190 -121c0 -94 -107 -126 -235 -126c-149 0 -202 47 -202 117
c0 57 41 101 88 127c-46 10 -76 32 -76 68c0 26 16 58 57 80c-35 28 -58 69 -58 125c0 105 85 172 201 172zM258 463c-106 0 -174 -60 -174 -148c0 -82 49 -145 178 -145c113 0 178 55 178 147c0 60 -37 146 -182 146zM290 21l-123 14c-57 -27 -97 -68 -97 -121
c0 -57 55 -95 181 -95c100 0 205 21 205 103c0 49 -29 83 -166 99zM263 548c-96 0 -135 79 -135 132h25c-1 -39 27 -105 111 -105c81 0 111 69 111 105h23c-1 -54 -41 -132 -135 -132z" />
    <glyph glyph-name="Gdotaccent" unicode="&#x120;" horiz-adv-x="628" 
d="M349 320v25h224v-110c0 -136 -77 -241 -248 -241c-202 0 -270 136 -270 336c0 207 81 351 276 351c115 0 223 -55 223 -166c0 -3 0 -8 -1 -14h-22c-1 74 -52 156 -204 156c-169 0 -245 -132 -245 -327c0 -215 84 -313 242 -313c189 0 222 140 222 222v81h-197zM293 767
c0 16 12 28 28 28s28 -12 28 -28s-12 -28 -28 -28s-28 12 -28 28z" />
    <glyph glyph-name="gdotaccent" unicode="&#x121;" horiz-adv-x="527" 
d="M257 486c20 0 53 -1 80 -8h145v-18c-16 -5 -62 -6 -88 -6v-4c43 -24 73 -69 73 -134c0 -99 -73 -169 -203 -169c-82 0 -120 23 -132 28c-36 -20 -49 -45 -49 -62c0 -53 106 -55 209 -69c118 -15 190 -41 190 -121c0 -94 -107 -126 -235 -126c-149 0 -202 47 -202 117
c0 57 41 101 88 127c-46 10 -76 32 -76 68c0 26 16 58 57 80c-35 28 -58 69 -58 125c0 105 85 172 201 172zM258 463c-106 0 -174 -60 -174 -148c0 -82 49 -145 178 -145c113 0 178 55 178 147c0 60 -37 146 -182 146zM290 21l-123 14c-57 -27 -97 -68 -97 -121
c0 -57 55 -95 181 -95c100 0 205 21 205 103c0 49 -29 83 -166 99zM238 597c0 16 12 28 28 28s28 -12 28 -28s-12 -28 -28 -28s-28 12 -28 28z" />
    <glyph glyph-name="Gcommaaccent" unicode="&#x122;" horiz-adv-x="628" 
d="M349 320v25h224v-110c0 -136 -77 -241 -248 -241c-202 0 -270 136 -270 336c0 207 81 351 276 351c115 0 223 -55 223 -166c0 -3 0 -8 -1 -14h-22c-1 74 -52 156 -204 156c-169 0 -245 -132 -245 -327c0 -215 84 -313 242 -313c189 0 222 140 222 222v81h-197zM294 -208
l34 96c-16 2 -29 15 -29 31c0 19 13 34 31 34c19 0 34 -12 34 -33c0 -2 -1 -11 -5 -19l-53 -113z" />
    <glyph glyph-name="gcommaaccent" unicode="&#x123;" horiz-adv-x="527" 
d="M295 709l-34 -92c19 -3 30 -15 30 -31c0 -18 -14 -32 -31 -32c-18 0 -32 12 -32 31c0 3 1 10 4 19l52 108zM257 486c20 0 53 -1 80 -8h145v-18c-16 -5 -62 -6 -88 -6v-4c43 -24 73 -69 73 -134c0 -99 -73 -169 -203 -169c-82 0 -120 23 -132 28c-36 -20 -49 -45 -49 -62
c0 -53 106 -55 209 -69c118 -15 190 -41 190 -121c0 -94 -107 -126 -235 -126c-149 0 -202 47 -202 117c0 57 41 101 88 127c-46 10 -76 32 -76 68c0 26 16 58 57 80c-35 28 -58 69 -58 125c0 105 85 172 201 172zM258 463c-106 0 -174 -60 -174 -148
c0 -82 49 -145 178 -145c113 0 178 55 178 147c0 60 -37 146 -182 146zM290 21l-123 14c-57 -27 -97 -68 -97 -121c0 -57 55 -95 181 -95c100 0 205 21 205 103c0 49 -29 83 -166 99z" />
    <glyph glyph-name="Hcircumflex" unicode="&#x124;" horiz-adv-x="628" 
d="M534 0v338h-442v-338h-27v675h27v-312h442v312h29v-675h-29zM455 728l-133 83l-133 -84c-1 2 -8 10 -11 13l134 101h25l129 -100z" />
    <glyph glyph-name="hcircumflex" unicode="&#x125;" horiz-adv-x="506" 
d="M84 386h4c30 63 93 100 178 100c158 0 182 -99 182 -214v-272h-28v272c0 97 -14 189 -157 189c-123 0 -176 -91 -176 -188v-273h-27v710h27v-230c0 -30 0 -61 -3 -94zM207 728l-133 83l-133 -84c-1 2 -8 10 -11 13l134 101h25l129 -100z" />
    <glyph glyph-name="Hbar" unicode="&#x126;" horiz-adv-x="628" 
d="M534 0v344h-442v-344h-27v542h-53v24h53v109h27v-109h442v109h29v-109h48v-24h-48v-542h-29zM92 369h442v173h-442v-173z" />
    <glyph glyph-name="hbar" unicode="&#x127;" horiz-adv-x="506" 
d="M84 386h4c30 63 93 100 178 100c158 0 182 -99 182 -214v-272h-28v272c0 97 -14 189 -157 189c-123 0 -176 -91 -176 -188v-273h-27v583h-48v24h48v103h27v-103h260v-24h-260v-103c0 -30 0 -61 -3 -94z" />
    <glyph glyph-name="Itilde" unicode="&#x128;" horiz-adv-x="197" 
d="M85 0v674h27v-674h-27zM164 770c28 0 43 9 63 42l18 -9c-18 -44 -51 -59 -82 -59c-44 0 -96 38 -130 38c-24 0 -40 -9 -60 -42l-19 9c17 41 50 59 81 59c44 0 98 -38 129 -38z" />
    <glyph glyph-name="itilde" unicode="&#x129;" horiz-adv-x="210" 
d="M92 0v478h27v-478h-27zM171 600c28 0 43 9 63 42l18 -9c-18 -44 -51 -59 -82 -59c-44 0 -96 38 -130 38c-24 0 -40 -9 -60 -42l-19 9c17 41 50 59 81 59c44 0 98 -38 129 -38z" />
    <glyph glyph-name="Imacron" unicode="&#x12a;" horiz-adv-x="197" 
d="M85 0v674h27v-674h-27zM-41 761v29h279v-29h-279z" />
    <glyph glyph-name="imacron" unicode="&#x12b;" horiz-adv-x="210" 
d="M92 0v478h27v-478h-27zM-33 574v26h279v-26h-279z" />
    <glyph glyph-name="Ibreve" unicode="&#x12c;" horiz-adv-x="271" 
d="M119 729c-96 0 -135 79 -135 132h25c-1 -39 27 -105 111 -105c81 0 111 69 111 105h23c-1 -54 -41 -132 -135 -132zM107 0v674h27v-674h-27z" />
    <glyph glyph-name="ibreve" unicode="&#x12d;" horiz-adv-x="210" 
d="M92 0v478h27v-478h-27zM105 548c-96 0 -135 79 -135 132h25c-1 -39 27 -105 111 -105c81 0 111 69 111 105h23c-1 -54 -41 -132 -135 -132z" />
    <glyph glyph-name="Iogonek" unicode="&#x12e;" horiz-adv-x="197" 
d="M-4 -132c0 37 22 94 89 143v663h27v-674h-21c-54 -51 -66 -94 -66 -122c0 -34 23 -53 66 -53c23 0 49 4 72 12l4 -13c-27 -13 -55 -21 -89 -21c-57 0 -82 28 -82 65z" />
    <glyph glyph-name="iogonek" unicode="&#x12f;" horiz-adv-x="210" 
d="M7 -134c0 36 21 92 85 140v472h27v-478h-15c-56 -51 -68 -95 -68 -124c0 -34 23 -53 66 -53c23 0 49 4 72 12l4 -13c-27 -13 -55 -21 -89 -21c-57 0 -82 28 -82 65zM80 650c0 15 9 24 25 24c15 0 25 -9 25 -24c0 -17 -10 -25 -25 -25c-16 0 -25 8 -25 25z" />
    <glyph glyph-name="Idotaccent" unicode="&#x130;" horiz-adv-x="197" 
d="M85 0v674h27v-674h-27zM69 767c0 16 12 28 28 28s28 -12 28 -28s-12 -28 -28 -28s-28 12 -28 28z" />
    <glyph glyph-name="IJ" unicode="&#x132;" horiz-adv-x="656" 
d="M65 0v674h27v-674h-27zM361 19c131 0 197 75 197 195v460h28v-466c0 -107 -61 -214 -224 -214c-129 0 -218 60 -218 171c0 3 0 8 1 14h24c1 -74 38 -160 192 -160z" />
    <glyph glyph-name="ij" unicode="&#x133;" horiz-adv-x="315" 
d="M72 0v478h27v-478h-27zM60 650c0 14 11 25 25 25s25 -11 25 -25s-11 -25 -25 -25s-25 11 -25 25zM158 -196h-22v23h23c46 0 57 28 57 86v565h26v-566c0 -71 -17 -108 -84 -108zM204 650c0 14 11 25 25 25s25 -11 25 -25s-11 -25 -25 -25s-25 11 -25 25z" />
    <glyph glyph-name="Jcircumflex" unicode="&#x134;" horiz-adv-x="532" 
d="M237 20c131 0 197 75 197 195v460h28v-466c0 -107 -61 -214 -224 -214c-129 0 -218 60 -218 171c0 3 0 8 1 14h24c1 -74 38 -160 192 -160zM582 730l-133 83l-133 -84c-1 2 -8 10 -11 13l134 101h25l129 -100z" />
    <glyph glyph-name="jcircumflex" unicode="&#x135;" horiz-adv-x="210" 
d="M35 -191h-22v23h23c46 0 57 28 57 86v560h26v-561c0 -71 -17 -108 -84 -108zM240 545l-133 101c-43 -35 -89 -68 -133 -102c-1 2 -8 8 -11 11c44 39 89 80 134 121h25c42 -40 87 -81 129 -120z" />
    <glyph glyph-name="Kcommaaccent" unicode="&#x136;" horiz-adv-x="521" 
d="M92 674v-311h137l240 311h33l-249 -322l258 -352h-36l-245 338h-138v-338h-27v674h27zM209 -181l34 96c-16 2 -29 15 -29 31c0 19 13 34 31 34c19 0 34 -12 34 -33c0 -2 -1 -11 -5 -19l-53 -113z" />
    <glyph glyph-name="kcommaaccent" unicode="&#x137;" horiz-adv-x="431" 
d="M379 478h32l-180 -218l190 -260h-34l-179 247h-121v-247h-27v711h27v-438h121zM185 -194l34 96c-16 2 -29 15 -29 31c0 19 13 34 31 34c19 0 34 -12 34 -33c0 -2 -1 -11 -5 -19l-53 -113z" />
    <glyph glyph-name="kgreenlandic" unicode="&#x138;" horiz-adv-x="431" 
d="M379 478h32l-180 -218l190 -260h-34l-179 247h-121v-247h-27v478h27v-205h121z" />
    <glyph glyph-name="Lacute" unicode="&#x139;" horiz-adv-x="511" 
d="M65 0v674h28v-649h408v-25h-436zM76 729l-9 13l132 99l21 -28z" />
    <glyph glyph-name="lacute" unicode="&#x13a;" horiz-adv-x="193" 
d="M75 710h26v-644c0 -44 20 -49 59 -48v-23c-15 -2 -10 -1 -25 -1c-57 0 -60 35 -60 78v638zM88 749l-9 13l132 99l21 -28z" />
    <glyph glyph-name="Lcommaaccent" unicode="&#x13b;" horiz-adv-x="511" 
d="M65 0v674h28v-649h408v-25h-436zM237 -208l34 96c-16 2 -29 15 -29 31c0 19 13 34 31 34c19 0 34 -12 34 -33c0 -2 -1 -11 -5 -19l-53 -113z" />
    <glyph glyph-name="lcommaaccent" unicode="&#x13c;" horiz-adv-x="193" 
d="M75 710h26v-644c0 -44 20 -49 59 -48v-23c-15 -2 -10 -1 -25 -1c-57 0 -60 35 -60 78v638zM66 -208l34 96c-16 2 -29 15 -29 31c0 19 13 34 31 34c19 0 34 -12 34 -33c0 -2 -1 -11 -5 -19l-53 -113z" />
    <glyph glyph-name="Lcaron" unicode="&#x13d;" horiz-adv-x="511" 
d="M65 0v674h28v-649h408v-25h-436zM299 526l34 96c-16 2 -29 15 -29 31c0 19 13 34 31 34c19 0 34 -12 34 -33c0 -2 -1 -11 -5 -19l-53 -113z" />
    <glyph glyph-name="lcaron" unicode="&#x13e;" horiz-adv-x="254" 
d="M184 565l34 96c-16 2 -29 15 -29 31c0 19 13 34 31 34c19 0 34 -12 34 -33c0 -2 -1 -11 -5 -19l-53 -113zM86 710h26v-644c0 -44 20 -49 59 -48v-23c-15 -2 -10 -1 -25 -1c-57 0 -60 35 -60 78v638z" />
    <glyph glyph-name="Ldot" unicode="&#x13f;" horiz-adv-x="511" 
d="M65 0v674h28v-649h408v-25h-436zM267 351c0 16 12 28 28 28s28 -12 28 -28s-12 -28 -28 -28s-28 12 -28 28z" />
    <glyph glyph-name="ldot" unicode="&#x140;" horiz-adv-x="252" 
d="M182 368c0 16 12 28 28 28s28 -12 28 -28s-12 -28 -28 -28s-28 12 -28 28zM86 710h26v-644c0 -44 20 -49 59 -48v-23c-15 -2 -10 -1 -25 -1c-57 0 -60 35 -60 78v638z" />
    <glyph glyph-name="Lslash" unicode="&#x141;" horiz-adv-x="511" 
d="M-15 227l-11 22l91 53v372h28v-356l144 84l12 -22l-156 -91v-264h408v-25h-436v273z" />
    <glyph glyph-name="lslash" unicode="&#x142;" horiz-adv-x="193" 
d="M75 710h26v-329l100 57l12 -22l-112 -64v-286c0 -44 20 -49 59 -48v-23c-15 -2 -10 -1 -25 -1c-57 0 -60 35 -60 78v265l-83 -47l-11 22l94 54v344z" />
    <glyph glyph-name="Nacute" unicode="&#x143;" horiz-adv-x="633" 
d="M98 620h-6v-620h-27v674h25l297 -414c50 -69 99 -139 147 -208h5v622h29v-674h-28l-318 441c-42 58 -84 118 -124 179zM307 717l-9 13l132 99l21 -28z" />
    <glyph glyph-name="nacute" unicode="&#x144;" horiz-adv-x="506" 
d="M60 0v478h21c8 -20 6 -45 6 -83h4c45 76 123 92 179 92c151 0 178 -98 178 -203v-284h-28v272c0 77 -6 190 -153 190c-119 0 -180 -92 -180 -189v-273h-27zM211 548l-13 10l102 131l32 -24z" />
    <glyph glyph-name="Ncommaaccent" unicode="&#x145;" horiz-adv-x="633" 
d="M98 620h-6v-620h-27v674h25l297 -414c50 -69 99 -139 147 -208h5v622h29v-674h-28l-318 441c-42 58 -84 118 -124 179zM268 -183l34 96c-16 2 -29 15 -29 31c0 19 13 34 31 34c19 0 34 -12 34 -33c0 -2 -1 -11 -5 -19l-53 -113z" />
    <glyph glyph-name="ncommaaccent" unicode="&#x146;" horiz-adv-x="506" 
d="M60 0v478h21c8 -20 6 -45 6 -83h4c45 76 123 92 179 92c151 0 178 -98 178 -203v-284h-28v272c0 77 -6 190 -153 190c-119 0 -180 -92 -180 -189v-273h-27zM226 -186l34 96c-16 2 -29 15 -29 31c0 19 13 34 31 34c19 0 34 -12 34 -33c0 -2 -1 -11 -5 -19l-53 -113z" />
    <glyph glyph-name="Ncaron" unicode="&#x147;" horiz-adv-x="633" 
d="M98 620h-6v-620h-27v674h25l297 -414c50 -69 99 -139 147 -208h5v622h29v-674h-28l-318 441c-42 58 -84 118 -124 179zM315 756l133 83l11 -13l-129 -100h-25l-134 101c3 3 10 11 11 13z" />
    <glyph glyph-name="ncaron" unicode="&#x148;" horiz-adv-x="506" 
d="M60 0v478h21c8 -20 6 -45 6 -83h4c45 76 123 92 179 92c151 0 178 -98 178 -203v-284h-28v272c0 77 -6 190 -153 190c-119 0 -180 -92 -180 -189v-273h-27zM248 577l133 101l11 -11c-42 -39 -87 -80 -129 -120h-25c-45 41 -90 82 -134 121c3 3 10 9 11 11
c44 -34 90 -67 133 -102z" />
    <glyph glyph-name="napostrophe" unicode="&#x149;" horiz-adv-x="539" 
d="M93 0v478h21c8 -20 6 -45 6 -83h4c45 76 123 92 179 92c151 0 178 -98 178 -203v-284h-28v272c0 77 -6 190 -153 190c-119 0 -180 -92 -180 -189v-273h-27zM0 495l34 96c-16 2 -29 15 -29 31c0 19 13 34 31 34c19 0 34 -12 34 -33c0 -2 -1 -11 -5 -19l-53 -113z" />
    <glyph glyph-name="Eng" unicode="&#x14a;" horiz-adv-x="633" 
d="M98 619h-6v-619h-27v674h25l297 -412c50 -69 99 -139 147 -208h5v620h29v-779c0 -58 -34 -81 -84 -81c-16 0 -34 2 -54 7l7 23c15 -3 29 -4 41 -4c40 0 63 16 63 62v98l-319 440c-42 58 -84 118 -124 179z" />
    <glyph glyph-name="eng" unicode="&#x14b;" horiz-adv-x="506" 
d="M60 0v478h21c8 -20 6 -45 6 -83h4c45 76 115 91 171 91c162 0 186 -99 186 -214l-1 -377c0 -58 -34 -81 -84 -81c-16 0 -34 2 -54 7l7 23c15 -3 29 -4 41 -4c40 0 63 16 63 62v370c0 97 -14 189 -161 189c-119 0 -172 -91 -172 -188v-273h-27z" />
    <glyph glyph-name="Omacron" unicode="&#x14c;" horiz-adv-x="658" 
d="M332 681c218 0 271 -166 271 -350c0 -171 -59 -337 -280 -337c-210 0 -268 136 -268 336c0 207 71 351 277 351zM330 657c-184 0 -248 -132 -248 -327c0 -215 77 -313 240 -313c161 0 251 98 251 314c0 194 -60 326 -243 326zM188 761v29h279v-29h-279z" />
    <glyph glyph-name="omacron" unicode="&#x14d;" horiz-adv-x="521" 
d="M263 486c165 0 208 -121 208 -249c0 -126 -47 -245 -209 -245c-161 0 -212 92 -212 241c0 145 58 253 213 253zM263 463c-135 0 -185 -98 -185 -230c0 -146 51 -218 185 -218c114 0 180 69 180 222c0 128 -45 226 -180 226zM124 574v26h279v-26h-279z" />
    <glyph glyph-name="Obreve" unicode="&#x14e;" horiz-adv-x="658" 
d="M332 681c218 0 271 -166 271 -350c0 -171 -59 -337 -280 -337c-210 0 -268 136 -268 336c0 207 71 351 277 351zM330 657c-184 0 -248 -132 -248 -327c0 -215 77 -313 240 -313c161 0 251 98 251 314c0 194 -60 326 -243 326zM325 729c-96 0 -135 79 -135 132h25
c-1 -39 27 -105 111 -105c81 0 111 69 111 105h23c-1 -54 -41 -132 -135 -132z" />
    <glyph glyph-name="obreve" unicode="&#x14f;" horiz-adv-x="521" 
d="M263 486c165 0 208 -121 208 -249c0 -126 -47 -245 -209 -245c-161 0 -212 92 -212 241c0 145 58 253 213 253zM263 463c-135 0 -185 -98 -185 -230c0 -146 51 -218 185 -218c114 0 180 69 180 222c0 128 -45 226 -180 226zM251 548c-96 0 -135 79 -135 132h25
c-1 -39 27 -105 111 -105c81 0 111 69 111 105h23c-1 -54 -41 -132 -135 -132z" />
    <glyph glyph-name="Ohungarumlaut" unicode="&#x150;" horiz-adv-x="658" 
d="M332 681c218 0 271 -166 271 -350c0 -171 -59 -337 -280 -337c-210 0 -268 136 -268 336c0 207 71 351 277 351zM330 657c-184 0 -248 -132 -248 -327c0 -215 77 -313 240 -313c161 0 251 98 251 314c0 194 -60 326 -243 326zM248 731l-9 13l132 99l23 -28zM368 731
l-9 13l132 99l25 -27z" />
    <glyph glyph-name="ohungarumlaut" unicode="&#x151;" horiz-adv-x="521" 
d="M263 486c165 0 208 -121 208 -249c0 -126 -47 -245 -209 -245c-161 0 -212 92 -212 241c0 145 58 253 213 253zM263 463c-135 0 -185 -98 -185 -230c0 -146 51 -218 185 -218c114 0 180 69 180 222c0 128 -45 226 -180 226zM201 548l-13 10l102 131l32 -24zM303 548
l-13 10l102 131l32 -24z" />
    <glyph glyph-name="Racute" unicode="&#x154;" horiz-adv-x="554" 
d="M315 289h-23l219 -289h-33l-220 289h-165v-289h-28v674h248c143 0 216 -79 216 -195c0 -78 -42 -190 -214 -190zM309 649h-216v-333h216c93 0 190 31 190 163c0 115 -80 170 -190 170zM231 729l-9 13l132 99l21 -28z" />
    <glyph glyph-name="racute" unicode="&#x155;" horiz-adv-x="286" 
d="M102 0h-27v478h21c6 -22 6 -56 6 -94h4c24 60 87 103 169 104l3 -31c-154 -10 -176 -97 -176 -194v-263zM100 548l-13 10l102 131l32 -24z" />
    <glyph glyph-name="Rcommaaccent" unicode="&#x156;" horiz-adv-x="554" 
d="M315 289h-23l219 -289h-33l-220 289h-165v-289h-28v674h248c143 0 216 -79 216 -195c0 -78 -42 -190 -214 -190zM309 649h-216v-333h216c93 0 190 31 190 163c0 115 -80 170 -190 170zM229 -173l34 96c-16 2 -29 15 -29 31c0 19 13 34 31 34c19 0 34 -12 34 -33
c0 -2 -1 -11 -5 -19l-53 -113z" />
    <glyph glyph-name="rcommaaccent" unicode="&#x157;" horiz-adv-x="286" 
d="M102 0h-27v478h21c6 -22 6 -56 6 -94h4c24 60 87 103 169 104l3 -31c-154 -10 -176 -97 -176 -194v-263zM51 -201l34 96c-16 2 -29 15 -29 31c0 19 13 34 31 34c19 0 34 -12 34 -33c0 -2 -1 -11 -5 -19l-53 -113z" />
    <glyph glyph-name="Rcaron" unicode="&#x158;" horiz-adv-x="554" 
d="M315 289h-23l219 -289h-33l-220 289h-165v-289h-28v674h248c143 0 216 -79 216 -195c0 -78 -42 -190 -214 -190zM309 649h-216v-333h216c93 0 190 31 190 163c0 115 -80 170 -190 170zM270 756l133 83l11 -13l-129 -100h-25l-134 101c3 3 10 11 11 13z" />
    <glyph glyph-name="rcaron" unicode="&#x159;" horiz-adv-x="286" 
d="M102 0h-27v478h21c6 -22 6 -56 6 -94h4c24 60 87 103 169 104l3 -31c-154 -10 -176 -97 -176 -194v-263zM128 577l133 101l11 -11c-42 -39 -87 -80 -129 -120h-25c-45 41 -90 82 -134 121c3 3 10 9 11 11c44 -34 90 -67 133 -102z" />
    <glyph glyph-name="Sacute" unicode="&#x15a;" horiz-adv-x="591" 
d="M292 -6c-152 0 -237 67 -237 193c0 5 0 11 1 17h25c0 -89 37 -185 209 -185c162 0 219 84 219 157c0 100 -66 150 -206 169c-125 17 -231 37 -231 160c0 88 62 177 229 177c119 0 225 -52 225 -178c0 -4 -1 -10 -2 -14h-24c0 85 -53 166 -198 166
c-134 0 -199 -70 -199 -146c0 -108 85 -119 226 -141c116 -18 209 -66 209 -186c0 -92 -63 -189 -246 -189zM273 729l-9 13l132 99l21 -28z" />
    <glyph glyph-name="sacute" unicode="&#x15b;" horiz-adv-x="457" 
d="M223 15c117 0 159 57 159 108c0 70 -52 101 -151 113c-86 10 -172 30 -172 120c0 69 47 130 170 130c85 0 166 -36 166 -124c0 -3 0 -7 -1 -12h-21c-1 54 -33 113 -145 113c-96 0 -141 -48 -141 -101c0 -78 60 -89 162 -103c87 -12 160 -43 160 -131
c0 -69 -50 -136 -184 -136c-102 0 -180 43 -180 141c0 3 0 7 1 12h21c1 -60 32 -130 156 -130zM217 548l-13 10l102 131l32 -24z" />
    <glyph glyph-name="Scircumflex" unicode="&#x15c;" horiz-adv-x="591" 
d="M292 -6c-152 0 -237 67 -237 193c0 5 0 11 1 17h25c0 -89 37 -185 209 -185c162 0 219 84 219 157c0 100 -66 150 -206 169c-125 17 -231 37 -231 160c0 88 62 177 229 177c119 0 225 -52 225 -178c0 -4 -1 -10 -2 -14h-24c0 85 -53 166 -198 166
c-134 0 -199 -70 -199 -146c0 -108 85 -119 226 -141c116 -18 209 -66 209 -186c0 -92 -63 -189 -246 -189zM424 728l-133 83l-133 -84c-1 2 -8 10 -11 13l134 101h25l129 -100z" />
    <glyph glyph-name="scircumflex" unicode="&#x15d;" horiz-adv-x="457" 
d="M223 15c117 0 159 57 159 108c0 70 -52 101 -151 113c-86 10 -172 30 -172 120c0 69 47 130 170 130c85 0 166 -36 166 -124c0 -3 0 -7 -1 -12h-21c-1 54 -33 113 -145 113c-96 0 -141 -48 -141 -101c0 -78 60 -89 162 -103c87 -12 160 -43 160 -131
c0 -69 -50 -136 -184 -136c-102 0 -180 43 -180 141c0 3 0 7 1 12h21c1 -60 32 -130 156 -130zM359 545l-133 101c-43 -35 -89 -68 -133 -102c-1 2 -8 8 -11 11c44 39 89 80 134 121h25c42 -40 87 -81 129 -120z" />
    <glyph glyph-name="Scedilla" unicode="&#x15e;" horiz-adv-x="591" 
d="M258 -75l38 69c-156 0 -251 67 -251 193c0 5 0 11 1 17h25c0 -89 47 -185 219 -185c169 0 227 84 227 157c0 100 -74 150 -214 169c-125 17 -235 37 -235 160c0 88 66 177 233 177c119 0 231 -52 231 -178c0 -4 -1 -10 -2 -14h-24c0 85 -59 166 -204 166
c-141 0 -203 -70 -203 -146c0 -108 89 -119 230 -141c116 -18 217 -66 217 -186c0 -90 -64 -179 -226 -188l-30 -54c9 1 18 2 26 2c64 0 84 -44 84 -69c0 -40 -30 -73 -93 -74c-28 0 -54 5 -80 16l8 19c29 -11 55 -14 70 -14c27 0 67 13 67 51c0 31 -28 49 -63 49
c-10 0 -21 -1 -34 -6z" />
    <glyph glyph-name="scedilla" unicode="&#x15f;" horiz-adv-x="457" 
d="M229 -203c-28 0 -54 5 -80 16l8 19c29 -11 55 -14 70 -14c27 0 67 13 67 51c0 31 -28 49 -63 49c-10 0 -21 -1 -34 -6l-17 10l39 70c-99 2 -174 45 -174 141c0 3 0 7 1 12h21c1 -60 32 -130 156 -130c117 0 159 57 159 108c0 70 -52 101 -151 113
c-86 10 -172 30 -172 120c0 69 47 130 170 130c85 0 166 -36 166 -124c0 -3 0 -7 -1 -12h-21c-1 54 -33 113 -145 113c-96 0 -141 -48 -141 -101c0 -78 60 -89 162 -103c87 -12 160 -43 160 -131c0 -66 -46 -129 -166 -135l-31 -55c9 1 18 2 26 2c64 0 84 -44 84 -69
c0 -40 -30 -73 -93 -74z" />
    <glyph glyph-name="Tcommaaccent" unicode="&#x162;" horiz-adv-x="534" 
d="M283 649v-649h-28v649h-240v25h504v-25h-236zM234 -207l34 96c-16 2 -29 15 -29 31c0 19 13 34 31 34c19 0 34 -12 34 -33c0 -2 -1 -11 -5 -19l-53 -113z" />
    <glyph glyph-name="tcommaaccent" unicode="&#x163;" horiz-adv-x="313" 
d="M129 596v-118h148v-24h-148v-310c0 -99 43 -127 117 -127c17 0 36 1 57 4v-23c-24 -3 -45 -4 -64 -4c-93 0 -137 36 -137 156v304h-82v18l82 7l10 117h17zM112 -208l34 96c-16 2 -29 15 -29 31c0 19 13 34 31 34c19 0 34 -12 34 -33c0 -2 -1 -11 -5 -19l-53 -113z" />
    <glyph glyph-name="Tcaron" unicode="&#x164;" horiz-adv-x="534" 
d="M283 649v-649h-28v649h-240v25h504v-25h-236zM270 756l133 83l11 -13l-129 -100h-25l-134 101c3 3 10 11 11 13z" />
    <glyph glyph-name="tcaron" unicode="&#x165;" horiz-adv-x="332" 
d="M250 543l34 96c-16 2 -29 15 -29 31c0 19 13 34 31 34c19 0 34 -12 34 -33c0 -2 -1 -11 -5 -19l-53 -113zM143 596v-118h148v-24h-148v-310c0 -99 43 -127 117 -127c17 0 36 1 57 4v-23c-24 -3 -45 -4 -64 -4c-93 0 -137 36 -137 156v304h-82v18l82 7l10 117h17z" />
    <glyph glyph-name="Tbar" unicode="&#x166;" horiz-adv-x="534" 
d="M283 649v-250h185v-24h-185v-375h-28v375h-192v24h192v250h-240v25h504v-25h-236z" />
    <glyph glyph-name="tbar" unicode="&#x167;" horiz-adv-x="313" 
d="M129 596v-118h148v-24h-148v-145h140v-24h-140v-141c0 -99 43 -127 117 -127c17 0 36 1 57 4v-23c-24 -3 -45 -4 -64 -4c-93 0 -137 36 -137 156v135h-74v24h74v145h-82v18l82 7l10 117h17z" />
    <glyph glyph-name="Utilde" unicode="&#x168;" horiz-adv-x="637" 
d="M572 674v-404c0 -161 -59 -277 -252 -277c-199 0 -255 105 -255 276v405h27v-405c0 -193 82 -251 229 -251c137 0 222 65 222 252v404h29zM387 762c28 0 43 9 63 42l18 -9c-18 -44 -51 -59 -82 -59c-44 0 -96 38 -130 38c-24 0 -40 -9 -60 -42l-19 9c17 41 50 59 81 59
c44 0 98 -38 129 -38z" />
    <glyph glyph-name="utilde" unicode="&#x169;" horiz-adv-x="496" 
d="M436 478v-478h-21c-8 20 -6 47 -6 85h-4c-45 -76 -116 -93 -166 -93c-157 0 -181 99 -181 214v272h28v-272c0 -97 17 -189 156 -189c111 0 167 91 167 188v273h27zM315 600c28 0 43 9 63 42l18 -9c-18 -44 -51 -59 -82 -59c-44 0 -96 38 -130 38c-24 0 -40 -9 -60 -42
l-19 9c17 41 50 59 81 59c44 0 98 -38 129 -38z" />
    <glyph glyph-name="Umacron" unicode="&#x16a;" horiz-adv-x="637" 
d="M572 674v-404c0 -161 -59 -277 -252 -277c-199 0 -255 105 -255 276v405h27v-405c0 -193 82 -251 229 -251c137 0 222 65 222 252v404h29zM178 752v29h279v-29h-279z" />
    <glyph glyph-name="umacron" unicode="&#x16b;" horiz-adv-x="496" 
d="M436 478v-478h-21c-8 20 -6 47 -6 85h-4c-45 -76 -116 -93 -166 -93c-157 0 -181 99 -181 214v272h28v-272c0 -97 17 -189 156 -189c111 0 167 91 167 188v273h27zM108 574v26h279v-26h-279z" />
    <glyph glyph-name="Ubreve" unicode="&#x16c;" horiz-adv-x="637" 
d="M572 674v-404c0 -161 -59 -277 -252 -277c-199 0 -255 105 -255 276v405h27v-405c0 -193 82 -251 229 -251c137 0 222 65 222 252v404h29zM324 713c-96 0 -135 79 -135 132h25c-1 -39 27 -105 111 -105c81 0 111 69 111 105h23c-1 -54 -41 -132 -135 -132z" />
    <glyph glyph-name="ubreve" unicode="&#x16d;" horiz-adv-x="496" 
d="M436 478v-478h-21c-8 20 -6 47 -6 85h-4c-45 -76 -116 -93 -166 -93c-157 0 -181 99 -181 214v272h28v-272c0 -97 17 -189 156 -189c111 0 167 91 167 188v273h27zM243 548c-96 0 -135 79 -135 132h25c-1 -39 27 -105 111 -105c81 0 111 69 111 105h23
c-1 -54 -41 -132 -135 -132z" />
    <glyph glyph-name="Uring" unicode="&#x16e;" horiz-adv-x="637" 
d="M572 674v-404c0 -161 -59 -277 -252 -277c-199 0 -255 105 -255 276v405h27v-405c0 -193 82 -251 229 -251c137 0 222 65 222 252v404h29zM323 698c-47 0 -87 40 -87 86s40 85 87 85c49 0 87 -39 87 -85s-39 -86 -87 -86zM323 850c-36 0 -64 -30 -64 -66
c0 -35 28 -66 64 -66c38 0 66 31 66 66s-28 66 -66 66z" />
    <glyph glyph-name="uring" unicode="&#x16f;" horiz-adv-x="496" 
d="M436 478v-478h-21c-8 20 -6 47 -6 85h-4c-45 -76 -116 -93 -166 -93c-157 0 -181 99 -181 214v272h28v-272c0 -97 17 -189 156 -189c111 0 167 91 167 188v273h27zM245 532c-47 0 -87 40 -87 86s40 85 87 85c49 0 87 -39 87 -85s-39 -86 -87 -86zM245 684
c-36 0 -64 -30 -64 -66c0 -35 28 -66 64 -66c38 0 66 31 66 66s-28 66 -66 66z" />
    <glyph glyph-name="Uhungarumlaut" unicode="&#x170;" horiz-adv-x="637" 
d="M572 674v-404c0 -161 -59 -277 -252 -277c-199 0 -255 105 -255 276v405h27v-405c0 -193 82 -251 229 -251c137 0 222 65 222 252v404h29zM227 731l-9 13l132 99l23 -28zM347 731l-9 13l132 99l25 -27z" />
    <glyph glyph-name="uhungarumlaut" unicode="&#x171;" horiz-adv-x="496" 
d="M436 478v-478h-21c-8 20 -6 47 -6 85h-4c-45 -76 -116 -93 -166 -93c-157 0 -181 99 -181 214v272h28v-272c0 -97 17 -189 156 -189c111 0 167 91 167 188v273h27zM175 548l-13 10l102 131l32 -24zM277 548l-13 10l102 131l32 -24z" />
    <glyph glyph-name="Uogonek" unicode="&#x172;" horiz-adv-x="637" 
d="M572 674v-404c0 -160 -58 -275 -247 -277c-50 -48 -61 -90 -61 -117c0 -34 23 -53 66 -53c23 0 49 4 72 12l4 -13c-27 -13 -55 -21 -89 -21c-57 0 -82 28 -82 65c0 33 17 82 69 127c-186 6 -239 109 -239 276v405h27v-405c0 -193 82 -251 229 -251c137 0 222 65 222 252
v404h29z" />
    <glyph glyph-name="uogonek" unicode="&#x173;" horiz-adv-x="496" 
d="M436 478v-478h-15c-53 -50 -65 -93 -65 -121c0 -34 23 -53 66 -53c23 0 49 4 72 12l4 -13c-27 -13 -55 -21 -89 -21c-57 0 -82 28 -82 65c0 36 21 92 85 140c-5 19 -3 43 -3 76h-4c-45 -76 -116 -93 -166 -93c-157 0 -181 99 -181 214v272h28v-272
c0 -97 17 -189 156 -189c111 0 167 91 167 188v273h27z" />
    <glyph glyph-name="Wcircumflex" unicode="&#x174;" horiz-adv-x="839" 
d="M421 629h-4c-21 -77 -44 -157 -67 -233l-120 -396h-36l-184 674h31l100 -375c23 -88 46 -176 70 -262h4c28 92 53 181 79 268l110 369h32l104 -345c29 -96 56 -187 85 -292h4l78 291l92 346h30l-183 -674h-36l-117 387zM551 728l-133 83l-133 -84c-1 2 -8 10 -11 13
l134 101h25l129 -100z" />
    <glyph glyph-name="wcircumflex" unicode="&#x175;" horiz-adv-x="669" 
d="M334 447h-4c-22 -75 -48 -159 -76 -245l-67 -204h-34l-145 480h28l59 -196c25 -83 50 -168 73 -253h4c27 88 51 171 77 250l65 199h37l65 -201c27 -85 52 -172 77 -249h4c24 87 49 172 73 254l59 196h28l-145 -480h-34l-66 200c-29 87 -54 170 -78 249zM467 545l-133 101
c-43 -35 -89 -68 -133 -102c-1 2 -8 8 -11 11c44 39 89 80 134 121h25c42 -40 87 -81 129 -120z" />
    <glyph glyph-name="Ycircumflex" unicode="&#x176;" horiz-adv-x="512" 
d="M248 306h7l100 172l114 196h33l-236 -402v-272h-29v271l-227 403h32l107 -188c33 -59 67 -119 99 -180zM389 725l-133 83l-133 -84c-1 2 -8 10 -11 13l134 101h25l129 -100z" />
    <glyph glyph-name="ycircumflex" unicode="&#x177;" horiz-adv-x="409" 
d="M204 27h7c20 69 52 155 79 233l75 217h29l-180 -530c-25 -75 -40 -143 -141 -143h-53v24h50c58 0 82 23 103 82l30 88l-18 -2c-26 81 -56 152 -80 217l-98 264h29l77 -202c27 -71 64 -169 91 -248zM343 548l-133 101c-43 -35 -89 -68 -133 -102c-1 2 -8 8 -11 11
c44 39 89 80 134 121h25c42 -40 87 -81 129 -120z" />
    <glyph glyph-name="Zacute" unicode="&#x179;" horiz-adv-x="529" 
d="M25 0v26l434 624h-419v25h454v-24l-435 -626h445v-25h-479zM258 729l-9 13l132 99l21 -28z" />
    <glyph glyph-name="zacute" unicode="&#x17a;" horiz-adv-x="409" 
d="M15 0v22l331 431h-304v25h337v-25l-329 -430h329v-23h-364zM185 548l-13 10l102 131l32 -24z" />
    <glyph glyph-name="Zdotaccent" unicode="&#x17b;" horiz-adv-x="529" 
d="M25 0v26l434 624h-419v25h454v-24l-435 -626h445v-25h-479zM245 767c0 16 12 28 28 28s28 -12 28 -28s-12 -28 -28 -28s-28 12 -28 28z" />
    <glyph glyph-name="zdotaccent" unicode="&#x17c;" horiz-adv-x="409" 
d="M15 0v22l331 431h-304v25h337v-25l-329 -430h329v-23h-364zM188 597c0 16 12 28 28 28s28 -12 28 -28s-12 -28 -28 -28s-28 12 -28 28z" />
    <glyph glyph-name="AEacute" unicode="&#x1fc;" horiz-adv-x="927" 
d="M479 252h-266l-171 -252h-33l456 674h425v-24h-381v-307h348v-24h-348v-294h390v-25h-420v252zM480 642l-5 1l-244 -364h248zM585 729l-9 13l132 99l21 -28z" />
    <glyph glyph-name="aeacute" unicode="&#x1fd;" horiz-adv-x="831" 
d="M593 15c131 0 158 76 159 130h21c1 -5 1 -9 1 -12c0 -91 -81 -141 -183 -141c-105 0 -158 46 -183 109c-72 -103 -160 -109 -218 -109c-83 0 -155 36 -155 130c0 85 53 143 205 143h145v49c0 56 -16 148 -152 148c-112 0 -147 -64 -148 -118h-21c-1 5 -1 9 -1 12
c0 97 99 130 169 130c107 0 160 -51 174 -122c27 73 85 122 185 122c142 0 185 -93 185 -203c0 -14 -1 -28 -2 -42h-361c0 -156 60 -226 180 -226zM189 14c136 0 183 73 208 114c-9 37 -13 63 -12 112h-146c-130 0 -177 -45 -177 -118c0 -60 39 -108 127 -108zM591 462
c-127 0 -170 -95 -175 -198h335c0 106 -28 198 -160 198zM417 548l-13 10l102 131l32 -24z" />
    <glyph glyph-name="Oslashacute" unicode="&#x1fe;" horiz-adv-x="658" 
d="M326 729l-9 13l132 99l21 -28zM332 681c87 0 147 -26 189 -70l58 78l19 -14l-62 -82c51 -65 67 -161 67 -262c0 -171 -59 -337 -280 -337c-88 0 -149 23 -190 65l-59 -78l-19 12l63 83c-47 60 -63 148 -63 254c0 207 71 351 277 351zM330 657c-184 0 -248 -132 -248 -327
c0 -103 17 -179 53 -230l368 488c-38 44 -94 69 -173 69zM573 331c0 98 -16 181 -55 238l-368 -487c39 -44 96 -65 172 -65c161 0 251 98 251 314z" />
    <glyph glyph-name="oslashacute" unicode="&#x1ff;" horiz-adv-x="521" 
d="M253 548l-13 10l102 131l32 -24zM263 486c66 0 112 -20 144 -51l45 53l20 -15l-48 -57c35 -47 47 -112 47 -179c0 -126 -47 -245 -209 -245c-70 0 -119 17 -153 49l-42 -50l-18 13l45 54c-32 42 -44 101 -44 175c0 145 58 253 213 253zM443 237c0 62 -11 117 -37 157
l-279 -332c29 -32 74 -47 136 -47c114 0 180 69 180 222zM263 463c-135 0 -185 -98 -185 -230c0 -66 10 -117 34 -153l278 334c-28 31 -70 49 -127 49z" />
    <glyph glyph-name="Aring" unicode="&#xc5;" horiz-adv-x="566" 
d="M525 0l-71 187h-344l-71 -187h-29l255 674h33l258 -674h-31zM285 637h-7c-22 -65 -46 -130 -70 -192l-89 -232h327l-90 232c-25 64 -47 128 -71 192zM280 705c-47 0 -87 40 -87 86s40 85 87 85c49 0 87 -39 87 -85s-39 -86 -87 -86zM280 857c-36 0 -64 -30 -64 -66
c0 -35 28 -66 64 -66c38 0 66 31 66 66s-28 66 -66 66z" />
    <glyph glyph-name="Ccedilla" unicode="&#xc7;" horiz-adv-x="581" 
d="M318 18c160 0 209 93 210 171h22c1 -7 1 -11 1 -15c0 -104 -87 -173 -211 -179l-31 -54c9 1 18 2 26 2c64 0 84 -44 84 -69c0 -40 -30 -73 -93 -74c-28 0 -54 5 -80 16l8 19c29 -11 55 -14 70 -14c27 0 67 13 67 51c0 31 -28 49 -63 49c-10 0 -21 -1 -34 -6l-17 10l38 69
c-199 2 -260 137 -260 336c0 207 74 351 269 351c115 0 214 -55 214 -166c0 -3 0 -8 -1 -14h-21c-1 74 -50 155 -196 155c-169 0 -238 -131 -238 -326c0 -215 78 -312 236 -312z" />
    <glyph glyph-name="cent" unicode="&#xa2;" horiz-adv-x="572" 
d="M286 570v107h24v-106c83 -2 163 -40 163 -129c0 -3 0 -7 -1 -12h-21c-1 53 -35 115 -141 118v-448c119 2 149 77 150 130h21c1 -5 1 -9 1 -12c0 -89 -74 -139 -172 -141v-126h-24v126c-137 5 -191 85 -191 242c0 127 49 242 191 251zM123 321c0 -159 60 -215 163 -221
v447c-113 -8 -163 -99 -163 -226z" />
    <glyph glyph-name="florin" unicode="&#x192;" horiz-adv-x="468" 
d="M131 368v25h89l6 46c21 168 62 221 140 221c20 0 46 -3 69 -10l-7 -25c-14 5 -41 9 -63 9c-71 0 -96 -70 -112 -194l-6 -47h104v-25h-108l-28 -219c-30 -236 -94 -247 -143 -247c-19 0 -32 3 -58 11l8 24c22 -6 31 -8 52 -8c62 0 91 56 113 223l28 216h-84z" />
    <glyph glyph-name="uni1FBD" unicode="&#x1fbd;" horiz-adv-x="501" 
d="M275 534l-14 10c21 28 37 61 37 86c0 29 -14 50 -59 69l7 31c55 -17 80 -50 80 -89c0 -33 -18 -70 -51 -107z" />
    <glyph glyph-name="uni1FBE" unicode="&#x1fbe;" horiz-adv-x="535" 
d="M267 -61h26v-99c0 -61 19 -60 82 -60v-23c-18 -3 -32 -3 -41 -3c-46 0 -67 17 -67 77v108z" />
    <glyph glyph-name="uni1FC1" unicode="&#x1fc1;" horiz-adv-x="535" 
d="M353 696c28 0 43 9 63 42l18 -9c-18 -44 -51 -59 -82 -59c-44 0 -96 38 -130 38c-24 0 -40 -9 -60 -42l-19 9c17 41 50 59 81 59c44 0 98 -38 129 -38zM194 592c0 13 10 24 23 24s24 -11 24 -24s-11 -23 -24 -23s-23 10 -23 23zM347 592c0 13 10 24 23 24s24 -11 24 -24
s-11 -23 -24 -23s-23 10 -23 23z" />
    <glyph glyph-name="uni1FCD" unicode="&#x1fcd;" horiz-adv-x="535" 
d="M190 534l-14 10c21 28 37 61 37 86c0 29 -14 50 -59 69l7 31c55 -17 80 -50 80 -89c0 -33 -18 -70 -51 -107zM385 547l-15 -7l-102 177l37 15z" />
    <glyph glyph-name="uni1FCE" unicode="&#x1fce;" horiz-adv-x="535" 
d="M314 538l-15 7l80 185l37 -15zM226 539l-14 10c21 28 37 61 37 86c0 29 -14 50 -59 69l7 31c55 -17 80 -50 80 -89c0 -33 -18 -70 -51 -107z" />
    <glyph glyph-name="uni1FCF" unicode="&#x1fcf;" horiz-adv-x="535" 
d="M266 539l-14 9c21 25 38 54 38 76c0 26 -14 45 -60 61l7 28c56 -15 81 -44 81 -79c0 -29 -18 -62 -52 -95zM333 765c28 0 43 9 63 42l18 -9c-18 -44 -51 -59 -82 -59c-44 0 -96 38 -130 38c-24 0 -40 -9 -60 -42l-19 9c17 41 50 59 81 59c44 0 98 -38 129 -38z" />
    <glyph glyph-name="uni1FDD" unicode="&#x1fdd;" horiz-adv-x="535" 
d="M381 547l-15 -7l-102 177l37 15zM223 541l-14 -10c-33 37 -51 74 -51 107c0 39 25 72 80 89l7 -31c-45 -19 -59 -40 -59 -69c0 -25 16 -58 37 -86z" />
    <glyph glyph-name="uni1FDE" unicode="&#x1fde;" horiz-adv-x="535" 
d="M319 540l-15 7l80 185l37 -15zM267 547l-14 -10c-33 37 -51 74 -51 107c0 39 25 72 80 89l7 -31c-45 -19 -59 -40 -59 -69c0 -25 16 -58 37 -86z" />
    <glyph glyph-name="uni1FDF" unicode="&#x1fdf;" horiz-adv-x="535" 
d="M286 548l-14 -9c-34 33 -52 66 -52 95c0 35 25 64 81 79l7 -28c-46 -16 -60 -35 -60 -61c0 -22 17 -51 38 -76zM332 776c28 0 43 9 63 42l18 -9c-18 -44 -51 -59 -82 -59c-44 0 -96 38 -130 38c-24 0 -40 -9 -60 -42l-19 9c17 41 50 59 81 59c44 0 98 -38 129 -38z" />
    <glyph glyph-name="uni1FED" unicode="&#x1fed;" horiz-adv-x="535" 
d="M304 547l-15 -7l-102 177l37 15zM329 592c0 13 10 24 23 24s24 -11 24 -24s-11 -23 -24 -23s-23 10 -23 23zM166 592c0 13 10 24 23 24s24 -11 24 -24s-11 -23 -24 -23s-23 10 -23 23z" />
    <glyph glyph-name="uni1FEE" unicode="&#x1fee;" horiz-adv-x="535" 
d="M261 540l-15 7l80 185l37 -15zM342 592c0 13 10 24 23 24s24 -11 24 -24s-11 -23 -24 -23s-23 10 -23 23zM179 592c0 13 10 24 23 24s24 -11 24 -24s-11 -23 -24 -23s-23 10 -23 23z" />
    <glyph glyph-name="uni1FFE" unicode="&#x1ffe;" horiz-adv-x="535" 
d="M310 544l-14 -10c-33 37 -51 74 -51 107c0 39 25 72 80 89l7 -31c-45 -19 -59 -40 -59 -69c0 -25 16 -58 37 -86z" />
    <glyph glyph-name="uni1F00" unicode="&#x1f00;" horiz-adv-x="515" 
d="M254 16c123 0 174 109 174 196v70c0 108 -60 181 -171 181c-123 0 -179 -85 -179 -228c0 -131 40 -219 176 -219zM455 478v-478h-21c-7 19 -6 55 -6 93h-4c-43 -74 -103 -101 -173 -101c-154 0 -201 102 -201 243c0 142 62 251 207 251c76 0 133 -25 167 -84h4
c0 34 0 59 6 76h21zM256 534l-14 10c21 28 37 61 37 86c0 29 -14 50 -59 69l7 31c55 -17 80 -50 80 -89c0 -33 -18 -70 -51 -107z" />
    <glyph glyph-name="uni1F01" unicode="&#x1f01;" horiz-adv-x="515" 
d="M254 16c123 0 174 109 174 196v70c0 108 -60 181 -171 181c-123 0 -179 -85 -179 -228c0 -131 40 -219 176 -219zM455 478v-478h-21c-7 19 -6 55 -6 93h-4c-43 -74 -103 -101 -173 -101c-154 0 -201 102 -201 243c0 142 62 251 207 251c76 0 133 -25 167 -84h4
c0 34 0 59 6 76h21zM285 544l-14 -10c-33 37 -51 74 -51 107c0 39 25 72 80 89l7 -31c-45 -19 -59 -40 -59 -69c0 -25 16 -58 37 -86z" />
    <glyph glyph-name="uni1F02" unicode="&#x1f02;" horiz-adv-x="515" 
d="M254 16c123 0 174 109 174 196v70c0 108 -60 181 -171 181c-123 0 -179 -85 -179 -228c0 -131 40 -219 176 -219zM455 478v-478h-21c-7 19 -6 55 -6 93h-4c-43 -74 -103 -101 -173 -101c-154 0 -201 102 -201 243c0 142 62 251 207 251c76 0 133 -25 167 -84h4
c0 34 0 59 6 76h21zM171 534l-14 10c21 28 37 61 37 86c0 29 -14 50 -59 69l7 31c55 -17 80 -50 80 -89c0 -33 -18 -70 -51 -107zM366 547l-15 -7l-102 177l37 15z" />
    <glyph glyph-name="uni1F03" unicode="&#x1f03;" horiz-adv-x="515" 
d="M254 16c123 0 174 109 174 196v70c0 108 -60 181 -171 181c-123 0 -179 -85 -179 -228c0 -131 40 -219 176 -219zM455 478v-478h-21c-7 19 -6 55 -6 93h-4c-43 -74 -103 -101 -173 -101c-154 0 -201 102 -201 243c0 142 62 251 207 251c76 0 133 -25 167 -84h4
c0 34 0 59 6 76h21zM369 547l-15 -7l-102 177l37 15zM211 541l-14 -10c-33 37 -51 74 -51 107c0 39 25 72 80 89l7 -31c-45 -19 -59 -40 -59 -69c0 -25 16 -58 37 -86z" />
    <glyph glyph-name="uni1F04" unicode="&#x1f04;" horiz-adv-x="515" 
d="M254 16c123 0 174 109 174 196v70c0 108 -60 181 -171 181c-123 0 -179 -85 -179 -228c0 -131 40 -219 176 -219zM455 478v-478h-21c-7 19 -6 55 -6 93h-4c-43 -74 -103 -101 -173 -101c-154 0 -201 102 -201 243c0 142 62 251 207 251c76 0 133 -25 167 -84h4
c0 34 0 59 6 76h21zM290 538l-15 7l80 185l37 -15zM202 539l-14 10c21 28 37 61 37 86c0 29 -14 50 -59 69l7 31c55 -17 80 -50 80 -89c0 -33 -18 -70 -51 -107z" />
    <glyph glyph-name="uni1F05" unicode="&#x1f05;" horiz-adv-x="515" 
d="M254 16c123 0 174 109 174 196v70c0 108 -60 181 -171 181c-123 0 -179 -85 -179 -228c0 -131 40 -219 176 -219zM455 478v-478h-21c-7 19 -6 55 -6 93h-4c-43 -74 -103 -101 -173 -101c-154 0 -201 102 -201 243c0 142 62 251 207 251c76 0 133 -25 167 -84h4
c0 34 0 59 6 76h21zM278 540l-15 7l80 185l37 -15zM226 547l-14 -10c-33 37 -51 74 -51 107c0 39 25 72 80 89l7 -31c-45 -19 -59 -40 -59 -69c0 -25 16 -58 37 -86z" />
    <glyph glyph-name="uni1F06" unicode="&#x1f06;" horiz-adv-x="515" 
d="M254 16c123 0 174 109 174 196v70c0 108 -60 181 -171 181c-123 0 -179 -85 -179 -228c0 -131 40 -219 176 -219zM455 478v-478h-21c-7 19 -6 55 -6 93h-4c-43 -74 -103 -101 -173 -101c-154 0 -201 102 -201 243c0 142 62 251 207 251c76 0 133 -25 167 -84h4
c0 34 0 59 6 76h21zM243 539l-14 9c21 25 38 54 38 76c0 26 -14 45 -60 61l7 28c56 -15 81 -44 81 -79c0 -29 -18 -62 -52 -95zM310 765c28 0 43 9 63 42l18 -9c-18 -44 -51 -59 -82 -59c-44 0 -96 38 -130 38c-24 0 -40 -9 -60 -42l-19 9c17 41 50 59 81 59
c44 0 98 -38 129 -38z" />
    <glyph glyph-name="uni1F07" unicode="&#x1f07;" horiz-adv-x="515" 
d="M254 16c123 0 174 109 174 196v70c0 108 -60 181 -171 181c-123 0 -179 -85 -179 -228c0 -131 40 -219 176 -219zM455 478v-478h-21c-7 19 -6 55 -6 93h-4c-43 -74 -103 -101 -173 -101c-154 0 -201 102 -201 243c0 142 62 251 207 251c76 0 133 -25 167 -84h4
c0 34 0 59 6 76h21zM286 548l-14 -9c-34 33 -52 66 -52 95c0 35 25 64 81 79l7 -28c-46 -16 -60 -35 -60 -61c0 -22 17 -51 38 -76zM332 776c28 0 43 9 63 42l18 -9c-18 -44 -51 -59 -82 -59c-44 0 -96 38 -130 38c-24 0 -40 -9 -60 -42l-19 9c17 41 50 59 81 59
c44 0 98 -38 129 -38z" />
    <glyph glyph-name="uni1F08" unicode="&#x1f08;" horiz-adv-x="566" 
d="M525 0l-71 187h-344l-71 -187h-29l255 674h33l258 -674h-31zM285 637h-7c-22 -65 -46 -130 -70 -192l-89 -232h327l-90 232c-25 64 -47 128 -71 192zM23 484l-14 10c21 28 37 61 37 86c0 29 -14 50 -59 69l7 31c55 -17 80 -50 80 -89c0 -33 -18 -70 -51 -107z" />
    <glyph glyph-name="uni1F09" unicode="&#x1f09;" horiz-adv-x="566" 
d="M525 0l-71 187h-344l-71 -187h-29l255 674h33l258 -674h-31zM285 637h-7c-22 -65 -46 -130 -70 -192l-89 -232h327l-90 232c-25 64 -47 128 -71 192zM59 494l-14 -10c-33 37 -51 74 -51 107c0 39 25 72 80 89l7 -31c-45 -19 -59 -40 -59 -69c0 -25 16 -58 37 -86z" />
    <glyph glyph-name="uni1F0A" unicode="&#x1f0a;" horiz-adv-x="566" 
d="M525 0l-71 187h-344l-71 -187h-29l255 674h33l258 -674h-31zM285 637h-7c-22 -65 -46 -130 -70 -192l-89 -232h327l-90 232c-25 64 -47 128 -71 192zM-89 484l-14 10c21 28 37 61 37 86c0 29 -14 50 -59 69l7 31c55 -17 80 -50 80 -89c0 -33 -18 -70 -51 -107zM106 497
l-15 -7l-102 177l37 15z" />
    <glyph glyph-name="uni1F0B" unicode="&#x1f0b;" horiz-adv-x="566" 
d="M525 0l-71 187h-344l-71 -187h-29l255 674h33l258 -674h-31zM285 637h-7c-22 -65 -46 -130 -70 -192l-89 -232h327l-90 232c-25 64 -47 128 -71 192zM117 497l-15 -7l-102 177l37 15zM-41 491l-14 -10c-33 37 -51 74 -51 107c0 39 25 72 80 89l7 -31
c-45 -19 -59 -40 -59 -69c0 -25 16 -58 37 -86z" />
    <glyph glyph-name="uni1F0C" unicode="&#x1f0c;" horiz-adv-x="566" 
d="M525 0l-71 187h-344l-71 -187h-29l255 674h33l258 -674h-31zM285 637h-7c-22 -65 -46 -130 -70 -192l-89 -232h327l-90 232c-25 64 -47 128 -71 192zM13 488l-15 7l80 185l37 -15zM-75 489l-14 10c21 28 37 61 37 86c0 29 -14 50 -59 69l7 31c55 -17 80 -50 80 -89
c0 -33 -18 -70 -51 -107z" />
    <glyph glyph-name="uni1F0D" unicode="&#x1f0d;" horiz-adv-x="566" 
d="M525 0l-71 187h-344l-71 -187h-29l255 674h33l258 -674h-31zM285 637h-7c-22 -65 -46 -130 -70 -192l-89 -232h327l-90 232c-25 64 -47 128 -71 192zM19 490l-15 7l80 185l37 -15zM-33 497l-14 -10c-33 37 -51 74 -51 107c0 39 25 72 80 89l7 -31
c-45 -19 -59 -40 -59 -69c0 -25 16 -58 37 -86z" />
    <glyph glyph-name="uni1F0E" unicode="&#x1f0e;" horiz-adv-x="566" 
d="M525 0l-71 187h-344l-71 -187h-29l255 674h33l258 -674h-31zM285 637h-7c-22 -65 -46 -130 -70 -192l-89 -232h327l-90 232c-25 64 -47 128 -71 192zM14 440l-14 9c21 25 38 54 38 76c0 26 -14 45 -60 61l7 28c56 -15 81 -44 81 -79c0 -29 -18 -62 -52 -95zM81 666
c28 0 43 9 63 42l18 -9c-18 -44 -51 -59 -82 -59c-44 0 -96 38 -130 38c-24 0 -40 -9 -60 -42l-19 9c17 41 50 59 81 59c44 0 98 -38 129 -38z" />
    <glyph glyph-name="uni1F0F" unicode="&#x1f0f;" horiz-adv-x="566" 
d="M525 0l-71 187h-344l-71 -187h-29l255 674h33l258 -674h-31zM285 637h-7c-22 -65 -46 -130 -70 -192l-89 -232h327l-90 232c-25 64 -47 128 -71 192zM28 435l-14 -9c-34 33 -52 66 -52 95c0 35 25 64 81 79l7 -28c-46 -16 -60 -35 -60 -61c0 -22 17 -51 38 -76zM74 663
c28 0 43 9 63 42l18 -9c-18 -44 -51 -59 -82 -59c-44 0 -96 38 -130 38c-24 0 -40 -9 -60 -42l-19 9c17 41 50 59 81 59c44 0 98 -38 129 -38z" />
    <glyph glyph-name="uni1F10" unicode="&#x1f10;" horiz-adv-x="441" 
d="M232 15c133 0 157 79 158 133h20c1 -5 1 -9 1 -12c0 -91 -70 -144 -181 -144c-135 0 -185 66 -185 139c0 39 13 100 82 125v4c-59 20 -72 59 -72 96c0 69 48 130 176 130c86 0 165 -46 165 -129c0 -3 0 -7 -1 -12h-21c-1 54 -36 118 -148 118c-74 0 -141 -31 -141 -105
c0 -63 57 -84 105 -84h97v-27h-101c-70 0 -112 -52 -112 -115c0 -64 45 -117 158 -117zM219 534l-14 10c21 28 37 61 37 86c0 29 -14 50 -59 69l7 31c55 -17 80 -50 80 -89c0 -33 -18 -70 -51 -107z" />
    <glyph glyph-name="uni1F11" unicode="&#x1f11;" horiz-adv-x="441" 
d="M232 15c133 0 157 79 158 133h20c1 -5 1 -9 1 -12c0 -91 -70 -144 -181 -144c-135 0 -185 66 -185 139c0 39 13 100 82 125v4c-59 20 -72 59 -72 96c0 69 48 130 176 130c86 0 165 -46 165 -129c0 -3 0 -7 -1 -12h-21c-1 54 -36 118 -148 118c-74 0 -141 -31 -141 -105
c0 -63 57 -84 105 -84h97v-27h-101c-70 0 -112 -52 -112 -115c0 -64 45 -117 158 -117zM253 544l-14 -10c-33 37 -51 74 -51 107c0 39 25 72 80 89l7 -31c-45 -19 -59 -40 -59 -69c0 -25 16 -58 37 -86z" />
    <glyph glyph-name="uni1F12" unicode="&#x1f12;" horiz-adv-x="441" 
d="M232 15c133 0 157 79 158 133h20c1 -5 1 -9 1 -12c0 -91 -70 -144 -181 -144c-135 0 -185 66 -185 139c0 39 13 100 82 125v4c-59 20 -72 59 -72 96c0 69 48 130 176 130c86 0 165 -46 165 -129c0 -3 0 -7 -1 -12h-21c-1 54 -36 118 -148 118c-74 0 -141 -31 -141 -105
c0 -63 57 -84 105 -84h97v-27h-101c-70 0 -112 -52 -112 -115c0 -64 45 -117 158 -117zM143 534l-14 10c21 28 37 61 37 86c0 29 -14 50 -59 69l7 31c55 -17 80 -50 80 -89c0 -33 -18 -70 -51 -107zM338 547l-15 -7l-102 177l37 15z" />
    <glyph glyph-name="uni1F13" unicode="&#x1f13;" horiz-adv-x="441" 
d="M232 15c133 0 157 79 158 133h20c1 -5 1 -9 1 -12c0 -91 -70 -144 -181 -144c-135 0 -185 66 -185 139c0 39 13 100 82 125v4c-59 20 -72 59 -72 96c0 69 48 130 176 130c86 0 165 -46 165 -129c0 -3 0 -7 -1 -12h-21c-1 54 -36 118 -148 118c-74 0 -141 -31 -141 -105
c0 -63 57 -84 105 -84h97v-27h-101c-70 0 -112 -52 -112 -115c0 -64 45 -117 158 -117zM332 547l-15 -7l-102 177l37 15zM174 541l-14 -10c-33 37 -51 74 -51 107c0 39 25 72 80 89l7 -31c-45 -19 -59 -40 -59 -69c0 -25 16 -58 37 -86z" />
    <glyph glyph-name="uni1F14" unicode="&#x1f14;" horiz-adv-x="441" 
d="M232 15c133 0 157 79 158 133h20c1 -5 1 -9 1 -12c0 -91 -70 -144 -181 -144c-135 0 -185 66 -185 139c0 39 13 100 82 125v4c-59 20 -72 59 -72 96c0 69 48 130 176 130c86 0 165 -46 165 -129c0 -3 0 -7 -1 -12h-21c-1 54 -36 118 -148 118c-74 0 -141 -31 -141 -105
c0 -63 57 -84 105 -84h97v-27h-101c-70 0 -112 -52 -112 -115c0 -64 45 -117 158 -117zM257 538l-15 7l80 185l37 -15zM169 539l-14 10c21 28 37 61 37 86c0 29 -14 50 -59 69l7 31c55 -17 80 -50 80 -89c0 -33 -18 -70 -51 -107z" />
    <glyph glyph-name="uni1F15" unicode="&#x1f15;" horiz-adv-x="441" 
d="M232 15c133 0 157 79 158 133h20c1 -5 1 -9 1 -12c0 -91 -70 -144 -181 -144c-135 0 -185 66 -185 139c0 39 13 100 82 125v4c-59 20 -72 59 -72 96c0 69 48 130 176 130c86 0 165 -46 165 -129c0 -3 0 -7 -1 -12h-21c-1 54 -36 118 -148 118c-74 0 -141 -31 -141 -105
c0 -63 57 -84 105 -84h97v-27h-101c-70 0 -112 -52 -112 -115c0 -64 45 -117 158 -117zM254 540l-15 7l80 185l37 -15zM202 547l-14 -10c-33 37 -51 74 -51 107c0 39 25 72 80 89l7 -31c-45 -19 -59 -40 -59 -69c0 -25 16 -58 37 -86z" />
    <glyph glyph-name="uni1F18" unicode="&#x1f18;" horiz-adv-x="519" 
d="M65 0v674h410v-25h-382v-286h353v-25h-353v-313h396v-25h-424zM-81 484l-14 10c21 28 37 61 37 86c0 29 -14 50 -59 69l7 31c55 -17 80 -50 80 -89c0 -33 -18 -70 -51 -107z" />
    <glyph glyph-name="uni1F19" unicode="&#x1f19;" horiz-adv-x="519" 
d="M65 0v674h410v-25h-382v-286h353v-25h-353v-313h396v-25h-424zM-42 494l-14 -10c-33 37 -51 74 -51 107c0 39 25 72 80 89l7 -31c-45 -19 -59 -40 -59 -69c0 -25 16 -58 37 -86z" />
    <glyph glyph-name="uni1F1A" unicode="&#x1f1a;" horiz-adv-x="519" 
d="M65 0v674h410v-25h-382v-286h353v-25h-353v-313h396v-25h-424zM-184 484l-14 10c21 28 37 61 37 86c0 29 -14 50 -59 69l7 31c55 -17 80 -50 80 -89c0 -33 -18 -70 -51 -107zM11 497l-15 -7l-102 177l37 15z" />
    <glyph glyph-name="uni1F1B" unicode="&#x1f1b;" horiz-adv-x="519" 
d="M65 0v674h410v-25h-382v-286h353v-25h-353v-313h396v-25h-424zM2 497l-15 -7l-102 177l37 15zM-156 491l-14 -10c-33 37 -51 74 -51 107c0 39 25 72 80 89l7 -31c-45 -19 -59 -40 -59 -69c0 -25 16 -58 37 -86z" />
    <glyph glyph-name="uni1F1C" unicode="&#x1f1c;" horiz-adv-x="519" 
d="M65 0v674h410v-25h-382v-286h353v-25h-353v-313h396v-25h-424zM-85 488l-15 7l80 185l37 -15zM-173 489l-14 10c21 28 37 61 37 86c0 29 -14 50 -59 69l7 31c55 -17 80 -50 80 -89c0 -33 -18 -70 -51 -107z" />
    <glyph glyph-name="uni1F1D" unicode="&#x1f1d;" horiz-adv-x="519" 
d="M65 0v674h410v-25h-382v-286h353v-25h-353v-313h396v-25h-424zM-82 490l-15 7l80 185l37 -15zM-134 497l-14 -10c-33 37 -51 74 -51 107c0 39 25 72 80 89l7 -31c-45 -19 -59 -40 -59 -69c0 -25 16 -58 37 -86z" />
    <glyph glyph-name="uni1F20" unicode="&#x1f20;" horiz-adv-x="506" 
d="M60 0v478h21c8 -20 6 -45 6 -83h4c45 76 123 92 179 92c151 0 178 -98 178 -203v-284h-28v272c0 77 -6 190 -153 190c-119 0 -180 -92 -180 -189v-273h-27zM220 534l-14 10c21 28 37 61 37 86c0 29 -14 50 -59 69l7 31c55 -17 80 -50 80 -89c0 -33 -18 -70 -51 -107z" />
    <glyph glyph-name="uni1F21" unicode="&#x1f21;" horiz-adv-x="506" 
d="M60 0v478h21c8 -20 6 -45 6 -83h4c45 76 123 92 179 92c151 0 178 -98 178 -203v-284h-28v272c0 77 -6 190 -153 190c-119 0 -180 -92 -180 -189v-273h-27zM246 544l-14 -10c-33 37 -51 74 -51 107c0 39 25 72 80 89l7 -31c-45 -19 -59 -40 -59 -69c0 -25 16 -58 37 -86z
" />
    <glyph glyph-name="uni1F22" unicode="&#x1f22;" horiz-adv-x="506" 
d="M60 0v478h21c8 -20 6 -45 6 -83h4c45 76 123 92 179 92c151 0 178 -98 178 -203v-284h-28v272c0 77 -6 190 -153 190c-119 0 -180 -92 -180 -189v-273h-27zM147 534l-14 10c21 28 37 61 37 86c0 29 -14 50 -59 69l7 31c55 -17 80 -50 80 -89c0 -33 -18 -70 -51 -107z
M342 547l-15 -7l-102 177l37 15z" />
    <glyph glyph-name="uni1F23" unicode="&#x1f23;" horiz-adv-x="506" 
d="M60 0v478h21c8 -20 6 -45 6 -83h4c45 76 123 92 179 92c151 0 178 -98 178 -203v-284h-28v272c0 77 -6 190 -153 190c-119 0 -180 -92 -180 -189v-273h-27zM343 547l-15 -7l-102 177l37 15zM185 541l-14 -10c-33 37 -51 74 -51 107c0 39 25 72 80 89l7 -31
c-45 -19 -59 -40 -59 -69c0 -25 16 -58 37 -86z" />
    <glyph glyph-name="uni1F24" unicode="&#x1f24;" horiz-adv-x="506" 
d="M60 0v478h21c8 -20 6 -45 6 -83h4c45 76 123 92 179 92c151 0 178 -98 178 -203v-284h-28v272c0 77 -6 190 -153 190c-119 0 -180 -92 -180 -189v-273h-27zM277 538l-15 7l80 185l37 -15zM189 539l-14 10c21 28 37 61 37 86c0 29 -14 50 -59 69l7 31
c55 -17 80 -50 80 -89c0 -33 -18 -70 -51 -107z" />
    <glyph glyph-name="uni1F25" unicode="&#x1f25;" horiz-adv-x="506" 
d="M60 0v478h21c8 -20 6 -45 6 -83h4c45 76 123 92 179 92c151 0 178 -98 178 -203v-284h-28v272c0 77 -6 190 -153 190c-119 0 -180 -92 -180 -189v-273h-27zM280 540l-15 7l80 185l37 -15zM228 547l-14 -10c-33 37 -51 74 -51 107c0 39 25 72 80 89l7 -31
c-45 -19 -59 -40 -59 -69c0 -25 16 -58 37 -86z" />
    <glyph glyph-name="uni1F26" unicode="&#x1f26;" horiz-adv-x="506" 
d="M60 0v478h21c8 -20 6 -45 6 -83h4c45 76 123 92 179 92c151 0 178 -98 178 -203v-284h-28v272c0 77 -6 190 -153 190c-119 0 -180 -92 -180 -189v-273h-27zM230 539l-14 9c21 25 38 54 38 76c0 26 -14 45 -60 61l7 28c56 -15 81 -44 81 -79c0 -29 -18 -62 -52 -95z
M297 765c28 0 43 9 63 42l18 -9c-18 -44 -51 -59 -82 -59c-44 0 -96 38 -130 38c-24 0 -40 -9 -60 -42l-19 9c17 41 50 59 81 59c44 0 98 -38 129 -38z" />
    <glyph glyph-name="uni1F27" unicode="&#x1f27;" horiz-adv-x="506" 
d="M60 0v478h21c8 -20 6 -45 6 -83h4c45 76 123 92 179 92c151 0 178 -98 178 -203v-284h-28v272c0 77 -6 190 -153 190c-119 0 -180 -92 -180 -189v-273h-27zM249 547l-14 -9c-34 33 -52 66 -52 95c0 35 25 64 81 79l7 -28c-46 -16 -60 -35 -60 -61c0 -22 17 -51 38 -76z
M295 775c28 0 43 9 63 42l18 -9c-18 -44 -51 -59 -82 -59c-44 0 -96 38 -130 38c-24 0 -40 -9 -60 -42l-19 9c17 41 50 59 81 59c44 0 98 -38 129 -38z" />
    <glyph glyph-name="uni1F28" unicode="&#x1f28;" horiz-adv-x="628" 
d="M534 0v338h-442v-338h-27v675h27v-312h442v312h29v-675h-29zM-83 484l-14 10c21 28 37 61 37 86c0 29 -14 50 -59 69l7 31c55 -17 80 -50 80 -89c0 -33 -18 -70 -51 -107z" />
    <glyph glyph-name="uni1F29" unicode="&#x1f29;" horiz-adv-x="628" 
d="M534 0v338h-442v-338h-27v675h27v-312h442v312h29v-675h-29zM-43 494l-14 -10c-33 37 -51 74 -51 107c0 39 25 72 80 89l7 -31c-45 -19 -59 -40 -59 -69c0 -25 16 -58 37 -86z" />
    <glyph glyph-name="uni1F2A" unicode="&#x1f2a;" horiz-adv-x="628" 
d="M534 0v338h-442v-338h-27v675h27v-312h442v312h29v-675h-29zM-173 484l-14 10c21 28 37 61 37 86c0 29 -14 50 -59 69l7 31c55 -17 80 -50 80 -89c0 -33 -18 -70 -51 -107zM22 497l-15 -7l-102 177l37 15z" />
    <glyph glyph-name="uni1F2B" unicode="&#x1f2b;" horiz-adv-x="628" 
d="M534 0v338h-442v-338h-27v675h27v-312h442v312h29v-675h-29zM12 497l-15 -7l-102 177l37 15zM-146 491l-14 -10c-33 37 -51 74 -51 107c0 39 25 72 80 89l7 -31c-45 -19 -59 -40 -59 -69c0 -25 16 -58 37 -86z" />
    <glyph glyph-name="uni1F2C" unicode="&#x1f2c;" horiz-adv-x="628" 
d="M534 0v338h-442v-338h-27v675h27v-312h442v312h29v-675h-29zM-87 488l-15 7l80 185l37 -15zM-175 489l-14 10c21 28 37 61 37 86c0 29 -14 50 -59 69l7 31c55 -17 80 -50 80 -89c0 -33 -18 -70 -51 -107z" />
    <glyph glyph-name="uni1F2D" unicode="&#x1f2d;" horiz-adv-x="628" 
d="M534 0v338h-442v-338h-27v675h27v-312h442v312h29v-675h-29zM-83 490l-15 7l80 185l37 -15zM-135 497l-14 -10c-33 37 -51 74 -51 107c0 39 25 72 80 89l7 -31c-45 -19 -59 -40 -59 -69c0 -25 16 -58 37 -86z" />
    <glyph glyph-name="uni1F2E" unicode="&#x1f2e;" horiz-adv-x="628" 
d="M534 0v338h-442v-338h-27v675h27v-312h442v312h29v-675h-29zM-123 440l-14 9c21 25 38 54 38 76c0 26 -14 45 -60 61l7 28c56 -15 81 -44 81 -79c0 -29 -18 -62 -52 -95zM-56 666c28 0 43 9 63 42l18 -9c-18 -44 -51 -59 -82 -59c-44 0 -96 38 -130 38
c-24 0 -40 -9 -60 -42l-19 9c17 41 50 59 81 59c44 0 98 -38 129 -38z" />
    <glyph glyph-name="uni1F2F" unicode="&#x1f2f;" horiz-adv-x="628" 
d="M534 0v338h-442v-338h-27v675h27v-312h442v312h29v-675h-29zM-103 441l-14 -9c-34 33 -52 66 -52 95c0 35 25 64 81 79l7 -28c-46 -16 -60 -35 -60 -61c0 -22 17 -51 38 -76zM-57 669c28 0 43 9 63 42l18 -9c-18 -44 -51 -59 -82 -59c-44 0 -96 38 -130 38
c-24 0 -40 -9 -60 -42l-19 9c17 41 50 59 81 59c44 0 98 -38 129 -38z" />
    <glyph glyph-name="uni1F30" unicode="&#x1f30;" horiz-adv-x="210" 
d="M92 0v478h27v-478h-27zM106 534l-14 10c21 28 37 61 37 86c0 29 -14 50 -59 69l7 31c55 -17 80 -50 80 -89c0 -33 -18 -70 -51 -107z" />
    <glyph glyph-name="uni1F31" unicode="&#x1f31;" horiz-adv-x="210" 
d="M92 0v478h27v-478h-27zM132 544l-14 -10c-33 37 -51 74 -51 107c0 39 25 72 80 89l7 -31c-45 -19 -59 -40 -59 -69c0 -25 16 -58 37 -86z" />
    <glyph glyph-name="uni1F32" unicode="&#x1f32;" horiz-adv-x="210" 
d="M92 0v478h27v-478h-27zM21 534l-14 10c21 28 37 61 37 86c0 29 -14 50 -59 69l7 31c55 -17 80 -50 80 -89c0 -33 -18 -70 -51 -107zM216 547l-15 -7l-102 177l37 15z" />
    <glyph glyph-name="uni1F33" unicode="&#x1f33;" horiz-adv-x="210" 
d="M92 0v478h27v-478h-27zM207 549l-15 -7l-102 177l37 15zM49 543l-14 -10c-33 37 -51 74 -51 107c0 39 25 72 80 89l7 -31c-45 -19 -59 -40 -59 -69c0 -25 16 -58 37 -86z" />
    <glyph glyph-name="uni1F34" unicode="&#x1f34;" horiz-adv-x="210" 
d="M92 0v478h27v-478h-27zM128 538l-15 7l80 185l37 -15zM40 539l-14 10c21 28 37 61 37 86c0 29 -14 50 -59 69l7 31c55 -17 80 -50 80 -89c0 -33 -18 -70 -51 -107z" />
    <glyph glyph-name="uni1F35" unicode="&#x1f35;" horiz-adv-x="210" 
d="M92 0v478h27v-478h-27zM129 540l-15 7l80 185l37 -15zM77 547l-14 -10c-33 37 -51 74 -51 107c0 39 25 72 80 89l7 -31c-45 -19 -59 -40 -59 -69c0 -25 16 -58 37 -86z" />
    <glyph glyph-name="uni1F36" unicode="&#x1f36;" horiz-adv-x="210" 
d="M92 0v478h27v-478h-27zM103 527l-14 9c21 25 38 54 38 76c0 26 -14 45 -60 61l7 28c56 -15 81 -44 81 -79c0 -29 -18 -62 -52 -95zM170 753c28 0 43 9 63 42l18 -9c-18 -44 -51 -59 -82 -59c-44 0 -96 38 -130 38c-24 0 -40 -9 -60 -42l-19 9c17 41 50 59 81 59
c44 0 98 -38 129 -38z" />
    <glyph glyph-name="uni1F37" unicode="&#x1f37;" horiz-adv-x="210" 
d="M92 0v478h27v-478h-27zM126 548l-14 -9c-34 33 -52 66 -52 95c0 35 25 64 81 79l7 -28c-46 -16 -60 -35 -60 -61c0 -22 17 -51 38 -76zM172 776c28 0 43 9 63 42l18 -9c-18 -44 -51 -59 -82 -59c-44 0 -96 38 -130 38c-24 0 -40 -9 -60 -42l-19 9c17 41 50 59 81 59
c44 0 98 -38 129 -38z" />
    <glyph glyph-name="uni1F38" unicode="&#x1f38;" horiz-adv-x="197" 
d="M85 0v674h27v-674h-27zM-78 484l-14 10c21 28 37 61 37 86c0 29 -14 50 -59 69l7 31c55 -17 80 -50 80 -89c0 -33 -18 -70 -51 -107z" />
    <glyph glyph-name="uni1F39" unicode="&#x1f39;" horiz-adv-x="197" 
d="M85 0v674h27v-674h-27zM-30 494l-14 -10c-33 37 -51 74 -51 107c0 39 25 72 80 89l7 -31c-45 -19 -59 -40 -59 -69c0 -25 16 -58 37 -86z" />
    <glyph glyph-name="uni1F3A" unicode="&#x1f3a;" horiz-adv-x="197" 
d="M85 0v674h27v-674h-27zM-177 484l-14 10c21 28 37 61 37 86c0 29 -14 50 -59 69l7 31c55 -17 80 -50 80 -89c0 -33 -18 -70 -51 -107zM18 497l-15 -7l-102 177l37 15z" />
    <glyph glyph-name="uni1F3B" unicode="&#x1f3b;" horiz-adv-x="197" 
d="M85 0v674h27v-674h-27zM28 497l-15 -7l-102 177l37 15zM-130 491l-14 -10c-33 37 -51 74 -51 107c0 39 25 72 80 89l7 -31c-45 -19 -59 -40 -59 -69c0 -25 16 -58 37 -86z" />
    <glyph glyph-name="uni1F3C" unicode="&#x1f3c;" horiz-adv-x="197" 
d="M85 0v674h27v-674h-27zM-70 488l-15 7l80 185l37 -15zM-158 489l-14 10c21 28 37 61 37 86c0 29 -14 50 -59 69l7 31c55 -17 80 -50 80 -89c0 -33 -18 -70 -51 -107z" />
    <glyph glyph-name="uni1F3D" unicode="&#x1f3d;" horiz-adv-x="197" 
d="M85 0v674h27v-674h-27zM-66 490l-15 7l80 185l37 -15zM-118 497l-14 -10c-33 37 -51 74 -51 107c0 39 25 72 80 89l7 -31c-45 -19 -59 -40 -59 -69c0 -25 16 -58 37 -86z" />
    <glyph glyph-name="uni1F3E" unicode="&#x1f3e;" horiz-adv-x="197" 
d="M85 0v674h27v-674h-27zM-106 440l-14 9c21 25 38 54 38 76c0 26 -14 45 -60 61l7 28c56 -15 81 -44 81 -79c0 -29 -18 -62 -52 -95zM-39 666c28 0 43 9 63 42l18 -9c-18 -44 -51 -59 -82 -59c-44 0 -96 38 -130 38c-24 0 -40 -9 -60 -42l-19 9c17 41 50 59 81 59
c44 0 98 -38 129 -38z" />
    <glyph glyph-name="uni1F3F" unicode="&#x1f3f;" horiz-adv-x="197" 
d="M85 0v674h27v-674h-27zM-76 440l-14 -9c-34 33 -52 66 -52 95c0 35 25 64 81 79l7 -28c-46 -16 -60 -35 -60 -61c0 -22 17 -51 38 -76zM-30 668c28 0 43 9 63 42l18 -9c-18 -44 -51 -59 -82 -59c-44 0 -96 38 -130 38c-24 0 -40 -9 -60 -42l-19 9c17 41 50 59 81 59
c44 0 98 -38 129 -38z" />
    <glyph glyph-name="uni1F40" unicode="&#x1f40;" horiz-adv-x="521" 
d="M263 486c165 0 208 -121 208 -249c0 -126 -47 -245 -209 -245c-161 0 -212 92 -212 241c0 145 58 253 213 253zM263 463c-135 0 -185 -98 -185 -230c0 -146 51 -218 185 -218c114 0 180 69 180 222c0 128 -45 226 -180 226zM259 534l-14 10c21 28 37 61 37 86
c0 29 -14 50 -59 69l7 31c55 -17 80 -50 80 -89c0 -33 -18 -70 -51 -107z" />
    <glyph glyph-name="uni1F41" unicode="&#x1f41;" horiz-adv-x="521" 
d="M263 486c165 0 208 -121 208 -249c0 -126 -47 -245 -209 -245c-161 0 -212 92 -212 241c0 145 58 253 213 253zM263 463c-135 0 -185 -98 -185 -230c0 -146 51 -218 185 -218c114 0 180 69 180 222c0 128 -45 226 -180 226zM296 544l-14 -10c-33 37 -51 74 -51 107
c0 39 25 72 80 89l7 -31c-45 -19 -59 -40 -59 -69c0 -25 16 -58 37 -86z" />
    <glyph glyph-name="uni1F42" unicode="&#x1f42;" horiz-adv-x="521" 
d="M263 486c165 0 208 -121 208 -249c0 -126 -47 -245 -209 -245c-161 0 -212 92 -212 241c0 145 58 253 213 253zM263 463c-135 0 -185 -98 -185 -230c0 -146 51 -218 185 -218c114 0 180 69 180 222c0 128 -45 226 -180 226zM177 534l-14 10c21 28 37 61 37 86
c0 29 -14 50 -59 69l7 31c55 -17 80 -50 80 -89c0 -33 -18 -70 -51 -107zM372 547l-15 -7l-102 177l37 15z" />
    <glyph glyph-name="uni1F43" unicode="&#x1f43;" horiz-adv-x="521" 
d="M263 486c165 0 208 -121 208 -249c0 -126 -47 -245 -209 -245c-161 0 -212 92 -212 241c0 145 58 253 213 253zM263 463c-135 0 -185 -98 -185 -230c0 -146 51 -218 185 -218c114 0 180 69 180 222c0 128 -45 226 -180 226zM377 547l-15 -7l-102 177l37 15zM219 541
l-14 -10c-33 37 -51 74 -51 107c0 39 25 72 80 89l7 -31c-45 -19 -59 -40 -59 -69c0 -25 16 -58 37 -86z" />
    <glyph glyph-name="uni1F44" unicode="&#x1f44;" horiz-adv-x="521" 
d="M263 486c165 0 208 -121 208 -249c0 -126 -47 -245 -209 -245c-161 0 -212 92 -212 241c0 145 58 253 213 253zM263 463c-135 0 -185 -98 -185 -230c0 -146 51 -218 185 -218c114 0 180 69 180 222c0 128 -45 226 -180 226zM301 538l-15 7l80 185l37 -15zM213 539l-14 10
c21 28 37 61 37 86c0 29 -14 50 -59 69l7 31c55 -17 80 -50 80 -89c0 -33 -18 -70 -51 -107z" />
    <glyph glyph-name="uni1F45" unicode="&#x1f45;" horiz-adv-x="521" 
d="M263 486c165 0 208 -121 208 -249c0 -126 -47 -245 -209 -245c-161 0 -212 92 -212 241c0 145 58 253 213 253zM263 463c-135 0 -185 -98 -185 -230c0 -146 51 -218 185 -218c114 0 180 69 180 222c0 128 -45 226 -180 226zM296 540l-15 7l80 185l37 -15zM244 547
l-14 -10c-33 37 -51 74 -51 107c0 39 25 72 80 89l7 -31c-45 -19 -59 -40 -59 -69c0 -25 16 -58 37 -86z" />
    <glyph glyph-name="uni1F48" unicode="&#x1f48;" horiz-adv-x="658" 
d="M332 681c218 0 271 -166 271 -350c0 -171 -59 -337 -280 -337c-210 0 -268 136 -268 336c0 207 71 351 277 351zM330 657c-184 0 -248 -132 -248 -327c0 -215 77 -313 240 -313c161 0 251 98 251 314c0 194 -60 326 -243 326zM-50 484l-14 10c21 28 37 61 37 86
c0 29 -14 50 -59 69l7 31c55 -17 80 -50 80 -89c0 -33 -18 -70 -51 -107z" />
    <glyph glyph-name="uni1F49" unicode="&#x1f49;" horiz-adv-x="658" 
d="M332 681c218 0 271 -166 271 -350c0 -171 -59 -337 -280 -337c-210 0 -268 136 -268 336c0 207 71 351 277 351zM330 657c-184 0 -248 -132 -248 -327c0 -215 77 -313 240 -313c161 0 251 98 251 314c0 194 -60 326 -243 326zM-11 506l-14 -10c-33 37 -51 74 -51 107
c0 39 25 72 80 89l7 -31c-45 -19 -59 -40 -59 -69c0 -25 16 -58 37 -86z" />
    <glyph glyph-name="uni1F4A" unicode="&#x1f4a;" horiz-adv-x="658" 
d="M332 681c218 0 271 -166 271 -350c0 -171 -59 -337 -280 -337c-210 0 -268 136 -268 336c0 207 71 351 277 351zM330 657c-184 0 -248 -132 -248 -327c0 -215 77 -313 240 -313c161 0 251 98 251 314c0 194 -60 326 -243 326zM-178 484l-14 10c21 28 37 61 37 86
c0 29 -14 50 -59 69l7 31c55 -17 80 -50 80 -89c0 -33 -18 -70 -51 -107zM17 497l-15 -7l-102 177l37 15z" />
    <glyph glyph-name="uni1F4B" unicode="&#x1f4b;" horiz-adv-x="658" 
d="M332 681c218 0 271 -166 271 -350c0 -171 -59 -337 -280 -337c-210 0 -268 136 -268 336c0 207 71 351 277 351zM330 657c-184 0 -248 -132 -248 -327c0 -215 77 -313 240 -313c161 0 251 98 251 314c0 194 -60 326 -243 326zM28 497l-15 -7l-102 177l37 15zM-130 491
l-14 -10c-33 37 -51 74 -51 107c0 39 25 72 80 89l7 -31c-45 -19 -59 -40 -59 -69c0 -25 16 -58 37 -86z" />
    <glyph glyph-name="uni1F4C" unicode="&#x1f4c;" horiz-adv-x="658" 
d="M332 681c218 0 271 -166 271 -350c0 -171 -59 -337 -280 -337c-210 0 -268 136 -268 336c0 207 71 351 277 351zM330 657c-184 0 -248 -132 -248 -327c0 -215 77 -313 240 -313c161 0 251 98 251 314c0 194 -60 326 -243 326zM-48 488l-15 7l80 185l37 -15zM-136 489
l-14 10c21 28 37 61 37 86c0 29 -14 50 -59 69l7 31c55 -17 80 -50 80 -89c0 -33 -18 -70 -51 -107z" />
    <glyph glyph-name="uni1F4D" unicode="&#x1f4d;" horiz-adv-x="658" 
d="M332 681c218 0 271 -166 271 -350c0 -171 -59 -337 -280 -337c-210 0 -268 136 -268 336c0 207 71 351 277 351zM330 657c-184 0 -248 -132 -248 -327c0 -215 77 -313 240 -313c161 0 251 98 251 314c0 194 -60 326 -243 326zM-60 490l-15 7l80 185l37 -15zM-112 497
l-14 -10c-33 37 -51 74 -51 107c0 39 25 72 80 89l7 -31c-45 -19 -59 -40 -59 -69c0 -25 16 -58 37 -86z" />
    <glyph glyph-name="uni1F50" unicode="&#x1f50;" horiz-adv-x="509" 
d="M455 179c0 -127 -82 -187 -204 -187c-124 0 -196 62 -196 187v299h27v-302c0 -119 81 -161 170 -161c87 0 175 42 175 162v301h28v-299zM236 534l-14 10c21 28 37 61 37 86c0 29 -14 50 -59 69l7 31c55 -17 80 -50 80 -89c0 -33 -18 -70 -51 -107z" />
    <glyph glyph-name="uni1F51" unicode="&#x1f51;" horiz-adv-x="509" 
d="M455 179c0 -127 -82 -187 -204 -187c-124 0 -196 62 -196 187v299h27v-302c0 -119 81 -161 170 -161c87 0 175 42 175 162v301h28v-299zM270 543l-14 -10c-33 37 -51 74 -51 107c0 39 25 72 80 89l7 -31c-45 -19 -59 -40 -59 -69c0 -25 16 -58 37 -86z" />
    <glyph glyph-name="uni1F52" unicode="&#x1f52;" horiz-adv-x="509" 
d="M455 179c0 -127 -82 -187 -204 -187c-124 0 -196 62 -196 187v299h27v-302c0 -119 81 -161 170 -161c87 0 175 42 175 162v301h28v-299zM172 534l-14 10c21 28 37 61 37 86c0 29 -14 50 -59 69l7 31c55 -17 80 -50 80 -89c0 -33 -18 -70 -51 -107zM367 547l-15 -7
l-102 177l37 15z" />
    <glyph glyph-name="uni1F53" unicode="&#x1f53;" horiz-adv-x="509" 
d="M455 179c0 -127 -82 -187 -204 -187c-124 0 -196 62 -196 187v299h27v-302c0 -119 81 -161 170 -161c87 0 175 42 175 162v301h28v-299zM360 547l-15 -7l-102 177l37 15zM202 541l-14 -10c-33 37 -51 74 -51 107c0 39 25 72 80 89l7 -31c-45 -19 -59 -40 -59 -69
c0 -25 16 -58 37 -86z" />
    <glyph glyph-name="uni1F54" unicode="&#x1f54;" horiz-adv-x="509" 
d="M455 179c0 -127 -82 -187 -204 -187c-124 0 -196 62 -196 187v299h27v-302c0 -119 81 -161 170 -161c87 0 175 42 175 162v301h28v-299zM283 538l-15 7l80 185l37 -15zM195 539l-14 10c21 28 37 61 37 86c0 29 -14 50 -59 69l7 31c55 -17 80 -50 80 -89
c0 -33 -18 -70 -51 -107z" />
    <glyph glyph-name="uni1F55" unicode="&#x1f55;" horiz-adv-x="509" 
d="M455 179c0 -127 -82 -187 -204 -187c-124 0 -196 62 -196 187v299h27v-302c0 -119 81 -161 170 -161c87 0 175 42 175 162v301h28v-299zM289 540l-15 7l80 185l37 -15zM237 547l-14 -10c-33 37 -51 74 -51 107c0 39 25 72 80 89l7 -31c-45 -19 -59 -40 -59 -69
c0 -25 16 -58 37 -86z" />
    <glyph glyph-name="uni1F56" unicode="&#x1f56;" horiz-adv-x="509" 
d="M455 179c0 -127 -82 -187 -204 -187c-124 0 -196 62 -196 187v299h27v-302c0 -119 81 -161 170 -161c87 0 175 42 175 162v301h28v-299zM247 516l-14 9c21 25 38 54 38 76c0 26 -14 45 -60 61l7 28c56 -15 81 -44 81 -79c0 -29 -18 -62 -52 -95zM314 742c28 0 43 9 63 42
l18 -9c-18 -44 -51 -59 -82 -59c-44 0 -96 38 -130 38c-24 0 -40 -9 -60 -42l-19 9c17 41 50 59 81 59c44 0 98 -38 129 -38z" />
    <glyph glyph-name="uni1F57" unicode="&#x1f57;" horiz-adv-x="509" 
d="M455 179c0 -127 -82 -187 -204 -187c-124 0 -196 62 -196 187v299h27v-302c0 -119 81 -161 170 -161c87 0 175 42 175 162v301h28v-299zM275 520l-14 -9c-34 33 -52 66 -52 95c0 35 25 64 81 79l7 -28c-46 -16 -60 -35 -60 -61c0 -22 17 -51 38 -76zM321 748
c28 0 43 9 63 42l18 -9c-18 -44 -51 -59 -82 -59c-44 0 -96 38 -130 38c-24 0 -40 -9 -60 -42l-19 9c17 41 50 59 81 59c44 0 98 -38 129 -38z" />
    <glyph glyph-name="uni1F59" unicode="&#x1f59;" horiz-adv-x="512" 
d="M248 306h7l100 172l114 196h33l-236 -402v-272h-29v271l-227 403h32l107 -188c33 -59 67 -119 99 -180zM-54 494l-14 -10c-33 37 -51 74 -51 107c0 39 25 72 80 89l7 -31c-45 -19 -59 -40 -59 -69c0 -25 16 -58 37 -86z" />
    <glyph glyph-name="uni1F5B" unicode="&#x1f5b;" horiz-adv-x="512" 
d="M248 306h7l100 172l114 196h33l-236 -402v-272h-29v271l-227 403h32l107 -188c33 -59 67 -119 99 -180zM-7 497l-15 -7l-102 177l37 15zM-165 491l-14 -10c-33 37 -51 74 -51 107c0 39 25 72 80 89l7 -31c-45 -19 -59 -40 -59 -69c0 -25 16 -58 37 -86z" />
    <glyph glyph-name="uni1F5D" unicode="&#x1f5d;" horiz-adv-x="512" 
d="M248 306h7l100 172l114 196h33l-236 -402v-272h-29v271l-227 403h32l107 -188c33 -59 67 -119 99 -180zM-122 492l-15 7l80 185l37 -15zM-174 499l-14 -10c-33 37 -51 74 -51 107c0 39 25 72 80 89l7 -31c-45 -19 -59 -40 -59 -69c0 -25 16 -58 37 -86z" />
    <glyph glyph-name="uni1F5F" unicode="&#x1f5f;" horiz-adv-x="512" 
d="M248 306h7l100 172l114 196h33l-236 -402v-272h-29v271l-227 403h32l107 -188c33 -59 67 -119 99 -180zM-143 429l-14 -9c-34 33 -52 66 -52 95c0 35 25 64 81 79l7 -28c-46 -16 -60 -35 -60 -61c0 -22 17 -51 38 -76zM-97 657c28 0 43 9 63 42l18 -9
c-18 -44 -51 -59 -82 -59c-44 0 -96 38 -130 38c-24 0 -40 -9 -60 -42l-19 9c17 41 50 59 81 59c44 0 98 -38 129 -38z" />
    <glyph glyph-name="uni1F60" unicode="&#x1f60;" horiz-adv-x="777" 
d="M727 236c0 -118 -27 -244 -184 -244c-81 0 -130 47 -151 93h-4c-23 -44 -69 -93 -154 -93c-157 0 -184 110 -184 244c0 139 49 250 202 252v-25c-135 -3 -174 -99 -174 -227c0 -127 27 -221 156 -221c89 0 141 71 141 144v157h28v-167c0 -68 62 -134 140 -134
c129 0 156 103 156 221c0 121 -44 222 -174 227v25c150 -3 202 -117 202 -252zM383 534l-14 10c21 28 37 61 37 86c0 29 -14 50 -59 69l7 31c55 -17 80 -50 80 -89c0 -33 -18 -70 -51 -107z" />
    <glyph glyph-name="uni1F61" unicode="&#x1f61;" horiz-adv-x="777" 
d="M727 236c0 -118 -27 -244 -184 -244c-81 0 -130 47 -151 93h-4c-23 -44 -69 -93 -154 -93c-157 0 -184 110 -184 244c0 139 49 250 202 252v-25c-135 -3 -174 -99 -174 -227c0 -127 27 -221 156 -221c89 0 141 71 141 144v157h28v-167c0 -68 62 -134 140 -134
c129 0 156 103 156 221c0 121 -44 222 -174 227v25c150 -3 202 -117 202 -252zM412 544l-14 -10c-33 37 -51 74 -51 107c0 39 25 72 80 89l7 -31c-45 -19 -59 -40 -59 -69c0 -25 16 -58 37 -86z" />
    <glyph glyph-name="uni1F62" unicode="&#x1f62;" horiz-adv-x="777" 
d="M727 236c0 -118 -27 -244 -184 -244c-81 0 -130 47 -151 93h-4c-23 -44 -69 -93 -154 -93c-157 0 -184 110 -184 244c0 139 49 250 202 252v-25c-135 -3 -174 -99 -174 -227c0 -127 27 -221 156 -221c89 0 141 71 141 144v157h28v-167c0 -68 62 -134 140 -134
c129 0 156 103 156 221c0 121 -44 222 -174 227v25c150 -3 202 -117 202 -252zM311 534l-14 10c21 28 37 61 37 86c0 29 -14 50 -59 69l7 31c55 -17 80 -50 80 -89c0 -33 -18 -70 -51 -107zM506 547l-15 -7l-102 177l37 15z" />
    <glyph glyph-name="uni1F63" unicode="&#x1f63;" horiz-adv-x="777" 
d="M727 236c0 -118 -27 -244 -184 -244c-81 0 -130 47 -151 93h-4c-23 -44 -69 -93 -154 -93c-157 0 -184 110 -184 244c0 139 49 250 202 252v-25c-135 -3 -174 -99 -174 -227c0 -127 27 -221 156 -221c89 0 141 71 141 144v157h28v-167c0 -68 62 -134 140 -134
c129 0 156 103 156 221c0 121 -44 222 -174 227v25c150 -3 202 -117 202 -252zM507 547l-15 -7l-102 177l37 15zM349 541l-14 -10c-33 37 -51 74 -51 107c0 39 25 72 80 89l7 -31c-45 -19 -59 -40 -59 -69c0 -25 16 -58 37 -86z" />
    <glyph glyph-name="uni1F64" unicode="&#x1f64;" horiz-adv-x="777" 
d="M727 236c0 -118 -27 -244 -184 -244c-81 0 -130 47 -151 93h-4c-23 -44 -69 -93 -154 -93c-157 0 -184 110 -184 244c0 139 49 250 202 252v-25c-135 -3 -174 -99 -174 -227c0 -127 27 -221 156 -221c89 0 141 71 141 144v157h28v-167c0 -68 62 -134 140 -134
c129 0 156 103 156 221c0 121 -44 222 -174 227v25c150 -3 202 -117 202 -252zM432 538l-15 7l80 185l37 -15zM344 539l-14 10c21 28 37 61 37 86c0 29 -14 50 -59 69l7 31c55 -17 80 -50 80 -89c0 -33 -18 -70 -51 -107z" />
    <glyph glyph-name="uni1F65" unicode="&#x1f65;" horiz-adv-x="777" 
d="M727 236c0 -118 -27 -244 -184 -244c-81 0 -130 47 -151 93h-4c-23 -44 -69 -93 -154 -93c-157 0 -184 110 -184 244c0 139 49 250 202 252v-25c-135 -3 -174 -99 -174 -227c0 -127 27 -221 156 -221c89 0 141 71 141 144v157h28v-167c0 -68 62 -134 140 -134
c129 0 156 103 156 221c0 121 -44 222 -174 227v25c150 -3 202 -117 202 -252zM428 540l-15 7l80 185l37 -15zM376 547l-14 -10c-33 37 -51 74 -51 107c0 39 25 72 80 89l7 -31c-45 -19 -59 -40 -59 -69c0 -25 16 -58 37 -86z" />
    <glyph glyph-name="uni1F66" unicode="&#x1f66;" horiz-adv-x="777" 
d="M727 236c0 -118 -27 -244 -184 -244c-81 0 -130 47 -151 93h-4c-23 -44 -69 -93 -154 -93c-157 0 -184 110 -184 244c0 139 49 250 202 252v-25c-135 -3 -174 -99 -174 -227c0 -127 27 -221 156 -221c89 0 141 71 141 144v157h28v-167c0 -68 62 -134 140 -134
c129 0 156 103 156 221c0 121 -44 222 -174 227v25c150 -3 202 -117 202 -252zM388 536l-14 9c21 25 38 54 38 76c0 26 -14 45 -60 61l7 28c56 -15 81 -44 81 -79c0 -29 -18 -62 -52 -95zM455 762c28 0 43 9 63 42l18 -9c-18 -44 -51 -59 -82 -59c-44 0 -96 38 -130 38
c-24 0 -40 -9 -60 -42l-19 9c17 41 50 59 81 59c44 0 98 -38 129 -38z" />
    <glyph glyph-name="uni1F67" unicode="&#x1f67;" horiz-adv-x="777" 
d="M727 236c0 -118 -27 -244 -184 -244c-81 0 -130 47 -151 93h-4c-23 -44 -69 -93 -154 -93c-157 0 -184 110 -184 244c0 139 49 250 202 252v-25c-135 -3 -174 -99 -174 -227c0 -127 27 -221 156 -221c89 0 141 71 141 144v157h28v-167c0 -68 62 -134 140 -134
c129 0 156 103 156 221c0 121 -44 222 -174 227v25c150 -3 202 -117 202 -252zM406 528l-14 -9c-34 33 -52 66 -52 95c0 35 25 64 81 79l7 -28c-46 -16 -60 -35 -60 -61c0 -22 17 -51 38 -76zM452 756c28 0 43 9 63 42l18 -9c-18 -44 -51 -59 -82 -59c-44 0 -96 38 -130 38
c-24 0 -40 -9 -60 -42l-19 9c17 41 50 59 81 59c44 0 98 -38 129 -38z" />
    <glyph glyph-name="uni1F68" unicode="&#x1f68;" horiz-adv-x="689" 
d="M347 682c210 0 287 -166 287 -342c0 -131 -41 -257 -138 -310v-4h155v-26h-215v30c104 36 169 128 169 310c0 186 -84 318 -260 318c-179 0 -261 -134 -261 -319c0 -195 58 -268 167 -309v-30h-213v26h150v4c-100 52 -131 161 -131 309c0 199 90 343 290 343zM-42 484
l-14 10c21 28 37 61 37 86c0 29 -14 50 -59 69l7 31c55 -17 80 -50 80 -89c0 -33 -18 -70 -51 -107z" />
    <glyph glyph-name="uni1F69" unicode="&#x1f69;" horiz-adv-x="689" 
d="M347 682c210 0 287 -166 287 -342c0 -131 -41 -257 -138 -310v-4h155v-26h-215v30c104 36 169 128 169 310c0 186 -84 318 -260 318c-179 0 -261 -134 -261 -319c0 -195 58 -268 167 -309v-30h-213v26h150v4c-100 52 -131 161 -131 309c0 199 90 343 290 343zM-18 491
l-14 -10c-33 37 -51 74 -51 107c0 39 25 72 80 89l7 -31c-45 -19 -59 -40 -59 -69c0 -25 16 -58 37 -86z" />
    <glyph glyph-name="uni1F6A" unicode="&#x1f6a;" horiz-adv-x="689" 
d="M347 682c210 0 287 -166 287 -342c0 -131 -41 -257 -138 -310v-4h155v-26h-215v30c104 36 169 128 169 310c0 186 -84 318 -260 318c-179 0 -261 -134 -261 -319c0 -195 58 -268 167 -309v-30h-213v26h150v4c-100 52 -131 161 -131 309c0 199 90 343 290 343zM-171 480
l-14 10c21 28 37 61 37 86c0 29 -14 50 -59 69l7 31c55 -17 80 -50 80 -89c0 -33 -18 -70 -51 -107zM24 493l-15 -7l-102 177l37 15z" />
    <glyph glyph-name="uni1F6B" unicode="&#x1f6b;" horiz-adv-x="689" 
d="M347 682c210 0 287 -166 287 -342c0 -131 -41 -257 -138 -310v-4h155v-26h-215v30c104 36 169 128 169 310c0 186 -84 318 -260 318c-179 0 -261 -134 -261 -319c0 -195 58 -268 167 -309v-30h-213v26h150v4c-100 52 -131 161 -131 309c0 199 90 343 290 343zM19 502
l-15 -7l-102 177l37 15zM-139 496l-14 -10c-33 37 -51 74 -51 107c0 39 25 72 80 89l7 -31c-45 -19 -59 -40 -59 -69c0 -25 16 -58 37 -86z" />
    <glyph glyph-name="uni1F6C" unicode="&#x1f6c;" horiz-adv-x="689" 
d="M347 682c210 0 287 -166 287 -342c0 -131 -41 -257 -138 -310v-4h155v-26h-215v30c104 36 169 128 169 310c0 186 -84 318 -260 318c-179 0 -261 -134 -261 -319c0 -195 58 -268 167 -309v-30h-213v26h150v4c-100 52 -131 161 -131 309c0 199 90 343 290 343zM-57 487
l-15 7l80 185l37 -15zM-145 488l-14 10c21 28 37 61 37 86c0 29 -14 50 -59 69l7 31c55 -17 80 -50 80 -89c0 -33 -18 -70 -51 -107z" />
    <glyph glyph-name="uni1F6D" unicode="&#x1f6d;" horiz-adv-x="689" 
d="M347 682c210 0 287 -166 287 -342c0 -131 -41 -257 -138 -310v-4h155v-26h-215v30c104 36 169 128 169 310c0 186 -84 318 -260 318c-179 0 -261 -134 -261 -319c0 -195 58 -268 167 -309v-30h-213v26h150v4c-100 52 -131 161 -131 309c0 199 90 343 290 343zM-41 488
l-15 7l80 185l37 -15zM-93 495l-14 -10c-33 37 -51 74 -51 107c0 39 25 72 80 89l7 -31c-45 -19 -59 -40 -59 -69c0 -25 16 -58 37 -86z" />
    <glyph glyph-name="uni1F6E" unicode="&#x1f6e;" horiz-adv-x="689" 
d="M347 682c210 0 287 -166 287 -342c0 -131 -41 -257 -138 -310v-4h155v-26h-215v30c104 36 169 128 169 310c0 186 -84 318 -260 318c-179 0 -261 -134 -261 -319c0 -195 58 -268 167 -309v-30h-213v26h150v4c-100 52 -131 161 -131 309c0 199 90 343 290 343zM-71 424
l-14 9c21 25 38 54 38 76c0 26 -14 45 -60 61l7 28c56 -15 81 -44 81 -79c0 -29 -18 -62 -52 -95zM-4 650c28 0 43 9 63 42l18 -9c-18 -44 -51 -59 -82 -59c-44 0 -96 38 -130 38c-24 0 -40 -9 -60 -42l-19 9c17 41 50 59 81 59c44 0 98 -38 129 -38z" />
    <glyph glyph-name="uni1F6F" unicode="&#x1f6f;" horiz-adv-x="689" 
d="M347 682c210 0 287 -166 287 -342c0 -131 -41 -257 -138 -310v-4h155v-26h-215v30c104 36 169 128 169 310c0 186 -84 318 -260 318c-179 0 -261 -134 -261 -319c0 -195 58 -268 167 -309v-30h-213v26h150v4c-100 52 -131 161 -131 309c0 199 90 343 290 343zM-46 425
l-14 -9c-34 33 -52 66 -52 95c0 35 25 64 81 79l7 -28c-46 -16 -60 -35 -60 -61c0 -22 17 -51 38 -76zM0 653c28 0 43 9 63 42l18 -9c-18 -44 -51 -59 -82 -59c-44 0 -96 38 -130 38c-24 0 -40 -9 -60 -42l-19 9c17 41 50 59 81 59c44 0 98 -38 129 -38z" />
    <glyph glyph-name="uni1F70" unicode="&#x1f70;" horiz-adv-x="515" 
d="M254 16c123 0 174 109 174 196v70c0 108 -60 181 -171 181c-123 0 -179 -85 -179 -228c0 -131 40 -219 176 -219zM455 478v-478h-21c-7 19 -6 55 -6 93h-4c-43 -74 -103 -101 -173 -101c-154 0 -201 102 -201 243c0 142 62 251 207 251c76 0 133 -25 167 -84h4
c0 34 0 59 6 76h21zM306 545l-15 -7l-102 177l37 15z" />
    <glyph glyph-name="uni1F71" unicode="&#x1f71;" horiz-adv-x="515" 
d="M254 16c123 0 174 109 174 196v70c0 108 -60 181 -171 181c-123 0 -179 -85 -179 -228c0 -131 40 -219 176 -219zM455 478v-478h-21c-7 19 -6 55 -6 93h-4c-43 -74 -103 -101 -173 -101c-154 0 -201 102 -201 243c0 142 62 251 207 251c76 0 133 -25 167 -84h4
c0 34 0 59 6 76h21zM257 538l-15 7l80 185l37 -15z" />
    <glyph glyph-name="uni1F72" unicode="&#x1f72;" horiz-adv-x="441" 
d="M232 15c133 0 157 79 158 133h20c1 -5 1 -9 1 -12c0 -91 -70 -144 -181 -144c-135 0 -185 66 -185 139c0 39 13 100 82 125v4c-59 20 -72 59 -72 96c0 69 48 130 176 130c86 0 165 -46 165 -129c0 -3 0 -7 -1 -12h-21c-1 54 -36 118 -148 118c-74 0 -141 -31 -141 -105
c0 -63 57 -84 105 -84h97v-27h-101c-70 0 -112 -52 -112 -115c0 -64 45 -117 158 -117zM266 545l-15 -7l-102 177l37 15z" />
    <glyph glyph-name="uni1F73" unicode="&#x1f73;" horiz-adv-x="441" 
d="M232 15c133 0 157 79 158 133h20c1 -5 1 -9 1 -12c0 -91 -70 -144 -181 -144c-135 0 -185 66 -185 139c0 39 13 100 82 125v4c-59 20 -72 59 -72 96c0 69 48 130 176 130c86 0 165 -46 165 -129c0 -3 0 -7 -1 -12h-21c-1 54 -36 118 -148 118c-74 0 -141 -31 -141 -105
c0 -63 57 -84 105 -84h97v-27h-101c-70 0 -112 -52 -112 -115c0 -64 45 -117 158 -117zM227 538l-15 7l80 185l37 -15z" />
    <glyph glyph-name="uni1F74" unicode="&#x1f74;" horiz-adv-x="506" 
d="M60 0v478h21c8 -20 6 -45 6 -83h4c45 76 123 92 179 92c151 0 178 -98 178 -203v-284h-28v272c0 77 -6 190 -153 190c-119 0 -180 -92 -180 -189v-273h-27zM255 545l-15 -7l-102 177l37 15z" />
    <glyph glyph-name="uni1F75" unicode="&#x1f75;" horiz-adv-x="506" 
d="M60 0v478h21c8 -20 6 -45 6 -83h4c45 76 123 92 179 92c151 0 178 -98 178 -203v-284h-28v272c0 77 -6 190 -153 190c-119 0 -180 -92 -180 -189v-273h-27zM218 538l-15 7l80 185l37 -15z" />
    <glyph glyph-name="uni1F76" unicode="&#x1f76;" horiz-adv-x="210" 
d="M92 0v478h27v-478h-27zM124 545l-15 -7l-102 177l37 15z" />
    <glyph glyph-name="uni1F77" unicode="&#x1f77;" horiz-adv-x="210" 
d="M92 0v478h27v-478h-27zM113 538l-15 7l80 185l37 -15z" />
    <glyph glyph-name="uni1F78" unicode="&#x1f78;" horiz-adv-x="521" 
d="M263 486c165 0 208 -121 208 -249c0 -126 -47 -245 -209 -245c-161 0 -212 92 -212 241c0 145 58 253 213 253zM263 463c-135 0 -185 -98 -185 -230c0 -146 51 -218 185 -218c114 0 180 69 180 222c0 128 -45 226 -180 226zM298 545l-15 -7l-102 177l37 15z" />
    <glyph glyph-name="uni1F79" unicode="&#x1f79;" horiz-adv-x="521" 
d="M263 486c165 0 208 -121 208 -249c0 -126 -47 -245 -209 -245c-161 0 -212 92 -212 241c0 145 58 253 213 253zM263 463c-135 0 -185 -98 -185 -230c0 -146 51 -218 185 -218c114 0 180 69 180 222c0 128 -45 226 -180 226zM251 538l-15 7l80 185l37 -15z" />
    <glyph glyph-name="uni1F7A" unicode="&#x1f7a;" horiz-adv-x="509" 
d="M455 179c0 -127 -82 -187 -204 -187c-124 0 -196 62 -196 187v299h27v-302c0 -119 81 -161 170 -161c87 0 175 42 175 162v301h28v-299zM293 545l-15 -7l-102 177l37 15z" />
    <glyph glyph-name="uni1F7B" unicode="&#x1f7b;" horiz-adv-x="509" 
d="M455 179c0 -127 -82 -187 -204 -187c-124 0 -196 62 -196 187v299h27v-302c0 -119 81 -161 170 -161c87 0 175 42 175 162v301h28v-299zM228 538l-15 7l80 185l37 -15z" />
    <glyph glyph-name="uni1F7C" unicode="&#x1f7c;" horiz-adv-x="777" 
d="M727 236c0 -118 -27 -244 -184 -244c-81 0 -130 47 -151 93h-4c-23 -44 -69 -93 -154 -93c-157 0 -184 110 -184 244c0 139 49 250 202 252v-25c-135 -3 -174 -99 -174 -227c0 -127 27 -221 156 -221c89 0 141 71 141 144v157h28v-167c0 -68 62 -134 140 -134
c129 0 156 103 156 221c0 121 -44 222 -174 227v25c150 -3 202 -117 202 -252zM411 545l-15 -7l-102 177l37 15z" />
    <glyph glyph-name="uni1F7D" unicode="&#x1f7d;" horiz-adv-x="777" 
d="M727 236c0 -118 -27 -244 -184 -244c-81 0 -130 47 -151 93h-4c-23 -44 -69 -93 -154 -93c-157 0 -184 110 -184 244c0 139 49 250 202 252v-25c-135 -3 -174 -99 -174 -227c0 -127 27 -221 156 -221c89 0 141 71 141 144v157h28v-167c0 -68 62 -134 140 -134
c129 0 156 103 156 221c0 121 -44 222 -174 227v25c150 -3 202 -117 202 -252zM391 538l-15 7l80 185l37 -15z" />
    <glyph glyph-name="uni1F80" unicode="&#x1f80;" horiz-adv-x="515" 
d="M254 16c123 0 174 109 174 196v70c0 108 -60 181 -171 181c-123 0 -179 -85 -179 -228c0 -131 40 -219 176 -219zM455 478v-478h-21c-7 19 -6 55 -6 93h-4c-43 -74 -103 -101 -173 -101c-154 0 -201 102 -201 243c0 142 62 251 207 251c76 0 133 -25 167 -84h4
c0 34 0 59 6 76h21zM263 534l-14 10c21 28 37 61 37 86c0 29 -14 50 -59 69l7 31c55 -17 80 -50 80 -89c0 -33 -18 -70 -51 -107zM256 -61h26v-99c0 -61 19 -60 82 -60v-23c-18 -3 -32 -3 -41 -3c-46 0 -67 17 -67 77v108z" />
    <glyph glyph-name="uni1F81" unicode="&#x1f81;" horiz-adv-x="515" 
d="M254 16c123 0 174 109 174 196v70c0 108 -60 181 -171 181c-123 0 -179 -85 -179 -228c0 -131 40 -219 176 -219zM455 478v-478h-21c-7 19 -6 55 -6 93h-4c-43 -74 -103 -101 -173 -101c-154 0 -201 102 -201 243c0 142 62 251 207 251c76 0 133 -25 167 -84h4
c0 34 0 59 6 76h21zM297 544l-14 -10c-33 37 -51 74 -51 107c0 39 25 72 80 89l7 -31c-45 -19 -59 -40 -59 -69c0 -25 16 -58 37 -86zM254 -61h26v-99c0 -61 19 -60 82 -60v-23c-18 -3 -32 -3 -41 -3c-46 0 -67 17 -67 77v108z" />
    <glyph glyph-name="uni1F82" unicode="&#x1f82;" horiz-adv-x="515" 
d="M254 16c123 0 174 109 174 196v70c0 108 -60 181 -171 181c-123 0 -179 -85 -179 -228c0 -131 40 -219 176 -219zM455 478v-478h-21c-7 19 -6 55 -6 93h-4c-43 -74 -103 -101 -173 -101c-154 0 -201 102 -201 243c0 142 62 251 207 251c76 0 133 -25 167 -84h4
c0 34 0 59 6 76h21zM180 534l-14 10c21 28 37 61 37 86c0 29 -14 50 -59 69l7 31c55 -17 80 -50 80 -89c0 -33 -18 -70 -51 -107zM375 547l-15 -7l-102 177l37 15zM267 -61h26v-99c0 -61 19 -60 82 -60v-23c-18 -3 -32 -3 -41 -3c-46 0 -67 17 -67 77v108z" />
    <glyph glyph-name="uni1F83" unicode="&#x1f83;" horiz-adv-x="515" 
d="M254 16c123 0 174 109 174 196v70c0 108 -60 181 -171 181c-123 0 -179 -85 -179 -228c0 -131 40 -219 176 -219zM455 478v-478h-21c-7 19 -6 55 -6 93h-4c-43 -74 -103 -101 -173 -101c-154 0 -201 102 -201 243c0 142 62 251 207 251c76 0 133 -25 167 -84h4
c0 34 0 59 6 76h21zM373 547l-15 -7l-102 177l37 15zM215 541l-14 -10c-33 37 -51 74 -51 107c0 39 25 72 80 89l7 -31c-45 -19 -59 -40 -59 -69c0 -25 16 -58 37 -86zM267 -61h26v-99c0 -61 19 -60 82 -60v-23c-18 -3 -32 -3 -41 -3c-46 0 -67 17 -67 77v108z" />
    <glyph glyph-name="uni1F84" unicode="&#x1f84;" horiz-adv-x="515" 
d="M254 16c123 0 174 109 174 196v70c0 108 -60 181 -171 181c-123 0 -179 -85 -179 -228c0 -131 40 -219 176 -219zM455 478v-478h-21c-7 19 -6 55 -6 93h-4c-43 -74 -103 -101 -173 -101c-154 0 -201 102 -201 243c0 142 62 251 207 251c76 0 133 -25 167 -84h4
c0 34 0 59 6 76h21zM298 538l-15 7l80 185l37 -15zM210 539l-14 10c21 28 37 61 37 86c0 29 -14 50 -59 69l7 31c55 -17 80 -50 80 -89c0 -33 -18 -70 -51 -107zM252 -61h26v-99c0 -61 19 -60 82 -60v-23c-18 -3 -32 -3 -41 -3c-46 0 -67 17 -67 77v108z" />
    <glyph glyph-name="uni1F85" unicode="&#x1f85;" horiz-adv-x="515" 
d="M254 16c123 0 174 109 174 196v70c0 108 -60 181 -171 181c-123 0 -179 -85 -179 -228c0 -131 40 -219 176 -219zM455 478v-478h-21c-7 19 -6 55 -6 93h-4c-43 -74 -103 -101 -173 -101c-154 0 -201 102 -201 243c0 142 62 251 207 251c76 0 133 -25 167 -84h4
c0 34 0 59 6 76h21zM290 540l-15 7l80 185l37 -15zM238 547l-14 -10c-33 37 -51 74 -51 107c0 39 25 72 80 89l7 -31c-45 -19 -59 -40 -59 -69c0 -25 16 -58 37 -86zM253 -61h26v-99c0 -61 19 -60 82 -60v-23c-18 -3 -32 -3 -41 -3c-46 0 -67 17 -67 77v108z" />
    <glyph glyph-name="uni1F86" unicode="&#x1f86;" horiz-adv-x="515" 
d="M254 16c123 0 174 109 174 196v70c0 108 -60 181 -171 181c-123 0 -179 -85 -179 -228c0 -131 40 -219 176 -219zM455 478v-478h-21c-7 19 -6 55 -6 93h-4c-43 -74 -103 -101 -173 -101c-154 0 -201 102 -201 243c0 142 62 251 207 251c76 0 133 -25 167 -84h4
c0 34 0 59 6 76h21zM250 539l-14 9c21 25 38 54 38 76c0 26 -14 45 -60 61l7 28c56 -15 81 -44 81 -79c0 -29 -18 -62 -52 -95zM317 765c28 0 43 9 63 42l18 -9c-18 -44 -51 -59 -82 -59c-44 0 -96 38 -130 38c-24 0 -40 -9 -60 -42l-19 9c17 41 50 59 81 59
c44 0 98 -38 129 -38zM247 -61h26v-99c0 -61 19 -60 82 -60v-23c-18 -3 -32 -3 -41 -3c-46 0 -67 17 -67 77v108z" />
    <glyph glyph-name="uni1F87" unicode="&#x1f87;" horiz-adv-x="515" 
d="M254 16c123 0 174 109 174 196v70c0 108 -60 181 -171 181c-123 0 -179 -85 -179 -228c0 -131 40 -219 176 -219zM455 478v-478h-21c-7 19 -6 55 -6 93h-4c-43 -74 -103 -101 -173 -101c-154 0 -201 102 -201 243c0 142 62 251 207 251c76 0 133 -25 167 -84h4
c0 34 0 59 6 76h21zM274 551l-14 -9c-34 33 -52 66 -52 95c0 35 25 64 81 79l7 -28c-46 -16 -60 -35 -60 -61c0 -22 17 -51 38 -76zM320 779c28 0 43 9 63 42l18 -9c-18 -44 -51 -59 -82 -59c-44 0 -96 38 -130 38c-24 0 -40 -9 -60 -42l-19 9c17 41 50 59 81 59
c44 0 98 -38 129 -38zM251 -61h26v-99c0 -61 19 -60 82 -60v-23c-18 -3 -32 -3 -41 -3c-46 0 -67 17 -67 77v108z" />
    <glyph glyph-name="uni1F90" unicode="&#x1f90;" horiz-adv-x="506" 
d="M60 0v478h21c8 -20 6 -45 6 -83h4c45 76 123 92 179 92c151 0 178 -98 178 -203v-284h-28v272c0 77 -6 190 -153 190c-119 0 -180 -92 -180 -189v-273h-27zM231 534l-14 10c21 28 37 61 37 86c0 29 -14 50 -59 69l7 31c55 -17 80 -50 80 -89c0 -33 -18 -70 -51 -107z
M252 -61h26v-99c0 -61 19 -60 82 -60v-23c-18 -3 -32 -3 -41 -3c-46 0 -67 17 -67 77v108z" />
    <glyph glyph-name="uni1F91" unicode="&#x1f91;" horiz-adv-x="506" 
d="M60 0v478h21c8 -20 6 -45 6 -83h4c45 76 123 92 179 92c151 0 178 -98 178 -203v-284h-28v272c0 77 -6 190 -153 190c-119 0 -180 -92 -180 -189v-273h-27zM276 544l-14 -10c-33 37 -51 74 -51 107c0 39 25 72 80 89l7 -31c-45 -19 -59 -40 -59 -69c0 -25 16 -58 37 -86z
M247 -61h26v-99c0 -61 19 -60 82 -60v-23c-18 -3 -32 -3 -41 -3c-46 0 -67 17 -67 77v108z" />
    <glyph glyph-name="uni1F92" unicode="&#x1f92;" horiz-adv-x="506" 
d="M60 0v478h21c8 -20 6 -45 6 -83h4c45 76 123 92 179 92c151 0 178 -98 178 -203v-284h-28v272c0 77 -6 190 -153 190c-119 0 -180 -92 -180 -189v-273h-27zM161 534l-14 10c21 28 37 61 37 86c0 29 -14 50 -59 69l7 31c55 -17 80 -50 80 -89c0 -33 -18 -70 -51 -107z
M356 547l-15 -7l-102 177l37 15zM245 -61h26v-99c0 -61 19 -60 82 -60v-23c-18 -3 -32 -3 -41 -3c-46 0 -67 17 -67 77v108z" />
    <glyph glyph-name="uni1F93" unicode="&#x1f93;" horiz-adv-x="506" 
d="M60 0v478h21c8 -20 6 -45 6 -83h4c45 76 123 92 179 92c151 0 178 -98 178 -203v-284h-28v272c0 77 -6 190 -153 190c-119 0 -180 -92 -180 -189v-273h-27zM357 547l-15 -7l-102 177l37 15zM199 541l-14 -10c-33 37 -51 74 -51 107c0 39 25 72 80 89l7 -31
c-45 -19 -59 -40 -59 -69c0 -25 16 -58 37 -86zM247 -61h26v-99c0 -61 19 -60 82 -60v-23c-18 -3 -32 -3 -41 -3c-46 0 -67 17 -67 77v108z" />
    <glyph glyph-name="uni1F94" unicode="&#x1f94;" horiz-adv-x="506" 
d="M60 0v478h21c8 -20 6 -45 6 -83h4c45 76 123 92 179 92c151 0 178 -98 178 -203v-284h-28v272c0 77 -6 190 -153 190c-119 0 -180 -92 -180 -189v-273h-27zM277 538l-15 7l80 185l37 -15zM189 539l-14 10c21 28 37 61 37 86c0 29 -14 50 -59 69l7 31
c55 -17 80 -50 80 -89c0 -33 -18 -70 -51 -107zM245 -61h26v-99c0 -61 19 -60 82 -60v-23c-18 -3 -32 -3 -41 -3c-46 0 -67 17 -67 77v108z" />
    <glyph glyph-name="uni1F95" unicode="&#x1f95;" horiz-adv-x="506" 
d="M60 0v478h21c8 -20 6 -45 6 -83h4c45 76 123 92 179 92c151 0 178 -98 178 -203v-284h-28v272c0 77 -6 190 -153 190c-119 0 -180 -92 -180 -189v-273h-27zM280 540l-15 7l80 185l37 -15zM228 547l-14 -10c-33 37 -51 74 -51 107c0 39 25 72 80 89l7 -31
c-45 -19 -59 -40 -59 -69c0 -25 16 -58 37 -86zM241 -61h26v-99c0 -61 19 -60 82 -60v-23c-18 -3 -32 -3 -41 -3c-46 0 -67 17 -67 77v108z" />
    <glyph glyph-name="uni1F96" unicode="&#x1f96;" horiz-adv-x="506" 
d="M60 0v478h21c8 -20 6 -45 6 -83h4c45 76 123 92 179 92c151 0 178 -98 178 -203v-284h-28v272c0 77 -6 190 -153 190c-119 0 -180 -92 -180 -189v-273h-27zM242 539l-14 9c21 25 38 54 38 76c0 26 -14 45 -60 61l7 28c56 -15 81 -44 81 -79c0 -29 -18 -62 -52 -95z
M309 765c28 0 43 9 63 42l18 -9c-18 -44 -51 -59 -82 -59c-44 0 -96 38 -130 38c-24 0 -40 -9 -60 -42l-19 9c17 41 50 59 81 59c44 0 98 -38 129 -38zM244 -61h26v-99c0 -61 19 -60 82 -60v-23c-18 -3 -32 -3 -41 -3c-46 0 -67 17 -67 77v108z" />
    <glyph glyph-name="uni1F97" unicode="&#x1f97;" horiz-adv-x="506" 
d="M60 0v478h21c8 -20 6 -45 6 -83h4c45 76 123 92 179 92c151 0 178 -98 178 -203v-284h-28v272c0 77 -6 190 -153 190c-119 0 -180 -92 -180 -189v-273h-27zM266 547l-14 -9c-34 33 -52 66 -52 95c0 35 25 64 81 79l7 -28c-46 -16 -60 -35 -60 -61c0 -22 17 -51 38 -76z
M312 775c28 0 43 9 63 42l18 -9c-18 -44 -51 -59 -82 -59c-44 0 -96 38 -130 38c-24 0 -40 -9 -60 -42l-19 9c17 41 50 59 81 59c44 0 98 -38 129 -38zM252 -61h26v-99c0 -61 19 -60 82 -60v-23c-18 -3 -32 -3 -41 -3c-46 0 -67 17 -67 77v108z" />
    <glyph glyph-name="uni1FA0" unicode="&#x1fa0;" horiz-adv-x="777" 
d="M727 236c0 -118 -27 -244 -184 -244c-81 0 -130 47 -151 93h-4c-23 -44 -69 -93 -154 -93c-157 0 -184 110 -184 244c0 139 49 250 202 252v-25c-135 -3 -174 -99 -174 -227c0 -127 27 -221 156 -221c89 0 141 71 141 144v157h28v-167c0 -68 62 -134 140 -134
c129 0 156 103 156 221c0 121 -44 222 -174 227v25c150 -3 202 -117 202 -252zM382 552l-14 10c21 28 37 61 37 86c0 29 -14 50 -59 69l7 31c55 -17 80 -50 80 -89c0 -33 -18 -70 -51 -107zM370 -61h26v-99c0 -61 19 -60 82 -60v-23c-18 -3 -32 -3 -41 -3
c-46 0 -67 17 -67 77v108z" />
    <glyph glyph-name="uni1FA1" unicode="&#x1fa1;" horiz-adv-x="777" 
d="M727 236c0 -118 -27 -244 -184 -244c-81 0 -130 47 -151 93h-4c-23 -44 -69 -93 -154 -93c-157 0 -184 110 -184 244c0 139 49 250 202 252v-25c-135 -3 -174 -99 -174 -227c0 -127 27 -221 156 -221c89 0 141 71 141 144v157h28v-167c0 -68 62 -134 140 -134
c129 0 156 103 156 221c0 121 -44 222 -174 227v25c150 -3 202 -117 202 -252zM412 544l-14 -10c-33 37 -51 74 -51 107c0 39 25 72 80 89l7 -31c-45 -19 -59 -40 -59 -69c0 -25 16 -58 37 -86zM371 -61h26v-99c0 -61 19 -60 82 -60v-23c-18 -3 -32 -3 -41 -3
c-46 0 -67 17 -67 77v108z" />
    <glyph glyph-name="uni1FA2" unicode="&#x1fa2;" horiz-adv-x="777" 
d="M727 236c0 -118 -27 -244 -184 -244c-81 0 -130 47 -151 93h-4c-23 -44 -69 -93 -154 -93c-157 0 -184 110 -184 244c0 139 49 250 202 252v-25c-135 -3 -174 -99 -174 -227c0 -127 27 -221 156 -221c89 0 141 71 141 144v157h28v-167c0 -68 62 -134 140 -134
c129 0 156 103 156 221c0 121 -44 222 -174 227v25c150 -3 202 -117 202 -252zM311 534l-14 10c21 28 37 61 37 86c0 29 -14 50 -59 69l7 31c55 -17 80 -50 80 -89c0 -33 -18 -70 -51 -107zM506 547l-15 -7l-102 177l37 15zM370 -61h26v-99c0 -61 19 -60 82 -60v-23
c-18 -3 -32 -3 -41 -3c-46 0 -67 17 -67 77v108z" />
    <glyph glyph-name="uni1FA3" unicode="&#x1fa3;" horiz-adv-x="777" 
d="M727 236c0 -118 -27 -244 -184 -244c-81 0 -130 47 -151 93h-4c-23 -44 -69 -93 -154 -93c-157 0 -184 110 -184 244c0 139 49 250 202 252v-25c-135 -3 -174 -99 -174 -227c0 -127 27 -221 156 -221c89 0 141 71 141 144v157h28v-167c0 -68 62 -134 140 -134
c129 0 156 103 156 221c0 121 -44 222 -174 227v25c150 -3 202 -117 202 -252zM507 547l-15 -7l-102 177l37 15zM349 541l-14 -10c-33 37 -51 74 -51 107c0 39 25 72 80 89l7 -31c-45 -19 -59 -40 -59 -69c0 -25 16 -58 37 -86zM370 -61h26v-99c0 -61 19 -60 82 -60v-23
c-18 -3 -32 -3 -41 -3c-46 0 -67 17 -67 77v108z" />
    <glyph glyph-name="uni1FA4" unicode="&#x1fa4;" horiz-adv-x="777" 
d="M727 236c0 -118 -27 -244 -184 -244c-81 0 -130 47 -151 93h-4c-23 -44 -69 -93 -154 -93c-157 0 -184 110 -184 244c0 139 49 250 202 252v-25c-135 -3 -174 -99 -174 -227c0 -127 27 -221 156 -221c89 0 141 71 141 144v157h28v-167c0 -68 62 -134 140 -134
c129 0 156 103 156 221c0 121 -44 222 -174 227v25c150 -3 202 -117 202 -252zM430 538l-15 7l80 185l37 -15zM342 539l-14 10c21 28 37 61 37 86c0 29 -14 50 -59 69l7 31c55 -17 80 -50 80 -89c0 -33 -18 -70 -51 -107zM370 -61h26v-99c0 -61 19 -60 82 -60v-23
c-18 -3 -32 -3 -41 -3c-46 0 -67 17 -67 77v108z" />
    <glyph glyph-name="uni1FA5" unicode="&#x1fa5;" horiz-adv-x="777" 
d="M727 236c0 -118 -27 -244 -184 -244c-81 0 -130 47 -151 93h-4c-23 -44 -69 -93 -154 -93c-157 0 -184 110 -184 244c0 139 49 250 202 252v-25c-135 -3 -174 -99 -174 -227c0 -127 27 -221 156 -221c89 0 141 71 141 144v157h28v-167c0 -68 62 -134 140 -134
c129 0 156 103 156 221c0 121 -44 222 -174 227v25c150 -3 202 -117 202 -252zM419 540l-15 7l80 185l37 -15zM367 547l-14 -10c-33 37 -51 74 -51 107c0 39 25 72 80 89l7 -31c-45 -19 -59 -40 -59 -69c0 -25 16 -58 37 -86zM370 -61h26v-99c0 -61 19 -60 82 -60v-23
c-18 -3 -32 -3 -41 -3c-46 0 -67 17 -67 77v108z" />
    <glyph glyph-name="uni1FA6" unicode="&#x1fa6;" horiz-adv-x="777" 
d="M727 236c0 -118 -27 -244 -184 -244c-81 0 -130 47 -151 93h-4c-23 -44 -69 -93 -154 -93c-157 0 -184 110 -184 244c0 139 49 250 202 252v-25c-135 -3 -174 -99 -174 -227c0 -127 27 -221 156 -221c89 0 141 71 141 144v157h28v-167c0 -68 62 -134 140 -134
c129 0 156 103 156 221c0 121 -44 222 -174 227v25c150 -3 202 -117 202 -252zM384 519l-14 9c21 25 38 54 38 76c0 26 -14 45 -60 61l7 28c56 -15 81 -44 81 -79c0 -29 -18 -62 -52 -95zM451 745c28 0 43 9 63 42l18 -9c-18 -44 -51 -59 -82 -59c-44 0 -96 38 -130 38
c-24 0 -40 -9 -60 -42l-19 9c17 41 50 59 81 59c44 0 98 -38 129 -38zM370 -61h26v-99c0 -61 19 -60 82 -60v-23c-18 -3 -32 -3 -41 -3c-46 0 -67 17 -67 77v108z" />
    <glyph glyph-name="uni1FA7" unicode="&#x1fa7;" horiz-adv-x="777" 
d="M727 236c0 -118 -27 -244 -184 -244c-81 0 -130 47 -151 93h-4c-23 -44 -69 -93 -154 -93c-157 0 -184 110 -184 244c0 139 49 250 202 252v-25c-135 -3 -174 -99 -174 -227c0 -127 27 -221 156 -221c89 0 141 71 141 144v157h28v-167c0 -68 62 -134 140 -134
c129 0 156 103 156 221c0 121 -44 222 -174 227v25c150 -3 202 -117 202 -252zM419 528l-14 -9c-34 33 -52 66 -52 95c0 35 25 64 81 79l7 -28c-46 -16 -60 -35 -60 -61c0 -22 17 -51 38 -76zM465 756c28 0 43 9 63 42l18 -9c-18 -44 -51 -59 -82 -59c-44 0 -96 38 -130 38
c-24 0 -40 -9 -60 -42l-19 9c17 41 50 59 81 59c44 0 98 -38 129 -38zM370 -61h26v-99c0 -61 19 -60 82 -60v-23c-18 -3 -32 -3 -41 -3c-46 0 -67 17 -67 77v108z" />
    <glyph glyph-name="uni1FB0" unicode="&#x1fb0;" horiz-adv-x="515" 
d="M254 16c123 0 174 109 174 196v70c0 108 -60 181 -171 181c-123 0 -179 -85 -179 -228c0 -131 40 -219 176 -219zM455 478v-478h-21c-7 19 -6 55 -6 93h-4c-43 -74 -103 -101 -173 -101c-154 0 -201 102 -201 243c0 142 62 251 207 251c76 0 133 -25 167 -84h4
c0 34 0 59 6 76h21zM258 548c-96 0 -135 79 -135 132h25c-1 -39 27 -105 111 -105c81 0 111 69 111 105h23c-1 -54 -41 -132 -135 -132z" />
    <glyph glyph-name="uni1FB1" unicode="&#x1fb1;" horiz-adv-x="515" 
d="M254 16c123 0 174 109 174 196v70c0 108 -60 181 -171 181c-123 0 -179 -85 -179 -228c0 -131 40 -219 176 -219zM455 478v-478h-21c-7 19 -6 55 -6 93h-4c-43 -74 -103 -101 -173 -101c-154 0 -201 102 -201 243c0 142 62 251 207 251c76 0 133 -25 167 -84h4
c0 34 0 59 6 76h21zM118 574v26h279v-26h-279z" />
    <glyph glyph-name="uni1FB2" unicode="&#x1fb2;" horiz-adv-x="515" 
d="M254 16c123 0 174 109 174 196v70c0 108 -60 181 -171 181c-123 0 -179 -85 -179 -228c0 -131 40 -219 176 -219zM455 478v-478h-21c-7 19 -6 55 -6 93h-4c-43 -74 -103 -101 -173 -101c-154 0 -201 102 -201 243c0 142 62 251 207 251c76 0 133 -25 167 -84h4
c0 34 0 59 6 76h21zM286 545l-15 -7l-102 177l37 15zM247 -61h26v-99c0 -61 19 -60 82 -60v-23c-18 -3 -32 -3 -41 -3c-46 0 -67 17 -67 77v108z" />
    <glyph glyph-name="uni1FB3" unicode="&#x1fb3;" horiz-adv-x="515" 
d="M254 16c123 0 174 109 174 196v70c0 108 -60 181 -171 181c-123 0 -179 -85 -179 -228c0 -131 40 -219 176 -219zM455 478v-478h-21c-7 19 -6 55 -6 93h-4c-43 -74 -103 -101 -173 -101c-154 0 -201 102 -201 243c0 142 62 251 207 251c76 0 133 -25 167 -84h4
c0 34 0 59 6 76h21zM247 -61h26v-99c0 -61 19 -60 82 -60v-23c-18 -3 -32 -3 -41 -3c-46 0 -67 17 -67 77v108z" />
    <glyph glyph-name="uni1FB4" unicode="&#x1fb4;" horiz-adv-x="515" 
d="M254 16c123 0 174 109 174 196v70c0 108 -60 181 -171 181c-123 0 -179 -85 -179 -228c0 -131 40 -219 176 -219zM455 478v-478h-21c-7 19 -6 55 -6 93h-4c-43 -74 -103 -101 -173 -101c-154 0 -201 102 -201 243c0 142 62 251 207 251c76 0 133 -25 167 -84h4
c0 34 0 59 6 76h21zM257 538l-15 7l80 185l37 -15zM247 -61h26v-99c0 -61 19 -60 82 -60v-23c-18 -3 -32 -3 -41 -3c-46 0 -67 17 -67 77v108z" />
    <glyph glyph-name="uni1FB6" unicode="&#x1fb6;" horiz-adv-x="515" 
d="M254 16c123 0 174 109 174 196v70c0 108 -60 181 -171 181c-123 0 -179 -85 -179 -228c0 -131 40 -219 176 -219zM455 478v-478h-21c-7 19 -6 55 -6 93h-4c-43 -74 -103 -101 -173 -101c-154 0 -201 102 -201 243c0 142 62 251 207 251c76 0 133 -25 167 -84h4
c0 34 0 59 6 76h21zM321 612c28 0 43 9 63 42l18 -9c-18 -44 -51 -59 -82 -59c-44 0 -96 38 -130 38c-24 0 -40 -9 -60 -42l-19 9c17 41 50 59 81 59c44 0 98 -38 129 -38z" />
    <glyph glyph-name="uni1FB7" unicode="&#x1fb7;" horiz-adv-x="515" 
d="M254 16c123 0 174 109 174 196v70c0 108 -60 181 -171 181c-123 0 -179 -85 -179 -228c0 -131 40 -219 176 -219zM455 478v-478h-21c-7 19 -6 55 -6 93h-4c-43 -74 -103 -101 -173 -101c-154 0 -201 102 -201 243c0 142 62 251 207 251c76 0 133 -25 167 -84h4
c0 34 0 59 6 76h21zM267 -61h26v-99c0 -61 19 -60 82 -60v-23c-18 -3 -32 -3 -41 -3c-46 0 -67 17 -67 77v108zM324 608c28 0 43 9 63 42l18 -9c-18 -44 -51 -59 -82 -59c-44 0 -96 38 -130 38c-24 0 -40 -9 -60 -42l-19 9c17 41 50 59 81 59c44 0 98 -38 129 -38z" />
    <glyph glyph-name="uni1FB8" unicode="&#x1fb8;" horiz-adv-x="566" 
d="M525 0l-71 187h-344l-71 -187h-29l255 674h33l258 -674h-31zM285 637h-7c-22 -65 -46 -130 -70 -192l-89 -232h327l-90 232c-25 64 -47 128 -71 192zM281 729c-96 0 -135 79 -135 132h25c-1 -39 27 -105 111 -105c81 0 111 69 111 105h23c-1 -54 -41 -132 -135 -132z" />
    <glyph glyph-name="uni1FB9" unicode="&#x1fb9;" horiz-adv-x="566" 
d="M525 0l-71 187h-344l-71 -187h-29l255 674h33l258 -674h-31zM285 637h-7c-22 -65 -46 -130 -70 -192l-89 -232h327l-90 232c-25 64 -47 128 -71 192zM146 761v29h279v-29h-279z" />
    <glyph glyph-name="uni1FBA" unicode="&#x1fba;" horiz-adv-x="566" 
d="M525 0l-71 187h-344l-71 -187h-29l255 674h33l258 -674h-31zM285 637h-7c-22 -65 -46 -130 -70 -192l-89 -232h327l-90 232c-25 64 -47 128 -71 192zM88 507l-15 -7l-102 177l37 15z" />
    <glyph glyph-name="uni1FBB" unicode="&#x1fbb;" horiz-adv-x="566" 
d="M525 0l-71 187h-344l-71 -187h-29l255 674h33l258 -674h-31zM285 637h-7c-22 -65 -46 -130 -70 -192l-89 -232h327l-90 232c-25 64 -47 128 -71 192zM-11 496l-15 7l80 185l37 -15z" />
    <glyph glyph-name="uni1FC2" unicode="&#x1fc2;" horiz-adv-x="506" 
d="M60 0v478h21c8 -20 6 -45 6 -83h4c45 76 123 92 179 92c151 0 178 -98 178 -203v-284h-28v272c0 77 -6 190 -153 190c-119 0 -180 -92 -180 -189v-273h-27zM270 545l-15 -7l-102 177l37 15zM242 -61h26v-99c0 -61 19 -60 82 -60v-23c-18 -3 -32 -3 -41 -3
c-46 0 -67 17 -67 77v108z" />
    <glyph glyph-name="uni1FC3" unicode="&#x1fc3;" horiz-adv-x="506" 
d="M60 0v478h21c8 -20 6 -45 6 -83h4c45 76 123 92 179 92c151 0 178 -98 178 -203v-284h-28v272c0 77 -6 190 -153 190c-119 0 -180 -92 -180 -189v-273h-27zM240 -61h26v-99c0 -61 19 -60 82 -60v-23c-18 -3 -32 -3 -41 -3c-46 0 -67 17 -67 77v108z" />
    <glyph glyph-name="uni1FC4" unicode="&#x1fc4;" horiz-adv-x="506" 
d="M60 0v478h21c8 -20 6 -45 6 -83h4c45 76 123 92 179 92c151 0 178 -98 178 -203v-284h-28v272c0 77 -6 190 -153 190c-119 0 -180 -92 -180 -189v-273h-27zM240 547l-15 7l80 185l37 -15zM245 -61h26v-99c0 -61 19 -60 82 -60v-23c-18 -3 -32 -3 -41 -3
c-46 0 -67 17 -67 77v108z" />
    <glyph glyph-name="uni1FC6" unicode="&#x1fc6;" horiz-adv-x="524" 
d="M334 608c28 0 43 9 63 42l18 -9c-18 -44 -51 -59 -82 -59c-44 0 -96 38 -130 38c-24 0 -40 -9 -60 -42l-19 9c17 41 50 59 81 59c44 0 98 -38 129 -38zM81 0v478h21c8 -20 6 -45 6 -83h4c45 76 123 92 179 92c151 0 178 -98 178 -203v-284h-28v272c0 77 -6 190 -153 190
c-119 0 -180 -92 -180 -189v-273h-27z" />
    <glyph glyph-name="uni1FC7" unicode="&#x1fc7;" horiz-adv-x="524" 
d="M334 608c28 0 43 9 63 42l18 -9c-18 -44 -51 -59 -82 -59c-44 0 -96 38 -130 38c-24 0 -40 -9 -60 -42l-19 9c17 41 50 59 81 59c44 0 98 -38 129 -38zM81 0v478h21c8 -20 6 -45 6 -83h4c45 76 123 92 179 92c151 0 178 -98 178 -203v-284h-28v272c0 77 -6 190 -153 190
c-119 0 -180 -92 -180 -189v-273h-27zM262 -61h26v-99c0 -61 19 -60 82 -60v-23c-18 -3 -32 -3 -41 -3c-46 0 -67 17 -67 77v108z" />
    <glyph glyph-name="uni1FC8" unicode="&#x1fc8;" horiz-adv-x="519" 
d="M65 0v674h410v-25h-382v-286h353v-25h-353v-313h396v-25h-424zM0 490l-15 -7l-102 177l37 15z" />
    <glyph glyph-name="uni1FC9" unicode="&#x1fc9;" horiz-adv-x="519" 
d="M65 0v674h410v-25h-382v-286h353v-25h-353v-313h396v-25h-424zM-102 483l-15 7l80 185l37 -15z" />
    <glyph glyph-name="uni1FCA" unicode="&#x1fca;" horiz-adv-x="628" 
d="M534 0v338h-442v-338h-27v675h27v-312h442v312h29v-675h-29zM-1 490l-15 -7l-102 177l37 15z" />
    <glyph glyph-name="uni1FCB" unicode="&#x1fcb;" horiz-adv-x="628" 
d="M534 0v338h-442v-338h-27v675h27v-312h442v312h29v-675h-29zM-103 482l-15 7l80 185l37 -15z" />
    <glyph glyph-name="uni1FD0" unicode="&#x1fd0;" horiz-adv-x="210" 
d="M92 0v478h27v-478h-27zM104 548c-96 0 -135 79 -135 132h25c-1 -39 27 -105 111 -105c81 0 111 69 111 105h23c-1 -54 -41 -132 -135 -132z" />
    <glyph glyph-name="uni1FD1" unicode="&#x1fd1;" horiz-adv-x="210" 
d="M92 0v478h27v-478h-27zM-32 564v26h279v-26h-279z" />
    <glyph glyph-name="uni1FD6" unicode="&#x1fd6;" horiz-adv-x="210" 
d="M92 0v478h27v-478h-27zM169 608c28 0 43 9 63 42l18 -9c-18 -44 -51 -59 -82 -59c-44 0 -96 38 -130 38c-24 0 -40 -9 -60 -42l-19 9c17 41 50 59 81 59c44 0 98 -38 129 -38z" />
    <glyph glyph-name="uni1FD8" unicode="&#x1fd8;" horiz-adv-x="197" 
d="M85 0v674h27v-674h-27zM99 729c-96 0 -135 79 -135 132h25c-1 -39 27 -105 111 -105c81 0 111 69 111 105h23c-1 -54 -41 -132 -135 -132z" />
    <glyph glyph-name="uni1FD9" unicode="&#x1fd9;" horiz-adv-x="197" 
d="M85 0v674h27v-674h-27zM-39 761v29h279v-29h-279z" />
    <glyph glyph-name="uni1FDA" unicode="&#x1fda;" horiz-adv-x="197" 
d="M85 0v674h27v-674h-27zM-1 490l-15 -7l-102 177l37 15z" />
    <glyph glyph-name="uni1FDB" unicode="&#x1fdb;" horiz-adv-x="197" 
d="M85 0v674h27v-674h-27zM-89 487l-15 7l80 185l37 -15z" />
    <glyph glyph-name="uni1FE0" unicode="&#x1fe0;" horiz-adv-x="509" 
d="M455 179c0 -127 -82 -187 -204 -187c-124 0 -196 62 -196 187v299h27v-302c0 -119 81 -161 170 -161c87 0 175 42 175 162v301h28v-299zM254 548c-96 0 -135 79 -135 132h25c-1 -39 27 -105 111 -105c81 0 111 69 111 105h23c-1 -54 -41 -132 -135 -132z" />
    <glyph glyph-name="uni1FE1" unicode="&#x1fe1;" horiz-adv-x="509" 
d="M455 179c0 -127 -82 -187 -204 -187c-124 0 -196 62 -196 187v299h27v-302c0 -119 81 -161 170 -161c87 0 175 42 175 162v301h28v-299zM116 564v26h279v-26h-279z" />
    <glyph glyph-name="uni1FE4" unicode="&#x1fe4;" horiz-adv-x="520" 
d="M60 -196v442c0 141 58 240 204 240c160 0 206 -118 206 -248c0 -120 -43 -246 -208 -246c-69 0 -141 26 -170 98h-5v-286h-27zM260 16c133 0 181 88 181 225c0 148 -65 222 -177 222c-137 0 -176 -111 -176 -203v-51c0 -96 49 -193 172 -193zM244 534l-14 10
c21 28 37 61 37 86c0 29 -14 50 -59 69l7 31c55 -17 80 -50 80 -89c0 -33 -18 -70 -51 -107z" />
    <glyph glyph-name="uni1FE5" unicode="&#x1fe5;" horiz-adv-x="520" 
d="M60 -196v442c0 141 58 240 204 240c160 0 206 -118 206 -248c0 -120 -43 -246 -208 -246c-69 0 -141 26 -170 98h-5v-286h-27zM260 16c133 0 181 88 181 225c0 148 -65 222 -177 222c-137 0 -176 -111 -176 -203v-51c0 -96 49 -193 172 -193zM280 544l-14 -10
c-33 37 -51 74 -51 107c0 39 25 72 80 89l7 -31c-45 -19 -59 -40 -59 -69c0 -25 16 -58 37 -86z" />
    <glyph glyph-name="uni1FE6" unicode="&#x1fe6;" horiz-adv-x="509" 
d="M455 179c0 -127 -82 -187 -204 -187c-124 0 -196 62 -196 187v299h27v-302c0 -119 81 -161 170 -161c87 0 175 42 175 162v301h28v-299zM318 608c28 0 43 9 63 42l18 -9c-18 -44 -51 -59 -82 -59c-44 0 -96 38 -130 38c-24 0 -40 -9 -60 -42l-19 9c17 41 50 59 81 59
c44 0 98 -38 129 -38z" />
    <glyph glyph-name="uni1FE7" unicode="&#x1fe7;" horiz-adv-x="509" 
d="M455 179c0 -127 -82 -187 -204 -187c-124 0 -196 62 -196 187v299h27v-302c0 -119 81 -161 170 -161c87 0 175 42 175 162v301h28v-299zM315 696c28 0 43 9 63 42l18 -9c-18 -44 -51 -59 -82 -59c-44 0 -96 38 -130 38c-24 0 -40 -9 -60 -42l-19 9c17 41 50 59 81 59
c44 0 98 -38 129 -38zM156 592c0 13 10 24 23 24s24 -11 24 -24s-11 -23 -24 -23s-23 10 -23 23zM309 592c0 13 10 24 23 24s24 -11 24 -24s-11 -23 -24 -23s-23 10 -23 23z" />
    <glyph glyph-name="uni1FE8" unicode="&#x1fe8;" horiz-adv-x="512" 
d="M248 306h7l100 172l114 196h33l-236 -402v-272h-29v271l-227 403h32l107 -188c33 -59 67 -119 99 -180zM252 729c-96 0 -135 79 -135 132h25c-1 -39 27 -105 111 -105c81 0 111 69 111 105h23c-1 -54 -41 -132 -135 -132z" />
    <glyph glyph-name="uni1FE9" unicode="&#x1fe9;" horiz-adv-x="512" 
d="M248 306h7l100 172l114 196h33l-236 -402v-272h-29v271l-227 403h32l107 -188c33 -59 67 -119 99 -180zM113 761v29h279v-29h-279z" />
    <glyph glyph-name="uni1FEA" unicode="&#x1fea;" horiz-adv-x="512" 
d="M248 306h7l100 172l114 196h33l-236 -402v-272h-29v271l-227 403h32l107 -188c33 -59 67 -119 99 -180zM-29 491l-15 -7l-102 177l37 15z" />
    <glyph glyph-name="uni1FEB" unicode="&#x1feb;" horiz-adv-x="512" 
d="M248 306h7l100 172l114 196h33l-236 -402v-272h-29v271l-227 403h32l107 -188c33 -59 67 -119 99 -180zM-137 483l-15 7l80 185l37 -15z" />
    <glyph glyph-name="uni1FEC" unicode="&#x1fec;" horiz-adv-x="540" 
d="M312 258h-219v-258h-28v674h247c137 0 213 -94 213 -211c0 -87 -48 -205 -213 -205zM307 649h-214v-365h214c93 0 189 43 189 180c0 115 -79 185 -189 185zM-71 479l-14 10c21 28 37 61 37 86c0 29 -14 50 -59 69l7 31c55 -17 80 -50 80 -89c0 -33 -18 -70 -51 -107z" />
    <glyph glyph-name="uni1FF2" unicode="&#x1ff2;" horiz-adv-x="777" 
d="M727 236c0 -118 -27 -244 -184 -244c-81 0 -130 47 -151 93h-4c-23 -44 -69 -93 -154 -93c-157 0 -184 110 -184 244c0 139 49 250 202 252v-25c-135 -3 -174 -99 -174 -227c0 -127 27 -221 156 -221c89 0 141 71 141 144v157h28v-167c0 -68 62 -134 140 -134
c129 0 156 103 156 221c0 121 -44 222 -174 227v25c150 -3 202 -117 202 -252zM399 545l-15 -7l-102 177l37 15zM370 -61h26v-99c0 -61 19 -60 82 -60v-23c-18 -3 -32 -3 -41 -3c-46 0 -67 17 -67 77v108z" />
    <glyph glyph-name="uni1FF3" unicode="&#x1ff3;" horiz-adv-x="777" 
d="M727 236c0 -118 -27 -244 -184 -244c-81 0 -130 47 -151 93h-4c-23 -44 -69 -93 -154 -93c-157 0 -184 110 -184 244c0 139 49 250 202 252v-25c-135 -3 -174 -99 -174 -227c0 -127 27 -221 156 -221c89 0 141 71 141 144v157h28v-167c0 -68 62 -134 140 -134
c129 0 156 103 156 221c0 121 -44 222 -174 227v25c150 -3 202 -117 202 -252zM370 -61h26v-99c0 -61 19 -60 82 -60v-23c-18 -3 -32 -3 -41 -3c-46 0 -67 17 -67 77v108z" />
    <glyph glyph-name="uni1FF4" unicode="&#x1ff4;" horiz-adv-x="777" 
d="M727 236c0 -118 -27 -244 -184 -244c-81 0 -130 47 -151 93h-4c-23 -44 -69 -93 -154 -93c-157 0 -184 110 -184 244c0 139 49 250 202 252v-25c-135 -3 -174 -99 -174 -227c0 -127 27 -221 156 -221c89 0 141 71 141 144v157h28v-167c0 -68 62 -134 140 -134
c129 0 156 103 156 221c0 121 -44 222 -174 227v25c150 -3 202 -117 202 -252zM394 538l-15 7l80 185l37 -15zM370 -61h26v-99c0 -61 19 -60 82 -60v-23c-18 -3 -32 -3 -41 -3c-46 0 -67 17 -67 77v108z" />
    <glyph glyph-name="uni1FF6" unicode="&#x1ff6;" horiz-adv-x="777" 
d="M727 236c0 -118 -27 -244 -184 -244c-81 0 -130 47 -151 93h-4c-23 -44 -69 -93 -154 -93c-157 0 -184 110 -184 244c0 139 49 250 202 252v-25c-135 -3 -174 -99 -174 -227c0 -127 27 -221 156 -221c89 0 141 71 141 144v157h28v-167c0 -68 62 -134 140 -134
c129 0 156 103 156 221c0 121 -44 222 -174 227v25c150 -3 202 -117 202 -252zM456 608c28 0 43 9 63 42l18 -9c-18 -44 -51 -59 -82 -59c-44 0 -96 38 -130 38c-24 0 -40 -9 -60 -42l-19 9c17 41 50 59 81 59c44 0 98 -38 129 -38z" />
    <glyph glyph-name="uni1FF7" unicode="&#x1ff7;" horiz-adv-x="777" 
d="M727 236c0 -118 -27 -244 -184 -244c-81 0 -130 47 -151 93h-4c-23 -44 -69 -93 -154 -93c-157 0 -184 110 -184 244c0 139 49 250 202 252v-25c-135 -3 -174 -99 -174 -227c0 -127 27 -221 156 -221c89 0 141 71 141 144v157h28v-167c0 -68 62 -134 140 -134
c129 0 156 103 156 221c0 121 -44 222 -174 227v25c150 -3 202 -117 202 -252zM370 -61h26v-99c0 -61 19 -60 82 -60v-23c-18 -3 -32 -3 -41 -3c-46 0 -67 17 -67 77v108zM455 608c28 0 43 9 63 42l18 -9c-18 -44 -51 -59 -82 -59c-44 0 -96 38 -130 38
c-24 0 -40 -9 -60 -42l-19 9c17 41 50 59 81 59c44 0 98 -38 129 -38z" />
    <glyph glyph-name="uni1FF8" unicode="&#x1ff8;" horiz-adv-x="658" 
d="M332 681c218 0 271 -166 271 -350c0 -171 -59 -337 -280 -337c-210 0 -268 136 -268 336c0 207 71 351 277 351zM330 657c-184 0 -248 -132 -248 -327c0 -215 77 -313 240 -313c161 0 251 98 251 314c0 194 -60 326 -243 326zM6 495l-15 -7l-102 177l37 15z" />
    <glyph glyph-name="uni1FF9" unicode="&#x1ff9;" horiz-adv-x="658" 
d="M332 681c218 0 271 -166 271 -350c0 -171 -59 -337 -280 -337c-210 0 -268 136 -268 336c0 207 71 351 277 351zM330 657c-184 0 -248 -132 -248 -327c0 -215 77 -313 240 -313c161 0 251 98 251 314c0 194 -60 326 -243 326zM-94 488l-15 7l80 185l37 -15z" />
    <glyph glyph-name="uni1FFA" unicode="&#x1ffa;" horiz-adv-x="689" 
d="M347 682c210 0 287 -166 287 -342c0 -131 -41 -257 -138 -310v-4h155v-26h-215v30c104 36 169 128 169 310c0 186 -84 318 -260 318c-179 0 -261 -134 -261 -319c0 -195 58 -268 167 -309v-30h-213v26h150v4c-100 52 -131 161 -131 309c0 199 90 343 290 343zM20 495
l-15 -7l-102 177l37 15z" />
    <glyph glyph-name="uni1FFB" unicode="&#x1ffb;" horiz-adv-x="689" 
d="M347 682c210 0 287 -166 287 -342c0 -131 -41 -257 -138 -310v-4h155v-26h-215v30c104 36 169 128 169 310c0 186 -84 318 -260 318c-179 0 -261 -134 -261 -319c0 -195 58 -268 167 -309v-30h-213v26h150v4c-100 52 -131 161 -131 309c0 199 90 343 290 343zM-66 488
l-15 7l80 185l37 -15z" />
    <glyph glyph-name="uniE24C" unicode="&#xe24c;" horiz-adv-x="566" 
d="M525 0l-71 187h-344l-71 -187h-29l255 674h33l258 -674h-31zM285 637h-7c-22 -65 -46 -130 -70 -192l-89 -232h327l-90 232c-25 64 -47 128 -71 192zM24 484l-14 10c21 28 37 61 37 86c0 29 -14 50 -59 69l7 31c55 -17 80 -50 80 -89c0 -33 -18 -70 -51 -107zM270 -61h26
v-99c0 -61 19 -60 82 -60v-23c-18 -3 -32 -3 -41 -3c-46 0 -67 17 -67 77v108z" />
    <glyph glyph-name="uniE24D" unicode="&#xe24d;" horiz-adv-x="566" 
d="M525 0l-71 187h-344l-71 -187h-29l255 674h33l258 -674h-31zM285 637h-7c-22 -65 -46 -130 -70 -192l-89 -232h327l-90 232c-25 64 -47 128 -71 192zM66 494l-14 -10c-33 37 -51 74 -51 107c0 39 25 72 80 89l7 -31c-45 -19 -59 -40 -59 -69c0 -25 16 -58 37 -86z
M281 -61h26v-99c0 -61 19 -60 82 -60v-23c-18 -3 -32 -3 -41 -3c-46 0 -67 17 -67 77v108z" />
    <glyph glyph-name="uniE24E" unicode="&#xe24e;" horiz-adv-x="566" 
d="M525 0l-71 187h-344l-71 -187h-29l255 674h33l258 -674h-31zM285 637h-7c-22 -65 -46 -130 -70 -192l-89 -232h327l-90 232c-25 64 -47 128 -71 192zM-82 484l-14 10c21 28 37 61 37 86c0 29 -14 50 -59 69l7 31c55 -17 80 -50 80 -89c0 -33 -18 -70 -51 -107zM113 497
l-15 -7l-102 177l37 15zM278 -61h26v-99c0 -61 19 -60 82 -60v-23c-18 -3 -32 -3 -41 -3c-46 0 -67 17 -67 77v108z" />
    <glyph glyph-name="uniE24F" unicode="&#xe24f;" horiz-adv-x="566" 
d="M525 0l-71 187h-344l-71 -187h-29l255 674h33l258 -674h-31zM285 637h-7c-22 -65 -46 -130 -70 -192l-89 -232h327l-90 232c-25 64 -47 128 -71 192zM120 497l-15 -7l-102 177l37 15zM-38 491l-14 -10c-33 37 -51 74 -51 107c0 39 25 72 80 89l7 -31
c-45 -19 -59 -40 -59 -69c0 -25 16 -58 37 -86zM269 -61h26v-99c0 -61 19 -60 82 -60v-23c-18 -3 -32 -3 -41 -3c-46 0 -67 17 -67 77v108z" />
    <glyph glyph-name="uniE250" unicode="&#xe250;" horiz-adv-x="566" 
d="M525 0l-71 187h-344l-71 -187h-29l255 674h33l258 -674h-31zM285 637h-7c-22 -65 -46 -130 -70 -192l-89 -232h327l-90 232c-25 64 -47 128 -71 192zM27 488l-15 7l80 185l37 -15zM-61 489l-14 10c21 28 37 61 37 86c0 29 -14 50 -59 69l7 31c55 -17 80 -50 80 -89
c0 -33 -18 -70 -51 -107zM273 -61h26v-99c0 -61 19 -60 82 -60v-23c-18 -3 -32 -3 -41 -3c-46 0 -67 17 -67 77v108z" />
    </font>
</defs>
</svg>
