<?xml version="1.0" standalone="no"?>
<!DOCTYPE svg PUBLIC "-//W3C//DTD SVG 1.1//EN" "http://www.w3.org/Graphics/SVG/1.1/DTD/svg11.dtd" >
<svg xmlns="http://www.w3.org/2000/svg" xmlns:xlink="http://www.w3.org/1999/xlink" version="1.1">
<metadata>
Created by FontForge 20160405 at Tue Oct 17 16:19:29 2017
 By www-data
Copyright (c) 2005-2009 Parachute :, www.parachute.gr.  All rights reserved.
</metadata>
<defs>
<font id="PFEncoreSansPro-Hairline" horiz-adv-x="1818" >
  <font-face 
    font-family="PF Encore Sans Pro Hairline"
    font-weight="50"
    font-stretch="normal"
    units-per-em="1000"
    panose-1="2 0 5 6 4 0 0 2 0 4"
    ascent="750"
    descent="-250"
    x-height="478"
    cap-height="673"
    bbox="-296 -230 1760 913"
    underline-thickness="10"
    underline-position="-90"
    stemh="66"
    stemv="69"
    unicode-range="U+0020-FB05"
  />
<missing-glyph horiz-adv-x="428" 
d="M0 0v699h428v-699h-428zM214 343l-205 -337h408zM10 693l204 -337l204 337h-408zM218 349l204 -337v673zM210 349l-204 337v-672z" />
    <glyph glyph-name="fj" unicode="fj" horiz-adv-x="422" 
d="M354 478v-587c0 -68 -14 -96 -70 -96h-16v6h16c52 0 64 26 64 90v581h-230v-472h-6v472h-94v6h94v108c0 97 52 136 151 136c14 0 42 -1 73 -5v-6c-31 4 -59 5 -73 5c-95 0 -145 -37 -145 -130v-108h236z" />
    <glyph glyph-name="ffj" unicode="ffj" horiz-adv-x="658" 
d="M584 472h-233v-472h-6v472h-235v-472h-6v472h-86v6h86v103c0 105 37 141 127 141c14 0 42 -3 57 -7l-1 -5c-18 4 -41 6 -56 6c-89 0 -121 -34 -121 -135v-103h235v128c0 97 52 136 151 136c14 0 42 -1 73 -5v-6c-31 4 -59 5 -73 5c-95 0 -145 -37 -145 -130v-128h239
v-587c0 -68 -14 -96 -70 -96h-16v6h16c52 0 64 26 64 90v581z" />
    <glyph glyph-name="ff" unicode="ff" horiz-adv-x="532" 
d="M521 478v-6h-167v-472h-6v472h-238v-472h-6v472h-86v6h86v103c0 105 37 141 127 141c14 0 42 -3 57 -7l-1 -5c-18 4 -41 6 -56 6c-89 0 -121 -34 -121 -135v-103h238v123c0 105 35 141 127 141c14 0 42 -3 57 -7l-1 -5c-18 4 -41 6 -56 6c-89 0 -121 -34 -121 -135v-123
h167z" />
    <glyph glyph-name="fi" unicode="fi" horiz-adv-x="422" 
d="M18 472v6h94v108c0 97 52 136 151 136c14 0 42 -1 73 -5v-6c-31 4 -59 5 -73 5c-95 0 -145 -37 -145 -130v-108h236v-478h-6v472h-230v-472h-6v472h-94z" />
    <glyph glyph-name="fl" unicode="fl" horiz-adv-x="427" 
d="M18 472v6h94v108c0 97 56 136 151 136c17 0 61 -1 94 -6v-714h-6v708c-32 5 -72 6 -88 6c-91 0 -145 -37 -145 -130v-108h155v-6h-155v-472h-6v472h-94z" />
    <glyph glyph-name="ffi" unicode="ffi" horiz-adv-x="658" 
d="M110 472v-472h-6v472h-86v6h86v103c0 105 37 141 127 141c14 0 42 -3 57 -7l-1 -5c-18 4 -41 6 -56 6c-89 0 -121 -34 -121 -135v-103h235v128c0 97 52 136 151 136c14 0 42 -1 73 -5v-6c-31 4 -59 5 -73 5c-95 0 -145 -37 -145 -130v-128h239v-478h-6v472h-233v-472h-6
v472h-235z" />
    <glyph glyph-name="ffl" unicode="ffl" horiz-adv-x="653" 
d="M110 472v-472h-6v472h-86v6h86v103c0 105 37 141 127 141c14 0 42 -3 57 -7l-1 -5c-18 4 -41 6 -56 6c-89 0 -121 -34 -121 -135v-103h228v128c0 97 56 136 151 136c17 0 61 -1 94 -6v-734h-6v728c-32 5 -72 6 -88 6c-91 0 -145 -37 -145 -130v-128h155v-6h-155v-472h-6
v472h-228z" />
    <glyph glyph-name="ft" unicode="ft" horiz-adv-x="518" 
d="M496 478v-6h-153v-337c0 -105 42 -133 127 -133c16 0 29 1 48 3v-6c-19 -2 -32 -3 -48 -3c-89 0 -133 30 -133 139v337h-227v-472h-6v472h-86v6h86v103c0 105 37 141 127 141c14 0 42 -3 57 -7l-1 -5c-18 4 -41 6 -56 6c-89 0 -121 -34 -121 -135v-103h227v131h6v-131
h153z" />
    <glyph glyph-name="fb" unicode="fb" horiz-adv-x="795" 
d="M357 0h-6v710c-32 5 -72 6 -88 6c-91 0 -145 -37 -145 -130v-108h155v-6h-155v-472h-6v472h-94v6h94v108c0 97 56 136 151 136c17 0 61 -1 94 -6v-397c19 103 90 164 193 164c138 0 195 -100 195 -243c0 -144 -57 -244 -203 -244c-75 0 -163 30 -185 151v-147zM357 255
v-43c0 -180 109 -210 185 -210c144 0 197 98 197 238c0 139 -53 237 -189 237c-95 0 -193 -58 -193 -222z" />
    <glyph glyph-name="ffb" unicode="ffb" horiz-adv-x="1021" 
d="M577 0v730c-32 5 -72 6 -88 6c-91 0 -145 -37 -145 -130v-128h155v-6h-155v-472h-6v472h-228v-472h-6v472h-86v6h86v103c0 105 37 141 127 141c14 0 42 -3 57 -7l-1 -5c-18 4 -41 6 -56 6c-89 0 -121 -34 -121 -135v-103h228v128c0 97 56 136 151 136c17 0 61 -1 94 -6
v-417c19 103 90 164 193 164c138 0 195 -100 195 -243c0 -144 -57 -244 -203 -244c-75 0 -163 30 -185 151v-147h-6zM583 255v-43c0 -180 109 -210 185 -210c144 0 197 98 197 238c0 139 -53 237 -189 237c-95 0 -193 -58 -193 -222z" />
    <glyph glyph-name="fh" unicode="fh" horiz-adv-x="778" 
d="M357 325c25 127 126 158 180 158c148 0 181 -91 181 -202v-281h-6v281c0 107 -31 196 -175 196c-55 0 -180 -34 -180 -219v-258h-6v710c-32 5 -72 6 -88 6c-91 0 -145 -37 -145 -130v-108h155v-6h-155v-472h-6v472h-94v6h94v108c0 97 56 136 151 136c17 0 61 -1 94 -6
v-391z" />
    <glyph glyph-name="ffh" unicode="ffh" horiz-adv-x="1004" 
d="M583 0h-6v730c-32 5 -72 6 -88 6c-91 0 -145 -37 -145 -130v-128h155v-6h-155v-472h-6v472h-228v-472h-6v472h-86v6h86v103c0 105 37 141 127 141c14 0 42 -3 57 -7l-1 -5c-18 4 -41 6 -56 6c-89 0 -121 -34 -121 -135v-103h228v128c0 97 56 136 151 136
c17 0 61 -1 94 -6v-411c25 127 126 158 180 158c148 0 181 -91 181 -202v-281h-6v281c0 107 -31 196 -175 196c-55 0 -180 -34 -180 -219v-258z" />
    <glyph glyph-name="fk" unicode="fk" horiz-adv-x="703" 
d="M684 478h7l-177 -214l181 -264h-8l-178 261h-152v-261h-6v710c-32 5 -72 6 -88 6c-91 0 -145 -37 -145 -130v-108h155v-6h-155v-472h-6v472h-94v6h94v108c0 97 56 136 151 136c17 0 61 -1 94 -6v-449h152z" />
    <glyph glyph-name="ffk" unicode="ffk" horiz-adv-x="929" 
d="M910 478h7l-177 -214l181 -264h-8l-178 261h-152v-261h-6v730c-32 5 -72 6 -88 6c-91 0 -145 -37 -145 -130v-128h155v-6h-155v-472h-6v472h-228v-472h-6v472h-86v6h86v103c0 105 37 141 127 141c14 0 42 -3 57 -7l-1 -5c-18 4 -41 6 -56 6c-89 0 -121 -34 -121 -135
v-103h228v128c0 97 56 136 151 136c17 0 61 -1 94 -6v-469h152z" />
    <glyph glyph-name="r_y" unicode="ry" horiz-adv-x="617" 
d="M258 483l171 -480h23l171 475h7l-200 -554c-24 -66 -45 -129 -136 -129h-37v6h37c86 0 106 61 130 125l26 72h-25l-172 478c-57 -3 -171 -40 -171 -219v-257h-6v478h6v-153c25 127 121 156 176 158z" />
    <glyph glyph-name=".notdef" horiz-adv-x="428" 
d="M0 0v699h428v-699h-428zM214 343l-205 -337h408zM10 693l204 -337l204 337h-408zM218 349l204 -337v673zM210 349l-204 337v-672z" />
    <glyph glyph-name="quotedbl" unicode="&#x22;" horiz-adv-x="239" 
d="M86 472h-5l-1 202h8zM157 472h-5l-1 202h8z" />
    <glyph glyph-name="numbersign" unicode="#" horiz-adv-x="545" 
d="M45 435v6h134l37 214h6l-37 -214h204l37 214h6l-37 -214h135v-6h-136l-34 -198h134v-6h-135l-39 -231h-6l39 231h-204l-39 -231h-6l39 231h-129v6h130l34 198h-133zM184 435l-34 -198h204l34 198h-204z" />
    <glyph glyph-name="dollar" unicode="$" horiz-adv-x="545" 
d="M303 -85v815h6v-77c124 -11 174 -81 174 -150c0 -2 0 -9 -1 -16h-6c1 6 1 13 1 15c0 67 -48 135 -168 146v-292c123 -20 197 -69 197 -176c0 -82 -51 -168 -197 -182v-83h-6zM243 730v-815h-6v82c-137 9 -199 85 -199 180c0 3 1 13 2 18h6c-1 -6 -2 -15 -2 -18
c0 -91 60 -166 193 -175v359c-108 19 -169 47 -169 140c0 73 52 140 169 152v77h6zM500 180c0 100 -69 151 -191 171v-348c142 13 191 97 191 177zM74 501c0 -90 62 -116 163 -134v281c-113 -12 -163 -78 -163 -147z" />
    <glyph glyph-name="percent" unicode="%" horiz-adv-x="760" 
d="M176 -31l-6 2l417 733l6 -2zM190 683c127 0 162 -95 162 -198c0 -97 -42 -193 -162 -193c-126 0 -163 86 -163 192c0 116 44 199 163 199zM190 677c-115 0 -157 -81 -157 -193c0 -102 35 -186 157 -186c116 0 156 94 156 187c0 99 -33 192 -156 192zM571 386
c127 0 162 -95 162 -198c0 -97 -42 -193 -162 -193c-126 0 -163 86 -163 192c0 116 44 199 163 199zM571 380c-115 0 -157 -81 -157 -193c0 -102 35 -186 157 -186c116 0 156 94 156 187c0 99 -33 192 -156 192z" />
    <glyph glyph-name="quotesingle" unicode="'" horiz-adv-x="168" 
d="M86 472h-5l-1 202h8z" />
    <glyph glyph-name="parenleft" unicode="(" horiz-adv-x="264" 
d="M225 716l4 -3c-97 -117 -166 -251 -166 -426c0 -156 71 -304 156 -412l-4 -4c-87 110 -158 258 -158 416c0 177 69 310 168 429z" />
    <glyph glyph-name="parenright" unicode=")" horiz-adv-x="264" 
d="M27 713l4 3c99 -119 168 -252 168 -429c0 -158 -71 -306 -158 -416l-4 4c85 108 156 256 156 412c0 175 -69 309 -166 426z" />
    <glyph glyph-name="asterisk" unicode="*" horiz-adv-x="398" 
d="M202 531l123 43l3 -9l-125 -40l83 -106l-9 -6l-78 109l-79 -108l-9 6l84 105l-125 40l4 10l123 -44l-1 134h10z" />
    <glyph glyph-name="comma" unicode="," horiz-adv-x="137" 
d="M37 -94l34 89c-7 0 -14 5 -14 13c0 7 6 13 13 13c8 0 13 -6 13 -12c0 -2 0 -5 -3 -11l-39 -94z" />
    <glyph glyph-name="period" unicode="." horiz-adv-x="140" 
d="M57 8c0 7 6 13 13 13s13 -6 13 -13s-6 -13 -13 -13s-13 6 -13 13z" />
    <glyph glyph-name="slash" unicode="/" horiz-adv-x="468" 
d="M9 -46h-8l457 770h7z" />
    <glyph glyph-name="zero" unicode="0" horiz-adv-x="545" 
d="M273 649c-176 0 -236 -142 -236 -329c0 -209 75 -318 236 -318c145 0 235 116 235 319c0 189 -67 328 -235 328zM273 655c172 0 241 -141 241 -334c0 -207 -92 -325 -241 -325c-165 0 -242 111 -242 324c0 191 62 335 242 335z" />
    <glyph glyph-name="one" unicode="1" horiz-adv-x="545" 
d="M88 0v6h187v634l-166 -26v6l166 26h6v-640h175v-6h-368z" />
    <glyph glyph-name="two" unicode="2" horiz-adv-x="545" 
d="M74 481h-6c-6 81 57 174 218 174c131 0 192 -61 192 -149c0 -86 -94 -155 -189 -214c-138 -86 -234 -148 -234 -286h441v-6h-447v8c0 129 81 192 235 288c97 60 188 127 188 210c0 84 -59 143 -186 143c-157 0 -218 -89 -212 -168z" />
    <glyph glyph-name="four" unicode="4" horiz-adv-x="545" 
d="M404 646h6v-455h115v-6h-115v-185h-6v185h-384v6c124 150 261 306 384 455zM404 638l-376 -447h376v447z" />
    <glyph glyph-name="five" unicode="5" horiz-adv-x="545" 
d="M257 414c122 0 238 -55 238 -208c0 -119 -81 -210 -232 -210c-159 0 -226 91 -212 199h6c-14 -104 52 -193 206 -193c147 0 226 89 226 204c0 149 -114 202 -232 202c-45 0 -99 -8 -149 -23l-5 2l38 259h316v-6h-310l-37 -248c49 14 101 22 147 22z" />
    <glyph glyph-name="six" unicode="6" horiz-adv-x="545" 
d="M277 400c-116 0 -211 -88 -211 -205c0 -107 73 -193 207 -193c138 0 216 87 216 205c0 123 -86 193 -212 193zM277 406c130 0 218 -72 218 -199c0 -122 -80 -211 -222 -211c-58 0 -106 16 -141 43c-56 42 -83 117 -83 247c0 177 57 369 252 369c90 0 192 -44 183 -162h-6
c9 112 -86 156 -177 156c-191 0 -246 -188 -246 -363c0 -31 2 -68 5 -93c3 136 108 213 217 213z" />
    <glyph glyph-name="seven" unicode="7" horiz-adv-x="545" 
d="M484 646v-6l-317 -640h-7l317 640h-416v6h423z" />
    <glyph glyph-name="eight" unicode="8" horiz-adv-x="545" 
d="M272 655c141 0 197 -76 197 -148c0 -38 -25 -130 -173 -158c181 -26 197 -141 197 -184c0 -86 -73 -169 -221 -169c-139 0 -221 62 -221 167c0 51 29 155 201 186c-163 31 -174 118 -174 156c0 71 61 150 194 150zM487 165c0 92 -62 166 -214 181
c-135 -17 -216 -87 -216 -185c0 -115 103 -159 215 -159c119 0 215 59 215 163zM272 649c-103 0 -188 -55 -188 -144c0 -85 65 -135 188 -154c130 17 191 84 191 155c0 94 -82 143 -191 143z" />
    <glyph glyph-name="nine" unicode="9" horiz-adv-x="545" 
d="M270 263c114 2 207 84 207 194c0 100 -70 192 -208 192c-139 0 -212 -94 -212 -204c0 -120 83 -182 213 -182zM494 369v-19c0 -171 -41 -354 -244 -354c-119 0 -194 65 -181 168h6c-13 -94 53 -162 176 -162c195 0 237 175 237 348c0 35 -1 80 -5 109
c-1 -125 -107 -200 -213 -202c-128 0 -219 62 -219 184c0 115 70 211 214 214c93 0 166 -35 202 -117c19 -43 26 -99 27 -169z" />
    <glyph glyph-name="colon" unicode=":" horiz-adv-x="140" 
d="M57 8c0 7 6 13 13 13s13 -6 13 -13s-6 -13 -13 -13s-13 6 -13 13zM57 363c0 7 6 13 13 13s13 -6 13 -13s-6 -13 -13 -13s-13 6 -13 13z" />
    <glyph glyph-name="semicolon" unicode=";" horiz-adv-x="140" 
d="M57 363c0 7 6 13 13 13s13 -6 13 -13s-6 -13 -13 -13s-13 6 -13 13zM37 -94l34 89c-7 0 -14 5 -14 13c0 7 6 13 13 13c8 0 13 -6 13 -12c0 -2 0 -5 -3 -11l-39 -94z" />
    <glyph glyph-name="less" unicode="&#x3c;" horiz-adv-x="545" 
d="M451 100v-7l-358 176v6l358 176v-7l-350 -172z" />
    <glyph glyph-name="greater" unicode="&#x3e;" horiz-adv-x="545" 
d="M93 93v7l350 172l-350 172v7l358 -176v-6z" />
    <glyph glyph-name="question" unicode="?" horiz-adv-x="544" 
d="M94 528h-6c-7 82 38 171 191 171c130 0 179 -63 179 -141c0 -64 -43 -106 -89 -148c-60 -55 -118 -114 -118 -228v-75h-6v75c0 120 63 179 120 232c45 43 87 81 87 144c0 74 -44 135 -173 135c-148 0 -191 -85 -185 -165zM237 8c0 6 4 10 9 10c6 0 10 -4 10 -10
c0 -5 -4 -9 -10 -9c-5 0 -9 4 -9 9z" />
    <glyph glyph-name="at" unicode="@" horiz-adv-x="830" 
d="M275 405h-6c-4 78 74 106 133 106c104 0 136 -54 136 -121v-158c0 -43 27 -73 73 -73c77 0 133 65 133 211c0 192 -157 291 -318 291c-186 0 -342 -140 -342 -340c0 -220 137 -345 344 -345c51 0 131 7 205 36l2 -6c-74 -29 -156 -36 -207 -36c-211 0 -350 127 -350 351
c0 204 158 346 348 346c165 0 324 -101 324 -297c0 -150 -58 -217 -139 -217c-50 0 -79 32 -79 79v29c-24 -81 -106 -120 -164 -120c-63 0 -115 29 -115 97c0 64 52 122 171 122c28 0 70 -4 108 -12v42c0 63 -30 115 -130 115c-56 0 -131 -26 -127 -100zM368 147
c76 0 164 62 164 156v39c-38 8 -80 12 -108 12c-115 0 -165 -56 -165 -116c0 -64 50 -91 109 -91z" />
    <glyph glyph-name="A" unicode="A" horiz-adv-x="547" 
d="M533 0h-7l-73 190h-360l-72 -190h-6l253 673h8zM272 667l-177 -471h356z" />
    <glyph glyph-name="D" unicode="D" horiz-adv-x="612" 
d="M260 0h-190v673h189c117 0 303 -59 303 -333c0 -277 -188 -340 -302 -340zM76 6h184c112 0 296 63 296 334c0 270 -182 327 -297 327h-183v-661z" />
    <glyph glyph-name="E" unicode="E" horiz-adv-x="520" 
d="M442 349v-6h-366v-337h416v-6h-422v673h398v-6h-392v-318h366z" />
    <glyph glyph-name="F" unicode="F" horiz-adv-x="497" 
d="M442 344v-6h-366v-338h-6v673h408v-6h-402v-323h366z" />
    <glyph glyph-name="G" unicode="G" horiz-adv-x="615" 
d="M352 322v5h205v-96c0 -88 -33 -235 -236 -235c-173 0 -261 104 -261 335c0 205 80 348 262 348c163 0 219 -92 213 -174h-6c6 80 -49 168 -207 168c-180 0 -256 -141 -256 -342c0 -227 85 -329 255 -329c197 0 230 143 230 229v91h-199z" />
    <glyph glyph-name="H" unicode="H" horiz-adv-x="632" 
d="M70 673h6v-324h480v324h6v-673h-6v343h-480v-343h-6v673z" />
    <glyph glyph-name="I" unicode="I" horiz-adv-x="186" 
d="M90 673h6v-673h-6v673z" />
    <glyph glyph-name="J" unicode="J" horiz-adv-x="521" 
d="M21 167h6c-7 -78 45 -161 200 -161c137 0 208 79 208 203v464h6v-464c0 -128 -73 -209 -214 -209c-159 0 -213 88 -206 167z" />
    <glyph glyph-name="K" unicode="K" horiz-adv-x="529" 
d="M519 0h-7l-252 344h-184v-344h-6v673h6v-323h184l242 323h7l-244 -326z" />
    <glyph glyph-name="L" unicode="L" horiz-adv-x="515" 
d="M500 6v-6h-430v673h6v-667h424z" />
    <glyph glyph-name="M" unicode="M" horiz-adv-x="773" 
d="M385 106h-4l-305 554v-660h-6v673h5l308 -558l314 558h6v-673h-6v661z" />
    <glyph glyph-name="N" unicode="N" horiz-adv-x="636" 
d="M70 673h6l484 -663v663h6v-673h-6l-484 664v-664h-6v673z" />
    <glyph glyph-name="O" unicode="O" horiz-adv-x="655" 
d="M331 673c-193 0 -265 -150 -265 -339c0 -225 81 -332 256 -332c163 0 267 112 267 333c0 194 -67 338 -258 338zM331 679c195 0 264 -146 264 -344c0 -226 -106 -339 -273 -339c-179 0 -262 109 -262 338c0 193 74 345 271 345z" />
    <glyph glyph-name="P" unicode="P" horiz-adv-x="547" 
d="M70 673h238c137 0 214 -91 214 -208c0 -87 -43 -201 -214 -201h-232v-264h-6v673zM308 667h-232v-397h232c167 0 208 110 208 195c0 113 -75 202 -208 202z" />
    <glyph glyph-name="Q" unicode="Q" horiz-adv-x="655" 
d="M331 679c195 0 264 -146 264 -344c0 -222 -102 -335 -263 -339c82 -43 159 -68 205 -82l-3 -7c-68 22 -151 53 -213 89c-178 0 -261 109 -261 338c0 193 74 345 271 345zM331 673c-193 0 -265 -150 -265 -339c0 -225 81 -332 256 -332c163 0 267 112 267 333
c0 194 -67 338 -258 338z" />
    <glyph glyph-name="R" unicode="R" horiz-adv-x="537" 
d="M298 295h-31l229 -295h-7l-229 295h-184v-295h-6v673h229c135 0 213 -75 213 -192c0 -82 -43 -186 -214 -186zM299 667h-223v-366h223c163 0 207 95 207 180c0 113 -76 186 -207 186z" />
    <glyph glyph-name="S" unicode="S" horiz-adv-x="581" 
d="M508 506h-6c1 6 1 13 1 15c0 76 -59 154 -208 154c-144 0 -208 -75 -208 -155c0 -112 93 -128 235 -149c132 -20 211 -71 211 -184c0 -92 -62 -191 -247 -191c-163 0 -236 83 -236 188c0 3 1 13 2 19h6c-1 -7 -2 -16 -2 -19c0 -101 71 -183 230 -183
c181 0 241 96 241 186c0 106 -73 159 -205 178c-151 21 -241 41 -241 155c0 84 66 160 214 160c153 0 214 -80 214 -158c0 -2 0 -9 -1 -16z" />
    <glyph glyph-name="T" unicode="T" horiz-adv-x="518" 
d="M264 667v-667h-6v667h-248v6h498v-6h-244z" />
    <glyph glyph-name="U" unicode="U" horiz-adv-x="648" 
d="M70 673h6v-393c0 -169 59 -278 249 -278c179 0 247 120 247 279v392h6v-392c0 -163 -71 -285 -253 -285c-194 0 -255 111 -255 284v393z" />
    <glyph glyph-name="V" unicode="V" horiz-adv-x="552" 
d="M535 673h7l-266 -673h-5l-261 673h7l257 -664z" />
    <glyph glyph-name="W" unicode="W" horiz-adv-x="859" 
d="M427 673h6l221 -664l188 664h7l-192 -673h-5l-222 664l-223 -664h-5l-192 673h7l188 -664z" />
    <glyph glyph-name="X" unicode="X" horiz-adv-x="536" 
d="M13 0l251 348l-232 325h7l229 -320l230 320h7l-234 -324l250 -349h-7l-247 344l-248 -344h-6z" />
    <glyph glyph-name="Y" unicode="Y" horiz-adv-x="485" 
d="M470 673h7l-235 -386v-287h-6v287l-228 386h7l224 -379z" />
    <glyph glyph-name="Z" unicode="Z" horiz-adv-x="498" 
d="M10 0v6l455 661h-432v6h439v-6l-454 -661h470v-6h-478z" />
    <glyph glyph-name="bracketleft" unicode="[" horiz-adv-x="259" 
d="M90 -124v834h119v-6h-113v-822h113v-6h-119z" />
    <glyph glyph-name="backslash" unicode="\" horiz-adv-x="468" 
d="M465 -46h-8l-456 770h7z" />
    <glyph glyph-name="bracketright" unicode="]" horiz-adv-x="259" 
d="M167 710v-834h-119v6h113v822h-113v6h119z" />
    <glyph glyph-name="asciicircum" unicode="^" horiz-adv-x="572" 
d="M493 278h-7l-196 386c-65 -129 -131 -257 -196 -386h-7l199 392h8z" />
    <glyph glyph-name="underscore" unicode="_" horiz-adv-x="500" 
d="M0 -87v7h500v-7h-500z" />
    <glyph glyph-name="grave" unicode="`" horiz-adv-x="469" 
d="M358 556l-4 -3l-108 120l7 6z" />
    <glyph glyph-name="b" unicode="b" horiz-adv-x="504" 
d="M66 0h-6v718h6v-399c19 103 90 164 193 164c138 0 195 -100 195 -243c0 -144 -57 -244 -203 -244c-75 0 -163 30 -185 151v-147zM66 255v-43c0 -180 109 -210 185 -210c144 0 197 98 197 238c0 139 -53 237 -189 237c-95 0 -193 -58 -193 -222z" />
    <glyph glyph-name="c" unicode="c" horiz-adv-x="448" 
d="M410 360h-6c6 95 -83 117 -155 117c-145 0 -193 -122 -193 -242c0 -176 71 -233 191 -233c134 0 168 74 164 137h6c4 -65 -32 -143 -170 -143c-124 0 -197 59 -197 239c0 124 50 248 199 248c75 0 168 -24 161 -123z" />
    <glyph glyph-name="d" unicode="d" horiz-adv-x="504" 
d="M444 0h-6v158c-27 -137 -120 -162 -194 -162c-146 0 -194 96 -194 240c0 139 58 247 202 247c102 0 168 -58 186 -163v398h6v-718zM438 230v25c0 160 -84 222 -186 222c-142 0 -196 -108 -196 -241c0 -142 49 -234 188 -234c112 0 194 61 194 228z" />
    <glyph glyph-name="e" unicode="e" horiz-adv-x="472" 
d="M252 477c-140 0 -191 -96 -196 -223h364c17 116 -35 223 -168 223zM251 -4c-167 0 -201 100 -201 246c0 134 54 241 202 241c137 0 193 -111 173 -235h-369v-6c0 -142 32 -240 195 -240c134 0 172 84 168 147h6c4 -65 -36 -153 -174 -153z" />
    <glyph glyph-name="f" unicode="f" horiz-adv-x="288" 
d="M277 478v-6h-167v-472h-6v472h-86v6h86v103c0 105 37 141 127 141c14 0 42 -3 57 -7l-1 -5c-18 4 -41 6 -56 6c-89 0 -121 -34 -121 -135v-103h167z" />
    <glyph glyph-name="g" unicode="g" horiz-adv-x="491" 
d="M59 110c0 21 14 45 56 68c-46 28 -66 79 -66 133c0 103 75 172 190 172c19 0 38 -2 55 -5h146v-6h-121c73 -23 121 -78 121 -160c0 -89 -64 -169 -194 -169c-67 0 -104 18 -126 31c-35 -18 -55 -40 -55 -64c0 -44 73 -58 156 -69l53 -7c116 -15 192 -41 192 -120
c0 -89 -108 -125 -238 -125c-148 0 -193 46 -193 116c0 56 43 108 107 144c-52 12 -83 29 -83 61zM434 312c0 103 -79 165 -195 165c-114 0 -184 -70 -184 -166c0 -115 89 -162 191 -162c130 0 188 81 188 163zM149 47c-65 -35 -108 -86 -108 -142c0 -66 43 -110 187 -110
c126 0 232 34 232 119c0 74 -73 100 -185 115c-79 10 -99 13 -126 18z" />
    <glyph glyph-name="h" unicode="h" horiz-adv-x="487" 
d="M66 0h-6v718h6v-393c25 127 126 158 180 158c148 0 181 -91 181 -202v-281h-6v281c0 107 -31 196 -175 196c-55 0 -180 -34 -180 -219v-258z" />
    <glyph glyph-name="i" unicode="i" horiz-adv-x="167" 
d="M81 478h6v-478h-6v478zM74 621c0 4 3 9 10 9c6 0 9 -5 9 -9c0 -6 -5 -9 -9 -9c-5 0 -10 3 -10 9z" />
    <glyph glyph-name="j" unicode="j" horiz-adv-x="181" 
d="M90 478h6v-587c0 -68 -14 -96 -70 -96h-16v6h16c52 0 64 26 64 90v587zM83 621c0 4 3 9 10 9c6 0 9 -5 9 -9c0 -6 -5 -9 -9 -9c-5 0 -10 3 -10 9z" />
    <glyph glyph-name="k" unicode="k" horiz-adv-x="412" 
d="M393 478h7l-177 -214l181 -264h-8l-178 261h-152v-261h-6v718h6v-451h152z" />
    <glyph glyph-name="l" unicode="l" horiz-adv-x="155" 
d="M70 718h6v-660c0 -33 7 -52 61 -52v-6c-58 0 -67 19 -67 58v660z" />
    <glyph glyph-name="m" unicode="m" horiz-adv-x="828" 
d="M417 0h-6v283c0 104 -26 194 -170 194c-58 0 -175 -34 -175 -219v-258h-6v478h6v-153c24 129 121 158 175 158c131 0 171 -75 175 -171c18 137 121 171 175 171c148 0 177 -91 177 -202v-281h-6v281c0 107 -26 196 -170 196c-55 0 -175 -34 -175 -219v-258z" />
    <glyph glyph-name="n" unicode="n" horiz-adv-x="487" 
d="M66 0h-6v478h6v-153c25 127 126 158 180 158c148 0 181 -91 181 -202v-281h-6v281c0 107 -31 196 -175 196c-55 0 -180 -34 -180 -219v-258z" />
    <glyph glyph-name="o" unicode="o" horiz-adv-x="495" 
d="M249 477c-140 0 -193 -105 -193 -243c0 -154 54 -232 193 -232c114 0 190 75 190 236c0 134 -50 239 -190 239zM249 483c144 0 196 -107 196 -245c0 -165 -78 -242 -196 -242c-143 0 -199 80 -199 238c0 142 55 249 199 249z" />
    <glyph glyph-name="p" unicode="p" horiz-adv-x="504" 
d="M60 479h6v-158c28 137 120 162 196 162c135 0 192 -96 192 -240c0 -139 -52 -247 -202 -247c-102 0 -169 55 -186 163v-364h-6v684zM66 249v-25c0 -160 81 -222 186 -222c146 0 196 108 196 241c0 142 -57 234 -186 234c-108 0 -196 -57 -196 -228z" />
    <glyph glyph-name="q" unicode="q" horiz-adv-x="504" 
d="M438 479h6v-684h-6v365c-19 -103 -92 -164 -193 -164c-138 0 -195 91 -195 243c0 144 57 244 203 244c75 0 163 -36 185 -157v153zM438 224v35c0 180 -109 218 -185 218c-144 0 -197 -98 -197 -238c0 -145 53 -237 189 -237c95 0 193 58 193 222z" />
    <glyph glyph-name="r" unicode="r" horiz-adv-x="273" 
d="M262 483v-7c-57 0 -180 -33 -180 -218v-258h-6v478h6v-153c25 127 126 158 180 158z" />
    <glyph glyph-name="s" unicode="s" horiz-adv-x="445" 
d="M217 -4c-116 0 -182 69 -170 150h6c-12 -78 52 -144 164 -144c134 0 177 62 177 127c0 80 -66 111 -150 124c-105 16 -171 31 -171 118c0 60 46 112 150 112c130 0 161 -64 155 -124h-6c5 58 -23 118 -149 118c-103 0 -144 -50 -144 -106c0 -83 63 -96 166 -112
c90 -14 155 -48 155 -130c0 -69 -49 -133 -183 -133z" />
    <glyph glyph-name="t" unicode="t" horiz-adv-x="289" 
d="M267 478v-6h-153v-337c0 -105 42 -133 127 -133c16 0 29 1 48 3v-6c-19 -2 -32 -3 -48 -3c-89 0 -133 30 -133 139v337h-93v6h93v131h6v-131h153z" />
    <glyph glyph-name="u" unicode="u" horiz-adv-x="482" 
d="M416 478h6v-477h-6v153c-25 -127 -126 -158 -180 -158c-150 0 -176 91 -176 202v280h6v-280c0 -107 23 -196 170 -196c55 0 180 34 180 219v257z" />
    <glyph glyph-name="v" unicode="v" horiz-adv-x="407" 
d="M206 0h-8l-190 478h6l188 -473l189 473h6z" />
    <glyph glyph-name="w" unicode="w" horiz-adv-x="661" 
d="M164 0h-8l-146 478h6l144 -473l165 473h6l163 -473l146 473h6l-148 -478h-8l-162 470z" />
    <glyph glyph-name="x" unicode="x" horiz-adv-x="391" 
d="M10 0l180 245l-171 233h7l167 -229l169 229h7l-172 -232l182 -246h-7l-178 241l-177 -241h-7z" />
    <glyph glyph-name="y" unicode="y" horiz-adv-x="394" 
d="M379 478h7l-200 -554c-24 -66 -45 -129 -136 -129h-37v6h37c86 0 106 61 130 125l26 72h-25l-173 480h7l170 -475h23z" />
    <glyph glyph-name="z" unicode="z" horiz-adv-x="378" 
d="M8 0v6l346 466h-318v6h326v-6l-345 -466h346v-6h-355z" />
    <glyph glyph-name="braceleft" unicode="{" horiz-adv-x="310" 
d="M109 301v4c48 15 51 68 51 114v181c0 48 2 107 65 107h35v-6h-35c-57 0 -59 -55 -59 -101v-181c0 -52 -6 -99 -47 -116c45 -20 47 -70 47 -123v-195c0 -46 2 -101 59 -101h35v-6h-35c-63 0 -65 59 -65 107v195c0 52 -2 106 -51 121z" />
    <glyph glyph-name="bar" unicode="|" horiz-adv-x="233" 
d="M114 -124v841h6v-841h-6z" />
    <glyph glyph-name="braceright" unicode="}" horiz-adv-x="310" 
d="M209 305v-4c-49 -15 -51 -69 -51 -121v-195c0 -48 -2 -107 -65 -107h-35v6h35c57 0 59 55 59 101v195c0 53 2 103 47 123c-41 17 -47 64 -47 116v181c0 46 -2 101 -59 101h-35v6h35c63 0 65 -59 65 -107v-181c0 -46 3 -99 51 -114z" />
    <glyph glyph-name="asciitilde" unicode="~" horiz-adv-x="545" 
d="M474 314l6 -2c-26 -53 -73 -72 -116 -72c-34 0 -72 17 -106 34c-33 15 -69 32 -97 32c-36 0 -63 -10 -91 -58l-6 4c30 50 59 60 97 60c31 0 65 -16 99 -32c35 -17 71 -34 104 -34c41 0 86 18 110 68z" />
    <glyph glyph-name="Adieresis" unicode="&#xc4;" horiz-adv-x="547" 
d="M533 0h-7l-73 190h-360l-72 -190h-6l253 673h8zM272 667l-177 -471h356zM188 779c0 4 4 9 10 9s9 -5 9 -9c0 -6 -4 -9 -9 -9s-10 3 -10 9zM335 779c0 4 3 9 10 9c5 0 8 -5 8 -9c0 -6 -4 -9 -8 -9c-6 0 -10 3 -10 9z" />
    <glyph glyph-name="Eacute" unicode="&#xc9;" horiz-adv-x="520" 
d="M442 349v-6h-366v-337h416v-6h-422v673h398v-6h-392v-318h366zM250 734l-4 4l121 106l6 -6z" />
    <glyph glyph-name="Odieresis" unicode="&#xd6;" horiz-adv-x="655" 
d="M331 673c-193 0 -265 -150 -265 -339c0 -225 81 -332 256 -332c163 0 267 112 267 333c0 194 -67 338 -258 338zM331 679c195 0 264 -146 264 -344c0 -226 -106 -339 -273 -339c-179 0 -262 109 -262 338c0 193 74 345 271 345zM247 779c0 4 4 9 10 9s9 -5 9 -9
c0 -6 -4 -9 -9 -9s-10 3 -10 9zM394 779c0 4 3 9 10 9c5 0 8 -5 8 -9c0 -6 -4 -9 -8 -9c-6 0 -10 3 -10 9z" />
    <glyph glyph-name="Udieresis" unicode="&#xdc;" horiz-adv-x="648" 
d="M70 673h6v-393c0 -169 59 -278 249 -278c179 0 247 120 247 279v392h6v-392c0 -163 -71 -285 -253 -285c-194 0 -255 111 -255 284v393zM234 779c0 4 4 9 10 9s9 -5 9 -9c0 -6 -4 -9 -9 -9s-10 3 -10 9zM381 779c0 4 3 9 10 9c5 0 8 -5 8 -9c0 -6 -4 -9 -8 -9
c-6 0 -10 3 -10 9z" />
    <glyph glyph-name="agrave" unicode="&#xe0;" horiz-adv-x="469" 
d="M411 0h-6v126c-21 -71 -85 -130 -205 -130c-83 0 -155 36 -155 129c0 86 69 163 230 163c34 0 79 -5 130 -15v47c0 60 -10 157 -159 157c-116 0 -156 -62 -152 -118h-6c-5 57 37 124 158 124c154 0 165 -101 165 -163v-320zM200 2c130 0 205 73 205 175v90
c-52 10 -98 15 -130 15c-157 0 -224 -75 -224 -157c0 -89 70 -123 149 -123zM278 556l-4 -3l-108 120l7 6z" />
    <glyph glyph-name="acircumflex" unicode="&#xe2;" horiz-adv-x="469" 
d="M411 0h-6v126c-21 -71 -85 -130 -205 -130c-83 0 -155 36 -155 129c0 86 69 163 230 163c34 0 79 -5 130 -15v47c0 60 -10 157 -159 157c-116 0 -156 -62 -152 -118h-6c-5 57 37 124 158 124c154 0 165 -101 165 -163v-320zM200 2c130 0 205 73 205 175v90
c-52 10 -98 15 -130 15c-157 0 -224 -75 -224 -157c0 -89 70 -123 149 -123zM394 547l-137 119l-139 -122l-4 4l140 125h7l137 -122z" />
    <glyph glyph-name="adieresis" unicode="&#xe4;" horiz-adv-x="469" 
d="M411 0h-6v126c-21 -71 -85 -130 -205 -130c-83 0 -155 36 -155 129c0 86 69 163 230 163c34 0 79 -5 130 -15v47c0 60 -10 157 -159 157c-116 0 -156 -62 -152 -118h-6c-5 57 37 124 158 124c154 0 165 -101 165 -163v-320zM200 2c130 0 205 73 205 175v90
c-52 10 -98 15 -130 15c-157 0 -224 -75 -224 -157c0 -89 70 -123 149 -123zM167 588c0 4 4 9 10 9s9 -5 9 -9c0 -6 -4 -9 -9 -9s-10 3 -10 9zM314 588c0 4 3 9 10 9c5 0 8 -5 8 -9c0 -6 -4 -9 -8 -9c-6 0 -10 3 -10 9z" />
    <glyph glyph-name="ccedilla" unicode="&#xe7;" horiz-adv-x="448" 
d="M217 -71l-4 4l36 63h-2c-124 0 -197 59 -197 239c0 124 50 248 199 248c75 0 168 -24 161 -123h-6c6 95 -83 117 -155 117c-145 0 -193 -122 -193 -242c0 -176 71 -233 191 -233c134 0 168 74 164 137h6c4 -64 -31 -139 -161 -143l-35 -60c9 3 23 5 34 5
c37 0 77 -22 77 -66c0 -37 -33 -68 -89 -68c-25 0 -47 5 -71 13l2 6c24 -8 46 -13 69 -13c56 0 82 29 82 62c0 40 -35 60 -70 60c-9 0 -27 -2 -38 -6z" />
    <glyph glyph-name="eacute" unicode="&#xe9;" horiz-adv-x="472" 
d="M252 477c-140 0 -191 -96 -196 -223h364c17 116 -35 223 -168 223zM251 -4c-167 0 -201 100 -201 246c0 134 54 241 202 241c137 0 193 -111 173 -235h-369v-6c0 -142 32 -240 195 -240c134 0 172 84 168 147h6c4 -65 -36 -153 -174 -153zM231 556l-4 3l105 123l7 -6z
" />
    <glyph glyph-name="egrave" unicode="&#xe8;" horiz-adv-x="472" 
d="M252 477c-140 0 -191 -96 -196 -223h364c17 116 -35 223 -168 223zM251 -4c-167 0 -201 100 -201 246c0 134 54 241 202 241c137 0 193 -111 173 -235h-369v-6c0 -142 32 -240 195 -240c134 0 172 84 168 147h6c4 -65 -36 -153 -174 -153zM274 556l-4 -3l-108 120l7 6z
" />
    <glyph glyph-name="ecircumflex" unicode="&#xea;" horiz-adv-x="472" 
d="M252 477c-140 0 -191 -96 -196 -223h364c17 116 -35 223 -168 223zM251 -4c-167 0 -201 100 -201 246c0 134 54 241 202 241c137 0 193 -111 173 -235h-369v-6c0 -142 32 -240 195 -240c134 0 172 84 168 147h6c4 -65 -36 -153 -174 -153zM386 547l-137 119l-139 -122
l-4 4l140 125h7l137 -122z" />
    <glyph glyph-name="edieresis" unicode="&#xeb;" horiz-adv-x="472" 
d="M252 477c-140 0 -191 -96 -196 -223h364c17 116 -35 223 -168 223zM251 -4c-167 0 -201 100 -201 246c0 134 54 241 202 241c137 0 193 -111 173 -235h-369v-6c0 -142 32 -240 195 -240c134 0 172 84 168 147h6c4 -65 -36 -153 -174 -153zM169 588c0 4 4 9 10 9
s9 -5 9 -9c0 -6 -4 -9 -9 -9s-10 3 -10 9zM316 588c0 4 3 9 10 9c5 0 8 -5 8 -9c0 -6 -4 -9 -8 -9c-6 0 -10 3 -10 9z" />
    <glyph glyph-name="dagger" unicode="&#x2020;" horiz-adv-x="539" 
d="M77 476v6h174v213h6v-213h181v-6h-181v-594h-6v594h-174z" />
    <glyph glyph-name="germandbls" unicode="&#xdf;" horiz-adv-x="518" 
d="M228 -8v6h5c11 -1 20 -2 30 -2c140 0 201 107 201 218c0 100 -46 185 -156 205v5c87 26 109 105 109 138c0 94 -62 154 -175 154c-125 0 -176 -87 -176 -203v-513h-6v513c0 120 53 209 182 209c117 0 181 -62 181 -160c0 -32 -21 -109 -103 -140
c105 -25 150 -108 150 -208c0 -115 -63 -224 -207 -224c-10 0 -19 1 -30 2h-5z" />
    <glyph glyph-name="registered" unicode="&#xae;" horiz-adv-x="563" 
d="M381 323h-7l-63 122h-5h-93v-122h-6v276h91c47 0 85 -25 85 -78c0 -31 -22 -70 -65 -76zM298 593h-85v-142h93c47 0 71 38 71 70c0 49 -36 72 -79 72zM281 694c144 0 235 -107 235 -238c0 -130 -104 -234 -235 -234c-144 0 -234 104 -234 234c0 131 99 238 234 238z
M281 688c-131 0 -228 -105 -228 -232c0 -126 88 -228 228 -228c127 0 229 102 229 228c0 127 -89 232 -229 232z" />
    <glyph glyph-name="copyright" unicode="&#xa9;" horiz-adv-x="809" 
d="M579 240h6c6 -108 -96 -149 -181 -149c-151 0 -209 80 -209 245c0 132 50 255 212 255c110 0 178 -50 169 -134h-6c9 80 -57 128 -163 128c-158 0 -206 -121 -206 -249c0 -161 56 -239 203 -239c83 0 181 39 175 143zM407 713c-198 0 -347 -157 -347 -356
c0 -215 143 -358 347 -358c191 0 346 158 346 358c0 199 -155 356 -346 356zM407 719c195 0 352 -159 352 -362c0 -204 -157 -364 -352 -364c-208 0 -353 145 -353 364c0 203 151 362 353 362z" />
    <glyph glyph-name="plusminus" unicode="&#xb1;" horiz-adv-x="545" 
d="M97 7h354v-7h-354v7zM278 261v-170h-7v170h-174v7h174v181h7v-181h173v-7h-173z" />
    <glyph glyph-name="yen" unicode="&#xa5;" horiz-adv-x="545" 
d="M63 200h422v-5h-214v-195h-6v195h-202v5zM485 280h-422v5h200l-209 364h7l208 -363l214 363h7l-215 -364h210v-5z" />
    <glyph glyph-name="guillemotleft" unicode="&#xab;" horiz-adv-x="383" 
d="M221 32l-159 187v6l151 189l4 -3l-147 -189l155 -187zM328 32l-159 187v6l151 189l4 -3l-147 -189l155 -187z" />
    <glyph glyph-name="guillemotright" unicode="&#xbb;" horiz-adv-x="383" 
d="M214 219l-159 -187l-4 3l155 187l-147 189l4 3l151 -189v-6zM321 219l-159 -187l-4 3l155 187l-147 189l4 3l151 -189v-6z" />
    <glyph glyph-name="ellipsis" unicode="&#x2026;" horiz-adv-x="380" 
d="M60 9c0 4 3 10 10 10s10 -4 10 -10c0 -4 -3 -10 -10 -10c-8 0 -10 4 -10 10zM180 9c0 4 3 10 10 10s10 -4 10 -10c0 -4 -3 -10 -10 -10c-8 0 -10 4 -10 10zM300 9c0 4 3 10 10 10s10 -4 10 -10c0 -4 -3 -10 -10 -10c-8 0 -10 4 -10 10z" />
    <glyph glyph-name="oe" unicode="&#x153;" horiz-adv-x="863" 
d="M642 -4c-147 0 -191 77 -200 196c-13 -134 -87 -196 -193 -196c-143 0 -199 80 -199 238c0 142 55 249 199 249c127 0 183 -84 194 -198c11 113 69 198 201 198c137 0 192 -111 172 -235h-369v-6c0 -142 32 -240 195 -240c134 0 172 84 168 147h6
c4 -65 -36 -153 -174 -153zM249 477c-140 0 -193 -105 -193 -243c0 -154 54 -232 193 -232c114 0 190 75 190 236c0 134 -50 239 -190 239zM644 477c-140 0 -192 -96 -197 -223h364c17 116 -34 223 -167 223z" />
    <glyph glyph-name="endash" unicode="&#x2013;" horiz-adv-x="500" 
d="M26 249v10h452v-10h-452z" />
    <glyph glyph-name="quotedblleft" unicode="&#x201c;" horiz-adv-x="191" 
d="M99 682l-32 -79c8 0 14 -5 14 -13c0 -6 -5 -13 -13 -13s-13 6 -13 12c0 2 0 5 3 11l37 84zM144 682l-32 -79c8 0 14 -5 14 -13c0 -6 -5 -13 -13 -13s-13 6 -13 12c0 2 0 5 3 11l37 84z" />
    <glyph glyph-name="quotedblright" unicode="&#x201d;" horiz-adv-x="195" 
d="M94 572l32 79c-8 0 -14 5 -14 13c0 6 5 13 13 13s13 -6 13 -12c0 -2 0 -5 -3 -11l-37 -84zM49 572l32 79c-8 0 -14 5 -14 13c0 6 5 13 13 13s13 -6 13 -12c0 -2 0 -5 -3 -11l-37 -84z" />
    <glyph glyph-name="quoteleft" unicode="&#x2018;" horiz-adv-x="146" 
d="M99 682l-32 -79c8 0 14 -5 14 -13c0 -6 -5 -13 -13 -13s-13 6 -13 12c0 2 0 5 3 11l37 84z" />
    <glyph glyph-name="quoteright" unicode="&#x2019;" horiz-adv-x="146" 
d="M47 572l32 79c-8 0 -14 5 -14 13c0 6 5 13 13 13s13 -6 13 -12c0 -2 0 -5 -3 -11l-37 -84z" />
    <glyph glyph-name="divide" unicode="&#xf7;" horiz-adv-x="545" 
d="M452 272h-359v8h359v-8zM263 408c0 6 4 10 11 10c6 0 10 -4 10 -10c0 -5 -4 -11 -10 -11c-8 0 -11 5 -11 11zM263 142c0 5 4 11 11 11c6 0 10 -5 10 -11s-4 -10 -10 -10c-8 0 -11 4 -11 10z" />
    <glyph glyph-name="a" unicode="a" horiz-adv-x="469" 
d="M411 0h-6v126c-21 -71 -85 -130 -205 -130c-83 0 -155 36 -155 129c0 86 69 163 230 163c34 0 79 -5 130 -15v47c0 60 -10 157 -159 157c-116 0 -156 -62 -152 -118h-6c-5 57 37 124 158 124c154 0 165 -101 165 -163v-320zM200 2c130 0 205 73 205 175v90
c-52 10 -98 15 -130 15c-157 0 -224 -75 -224 -157c0 -89 70 -123 149 -123z" />
    <glyph glyph-name="B" unicode="B" horiz-adv-x="602" 
d="M70 673h261c126 0 197 -64 197 -159c0 -63 -42 -147 -137 -161c111 -14 158 -101 158 -172c0 -88 -46 -181 -210 -181h-269v673zM543 181c0 81 -55 169 -188 169h-279v-344h263c160 0 204 89 204 175zM76 667v-312h286c103 0 160 82 160 159c0 89 -65 153 -191 153h-255z
" />
    <glyph glyph-name="ampersand" unicode="&#x26;" horiz-adv-x="733" 
d="M555 527l3 5c80 -42 110 -115 110 -191c0 -177 -146 -344 -385 -344c-128 0 -233 41 -233 165c0 101 87 167 173 227c75 53 146 102 146 179c0 60 -38 105 -110 105c-94 0 -116 -75 -116 -118c0 -181 294 -443 511 -576l-3 -5c-218 133 -514 399 -514 581
c0 45 24 124 122 124c76 0 116 -47 116 -111c0 -77 -71 -129 -148 -183c-83 -59 -171 -121 -171 -223c0 -120 103 -159 227 -159c235 0 379 162 379 338c0 74 -30 146 -107 186z" />
    <glyph glyph-name="tonos" unicode="&#x384;" horiz-adv-x="468" 
d="M234 546l-5 2l76 143l9 -4z" />
    <glyph glyph-name="dieresistonos" unicode="&#x385;" horiz-adv-x="468" 
d="M161 588c0 4 4 9 10 9s9 -5 9 -9c0 -6 -4 -9 -9 -9s-10 3 -10 9zM308 588c0 4 2 9 9 9c5 0 9 -3 9 -9s-4 -9 -8 -9c-6 0 -10 3 -10 9zM219 546l-5 2l76 143l9 -4z" />
    <glyph glyph-name="dieresis" unicode="&#xa8;" horiz-adv-x="468" 
d="M161 588c0 4 4 9 10 9s9 -5 9 -9c0 -6 -4 -9 -9 -9s-10 3 -10 9zM308 588c0 4 3 9 10 9c5 0 8 -5 8 -9c0 -6 -4 -9 -8 -9c-6 0 -10 3 -10 9z" />
    <glyph glyph-name="circumflex" unicode="&#x2c6;" horiz-adv-x="469" 
d="M382 547l-137 119l-139 -122l-4 4l140 125h7l137 -122z" />
    <glyph glyph-name="caron" unicode="&#x2c7;" horiz-adv-x="469" 
d="M245 551l137 119l4 -4l-137 -122h-7l-140 125l4 4z" />
    <glyph glyph-name="tilde" unicode="&#x2dc;" horiz-adv-x="469" 
d="M119 593l-6 2c17 35 44 50 73 50c18 0 41 -11 65 -22c23 -11 47 -22 64 -22c23 0 44 10 62 42l6 -2c-20 -35 -43 -46 -68 -46c-19 0 -43 11 -66 22c-24 11 -47 22 -63 22c-27 0 -51 -14 -67 -46z" />
    <glyph glyph-name="Grave" unicode="&#xf6ce;" horiz-adv-x="658" 
d="M349 738l-4 -4l-123 104l6 6z" />
    <glyph glyph-name="Acute" unicode="&#xf6c9;" horiz-adv-x="658" 
d="M309 734l-4 4l121 106l6 -6z" />
    <glyph glyph-name="Dieresis" unicode="&#xf6cb;" horiz-adv-x="658" 
d="M253 779c0 4 4 9 10 9s9 -5 9 -9c0 -6 -4 -9 -9 -9s-10 3 -10 9zM400 779c0 4 3 9 10 9c5 0 8 -5 8 -9c0 -6 -4 -9 -8 -9c-6 0 -10 3 -10 9z" />
    <glyph glyph-name="ugrave" unicode="&#xf9;" horiz-adv-x="482" 
d="M416 478h6v-477h-6v153c-25 -127 -126 -158 -180 -158c-150 0 -176 91 -176 202v280h6v-280c0 -107 23 -196 170 -196c55 0 180 34 180 219v257zM267 556l-4 -3l-108 120l7 6z" />
    <glyph glyph-name="perthousand" unicode="&#x2030;" horiz-adv-x="1117" 
d="M174 -31l-6 2l417 733l6 -2zM191 683c127 0 162 -95 162 -198c0 -97 -42 -193 -162 -193c-126 0 -163 86 -163 192c0 116 44 199 163 199zM191 677c-115 0 -157 -81 -157 -193c0 -102 35 -186 157 -186c116 0 156 94 156 187c0 99 -33 192 -156 192zM572 386
c127 0 162 -95 162 -198c0 -97 -42 -193 -162 -193c-126 0 -163 86 -163 192c0 116 44 199 163 199zM572 380c-115 0 -157 -81 -157 -193c0 -102 35 -186 157 -186c116 0 156 94 156 187c0 99 -33 192 -156 192zM925 386c127 0 162 -95 162 -198c0 -97 -42 -193 -162 -193
c-126 0 -163 86 -163 192c0 116 44 199 163 199zM925 380c-115 0 -157 -81 -157 -193c0 -102 35 -186 157 -186c116 0 156 94 156 187c0 99 -33 192 -156 192z" />
    <glyph glyph-name="cedilla" unicode="&#xb8;" horiz-adv-x="472" 
d="M217 -71l-4 4l39 67l5 -2l-36 -62c9 3 23 5 34 5c37 0 77 -22 77 -66c0 -37 -33 -68 -89 -68c-25 0 -47 5 -71 13l2 6c24 -8 46 -13 69 -13c56 0 82 29 82 62c0 40 -35 60 -70 60c-9 0 -27 -2 -38 -6z" />
    <glyph glyph-name="afii00208" unicode="&#x2015;" horiz-adv-x="1000" 
d="M19 249v10h968v-10h-968z" />
    <glyph glyph-name="otilde" unicode="&#xf5;" horiz-adv-x="495" 
d="M249 477c-140 0 -193 -105 -193 -243c0 -154 54 -232 193 -232c114 0 190 75 190 236c0 134 -50 239 -190 239zM249 483c144 0 196 -107 196 -245c0 -165 -78 -242 -196 -242c-143 0 -199 80 -199 238c0 142 55 249 199 249zM130 593l-6 2c17 35 44 50 73 50
c18 0 41 -11 65 -22c23 -11 47 -22 64 -22c23 0 44 10 62 42l6 -2c-20 -35 -43 -46 -68 -46c-19 0 -43 11 -66 22c-24 11 -47 22 -63 22c-27 0 -51 -14 -67 -46z" />
    <glyph glyph-name="sterling" unicode="&#xa3;" horiz-adv-x="545" 
d="M52 347v6h79c-11 38 -23 80 -23 132c0 99 59 170 191 170c137 0 192 -68 186 -133h-6c6 63 -47 127 -180 127c-128 0 -185 -69 -185 -164c0 -51 12 -94 24 -132h203v-6h-201c13 -39 24 -77 24 -131c0 -65 -25 -148 -66 -210h380v-6h-427v6h40c41 61 67 145 67 210
c0 53 -12 91 -25 131h-81z" />
    <glyph glyph-name="trademark" unicode="&#x2122;" horiz-adv-x="651" 
d="M311 673l130 -223l133 223h4v-364h-5v353l-130 -219h-4l-127 217v-351h-6v364h5zM156 667v-358h-6v358h-115v6h234v-6h-113z" />
    <glyph glyph-name="bullet" unicode="&#x2022;" horiz-adv-x="353" 
d="M118 251c0 32 26 58 58 58s58 -26 58 -58s-26 -58 -58 -58s-58 26 -58 58z" />
    <glyph glyph-name="brokenbar" unicode="&#xa6;" horiz-adv-x="233" 
d="M113 257h6v-381h-6v381zM119 361h-6v356h6v-356z" />
    <glyph glyph-name="Euro" unicode="&#x20ac;" horiz-adv-x="545" 
d="M439 304v-6h-380c2 -177 67 -296 251 -296c156 0 227 86 218 188h6c9 -106 -63 -194 -224 -194c-188 0 -255 121 -257 302h-43v6h429zM10 374v6h46c11 162 95 275 262 275c104 0 219 -56 202 -179h-6c16 119 -95 173 -196 173c-164 0 -245 -111 -256 -269h377v-6h-429z
" />
    <glyph glyph-name="dotlessi" unicode="&#x131;" horiz-adv-x="167" 
d="M81 478h6v-478h-6v478z" />
    <glyph glyph-name="icircumflex" unicode="&#xee;" horiz-adv-x="167" 
d="M81 478h6v-478h-6v478zM224 547l-137 119l-139 -122l-4 4l140 125h7l137 -122z" />
    <glyph glyph-name="idieresis" unicode="&#xef;" horiz-adv-x="167" 
d="M81 478h6v-478h-6v478zM2 588c0 4 4 9 10 9s9 -5 9 -9c0 -6 -4 -9 -9 -9s-10 3 -10 9zM149 588c0 4 3 9 10 9c5 0 8 -5 8 -9c0 -6 -4 -9 -8 -9c-6 0 -10 3 -10 9z" />
    <glyph glyph-name="ocircumflex" unicode="&#xf4;" horiz-adv-x="495" 
d="M249 477c-140 0 -193 -105 -193 -243c0 -154 54 -232 193 -232c114 0 190 75 190 236c0 134 -50 239 -190 239zM249 483c144 0 196 -107 196 -245c0 -165 -78 -242 -196 -242c-143 0 -199 80 -199 238c0 142 55 249 199 249zM392 547l-137 119l-139 -122l-4 4l140 125h7
l137 -122z" />
    <glyph glyph-name="odieresis" unicode="&#xf6;" horiz-adv-x="495" 
d="M249 477c-140 0 -193 -105 -193 -243c0 -154 54 -232 193 -232c114 0 190 75 190 236c0 134 -50 239 -190 239zM249 483c144 0 196 -107 196 -245c0 -165 -78 -242 -196 -242c-143 0 -199 80 -199 238c0 142 55 249 199 249zM167 588c0 4 4 9 10 9s9 -5 9 -9
c0 -6 -4 -9 -9 -9s-10 3 -10 9zM314 588c0 4 3 9 10 9c5 0 8 -5 8 -9c0 -6 -4 -9 -8 -9c-6 0 -10 3 -10 9z" />
    <glyph glyph-name="ucircumflex" unicode="&#xfb;" horiz-adv-x="482" 
d="M416 478h6v-477h-6v153c-25 -127 -126 -158 -180 -158c-150 0 -176 91 -176 202v280h6v-280c0 -107 23 -196 170 -196c55 0 180 34 180 219v257zM379 547l-137 119l-139 -122l-4 4l140 125h7l137 -122z" />
    <glyph glyph-name="udieresis" unicode="&#xfc;" horiz-adv-x="482" 
d="M416 478h6v-477h-6v153c-25 -127 -126 -158 -180 -158c-150 0 -176 91 -176 202v280h6v-280c0 -107 23 -196 170 -196c55 0 180 34 180 219v257zM164 588c0 4 4 9 10 9s9 -5 9 -9c0 -6 -4 -9 -9 -9s-10 3 -10 9zM311 588c0 4 3 9 10 9c5 0 8 -5 8 -9c0 -6 -4 -9 -8 -9
c-6 0 -10 3 -10 9z" />
    <glyph glyph-name="Gamma" unicode="&#x393;" horiz-adv-x="497" 
d="M76 667v-667h-6v673h402v-6h-396z" />
    <glyph glyph-name="Alpha" unicode="&#x391;" horiz-adv-x="547" 
d="M533 0h-7l-73 190h-360l-72 -190h-6l253 673h8zM272 667l-177 -471h356z" />
    <glyph glyph-name="Iotadieresis" unicode="&#x3aa;" horiz-adv-x="186" 
d="M90 673h6v-673h-6v673zM13 779c0 4 4 9 10 9s9 -5 9 -9c0 -6 -4 -9 -9 -9s-10 3 -10 9zM160 779c0 4 3 9 10 9c5 0 8 -5 8 -9c0 -6 -4 -9 -8 -9c-6 0 -10 3 -10 9z" />
    <glyph glyph-name="periodcentered" unicode="&#xb7;" horiz-adv-x="140" 
d="M57 276c0 7 6 13 13 13s13 -6 13 -13s-6 -13 -13 -13s-13 6 -13 13z" />
    <glyph glyph-name="Sigma" unicode="&#x3a3;" horiz-adv-x="531" 
d="M38 0v6l252 357l-251 302v8h460v-6h-454l252 -304l-251 -357h470v-6h-478z" />
    <glyph glyph-name="Lambda" unicode="&#x39b;" horiz-adv-x="547" 
d="M526 0l-254 667l-251 -667h-6l253 673h8l257 -673h-7z" />
    <glyph glyph-name="Pi" unicode="&#x3a0;" horiz-adv-x="632" 
d="M556 0v667h-480v-667h-6v673h492v-673h-6z" />
    <glyph glyph-name="logicalnot" unicode="&#xac;" horiz-adv-x="545" 
d="M449 280v-177h-7v170h-347v7h354z" />
    <glyph glyph-name="section" unicode="&#xa7;" horiz-adv-x="502" 
d="M71 295c0 -100 123 -140 236 -157c72 13 130 71 130 133c0 86 -87 131 -246 158c-75 -22 -120 -83 -120 -134zM239 -124c-85 0 -181 40 -177 132h6c-4 -67 60 -126 171 -126c110 0 180 53 180 131c0 63 -50 105 -113 118c-87 18 -241 47 -241 164c0 49 38 110 119 137
c-66 21 -99 62 -99 112c0 58 41 135 172 135c86 0 174 -45 171 -130h-6c3 56 -49 124 -166 124c-104 0 -165 -54 -165 -129c0 -66 61 -101 115 -112c102 -21 237 -52 237 -161c0 -48 -38 -114 -125 -137c79 -22 107 -75 107 -123c0 -57 -48 -135 -186 -135z" />
    <glyph glyph-name="notequal" unicode="&#x2260;" horiz-adv-x="545" 
d="M170 76l-6 2l66 114h-135v7h139l82 143h-221v7h225l68 117l6 -2l-67 -115h122v-7h-126l-82 -143h208v-7h-212z" />
    <glyph glyph-name="lessequal" unicode="&#x2264;" horiz-adv-x="545" 
d="M86 7h373v-7h-373v7zM451 110v-7l-358 166v6l358 166v-7l-350 -162z" />
    <glyph glyph-name="greaterequal" unicode="&#x2265;" horiz-adv-x="545" 
d="M94 103v7l350 162l-350 162v7l358 -166v-6zM86 7h373v-7h-373v7z" />
    <glyph glyph-name="approxequal" unicode="&#x2248;" horiz-adv-x="545" 
d="M460 378l6 -2c-23 -51 -67 -69 -106 -69c-62 0 -130 63 -184 63c-33 0 -58 -9 -83 -54l-6 2c27 49 54 58 89 58c57 0 125 -63 184 -63c36 0 77 17 100 65zM84 172l-6 2c21 48 56 66 97 66c61 0 133 -63 183 -63c41 0 68 15 93 58l6 -4c-26 -45 -55 -60 -99 -60
c-53 0 -125 63 -183 63c-38 0 -70 -17 -91 -62z" />
    <glyph glyph-name="ae" unicode="&#xe6;" horiz-adv-x="827" 
d="M606 -4c-132 0 -181 62 -196 160c-5 -38 -13 -52 -18 -62c-29 -56 -91 -98 -192 -98c-83 0 -155 36 -155 129c0 86 69 140 230 140h130v55c0 60 -10 157 -159 157c-116 0 -156 -62 -152 -118h-6c-5 57 37 124 158 124c154 0 165 -101 165 -163v-8c17 99 76 171 197 171
c137 0 192 -100 172 -224h-369v-28c1 -136 36 -229 195 -229c134 0 172 84 168 147h6c4 -65 -36 -153 -174 -153zM200 2c130 0 205 73 205 175v82h-130c-157 0 -224 -52 -224 -134c0 -89 70 -123 149 -123zM608 477c-140 0 -191 -98 -197 -212h364c17 116 -34 212 -167 212z
" />
    <glyph glyph-name="degree" unicode="&#xb0;" horiz-adv-x="403" 
d="M199 647c-55 0 -101 -42 -101 -102c0 -55 39 -99 101 -99c59 0 106 44 106 99c0 59 -47 102 -106 102zM199 653c63 0 112 -45 112 -108c0 -59 -49 -105 -112 -105c-66 0 -107 46 -107 105c0 64 48 108 107 108z" />
    <glyph glyph-name="Delta" unicode="&#x394;" horiz-adv-x="554" 
d="M542 0h-530l259 673h8zM275 667l-255 -661h513z" />
    <glyph glyph-name="Delta" unicode="&#x2206;" horiz-adv-x="554" 
d="M542 0h-530l259 673h8zM275 667l-255 -661h513z" />
    <glyph glyph-name="Theta" unicode="&#x398;" horiz-adv-x="670" 
d="M510 351v-6h-347v6h347zM339 675c-196 0 -273 -139 -273 -343c0 -224 78 -330 269 -330c169 0 269 106 269 331c0 203 -66 342 -265 342zM339 681c203 0 271 -141 271 -348c0 -229 -102 -337 -275 -337c-195 0 -275 108 -275 336c0 208 79 349 279 349z" />
    <glyph glyph-name="Xi" unicode="&#x39e;" horiz-adv-x="547" 
d="M35 6h477v-6h-477v6zM80 354h385v-6h-385v6zM494 667h-447v6h447v-6z" />
    <glyph glyph-name="Beta" unicode="&#x392;" horiz-adv-x="602" 
d="M70 673h261c126 0 197 -64 197 -159c0 -63 -42 -147 -137 -161c111 -14 158 -101 158 -172c0 -88 -46 -181 -210 -181h-269v673zM543 181c0 81 -55 169 -188 169h-279v-344h263c160 0 204 89 204 175zM76 667v-312h286c103 0 160 82 160 159c0 89 -65 153 -191 153h-255z
" />
    <glyph glyph-name="Epsilon" unicode="&#x395;" horiz-adv-x="520" 
d="M442 349v-6h-366v-337h416v-6h-422v673h398v-6h-392v-318h366z" />
    <glyph glyph-name="Zeta" unicode="&#x396;" horiz-adv-x="498" 
d="M10 0v6l455 661h-432v6h439v-6l-454 -661h470v-6h-478z" />
    <glyph glyph-name="Eta" unicode="&#x397;" horiz-adv-x="632" 
d="M70 673h6v-324h480v324h6v-673h-6v343h-480v-343h-6v673z" />
    <glyph glyph-name="Iota" unicode="&#x399;" horiz-adv-x="186" 
d="M90 673h6v-673h-6v673z" />
    <glyph glyph-name="Kappa" unicode="&#x39a;" horiz-adv-x="529" 
d="M519 0h-7l-252 344h-184v-344h-6v673h6v-323h184l242 323h7l-244 -326z" />
    <glyph glyph-name="Mu" unicode="&#x39c;" horiz-adv-x="773" 
d="M385 106h-4l-305 554v-660h-6v673h5l308 -558l314 558h6v-673h-6v661z" />
    <glyph glyph-name="Nu" unicode="&#x39d;" horiz-adv-x="636" 
d="M70 673h6l484 -663v663h6v-673h-6l-484 664v-664h-6v673z" />
    <glyph glyph-name="Omicron" unicode="&#x39f;" horiz-adv-x="655" 
d="M331 673c-193 0 -265 -150 -265 -339c0 -225 81 -332 256 -332c163 0 267 112 267 333c0 194 -67 338 -258 338zM331 679c195 0 264 -146 264 -344c0 -226 -106 -339 -273 -339c-179 0 -262 109 -262 338c0 193 74 345 271 345z" />
    <glyph glyph-name="Rho" unicode="&#x3a1;" horiz-adv-x="547" 
d="M70 673h238c137 0 214 -91 214 -208c0 -87 -43 -201 -214 -201h-232v-264h-6v673zM308 667h-232v-397h232c167 0 208 110 208 195c0 113 -75 202 -208 202z" />
    <glyph glyph-name="Tau" unicode="&#x3a4;" horiz-adv-x="518" 
d="M264 667v-667h-6v667h-248v6h498v-6h-244z" />
    <glyph glyph-name="Upsilon" unicode="&#x3a5;" horiz-adv-x="485" 
d="M470 673h7l-235 -386v-287h-6v287l-228 386h7l224 -379z" />
    <glyph glyph-name="Chi" unicode="&#x3a7;" horiz-adv-x="536" 
d="M13 0l251 348l-232 325h7l229 -320l230 320h7l-234 -324l250 -349h-7l-247 344l-248 -344h-6z" />
    <glyph glyph-name="eta" unicode="&#x3b7;" horiz-adv-x="487" 
d="M66 0h-6v478h6v-153c25 127 126 158 180 158c148 0 181 -91 181 -202v-281h-6v281c0 107 -31 196 -175 196c-55 0 -180 -34 -180 -219v-258z" />
    <glyph glyph-name="iota" unicode="&#x3b9;" horiz-adv-x="167" 
d="M81 478h6v-478h-6v478z" />
    <glyph glyph-name="kappa" unicode="&#x3ba;" horiz-adv-x="412" 
d="M393 478h7l-170 -230l174 -248h-8l-171 245h-159v-245h-6v478h6v-227h159z" />
    <glyph glyph-name="nu" unicode="&#x3bd;" horiz-adv-x="407" 
d="M206 0h-8l-190 478h6l188 -473l189 473h6z" />
    <glyph glyph-name="omicron" unicode="&#x3bf;" horiz-adv-x="495" 
d="M249 477c-140 0 -193 -105 -193 -243c0 -154 54 -232 193 -232c114 0 190 75 190 236c0 134 -50 239 -190 239zM249 483c144 0 196 -107 196 -245c0 -165 -78 -242 -196 -242c-143 0 -199 80 -199 238c0 142 55 249 199 249z" />
    <glyph glyph-name="chi" unicode="&#x3c7;" horiz-adv-x="391" 
d="M10 0l180 245l-171 233h7l167 -229l169 229h7l-172 -232l182 -246h-7l-178 241l-177 -241h-7z" />
    <glyph glyph-name="iotadieresis" unicode="&#x3ca;" horiz-adv-x="167" 
d="M81 478h6v-478h-6v478zM2 588c0 4 4 9 10 9s9 -5 9 -9c0 -6 -4 -9 -9 -9s-10 3 -10 9zM149 588c0 4 3 9 10 9c5 0 8 -5 8 -9c0 -6 -4 -9 -8 -9c-6 0 -10 3 -10 9z" />
    <glyph glyph-name="iotadieresistonos" unicode="&#x390;" horiz-adv-x="167" 
d="M81 478h6v-478h-6v478zM8 588c0 4 4 9 10 9s9 -5 9 -9c0 -6 -4 -9 -9 -9s-10 3 -10 9zM155 588c0 4 2 9 9 9c5 0 9 -3 9 -9s-4 -9 -8 -9c-6 0 -10 3 -10 9zM66 546l-5 2l76 143l9 -4z" />
    <glyph glyph-name="alpha" unicode="&#x3b1;" horiz-adv-x="504" 
d="M438 479h6v-479h-6v160c-19 -103 -92 -164 -193 -164c-138 0 -195 91 -195 243c0 144 57 244 203 244c75 0 163 -36 185 -157v153zM253 477c-144 0 -197 -98 -197 -238c0 -145 53 -237 189 -237c95 0 193 58 193 222v35c0 180 -109 218 -185 218z" />
    <glyph glyph-name="alphatonos" unicode="&#x3ac;" horiz-adv-x="504" 
d="M438 479h6v-479h-6v160c-19 -103 -92 -164 -193 -164c-138 0 -195 91 -195 243c0 144 57 244 203 244c75 0 163 -36 185 -157v153zM253 477c-144 0 -197 -98 -197 -238c0 -145 53 -237 189 -237c95 0 193 58 193 222v35c0 180 -109 218 -185 218zM255 546l-5 2l76 143
l9 -4z" />
    <glyph glyph-name="Upsilondieresis" unicode="&#x3ab;" horiz-adv-x="485" 
d="M470 673h7l-235 -386v-287h-6v287l-228 386h7l224 -379zM156 771c0 4 4 9 10 9s9 -5 9 -9c0 -6 -4 -9 -9 -9s-10 3 -10 9zM303 771c0 4 3 9 10 9c5 0 8 -5 8 -9c0 -6 -4 -9 -8 -9c-6 0 -10 3 -10 9z" />
    <glyph glyph-name="Alphatonos" unicode="&#x386;" horiz-adv-x="547" 
d="M533 0h-7l-73 190h-360l-72 -190h-6l253 673h8zM272 667l-177 -471h356zM23 546l-5 2l76 143l9 -4z" />
    <glyph glyph-name="Epsilontonos" unicode="&#x388;" horiz-adv-x="520" 
d="M442 349v-6h-366v-337h416v-6h-422v673h398v-6h-392v-318h366zM-94 546l-5 2l76 143l9 -4z" />
    <glyph glyph-name="Etatonos" unicode="&#x389;" horiz-adv-x="632" 
d="M70 673h6v-324h480v324h6v-673h-6v343h-480v-343h-6v673zM-95 546l-5 2l76 143l9 -4z" />
    <glyph glyph-name="Iotatonos" unicode="&#x38a;" horiz-adv-x="186" 
d="M90 673h6v-673h-6v673zM-81 546l-5 2l76 143l9 -4z" />
    <glyph glyph-name="Omicrontonos" unicode="&#x38c;" horiz-adv-x="655" 
d="M331 673c-193 0 -265 -150 -265 -339c0 -225 81 -332 256 -332c163 0 267 112 267 333c0 194 -67 338 -258 338zM331 679c195 0 264 -146 264 -344c0 -226 -106 -339 -273 -339c-179 0 -262 109 -262 338c0 193 74 345 271 345zM-47 546l-5 2l76 143l9 -4z" />
    <glyph glyph-name="Upsilontonos" unicode="&#x38e;" horiz-adv-x="485" 
d="M470 673h7l-235 -386v-287h-6v287l-228 386h7l224 -379zM-115 546l-5 2l76 143l9 -4z" />
    <glyph glyph-name="mu" unicode="&#xb5;" horiz-adv-x="482" 
d="M60 -205v683h6v-280c0 -107 23 -196 170 -196c55 0 180 34 180 219v257h6v-477h-6v153c-25 -127 -126 -158 -180 -158c-114 0 -156 52 -170 126v-327h-6z" />
    <glyph glyph-name="mu" unicode="&#x3bc;" horiz-adv-x="482" 
d="M60 -205v683h6v-280c0 -107 23 -196 170 -196c55 0 180 34 180 219v257h6v-477h-6v153c-25 -127 -126 -158 -180 -158c-114 0 -156 52 -170 126v-327h-6z" />
    <glyph glyph-name="lambda" unicode="&#x3bb;" horiz-adv-x="427" 
d="M36 711v6h38c56 0 71 -25 92 -83l212 -592c10 -27 14 -36 26 -36c6 0 10 1 14 2l1 -6c-5 -1 -9 -2 -15 -2c-17 0 -21 10 -32 40l-151 420h-19l-180 -460h-7l183 466h21l-59 166c-22 60 -36 79 -86 79h-38z" />
    <glyph glyph-name="tau" unicode="&#x3c4;" horiz-adv-x="342" 
d="M314 478v-6h-165v-337c0 -105 42 -133 127 -133c16 0 29 1 48 3v-6c-19 -2 -32 -3 -48 -3c-89 0 -133 30 -133 139v337h-135v6h306z" />
    <glyph glyph-name="Phi" unicode="&#x3a6;" horiz-adv-x="716" 
d="M360 673h6v-30c229 -2 290 -155 290 -302c0 -132 -68 -290 -290 -292v-49h-6v49c-213 1 -300 132 -300 291c0 168 87 302 300 303v30zM66 340c0 -155 85 -284 294 -285v582c-209 -1 -294 -133 -294 -297zM650 341c0 145 -59 294 -284 296v-582c219 2 284 156 284 286z
" />
    <glyph glyph-name="Psi" unicode="&#x3a8;" horiz-adv-x="704" 
d="M354 0h-6v187c-219 2 -283 125 -283 270v216h6v-216c0 -141 62 -262 277 -264v480h6v-480c166 0 281 98 281 265v215h6v-215c0 -171 -117 -271 -287 -271v-187z" />
    <glyph glyph-name="Omega" unicode="&#x3a9;" horiz-adv-x="672" 
d="M339 681c211 0 282 -175 282 -349c0 -127 -32 -279 -156 -326h176v-6h-185v9c125 43 159 191 159 323c0 170 -69 343 -276 343s-276 -173 -276 -343c0 -138 30 -278 159 -323v-9h-187v6h178c-128 48 -156 188 -156 326c0 174 71 349 282 349z" />
    <glyph glyph-name="Omegatonos" unicode="&#x38f;" horiz-adv-x="672" 
d="M339 681c211 0 282 -175 282 -349c0 -127 -32 -279 -156 -326h176v-6h-185v9c125 43 159 191 159 323c0 170 -69 343 -276 343s-276 -173 -276 -343c0 -138 30 -278 159 -323v-9h-187v6h178c-128 48 -156 188 -156 326c0 174 71 349 282 349zM-63 546l-5 2l76 143l9 -4z
" />
    <glyph glyph-name="etatonos" unicode="&#x3ae;" horiz-adv-x="492" 
d="M217 546l-5 2l76 143l9 -4zM66 0h-6v478h6v-153c25 127 126 158 180 158c148 0 181 -91 181 -202v-281h-6v281c0 107 -31 196 -175 196c-55 0 -180 -34 -180 -219v-258z" />
    <glyph glyph-name="iotatonos" unicode="&#x3af;" horiz-adv-x="167" 
d="M81 478h6v-478h-6v478zM87 546l-5 2l76 143l9 -4z" />
    <glyph glyph-name="omicrontonos" unicode="&#x3cc;" horiz-adv-x="495" 
d="M249 477c-140 0 -193 -105 -193 -243c0 -154 54 -232 193 -232c114 0 190 75 190 236c0 134 -50 239 -190 239zM249 483c144 0 196 -107 196 -245c0 -165 -78 -242 -196 -242c-143 0 -199 80 -199 238c0 142 55 249 199 249zM244 546l-5 2l76 143l9 -4z" />
    <glyph glyph-name="pi" unicode="&#x3c0;" horiz-adv-x="498" 
d="M432 472h-366v-472h-6v478h378v-478h-6v472z" />
    <glyph glyph-name="sigma" unicode="&#x3c3;" horiz-adv-x="519" 
d="M254 478h225v-6h-169c102 -24 143 -118 143 -236c0 -165 -81 -240 -199 -240c-143 0 -202 78 -202 236c0 142 58 246 202 246zM254 472c-140 0 -196 -102 -196 -240c0 -154 57 -230 196 -230c114 0 193 73 193 234c0 134 -53 236 -193 236z" />
    <glyph glyph-name="rho" unicode="&#x3c1;" horiz-adv-x="510" 
d="M262 483c137 0 198 -96 198 -240c0 -139 -53 -247 -205 -247c-102 0 -172 55 -189 163v-364h-6v462c0 126 58 226 202 226zM66 247v-23c0 -160 84 -222 189 -222c149 0 199 108 199 241c0 142 -61 234 -192 234c-108 0 -196 -59 -196 -230z" />
    <glyph glyph-name="delta" unicode="&#x3b4;" horiz-adv-x="495" 
d="M78 710v6h336v-6h-326c257 -163 358 -274 358 -470c0 -138 -53 -243 -200 -243c-144 0 -196 91 -196 233c0 175 80 252 215 252c30 0 69 -4 108 -19c-57 81 -152 155 -295 247zM440 240c0 84 -19 151 -61 214c-44 19 -85 22 -114 22c-131 0 -209 -75 -209 -246
c0 -138 50 -227 190 -227c143 0 194 103 194 237z" />
    <glyph glyph-name="upsilon" unicode="&#x3c5;" horiz-adv-x="505" 
d="M60 478h6v-293c0 -121 63 -183 182 -183c118 0 191 60 191 183v293h6v-293c0 -127 -75 -189 -197 -189c-123 0 -188 64 -188 189v293z" />
    <glyph glyph-name="upsilontonos" unicode="&#x3cd;" horiz-adv-x="505" 
d="M60 478h6v-293c0 -121 63 -183 182 -183c118 0 191 60 191 183v293h6v-293c0 -127 -75 -189 -197 -189c-123 0 -188 64 -188 189v293zM240 546l-5 2l76 143l9 -4z" />
    <glyph glyph-name="upsilondieresis" unicode="&#x3cb;" horiz-adv-x="505" 
d="M60 478h6v-293c0 -121 63 -183 182 -183c118 0 191 60 191 183v293h6v-293c0 -127 -75 -189 -197 -189c-123 0 -188 64 -188 189v293zM168 588c0 4 4 9 10 9s9 -5 9 -9c0 -6 -4 -9 -9 -9s-10 3 -10 9zM315 588c0 4 3 9 10 9c5 0 8 -5 8 -9c0 -6 -4 -9 -8 -9
c-6 0 -10 3 -10 9z" />
    <glyph glyph-name="upsilondieresistonos" unicode="&#x3b0;" horiz-adv-x="505" 
d="M60 478h6v-293c0 -121 63 -183 182 -183c118 0 191 60 191 183v293h6v-293c0 -127 -75 -189 -197 -189c-123 0 -188 64 -188 189v293zM172 588c0 4 4 9 10 9s9 -5 9 -9c0 -6 -4 -9 -9 -9s-10 3 -10 9zM319 588c0 4 2 9 9 9c5 0 9 -3 9 -9s-4 -9 -8 -9c-6 0 -10 3 -10 9z
M230 546l-5 2l76 143l9 -4z" />
    <glyph glyph-name="gamma" unicode="&#x3b3;" horiz-adv-x="405" 
d="M388 478h7l-183 -464v-219h-6v219l-153 412c-17 45 -21 51 -31 51c-2 0 -6 -1 -12 -3l-2 6c6 2 12 3 14 3c14 0 18 -4 37 -55l150 -404z" />
    <glyph glyph-name="sigma1" unicode="&#x3c2;" horiz-adv-x="436" 
d="M424 350h-6c12 100 -91 126 -161 126c-157 0 -203 -118 -203 -250c0 -108 59 -148 181 -201c85 -37 123 -53 123 -79c0 -19 -28 -61 -56 -102l-5 3c27 39 55 81 55 99c0 21 -40 39 -119 73c-128 56 -185 97 -185 207c0 136 48 256 209 256c73 0 180 -28 167 -132z" />
    <glyph glyph-name="beta" unicode="&#x3b2;" horiz-adv-x="508" 
d="M66 -149h-6v665c0 118 58 204 188 204c118 0 167 -66 167 -154c0 -48 -26 -117 -100 -138c91 -14 143 -104 143 -206c0 -115 -51 -227 -199 -227c-102 0 -174 55 -193 152v-296zM66 516v-305c0 -125 66 -210 193 -210c144 0 193 110 193 221c0 106 -59 202 -161 202h-80
v6h68c101 0 130 90 130 134c0 83 -44 150 -161 150c-126 0 -182 -84 -182 -198z" />
    <glyph glyph-name="theta" unicode="&#x3b8;" horiz-adv-x="513" 
d="M258 720c178 0 205 -175 205 -362c0 -164 -27 -361 -205 -361c-170 0 -208 161 -208 357c0 206 46 366 208 366zM258 3c172 0 199 193 199 355v19h-401v-23c0 -192 36 -351 202 -351zM258 714c-151 0 -198 -143 -202 -331h401c-3 173 -35 331 -199 331z" />
    <glyph glyph-name="omega" unicode="&#x3c9;" horiz-adv-x="761" 
d="M711 236c0 -106 -20 -238 -175 -238c-72 0 -144 47 -156 112c-19 -67 -77 -112 -155 -112c-154 0 -175 111 -175 238c0 140 45 247 189 247v-6c-140 0 -183 -103 -183 -241c0 -123 21 -232 169 -232c93 0 153 64 153 145v159h6v-173c0 -80 74 -131 155 -131
c144 0 166 128 166 232c0 138 -43 241 -183 241v6c145 -1 189 -107 189 -247z" />
    <glyph glyph-name="omegatonos" unicode="&#x3ce;" horiz-adv-x="761" 
d="M711 236c0 140 -44 246 -189 247v-6c140 0 183 -103 183 -241c0 -104 -22 -232 -166 -232c-81 0 -155 51 -155 131v173h-6v-159c0 -81 -60 -145 -153 -145c-148 0 -169 109 -169 232c0 138 43 241 183 241v6c-144 0 -189 -107 -189 -247c0 -127 21 -238 175 -238
c78 0 136 45 155 112c12 -65 84 -112 156 -112c155 0 175 132 175 238zM379 546l-5 2l76 143l9 -4z" />
    <glyph glyph-name="epsilon" unicode="&#x3b5;" horiz-adv-x="432" 
d="M61 354c0 -70 65 -88 118 -88h90v-6h-92c-76 0 -126 -57 -126 -125c0 -73 46 -133 177 -133c82 0 176 40 169 143h6c7 -107 -91 -149 -175 -149c-135 0 -183 63 -183 139c0 37 18 105 98 127c-74 15 -88 57 -88 92c0 70 48 129 172 129c103 0 174 -50 164 -134h-6
c10 80 -59 128 -158 128c-120 0 -166 -57 -166 -123z" />
    <glyph glyph-name="epsilontonos" unicode="&#x3ad;" horiz-adv-x="432" 
d="M61 354c0 66 46 123 166 123c99 0 168 -48 158 -128h6c10 84 -61 134 -164 134c-124 0 -172 -59 -172 -129c0 -35 14 -77 88 -92c-80 -22 -98 -90 -98 -127c0 -76 48 -139 183 -139c84 0 182 42 175 149h-6c7 -103 -87 -143 -169 -143c-131 0 -177 60 -177 133
c0 68 50 125 126 125h92v6h-90c-53 0 -118 18 -118 88zM208 546l-5 2l76 143l9 -4z" />
    <glyph glyph-name="psi" unicode="&#x3c8;" horiz-adv-x="556" 
d="M272 478h6v-477c108 1 214 50 214 197v280h6v-280c0 -151 -108 -202 -220 -203v-200h-6v200c-132 1 -214 54 -214 201v282h6v-282c0 -143 81 -194 208 -195v477z" />
    <glyph glyph-name="phi" unicode="&#x3c6;" horiz-adv-x="600" 
d="M297 -205h-6v201c-186 4 -241 126 -241 243c0 97 33 185 120 222l2 -6c-84 -36 -116 -121 -116 -216c0 -115 53 -233 235 -237v478h17c195 0 242 -119 242 -241c0 -115 -52 -243 -253 -243v-201zM297 474v-472c197 0 247 124 247 237c0 118 -45 235 -236 235h-11z" />
    <glyph glyph-name="xi" unicode="&#x3be;" horiz-adv-x="403" 
d="M75 565c0 -113 108 -146 195 -146h78v-6h-99c-139 0 -193 -112 -193 -204c0 -104 83 -150 241 -199c81 -25 94 -39 94 -63c0 -13 -17 -50 -47 -95l-5 3c30 45 46 81 46 92c0 21 -13 33 -90 57c-152 48 -245 94 -245 205c0 72 33 185 166 208c-121 21 -147 95 -147 149
c0 80 54 153 183 153c110 0 177 -50 168 -133h-6c9 79 -56 127 -162 127c-125 0 -177 -68 -177 -148z" />
    <glyph glyph-name="zeta" unicode="&#x3b6;" horiz-adv-x="386" 
d="M424 712v-6c-176 -149 -368 -346 -368 -494c0 -100 76 -146 171 -186c119 -50 151 -71 151 -103c0 -27 -22 -60 -58 -106l-5 4c33 42 56 75 56 102c0 28 -28 47 -146 97c-85 36 -175 82 -175 192c0 152 196 349 365 494h-334v6h343z" />
    <glyph glyph-name="three" unicode="3" horiz-adv-x="545" 
d="M490 646v-6l-256 -252c13 2 26 2 37 2c109 0 225 -59 225 -189c0 -118 -83 -205 -232 -205c-156 0 -226 89 -214 196h6c-12 -103 56 -190 208 -190c145 0 226 83 226 199c0 126 -112 183 -219 183c-10 0 -26 0 -44 -3l-3 5l258 254h-389v6h397z" />
    <glyph glyph-name="onesuperior" unicode="&#xb9;" horiz-adv-x="372" 
d="M63 387v6h122v368l-108 -18l-1 6l109 19h6v-375h124v-6h-252z" />
    <glyph glyph-name="twosuperior" unicode="&#xb2;" horiz-adv-x="372" 
d="M327 393v-6h-298v13c0 76 52 109 155 167c62 34 119 70 119 120c0 48 -38 80 -120 80c-96 0 -131 -42 -130 -91h-6c-1 53 36 97 136 97c86 0 126 -34 126 -86c0 -53 -61 -92 -123 -126c-96 -53 -151 -89 -151 -161v-7h292z" />
    <glyph glyph-name="threesuperior" unicode="&#xb3;" horiz-adv-x="372" 
d="M323 768v-6l-157 -141h16c88 0 148 -47 148 -116c0 -73 -59 -123 -156 -123c-53 0 -152 20 -140 105h6c-11 -81 83 -99 134 -99c93 0 150 48 150 117c0 65 -58 110 -142 110c-7 0 -14 0 -24 -1l-3 5l160 143h-258v6h266z" />
    <glyph glyph-name="sfthyphen" unicode="&#xad;" horiz-adv-x="448" 
d="M103 247v9h242v-9h-242z" />
    <glyph glyph-name="acute" unicode="&#xb4;" horiz-adv-x="468" 
d="M224 556l-4 3l105 123l7 -6z" />
    <glyph glyph-name="space" unicode=" " horiz-adv-x="250" 
 />
    <glyph glyph-name="emdash" unicode="&#x2014;" horiz-adv-x="1000" 
d="M19 249v10h968v-10h-968z" />
    <glyph glyph-name="daggerdbl" unicode="&#x2021;" horiz-adv-x="539" 
d="M79 476v6h174v213h6v-213h181v-6h-181v-312h181v-6h-181v-276h-6v276h-174v6h174v312h-174z" />
    <glyph glyph-name="guilsinglleft" unicode="&#x2039;" horiz-adv-x="276" 
d="M221 32l-159 187v6l151 189l4 -3l-147 -189l155 -187z" />
    <glyph glyph-name="guilsinglright" unicode="&#x203a;" horiz-adv-x="276" 
d="M215 219l-159 -187l-4 3l155 187l-147 189l4 3l151 -189v-6z" />
    <glyph glyph-name="quotesinglbase" unicode="&#x201a;" horiz-adv-x="137" 
d="M37 -94l34 89c-7 0 -14 5 -14 13c0 7 6 13 13 13c8 0 13 -6 13 -12c0 -2 0 -5 -3 -11l-39 -94z" />
    <glyph glyph-name="quotedblbase" unicode="&#x201e;" horiz-adv-x="188" 
d="M37 -94l34 89c-7 0 -14 5 -14 13c0 7 6 13 13 13c8 0 13 -6 13 -12c0 -2 0 -5 -3 -11l-39 -94zM86 -94l34 89c-7 0 -14 5 -14 13c0 7 6 13 13 13c8 0 13 -6 13 -12c0 -2 0 -5 -3 -11l-39 -94z" />
    <glyph glyph-name="exclamdown" unicode="&#xa1;" horiz-adv-x="219" 
d="M105 370h6l2 -586h-9zM97 471c0 5 4 9 9 9c6 0 10 -4 10 -9c0 -6 -4 -10 -10 -10c-5 0 -9 4 -9 10z" />
    <glyph glyph-name="questiondown" unicode="&#xbf;" horiz-adv-x="544" 
d="M450 -50h6c7 -82 -38 -171 -191 -171c-130 0 -179 63 -179 141c0 64 43 106 89 148c60 55 118 114 118 228v75h6v-75c0 -120 -63 -179 -120 -232c-45 -43 -87 -81 -87 -144c0 -74 44 -135 173 -135c148 0 191 85 185 165zM307 470c0 -6 -4 -10 -9 -10c-6 0 -10 4 -10 10
c0 5 4 9 10 9c5 0 9 -4 9 -9z" />
    <glyph glyph-name="AE" unicode="&#xc6;" horiz-adv-x="874" 
d="M11 0h-8l446 673h384v-6h-375v-302h342v-6h-342v-353h388v-6h-394v272h-261zM195 278h257v389z" />
    <glyph glyph-name="OE" unicode="&#x152;" horiz-adv-x="800" 
d="M722 369v-6h-347v-357h397v-6h-399c-16 -2 -34 -4 -51 -4c-179 0 -262 109 -262 338c0 193 74 345 271 345c23 0 45 -2 64 -6h358v-6h-378v-298h347zM322 2c16 0 32 0 47 3v666c-12 1 -25 2 -38 2c-193 0 -265 -150 -265 -339c0 -225 81 -332 256 -332z" />
    <glyph glyph-name="thorn" unicode="&#xfe;" horiz-adv-x="504" 
d="M60 720h6v-399c28 137 120 162 196 162c135 0 192 -96 192 -240c0 -139 -52 -247 -202 -247c-102 0 -169 55 -186 163v-364h-6v925zM66 249v-25c0 -160 81 -222 186 -222c146 0 196 108 196 241c0 142 -57 234 -186 234c-108 0 -196 -57 -196 -228z" />
    <glyph glyph-name="Thorn" unicode="&#xde;" horiz-adv-x="547" 
d="M70 673h6v-128h233c137 0 213 -85 213 -202c0 -87 -42 -196 -213 -196h-233v-147h-6v673zM309 539h-233v-386h233c167 0 207 105 207 190c0 113 -74 196 -207 196z" />
    <glyph glyph-name="multiply" unicode="&#xd7;" horiz-adv-x="545" 
d="M263 271l-123 -123l-5 5l123 123l-123 123l5 5l123 -123l122 122l5 -5l-122 -122l122 -122l-5 -5z" />
    <glyph glyph-name="Oslash" unicode="&#xd8;" horiz-adv-x="655" 
d="M331 679c92 0 156 -33 198 -89l66 87l4 -4l-66 -88c43 -61 62 -149 62 -250c0 -226 -106 -339 -273 -339c-80 0 -141 21 -184 66l-63 -83l-4 4l63 83c-50 56 -74 144 -74 268c0 193 74 345 271 345zM331 673c-193 0 -265 -150 -265 -339c0 -121 23 -208 72 -262l387 513
c-41 55 -104 88 -194 88zM589 335c0 99 -18 185 -60 245l-387 -513c42 -44 101 -65 180 -65c163 0 267 112 267 333z" />
    <glyph glyph-name="oslash" unicode="&#xf8;" horiz-adv-x="495" 
d="M249 483c68 0 116 -25 147 -65l50 62l4 -4l-50 -62c32 -44 45 -106 45 -176c0 -165 -78 -242 -196 -242c-66 0 -114 17 -146 51l-51 -63l-4 4l51 63c-34 40 -49 101 -49 183c0 142 55 249 199 249zM249 477c-140 0 -193 -105 -193 -243c0 -80 14 -139 47 -178l289 358
c-30 39 -77 63 -143 63zM439 238c0 67 -13 128 -43 171l-289 -357c31 -34 77 -50 142 -50c114 0 190 75 190 236z" />
    <glyph glyph-name="breve" unicode="&#x2d8;" horiz-adv-x="468" 
d="M349 669h6c-4 -41 -35 -110 -113 -110c-79 0 -109 69 -110 110h6c1 -39 29 -103 104 -103c74 0 103 64 107 103z" />
    <glyph glyph-name="dotaccent" unicode="&#x2d9;" horiz-adv-x="468" 
d="M232 595c0 4 4 10 11 10s10 -6 10 -10c0 -7 -6 -10 -10 -10c-5 0 -11 3 -11 10z" />
    <glyph glyph-name="ring" unicode="&#x2da;" horiz-adv-x="468" 
d="M236 696c-36 0 -61 -29 -61 -63c0 -38 27 -64 61 -64c39 0 62 31 62 64s-22 63 -62 63zM236 702c44 0 68 -32 68 -69s-25 -70 -68 -70c-38 0 -67 28 -67 70c0 38 27 69 67 69z" />
    <glyph glyph-name="ogonek" unicode="&#x2db;" horiz-adv-x="468" 
d="M411 7l4 -4c-44 -32 -74 -79 -74 -117c0 -41 31 -55 68 -55c24 0 52 6 72 14l2 -6c-20 -8 -50 -14 -76 -14c-39 0 -74 15 -74 60c0 40 32 90 78 122z" />
    <glyph glyph-name="hungarumlaut" unicode="&#x2dd;" horiz-adv-x="468" 
d="M171 556l-4 3l105 123l7 -6zM251 556l-4 3l105 123l7 -6z" />
    <glyph glyph-name="Circumflex" unicode="&#xf6c0;" horiz-adv-x="655" 
d="M461 732l-132 101l-134 -104l-4 4l135 107h7l132 -104z" />
    <glyph glyph-name="commaaccent" unicode="&#xf6c3;" horiz-adv-x="658" 
d="M302 -180l34 89c-7 0 -14 5 -14 13c0 7 6 13 13 13c8 0 13 -6 13 -12c0 -2 0 -5 -3 -11l-39 -94z" />
    <glyph glyph-name="Caron" unicode="&#xf6ca;" horiz-adv-x="655" 
d="M329 736l132 101l4 -4l-132 -104h-7l-135 107l4 4z" />
    <glyph glyph-name="DieresisAcute" unicode="&#xf6cc;" horiz-adv-x="567" 
d="M273 728l-5 2l76 143l9 -4zM214 770c0 4 4 9 10 9s9 -5 9 -9c0 -6 -4 -9 -9 -9s-10 3 -10 9zM361 770c0 4 3 9 10 9c5 0 8 -5 8 -9c0 -6 -4 -9 -8 -9c-6 0 -10 3 -10 9z" />
    <glyph glyph-name="DieresisGrave" unicode="&#xf6cd;" horiz-adv-x="567" 
d="M326 730l-5 -2l-80 141l9 4zM214 770c0 4 4 9 10 9s9 -5 9 -9c0 -6 -4 -9 -9 -9s-10 3 -10 9zM361 770c0 4 3 9 10 9c5 0 8 -5 8 -9c0 -6 -4 -9 -8 -9c-6 0 -10 3 -10 9z" />
    <glyph glyph-name="Hungarumlaut" unicode="&#xf6cf;" horiz-adv-x="658" 
d="M256 734l-4 4l121 106l6 -6zM346 734l-4 4l121 106l6 -6z" />
    <glyph glyph-name="Macron" unicode="&#xf6d0;" horiz-adv-x="658" 
d="M197 774v8h273v-8h-273z" />
    <glyph glyph-name="cyrBreve" unicode="&#xf6d1;" horiz-adv-x="658" 
d="M437 846h6c-4 -41 -35 -110 -113 -110c-79 0 -109 69 -110 110h6c1 -39 29 -103 104 -103c74 0 103 64 107 103z" />
    <glyph glyph-name="cyrbreve" unicode="&#xf6d4;" horiz-adv-x="501" 
d="M374 665h6c-4 -41 -35 -110 -113 -110c-79 0 -109 69 -110 110h6c1 -39 29 -103 104 -103c74 0 103 64 107 103z" />
    <glyph glyph-name="uniF6DA" unicode="&#xf6da;" horiz-adv-x="535" 
d="M300 550l-4 -2l-91 180l8 4z" />
    <glyph glyph-name="uniF6DB" unicode="&#xf6db;" horiz-adv-x="501" 
d="M257 548l-4 2l87 182l8 -4z" />
    <glyph glyph-name="uniF6DC" unicode="&#xf6dc;" horiz-adv-x="468" 
d="M107 587l-6 2c17 35 44 50 73 50c18 0 41 -11 65 -22c23 -11 47 -22 64 -22c23 0 44 10 62 42l6 -2c-20 -35 -43 -46 -68 -46c-19 0 -43 11 -66 22c-24 11 -47 22 -63 22c-27 0 -51 -14 -67 -46z" />
    <glyph glyph-name="macron" unicode="&#xaf;" horiz-adv-x="468" 
d="M107 592v8h273v-8h-273z" />
    <glyph glyph-name="Scaron" unicode="&#x160;" horiz-adv-x="581" 
d="M508 506h-6c1 6 1 13 1 15c0 76 -59 154 -208 154c-144 0 -208 -75 -208 -155c0 -112 93 -128 235 -149c132 -20 211 -71 211 -184c0 -92 -62 -191 -247 -191c-163 0 -236 83 -236 188c0 3 1 13 2 19h6c-1 -7 -2 -16 -2 -19c0 -101 71 -183 230 -183
c181 0 241 96 241 186c0 106 -73 159 -205 178c-151 21 -241 41 -241 155c0 84 66 160 214 160c153 0 214 -80 214 -158c0 -2 0 -9 -1 -16zM294 736l132 101l4 -4l-132 -104h-7l-135 107l4 4z" />
    <glyph glyph-name="Zcaron" unicode="&#x17d;" horiz-adv-x="498" 
d="M10 0v6l455 661h-432v6h439v-6l-454 -661h470v-6h-478zM253 736l132 101l4 -4l-132 -104h-7l-135 107l4 4z" />
    <glyph glyph-name="scaron" unicode="&#x161;" horiz-adv-x="445" 
d="M217 -4c-116 0 -182 69 -170 150h6c-12 -78 52 -144 164 -144c134 0 177 62 177 127c0 80 -66 111 -150 124c-105 16 -171 31 -171 118c0 60 46 112 150 112c130 0 161 -64 155 -124h-6c5 58 -23 118 -149 118c-103 0 -144 -50 -144 -106c0 -83 63 -96 166 -112
c90 -14 155 -48 155 -130c0 -69 -49 -133 -183 -133zM229 551l137 119l4 -4l-137 -122h-7l-140 125l4 4z" />
    <glyph glyph-name="zcaron" unicode="&#x17e;" horiz-adv-x="378" 
d="M8 0v6l346 466h-318v6h326v-6l-345 -466h346v-6h-355zM200 551l137 119l4 -4l-137 -122h-7l-140 125l4 4z" />
    <glyph glyph-name="Ydieresis" unicode="&#x178;" horiz-adv-x="485" 
d="M470 673h7l-235 -386v-287h-6v287l-228 386h7l224 -379zM158 765c0 4 4 9 10 9s9 -5 9 -9c0 -6 -4 -9 -9 -9s-10 3 -10 9zM305 765c0 4 3 9 10 9c5 0 8 -5 8 -9c0 -6 -4 -9 -8 -9c-6 0 -10 3 -10 9z" />
    <glyph glyph-name="Agrave" unicode="&#xc0;" horiz-adv-x="547" 
d="M533 0h-7l-73 190h-360l-72 -190h-6l253 673h8zM272 667l-177 -471h356zM278 738l-4 -4l-123 104l6 6z" />
    <glyph glyph-name="Aacute" unicode="&#xc1;" horiz-adv-x="547" 
d="M533 0h-7l-73 190h-360l-72 -190h-6l253 673h8zM272 667l-177 -471h356zM263 734l-4 4l121 106l6 -6z" />
    <glyph glyph-name="Acircumflex" unicode="&#xc2;" horiz-adv-x="547" 
d="M533 0h-7l-73 190h-360l-72 -190h-6l253 673h8zM272 667l-177 -471h356zM404 719l-132 101l-134 -104l-4 4l135 107h7l132 -104z" />
    <glyph glyph-name="Atilde" unicode="&#xc3;" horiz-adv-x="547" 
d="M533 0h-7l-73 190h-360l-72 -190h-6l253 673h8zM272 667l-177 -471h356zM144 765l-6 2c17 35 44 50 73 50c18 0 41 -11 65 -22c23 -11 47 -22 64 -22c23 0 44 10 62 42l6 -2c-20 -35 -43 -46 -68 -46c-19 0 -43 11 -66 22c-24 11 -47 22 -63 22c-27 0 -51 -14 -67 -46z
" />
    <glyph glyph-name="Egrave" unicode="&#xc8;" horiz-adv-x="520" 
d="M442 349v-6h-366v-337h416v-6h-422v673h398v-6h-392v-318h366zM309 738l-4 -4l-123 104l6 6z" />
    <glyph glyph-name="Ecircumflex" unicode="&#xca;" horiz-adv-x="520" 
d="M442 349v-6h-366v-337h416v-6h-422v673h398v-6h-392v-318h366zM404 732l-132 101l-134 -104l-4 4l135 107h7l132 -104z" />
    <glyph glyph-name="Edieresis" unicode="&#xcb;" horiz-adv-x="520" 
d="M442 349v-6h-366v-337h416v-6h-422v673h398v-6h-392v-318h366zM185 779c0 4 4 9 10 9s9 -5 9 -9c0 -6 -4 -9 -9 -9s-10 3 -10 9zM332 779c0 4 3 9 10 9c5 0 8 -5 8 -9c0 -6 -4 -9 -8 -9c-6 0 -10 3 -10 9z" />
    <glyph glyph-name="Igrave" unicode="&#xcc;" horiz-adv-x="186" 
d="M90 673h6v-673h-6v673zM108 738l-4 -4l-123 104l6 6z" />
    <glyph glyph-name="Iacute" unicode="&#xcd;" horiz-adv-x="186" 
d="M90 673h6v-673h-6v673zM94 734l-4 4l121 106l6 -6z" />
    <glyph glyph-name="Icircumflex" unicode="&#xce;" horiz-adv-x="186" 
d="M90 673h6v-673h-6v673zM227 732l-132 101l-134 -104l-4 4l135 107h7l132 -104z" />
    <glyph glyph-name="Idieresis" unicode="&#xcf;" horiz-adv-x="186" 
d="M90 673h6v-673h-6v673zM12 779c0 4 4 9 10 9s9 -5 9 -9c0 -6 -4 -9 -9 -9s-10 3 -10 9zM159 779c0 4 3 9 10 9c5 0 8 -5 8 -9c0 -6 -4 -9 -8 -9c-6 0 -10 3 -10 9z" />
    <glyph glyph-name="Eth" unicode="&#xd0;" horiz-adv-x="612" 
d="M260 0h-190v352h-70v6h70v315h189c117 0 303 -59 303 -333c0 -277 -188 -340 -302 -340zM76 6h184c112 0 296 63 296 334c0 270 -182 327 -297 327h-183v-309h286v-6h-286v-346z" />
    <glyph glyph-name="Ntilde" unicode="&#xd1;" horiz-adv-x="636" 
d="M70 673h6l484 -663v663h6v-673h-6l-484 664v-664h-6v673zM199 756l-6 2c17 35 44 50 73 50c18 0 41 -11 65 -22c23 -11 47 -22 64 -22c23 0 44 10 62 42l6 -2c-20 -35 -43 -46 -68 -46c-19 0 -43 11 -66 22c-24 11 -47 22 -63 22c-27 0 -51 -14 -67 -46z" />
    <glyph glyph-name="Ograve" unicode="&#xd2;" horiz-adv-x="655" 
d="M331 673c-193 0 -265 -150 -265 -339c0 -225 81 -332 256 -332c163 0 267 112 267 333c0 194 -67 338 -258 338zM331 679c195 0 264 -146 264 -344c0 -226 -106 -339 -273 -339c-179 0 -262 109 -262 338c0 193 74 345 271 345zM353 738l-4 -4l-123 104l6 6z" />
    <glyph glyph-name="Oacute" unicode="&#xd3;" horiz-adv-x="655" 
d="M331 673c-193 0 -265 -150 -265 -339c0 -225 81 -332 256 -332c163 0 267 112 267 333c0 194 -67 338 -258 338zM331 679c195 0 264 -146 264 -344c0 -226 -106 -339 -273 -339c-179 0 -262 109 -262 338c0 193 74 345 271 345zM321 734l-4 4l121 106l6 -6z" />
    <glyph glyph-name="Ocircumflex" unicode="&#xd4;" horiz-adv-x="655" 
d="M331 673c-193 0 -265 -150 -265 -339c0 -225 81 -332 256 -332c163 0 267 112 267 333c0 194 -67 338 -258 338zM331 679c195 0 264 -146 264 -344c0 -226 -106 -339 -273 -339c-179 0 -262 109 -262 338c0 193 74 345 271 345zM461 732l-132 101l-134 -104l-4 4l135 107
h7l132 -104z" />
    <glyph glyph-name="Otilde" unicode="&#xd5;" horiz-adv-x="655" 
d="M331 673c-193 0 -265 -150 -265 -339c0 -225 81 -332 256 -332c163 0 267 112 267 333c0 194 -67 338 -258 338zM331 679c195 0 264 -146 264 -344c0 -226 -106 -339 -273 -339c-179 0 -262 109 -262 338c0 193 74 345 271 345zM204 773l-6 2c17 35 44 50 73 50
c18 0 41 -11 65 -22c23 -11 47 -22 64 -22c23 0 44 10 62 42l6 -2c-20 -35 -43 -46 -68 -46c-19 0 -43 11 -66 22c-24 11 -47 22 -63 22c-27 0 -51 -14 -67 -46z" />
    <glyph glyph-name="Ugrave" unicode="&#xd9;" horiz-adv-x="648" 
d="M70 673h6v-393c0 -169 59 -278 249 -278c179 0 247 120 247 279v392h6v-392c0 -163 -71 -285 -253 -285c-194 0 -255 111 -255 284v393zM355 738l-4 -4l-123 104l6 6z" />
    <glyph glyph-name="Uacute" unicode="&#xda;" horiz-adv-x="648" 
d="M70 673h6v-393c0 -169 59 -278 249 -278c179 0 247 120 247 279v392h6v-392c0 -163 -71 -285 -253 -285c-194 0 -255 111 -255 284v393zM289 734l-4 4l121 106l6 -6z" />
    <glyph glyph-name="Ucircumflex" unicode="&#xdb;" horiz-adv-x="648" 
d="M70 673h6v-393c0 -169 59 -278 249 -278c179 0 247 120 247 279v392h6v-392c0 -163 -71 -285 -253 -285c-194 0 -255 111 -255 284v393zM455 732l-132 101l-134 -104l-4 4l135 107h7l132 -104z" />
    <glyph glyph-name="Yacute" unicode="&#xdd;" horiz-adv-x="485" 
d="M470 673h7l-235 -386v-287h-6v287l-228 386h7l224 -379zM218 717l-4 4l121 106l6 -6z" />
    <glyph glyph-name="aacute" unicode="&#xe1;" horiz-adv-x="469" 
d="M411 0h-6v126c-21 -71 -85 -130 -205 -130c-83 0 -155 36 -155 129c0 86 69 163 230 163c34 0 79 -5 130 -15v47c0 60 -10 157 -159 157c-116 0 -156 -62 -152 -118h-6c-5 57 37 124 158 124c154 0 165 -101 165 -163v-320zM200 2c130 0 205 73 205 175v90
c-52 10 -98 15 -130 15c-157 0 -224 -75 -224 -157c0 -89 70 -123 149 -123zM229 556l-4 3l105 123l7 -6z" />
    <glyph glyph-name="atilde" unicode="&#xe3;" horiz-adv-x="469" 
d="M411 0h-6v126c-21 -71 -85 -130 -205 -130c-83 0 -155 36 -155 129c0 86 69 163 230 163c34 0 79 -5 130 -15v47c0 60 -10 157 -159 157c-116 0 -156 -62 -152 -118h-6c-5 57 37 124 158 124c154 0 165 -101 165 -163v-320zM200 2c130 0 205 73 205 175v90
c-52 10 -98 15 -130 15c-157 0 -224 -75 -224 -157c0 -89 70 -123 149 -123zM133 593l-6 2c17 35 44 50 73 50c18 0 41 -11 65 -22c23 -11 47 -22 64 -22c23 0 44 10 62 42l6 -2c-20 -35 -43 -46 -68 -46c-19 0 -43 11 -66 22c-24 11 -47 22 -63 22c-27 0 -51 -14 -67 -46z
" />
    <glyph glyph-name="aring" unicode="&#xe5;" horiz-adv-x="469" 
d="M411 0h-6v126c-21 -71 -85 -130 -205 -130c-83 0 -155 36 -155 129c0 86 69 163 230 163c34 0 79 -5 130 -15v47c0 60 -10 157 -159 157c-116 0 -156 -62 -152 -118h-6c-5 57 37 124 158 124c154 0 165 -101 165 -163v-320zM200 2c130 0 205 73 205 175v90
c-52 10 -98 15 -130 15c-157 0 -224 -75 -224 -157c0 -89 70 -123 149 -123zM254 696c-36 0 -61 -29 -61 -63c0 -38 27 -64 61 -64c39 0 62 31 62 64s-22 63 -62 63zM254 702c44 0 68 -32 68 -69s-25 -70 -68 -70c-38 0 -67 28 -67 70c0 38 27 69 67 69z" />
    <glyph glyph-name="igrave" unicode="&#xec;" horiz-adv-x="167" 
d="M81 478h6v-478h-6v478zM99 556l-4 -3l-108 120l7 6z" />
    <glyph glyph-name="iacute" unicode="&#xed;" horiz-adv-x="167" 
d="M81 478h6v-478h-6v478zM95 556l-4 3l105 123l7 -6z" />
    <glyph glyph-name="ntilde" unicode="&#xf1;" horiz-adv-x="487" 
d="M66 0h-6v478h6v-153c25 127 126 158 180 158c148 0 181 -91 181 -202v-281h-6v281c0 107 -31 196 -175 196c-55 0 -180 -34 -180 -219v-258zM111 593l-6 2c17 35 44 50 73 50c18 0 41 -11 65 -22c23 -11 47 -22 64 -22c23 0 44 10 62 42l6 -2c-20 -35 -43 -46 -68 -46
c-19 0 -43 11 -66 22c-24 11 -47 22 -63 22c-27 0 -51 -14 -67 -46z" />
    <glyph glyph-name="ograve" unicode="&#xf2;" horiz-adv-x="495" 
d="M249 477c-140 0 -193 -105 -193 -243c0 -154 54 -232 193 -232c114 0 190 75 190 236c0 134 -50 239 -190 239zM249 483c144 0 196 -107 196 -245c0 -165 -78 -242 -196 -242c-143 0 -199 80 -199 238c0 142 55 249 199 249zM276 556l-4 -3l-108 120l7 6z" />
    <glyph glyph-name="oacute" unicode="&#xf3;" horiz-adv-x="495" 
d="M249 477c-140 0 -193 -105 -193 -243c0 -154 54 -232 193 -232c114 0 190 75 190 236c0 134 -50 239 -190 239zM249 483c144 0 196 -107 196 -245c0 -165 -78 -242 -196 -242c-143 0 -199 80 -199 238c0 142 55 249 199 249zM235 556l-4 3l105 123l7 -6z" />
    <glyph glyph-name="uacute" unicode="&#xfa;" horiz-adv-x="482" 
d="M416 478h6v-477h-6v153c-25 -127 -126 -158 -180 -158c-150 0 -176 91 -176 202v280h6v-280c0 -107 23 -196 170 -196c55 0 180 34 180 219v257zM222 556l-4 3l105 123l7 -6z" />
    <glyph glyph-name="yacute" unicode="&#xfd;" horiz-adv-x="394" 
d="M379 478h7l-200 -554c-24 -66 -45 -129 -136 -129h-37v6h37c86 0 106 61 130 125l26 72h-25l-173 480h7l170 -475h23zM190 547l-4 3l105 123l7 -6z" />
    <glyph glyph-name="ydieresis" unicode="&#xff;" horiz-adv-x="394" 
d="M379 478h7l-200 -554c-24 -66 -45 -129 -136 -129h-37v6h37c86 0 106 61 130 125l26 72h-25l-173 480h7l170 -475h23zM122 584c0 4 4 9 10 9s9 -5 9 -9c0 -6 -4 -9 -9 -9s-10 3 -10 9zM269 584c0 4 3 9 10 9c5 0 8 -5 8 -9c0 -6 -4 -9 -8 -9c-6 0 -10 3 -10 9z" />
    <glyph glyph-name="Amacron" unicode="&#x100;" horiz-adv-x="547" 
d="M533 0h-7l-73 190h-360l-72 -190h-6l253 673h8zM272 667l-177 -471h356zM135 774v8h273v-8h-273z" />
    <glyph glyph-name="amacron" unicode="&#x101;" horiz-adv-x="469" 
d="M411 0h-6v126c-21 -71 -85 -130 -205 -130c-83 0 -155 36 -155 129c0 86 69 163 230 163c34 0 79 -5 130 -15v47c0 60 -10 157 -159 157c-116 0 -156 -62 -152 -118h-6c-5 57 37 124 158 124c154 0 165 -101 165 -163v-320zM200 2c130 0 205 73 205 175v90
c-52 10 -98 15 -130 15c-157 0 -224 -75 -224 -157c0 -89 70 -123 149 -123zM117 592v8h273v-8h-273z" />
    <glyph glyph-name="Abreve" unicode="&#x102;" horiz-adv-x="547" 
d="M533 0h-7l-73 190h-360l-72 -190h-6l253 673h8zM272 667l-177 -471h356zM379 846h6c-4 -41 -35 -110 -113 -110c-79 0 -109 69 -110 110h6c1 -39 29 -103 104 -103c74 0 103 64 107 103z" />
    <glyph glyph-name="abreve" unicode="&#x103;" horiz-adv-x="469" 
d="M411 0h-6v126c-21 -71 -85 -130 -205 -130c-83 0 -155 36 -155 129c0 86 69 163 230 163c34 0 79 -5 130 -15v47c0 60 -10 157 -159 157c-116 0 -156 -62 -152 -118h-6c-5 57 37 124 158 124c154 0 165 -101 165 -163v-320zM200 2c130 0 205 73 205 175v90
c-52 10 -98 15 -130 15c-157 0 -224 -75 -224 -157c0 -89 70 -123 149 -123zM352 672h6c-4 -41 -35 -110 -113 -110c-79 0 -109 69 -110 110h6c1 -39 29 -103 104 -103c74 0 103 64 107 103z" />
    <glyph glyph-name="Aogonek" unicode="&#x104;" horiz-adv-x="547" 
d="M533 0h-6c-42 -32 -70 -77 -70 -114c0 -41 31 -55 68 -55c24 0 52 6 72 14l2 -6c-20 -8 -50 -14 -76 -14c-39 0 -74 15 -74 60c0 39 30 88 75 120l-71 185h-360l-72 -190h-6l253 673h8zM272 667l-177 -471h356z" />
    <glyph glyph-name="aogonek" unicode="&#x105;" horiz-adv-x="469" 
d="M411 0h-5c-42 -32 -70 -77 -70 -114c0 -41 31 -55 68 -55c24 0 52 6 72 14l2 -6c-20 -8 -50 -14 -76 -14c-39 0 -74 15 -74 60c0 40 31 90 77 121v120c-21 -71 -85 -130 -205 -130c-83 0 -155 36 -155 129c0 86 69 163 230 163c34 0 79 -5 130 -15v47
c0 60 -10 157 -159 157c-116 0 -156 -62 -152 -118h-6c-5 57 37 124 158 124c154 0 165 -101 165 -163v-320zM200 2c130 0 205 73 205 175v90c-52 10 -98 15 -130 15c-157 0 -224 -75 -224 -157c0 -89 70 -123 149 -123z" />
    <glyph glyph-name="Cacute" unicode="&#x106;" horiz-adv-x="599" 
d="M297 734l-4 4l121 106l6 -6zM539 498h-6c14 122 -101 175 -203 175c-191 0 -264 -142 -264 -342c0 -194 58 -329 256 -329c162 0 235 87 225 190h6c10 -107 -66 -196 -231 -196c-202 0 -262 137 -262 335c0 204 76 348 270 348c105 0 223 -55 209 -181z" />
    <glyph glyph-name="cacute" unicode="&#x107;" horiz-adv-x="448" 
d="M410 360h-6c6 95 -83 117 -155 117c-145 0 -193 -122 -193 -242c0 -176 71 -233 191 -233c134 0 168 74 164 137h6c4 -65 -32 -143 -170 -143c-124 0 -197 59 -197 239c0 124 50 248 199 248c75 0 168 -24 161 -123zM232 556l-4 3l105 123l7 -6z" />
    <glyph glyph-name="Ccircumflex" unicode="&#x108;" horiz-adv-x="599" 
d="M464 732l-132 101l-134 -104l-4 4l135 107h7l132 -104zM539 498h-6c14 122 -101 175 -203 175c-191 0 -264 -142 -264 -342c0 -194 58 -329 256 -329c162 0 235 87 225 190h6c10 -107 -66 -196 -231 -196c-202 0 -262 137 -262 335c0 204 76 348 270 348
c105 0 223 -55 209 -181z" />
    <glyph glyph-name="ccircumflex" unicode="&#x109;" horiz-adv-x="448" 
d="M410 360h-6c6 95 -83 117 -155 117c-145 0 -193 -122 -193 -242c0 -176 71 -233 191 -233c134 0 168 74 164 137h6c4 -65 -32 -143 -170 -143c-124 0 -197 59 -197 239c0 124 50 248 199 248c75 0 168 -24 161 -123zM394 547l-137 119l-139 -122l-4 4l140 125h7l137 -122
z" />
    <glyph glyph-name="Cdotaccent" unicode="&#x10a;" horiz-adv-x="599" 
d="M316 765c0 4 4 10 11 10s10 -6 10 -10c0 -7 -6 -10 -10 -10c-5 0 -11 3 -11 10zM539 498h-6c14 122 -101 175 -203 175c-191 0 -264 -142 -264 -342c0 -194 58 -329 256 -329c162 0 235 87 225 190h6c10 -107 -66 -196 -231 -196c-202 0 -262 137 -262 335
c0 204 76 348 270 348c105 0 223 -55 209 -181z" />
    <glyph glyph-name="cdotaccent" unicode="&#x10b;" horiz-adv-x="448" 
d="M410 360h-6c6 95 -83 117 -155 117c-145 0 -193 -122 -193 -242c0 -176 71 -233 191 -233c134 0 168 74 164 137h6c4 -65 -32 -143 -170 -143c-124 0 -197 59 -197 239c0 124 50 248 199 248c75 0 168 -24 161 -123zM235 595c0 4 4 10 11 10s10 -6 10 -10
c0 -7 -6 -10 -10 -10c-5 0 -11 3 -11 10z" />
    <glyph glyph-name="Ccaron" unicode="&#x10c;" horiz-adv-x="599" 
d="M324 736l132 101l4 -4l-132 -104h-7l-135 107l4 4zM539 498h-6c14 122 -101 175 -203 175c-191 0 -264 -142 -264 -342c0 -194 58 -329 256 -329c162 0 235 87 225 190h6c10 -107 -66 -196 -231 -196c-202 0 -262 137 -262 335c0 204 76 348 270 348
c105 0 223 -55 209 -181z" />
    <glyph glyph-name="ccaron" unicode="&#x10d;" horiz-adv-x="448" 
d="M410 360h-6c6 95 -83 117 -155 117c-145 0 -193 -122 -193 -242c0 -176 71 -233 191 -233c134 0 168 74 164 137h6c4 -65 -32 -143 -170 -143c-124 0 -197 59 -197 239c0 124 50 248 199 248c75 0 168 -24 161 -123zM251 551l137 119l4 -4l-137 -122h-7l-140 125l4 4z
" />
    <glyph glyph-name="Dcaron" unicode="&#x10e;" horiz-adv-x="612" 
d="M260 0h-190v673h189c117 0 303 -59 303 -333c0 -277 -188 -340 -302 -340zM76 6h184c112 0 296 63 296 334c0 270 -182 327 -297 327h-183v-661zM252 736l132 101l4 -4l-132 -104h-7l-135 107l4 4z" />
    <glyph glyph-name="dcaron" unicode="&#x10f;" horiz-adv-x="543" 
d="M496 608l34 89c-7 0 -14 5 -14 13c0 7 6 13 13 13c8 0 13 -6 13 -12c0 -2 0 -5 -3 -11l-39 -94zM444 0h-6v158c-27 -137 -120 -162 -194 -162c-146 0 -194 96 -194 240c0 139 58 247 202 247c102 0 168 -58 186 -163v398h6v-718zM438 230v25c0 160 -84 222 -186 222
c-142 0 -196 -108 -196 -241c0 -142 49 -234 188 -234c112 0 194 61 194 228z" />
    <glyph glyph-name="Dcroat" unicode="&#x110;" horiz-adv-x="612" 
d="M260 0h-190v352h-70v6h70v315h189c117 0 303 -59 303 -333c0 -277 -188 -340 -302 -340zM76 6h184c112 0 296 63 296 334c0 270 -182 327 -297 327h-183v-309h286v-6h-286v-346z" />
    <glyph glyph-name="dcroat" unicode="&#x111;" horiz-adv-x="504" 
d="M444 0h-6v158c-27 -137 -120 -162 -194 -162c-146 0 -194 96 -194 240c0 139 58 247 202 247c102 0 168 -58 186 -163v261h-193v6h193v131h6v-131h69v-6h-69v-581zM438 230v25c0 160 -84 222 -186 222c-142 0 -196 -108 -196 -241c0 -142 49 -234 188 -234
c112 0 194 61 194 228z" />
    <glyph glyph-name="Emacron" unicode="&#x112;" horiz-adv-x="520" 
d="M442 349v-6h-366v-337h416v-6h-422v673h398v-6h-392v-318h366zM137 774v8h273v-8h-273z" />
    <glyph glyph-name="emacron" unicode="&#x113;" horiz-adv-x="472" 
d="M252 477c-140 0 -191 -96 -196 -223h364c17 116 -35 223 -168 223zM251 -4c-167 0 -201 100 -201 246c0 134 54 241 202 241c137 0 193 -111 173 -235h-369v-6c0 -142 32 -240 195 -240c134 0 172 84 168 147h6c4 -65 -36 -153 -174 -153zM110 592v8h273v-8h-273z" />
    <glyph glyph-name="Ebreve" unicode="&#x114;" horiz-adv-x="520" 
d="M442 349v-6h-366v-337h416v-6h-422v673h398v-6h-392v-318h366zM384 846h6c-4 -41 -35 -110 -113 -110c-79 0 -109 69 -110 110h6c1 -39 29 -103 104 -103c74 0 103 64 107 103z" />
    <glyph glyph-name="ebreve" unicode="&#x115;" horiz-adv-x="472" 
d="M252 477c-140 0 -191 -96 -196 -223h364c17 116 -35 223 -168 223zM251 -4c-167 0 -201 100 -201 246c0 134 54 241 202 241c137 0 193 -111 173 -235h-369v-6c0 -142 32 -240 195 -240c134 0 172 84 168 147h6c4 -65 -36 -153 -174 -153zM353 669h6
c-4 -41 -35 -110 -113 -110c-79 0 -109 69 -110 110h6c1 -39 29 -103 104 -103c74 0 103 64 107 103z" />
    <glyph glyph-name="Edotaccent" unicode="&#x116;" horiz-adv-x="520" 
d="M442 349v-6h-366v-337h416v-6h-422v673h398v-6h-392v-318h366zM266 758c0 4 4 10 11 10s10 -6 10 -10c0 -7 -6 -10 -10 -10c-5 0 -11 3 -11 10z" />
    <glyph glyph-name="edotaccent" unicode="&#x117;" horiz-adv-x="472" 
d="M252 477c-140 0 -191 -96 -196 -223h364c17 116 -35 223 -168 223zM251 -4c-167 0 -201 100 -201 246c0 134 54 241 202 241c137 0 193 -111 173 -235h-369v-6c0 -142 32 -240 195 -240c134 0 172 84 168 147h6c4 -65 -36 -153 -174 -153zM240 595c0 4 4 10 11 10
s10 -6 10 -10c0 -7 -6 -10 -10 -10c-5 0 -11 3 -11 10z" />
    <glyph glyph-name="Eogonek" unicode="&#x118;" horiz-adv-x="520" 
d="M442 369v-6h-366v-357h416v-6h-50c-43 -32 -72 -78 -72 -116c0 -41 31 -55 68 -55c24 0 52 6 72 14l2 -6c-20 -8 -50 -14 -76 -14c-39 0 -74 15 -74 60c0 38 28 85 71 117h-363v673h398v-6h-392v-298h366z" />
    <glyph glyph-name="eogonek" unicode="&#x119;" horiz-adv-x="472" 
d="M251 -4c-167 0 -201 100 -201 246c0 134 55 241 203 241c137 0 192 -111 172 -235h-369v-6c0 -142 32 -240 195 -240c134 0 172 84 168 147h6c3 -52 -22 -119 -103 -144c-44 -31 -73 -78 -73 -116c0 -41 31 -55 68 -55c24 0 52 6 72 14l2 -6c-20 -8 -50 -14 -76 -14
c-39 0 -74 15 -74 60c0 37 27 82 67 114c-17 -4 -36 -6 -57 -6zM253 477c-140 0 -192 -96 -197 -223h364c17 116 -34 223 -167 223z" />
    <glyph glyph-name="Ecaron" unicode="&#x11a;" horiz-adv-x="520" 
d="M442 349v-6h-366v-337h416v-6h-422v673h398v-6h-392v-318h366zM269 736l132 101l4 -4l-132 -104h-7l-135 107l4 4z" />
    <glyph glyph-name="ecaron" unicode="&#x11b;" horiz-adv-x="472" 
d="M252 477c-140 0 -191 -96 -196 -223h364c17 116 -35 223 -168 223zM251 -4c-167 0 -201 100 -201 246c0 134 54 241 202 241c137 0 193 -111 173 -235h-369v-6c0 -142 32 -240 195 -240c134 0 172 84 168 147h6c4 -65 -36 -153 -174 -153zM248 551l137 119l4 -4
l-137 -122h-7l-140 125l4 4z" />
    <glyph glyph-name="Gcircumflex" unicode="&#x11c;" horiz-adv-x="615" 
d="M352 322v5h205v-96c0 -88 -33 -235 -236 -235c-173 0 -261 104 -261 335c0 205 80 348 262 348c163 0 219 -92 213 -174h-6c6 80 -49 168 -207 168c-180 0 -256 -141 -256 -342c0 -227 85 -329 255 -329c197 0 230 143 230 229v91h-199zM450 732l-132 101l-134 -104l-4 4
l135 107h7l132 -104z" />
    <glyph glyph-name="gcircumflex" unicode="&#x11d;" horiz-adv-x="491" 
d="M59 110c0 21 14 45 56 68c-46 28 -66 79 -66 133c0 103 75 172 190 172c19 0 38 -2 55 -5h146v-6h-121c73 -23 121 -78 121 -160c0 -89 -64 -169 -194 -169c-67 0 -104 18 -126 31c-35 -18 -55 -40 -55 -64c0 -44 73 -58 156 -69l53 -7c116 -15 192 -41 192 -120
c0 -89 -108 -125 -238 -125c-148 0 -193 46 -193 116c0 56 43 108 107 144c-52 12 -83 29 -83 61zM434 312c0 103 -79 165 -195 165c-114 0 -184 -70 -184 -166c0 -115 89 -162 191 -162c130 0 188 81 188 163zM149 47c-65 -35 -108 -86 -108 -142c0 -66 43 -110 187 -110
c126 0 232 34 232 119c0 74 -73 100 -185 115c-79 10 -99 13 -126 18zM383 547l-137 119l-139 -122l-4 4l140 125h7l137 -122z" />
    <glyph glyph-name="Gbreve" unicode="&#x11e;" horiz-adv-x="615" 
d="M352 322v5h205v-96c0 -88 -33 -235 -236 -235c-173 0 -261 104 -261 335c0 205 80 348 262 348c163 0 219 -92 213 -174h-6c6 80 -49 168 -207 168c-180 0 -256 -141 -256 -342c0 -227 85 -329 255 -329c197 0 230 143 230 229v91h-199zM430 846h6
c-4 -41 -35 -110 -113 -110c-79 0 -109 69 -110 110h6c1 -39 29 -103 104 -103c74 0 103 64 107 103z" />
    <glyph glyph-name="gbreve" unicode="&#x11f;" horiz-adv-x="491" 
d="M59 110c0 21 14 45 56 68c-46 28 -66 79 -66 133c0 103 75 172 190 172c19 0 38 -2 55 -5h146v-6h-121c73 -23 121 -78 121 -160c0 -89 -64 -169 -194 -169c-67 0 -104 18 -126 31c-35 -18 -55 -40 -55 -64c0 -44 73 -58 156 -69l53 -7c116 -15 192 -41 192 -120
c0 -89 -108 -125 -238 -125c-148 0 -193 46 -193 116c0 56 43 108 107 144c-52 12 -83 29 -83 61zM434 312c0 103 -79 165 -195 165c-114 0 -184 -70 -184 -166c0 -115 89 -162 191 -162c130 0 188 81 188 163zM149 47c-65 -35 -108 -86 -108 -142c0 -66 43 -110 187 -110
c126 0 232 34 232 119c0 74 -73 100 -185 115c-79 10 -99 13 -126 18zM347 669h6c-4 -41 -35 -110 -113 -110c-79 0 -109 69 -110 110h6c1 -39 29 -103 104 -103c74 0 103 64 107 103z" />
    <glyph glyph-name="Gdotaccent" unicode="&#x120;" horiz-adv-x="615" 
d="M352 322v5h205v-96c0 -88 -33 -235 -236 -235c-173 0 -261 104 -261 335c0 205 80 348 262 348c163 0 219 -92 213 -174h-6c6 80 -49 168 -207 168c-180 0 -256 -141 -256 -342c0 -227 85 -329 255 -329c197 0 230 143 230 229v91h-199zM309 765c0 4 4 10 11 10
s10 -6 10 -10c0 -7 -6 -10 -10 -10c-5 0 -11 3 -11 10z" />
    <glyph glyph-name="gdotaccent" unicode="&#x121;" horiz-adv-x="491" 
d="M59 110c0 21 14 45 56 68c-46 28 -66 79 -66 133c0 103 75 172 190 172c19 0 38 -2 55 -5h146v-6h-121c73 -23 121 -78 121 -160c0 -89 -64 -169 -194 -169c-67 0 -104 18 -126 31c-35 -18 -55 -40 -55 -64c0 -44 73 -58 156 -69l53 -7c116 -15 192 -41 192 -120
c0 -89 -108 -125 -238 -125c-148 0 -193 46 -193 116c0 56 43 108 107 144c-52 12 -83 29 -83 61zM434 312c0 103 -79 165 -195 165c-114 0 -184 -70 -184 -166c0 -115 89 -162 191 -162c130 0 188 81 188 163zM149 47c-65 -35 -108 -86 -108 -142c0 -66 43 -110 187 -110
c126 0 232 34 232 119c0 74 -73 100 -185 115c-79 10 -99 13 -126 18zM231 595c0 4 4 10 11 10s10 -6 10 -10c0 -7 -6 -10 -10 -10c-5 0 -11 3 -11 10z" />
    <glyph glyph-name="Gcommaaccent" unicode="&#x122;" horiz-adv-x="615" 
d="M352 322v5h205v-96c0 -88 -33 -235 -236 -235c-173 0 -261 104 -261 335c0 205 80 348 262 348c163 0 219 -92 213 -174h-6c6 80 -49 168 -207 168c-180 0 -256 -141 -256 -342c0 -227 85 -329 255 -329c197 0 230 143 230 229v91h-199zM285 -180l34 89
c-7 0 -14 5 -14 13c0 7 6 13 13 13c8 0 13 -6 13 -12c0 -2 0 -5 -3 -11l-39 -94z" />
    <glyph glyph-name="gcommaaccent" unicode="&#x123;" horiz-adv-x="491" 
d="M273 669l-34 -89c7 0 14 -5 14 -13c0 -7 -6 -13 -13 -13c-8 0 -13 6 -13 12c0 2 0 5 3 11l39 94zM59 110c0 21 14 45 56 68c-46 28 -66 79 -66 133c0 103 75 172 190 172c19 0 38 -2 55 -5h146v-6h-121c73 -23 121 -78 121 -160c0 -89 -64 -169 -194 -169
c-67 0 -104 18 -126 31c-35 -18 -55 -40 -55 -64c0 -44 73 -58 156 -69l53 -7c116 -15 192 -41 192 -120c0 -89 -108 -125 -238 -125c-148 0 -193 46 -193 116c0 56 43 108 107 144c-52 12 -83 29 -83 61zM434 312c0 103 -79 165 -195 165c-114 0 -184 -70 -184 -166
c0 -115 89 -162 191 -162c130 0 188 81 188 163zM149 47c-65 -35 -108 -86 -108 -142c0 -66 43 -110 187 -110c126 0 232 34 232 119c0 74 -73 100 -185 115c-79 10 -99 13 -126 18z" />
    <glyph glyph-name="Hcircumflex" unicode="&#x124;" horiz-adv-x="632" 
d="M70 673h6v-324h480v324h6v-673h-6v343h-480v-343h-6v673zM449 732l-132 101l-134 -104l-4 4l135 107h7l132 -104z" />
    <glyph glyph-name="hcircumflex" unicode="&#x125;" horiz-adv-x="487" 
d="M66 0h-6v718h6v-393c25 127 126 158 180 158c148 0 181 -91 181 -202v-281h-6v281c0 107 -31 196 -175 196c-55 0 -180 -34 -180 -219v-258zM197 732l-132 101l-134 -104l-4 4l135 107h7l132 -104z" />
    <glyph glyph-name="Hbar" unicode="&#x126;" horiz-adv-x="632" 
d="M70 673h6v-107h480v107h6v-107h49v-5h-49v-561h-6v353h-480v-353h-6v561h-58v5h58v107zM76 358h480v203h-480v-203z" />
    <glyph glyph-name="hbar" unicode="&#x127;" horiz-adv-x="487" 
d="M66 0h-6v602h-48v5h48v111h6v-111h250v-5h-250v-277c25 127 126 158 180 158c148 0 181 -91 181 -202v-281h-6v281c0 107 -31 196 -175 196c-55 0 -180 -34 -180 -219v-258z" />
    <glyph glyph-name="Itilde" unicode="&#x128;" horiz-adv-x="186" 
d="M90 673h6v-673h-6v673zM-36 763l-6 2c17 35 44 50 73 50c18 0 41 -11 65 -22c23 -11 47 -22 64 -22c23 0 44 10 62 42l6 -2c-20 -35 -43 -46 -68 -46c-19 0 -43 11 -66 22c-24 11 -47 22 -63 22c-27 0 -51 -14 -67 -46z" />
    <glyph glyph-name="itilde" unicode="&#x129;" horiz-adv-x="167" 
d="M81 478h6v-478h-6v478zM-45 593l-6 2c17 35 44 50 73 50c18 0 41 -11 65 -22c23 -11 47 -22 64 -22c23 0 44 10 62 42l6 -2c-20 -35 -43 -46 -68 -46c-19 0 -43 11 -66 22c-24 11 -47 22 -63 22c-27 0 -51 -14 -67 -46z" />
    <glyph glyph-name="Imacron" unicode="&#x12a;" horiz-adv-x="186" 
d="M90 673h6v-673h-6v673zM-44 774v8h273v-8h-273z" />
    <glyph glyph-name="imacron" unicode="&#x12b;" horiz-adv-x="167" 
d="M81 478h6v-478h-6v478zM-52 592v8h273v-8h-273z" />
    <glyph glyph-name="Ibreve" unicode="&#x12c;" horiz-adv-x="181" 
d="M191 846h6c-4 -41 -35 -110 -113 -110c-79 0 -109 69 -110 110h6c1 -39 29 -103 104 -103c74 0 103 64 107 103zM82 673h6v-673h-6v673z" />
    <glyph glyph-name="ibreve" unicode="&#x12d;" horiz-adv-x="167" 
d="M81 478h6v-478h-6v478zM190 669h6c-4 -41 -35 -110 -113 -110c-79 0 -109 69 -110 110h6c1 -39 29 -103 104 -103c74 0 103 64 107 103z" />
    <glyph glyph-name="Iogonek" unicode="&#x12e;" horiz-adv-x="186" 
d="M90 673h6v-673h-5c-42 -32 -70 -77 -70 -114c0 -41 31 -55 68 -55c24 0 52 6 72 14l2 -6c-20 -8 -50 -14 -76 -14c-39 0 -74 15 -74 60c0 40 31 90 77 121v667z" />
    <glyph glyph-name="iogonek" unicode="&#x12f;" horiz-adv-x="167" 
d="M81 7v471h6v-478h-6c-42 -32 -70 -77 -70 -114c0 -41 31 -55 68 -55c24 0 52 6 72 14l2 -6c-20 -8 -50 -14 -76 -14c-39 0 -74 15 -74 60c0 40 32 90 78 122zM74 621c0 4 5 9 10 9c4 0 9 -5 9 -9c0 -6 -5 -9 -9 -9c-5 0 -10 3 -10 9z" />
    <glyph glyph-name="Idotaccent" unicode="&#x130;" horiz-adv-x="186" 
d="M90 673h6v-673h-6v673zM84 765c0 4 4 10 11 10s10 -6 10 -10c0 -7 -6 -10 -10 -10c-5 0 -11 3 -11 10z" />
    <glyph glyph-name="IJ" unicode="&#x132;" horiz-adv-x="660" 
d="M80 673h6v-673h-6v673zM165 167h6c-7 -78 45 -161 200 -161c137 0 208 79 208 203v464h6v-464c0 -128 -73 -209 -214 -209c-159 0 -213 88 -206 167z" />
    <glyph glyph-name="ij" unicode="&#x133;" horiz-adv-x="299" 
d="M75 478h6v-478h-6v478zM68 621c0 4 3 9 10 9c6 0 9 -5 9 -9c0 -6 -5 -9 -9 -9c-5 0 -10 3 -10 9zM219 478h6v-587c0 -68 -14 -96 -70 -96h-16v6h16c52 0 64 26 64 90v587zM212 621c0 4 3 9 10 9c6 0 9 -5 9 -9c0 -6 -5 -9 -9 -9c-5 0 -10 3 -10 9z" />
    <glyph glyph-name="Jcircumflex" unicode="&#x134;" horiz-adv-x="521" 
d="M21 168h6c-7 -78 45 -161 200 -161c137 0 208 79 208 203v464h6v-464c0 -128 -73 -209 -214 -209c-159 0 -213 88 -206 167zM571 734l-132 101l-134 -104l-4 4l135 107h7l132 -104z" />
    <glyph glyph-name="jcircumflex" unicode="&#x135;" horiz-adv-x="181" 
d="M90 478h6v-587c0 -68 -14 -96 -70 -96h-16v6h16c52 0 64 26 64 90v587zM232 547l-137 119l-139 -122l-4 4l140 125h7l137 -122z" />
    <glyph glyph-name="Kcommaaccent" unicode="&#x136;" horiz-adv-x="529" 
d="M519 0h-7l-252 344h-184v-344h-6v673h6v-323h184l242 323h7l-244 -326zM212 -153l34 89c-7 0 -14 5 -14 13c0 7 6 13 13 13c8 0 13 -6 13 -12c0 -2 0 -5 -3 -11l-39 -94z" />
    <glyph glyph-name="kcommaaccent" unicode="&#x137;" horiz-adv-x="412" 
d="M393 478h7l-177 -214l181 -264h-8l-178 261h-152v-261h-6v718h6v-451h152zM167 -166l34 89c-7 0 -14 5 -14 13c0 7 6 13 13 13c8 0 13 -6 13 -12c0 -2 0 -5 -3 -11l-39 -94z" />
    <glyph glyph-name="kgreenlandic" unicode="&#x138;" horiz-adv-x="412" 
d="M393 478h7l-170 -230l174 -248h-8l-171 245h-159v-245h-6v478h6v-227h159z" />
    <glyph glyph-name="Lacute" unicode="&#x139;" horiz-adv-x="515" 
d="M500 6v-6h-430v673h6v-667h424zM60 734l-4 4l121 106l6 -6z" />
    <glyph glyph-name="lacute" unicode="&#x13a;" horiz-adv-x="155" 
d="M70 718h6v-660c0 -33 7 -52 61 -52v-6c-58 0 -67 19 -67 58v660zM69 754l-4 4l121 106l6 -6z" />
    <glyph glyph-name="Lcommaaccent" unicode="&#x13b;" horiz-adv-x="515" 
d="M500 6v-6h-430v673h6v-667h424zM249 -180l34 89c-7 0 -14 5 -14 13c0 7 6 13 13 13c8 0 13 -6 13 -12c0 -2 0 -5 -3 -11l-39 -94z" />
    <glyph glyph-name="lcommaaccent" unicode="&#x13c;" horiz-adv-x="155" 
d="M70 718h6v-660c0 -33 7 -52 61 -52v-6c-58 0 -67 19 -67 58v660zM55 -180l34 89c-7 0 -14 5 -14 13c0 7 6 13 13 13c8 0 13 -6 13 -12c0 -2 0 -5 -3 -11l-39 -94z" />
    <glyph glyph-name="Lcaron" unicode="&#x13d;" horiz-adv-x="515" 
d="M500 6v-6h-430v673h6v-667h424zM331 534l34 89c-7 0 -14 5 -14 13c0 7 6 13 13 13c8 0 13 -6 13 -12c0 -2 0 -5 -3 -11l-39 -94z" />
    <glyph glyph-name="lcaron" unicode="&#x13e;" horiz-adv-x="230" 
d="M171 593l34 89c-7 0 -14 5 -14 13c0 7 6 13 13 13c8 0 13 -6 13 -12c0 -2 0 -5 -3 -11l-39 -94zM102 718h6v-660c0 -33 7 -52 61 -52v-6c-58 0 -67 19 -67 58v660z" />
    <glyph glyph-name="Ldot" unicode="&#x13f;" horiz-adv-x="515" 
d="M500 6v-6h-430v673h6v-667h424zM278 328c0 4 4 10 11 10s10 -6 10 -10c0 -7 -6 -10 -10 -10c-5 0 -11 3 -11 10z" />
    <glyph glyph-name="ldot" unicode="&#x140;" horiz-adv-x="207" 
d="M166 346c0 4 4 10 11 10s10 -6 10 -10c0 -7 -6 -10 -10 -10c-5 0 -11 3 -11 10zM80 718h6v-660c0 -33 7 -52 61 -52v-6c-58 0 -67 19 -67 58v660z" />
    <glyph glyph-name="Lslash" unicode="&#x141;" horiz-adv-x="515" 
d="M-19 225l-4 6l93 54v388h6v-385l165 96l4 -6l-169 -98v-274h424v-6h-430v276z" />
    <glyph glyph-name="lslash" unicode="&#x142;" horiz-adv-x="155" 
d="M70 718h6v-431l88 50l4 -6l-92 -52v-221c0 -33 14 -52 61 -52v-6c-51 0 -67 19 -67 58v217l-89 -50l-4 6l93 52v435z" />
    <glyph glyph-name="Nacute" unicode="&#x143;" horiz-adv-x="636" 
d="M70 673h6l484 -663v663h6v-673h-6l-484 664v-664h-6v673zM299 722l-4 4l121 106l6 -6z" />
    <glyph glyph-name="nacute" unicode="&#x144;" horiz-adv-x="487" 
d="M66 0h-6v478h6v-153c25 127 126 158 180 158c148 0 181 -91 181 -202v-281h-6v281c0 107 -31 196 -175 196c-55 0 -180 -34 -180 -219v-258zM200 556l-4 3l105 123l7 -6z" />
    <glyph glyph-name="Ncommaaccent" unicode="&#x145;" horiz-adv-x="636" 
d="M70 673h6l484 -663v663h6v-673h-6l-484 664v-664h-6v673zM268 -155l34 89c-7 0 -14 5 -14 13c0 7 6 13 13 13c8 0 13 -6 13 -12c0 -2 0 -5 -3 -11l-39 -94z" />
    <glyph glyph-name="ncommaaccent" unicode="&#x146;" horiz-adv-x="487" 
d="M66 0h-6v478h6v-153c25 127 126 158 180 158c148 0 181 -91 181 -202v-281h-6v281c0 107 -31 196 -175 196c-55 0 -180 -34 -180 -219v-258zM212 -158l34 89c-7 0 -14 5 -14 13c0 7 6 13 13 13c8 0 13 -6 13 -12c0 -2 0 -5 -3 -11l-39 -94z" />
    <glyph glyph-name="Ncaron" unicode="&#x147;" horiz-adv-x="636" 
d="M70 673h6l484 -663v663h6v-673h-6l-484 664v-664h-6v673zM328 736l132 101l4 -4l-132 -104h-7l-135 107l4 4z" />
    <glyph glyph-name="ncaron" unicode="&#x148;" horiz-adv-x="487" 
d="M66 0h-6v478h6v-153c25 127 126 158 180 158c148 0 181 -91 181 -202v-281h-6v281c0 107 -31 196 -175 196c-55 0 -180 -34 -180 -219v-258zM232 551l137 119l4 -4l-137 -122h-7l-140 125l4 4z" />
    <glyph glyph-name="napostrophe" unicode="&#x149;" horiz-adv-x="514" 
d="M93 0h-6v478h6v-153c25 127 126 158 180 158c148 0 181 -91 181 -202v-281h-6v281c0 107 -31 196 -175 196c-55 0 -180 -34 -180 -219v-258zM2 487l34 89c-7 0 -14 5 -14 13c0 7 6 13 13 13c8 0 13 -6 13 -12c0 -2 0 -5 -3 -11l-39 -94z" />
    <glyph glyph-name="Eng" unicode="&#x14a;" horiz-adv-x="636" 
d="M70 673h6l484 -663v663h6v-786c0 -57 -32 -79 -81 -79c-15 0 -30 2 -47 6l2 6c17 -4 32 -6 45 -6c46 0 75 20 75 73v113l-484 664v-664h-6v673z" />
    <glyph glyph-name="eng" unicode="&#x14b;" horiz-adv-x="487" 
d="M66 0h-6v478h6v-153c25 127 126 158 180 158c148 0 181 -91 181 -202v-394c0 -57 -32 -79 -81 -79c-15 0 -30 2 -47 6l2 6c17 -4 32 -6 45 -6c46 0 75 20 75 73v394c0 107 -31 196 -175 196c-55 0 -180 -34 -180 -219v-258z" />
    <glyph glyph-name="Omacron" unicode="&#x14c;" horiz-adv-x="655" 
d="M331 673c-193 0 -265 -150 -265 -339c0 -225 81 -332 256 -332c163 0 267 112 267 333c0 194 -67 338 -258 338zM331 679c195 0 264 -146 264 -344c0 -226 -106 -339 -273 -339c-179 0 -262 109 -262 338c0 193 74 345 271 345zM196 774v8h273v-8h-273z" />
    <glyph glyph-name="omacron" unicode="&#x14d;" horiz-adv-x="495" 
d="M249 477c-140 0 -193 -105 -193 -243c0 -154 54 -232 193 -232c114 0 190 75 190 236c0 134 -50 239 -190 239zM249 483c144 0 196 -107 196 -245c0 -165 -78 -242 -196 -242c-143 0 -199 80 -199 238c0 142 55 249 199 249zM115 592v8h273v-8h-273z" />
    <glyph glyph-name="Obreve" unicode="&#x14e;" horiz-adv-x="655" 
d="M331 673c-193 0 -265 -150 -265 -339c0 -225 81 -332 256 -332c163 0 267 112 267 333c0 194 -67 338 -258 338zM331 679c195 0 264 -146 264 -344c0 -226 -106 -339 -273 -339c-179 0 -262 109 -262 338c0 193 74 345 271 345zM439 846h6c-4 -41 -35 -110 -113 -110
c-79 0 -109 69 -110 110h6c1 -39 29 -103 104 -103c74 0 103 64 107 103z" />
    <glyph glyph-name="obreve" unicode="&#x14f;" horiz-adv-x="495" 
d="M249 477c-140 0 -193 -105 -193 -243c0 -154 54 -232 193 -232c114 0 190 75 190 236c0 134 -50 239 -190 239zM249 483c144 0 196 -107 196 -245c0 -165 -78 -242 -196 -242c-143 0 -199 80 -199 238c0 142 55 249 199 249zM358 669h6c-4 -41 -35 -110 -113 -110
c-79 0 -109 69 -110 110h6c1 -39 29 -103 104 -103c74 0 103 64 107 103z" />
    <glyph glyph-name="Ohungarumlaut" unicode="&#x150;" horiz-adv-x="655" 
d="M331 673c-193 0 -265 -150 -265 -339c0 -225 81 -332 256 -332c163 0 267 112 267 333c0 194 -67 338 -258 338zM331 679c195 0 264 -146 264 -344c0 -226 -106 -339 -273 -339c-179 0 -262 109 -262 338c0 193 74 345 271 345zM267 734l-4 4l121 106l6 -6zM357 734l-4 4
l121 106l6 -6z" />
    <glyph glyph-name="ohungarumlaut" unicode="&#x151;" horiz-adv-x="495" 
d="M249 477c-140 0 -193 -105 -193 -243c0 -154 54 -232 193 -232c114 0 190 75 190 236c0 134 -50 239 -190 239zM249 483c144 0 196 -107 196 -245c0 -165 -78 -242 -196 -242c-143 0 -199 80 -199 238c0 142 55 249 199 249zM199 556l-4 3l105 123l7 -6zM279 556l-4 3
l105 123l7 -6z" />
    <glyph glyph-name="Racute" unicode="&#x154;" horiz-adv-x="537" 
d="M298 295h-31l229 -295h-7l-229 295h-184v-295h-6v673h229c135 0 213 -75 213 -192c0 -82 -43 -186 -214 -186zM299 667h-223v-366h223c163 0 207 95 207 180c0 113 -76 186 -207 186zM223 734l-4 4l121 106l6 -6z" />
    <glyph glyph-name="racute" unicode="&#x155;" horiz-adv-x="273" 
d="M262 483v-7c-57 0 -180 -33 -180 -218v-258h-6v478h6v-153c25 127 126 158 180 158zM93 556l-4 3l105 123l7 -6z" />
    <glyph glyph-name="Rcommaaccent" unicode="&#x156;" horiz-adv-x="537" 
d="M298 295h-31l229 -295h-7l-229 295h-184v-295h-6v673h229c135 0 213 -75 213 -192c0 -82 -43 -186 -214 -186zM299 667h-223v-366h223c163 0 207 95 207 180c0 113 -76 186 -207 186zM229 -161l34 89c-7 0 -14 5 -14 13c0 7 6 13 13 13c8 0 13 -6 13 -12
c0 -2 0 -5 -3 -11l-39 -94z" />
    <glyph glyph-name="rcommaaccent" unicode="&#x157;" horiz-adv-x="273" 
d="M262 483v-7c-57 0 -180 -33 -180 -218v-258h-6v478h6v-153c25 127 126 158 180 158zM48 -173l34 89c-7 0 -14 5 -14 13c0 7 6 13 13 13c8 0 13 -6 13 -12c0 -2 0 -5 -3 -11l-39 -94z" />
    <glyph glyph-name="Rcaron" unicode="&#x158;" horiz-adv-x="537" 
d="M298 295h-31l229 -295h-7l-229 295h-184v-295h-6v673h229c135 0 213 -75 213 -192c0 -82 -43 -186 -214 -186zM299 667h-223v-366h223c163 0 207 95 207 180c0 113 -76 186 -207 186zM246 736l132 101l4 -4l-132 -104h-7l-135 107l4 4z" />
    <glyph glyph-name="rcaron" unicode="&#x159;" horiz-adv-x="273" 
d="M262 483v-7c-57 0 -180 -33 -180 -218v-258h-6v478h6v-153c25 127 126 158 180 158zM78 551l137 119l4 -4l-137 -122h-7l-140 125l4 4z" />
    <glyph glyph-name="Sacute" unicode="&#x15a;" horiz-adv-x="581" 
d="M508 506h-6c1 6 1 13 1 15c0 76 -59 154 -208 154c-144 0 -208 -75 -208 -155c0 -112 93 -128 235 -149c132 -20 211 -71 211 -184c0 -92 -62 -191 -247 -191c-163 0 -236 83 -236 188c0 3 1 13 2 19h6c-1 -7 -2 -16 -2 -19c0 -101 71 -183 230 -183
c181 0 241 96 241 186c0 106 -73 159 -205 178c-151 21 -241 41 -241 155c0 84 66 160 214 160c153 0 214 -80 214 -158c0 -2 0 -9 -1 -16zM267 734l-4 4l121 106l6 -6z" />
    <glyph glyph-name="sacute" unicode="&#x15b;" horiz-adv-x="445" 
d="M217 -4c-116 0 -182 69 -170 150h6c-12 -78 52 -144 164 -144c134 0 177 62 177 127c0 80 -66 111 -150 124c-105 16 -171 31 -171 118c0 60 46 112 150 112c130 0 161 -64 155 -124h-6c5 58 -23 118 -149 118c-103 0 -144 -50 -144 -106c0 -83 63 -96 166 -112
c90 -14 155 -48 155 -130c0 -69 -49 -133 -183 -133zM208 556l-4 3l105 123l7 -6z" />
    <glyph glyph-name="Scircumflex" unicode="&#x15c;" horiz-adv-x="581" 
d="M508 506h-6c1 6 1 13 1 15c0 76 -59 154 -208 154c-144 0 -208 -75 -208 -155c0 -112 93 -128 235 -149c132 -20 211 -71 211 -184c0 -92 -62 -191 -247 -191c-163 0 -236 83 -236 188c0 3 1 13 2 19h6c-1 -7 -2 -16 -2 -19c0 -101 71 -183 230 -183
c181 0 241 96 241 186c0 106 -73 159 -205 178c-151 21 -241 41 -241 155c0 84 66 160 214 160c153 0 214 -80 214 -158c0 -2 0 -9 -1 -16zM430 732l-132 101l-134 -104l-4 4l135 107h7l132 -104z" />
    <glyph glyph-name="scircumflex" unicode="&#x15d;" horiz-adv-x="445" 
d="M217 -4c-116 0 -182 69 -170 150h6c-12 -78 52 -144 164 -144c134 0 177 62 177 127c0 80 -66 111 -150 124c-105 16 -171 31 -171 118c0 60 46 112 150 112c130 0 161 -64 155 -124h-6c5 58 -23 118 -149 118c-103 0 -144 -50 -144 -106c0 -83 63 -96 166 -112
c90 -14 155 -48 155 -130c0 -69 -49 -133 -183 -133zM361 547l-137 119l-139 -122l-4 4l140 125h7l137 -122z" />
    <glyph glyph-name="Scedilla" unicode="&#x15e;" horiz-adv-x="581" 
d="M261 -71l-4 4l36 63h-7c-163 0 -236 83 -236 188c0 3 1 13 2 19h6c-1 -7 -2 -16 -2 -19c0 -101 71 -183 230 -183c181 0 241 96 241 186c0 106 -73 159 -205 178c-151 21 -241 41 -241 155c0 84 66 160 214 160c153 0 214 -80 214 -158c0 -2 0 -9 -1 -16h-6
c1 6 1 13 1 15c0 76 -59 154 -208 154c-144 0 -208 -75 -208 -155c0 -112 93 -128 235 -149c132 -20 211 -71 211 -184c0 -90 -59 -186 -233 -191l-35 -60c9 3 23 5 34 5c37 0 77 -22 77 -66c0 -37 -33 -68 -89 -68c-25 0 -47 5 -71 13l2 6c24 -8 46 -13 69 -13
c56 0 82 29 82 62c0 40 -35 60 -70 60c-9 0 -27 -2 -38 -6z" />
    <glyph glyph-name="scedilla" unicode="&#x15f;" horiz-adv-x="445" 
d="M194 -72l-4 4l37 64h-10c-116 0 -182 69 -170 150h6c-12 -78 52 -144 164 -144c134 0 177 62 177 127c0 80 -66 111 -150 124c-105 16 -171 31 -171 118c0 60 46 112 150 112c130 0 161 -64 155 -124h-6c5 58 -23 118 -149 118c-103 0 -144 -50 -144 -106
c0 -83 63 -96 166 -112c90 -14 155 -48 155 -130c0 -66 -45 -128 -167 -132l-35 -62c9 3 23 5 34 5c37 0 77 -22 77 -66c0 -37 -33 -68 -89 -68c-25 0 -47 5 -71 13l2 6c24 -8 46 -13 69 -13c56 0 82 29 82 62c0 40 -35 60 -70 60c-9 0 -27 -2 -38 -6z" />
    <glyph glyph-name="Tcommaaccent" unicode="&#x162;" horiz-adv-x="518" 
d="M264 667v-667h-6v667h-248v6h498v-6h-244zM230 -185l34 89c-7 0 -14 5 -14 13c0 7 6 13 13 13c8 0 13 -6 13 -12c0 -2 0 -5 -3 -11l-39 -94z" />
    <glyph glyph-name="tcommaaccent" unicode="&#x163;" horiz-adv-x="289" 
d="M267 478v-6h-153v-337c0 -105 42 -133 127 -133c16 0 29 1 48 3v-6c-19 -2 -32 -3 -48 -3c-89 0 -133 30 -133 139v337h-93v6h93v131h6v-131h153zM104 -188l34 89c-7 0 -14 5 -14 13c0 7 6 13 13 13c8 0 13 -6 13 -12c0 -2 0 -5 -3 -11l-39 -94z" />
    <glyph glyph-name="Tcaron" unicode="&#x164;" horiz-adv-x="518" 
d="M264 667v-667h-6v667h-248v6h498v-6h-244zM261 736l132 101l4 -4l-132 -104h-7l-135 107l4 4z" />
    <glyph glyph-name="tcaron" unicode="&#x165;" horiz-adv-x="299" 
d="M204 563l34 89c-7 0 -14 5 -14 13c0 7 6 13 13 13c8 0 13 -6 13 -12c0 -2 0 -5 -3 -11l-39 -94zM267 478v-6h-153v-337c0 -105 42 -133 127 -133c16 0 29 1 48 3v-6c-19 -2 -32 -3 -48 -3c-89 0 -133 30 -133 139v337h-93v6h93v131h6v-131h153z" />
    <glyph glyph-name="Tbar" unicode="&#x166;" horiz-adv-x="518" 
d="M264 667v-268h200v-5h-200v-394h-6v394h-199v5h199v268h-248v6h498v-6h-244z" />
    <glyph glyph-name="tbar" unicode="&#x167;" horiz-adv-x="289" 
d="M267 478v-6h-153v-155h152v-5h-152v-177c0 -105 42 -133 127 -133c16 0 29 1 48 3v-6c-19 -2 -32 -3 -48 -3c-89 0 -133 30 -133 139v177h-90v5h90v155h-93v6h93v131h6v-131h153z" />
    <glyph glyph-name="Utilde" unicode="&#x168;" horiz-adv-x="648" 
d="M70 673h6v-393c0 -169 59 -278 249 -278c179 0 247 120 247 279v392h6v-392c0 -163 -71 -285 -253 -285c-194 0 -255 111 -255 284v393zM195 755l-6 2c17 35 44 50 73 50c18 0 41 -11 65 -22c23 -11 47 -22 64 -22c23 0 44 10 62 42l6 -2c-20 -35 -43 -46 -68 -46
c-19 0 -43 11 -66 22c-24 11 -47 22 -63 22c-27 0 -51 -14 -67 -46z" />
    <glyph glyph-name="utilde" unicode="&#x169;" horiz-adv-x="482" 
d="M416 478h6v-477h-6v153c-25 -127 -126 -158 -180 -158c-150 0 -176 91 -176 202v280h6v-280c0 -107 23 -196 170 -196c55 0 180 34 180 219v257zM118 593l-6 2c17 35 44 50 73 50c18 0 41 -11 65 -22c23 -11 47 -22 64 -22c23 0 44 10 62 42l6 -2
c-20 -35 -43 -46 -68 -46c-19 0 -43 11 -66 22c-24 11 -47 22 -63 22c-27 0 -51 -14 -67 -46z" />
    <glyph glyph-name="Umacron" unicode="&#x16a;" horiz-adv-x="648" 
d="M70 673h6v-393c0 -169 59 -278 249 -278c179 0 247 120 247 279v392h6v-392c0 -163 -71 -285 -253 -285c-194 0 -255 111 -255 284v393zM185 765v8h273v-8h-273z" />
    <glyph glyph-name="umacron" unicode="&#x16b;" horiz-adv-x="482" 
d="M416 478h6v-477h-6v153c-25 -127 -126 -158 -180 -158c-150 0 -176 91 -176 202v280h6v-280c0 -107 23 -196 170 -196c55 0 180 34 180 219v257zM107 592v8h273v-8h-273z" />
    <glyph glyph-name="Ubreve" unicode="&#x16c;" horiz-adv-x="648" 
d="M70 673h6v-393c0 -169 59 -278 249 -278c179 0 247 120 247 279v392h6v-392c0 -163 -71 -285 -253 -285c-194 0 -255 111 -255 284v393zM438 830h6c-4 -41 -35 -110 -113 -110c-79 0 -109 69 -110 110h6c1 -39 29 -103 104 -103c74 0 103 64 107 103z" />
    <glyph glyph-name="ubreve" unicode="&#x16d;" horiz-adv-x="482" 
d="M416 478h6v-477h-6v153c-25 -127 -126 -158 -180 -158c-150 0 -176 91 -176 202v280h6v-280c0 -107 23 -196 170 -196c55 0 180 34 180 219v257zM346 669h6c-4 -41 -35 -110 -113 -110c-79 0 -109 69 -110 110h6c1 -39 29 -103 104 -103c74 0 103 64 107 103z" />
    <glyph glyph-name="Uring" unicode="&#x16e;" horiz-adv-x="648" 
d="M70 673h6v-393c0 -169 59 -278 249 -278c179 0 247 120 247 279v392h6v-392c0 -163 -71 -285 -253 -285c-194 0 -255 111 -255 284v393zM329 843c-36 0 -61 -29 -61 -63c0 -38 27 -64 61 -64c39 0 62 31 62 64s-22 63 -62 63zM329 849c44 0 68 -32 68 -69
s-25 -70 -68 -70c-38 0 -67 28 -67 70c0 38 27 69 67 69z" />
    <glyph glyph-name="uring" unicode="&#x16f;" horiz-adv-x="482" 
d="M416 478h6v-477h-6v153c-25 -127 -126 -158 -180 -158c-150 0 -176 91 -176 202v280h6v-280c0 -107 23 -196 170 -196c55 0 180 34 180 219v257zM250 687c-36 0 -61 -29 -61 -63c0 -38 27 -64 61 -64c39 0 62 31 62 64s-22 63 -62 63zM250 693c44 0 68 -32 68 -69
s-25 -70 -68 -70c-38 0 -67 28 -67 70c0 38 27 69 67 69z" />
    <glyph glyph-name="Uhungarumlaut" unicode="&#x170;" horiz-adv-x="648" 
d="M70 673h6v-393c0 -169 59 -278 249 -278c179 0 247 120 247 279v392h6v-392c0 -163 -71 -285 -253 -285c-194 0 -255 111 -255 284v393zM253 734l-4 4l121 106l6 -6zM343 734l-4 4l121 106l6 -6z" />
    <glyph glyph-name="uhungarumlaut" unicode="&#x171;" horiz-adv-x="482" 
d="M416 478h6v-477h-6v153c-25 -127 -126 -158 -180 -158c-150 0 -176 91 -176 202v280h6v-280c0 -107 23 -196 170 -196c55 0 180 34 180 219v257zM173 556l-4 3l105 123l7 -6zM253 556l-4 3l105 123l7 -6z" />
    <glyph glyph-name="Uogonek" unicode="&#x172;" horiz-adv-x="648" 
d="M70 673h6v-393c0 -169 59 -278 249 -278c179 0 247 120 247 279v392h6v-392c0 -159 -68 -280 -241 -285c-43 -32 -72 -78 -72 -116c0 -41 31 -55 68 -55c24 0 52 6 72 14l2 -6c-20 -8 -50 -14 -76 -14c-39 0 -74 15 -74 60c0 38 28 85 71 117c-197 0 -258 111 -258 284
v393z" />
    <glyph glyph-name="uogonek" unicode="&#x173;" horiz-adv-x="482" 
d="M416 7v147c-25 -127 -126 -158 -180 -158c-150 0 -176 91 -176 202v280h6v-280c0 -107 23 -196 170 -196c55 0 180 34 180 219v257h6v-477h-5c-43 -32 -71 -78 -71 -115c0 -41 31 -55 68 -55c24 0 52 6 72 14l2 -6c-20 -8 -50 -14 -76 -14c-39 0 -74 15 -74 60
c0 40 32 90 78 122z" />
    <glyph glyph-name="Wcircumflex" unicode="&#x174;" horiz-adv-x="859" 
d="M427 673h6l221 -664l188 664h7l-192 -673h-5l-222 664l-223 -664h-5l-192 673h7l188 -664zM563 732l-132 101l-134 -104l-4 4l135 107h7l132 -104z" />
    <glyph glyph-name="wcircumflex" unicode="&#x175;" horiz-adv-x="661" 
d="M164 0h-8l-146 478h6l144 -473l165 473h6l163 -473l146 473h6l-148 -478h-8l-162 470zM466 547l-137 119l-139 -122l-4 4l140 125h7l137 -122z" />
    <glyph glyph-name="Ycircumflex" unicode="&#x176;" horiz-adv-x="485" 
d="M470 673h7l-235 -386v-287h-6v287l-228 386h7l224 -379zM372 729l-132 101l-134 -104l-4 4l135 107h7l132 -104z" />
    <glyph glyph-name="ycircumflex" unicode="&#x177;" horiz-adv-x="394" 
d="M379 478h7l-200 -554c-24 -66 -45 -129 -136 -129h-37v6h37c86 0 106 61 130 125l26 72h-25l-173 480h7l170 -475h23zM345 550l-137 119l-139 -122l-4 4l140 125h7l137 -122z" />
    <glyph glyph-name="Zacute" unicode="&#x179;" horiz-adv-x="498" 
d="M10 0v6l455 661h-432v6h439v-6l-454 -661h470v-6h-478zM224 734l-4 4l121 106l6 -6z" />
    <glyph glyph-name="zacute" unicode="&#x17a;" horiz-adv-x="378" 
d="M8 0v6l346 466h-318v6h326v-6l-345 -466h346v-6h-355zM167 556l-4 3l105 123l7 -6z" />
    <glyph glyph-name="Zdotaccent" unicode="&#x17b;" horiz-adv-x="498" 
d="M10 0v6l455 661h-432v6h439v-6l-454 -661h470v-6h-478zM245 765c0 4 4 10 11 10s10 -6 10 -10c0 -7 -6 -10 -10 -10c-5 0 -11 3 -11 10z" />
    <glyph glyph-name="zdotaccent" unicode="&#x17c;" horiz-adv-x="378" 
d="M8 0v6l346 466h-318v6h326v-6l-345 -466h346v-6h-355zM180 595c0 4 4 10 11 10s10 -6 10 -10c0 -7 -6 -10 -10 -10c-5 0 -11 3 -11 10z" />
    <glyph glyph-name="AEacute" unicode="&#x1fc;" horiz-adv-x="874" 
d="M11 0h-8l446 673h384v-6h-375v-302h342v-6h-342v-353h388v-6h-394v272h-261zM195 278h257v389zM563 734l-4 4l121 106l6 -6z" />
    <glyph glyph-name="aeacute" unicode="&#x1fd;" horiz-adv-x="827" 
d="M606 -4c-132 0 -181 62 -196 160c-5 -38 -13 -52 -18 -62c-29 -56 -91 -98 -192 -98c-83 0 -155 36 -155 129c0 86 69 140 230 140h130v55c0 60 -10 157 -159 157c-116 0 -156 -62 -152 -118h-6c-5 57 37 124 158 124c154 0 165 -101 165 -163v-8c17 99 76 171 197 171
c137 0 192 -100 172 -224h-369v-28c1 -136 36 -229 195 -229c134 0 172 84 168 147h6c4 -65 -36 -153 -174 -153zM200 2c130 0 205 73 205 175v82h-130c-157 0 -224 -52 -224 -134c0 -89 70 -123 149 -123zM608 477c-140 0 -191 -98 -197 -212h364c17 116 -34 212 -167 212z
M438 556l-4 3l105 123l7 -6z" />
    <glyph glyph-name="Oslashacute" unicode="&#x1fe;" horiz-adv-x="655" 
d="M328 734l-4 4l121 106l6 -6zM331 679c92 0 156 -33 198 -89l66 87l4 -4l-66 -88c43 -61 62 -149 62 -250c0 -226 -106 -339 -273 -339c-80 0 -141 21 -184 66l-63 -83l-4 4l63 83c-50 56 -74 144 -74 268c0 193 74 345 271 345zM331 673c-193 0 -265 -150 -265 -339
c0 -121 23 -208 72 -262l387 513c-41 55 -104 88 -194 88zM589 335c0 99 -18 185 -60 245l-387 -513c42 -44 101 -65 180 -65c163 0 267 112 267 333z" />
    <glyph glyph-name="oslashacute" unicode="&#x1ff;" horiz-adv-x="495" 
d="M247 556l-4 3l105 123l7 -6zM249 483c68 0 116 -25 147 -65l50 62l4 -4l-50 -62c32 -44 45 -106 45 -176c0 -165 -78 -242 -196 -242c-66 0 -114 17 -146 51l-51 -63l-4 4l51 63c-34 40 -49 101 -49 183c0 142 55 249 199 249zM249 477c-140 0 -193 -105 -193 -243
c0 -80 14 -139 47 -178l289 358c-30 39 -77 63 -143 63zM439 238c0 67 -13 128 -43 171l-289 -357c31 -34 77 -50 142 -50c114 0 190 75 190 236z" />
    <glyph glyph-name="Aring" unicode="&#xc5;" horiz-adv-x="547" 
d="M533 0h-7l-73 190h-360l-72 -190h-6l253 673h8zM272 667l-177 -471h356zM271 852c-36 0 -61 -29 -61 -63c0 -38 27 -64 61 -64c39 0 62 31 62 64s-22 63 -62 63zM271 858c44 0 68 -32 68 -69s-25 -70 -68 -70c-38 0 -67 28 -67 70c0 38 27 69 67 69z" />
    <glyph glyph-name="Ccedilla" unicode="&#xc7;" horiz-adv-x="599" 
d="M278 -71l-4 4l37 64c-193 4 -251 139 -251 334c0 204 76 348 270 348c105 -1 223 -55 209 -181h-6c14 122 -101 174 -203 175c-191 0 -264 -142 -264 -342c0 -194 58 -329 256 -329c162 0 235 87 225 190h6c10 -107 -66 -196 -231 -196h-5l-35 -60c9 3 23 5 34 5
c37 0 77 -22 77 -66c0 -37 -33 -68 -89 -68c-25 0 -47 5 -71 13l2 6c24 -8 46 -13 69 -13c56 0 82 29 82 62c0 40 -35 60 -70 60c-9 0 -27 -2 -38 -6z" />
    <glyph glyph-name="cent" unicode="&#xa2;" horiz-adv-x="545" 
d="M449 449h-6c6 94 -82 117 -154 117v-475c131 1 165 74 161 137h6c4 -65 -32 -142 -167 -143v-135h-5v135c-123 0 -195 60 -195 239c0 123 49 246 195 248v109h5v-109c75 0 167 -25 160 -123zM95 324c0 -175 70 -233 189 -233v475c-142 -3 -189 -123 -189 -242z" />
    <glyph glyph-name="florin" unicode="&#x192;" horiz-adv-x="545" 
d="M185 375v6h97l13 100c16 123 31 181 119 181c13 0 37 -2 61 -8l-1 -6c-24 6 -46 8 -60 8c-83 0 -97 -56 -113 -175l-13 -100h107v-6h-108l-32 -248c-14 -106 -28 -226 -143 -226c-12 0 -32 3 -45 6l1 5c16 -3 32 -5 44 -5c109 0 123 116 137 220l32 248h-96z" />
    <glyph glyph-name="uni1FBD" unicode="&#x1fbd;" horiz-adv-x="501" 
d="M275 545l-5 4c31 40 42 72 42 95c0 28 -18 52 -64 66l2 7c54 -17 70 -43 70 -73c0 -26 -13 -57 -45 -99z" />
    <glyph glyph-name="uni1FBE" unicode="&#x1fbe;" horiz-adv-x="535" 
d="M282 -61h6v-99c0 -49 8 -64 53 -64c9 0 21 1 31 2v-6c-10 -1 -22 -2 -31 -2c-51 0 -59 17 -59 70v99z" />
    <glyph glyph-name="uni1FC1" unicode="&#x1fc1;" horiz-adv-x="535" 
d="M184 662l-6 2c17 35 34 50 63 50c41 0 68 -44 109 -44c23 0 35 9 52 42l6 -2c-17 -36 -33 -46 -58 -46c-43 0 -73 44 -109 44c-27 0 -41 -14 -57 -46zM211 598c0 4 4 9 10 9s9 -5 9 -9c0 -6 -4 -9 -9 -9s-10 3 -10 9zM358 598c0 4 3 9 10 9c5 0 8 -5 8 -9
c0 -6 -4 -9 -8 -9c-6 0 -10 3 -10 9z" />
    <glyph glyph-name="uni1FCD" unicode="&#x1fcd;" horiz-adv-x="535" 
d="M197 545l-5 4c31 40 42 72 42 95c0 28 -18 52 -64 66l2 7c54 -17 70 -43 70 -73c0 -26 -13 -57 -45 -99zM346 547l-5 -3l-91 169l8 5z" />
    <glyph glyph-name="uni1FCE" unicode="&#x1fce;" horiz-adv-x="535" 
d="M226 545l-5 4c31 40 42 72 42 95c0 28 -18 52 -64 66l2 7c54 -17 70 -43 70 -73c0 -26 -13 -57 -45 -99zM291 544l-5 3l88 171l8 -5z" />
    <glyph glyph-name="uni1FCF" unicode="&#x1fcf;" horiz-adv-x="535" 
d="M261 535l-5 4c31 40 42 72 42 95c0 28 -18 52 -64 66l2 7c54 -17 70 -43 70 -73c0 -26 -13 -57 -45 -99zM139 738l-6 2c17 35 44 51 73 51c18 0 41 -12 65 -23c23 -11 47 -22 64 -22c23 0 44 10 62 42l6 -2c-20 -35 -43 -47 -68 -47c-19 0 -43 11 -66 22
c-24 11 -47 23 -63 23c-27 0 -51 -14 -67 -46z" />
    <glyph glyph-name="uni1FDD" unicode="&#x1fdd;" horiz-adv-x="535" 
d="M220 549l-5 -4c-32 42 -45 73 -45 99c0 30 16 56 70 73l2 -7c-46 -14 -64 -38 -64 -66c0 -23 11 -55 42 -95zM360 547l-5 -3l-91 169l8 5z" />
    <glyph glyph-name="uni1FDE" unicode="&#x1fde;" horiz-adv-x="535" 
d="M264 549l-5 -4c-32 42 -45 73 -45 99c0 30 17 57 70 73l2 -7c-46 -14 -64 -38 -64 -66c0 -23 11 -55 42 -95zM296 544l-5 3l88 171l8 -5z" />
    <glyph glyph-name="uni1FDF" unicode="&#x1fdf;" horiz-adv-x="535" 
d="M278 539l-5 -4c-32 42 -45 73 -45 99c0 30 16 56 70 73l2 -7c-46 -14 -64 -38 -64 -66c0 -23 11 -55 42 -95zM133 738l-6 2c17 35 44 51 73 51c18 0 41 -12 65 -23c23 -11 47 -22 64 -22c23 0 44 10 62 42l6 -2c-20 -35 -43 -47 -68 -47c-19 0 -43 11 -66 22
c-24 11 -47 23 -63 23c-27 0 -51 -14 -67 -46z" />
    <glyph glyph-name="uni1FED" unicode="&#x1fed;" horiz-adv-x="535" 
d="M313 556l-5 -2l-80 141l9 4zM206 588c0 4 4 9 10 9s9 -5 9 -9c0 -6 -4 -9 -9 -9s-10 3 -10 9zM353 588c0 4 3 9 10 9c5 0 8 -5 8 -9c0 -6 -4 -9 -8 -9c-6 0 -10 3 -10 9z" />
    <glyph glyph-name="uni1FEE" unicode="&#x1fee;" horiz-adv-x="535" 
d="M271 554l-5 2l76 143l9 -4zM206 588c0 4 4 9 10 9s9 -5 9 -9c0 -6 -4 -9 -9 -9s-10 3 -10 9zM353 588c0 4 3 9 10 9c5 0 8 -5 8 -9c0 -6 -4 -9 -8 -9c-6 0 -10 3 -10 9z" />
    <glyph glyph-name="uni1FFE" unicode="&#x1ffe;" horiz-adv-x="535" 
d="M304 549l-5 -4c-32 42 -45 73 -45 99c0 30 16 56 70 73l2 -7c-46 -14 -64 -38 -64 -66c0 -23 11 -55 42 -95z" />
    <glyph glyph-name="uni1F00" unicode="&#x1f00;" horiz-adv-x="504" 
d="M438 479h6v-479h-6v160c-19 -103 -92 -164 -193 -164c-138 0 -195 91 -195 243c0 144 57 244 203 244c75 0 163 -36 185 -157v153zM253 477c-144 0 -197 -98 -197 -238c0 -145 53 -237 189 -237c95 0 193 58 193 222v35c0 180 -109 218 -185 218zM249 545l-5 4
c31 40 42 72 42 95c0 28 -18 52 -64 66l2 7c54 -17 70 -43 70 -73c0 -26 -13 -57 -45 -99z" />
    <glyph glyph-name="uni1F01" unicode="&#x1f01;" horiz-adv-x="504" 
d="M438 479h6v-479h-6v160c-19 -103 -92 -164 -193 -164c-138 0 -195 91 -195 243c0 144 57 244 203 244c75 0 163 -36 185 -157v153zM253 477c-144 0 -197 -98 -197 -238c0 -145 53 -237 189 -237c95 0 193 58 193 222v35c0 180 -109 218 -185 218zM279 549l-5 -4
c-32 42 -45 73 -45 99c0 30 16 56 70 73l2 -7c-46 -14 -64 -38 -64 -66c0 -23 11 -55 42 -95z" />
    <glyph glyph-name="uni1F02" unicode="&#x1f02;" horiz-adv-x="504" 
d="M438 479h6v-479h-6v160c-19 -103 -92 -164 -193 -164c-138 0 -195 91 -195 243c0 144 57 244 203 244c75 0 163 -36 185 -157v153zM253 477c-144 0 -197 -98 -197 -238c0 -145 53 -237 189 -237c95 0 193 58 193 222v35c0 180 -109 218 -185 218zM178 545l-5 4
c31 40 42 72 42 95c0 28 -18 52 -64 66l2 7c54 -17 70 -43 70 -73c0 -26 -13 -57 -45 -99zM327 547l-5 -3l-91 169l8 5z" />
    <glyph glyph-name="uni1F03" unicode="&#x1f03;" horiz-adv-x="504" 
d="M438 479h6v-479h-6v160c-19 -103 -92 -164 -193 -164c-138 0 -195 91 -195 243c0 144 57 244 203 244c75 0 163 -36 185 -157v153zM253 477c-144 0 -197 -98 -197 -238c0 -145 53 -237 189 -237c95 0 193 58 193 222v35c0 180 -109 218 -185 218zM208 549l-5 -4
c-32 42 -45 73 -45 99c0 30 16 56 70 73l2 -7c-46 -14 -64 -38 -64 -66c0 -23 11 -55 42 -95zM348 547l-5 -3l-91 169l8 5z" />
    <glyph glyph-name="uni1F04" unicode="&#x1f04;" horiz-adv-x="504" 
d="M438 479h6v-479h-6v160c-19 -103 -92 -164 -193 -164c-138 0 -195 91 -195 243c0 144 57 244 203 244c75 0 163 -36 185 -157v153zM253 477c-144 0 -197 -98 -197 -238c0 -145 53 -237 189 -237c95 0 193 58 193 222v35c0 180 -109 218 -185 218zM202 545l-5 4
c31 40 42 72 42 95c0 28 -18 52 -64 66l2 7c54 -17 70 -43 70 -73c0 -26 -13 -57 -45 -99zM267 544l-5 3l88 171l8 -5z" />
    <glyph glyph-name="uni1F05" unicode="&#x1f05;" horiz-adv-x="504" 
d="M438 479h6v-479h-6v160c-19 -103 -92 -164 -193 -164c-138 0 -195 91 -195 243c0 144 57 244 203 244c75 0 163 -36 185 -157v153zM253 477c-144 0 -197 -98 -197 -238c0 -145 53 -237 189 -237c95 0 193 58 193 222v35c0 180 -109 218 -185 218zM223 549l-5 -4
c-32 42 -45 73 -45 99c0 30 17 57 70 73l2 -7c-46 -14 -64 -38 -64 -66c0 -23 11 -55 42 -95zM255 544l-5 3l88 171l8 -5z" />
    <glyph glyph-name="uni1F06" unicode="&#x1f06;" horiz-adv-x="504" 
d="M438 479h6v-479h-6v160c-19 -103 -92 -164 -193 -164c-138 0 -195 91 -195 243c0 144 57 244 203 244c75 0 163 -36 185 -157v153zM253 477c-144 0 -197 -98 -197 -238c0 -145 53 -237 189 -237c95 0 193 58 193 222v35c0 180 -109 218 -185 218zM238 535l-5 4
c31 40 42 72 42 95c0 28 -18 52 -64 66l2 7c54 -17 70 -43 70 -73c0 -26 -13 -57 -45 -99zM116 738l-6 2c17 35 44 51 73 51c18 0 41 -12 65 -23c23 -11 47 -22 64 -22c23 0 44 10 62 42l6 -2c-20 -35 -43 -47 -68 -47c-19 0 -43 11 -66 22c-24 11 -47 23 -63 23
c-27 0 -51 -14 -67 -46z" />
    <glyph glyph-name="uni1F07" unicode="&#x1f07;" horiz-adv-x="504" 
d="M438 479h6v-479h-6v160c-19 -103 -92 -164 -193 -164c-138 0 -195 91 -195 243c0 144 57 244 203 244c75 0 163 -36 185 -157v153zM253 477c-144 0 -197 -98 -197 -238c0 -145 53 -237 189 -237c95 0 193 58 193 222v35c0 180 -109 218 -185 218zM278 539l-5 -4
c-32 42 -45 73 -45 99c0 30 16 56 70 73l2 -7c-46 -14 -64 -38 -64 -66c0 -23 11 -55 42 -95zM133 738l-6 2c17 35 44 51 73 51c18 0 41 -12 65 -23c23 -11 47 -22 64 -22c23 0 44 10 62 42l6 -2c-20 -35 -43 -47 -68 -47c-19 0 -43 11 -66 22c-24 11 -47 23 -63 23
c-27 0 -51 -14 -67 -46z" />
    <glyph glyph-name="uni1F08" unicode="&#x1f08;" horiz-adv-x="547" 
d="M533 0h-7l-73 190h-360l-72 -190h-6l253 673h8zM272 667l-177 -471h356zM30 495l-5 4c31 40 42 72 42 95c0 28 -18 52 -64 66l2 7c54 -17 70 -43 70 -73c0 -26 -13 -57 -45 -99z" />
    <glyph glyph-name="uni1F09" unicode="&#x1f09;" horiz-adv-x="547" 
d="M533 0h-7l-73 190h-360l-72 -190h-6l253 673h8zM272 667l-177 -471h356zM60 499l-5 -4c-32 42 -45 73 -45 99c0 30 16 56 70 73l2 -7c-46 -14 -64 -38 -64 -66c0 -23 11 -55 42 -95z" />
    <glyph glyph-name="uni1F0A" unicode="&#x1f0a;" horiz-adv-x="547" 
d="M533 0h-7l-73 190h-360l-72 -190h-6l253 673h8zM272 667l-177 -471h356zM-65 495l-5 4c31 40 42 72 42 95c0 28 -18 52 -64 66l2 7c54 -17 70 -43 70 -73c0 -26 -13 -57 -45 -99zM84 497l-5 -3l-91 169l8 5z" />
    <glyph glyph-name="uni1F0B" unicode="&#x1f0b;" horiz-adv-x="547" 
d="M533 0h-7l-73 190h-360l-72 -190h-6l253 673h8zM272 667l-177 -471h356zM-37 499l-5 -4c-32 42 -45 73 -45 99c0 30 16 56 70 73l2 -7c-46 -14 -64 -38 -64 -66c0 -23 11 -55 42 -95zM103 497l-5 -3l-91 169l8 5z" />
    <glyph glyph-name="uni1F0C" unicode="&#x1f0c;" horiz-adv-x="547" 
d="M533 0h-7l-73 190h-360l-72 -190h-6l253 673h8zM272 667l-177 -471h356zM-48 495l-5 4c31 40 42 72 42 95c0 28 -18 52 -64 66l2 7c54 -17 70 -43 70 -73c0 -26 -13 -57 -45 -99zM17 494l-5 3l88 171l8 -5z" />
    <glyph glyph-name="uni1F0D" unicode="&#x1f0d;" horiz-adv-x="547" 
d="M533 0h-7l-73 190h-360l-72 -190h-6l253 673h8zM272 667l-177 -471h356zM-9 499l-5 -4c-32 42 -45 73 -45 99c0 30 17 57 70 73l2 -7c-46 -14 -64 -38 -64 -66c0 -23 11 -55 42 -95zM23 494l-5 3l88 171l8 -5z" />
    <glyph glyph-name="uni1F0E" unicode="&#x1f0e;" horiz-adv-x="547" 
d="M533 0h-7l-73 190h-360l-72 -190h-6l253 673h8zM272 667l-177 -471h356zM-4 436l-5 4c31 40 42 72 42 95c0 28 -18 52 -64 66l2 7c54 -17 70 -43 70 -73c0 -26 -13 -57 -45 -99zM-126 639l-6 2c17 35 44 51 73 51c18 0 41 -12 65 -23c23 -11 47 -22 64 -22
c23 0 44 10 62 42l6 -2c-20 -35 -43 -47 -68 -47c-19 0 -43 11 -66 22c-24 11 -47 23 -63 23c-27 0 -51 -14 -67 -46z" />
    <glyph glyph-name="uni1F0F" unicode="&#x1f0f;" horiz-adv-x="547" 
d="M533 0h-7l-73 190h-360l-72 -190h-6l253 673h8zM272 667l-177 -471h356zM18 426l-5 -4c-32 42 -45 73 -45 99c0 30 16 56 70 73l2 -7c-46 -14 -64 -38 -64 -66c0 -23 11 -55 42 -95zM-127 625l-6 2c17 35 44 51 73 51c18 0 41 -12 65 -23c23 -11 47 -22 64 -22
c23 0 44 10 62 42l6 -2c-20 -35 -43 -47 -68 -47c-19 0 -43 11 -66 22c-24 11 -47 23 -63 23c-27 0 -51 -14 -67 -46z" />
    <glyph glyph-name="uni1F10" unicode="&#x1f10;" horiz-adv-x="432" 
d="M61 354c0 66 46 123 166 123c99 0 168 -48 158 -128h6c10 84 -61 134 -164 134c-124 0 -172 -59 -172 -129c0 -35 14 -77 88 -92c-80 -22 -98 -90 -98 -127c0 -76 48 -139 183 -139c84 0 182 42 175 149h-6c7 -103 -87 -143 -169 -143c-131 0 -177 60 -177 133
c0 68 50 125 126 125h92v6h-90c-53 0 -118 18 -118 88zM213 545l-5 4c31 40 42 72 42 95c0 28 -18 52 -64 66l2 7c54 -17 70 -43 70 -73c0 -26 -13 -57 -45 -99z" />
    <glyph glyph-name="uni1F11" unicode="&#x1f11;" horiz-adv-x="432" 
d="M61 354c0 66 46 123 166 123c99 0 168 -48 158 -128h6c10 84 -61 134 -164 134c-124 0 -172 -59 -172 -129c0 -35 14 -77 88 -92c-80 -22 -98 -90 -98 -127c0 -76 48 -139 183 -139c84 0 182 42 175 149h-6c7 -103 -87 -143 -169 -143c-131 0 -177 60 -177 133
c0 68 50 125 126 125h92v6h-90c-53 0 -118 18 -118 88zM241 549l-5 -4c-32 42 -45 73 -45 99c0 30 16 56 70 73l2 -7c-46 -14 -64 -38 -64 -66c0 -23 11 -55 42 -95z" />
    <glyph glyph-name="uni1F12" unicode="&#x1f12;" horiz-adv-x="432" 
d="M61 354c0 66 46 123 166 123c99 0 168 -48 158 -128h6c10 84 -61 134 -164 134c-124 0 -172 -59 -172 -129c0 -35 14 -77 88 -92c-80 -22 -98 -90 -98 -127c0 -76 48 -139 183 -139c84 0 182 42 175 149h-6c7 -103 -87 -143 -169 -143c-131 0 -177 60 -177 133
c0 68 50 125 126 125h92v6h-90c-53 0 -118 18 -118 88zM144 545l-5 4c31 40 42 72 42 95c0 28 -18 52 -64 66l2 7c54 -17 70 -43 70 -73c0 -26 -13 -57 -45 -99zM293 547l-5 -3l-91 169l8 5z" />
    <glyph glyph-name="uni1F13" unicode="&#x1f13;" horiz-adv-x="432" 
d="M61 354c0 66 46 123 166 123c99 0 168 -48 158 -128h6c10 84 -61 134 -164 134c-124 0 -172 -59 -172 -129c0 -35 14 -77 88 -92c-80 -22 -98 -90 -98 -127c0 -76 48 -139 183 -139c84 0 182 42 175 149h-6c7 -103 -87 -143 -169 -143c-131 0 -177 60 -177 133
c0 68 50 125 126 125h92v6h-90c-53 0 -118 18 -118 88zM165 549l-5 -4c-32 42 -45 73 -45 99c0 30 16 56 70 73l2 -7c-46 -14 -64 -38 -64 -66c0 -23 11 -55 42 -95zM305 547l-5 -3l-91 169l8 5z" />
    <glyph glyph-name="uni1F14" unicode="&#x1f14;" horiz-adv-x="432" 
d="M61 354c0 66 46 123 166 123c99 0 168 -48 158 -128h6c10 84 -61 134 -164 134c-124 0 -172 -59 -172 -129c0 -35 14 -77 88 -92c-80 -22 -98 -90 -98 -127c0 -76 48 -139 183 -139c84 0 182 42 175 149h-6c7 -103 -87 -143 -169 -143c-131 0 -177 60 -177 133
c0 68 50 125 126 125h92v6h-90c-53 0 -118 18 -118 88zM163 545l-5 4c31 40 42 72 42 95c0 28 -18 52 -64 66l2 7c54 -17 70 -43 70 -73c0 -26 -13 -57 -45 -99zM228 544l-5 3l88 171l8 -5z" />
    <glyph glyph-name="uni1F15" unicode="&#x1f15;" horiz-adv-x="432" 
d="M61 354c0 66 46 123 166 123c99 0 168 -48 158 -128h6c10 84 -61 134 -164 134c-124 0 -172 -59 -172 -129c0 -35 14 -77 88 -92c-80 -22 -98 -90 -98 -127c0 -76 48 -139 183 -139c84 0 182 42 175 149h-6c7 -103 -87 -143 -169 -143c-131 0 -177 60 -177 133
c0 68 50 125 126 125h92v6h-90c-53 0 -118 18 -118 88zM193 549l-5 -4c-32 42 -45 73 -45 99c0 30 17 57 70 73l2 -7c-46 -14 -64 -38 -64 -66c0 -23 11 -55 42 -95zM225 544l-5 3l88 171l8 -5z" />
    <glyph glyph-name="uni1F18" unicode="&#x1f18;" horiz-adv-x="520" 
d="M442 349v-6h-366v-337h416v-6h-422v673h398v-6h-392v-318h366zM-80 495l-5 4c31 40 42 72 42 95c0 28 -18 52 -64 66l2 7c54 -17 70 -43 70 -73c0 -26 -13 -57 -45 -99z" />
    <glyph glyph-name="uni1F19" unicode="&#x1f19;" horiz-adv-x="520" 
d="M442 349v-6h-366v-337h416v-6h-422v673h398v-6h-392v-318h366zM-47 499l-5 -4c-32 42 -45 73 -45 99c0 30 16 56 70 73l2 -7c-46 -14 -64 -38 -64 -66c0 -23 11 -55 42 -95z" />
    <glyph glyph-name="uni1F1A" unicode="&#x1f1a;" horiz-adv-x="520" 
d="M442 349v-6h-366v-337h416v-6h-422v673h398v-6h-392v-318h366zM-164 495l-5 4c31 40 42 72 42 95c0 28 -18 52 -64 66l2 7c54 -17 70 -43 70 -73c0 -26 -13 -57 -45 -99zM-15 497l-5 -3l-91 169l8 5z" />
    <glyph glyph-name="uni1F1B" unicode="&#x1f1b;" horiz-adv-x="520" 
d="M442 349v-6h-366v-337h416v-6h-422v673h398v-6h-392v-318h366zM-138 499l-5 -4c-32 42 -45 73 -45 99c0 30 16 56 70 73l2 -7c-46 -14 -64 -38 -64 -66c0 -23 11 -55 42 -95zM2 497l-5 -3l-91 169l8 5z" />
    <glyph glyph-name="uni1F1C" unicode="&#x1f1c;" horiz-adv-x="520" 
d="M442 349v-6h-366v-337h416v-6h-422v673h398v-6h-392v-318h366zM-162 495l-5 4c31 40 42 72 42 95c0 28 -18 52 -64 66l2 7c54 -17 70 -43 70 -73c0 -26 -13 -57 -45 -99zM-97 494l-5 3l88 171l8 -5z" />
    <glyph glyph-name="uni1F1D" unicode="&#x1f1d;" horiz-adv-x="520" 
d="M442 349v-6h-366v-337h416v-6h-422v673h398v-6h-392v-318h366zM-126 499l-5 -4c-32 42 -45 73 -45 99c0 30 17 57 70 73l2 -7c-46 -14 -64 -38 -64 -66c0 -23 11 -55 42 -95zM-94 494l-5 3l88 171l8 -5z" />
    <glyph glyph-name="uni1F20" unicode="&#x1f20;" horiz-adv-x="487" 
d="M66 0h-6v478h6v-153c25 127 126 158 180 158c148 0 181 -91 181 -202v-281h-6v281c0 107 -31 196 -175 196c-55 0 -180 -34 -180 -219v-258zM213 545l-5 4c31 40 42 72 42 95c0 28 -18 52 -64 66l2 7c54 -17 70 -43 70 -73c0 -26 -13 -57 -45 -99z" />
    <glyph glyph-name="uni1F21" unicode="&#x1f21;" horiz-adv-x="487" 
d="M66 0h-6v478h6v-153c25 127 126 158 180 158c148 0 181 -91 181 -202v-281h-6v281c0 107 -31 196 -175 196c-55 0 -180 -34 -180 -219v-258zM240 549l-5 -4c-32 42 -45 73 -45 99c0 30 16 56 70 73l2 -7c-46 -14 -64 -38 -64 -66c0 -23 11 -55 42 -95z" />
    <glyph glyph-name="uni1F22" unicode="&#x1f22;" horiz-adv-x="487" 
d="M66 0h-6v478h6v-153c25 127 126 158 180 158c148 0 181 -91 181 -202v-281h-6v281c0 107 -31 196 -175 196c-55 0 -180 -34 -180 -219v-258zM154 545l-5 4c31 40 42 72 42 95c0 28 -18 52 -64 66l2 7c54 -17 70 -43 70 -73c0 -26 -13 -57 -45 -99zM303 547l-5 -3l-91 169
l8 5z" />
    <glyph glyph-name="uni1F23" unicode="&#x1f23;" horiz-adv-x="487" 
d="M66 0h-6v478h6v-153c25 127 126 158 180 158c148 0 181 -91 181 -202v-281h-6v281c0 107 -31 196 -175 196c-55 0 -180 -34 -180 -219v-258zM182 549l-5 -4c-32 42 -45 73 -45 99c0 30 16 56 70 73l2 -7c-46 -14 -64 -38 -64 -66c0 -23 11 -55 42 -95zM322 547l-5 -3
l-91 169l8 5z" />
    <glyph glyph-name="uni1F24" unicode="&#x1f24;" horiz-adv-x="487" 
d="M66 0h-6v478h6v-153c25 127 126 158 180 158c148 0 181 -91 181 -202v-281h-6v281c0 107 -31 196 -175 196c-55 0 -180 -34 -180 -219v-258zM182 545l-5 4c31 40 42 72 42 95c0 28 -18 52 -64 66l2 7c54 -17 70 -43 70 -73c0 -26 -13 -57 -45 -99zM247 544l-5 3l88 171
l8 -5z" />
    <glyph glyph-name="uni1F25" unicode="&#x1f25;" horiz-adv-x="487" 
d="M66 0h-6v478h6v-153c25 127 126 158 180 158c148 0 181 -91 181 -202v-281h-6v281c0 107 -31 196 -175 196c-55 0 -180 -34 -180 -219v-258zM220 549l-5 -4c-32 42 -45 73 -45 99c0 30 17 57 70 73l2 -7c-46 -14 -64 -38 -64 -66c0 -23 11 -55 42 -95zM252 544l-5 3
l88 171l8 -5z" />
    <glyph glyph-name="uni1F26" unicode="&#x1f26;" horiz-adv-x="487" 
d="M66 0h-6v478h6v-153c25 127 126 158 180 158c148 0 181 -91 181 -202v-281h-6v281c0 107 -31 196 -175 196c-55 0 -180 -34 -180 -219v-258zM225 535l-5 4c31 40 42 72 42 95c0 28 -18 52 -64 66l2 7c54 -17 70 -43 70 -73c0 -26 -13 -57 -45 -99zM103 738l-6 2
c17 35 44 51 73 51c18 0 41 -12 65 -23c23 -11 47 -22 64 -22c23 0 44 10 62 42l6 -2c-20 -35 -43 -47 -68 -47c-19 0 -43 11 -66 22c-24 11 -47 23 -63 23c-27 0 -51 -14 -67 -46z" />
    <glyph glyph-name="uni1F27" unicode="&#x1f27;" horiz-adv-x="487" 
d="M66 0h-6v478h6v-153c25 127 126 158 180 158c148 0 181 -91 181 -202v-281h-6v281c0 107 -31 196 -175 196c-55 0 -180 -34 -180 -219v-258zM250 538l-5 -4c-32 42 -45 73 -45 99c0 30 16 56 70 73l2 -7c-46 -14 -64 -38 -64 -66c0 -23 11 -55 42 -95zM105 737l-6 2
c17 35 44 51 73 51c18 0 41 -12 65 -23c23 -11 47 -22 64 -22c23 0 44 10 62 42l6 -2c-20 -35 -43 -47 -68 -47c-19 0 -43 11 -66 22c-24 11 -47 23 -63 23c-27 0 -51 -14 -67 -46z" />
    <glyph glyph-name="uni1F28" unicode="&#x1f28;" horiz-adv-x="632" 
d="M70 673h6v-324h480v324h6v-673h-6v343h-480v-343h-6v673zM-82 495l-5 4c31 40 42 72 42 95c0 28 -18 52 -64 66l2 7c54 -17 70 -43 70 -73c0 -26 -13 -57 -45 -99z" />
    <glyph glyph-name="uni1F29" unicode="&#x1f29;" horiz-adv-x="632" 
d="M70 673h6v-324h480v324h6v-673h-6v343h-480v-343h-6v673zM-48 499l-5 -4c-32 42 -45 73 -45 99c0 30 16 56 70 73l2 -7c-46 -14 -64 -38 -64 -66c0 -23 11 -55 42 -95z" />
    <glyph glyph-name="uni1F2A" unicode="&#x1f2a;" horiz-adv-x="632" 
d="M70 673h6v-324h480v324h6v-673h-6v343h-480v-343h-6v673zM-165 495l-5 4c31 40 42 72 42 95c0 28 -18 52 -64 66l2 7c54 -17 70 -43 70 -73c0 -26 -13 -57 -45 -99zM-16 497l-5 -3l-91 169l8 5z" />
    <glyph glyph-name="uni1F2B" unicode="&#x1f2b;" horiz-adv-x="632" 
d="M70 673h6v-324h480v324h6v-673h-6v343h-480v-343h-6v673zM-148 499l-5 -4c-32 42 -45 73 -45 99c0 30 16 56 70 73l2 -7c-46 -14 -64 -38 -64 -66c0 -23 11 -55 42 -95zM-8 497l-5 -3l-91 169l8 5z" />
    <glyph glyph-name="uni1F2C" unicode="&#x1f2c;" horiz-adv-x="632" 
d="M70 673h6v-324h480v324h6v-673h-6v343h-480v-343h-6v673zM-164 495l-5 4c31 40 42 72 42 95c0 28 -18 52 -64 66l2 7c54 -17 70 -43 70 -73c0 -26 -13 -57 -45 -99zM-99 494l-5 3l88 171l8 -5z" />
    <glyph glyph-name="uni1F2D" unicode="&#x1f2d;" horiz-adv-x="632" 
d="M70 673h6v-324h480v324h6v-673h-6v343h-480v-343h-6v673zM-137 499l-5 -4c-32 42 -45 73 -45 99c0 30 17 57 70 73l2 -7c-46 -14 -64 -38 -64 -66c0 -23 11 -55 42 -95zM-105 494l-5 3l88 171l8 -5z" />
    <glyph glyph-name="uni1F2E" unicode="&#x1f2e;" horiz-adv-x="632" 
d="M70 673h6v-324h480v324h6v-673h-6v343h-480v-343h-6v673zM-127 436l-5 4c31 40 42 72 42 95c0 28 -18 52 -64 66l2 7c54 -17 70 -43 70 -73c0 -26 -13 -57 -45 -99zM-249 639l-6 2c17 35 44 51 73 51c18 0 41 -12 65 -23c23 -11 47 -22 64 -22c23 0 44 10 62 42l6 -2
c-20 -35 -43 -47 -68 -47c-19 0 -43 11 -66 22c-24 11 -47 23 -63 23c-27 0 -51 -14 -67 -46z" />
    <glyph glyph-name="uni1F2F" unicode="&#x1f2f;" horiz-adv-x="632" 
d="M70 673h6v-324h480v324h6v-673h-6v343h-480v-343h-6v673zM-110 432l-5 -4c-32 42 -45 73 -45 99c0 30 16 56 70 73l2 -7c-46 -14 -64 -38 -64 -66c0 -23 11 -55 42 -95zM-255 631l-6 2c17 35 44 51 73 51c18 0 41 -12 65 -23c23 -11 47 -22 64 -22c23 0 44 10 62 42l6 -2
c-20 -35 -43 -47 -68 -47c-19 0 -43 11 -66 22c-24 11 -47 23 -63 23c-27 0 -51 -14 -67 -46z" />
    <glyph glyph-name="uni1F30" unicode="&#x1f30;" horiz-adv-x="167" 
d="M81 478h6v-478h-6v478zM76 545l-5 4c31 40 42 72 42 95c0 28 -18 52 -64 66l2 7c54 -17 70 -43 70 -73c0 -26 -13 -57 -45 -99z" />
    <glyph glyph-name="uni1F31" unicode="&#x1f31;" horiz-adv-x="167" 
d="M81 478h6v-478h-6v478zM100 549l-5 -4c-32 42 -45 73 -45 99c0 30 16 56 70 73l2 -7c-46 -14 -64 -38 -64 -66c0 -23 11 -55 42 -95z" />
    <glyph glyph-name="uni1F32" unicode="&#x1f32;" horiz-adv-x="167" 
d="M81 478h6v-478h-6v478zM6 545l-5 4c31 40 42 72 42 95c0 28 -18 52 -64 66l2 7c54 -17 70 -43 70 -73c0 -26 -13 -57 -45 -99zM155 547l-5 -3l-91 169l8 5z" />
    <glyph glyph-name="uni1F33" unicode="&#x1f33;" horiz-adv-x="167" 
d="M81 478h6v-478h-6v478zM32 551l-5 -4c-32 42 -45 73 -45 99c0 30 16 56 70 73l2 -7c-46 -14 -64 -38 -64 -66c0 -23 11 -55 42 -95zM172 549l-5 -3l-91 169l8 5z" />
    <glyph glyph-name="uni1F34" unicode="&#x1f34;" horiz-adv-x="167" 
d="M81 478h6v-478h-6v478zM40 545l-5 4c31 40 42 72 42 95c0 28 -18 52 -64 66l2 7c54 -17 70 -43 70 -73c0 -26 -13 -57 -45 -99zM105 544l-5 3l88 171l8 -5z" />
    <glyph glyph-name="uni1F35" unicode="&#x1f35;" horiz-adv-x="167" 
d="M81 478h6v-478h-6v478zM74 549l-5 -4c-32 42 -45 73 -45 99c0 30 17 57 70 73l2 -7c-46 -14 -64 -38 -64 -66c0 -23 11 -55 42 -95zM106 544l-5 3l88 171l8 -5z" />
    <glyph glyph-name="uni1F36" unicode="&#x1f36;" horiz-adv-x="167" 
d="M81 478h6v-478h-6v478zM63 523l-5 4c31 40 42 72 42 95c0 28 -18 52 -64 66l2 7c54 -17 70 -43 70 -73c0 -26 -13 -57 -45 -99zM-59 726l-6 2c17 35 44 51 73 51c18 0 41 -12 65 -23c23 -11 47 -22 64 -22c23 0 44 10 62 42l6 -2c-20 -35 -43 -47 -68 -47
c-19 0 -43 11 -66 22c-24 11 -47 23 -63 23c-27 0 -51 -14 -67 -46z" />
    <glyph glyph-name="uni1F37" unicode="&#x1f37;" horiz-adv-x="167" 
d="M81 478h6v-478h-6v478zM96 539l-5 -4c-32 42 -45 73 -45 99c0 30 16 56 70 73l2 -7c-46 -14 -64 -38 -64 -66c0 -23 11 -55 42 -95zM-49 738l-6 2c17 35 44 51 73 51c18 0 41 -12 65 -23c23 -11 47 -22 64 -22c23 0 44 10 62 42l6 -2c-20 -35 -43 -47 -68 -47
c-19 0 -43 11 -66 22c-24 11 -47 23 -63 23c-27 0 -51 -14 -67 -46z" />
    <glyph glyph-name="uni1F38" unicode="&#x1f38;" horiz-adv-x="186" 
d="M90 673h6v-673h-6v673zM-72 495l-5 4c31 40 42 72 42 95c0 28 -18 52 -64 66l2 7c54 -17 70 -43 70 -73c0 -26 -13 -57 -45 -99z" />
    <glyph glyph-name="uni1F39" unicode="&#x1f39;" horiz-adv-x="186" 
d="M90 673h6v-673h-6v673zM-27 499l-5 -4c-32 42 -45 73 -45 99c0 30 16 56 70 73l2 -7c-46 -14 -64 -38 -64 -66c0 -23 11 -55 42 -95z" />
    <glyph glyph-name="uni1F3A" unicode="&#x1f3a;" horiz-adv-x="186" 
d="M90 673h6v-673h-6v673zM-141 495l-5 4c31 40 42 72 42 95c0 28 -18 52 -64 66l2 7c54 -17 70 -43 70 -73c0 -26 -13 -57 -45 -99zM8 497l-5 -3l-91 169l8 5z" />
    <glyph glyph-name="uni1F3B" unicode="&#x1f3b;" horiz-adv-x="186" 
d="M90 673h6v-673h-6v673zM-124 499l-5 -4c-32 42 -45 73 -45 99c0 30 16 56 70 73l2 -7c-46 -14 -64 -38 -64 -66c0 -23 11 -55 42 -95zM16 497l-5 -3l-91 169l8 5z" />
    <glyph glyph-name="uni1F3C" unicode="&#x1f3c;" horiz-adv-x="186" 
d="M90 673h6v-673h-6v673zM-139 495l-5 4c31 40 42 72 42 95c0 28 -18 52 -64 66l2 7c54 -17 70 -43 70 -73c0 -26 -13 -57 -45 -99zM-74 494l-5 3l88 171l8 -5z" />
    <glyph glyph-name="uni1F3D" unicode="&#x1f3d;" horiz-adv-x="186" 
d="M90 673h6v-673h-6v673zM-106 499l-5 -4c-32 42 -45 73 -45 99c0 30 17 57 70 73l2 -7c-46 -14 -64 -38 -64 -66c0 -23 11 -55 42 -95zM-74 494l-5 3l88 171l8 -5z" />
    <glyph glyph-name="uni1F3E" unicode="&#x1f3e;" horiz-adv-x="186" 
d="M90 673h6v-673h-6v673zM-112 436l-5 4c31 40 42 72 42 95c0 28 -18 52 -64 66l2 7c54 -17 70 -43 70 -73c0 -26 -13 -57 -45 -99zM-234 639l-6 2c17 35 44 51 73 51c18 0 41 -12 65 -23c23 -11 47 -22 64 -22c23 0 44 10 62 42l6 -2c-20 -35 -43 -47 -68 -47
c-19 0 -43 11 -66 22c-24 11 -47 23 -63 23c-27 0 -51 -14 -67 -46z" />
    <glyph glyph-name="uni1F3F" unicode="&#x1f3f;" horiz-adv-x="186" 
d="M90 673h6v-673h-6v673zM-85 431l-5 -4c-32 42 -45 73 -45 99c0 30 16 56 70 73l2 -7c-46 -14 -64 -38 -64 -66c0 -23 11 -55 42 -95zM-230 630l-6 2c17 35 44 51 73 51c18 0 41 -12 65 -23c23 -11 47 -22 64 -22c23 0 44 10 62 42l6 -2c-20 -35 -43 -47 -68 -47
c-19 0 -43 11 -66 22c-24 11 -47 23 -63 23c-27 0 -51 -14 -67 -46z" />
    <glyph glyph-name="uni1F40" unicode="&#x1f40;" horiz-adv-x="495" 
d="M249 477c-140 0 -193 -105 -193 -243c0 -154 54 -232 193 -232c114 0 190 75 190 236c0 134 -50 239 -190 239zM249 483c144 0 196 -107 196 -245c0 -165 -78 -242 -196 -242c-143 0 -199 80 -199 238c0 142 55 249 199 249zM241 545l-5 4c31 40 42 72 42 95
c0 28 -18 52 -64 66l2 7c54 -17 70 -43 70 -73c0 -26 -13 -57 -45 -99z" />
    <glyph glyph-name="uni1F41" unicode="&#x1f41;" horiz-adv-x="495" 
d="M249 477c-140 0 -193 -105 -193 -243c0 -154 54 -232 193 -232c114 0 190 75 190 236c0 134 -50 239 -190 239zM249 483c144 0 196 -107 196 -245c0 -165 -78 -242 -196 -242c-143 0 -199 80 -199 238c0 142 55 249 199 249zM272 549l-5 -4c-32 42 -45 73 -45 99
c0 30 16 56 70 73l2 -7c-46 -14 -64 -38 -64 -66c0 -23 11 -55 42 -95z" />
    <glyph glyph-name="uni1F42" unicode="&#x1f42;" horiz-adv-x="495" 
d="M249 477c-140 0 -193 -105 -193 -243c0 -154 54 -232 193 -232c114 0 190 75 190 236c0 134 -50 239 -190 239zM249 483c144 0 196 -107 196 -245c0 -165 -78 -242 -196 -242c-143 0 -199 80 -199 238c0 142 55 249 199 249zM166 545l-5 4c31 40 42 72 42 95
c0 28 -18 52 -64 66l2 7c54 -17 70 -43 70 -73c0 -26 -13 -57 -45 -99zM315 547l-5 -3l-91 169l8 5z" />
    <glyph glyph-name="uni1F43" unicode="&#x1f43;" horiz-adv-x="495" 
d="M249 477c-140 0 -193 -105 -193 -243c0 -154 54 -232 193 -232c114 0 190 75 190 236c0 134 -50 239 -190 239zM249 483c144 0 196 -107 196 -245c0 -165 -78 -242 -196 -242c-143 0 -199 80 -199 238c0 142 55 249 199 249zM198 549l-5 -4c-32 42 -45 73 -45 99
c0 30 16 56 70 73l2 -7c-46 -14 -64 -38 -64 -66c0 -23 11 -55 42 -95zM338 547l-5 -3l-91 169l8 5z" />
    <glyph glyph-name="uni1F44" unicode="&#x1f44;" horiz-adv-x="495" 
d="M249 477c-140 0 -193 -105 -193 -243c0 -154 54 -232 193 -232c114 0 190 75 190 236c0 134 -50 239 -190 239zM249 483c144 0 196 -107 196 -245c0 -165 -78 -242 -196 -242c-143 0 -199 80 -199 238c0 142 55 249 199 249zM195 545l-5 4c31 40 42 72 42 95
c0 28 -18 52 -64 66l2 7c54 -17 70 -43 70 -73c0 -26 -13 -57 -45 -99zM260 544l-5 3l88 171l8 -5z" />
    <glyph glyph-name="uni1F45" unicode="&#x1f45;" horiz-adv-x="495" 
d="M249 477c-140 0 -193 -105 -193 -243c0 -154 54 -232 193 -232c114 0 190 75 190 236c0 134 -50 239 -190 239zM249 483c144 0 196 -107 196 -245c0 -165 -78 -242 -196 -242c-143 0 -199 80 -199 238c0 142 55 249 199 249zM223 549l-5 -4c-32 42 -45 73 -45 99
c0 30 17 57 70 73l2 -7c-46 -14 -64 -38 -64 -66c0 -23 11 -55 42 -95zM255 544l-5 3l88 171l8 -5z" />
    <glyph glyph-name="uni1F48" unicode="&#x1f48;" horiz-adv-x="655" 
d="M331 673c-193 0 -265 -150 -265 -339c0 -225 81 -332 256 -332c163 0 267 112 267 333c0 194 -67 338 -258 338zM331 679c195 0 264 -146 264 -344c0 -226 -106 -339 -273 -339c-179 0 -262 109 -262 338c0 193 74 345 271 345zM-45 495l-5 4c31 40 42 72 42 95
c0 28 -18 52 -64 66l2 7c54 -17 70 -43 70 -73c0 -26 -13 -57 -45 -99z" />
    <glyph glyph-name="uni1F49" unicode="&#x1f49;" horiz-adv-x="655" 
d="M331 673c-193 0 -265 -150 -265 -339c0 -225 81 -332 256 -332c163 0 267 112 267 333c0 194 -67 338 -258 338zM331 679c195 0 264 -146 264 -344c0 -226 -106 -339 -273 -339c-179 0 -262 109 -262 338c0 193 74 345 271 345zM-12 511l-5 -4c-32 42 -45 73 -45 99
c0 30 16 56 70 73l2 -7c-46 -14 -64 -38 -64 -66c0 -23 11 -55 42 -95z" />
    <glyph glyph-name="uni1F4A" unicode="&#x1f4a;" horiz-adv-x="655" 
d="M331 673c-193 0 -265 -150 -265 -339c0 -225 81 -332 256 -332c163 0 267 112 267 333c0 194 -67 338 -258 338zM331 679c195 0 264 -146 264 -344c0 -226 -106 -339 -273 -339c-179 0 -262 109 -262 338c0 193 74 345 271 345zM-144 495l-5 4c31 40 42 72 42 95
c0 28 -18 52 -64 66l2 7c54 -17 70 -43 70 -73c0 -26 -13 -57 -45 -99zM5 497l-5 -3l-91 169l8 5z" />
    <glyph glyph-name="uni1F4B" unicode="&#x1f4b;" horiz-adv-x="655" 
d="M331 673c-193 0 -265 -150 -265 -339c0 -225 81 -332 256 -332c163 0 267 112 267 333c0 194 -67 338 -258 338zM331 679c195 0 264 -146 264 -344c0 -226 -106 -339 -273 -339c-179 0 -262 109 -262 338c0 193 74 345 271 345zM-138 499l-5 -4c-32 42 -45 73 -45 99
c0 30 16 56 70 73l2 -7c-46 -14 -64 -38 -64 -66c0 -23 11 -55 42 -95zM2 497l-5 -3l-91 169l8 5z" />
    <glyph glyph-name="uni1F4C" unicode="&#x1f4c;" horiz-adv-x="655" 
d="M331 673c-193 0 -265 -150 -265 -339c0 -225 81 -332 256 -332c163 0 267 112 267 333c0 194 -67 338 -258 338zM331 679c195 0 264 -146 264 -344c0 -226 -106 -339 -273 -339c-179 0 -262 109 -262 338c0 193 74 345 271 345zM-131 495l-5 4c31 40 42 72 42 95
c0 28 -18 52 -64 66l2 7c54 -17 70 -43 70 -73c0 -26 -13 -57 -45 -99zM-66 494l-5 3l88 171l8 -5z" />
    <glyph glyph-name="uni1F4D" unicode="&#x1f4d;" horiz-adv-x="655" 
d="M331 673c-193 0 -265 -150 -265 -339c0 -225 81 -332 256 -332c163 0 267 112 267 333c0 194 -67 338 -258 338zM331 679c195 0 264 -146 264 -344c0 -226 -106 -339 -273 -339c-179 0 -262 109 -262 338c0 193 74 345 271 345zM-110 499l-5 -4c-32 42 -45 73 -45 99
c0 30 17 57 70 73l2 -7c-46 -14 -64 -38 -64 -66c0 -23 11 -55 42 -95zM-78 494l-5 3l88 171l8 -5z" />
    <glyph glyph-name="uni1F50" unicode="&#x1f50;" horiz-adv-x="505" 
d="M60 478h6v-293c0 -121 63 -183 182 -183c118 0 191 60 191 183v293h6v-293c0 -127 -75 -189 -197 -189c-123 0 -188 64 -188 189v293zM234 545l-5 4c31 40 42 72 42 95c0 28 -18 52 -64 66l2 7c54 -17 70 -43 70 -73c0 -26 -13 -57 -45 -99z" />
    <glyph glyph-name="uni1F51" unicode="&#x1f51;" horiz-adv-x="505" 
d="M60 478h6v-293c0 -121 63 -183 182 -183c118 0 191 60 191 183v293h6v-293c0 -127 -75 -189 -197 -189c-123 0 -188 64 -188 189v293zM262 548l-5 -4c-32 42 -45 73 -45 99c0 30 16 56 70 73l2 -7c-46 -14 -64 -38 -64 -66c0 -23 11 -55 42 -95z" />
    <glyph glyph-name="uni1F52" unicode="&#x1f52;" horiz-adv-x="505" 
d="M60 478h6v-293c0 -121 63 -183 182 -183c118 0 191 60 191 183v293h6v-293c0 -127 -75 -189 -197 -189c-123 0 -188 64 -188 189v293zM177 545l-5 4c31 40 42 72 42 95c0 28 -18 52 -64 66l2 7c54 -17 70 -43 70 -73c0 -26 -13 -57 -45 -99zM326 547l-5 -3l-91 169l8 5z
" />
    <glyph glyph-name="uni1F53" unicode="&#x1f53;" horiz-adv-x="505" 
d="M60 478h6v-293c0 -121 63 -183 182 -183c118 0 191 60 191 183v293h6v-293c0 -127 -75 -189 -197 -189c-123 0 -188 64 -188 189v293zM197 549l-5 -4c-32 42 -45 73 -45 99c0 30 16 56 70 73l2 -7c-46 -14 -64 -38 -64 -66c0 -23 11 -55 42 -95zM337 547l-5 -3l-91 169
l8 5z" />
    <glyph glyph-name="uni1F54" unicode="&#x1f54;" horiz-adv-x="505" 
d="M60 478h6v-293c0 -121 63 -183 182 -183c118 0 191 60 191 183v293h6v-293c0 -127 -75 -189 -197 -189c-123 0 -188 64 -188 189v293zM193 545l-5 4c31 40 42 72 42 95c0 28 -18 52 -64 66l2 7c54 -17 70 -43 70 -73c0 -26 -13 -57 -45 -99zM258 544l-5 3l88 171l8 -5z
" />
    <glyph glyph-name="uni1F55" unicode="&#x1f55;" horiz-adv-x="505" 
d="M60 478h6v-293c0 -121 63 -183 182 -183c118 0 191 60 191 183v293h6v-293c0 -127 -75 -189 -197 -189c-123 0 -188 64 -188 189v293zM232 549l-5 -4c-32 42 -45 73 -45 99c0 30 17 57 70 73l2 -7c-46 -14 -64 -38 -64 -66c0 -23 11 -55 42 -95zM264 544l-5 3l88 171
l8 -5z" />
    <glyph glyph-name="uni1F56" unicode="&#x1f56;" horiz-adv-x="505" 
d="M60 478h6v-293c0 -121 63 -183 182 -183c118 0 191 60 191 183v293h6v-293c0 -127 -75 -189 -197 -189c-123 0 -188 64 -188 189v293zM240 512l-5 4c31 40 42 72 42 95c0 28 -18 52 -64 66l2 7c54 -17 70 -43 70 -73c0 -26 -13 -57 -45 -99zM118 715l-6 2
c17 35 44 51 73 51c18 0 41 -12 65 -23c23 -11 47 -22 64 -22c23 0 44 10 62 42l6 -2c-20 -35 -43 -47 -68 -47c-19 0 -43 11 -66 22c-24 11 -47 23 -63 23c-27 0 -51 -14 -67 -46z" />
    <glyph glyph-name="uni1F57" unicode="&#x1f57;" horiz-adv-x="505" 
d="M60 478h6v-293c0 -121 63 -183 182 -183c118 0 191 60 191 183v293h6v-293c0 -127 -75 -189 -197 -189c-123 0 -188 64 -188 189v293zM265 511l-5 -4c-32 42 -45 73 -45 99c0 30 16 56 70 73l2 -7c-46 -14 -64 -38 -64 -66c0 -23 11 -55 42 -95zM120 710l-6 2
c17 35 44 51 73 51c18 0 41 -12 65 -23c23 -11 47 -22 64 -22c23 0 44 10 62 42l6 -2c-20 -35 -43 -47 -68 -47c-19 0 -43 11 -66 22c-24 11 -47 23 -63 23c-27 0 -51 -14 -67 -46z" />
    <glyph glyph-name="uni1F59" unicode="&#x1f59;" horiz-adv-x="485" 
d="M470 673h7l-235 -386v-287h-6v287l-228 386h7l224 -379zM-64 499l-5 -4c-32 42 -45 73 -45 99c0 30 16 56 70 73l2 -7c-46 -14 -64 -38 -64 -66c0 -23 11 -55 42 -95z" />
    <glyph glyph-name="uni1F5B" unicode="&#x1f5b;" horiz-adv-x="485" 
d="M470 673h7l-235 -386v-287h-6v287l-228 386h7l224 -379zM-162 499l-5 -4c-32 42 -45 73 -45 99c0 30 16 56 70 73l2 -7c-46 -14 -64 -38 -64 -66c0 -23 11 -55 42 -95zM-22 497l-5 -3l-91 169l8 5z" />
    <glyph glyph-name="uni1F5D" unicode="&#x1f5d;" horiz-adv-x="485" 
d="M470 673h7l-235 -386v-287h-6v287l-228 386h7l224 -379zM-154 501l-5 -4c-32 42 -45 73 -45 99c0 30 17 57 70 73l2 -7c-46 -14 -64 -38 -64 -66c0 -23 11 -55 42 -95zM-122 496l-5 3l88 171l8 -5z" />
    <glyph glyph-name="uni1F5F" unicode="&#x1f5f;" horiz-adv-x="485" 
d="M470 673h7l-235 -386v-287h-6v287l-228 386h7l224 -379zM-145 420l-5 -4c-32 42 -45 73 -45 99c0 30 16 56 70 73l2 -7c-46 -14 -64 -38 -64 -66c0 -23 11 -55 42 -95zM-290 619l-6 2c17 35 44 51 73 51c18 0 41 -12 65 -23c23 -11 47 -22 64 -22c23 0 44 10 62 42l6 -2
c-20 -35 -43 -47 -68 -47c-19 0 -43 11 -66 22c-24 11 -47 23 -63 23c-27 0 -51 -14 -67 -46z" />
    <glyph glyph-name="uni1F60" unicode="&#x1f60;" horiz-adv-x="761" 
d="M711 236c0 140 -44 246 -189 247v-6c140 0 183 -103 183 -241c0 -104 -22 -232 -166 -232c-81 0 -155 51 -155 131v173h-6v-159c0 -81 -60 -145 -153 -145c-148 0 -169 109 -169 232c0 138 43 241 183 241v6c-144 0 -189 -107 -189 -247c0 -127 21 -238 175 -238
c78 0 136 45 155 112c12 -65 84 -112 156 -112c155 0 175 132 175 238zM377 545l-5 4c31 40 42 72 42 95c0 28 -18 52 -64 66l2 7c54 -17 70 -43 70 -73c0 -26 -13 -57 -45 -99z" />
    <glyph glyph-name="uni1F61" unicode="&#x1f61;" horiz-adv-x="761" 
d="M711 236c0 140 -44 246 -189 247v-6c140 0 183 -103 183 -241c0 -104 -22 -232 -166 -232c-81 0 -155 51 -155 131v173h-6v-159c0 -81 -60 -145 -153 -145c-148 0 -169 109 -169 232c0 138 43 241 183 241v6c-144 0 -189 -107 -189 -247c0 -127 21 -238 175 -238
c78 0 136 45 155 112c12 -65 84 -112 156 -112c155 0 175 132 175 238zM400 549l-5 -4c-32 42 -45 73 -45 99c0 30 16 56 70 73l2 -7c-46 -14 -64 -38 -64 -66c0 -23 11 -55 42 -95z" />
    <glyph glyph-name="uni1F62" unicode="&#x1f62;" horiz-adv-x="761" 
d="M711 236c0 140 -44 246 -189 247v-6c140 0 183 -103 183 -241c0 -104 -22 -232 -166 -232c-81 0 -155 51 -155 131v173h-6v-159c0 -81 -60 -145 -153 -145c-148 0 -169 109 -169 232c0 138 43 241 183 241v6c-144 0 -189 -107 -189 -247c0 -127 21 -238 175 -238
c78 0 136 45 155 112c12 -65 84 -112 156 -112c155 0 175 132 175 238zM312 545l-5 4c31 40 42 72 42 95c0 28 -18 52 -64 66l2 7c54 -17 70 -43 70 -73c0 -26 -13 -57 -45 -99zM461 547l-5 -3l-91 169l8 5z" />
    <glyph glyph-name="uni1F63" unicode="&#x1f63;" horiz-adv-x="761" 
d="M711 236c0 140 -44 246 -189 247v-6c140 0 183 -103 183 -241c0 -104 -22 -232 -166 -232c-81 0 -155 51 -155 131v173h-6v-159c0 -81 -60 -145 -153 -145c-148 0 -169 109 -169 232c0 138 43 241 183 241v6c-144 0 -189 -107 -189 -247c0 -127 21 -238 175 -238
c78 0 136 45 155 112c12 -65 84 -112 156 -112c155 0 175 132 175 238zM335 549l-5 -4c-32 42 -45 73 -45 99c0 30 16 56 70 73l2 -7c-46 -14 -64 -38 -64 -66c0 -23 11 -55 42 -95zM475 547l-5 -3l-91 169l8 5z" />
    <glyph glyph-name="uni1F64" unicode="&#x1f64;" horiz-adv-x="761" 
d="M711 236c0 140 -44 246 -189 247v-6c140 0 183 -103 183 -241c0 -104 -22 -232 -166 -232c-81 0 -155 51 -155 131v173h-6v-159c0 -81 -60 -145 -153 -145c-148 0 -169 109 -169 232c0 138 43 241 183 241v6c-144 0 -189 -107 -189 -247c0 -127 21 -238 175 -238
c78 0 136 45 155 112c12 -65 84 -112 156 -112c155 0 175 132 175 238zM338 545l-5 4c31 40 42 72 42 95c0 28 -18 52 -64 66l2 7c54 -17 70 -43 70 -73c0 -26 -13 -57 -45 -99zM403 544l-5 3l88 171l8 -5z" />
    <glyph glyph-name="uni1F65" unicode="&#x1f65;" horiz-adv-x="761" 
d="M711 236c0 140 -44 246 -189 247v-6c140 0 183 -103 183 -241c0 -104 -22 -232 -166 -232c-81 0 -155 51 -155 131v173h-6v-159c0 -81 -60 -145 -153 -145c-148 0 -169 109 -169 232c0 138 43 241 183 241v6c-144 0 -189 -107 -189 -247c0 -127 21 -238 175 -238
c78 0 136 45 155 112c12 -65 84 -112 156 -112c155 0 175 132 175 238zM367 549l-5 -4c-32 42 -45 73 -45 99c0 30 17 57 70 73l2 -7c-46 -14 -64 -38 -64 -66c0 -23 11 -55 42 -95zM399 544l-5 3l88 171l8 -5z" />
    <glyph glyph-name="uni1F66" unicode="&#x1f66;" horiz-adv-x="761" 
d="M711 236c0 140 -44 246 -189 247v-6c140 0 183 -103 183 -241c0 -104 -22 -232 -166 -232c-81 0 -155 51 -155 131v173h-6v-159c0 -81 -60 -145 -153 -145c-148 0 -169 109 -169 232c0 138 43 241 183 241v6c-144 0 -189 -107 -189 -247c0 -127 21 -238 175 -238
c78 0 136 45 155 112c12 -65 84 -112 156 -112c155 0 175 132 175 238zM377 532l-5 4c31 40 42 72 42 95c0 28 -18 52 -64 66l2 7c54 -17 70 -43 70 -73c0 -26 -13 -57 -45 -99zM255 735l-6 2c17 35 44 51 73 51c18 0 41 -12 65 -23c23 -11 47 -22 64 -22c23 0 44 10 62 42
l6 -2c-20 -35 -43 -47 -68 -47c-19 0 -43 11 -66 22c-24 11 -47 23 -63 23c-27 0 -51 -14 -67 -46z" />
    <glyph glyph-name="uni1F67" unicode="&#x1f67;" horiz-adv-x="761" 
d="M711 236c0 140 -44 246 -189 247v-6c140 0 183 -103 183 -241c0 -104 -22 -232 -166 -232c-81 0 -155 51 -155 131v173h-6v-159c0 -81 -60 -145 -153 -145c-148 0 -169 109 -169 232c0 138 43 241 183 241v6c-144 0 -189 -107 -189 -247c0 -127 21 -238 175 -238
c78 0 136 45 155 112c12 -65 84 -112 156 -112c155 0 175 132 175 238zM392 519l-5 -4c-32 42 -45 73 -45 99c0 30 16 56 70 73l2 -7c-46 -14 -64 -38 -64 -66c0 -23 11 -55 42 -95zM247 718l-6 2c17 35 44 51 73 51c18 0 41 -12 65 -23c23 -11 47 -22 64 -22
c23 0 44 10 62 42l6 -2c-20 -35 -43 -47 -68 -47c-19 0 -43 11 -66 22c-24 11 -47 23 -63 23c-27 0 -51 -14 -67 -46z" />
    <glyph glyph-name="uni1F68" unicode="&#x1f68;" horiz-adv-x="672" 
d="M339 681c211 0 282 -175 282 -349c0 -127 -32 -279 -156 -326h176v-6h-185v9c125 43 159 191 159 323c0 170 -69 343 -276 343s-276 -173 -276 -343c0 -138 30 -278 159 -323v-9h-187v6h178c-128 48 -156 188 -156 326c0 174 71 349 282 349zM-62 509l-5 4
c31 40 42 72 42 95c0 28 -18 52 -64 66l2 7c54 -17 70 -43 70 -73c0 -26 -13 -57 -45 -99z" />
    <glyph glyph-name="uni1F69" unicode="&#x1f69;" horiz-adv-x="672" 
d="M339 681c211 0 282 -175 282 -349c0 -127 -32 -279 -156 -326h176v-6h-185v9c125 43 159 191 159 323c0 170 -69 343 -276 343s-276 -173 -276 -343c0 -138 30 -278 159 -323v-9h-187v6h178c-128 48 -156 188 -156 326c0 174 71 349 282 349zM-32 512l-5 -4
c-32 42 -45 73 -45 99c0 30 16 56 70 73l2 -7c-46 -14 -64 -38 -64 -66c0 -23 11 -55 42 -95z" />
    <glyph glyph-name="uni1F6A" unicode="&#x1f6a;" horiz-adv-x="672" 
d="M339 681c211 0 282 -175 282 -349c0 -127 -32 -279 -156 -326h176v-6h-185v9c125 43 159 191 159 323c0 170 -69 343 -276 343s-276 -173 -276 -343c0 -138 30 -278 159 -323v-9h-187v6h178c-128 48 -156 188 -156 326c0 174 71 349 282 349zM-152 513l-5 4
c31 40 42 72 42 95c0 28 -18 52 -64 66l2 7c54 -17 70 -43 70 -73c0 -26 -13 -57 -45 -99zM-3 515l-5 -3l-91 169l8 5z" />
    <glyph glyph-name="uni1F6B" unicode="&#x1f6b;" horiz-adv-x="672" 
d="M339 681c211 0 282 -175 282 -349c0 -127 -32 -279 -156 -326h176v-6h-185v9c125 43 159 191 159 323c0 170 -69 343 -276 343s-276 -173 -276 -343c0 -138 30 -278 159 -323v-9h-187v6h178c-128 48 -156 188 -156 326c0 174 71 349 282 349zM-140 518l-5 -4
c-32 42 -45 73 -45 99c0 30 16 56 70 73l2 -7c-46 -14 -64 -38 -64 -66c0 -23 11 -55 42 -95zM0 516l-5 -3l-91 169l8 5z" />
    <glyph glyph-name="uni1F6C" unicode="&#x1f6c;" horiz-adv-x="672" 
d="M339 681c211 0 282 -175 282 -349c0 -127 -32 -279 -156 -326h176v-6h-185v9c125 43 159 191 159 323c0 170 -69 343 -276 343s-276 -173 -276 -343c0 -138 30 -278 159 -323v-9h-187v6h178c-128 48 -156 188 -156 326c0 174 71 349 282 349zM-143 503l-5 4
c31 40 42 72 42 95c0 28 -18 52 -64 66l2 7c54 -17 70 -43 70 -73c0 -26 -13 -57 -45 -99zM-78 502l-5 3l88 171l8 -5z" />
    <glyph glyph-name="uni1F6D" unicode="&#x1f6d;" horiz-adv-x="672" 
d="M339 681c211 0 282 -175 282 -349c0 -127 -32 -279 -156 -326h176v-6h-185v9c125 43 159 191 159 323c0 170 -69 343 -276 343s-276 -173 -276 -343c0 -138 30 -278 159 -323v-9h-187v6h178c-128 48 -156 188 -156 326c0 174 71 349 282 349zM-109 505l-5 -4
c-32 42 -45 73 -45 99c0 30 17 57 70 73l2 -7c-46 -14 -64 -38 -64 -66c0 -23 11 -55 42 -95zM-77 500l-5 3l88 171l8 -5z" />
    <glyph glyph-name="uni1F6E" unicode="&#x1f6e;" horiz-adv-x="672" 
d="M339 681c211 0 282 -175 282 -349c0 -127 -32 -279 -156 -326h176v-6h-185v9c125 43 159 191 159 323c0 170 -69 343 -276 343s-276 -173 -276 -343c0 -138 30 -278 159 -323v-9h-187v6h178c-128 48 -156 188 -156 326c0 174 71 349 282 349zM-87 435l-5 4
c31 40 42 72 42 95c0 28 -18 52 -64 66l2 7c54 -17 70 -43 70 -73c0 -26 -13 -57 -45 -99zM-209 638l-6 2c17 35 44 51 73 51c18 0 41 -12 65 -23c23 -11 47 -22 64 -22c23 0 44 10 62 42l6 -2c-20 -35 -43 -47 -68 -47c-19 0 -43 11 -66 22c-24 11 -47 23 -63 23
c-27 0 -51 -14 -67 -46z" />
    <glyph glyph-name="uni1F6F" unicode="&#x1f6f;" horiz-adv-x="672" 
d="M339 681c211 0 282 -175 282 -349c0 -127 -32 -279 -156 -326h176v-6h-185v9c125 43 159 191 159 323c0 170 -69 343 -276 343s-276 -173 -276 -343c0 -138 30 -278 159 -323v-9h-187v6h178c-128 48 -156 188 -156 326c0 174 71 349 282 349zM-73 429l-5 -4
c-32 42 -45 73 -45 99c0 30 16 56 70 73l2 -7c-46 -14 -64 -38 -64 -66c0 -23 11 -55 42 -95zM-218 628l-6 2c17 35 44 51 73 51c18 0 41 -12 65 -23c23 -11 47 -22 64 -22c23 0 44 10 62 42l6 -2c-20 -35 -43 -47 -68 -47c-19 0 -43 11 -66 22c-24 11 -47 23 -63 23
c-27 0 -51 -14 -67 -46z" />
    <glyph glyph-name="uni1F70" unicode="&#x1f70;" horiz-adv-x="504" 
d="M438 479h6v-479h-6v160c-19 -103 -92 -164 -193 -164c-138 0 -195 91 -195 243c0 144 57 244 203 244c75 0 163 -36 185 -157v153zM253 477c-144 0 -197 -98 -197 -238c0 -145 53 -237 189 -237c95 0 193 58 193 222v35c0 180 -109 218 -185 218zM300 550l-4 -2l-91 180
l8 4z" />
    <glyph glyph-name="uni1F71" unicode="&#x1f71;" horiz-adv-x="504" 
d="M438 479h6v-479h-6v160c-19 -103 -92 -164 -193 -164c-138 0 -195 91 -195 243c0 144 57 244 203 244c75 0 163 -36 185 -157v153zM253 477c-144 0 -197 -98 -197 -238c0 -145 53 -237 189 -237c95 0 193 58 193 222v35c0 180 -109 218 -185 218zM257 548l-4 2l87 182
l8 -4z" />
    <glyph glyph-name="uni1F72" unicode="&#x1f72;" horiz-adv-x="432" 
d="M61 354c0 66 46 123 166 123c99 0 168 -48 158 -128h6c10 84 -61 134 -164 134c-124 0 -172 -59 -172 -129c0 -35 14 -77 88 -92c-80 -22 -98 -90 -98 -127c0 -76 48 -139 183 -139c84 0 182 42 175 149h-6c7 -103 -87 -143 -169 -143c-131 0 -177 60 -177 133
c0 68 50 125 126 125h92v6h-90c-53 0 -118 18 -118 88zM254 550l-4 -2l-91 180l8 4z" />
    <glyph glyph-name="uni1F73" unicode="&#x1f73;" horiz-adv-x="432" 
d="M61 354c0 66 46 123 166 123c99 0 168 -48 158 -128h6c10 84 -61 134 -164 134c-124 0 -172 -59 -172 -129c0 -35 14 -77 88 -92c-80 -22 -98 -90 -98 -127c0 -76 48 -139 183 -139c84 0 182 42 175 149h-6c7 -103 -87 -143 -169 -143c-131 0 -177 60 -177 133
c0 68 50 125 126 125h92v6h-90c-53 0 -118 18 -118 88zM221 548l-4 2l87 182l8 -4z" />
    <glyph glyph-name="uni1F74" unicode="&#x1f74;" horiz-adv-x="487" 
d="M66 0h-6v478h6v-153c25 127 126 158 180 158c148 0 181 -91 181 -202v-281h-6v281c0 107 -31 196 -175 196c-55 0 -180 -34 -180 -219v-258zM249 550l-4 -2l-91 180l8 4z" />
    <glyph glyph-name="uni1F75" unicode="&#x1f75;" horiz-adv-x="487" 
d="M66 0h-6v478h6v-153c25 127 126 158 180 158c148 0 181 -91 181 -202v-281h-6v281c0 107 -31 196 -175 196c-55 0 -180 -34 -180 -219v-258zM218 548l-4 2l87 182l8 -4z" />
    <glyph glyph-name="uni1F76" unicode="&#x1f76;" horiz-adv-x="167" 
d="M81 478h6v-478h-6v478zM95 550l-4 -2l-91 180l8 4z" />
    <glyph glyph-name="uni1F77" unicode="&#x1f77;" horiz-adv-x="167" 
d="M81 478h6v-478h-6v478zM82 548l-4 2l87 182l8 -4z" />
    <glyph glyph-name="uni1F78" unicode="&#x1f78;" horiz-adv-x="495" 
d="M249 477c-140 0 -193 -105 -193 -243c0 -154 54 -232 193 -232c114 0 190 75 190 236c0 134 -50 239 -190 239zM249 483c144 0 196 -107 196 -245c0 -165 -78 -242 -196 -242c-143 0 -199 80 -199 238c0 142 55 249 199 249zM274 550l-4 -2l-91 180l8 4z" />
    <glyph glyph-name="uni1F79" unicode="&#x1f79;" horiz-adv-x="495" 
d="M249 477c-140 0 -193 -105 -193 -243c0 -154 54 -232 193 -232c114 0 190 75 190 236c0 134 -50 239 -190 239zM249 483c144 0 196 -107 196 -245c0 -165 -78 -242 -196 -242c-143 0 -199 80 -199 238c0 142 55 249 199 249zM233 548l-4 2l87 182l8 -4z" />
    <glyph glyph-name="uni1F7A" unicode="&#x1f7a;" horiz-adv-x="505" 
d="M60 478h6v-293c0 -121 63 -183 182 -183c118 0 191 60 191 183v293h6v-293c0 -127 -75 -189 -197 -189c-123 0 -188 64 -188 189v293zM275 550l-4 -2l-91 180l8 4z" />
    <glyph glyph-name="uni1F7B" unicode="&#x1f7b;" horiz-adv-x="505" 
d="M60 478h6v-293c0 -121 63 -183 182 -183c118 0 191 60 191 183v293h6v-293c0 -127 -75 -189 -197 -189c-123 0 -188 64 -188 189v293zM226 548l-4 2l87 182l8 -4z" />
    <glyph glyph-name="uni1F7C" unicode="&#x1f7c;" horiz-adv-x="761" 
d="M711 236c0 140 -44 246 -189 247v-6c140 0 183 -103 183 -241c0 -104 -22 -232 -166 -232c-81 0 -155 51 -155 131v173h-6v-159c0 -81 -60 -145 -153 -145c-148 0 -169 109 -169 232c0 138 43 241 183 241v6c-144 0 -189 -107 -189 -247c0 -127 21 -238 175 -238
c78 0 136 45 155 112c12 -65 84 -112 156 -112c155 0 175 132 175 238zM399 550l-4 -2l-91 180l8 4z" />
    <glyph glyph-name="uni1F7D" unicode="&#x1f7d;" horiz-adv-x="761" 
d="M711 236c0 140 -44 246 -189 247v-6c140 0 183 -103 183 -241c0 -104 -22 -232 -166 -232c-81 0 -155 51 -155 131v173h-6v-159c0 -81 -60 -145 -153 -145c-148 0 -169 109 -169 232c0 138 43 241 183 241v6c-144 0 -189 -107 -189 -247c0 -127 21 -238 175 -238
c78 0 136 45 155 112c12 -65 84 -112 156 -112c155 0 175 132 175 238zM385 548l-4 2l87 182l8 -4z" />
    <glyph glyph-name="uni1F80" unicode="&#x1f80;" horiz-adv-x="504" 
d="M438 479h6v-479h-6v160c-19 -103 -92 -164 -193 -164c-138 0 -195 91 -195 243c0 144 57 244 203 244c75 0 163 -36 185 -157v153zM253 477c-144 0 -197 -98 -197 -238c0 -145 53 -237 189 -237c95 0 193 58 193 222v35c0 180 -109 218 -185 218zM241 545l-5 4
c31 40 42 72 42 95c0 28 -18 52 -64 66l2 7c54 -17 70 -43 70 -73c0 -26 -13 -57 -45 -99zM260 -61h6v-99c0 -49 8 -64 53 -64c9 0 21 1 31 2v-6c-10 -1 -22 -2 -31 -2c-51 0 -59 17 -59 70v99z" />
    <glyph glyph-name="uni1F81" unicode="&#x1f81;" horiz-adv-x="504" 
d="M438 479h6v-479h-6v160c-19 -103 -92 -164 -193 -164c-138 0 -195 91 -195 243c0 144 57 244 203 244c75 0 163 -36 185 -157v153zM253 477c-144 0 -197 -98 -197 -238c0 -145 53 -237 189 -237c95 0 193 58 193 222v35c0 180 -109 218 -185 218zM281 549l-5 -4
c-32 42 -45 73 -45 99c0 30 16 56 70 73l2 -7c-46 -14 -64 -38 -64 -66c0 -23 11 -55 42 -95zM260 -61h6v-99c0 -49 8 -64 53 -64c9 0 21 1 31 2v-6c-10 -1 -22 -2 -31 -2c-51 0 -59 17 -59 70v99z" />
    <glyph glyph-name="uni1F82" unicode="&#x1f82;" horiz-adv-x="504" 
d="M438 479h6v-479h-6v160c-19 -103 -92 -164 -193 -164c-138 0 -195 91 -195 243c0 144 57 244 203 244c75 0 163 -36 185 -157v153zM253 477c-144 0 -197 -98 -197 -238c0 -145 53 -237 189 -237c95 0 193 58 193 222v35c0 180 -109 218 -185 218zM187 545l-5 4
c31 40 42 72 42 95c0 28 -18 52 -64 66l2 7c54 -17 70 -43 70 -73c0 -26 -13 -57 -45 -99zM336 547l-5 -3l-91 169l8 5zM262 -61h6v-99c0 -49 8 -64 53 -64c9 0 21 1 31 2v-6c-10 -1 -22 -2 -31 -2c-51 0 -59 17 -59 70v99z" />
    <glyph glyph-name="uni1F83" unicode="&#x1f83;" horiz-adv-x="504" 
d="M438 479h6v-479h-6v160c-19 -103 -92 -164 -193 -164c-138 0 -195 91 -195 243c0 144 57 244 203 244c75 0 163 -36 185 -157v153zM253 477c-144 0 -197 -98 -197 -238c0 -145 53 -237 189 -237c95 0 193 58 193 222v35c0 180 -109 218 -185 218zM212 549l-5 -4
c-32 42 -45 73 -45 99c0 30 16 56 70 73l2 -7c-46 -14 -64 -38 -64 -66c0 -23 11 -55 42 -95zM352 547l-5 -3l-91 169l8 5zM258 -61h6v-99c0 -49 8 -64 53 -64c9 0 21 1 31 2v-6c-10 -1 -22 -2 -31 -2c-51 0 -59 17 -59 70v99z" />
    <glyph glyph-name="uni1F84" unicode="&#x1f84;" horiz-adv-x="504" 
d="M438 479h6v-479h-6v160c-19 -103 -92 -164 -193 -164c-138 0 -195 91 -195 243c0 144 57 244 203 244c75 0 163 -36 185 -157v153zM253 477c-144 0 -197 -98 -197 -238c0 -145 53 -237 189 -237c95 0 193 58 193 222v35c0 180 -109 218 -185 218zM210 545l-5 4
c31 40 42 72 42 95c0 28 -18 52 -64 66l2 7c54 -17 70 -43 70 -73c0 -26 -13 -57 -45 -99zM275 544l-5 3l88 171l8 -5zM250 -61h6v-99c0 -49 8 -64 53 -64c9 0 21 1 31 2v-6c-10 -1 -22 -2 -31 -2c-51 0 -59 17 -59 70v99z" />
    <glyph glyph-name="uni1F85" unicode="&#x1f85;" horiz-adv-x="504" 
d="M438 479h6v-479h-6v160c-19 -103 -92 -164 -193 -164c-138 0 -195 91 -195 243c0 144 57 244 203 244c75 0 163 -36 185 -157v153zM253 477c-144 0 -197 -98 -197 -238c0 -145 53 -237 189 -237c95 0 193 58 193 222v35c0 180 -109 218 -185 218zM235 549l-5 -4
c-32 42 -45 73 -45 99c0 30 17 57 70 73l2 -7c-46 -14 -64 -38 -64 -66c0 -23 11 -55 42 -95zM267 544l-5 3l88 171l8 -5zM258 -61h6v-99c0 -49 8 -64 53 -64c9 0 21 1 31 2v-6c-10 -1 -22 -2 -31 -2c-51 0 -59 17 -59 70v99z" />
    <glyph glyph-name="uni1F86" unicode="&#x1f86;" horiz-adv-x="504" 
d="M438 479h6v-479h-6v160c-19 -103 -92 -164 -193 -164c-138 0 -195 91 -195 243c0 144 57 244 203 244c75 0 163 -36 185 -157v153zM253 477c-144 0 -197 -98 -197 -238c0 -145 53 -237 189 -237c95 0 193 58 193 222v35c0 180 -109 218 -185 218zM245 535l-5 4
c31 40 42 72 42 95c0 28 -18 52 -64 66l2 7c54 -17 70 -43 70 -73c0 -26 -13 -57 -45 -99zM123 738l-6 2c17 35 44 51 73 51c18 0 41 -12 65 -23c23 -11 47 -22 64 -22c23 0 44 10 62 42l6 -2c-20 -35 -43 -47 -68 -47c-19 0 -43 11 -66 22c-24 11 -47 23 -63 23
c-27 0 -51 -14 -67 -46zM250 -61h6v-99c0 -49 8 -64 53 -64c9 0 21 1 31 2v-6c-10 -1 -22 -2 -31 -2c-51 0 -59 17 -59 70v99z" />
    <glyph glyph-name="uni1F87" unicode="&#x1f87;" horiz-adv-x="504" 
d="M438 479h6v-479h-6v160c-19 -103 -92 -164 -193 -164c-138 0 -195 91 -195 243c0 144 57 244 203 244c75 0 163 -36 185 -157v153zM253 477c-144 0 -197 -98 -197 -238c0 -145 53 -237 189 -237c95 0 193 58 193 222v35c0 180 -109 218 -185 218zM266 542l-5 -4
c-32 42 -45 73 -45 99c0 30 16 56 70 73l2 -7c-46 -14 -64 -38 -64 -66c0 -23 11 -55 42 -95zM121 741l-6 2c17 35 44 51 73 51c18 0 41 -12 65 -23c23 -11 47 -22 64 -22c23 0 44 10 62 42l6 -2c-20 -35 -43 -47 -68 -47c-19 0 -43 11 -66 22c-24 11 -47 23 -63 23
c-27 0 -51 -14 -67 -46zM256 -61h6v-99c0 -49 8 -64 53 -64c9 0 21 1 31 2v-6c-10 -1 -22 -2 -31 -2c-51 0 -59 17 -59 70v99z" />
    <glyph glyph-name="uni1F90" unicode="&#x1f90;" horiz-adv-x="487" 
d="M66 0h-6v478h6v-153c25 127 126 158 180 158c148 0 181 -91 181 -202v-281h-6v281c0 107 -31 196 -175 196c-55 0 -180 -34 -180 -219v-258zM231 545l-5 4c31 40 42 72 42 95c0 28 -18 52 -64 66l2 7c54 -17 70 -43 70 -73c0 -26 -13 -57 -45 -99zM245 -61h6v-99
c0 -49 8 -64 53 -64c9 0 21 1 31 2v-6c-10 -1 -22 -2 -31 -2c-51 0 -59 17 -59 70v99z" />
    <glyph glyph-name="uni1F91" unicode="&#x1f91;" horiz-adv-x="487" 
d="M66 0h-6v478h6v-153c25 127 126 158 180 158c148 0 181 -91 181 -202v-281h-6v281c0 107 -31 196 -175 196c-55 0 -180 -34 -180 -219v-258zM270 549l-5 -4c-32 42 -45 73 -45 99c0 30 16 56 70 73l2 -7c-46 -14 -64 -38 -64 -66c0 -23 11 -55 42 -95zM242 -61h6v-99
c0 -49 8 -64 53 -64c9 0 21 1 31 2v-6c-10 -1 -22 -2 -31 -2c-51 0 -59 17 -59 70v99z" />
    <glyph glyph-name="uni1F92" unicode="&#x1f92;" horiz-adv-x="487" 
d="M66 0h-6v478h6v-153c25 127 126 158 180 158c148 0 181 -91 181 -202v-281h-6v281c0 107 -31 196 -175 196c-55 0 -180 -34 -180 -219v-258zM168 545l-5 4c31 40 42 72 42 95c0 28 -18 52 -64 66l2 7c54 -17 70 -43 70 -73c0 -26 -13 -57 -45 -99zM317 547l-5 -3l-91 169
l8 5zM240 -61h6v-99c0 -49 8 -64 53 -64c9 0 21 1 31 2v-6c-10 -1 -22 -2 -31 -2c-51 0 -59 17 -59 70v99z" />
    <glyph glyph-name="uni1F93" unicode="&#x1f93;" horiz-adv-x="487" 
d="M66 0h-6v478h6v-153c25 127 126 158 180 158c148 0 181 -91 181 -202v-281h-6v281c0 107 -31 196 -175 196c-55 0 -180 -34 -180 -219v-258zM196 549l-5 -4c-32 42 -45 73 -45 99c0 30 16 56 70 73l2 -7c-46 -14 -64 -38 -64 -66c0 -23 11 -55 42 -95zM336 547l-5 -3
l-91 169l8 5zM242 -61h6v-99c0 -49 8 -64 53 -64c9 0 21 1 31 2v-6c-10 -1 -22 -2 -31 -2c-51 0 -59 17 -59 70v99z" />
    <glyph glyph-name="uni1F94" unicode="&#x1f94;" horiz-adv-x="487" 
d="M66 0h-6v478h6v-153c25 127 126 158 180 158c148 0 181 -91 181 -202v-281h-6v281c0 107 -31 196 -175 196c-55 0 -180 -34 -180 -219v-258zM189 545l-5 4c31 40 42 72 42 95c0 28 -18 52 -64 66l2 7c54 -17 70 -43 70 -73c0 -26 -13 -57 -45 -99zM254 544l-5 3l88 171
l8 -5zM240 -61h6v-99c0 -49 8 -64 53 -64c9 0 21 1 31 2v-6c-10 -1 -22 -2 -31 -2c-51 0 -59 17 -59 70v99z" />
    <glyph glyph-name="uni1F95" unicode="&#x1f95;" horiz-adv-x="487" 
d="M66 0h-6v478h6v-153c25 127 126 158 180 158c148 0 181 -91 181 -202v-281h-6v281c0 107 -31 196 -175 196c-55 0 -180 -34 -180 -219v-258zM225 549l-5 -4c-32 42 -45 73 -45 99c0 30 17 57 70 73l2 -7c-46 -14 -64 -38 -64 -66c0 -23 11 -55 42 -95zM257 544l-5 3
l88 171l8 -5zM246 -61h6v-99c0 -49 8 -64 53 -64c9 0 21 1 31 2v-6c-10 -1 -22 -2 -31 -2c-51 0 -59 17 -59 70v99z" />
    <glyph glyph-name="uni1F96" unicode="&#x1f96;" horiz-adv-x="487" 
d="M66 0h-6v478h6v-153c25 127 126 158 180 158c148 0 181 -91 181 -202v-281h-6v281c0 107 -31 196 -175 196c-55 0 -180 -34 -180 -219v-258zM237 535l-5 4c31 40 42 72 42 95c0 28 -18 52 -64 66l2 7c54 -17 70 -43 70 -73c0 -26 -13 -57 -45 -99zM115 738l-6 2
c17 35 44 51 73 51c18 0 41 -12 65 -23c23 -11 47 -22 64 -22c23 0 44 10 62 42l6 -2c-20 -35 -43 -47 -68 -47c-19 0 -43 11 -66 22c-24 11 -47 23 -63 23c-27 0 -51 -14 -67 -46zM249 -61h6v-99c0 -49 8 -64 53 -64c9 0 21 1 31 2v-6c-10 -1 -22 -2 -31 -2
c-51 0 -59 17 -59 70v99z" />
    <glyph glyph-name="uni1F97" unicode="&#x1f97;" horiz-adv-x="487" 
d="M66 0h-6v478h6v-153c25 127 126 158 180 158c148 0 181 -91 181 -202v-281h-6v281c0 107 -31 196 -175 196c-55 0 -180 -34 -180 -219v-258zM258 538l-5 -4c-32 42 -45 73 -45 99c0 30 16 56 70 73l2 -7c-46 -14 -64 -38 -64 -66c0 -23 11 -55 42 -95zM113 737l-6 2
c17 35 44 51 73 51c18 0 41 -12 65 -23c23 -11 47 -22 64 -22c23 0 44 10 62 42l6 -2c-20 -35 -43 -47 -68 -47c-19 0 -43 11 -66 22c-24 11 -47 23 -63 23c-27 0 -51 -14 -67 -46zM257 -61h6v-99c0 -49 8 -64 53 -64c9 0 21 1 31 2v-6c-10 -1 -22 -2 -31 -2
c-51 0 -59 17 -59 70v99z" />
    <glyph glyph-name="uni1FA0" unicode="&#x1fa0;" horiz-adv-x="761" 
d="M711 236c0 140 -44 246 -189 247v-6c140 0 183 -103 183 -241c0 -104 -22 -232 -166 -232c-81 0 -155 51 -155 131v173h-6v-159c0 -81 -60 -145 -153 -145c-148 0 -169 109 -169 232c0 138 43 241 183 241v6c-144 0 -189 -107 -189 -247c0 -127 21 -238 175 -238
c78 0 136 45 155 112c12 -65 84 -112 156 -112c155 0 175 132 175 238zM376 563l-5 4c31 40 42 72 42 95c0 28 -18 52 -64 66l2 7c54 -17 70 -43 70 -73c0 -26 -13 -57 -45 -99zM386 -61h6v-99c0 -49 8 -64 53 -64c9 0 21 1 31 2v-6c-10 -1 -22 -2 -31 -2
c-51 0 -59 17 -59 70v99z" />
    <glyph glyph-name="uni1FA1" unicode="&#x1fa1;" horiz-adv-x="761" 
d="M711 236c0 140 -44 246 -189 247v-6c140 0 183 -103 183 -241c0 -104 -22 -232 -166 -232c-81 0 -155 51 -155 131v173h-6v-159c0 -81 -60 -145 -153 -145c-148 0 -169 109 -169 232c0 138 43 241 183 241v6c-144 0 -189 -107 -189 -247c0 -127 21 -238 175 -238
c78 0 136 45 155 112c12 -65 84 -112 156 -112c155 0 175 132 175 238zM400 549l-5 -4c-32 42 -45 73 -45 99c0 30 16 56 70 73l2 -7c-46 -14 -64 -38 -64 -66c0 -23 11 -55 42 -95zM385 -61h6v-99c0 -49 8 -64 53 -64c9 0 21 1 31 2v-6c-10 -1 -22 -2 -31 -2
c-51 0 -59 17 -59 70v99z" />
    <glyph glyph-name="uni1FA2" unicode="&#x1fa2;" horiz-adv-x="761" 
d="M711 236c0 140 -44 246 -189 247v-6c140 0 183 -103 183 -241c0 -104 -22 -232 -166 -232c-81 0 -155 51 -155 131v173h-6v-159c0 -81 -60 -145 -153 -145c-148 0 -169 109 -169 232c0 138 43 241 183 241v6c-144 0 -189 -107 -189 -247c0 -127 21 -238 175 -238
c78 0 136 45 155 112c12 -65 84 -112 156 -112c155 0 175 132 175 238zM312 545l-5 4c31 40 42 72 42 95c0 28 -18 52 -64 66l2 7c54 -17 70 -43 70 -73c0 -26 -13 -57 -45 -99zM461 547l-5 -3l-91 169l8 5zM379 -61h6v-99c0 -49 8 -64 53 -64c9 0 21 1 31 2v-6
c-10 -1 -22 -2 -31 -2c-51 0 -59 17 -59 70v99z" />
    <glyph glyph-name="uni1FA3" unicode="&#x1fa3;" horiz-adv-x="761" 
d="M711 236c0 140 -44 246 -189 247v-6c140 0 183 -103 183 -241c0 -104 -22 -232 -166 -232c-81 0 -155 51 -155 131v173h-6v-159c0 -81 -60 -145 -153 -145c-148 0 -169 109 -169 232c0 138 43 241 183 241v6c-144 0 -189 -107 -189 -247c0 -127 21 -238 175 -238
c78 0 136 45 155 112c12 -65 84 -112 156 -112c155 0 175 132 175 238zM340 549l-5 -4c-32 42 -45 73 -45 99c0 30 16 56 70 73l2 -7c-46 -14 -64 -38 -64 -66c0 -23 11 -55 42 -95zM480 547l-5 -3l-91 169l8 5zM383 -61h6v-99c0 -49 8 -64 53 -64c9 0 21 1 31 2v-6
c-10 -1 -22 -2 -31 -2c-51 0 -59 17 -59 70v99z" />
    <glyph glyph-name="uni1FA4" unicode="&#x1fa4;" horiz-adv-x="761" 
d="M711 236c0 140 -44 246 -189 247v-6c140 0 183 -103 183 -241c0 -104 -22 -232 -166 -232c-81 0 -155 51 -155 131v173h-6v-159c0 -81 -60 -145 -153 -145c-148 0 -169 109 -169 232c0 138 43 241 183 241v6c-144 0 -189 -107 -189 -247c0 -127 21 -238 175 -238
c78 0 136 45 155 112c12 -65 84 -112 156 -112c155 0 175 132 175 238zM336 545l-5 4c31 40 42 72 42 95c0 28 -18 52 -64 66l2 7c54 -17 70 -43 70 -73c0 -26 -13 -57 -45 -99zM401 544l-5 3l88 171l8 -5zM382 -61h6v-99c0 -49 8 -64 53 -64c9 0 21 1 31 2v-6
c-10 -1 -22 -2 -31 -2c-51 0 -59 17 -59 70v99z" />
    <glyph glyph-name="uni1FA5" unicode="&#x1fa5;" horiz-adv-x="761" 
d="M711 236c0 140 -44 246 -189 247v-6c140 0 183 -103 183 -241c0 -104 -22 -232 -166 -232c-81 0 -155 51 -155 131v173h-6v-159c0 -81 -60 -145 -153 -145c-148 0 -169 109 -169 232c0 138 43 241 183 241v6c-144 0 -189 -107 -189 -247c0 -127 21 -238 175 -238
c78 0 136 45 155 112c12 -65 84 -112 156 -112c155 0 175 132 175 238zM358 549l-5 -4c-32 42 -45 73 -45 99c0 30 17 57 70 73l2 -7c-46 -14 -64 -38 -64 -66c0 -23 11 -55 42 -95zM390 544l-5 3l88 171l8 -5zM381 -61h6v-99c0 -49 8 -64 53 -64c9 0 21 1 31 2v-6
c-10 -1 -22 -2 -31 -2c-51 0 -59 17 -59 70v99z" />
    <glyph glyph-name="uni1FA6" unicode="&#x1fa6;" horiz-adv-x="761" 
d="M711 236c0 140 -44 246 -189 247v-6c140 0 183 -103 183 -241c0 -104 -22 -232 -166 -232c-81 0 -155 51 -155 131v173h-6v-159c0 -81 -60 -145 -153 -145c-148 0 -169 109 -169 232c0 138 43 241 183 241v6c-144 0 -189 -107 -189 -247c0 -127 21 -238 175 -238
c78 0 136 45 155 112c12 -65 84 -112 156 -112c155 0 175 132 175 238zM373 515l-5 4c31 40 42 72 42 95c0 28 -18 52 -64 66l2 7c54 -17 70 -43 70 -73c0 -26 -13 -57 -45 -99zM251 718l-6 2c17 35 44 51 73 51c18 0 41 -12 65 -23c23 -11 47 -22 64 -22c23 0 44 10 62 42
l6 -2c-20 -35 -43 -47 -68 -47c-19 0 -43 11 -66 22c-24 11 -47 23 -63 23c-27 0 -51 -14 -67 -46zM379 -61h6v-99c0 -49 8 -64 53 -64c9 0 21 1 31 2v-6c-10 -1 -22 -2 -31 -2c-51 0 -59 17 -59 70v99z" />
    <glyph glyph-name="uni1FA7" unicode="&#x1fa7;" horiz-adv-x="761" 
d="M711 236c0 140 -44 246 -189 247v-6c140 0 183 -103 183 -241c0 -104 -22 -232 -166 -232c-81 0 -155 51 -155 131v173h-6v-159c0 -81 -60 -145 -153 -145c-148 0 -169 109 -169 232c0 138 43 241 183 241v6c-144 0 -189 -107 -189 -247c0 -127 21 -238 175 -238
c78 0 136 45 155 112c12 -65 84 -112 156 -112c155 0 175 132 175 238zM405 519l-5 -4c-32 42 -45 73 -45 99c0 30 16 56 70 73l2 -7c-46 -14 -64 -38 -64 -66c0 -23 11 -55 42 -95zM260 718l-6 2c17 35 44 51 73 51c18 0 41 -12 65 -23c23 -11 47 -22 64 -22
c23 0 44 10 62 42l6 -2c-20 -35 -43 -47 -68 -47c-19 0 -43 11 -66 22c-24 11 -47 23 -63 23c-27 0 -51 -14 -67 -46zM383 -61h6v-99c0 -49 8 -64 53 -64c9 0 21 1 31 2v-6c-10 -1 -22 -2 -31 -2c-51 0 -59 17 -59 70v99z" />
    <glyph glyph-name="uni1FB0" unicode="&#x1fb0;" horiz-adv-x="504" 
d="M438 479h6v-479h-6v160c-19 -103 -92 -164 -193 -164c-138 0 -195 91 -195 243c0 144 57 244 203 244c75 0 163 -36 185 -157v153zM253 477c-144 0 -197 -98 -197 -238c0 -145 53 -237 189 -237c95 0 193 58 193 222v35c0 180 -109 218 -185 218zM364 669h6
c-4 -41 -35 -110 -113 -110c-79 0 -109 69 -110 110h6c1 -39 29 -103 104 -103c74 0 103 64 107 103z" />
    <glyph glyph-name="uni1FB1" unicode="&#x1fb1;" horiz-adv-x="504" 
d="M438 479h6v-479h-6v160c-19 -103 -92 -164 -193 -164c-138 0 -195 91 -195 243c0 144 57 244 203 244c75 0 163 -36 185 -157v153zM253 477c-144 0 -197 -98 -197 -238c0 -145 53 -237 189 -237c95 0 193 58 193 222v35c0 180 -109 218 -185 218zM127 592v8h273v-8h-273z
" />
    <glyph glyph-name="uni1FB2" unicode="&#x1fb2;" horiz-adv-x="504" 
d="M438 479h6v-479h-6v160c-19 -103 -92 -164 -193 -164c-138 0 -195 91 -195 243c0 144 57 244 203 244c75 0 163 -36 185 -157v153zM253 477c-144 0 -197 -98 -197 -238c0 -145 53 -237 189 -237c95 0 193 58 193 222v35c0 180 -109 218 -185 218zM280 550l-4 -2l-91 180
l8 4zM262 -61h6v-99c0 -49 8 -64 53 -64c9 0 21 1 31 2v-6c-10 -1 -22 -2 -31 -2c-51 0 -59 17 -59 70v99z" />
    <glyph glyph-name="uni1FB3" unicode="&#x1fb3;" horiz-adv-x="504" 
d="M438 479h6v-479h-6v160c-19 -103 -92 -164 -193 -164c-138 0 -195 91 -195 243c0 144 57 244 203 244c75 0 163 -36 185 -157v153zM253 477c-144 0 -197 -98 -197 -238c0 -145 53 -237 189 -237c95 0 193 58 193 222v35c0 180 -109 218 -185 218zM262 -61h6v-99
c0 -49 8 -64 53 -64c9 0 21 1 31 2v-6c-10 -1 -22 -2 -31 -2c-51 0 -59 17 -59 70v99z" />
    <glyph glyph-name="uni1FB4" unicode="&#x1fb4;" horiz-adv-x="504" 
d="M438 479h6v-479h-6v160c-19 -103 -92 -164 -193 -164c-138 0 -195 91 -195 243c0 144 57 244 203 244c75 0 163 -36 185 -157v153zM253 477c-144 0 -197 -98 -197 -238c0 -145 53 -237 189 -237c95 0 193 58 193 222v35c0 180 -109 218 -185 218zM257 548l-4 2l87 182
l8 -4zM262 -61h6v-99c0 -49 8 -64 53 -64c9 0 21 1 31 2v-6c-10 -1 -22 -2 -31 -2c-51 0 -59 17 -59 70v99z" />
    <glyph glyph-name="uni1FB6" unicode="&#x1fb6;" horiz-adv-x="504" 
d="M438 479h6v-479h-6v160c-19 -103 -92 -164 -193 -164c-138 0 -195 91 -195 243c0 144 57 244 203 244c75 0 163 -36 185 -157v153zM253 477c-144 0 -197 -98 -197 -238c0 -145 53 -237 189 -237c95 0 193 58 193 222v35c0 180 -109 218 -185 218zM125 591l-6 2
c17 35 44 50 73 50c18 0 41 -11 65 -22c23 -11 47 -22 64 -22c23 0 44 10 62 42l6 -2c-20 -35 -43 -46 -68 -46c-19 0 -43 11 -66 22c-24 11 -47 22 -63 22c-27 0 -51 -14 -67 -46z" />
    <glyph glyph-name="uni1FB7" unicode="&#x1fb7;" horiz-adv-x="504" 
d="M438 479h6v-479h-6v160c-19 -103 -92 -164 -193 -164c-138 0 -195 91 -195 243c0 144 57 244 203 244c75 0 163 -36 185 -157v153zM253 477c-144 0 -197 -98 -197 -238c0 -145 53 -237 189 -237c95 0 193 58 193 222v35c0 180 -109 218 -185 218zM262 -61h6v-99
c0 -49 8 -64 53 -64c9 0 21 1 31 2v-6c-10 -1 -22 -2 -31 -2c-51 0 -59 17 -59 70v99zM128 587l-6 2c17 35 44 50 73 50c18 0 41 -11 65 -22c23 -11 47 -22 64 -22c23 0 44 10 62 42l6 -2c-20 -35 -43 -46 -68 -46c-19 0 -43 11 -66 22c-24 11 -47 22 -63 22
c-27 0 -51 -14 -67 -46z" />
    <glyph glyph-name="uni1FB8" unicode="&#x1fb8;" horiz-adv-x="547" 
d="M533 0h-7l-73 190h-360l-72 -190h-6l253 673h8zM272 667l-177 -471h356zM378 846h6c-4 -41 -35 -110 -113 -110c-79 0 -109 69 -110 110h6c1 -39 29 -103 104 -103c74 0 103 64 107 103z" />
    <glyph glyph-name="uni1FB9" unicode="&#x1fb9;" horiz-adv-x="547" 
d="M533 0h-7l-73 190h-360l-72 -190h-6l253 673h8zM272 667l-177 -471h356zM134 774v8h273v-8h-273z" />
    <glyph glyph-name="uni1FBA" unicode="&#x1fba;" horiz-adv-x="547" 
d="M533 0h-7l-73 190h-360l-72 -190h-6l253 673h8zM272 667l-177 -471h356zM79 512l-4 -2l-91 180l8 4z" />
    <glyph glyph-name="uni1FBB" unicode="&#x1fbb;" horiz-adv-x="547" 
d="M533 0h-7l-73 190h-360l-72 -190h-6l253 673h8zM272 667l-177 -471h356zM-6 506l-4 2l87 182l8 -4z" />
    <glyph glyph-name="uni1FC2" unicode="&#x1fc2;" horiz-adv-x="487" 
d="M66 0h-6v478h6v-153c25 127 126 158 180 158c148 0 181 -91 181 -202v-281h-6v281c0 107 -31 196 -175 196c-55 0 -180 -34 -180 -219v-258zM264 550l-4 -2l-91 180l8 4zM247 -61h6v-99c0 -49 8 -64 53 -64c9 0 21 1 31 2v-6c-10 -1 -22 -2 -31 -2c-51 0 -59 17 -59 70
v99z" />
    <glyph glyph-name="uni1FC3" unicode="&#x1fc3;" horiz-adv-x="487" 
d="M66 0h-6v478h6v-153c25 127 126 158 180 158c148 0 181 -91 181 -202v-281h-6v281c0 107 -31 196 -175 196c-55 0 -180 -34 -180 -219v-258zM247 -61h6v-99c0 -49 8 -64 53 -64c9 0 21 1 31 2v-6c-10 -1 -22 -2 -31 -2c-51 0 -59 17 -59 70v99z" />
    <glyph glyph-name="uni1FC4" unicode="&#x1fc4;" horiz-adv-x="487" 
d="M66 0h-6v478h6v-153c25 127 126 158 180 158c148 0 181 -91 181 -202v-281h-6v281c0 107 -31 196 -175 196c-55 0 -180 -34 -180 -219v-258zM240 557l-4 2l87 182l8 -4zM250 -61h6v-99c0 -49 8 -64 53 -64c9 0 21 1 31 2v-6c-10 -1 -22 -2 -31 -2c-51 0 -59 17 -59 70v99
z" />
    <glyph glyph-name="uni1FC6" unicode="&#x1fc6;" horiz-adv-x="524" 
d="M138 587l-6 2c17 35 44 50 73 50c18 0 41 -11 65 -22c23 -11 47 -22 64 -22c23 0 44 10 62 42l6 -2c-20 -35 -43 -46 -68 -46c-19 0 -43 11 -66 22c-24 11 -47 22 -63 22c-27 0 -51 -14 -67 -46zM87 0h-6v478h6v-153c25 127 126 158 180 158c148 0 181 -91 181 -202v-281
h-6v281c0 107 -31 196 -175 196c-55 0 -180 -34 -180 -219v-258z" />
    <glyph glyph-name="uni1FC7" unicode="&#x1fc7;" horiz-adv-x="524" 
d="M138 587l-6 2c17 35 44 50 73 50c18 0 41 -11 65 -22c23 -11 47 -22 64 -22c23 0 44 10 62 42l6 -2c-20 -35 -43 -46 -68 -46c-19 0 -43 11 -66 22c-24 11 -47 22 -63 22c-27 0 -51 -14 -67 -46zM87 0h-6v478h6v-153c25 127 126 158 180 158c148 0 181 -91 181 -202v-281
h-6v281c0 107 -31 196 -175 196c-55 0 -180 -34 -180 -219v-258zM267 -61h6v-99c0 -49 8 -64 53 -64c9 0 21 1 31 2v-6c-10 -1 -22 -2 -31 -2c-51 0 -59 17 -59 70v99z" />
    <glyph glyph-name="uni1FC8" unicode="&#x1fc8;" horiz-adv-x="520" 
d="M442 349v-6h-366v-337h416v-6h-422v673h398v-6h-392v-318h366zM-5 495l-4 -2l-91 180l8 4z" />
    <glyph glyph-name="uni1FC9" unicode="&#x1fc9;" horiz-adv-x="520" 
d="M442 349v-6h-366v-337h416v-6h-422v673h398v-6h-392v-318h366zM-101 493l-4 2l87 182l8 -4z" />
    <glyph glyph-name="uni1FCA" unicode="&#x1fca;" horiz-adv-x="632" 
d="M70 673h6v-324h480v324h6v-673h-6v343h-480v-343h-6v673zM-6 495l-4 -2l-91 180l8 4z" />
    <glyph glyph-name="uni1FCB" unicode="&#x1fcb;" horiz-adv-x="632" 
d="M70 673h6v-324h480v324h6v-673h-6v343h-480v-343h-6v673zM-102 492l-4 2l87 182l8 -4z" />
    <glyph glyph-name="uni1FD0" unicode="&#x1fd0;" horiz-adv-x="167" 
d="M81 478h6v-478h-6v478zM190 669h6c-4 -41 -35 -110 -113 -110c-79 0 -109 69 -110 110h6c1 -39 29 -103 104 -103c74 0 103 64 107 103z" />
    <glyph glyph-name="uni1FD1" unicode="&#x1fd1;" horiz-adv-x="167" 
d="M81 478h6v-478h-6v478zM-53 582v8h273v-8h-273z" />
    <glyph glyph-name="uni1FD6" unicode="&#x1fd6;" horiz-adv-x="167" 
d="M81 478h6v-478h-6v478zM-44 587l-6 2c17 35 44 50 73 50c18 0 41 -11 65 -22c23 -11 47 -22 64 -22c23 0 44 10 62 42l6 -2c-20 -35 -43 -46 -68 -46c-19 0 -43 11 -66 22c-24 11 -47 22 -63 22c-27 0 -51 -14 -67 -46z" />
    <glyph glyph-name="uni1FD8" unicode="&#x1fd8;" horiz-adv-x="186" 
d="M90 673h6v-673h-6v673zM199 846h6c-4 -41 -35 -110 -113 -110c-79 0 -109 69 -110 110h6c1 -39 29 -103 104 -103c74 0 103 64 107 103z" />
    <glyph glyph-name="uni1FD9" unicode="&#x1fd9;" horiz-adv-x="186" 
d="M90 673h6v-673h-6v673zM-43 774v8h273v-8h-273z" />
    <glyph glyph-name="uni1FDA" unicode="&#x1fda;" horiz-adv-x="186" 
d="M90 673h6v-673h-6v673zM-8 495l-4 -2l-91 180l8 4z" />
    <glyph glyph-name="uni1FDB" unicode="&#x1fdb;" horiz-adv-x="186" 
d="M90 673h6v-673h-6v673zM-90 497l-4 2l87 182l8 -4z" />
    <glyph glyph-name="uni1FE0" unicode="&#x1fe0;" horiz-adv-x="505" 
d="M60 478h6v-293c0 -121 63 -183 182 -183c118 0 191 60 191 183v293h6v-293c0 -127 -75 -189 -197 -189c-123 0 -188 64 -188 189v293zM358 669h6c-4 -41 -35 -110 -113 -110c-79 0 -109 69 -110 110h6c1 -39 29 -103 104 -103c74 0 103 64 107 103z" />
    <glyph glyph-name="uni1FE1" unicode="&#x1fe1;" horiz-adv-x="505" 
d="M60 478h6v-293c0 -121 63 -183 182 -183c118 0 191 60 191 183v293h6v-293c0 -127 -75 -189 -197 -189c-123 0 -188 64 -188 189v293zM113 582v8h273v-8h-273z" />
    <glyph glyph-name="uni1FE4" unicode="&#x1fe4;" horiz-adv-x="510" 
d="M262 483c137 0 198 -96 198 -240c0 -139 -53 -247 -205 -247c-102 0 -172 55 -189 163v-364h-6v462c0 126 58 226 202 226zM66 247v-23c0 -160 84 -222 189 -222c149 0 199 108 199 241c0 142 -61 234 -192 234c-108 0 -196 -59 -196 -230zM240 545l-5 4
c31 40 42 72 42 95c0 28 -18 52 -64 66l2 7c54 -17 70 -43 70 -73c0 -26 -13 -57 -45 -99z" />
    <glyph glyph-name="uni1FE5" unicode="&#x1fe5;" horiz-adv-x="510" 
d="M262 483c137 0 198 -96 198 -240c0 -139 -53 -247 -205 -247c-102 0 -172 55 -189 163v-364h-6v462c0 126 58 226 202 226zM66 247v-23c0 -160 84 -222 189 -222c149 0 199 108 199 241c0 142 -61 234 -192 234c-108 0 -196 -59 -196 -230zM270 549l-5 -4
c-32 42 -45 73 -45 99c0 30 16 56 70 73l2 -7c-46 -14 -64 -38 -64 -66c0 -23 11 -55 42 -95z" />
    <glyph glyph-name="uni1FE6" unicode="&#x1fe6;" horiz-adv-x="505" 
d="M60 478h6v-293c0 -121 63 -183 182 -183c118 0 191 60 191 183v293h6v-293c0 -127 -75 -189 -197 -189c-123 0 -188 64 -188 189v293zM120 587l-6 2c17 35 44 50 73 50c18 0 41 -11 65 -22c23 -11 47 -22 64 -22c23 0 44 10 62 42l6 -2c-20 -35 -43 -46 -68 -46
c-19 0 -43 11 -66 22c-24 11 -47 22 -63 22c-27 0 -51 -14 -67 -46z" />
    <glyph glyph-name="uni1FE7" unicode="&#x1fe7;" horiz-adv-x="505" 
d="M60 478h6v-293c0 -121 63 -183 182 -183c118 0 191 60 191 183v293h6v-293c0 -127 -75 -189 -197 -189c-123 0 -188 64 -188 189v293zM144 662l-6 2c17 35 34 50 63 50c41 0 68 -44 109 -44c23 0 35 9 52 42l6 -2c-17 -36 -33 -46 -58 -46c-43 0 -73 44 -109 44
c-27 0 -41 -14 -57 -46zM171 598c0 4 4 9 10 9s9 -5 9 -9c0 -6 -4 -9 -9 -9s-10 3 -10 9zM318 598c0 4 3 9 10 9c5 0 8 -5 8 -9c0 -6 -4 -9 -8 -9c-6 0 -10 3 -10 9z" />
    <glyph glyph-name="uni1FE8" unicode="&#x1fe8;" horiz-adv-x="485" 
d="M470 673h7l-235 -386v-287h-6v287l-228 386h7l224 -379zM347 846h6c-4 -41 -35 -110 -113 -110c-79 0 -109 69 -110 110h6c1 -39 29 -103 104 -103c74 0 103 64 107 103z" />
    <glyph glyph-name="uni1FE9" unicode="&#x1fe9;" horiz-adv-x="485" 
d="M470 673h7l-235 -386v-287h-6v287l-228 386h7l224 -379zM100 774v8h273v-8h-273z" />
    <glyph glyph-name="uni1FEA" unicode="&#x1fea;" horiz-adv-x="485" 
d="M470 673h7l-235 -386v-287h-6v287l-228 386h7l224 -379zM-49 496l-4 -2l-91 180l8 4z" />
    <glyph glyph-name="uni1FEB" unicode="&#x1feb;" horiz-adv-x="485" 
d="M470 673h7l-235 -386v-287h-6v287l-228 386h7l224 -379zM-135 493l-4 2l87 182l8 -4z" />
    <glyph glyph-name="uni1FEC" unicode="&#x1fec;" horiz-adv-x="547" 
d="M70 673h238c137 0 214 -91 214 -208c0 -87 -43 -201 -214 -201h-232v-264h-6v673zM308 667h-232v-397h232c167 0 208 110 208 195c0 113 -75 202 -208 202zM-78 490l-5 4c31 40 42 72 42 95c0 28 -18 52 -64 66l2 7c54 -17 70 -43 70 -73c0 -26 -13 -57 -45 -99z" />
    <glyph glyph-name="uni1FF2" unicode="&#x1ff2;" horiz-adv-x="761" 
d="M711 236c0 140 -44 246 -189 247v-6c140 0 183 -103 183 -241c0 -104 -22 -232 -166 -232c-81 0 -155 51 -155 131v173h-6v-159c0 -81 -60 -145 -153 -145c-148 0 -169 109 -169 232c0 138 43 241 183 241v6c-144 0 -189 -107 -189 -247c0 -127 21 -238 175 -238
c78 0 136 45 155 112c12 -65 84 -112 156 -112c155 0 175 132 175 238zM387 550l-4 -2l-91 180l8 4zM376 -61h6v-99c0 -49 8 -64 53 -64c9 0 21 1 31 2v-6c-10 -1 -22 -2 -31 -2c-51 0 -59 17 -59 70v99z" />
    <glyph glyph-name="uni1FF3" unicode="&#x1ff3;" horiz-adv-x="761" 
d="M711 236c0 -106 -20 -238 -175 -238c-72 0 -144 47 -156 112c-19 -67 -77 -112 -155 -112c-154 0 -175 111 -175 238c0 140 45 247 189 247v-6c-140 0 -183 -103 -183 -241c0 -123 21 -232 169 -232c93 0 153 64 153 145v159h6v-173c0 -80 74 -131 155 -131
c144 0 166 128 166 232c0 138 -43 241 -183 241v6c145 -1 189 -107 189 -247zM381 -61h6v-99c0 -49 8 -64 53 -64c9 0 21 1 31 2v-6c-10 -1 -22 -2 -31 -2c-51 0 -59 17 -59 70v99z" />
    <glyph glyph-name="uni1FF4" unicode="&#x1ff4;" horiz-adv-x="761" 
d="M711 236c0 140 -44 246 -189 247v-6c140 0 183 -103 183 -241c0 -104 -22 -232 -166 -232c-81 0 -155 51 -155 131v173h-6v-159c0 -81 -60 -145 -153 -145c-148 0 -169 109 -169 232c0 138 43 241 183 241v6c-144 0 -189 -107 -189 -247c0 -127 21 -238 175 -238
c78 0 136 45 155 112c12 -65 84 -112 156 -112c155 0 175 132 175 238zM388 548l-4 2l87 182l8 -4zM378 -61h6v-99c0 -49 8 -64 53 -64c9 0 21 1 31 2v-6c-10 -1 -22 -2 -31 -2c-51 0 -59 17 -59 70v99z" />
    <glyph glyph-name="uni1FF6" unicode="&#x1ff6;" horiz-adv-x="761" 
d="M711 236c0 140 -44 246 -189 247v-6c140 0 183 -103 183 -241c0 -104 -22 -232 -166 -232c-81 0 -155 51 -155 131v173h-6v-159c0 -81 -60 -145 -153 -145c-148 0 -169 109 -169 232c0 138 43 241 183 241v6c-144 0 -189 -107 -189 -247c0 -127 21 -238 175 -238
c78 0 136 45 155 112c12 -65 84 -112 156 -112c155 0 175 132 175 238zM254 587l-6 2c17 35 44 50 73 50c18 0 41 -11 65 -22c23 -11 47 -22 64 -22c23 0 44 10 62 42l6 -2c-20 -35 -43 -46 -68 -46c-19 0 -43 11 -66 22c-24 11 -47 22 -63 22c-27 0 -51 -14 -67 -46z" />
    <glyph glyph-name="uni1FF7" unicode="&#x1ff7;" horiz-adv-x="761" 
d="M711 236c0 140 -44 246 -189 247v-6c140 0 183 -103 183 -241c0 -104 -22 -232 -166 -232c-81 0 -155 51 -155 131v173h-6v-159c0 -81 -60 -145 -153 -145c-148 0 -169 109 -169 232c0 138 43 241 183 241v6c-144 0 -189 -107 -189 -247c0 -127 21 -238 175 -238
c78 0 136 45 155 112c12 -65 84 -112 156 -112c155 0 175 132 175 238zM375 -61h6v-99c0 -49 8 -64 53 -64c9 0 21 1 31 2v-6c-10 -1 -22 -2 -31 -2c-51 0 -59 17 -59 70v99zM259 587l-6 2c17 35 44 50 73 50c18 0 41 -11 65 -22c23 -11 47 -22 64 -22c23 0 44 10 62 42
l6 -2c-20 -35 -43 -46 -68 -46c-19 0 -43 11 -66 22c-24 11 -47 22 -63 22c-27 0 -51 -14 -67 -46z" />
    <glyph glyph-name="uni1FF8" unicode="&#x1ff8;" horiz-adv-x="655" 
d="M331 673c-193 0 -265 -150 -265 -339c0 -225 81 -332 256 -332c163 0 267 112 267 333c0 194 -67 338 -258 338zM331 679c195 0 264 -146 264 -344c0 -226 -106 -339 -273 -339c-179 0 -262 109 -262 338c0 193 74 345 271 345zM-5 500l-4 -2l-91 180l8 4z" />
    <glyph glyph-name="uni1FF9" unicode="&#x1ff9;" horiz-adv-x="655" 
d="M331 673c-193 0 -265 -150 -265 -339c0 -225 81 -332 256 -332c163 0 267 112 267 333c0 194 -67 338 -258 338zM331 679c195 0 264 -146 264 -344c0 -226 -106 -339 -273 -339c-179 0 -262 109 -262 338c0 193 74 345 271 345zM-99 498l-4 2l87 182l8 -4z" />
    <glyph glyph-name="uni1FFA" unicode="&#x1ffa;" horiz-adv-x="672" 
d="M339 681c211 0 282 -175 282 -349c0 -127 -32 -279 -156 -326h176v-6h-185v9c125 43 159 191 159 323c0 170 -69 343 -276 343s-276 -173 -276 -343c0 -138 30 -278 159 -323v-9h-187v6h178c-128 48 -156 188 -156 326c0 174 71 349 282 349zM6 500l-4 -2l-91 180l8 4z
" />
    <glyph glyph-name="uni1FFB" unicode="&#x1ffb;" horiz-adv-x="672" 
d="M339 681c211 0 282 -175 282 -349c0 -127 -32 -279 -156 -326h176v-6h-185v9c125 43 159 191 159 323c0 170 -69 343 -276 343s-276 -173 -276 -343c0 -138 30 -278 159 -323v-9h-187v6h178c-128 48 -156 188 -156 326c0 174 71 349 282 349zM-74 498l-4 2l87 182l8 -4z
" />
    <glyph glyph-name="uniE24C" unicode="&#xe24c;" horiz-adv-x="547" 
d="M533 0h-7l-73 190h-360l-72 -190h-6l253 673h8zM272 667l-177 -471h356zM11 495l-5 4c31 40 42 72 42 95c0 28 -18 52 -64 66l2 7c54 -17 70 -43 70 -73c0 -26 -13 -57 -45 -99zM272 -61h6v-99c0 -49 8 -64 53 -64c9 0 21 1 31 2v-6c-10 -1 -22 -2 -31 -2
c-51 0 -59 17 -59 70v99z" />
    <glyph glyph-name="uniE24D" unicode="&#xe24d;" horiz-adv-x="547" 
d="M533 0h-7l-73 190h-360l-72 -190h-6l253 673h8zM272 667l-177 -471h356zM47 499l-5 -4c-32 42 -45 73 -45 99c0 30 16 56 70 73l2 -7c-46 -14 -64 -38 -64 -66c0 -23 11 -55 42 -95zM283 -61h6v-99c0 -49 8 -64 53 -64c9 0 21 1 31 2v-6c-10 -1 -22 -2 -31 -2
c-51 0 -59 17 -59 70v99z" />
    <glyph glyph-name="uniE24E" unicode="&#xe24e;" horiz-adv-x="547" 
d="M533 0h-7l-73 190h-360l-72 -190h-6l253 673h8zM272 667l-177 -471h356zM-68 495l-5 4c31 40 42 72 42 95c0 28 -18 52 -64 66l2 7c54 -17 70 -43 70 -73c0 -26 -13 -57 -45 -99zM81 497l-5 -3l-91 169l8 5zM280 -61h6v-99c0 -49 8 -64 53 -64c9 0 21 1 31 2v-6
c-10 -1 -22 -2 -31 -2c-51 0 -59 17 -59 70v99z" />
    <glyph glyph-name="uniE24F" unicode="&#xe24f;" horiz-adv-x="547" 
d="M533 0h-7l-73 190h-360l-72 -190h-6l253 673h8zM272 667l-177 -471h356zM-54 499l-5 -4c-32 42 -45 73 -45 99c0 30 16 56 70 73l2 -7c-46 -14 -64 -38 -64 -66c0 -23 11 -55 42 -95zM86 497l-5 -3l-91 169l8 5zM271 -61h6v-99c0 -49 8 -64 53 -64c9 0 21 1 31 2v-6
c-10 -1 -22 -2 -31 -2c-51 0 -59 17 -59 70v99z" />
    <glyph glyph-name="uniE250" unicode="&#xe250;" horiz-adv-x="547" 
d="M533 0h-7l-73 190h-360l-72 -190h-6l253 673h8zM272 667l-177 -471h356zM-64 495l-5 4c31 40 42 72 42 95c0 28 -18 52 -64 66l2 7c54 -17 70 -43 70 -73c0 -26 -13 -57 -45 -99zM1 494l-5 3l88 171l8 -5zM275 -61h6v-99c0 -49 8 -64 53 -64c9 0 21 1 31 2v-6
c-10 -1 -22 -2 -31 -2c-51 0 -59 17 -59 70v99z" />
    <glyph glyph-name="uniE251" unicode="&#xe251;" horiz-adv-x="547" 
d="M533 0h-7l-73 190h-360l-72 -190h-6l253 673h8zM272 667l-177 -471h356zM-29 499l-5 -4c-32 42 -45 73 -45 99c0 30 17 57 70 73l2 -7c-46 -14 -64 -38 -64 -66c0 -23 11 -55 42 -95zM3 494l-5 3l88 171l8 -5zM271 -61h6v-99c0 -49 8 -64 53 -64c9 0 21 1 31 2v-6
c-10 -1 -22 -2 -31 -2c-51 0 -59 17 -59 70v99z" />
    <glyph glyph-name="uniE252" unicode="&#xe252;" horiz-adv-x="547" 
d="M533 0h-7l-73 190h-360l-72 -190h-6l253 673h8zM272 667l-177 -471h356zM-13 426l-5 4c31 40 42 72 42 95c0 28 -18 52 -64 66l2 7c54 -17 70 -43 70 -73c0 -26 -13 -57 -45 -99zM-135 629l-6 2c17 35 44 51 73 51c18 0 41 -12 65 -23c23 -11 47 -22 64 -22
c23 0 44 10 62 42l6 -2c-20 -35 -43 -47 -68 -47c-19 0 -43 11 -66 22c-24 11 -47 23 -63 23c-27 0 -51 -14 -67 -46zM278 -61h6v-99c0 -49 8 -64 53 -64c9 0 21 1 31 2v-6c-10 -1 -22 -2 -31 -2c-51 0 -59 17 -59 70v99z" />
    <glyph glyph-name="uniE253" unicode="&#xe253;" horiz-adv-x="547" 
d="M533 0h-7l-73 190h-360l-72 -190h-6l253 673h8zM272 667l-177 -471h356zM9 428l-5 -4c-32 42 -45 73 -45 99c0 30 16 56 70 73l2 -7c-46 -14 -64 -38 -64 -66c0 -23 11 -55 42 -95zM-136 627l-6 2c17 35 44 51 73 51c18 0 41 -12 65 -23c23 -11 47 -22 64 -22
c23 0 44 10 62 42l6 -2c-20 -35 -43 -47 -68 -47c-19 0 -43 11 -66 22c-24 11 -47 23 -63 23c-27 0 -51 -14 -67 -46zM278 -61h6v-99c0 -49 8 -64 53 -64c9 0 21 1 31 2v-6c-10 -1 -22 -2 -31 -2c-51 0 -59 17 -59 70v99z" />
    <glyph glyph-name="uniE254" unicode="&#xe254;" horiz-adv-x="632" 
d="M70 673h6v-324h480v324h6v-673h-6v343h-480v-343h-6v673zM-78 495l-5 4c31 40 42 72 42 95c0 28 -18 52 -64 66l2 7c54 -17 70 -43 70 -73c0 -26 -13 -57 -45 -99zM309 -61h6v-99c0 -49 8 -64 53 -64c9 0 21 1 31 2v-6c-10 -1 -22 -2 -31 -2c-51 0 -59 17 -59 70v99z" />
    <glyph glyph-name="uniE255" unicode="&#xe255;" horiz-adv-x="632" 
d="M70 673h6v-324h480v324h6v-673h-6v343h-480v-343h-6v673zM-50 499l-5 -4c-32 42 -45 73 -45 99c0 30 16 56 70 73l2 -7c-46 -14 -64 -38 -64 -66c0 -23 11 -55 42 -95zM309 -61h6v-99c0 -49 8 -64 53 -64c9 0 21 1 31 2v-6c-10 -1 -22 -2 -31 -2c-51 0 -59 17 -59 70v99z
" />
    <glyph glyph-name="uniE256" unicode="&#xe256;" horiz-adv-x="632" 
d="M70 673h6v-324h480v324h6v-673h-6v343h-480v-343h-6v673zM-171 495l-5 4c31 40 42 72 42 95c0 28 -18 52 -64 66l2 7c54 -17 70 -43 70 -73c0 -26 -13 -57 -45 -99zM-22 497l-5 -3l-91 169l8 5zM309 -61h6v-99c0 -49 8 -64 53 -64c9 0 21 1 31 2v-6c-10 -1 -22 -2 -31 -2
c-51 0 -59 17 -59 70v99z" />
    <glyph glyph-name="uniE257" unicode="&#xe257;" horiz-adv-x="632" 
d="M70 673h6v-324h480v324h6v-673h-6v343h-480v-343h-6v673zM-151 499l-5 -4c-32 42 -45 73 -45 99c0 30 16 56 70 73l2 -7c-46 -14 -64 -38 -64 -66c0 -23 11 -55 42 -95zM-11 497l-5 -3l-91 169l8 5zM309 -61h6v-99c0 -49 8 -64 53 -64c9 0 21 1 31 2v-6
c-10 -1 -22 -2 -31 -2c-51 0 -59 17 -59 70v99z" />
    <glyph glyph-name="uniE258" unicode="&#xe258;" horiz-adv-x="632" 
d="M70 673h6v-324h480v324h6v-673h-6v343h-480v-343h-6v673zM-169 495l-5 4c31 40 42 72 42 95c0 28 -18 52 -64 66l2 7c54 -17 70 -43 70 -73c0 -26 -13 -57 -45 -99zM-104 494l-5 3l88 171l8 -5zM309 -61h6v-99c0 -49 8 -64 53 -64c9 0 21 1 31 2v-6c-10 -1 -22 -2 -31 -2
c-51 0 -59 17 -59 70v99z" />
    <glyph glyph-name="uniE259" unicode="&#xe259;" horiz-adv-x="632" 
d="M70 673h6v-324h480v324h6v-673h-6v343h-480v-343h-6v673zM-144 499l-5 -4c-32 42 -45 73 -45 99c0 30 17 57 70 73l2 -7c-46 -14 -64 -38 -64 -66c0 -23 11 -55 42 -95zM-112 494l-5 3l88 171l8 -5zM309 -61h6v-99c0 -49 8 -64 53 -64c9 0 21 1 31 2v-6
c-10 -1 -22 -2 -31 -2c-51 0 -59 17 -59 70v99z" />
    <glyph glyph-name="uniE25A" unicode="&#xe25a;" horiz-adv-x="632" 
d="M70 673h6v-324h480v324h6v-673h-6v343h-480v-343h-6v673zM-142 426l-5 4c31 40 42 72 42 95c0 28 -18 52 -64 66l2 7c54 -17 70 -43 70 -73c0 -26 -13 -57 -45 -99zM-264 629l-6 2c17 35 44 51 73 51c18 0 41 -12 65 -23c23 -11 47 -22 64 -22c23 0 44 10 62 42l6 -2
c-20 -35 -43 -47 -68 -47c-19 0 -43 11 -66 22c-24 11 -47 23 -63 23c-27 0 -51 -14 -67 -46zM309 -61h6v-99c0 -49 8 -64 53 -64c9 0 21 1 31 2v-6c-10 -1 -22 -2 -31 -2c-51 0 -59 17 -59 70v99z" />
    <glyph glyph-name="uniE25B" unicode="&#xe25b;" horiz-adv-x="632" 
d="M70 673h6v-324h480v324h6v-673h-6v343h-480v-343h-6v673zM-131 426l-5 -4c-32 42 -45 73 -45 99c0 30 16 56 70 73l2 -7c-46 -14 -64 -38 -64 -66c0 -23 11 -55 42 -95zM-276 625l-6 2c17 35 44 51 73 51c18 0 41 -12 65 -23c23 -11 47 -22 64 -22c23 0 44 10 62 42l6 -2
c-20 -35 -43 -47 -68 -47c-19 0 -43 11 -66 22c-24 11 -47 23 -63 23c-27 0 -51 -14 -67 -46zM309 -61h6v-99c0 -49 8 -64 53 -64c9 0 21 1 31 2v-6c-10 -1 -22 -2 -31 -2c-51 0 -59 17 -59 70v99z" />
    <glyph glyph-name="uniE25C" unicode="&#xe25c;" horiz-adv-x="672" 
d="M339 681c211 0 282 -175 282 -349c0 -127 -32 -279 -156 -326h176v-6h-185v9c125 43 159 191 159 323c0 170 -69 343 -276 343s-276 -173 -276 -343c0 -138 30 -278 159 -323v-9h-187v6h178c-128 48 -156 188 -156 326c0 174 71 349 282 349zM-59 495l-5 4
c31 40 42 72 42 95c0 28 -18 52 -64 66l2 7c54 -17 70 -43 70 -73c0 -26 -13 -57 -45 -99zM330 -61h6v-99c0 -49 8 -64 53 -64c9 0 21 1 31 2v-6c-10 -1 -22 -2 -31 -2c-51 0 -59 17 -59 70v99z" />
    <glyph glyph-name="uniE25D" unicode="&#xe25d;" horiz-adv-x="672" 
d="M339 681c211 0 282 -175 282 -349c0 -127 -32 -279 -156 -326h176v-6h-185v9c125 43 159 191 159 323c0 170 -69 343 -276 343s-276 -173 -276 -343c0 -138 30 -278 159 -323v-9h-187v6h178c-128 48 -156 188 -156 326c0 174 71 349 282 349zM-30 499l-5 -4
c-32 42 -45 73 -45 99c0 30 16 56 70 73l2 -7c-46 -14 -64 -38 -64 -66c0 -23 11 -55 42 -95zM331 -61h6v-99c0 -49 8 -64 53 -64c9 0 21 1 31 2v-6c-10 -1 -22 -2 -31 -2c-51 0 -59 17 -59 70v99z" />
    <glyph glyph-name="uniE25E" unicode="&#xe25e;" horiz-adv-x="672" 
d="M339 681c211 0 282 -175 282 -349c0 -127 -32 -279 -156 -326h176v-6h-185v9c125 43 159 191 159 323c0 170 -69 343 -276 343s-276 -173 -276 -343c0 -138 30 -278 159 -323v-9h-187v6h178c-128 48 -156 188 -156 326c0 174 71 349 282 349zM-156 495l-5 4
c31 40 42 72 42 95c0 28 -18 52 -64 66l2 7c54 -17 70 -43 70 -73c0 -26 -13 -57 -45 -99zM-7 497l-5 -3l-91 169l8 5zM332 -61h6v-99c0 -49 8 -64 53 -64c9 0 21 1 31 2v-6c-10 -1 -22 -2 -31 -2c-51 0 -59 17 -59 70v99z" />
    <glyph glyph-name="uniE25F" unicode="&#xe25f;" horiz-adv-x="672" 
d="M339 681c211 0 282 -175 282 -349c0 -127 -32 -279 -156 -326h176v-6h-185v9c125 43 159 191 159 323c0 170 -69 343 -276 343s-276 -173 -276 -343c0 -138 30 -278 159 -323v-9h-187v6h178c-128 48 -156 188 -156 326c0 174 71 349 282 349zM-141 499l-5 -4
c-32 42 -45 73 -45 99c0 30 16 56 70 73l2 -7c-46 -14 -64 -38 -64 -66c0 -23 11 -55 42 -95zM-1 497l-5 -3l-91 169l8 5zM334 -61h6v-99c0 -49 8 -64 53 -64c9 0 21 1 31 2v-6c-10 -1 -22 -2 -31 -2c-51 0 -59 17 -59 70v99z" />
    <glyph glyph-name="uniE260" unicode="&#xe260;" horiz-adv-x="672" 
d="M339 681c211 0 282 -175 282 -349c0 -127 -32 -279 -156 -326h176v-6h-185v9c125 43 159 191 159 323c0 170 -69 343 -276 343s-276 -173 -276 -343c0 -138 30 -278 159 -323v-9h-187v6h178c-128 48 -156 188 -156 326c0 174 71 349 282 349zM-150 495l-5 4
c31 40 42 72 42 95c0 28 -18 52 -64 66l2 7c54 -17 70 -43 70 -73c0 -26 -13 -57 -45 -99zM-85 494l-5 3l88 171l8 -5zM334 -61h6v-99c0 -49 8 -64 53 -64c9 0 21 1 31 2v-6c-10 -1 -22 -2 -31 -2c-51 0 -59 17 -59 70v99z" />
    <glyph glyph-name="uniE261" unicode="&#xe261;" horiz-adv-x="672" 
d="M339 681c211 0 282 -175 282 -349c0 -127 -32 -279 -156 -326h176v-6h-185v9c125 43 159 191 159 323c0 170 -69 343 -276 343s-276 -173 -276 -343c0 -138 30 -278 159 -323v-9h-187v6h178c-128 48 -156 188 -156 326c0 174 71 349 282 349zM-121 499l-5 -4
c-32 42 -45 73 -45 99c0 30 17 57 70 73l2 -7c-46 -14 -64 -38 -64 -66c0 -23 11 -55 42 -95zM-89 494l-5 3l88 171l8 -5zM334 -61h6v-99c0 -49 8 -64 53 -64c9 0 21 1 31 2v-6c-10 -1 -22 -2 -31 -2c-51 0 -59 17 -59 70v99z" />
    <glyph glyph-name="uniE262" unicode="&#xe262;" horiz-adv-x="672" 
d="M339 681c211 0 282 -175 282 -349c0 -127 -32 -279 -156 -326h176v-6h-185v9c125 43 159 191 159 323c0 170 -69 343 -276 343s-276 -173 -276 -343c0 -138 30 -278 159 -323v-9h-187v6h178c-128 48 -156 188 -156 326c0 174 71 349 282 349zM-79 425l-5 4
c31 40 42 72 42 95c0 28 -18 52 -64 66l2 7c54 -17 70 -43 70 -73c0 -26 -13 -57 -45 -99zM-201 628l-6 2c17 35 44 51 73 51c18 0 41 -12 65 -23c23 -11 47 -22 64 -22c23 0 44 10 62 42l6 -2c-20 -35 -43 -47 -68 -47c-19 0 -43 11 -66 22c-24 11 -47 23 -63 23
c-27 0 -51 -14 -67 -46zM334 -61h6v-99c0 -49 8 -64 53 -64c9 0 21 1 31 2v-6c-10 -1 -22 -2 -31 -2c-51 0 -59 17 -59 70v99z" />
    <glyph glyph-name="uniE263" unicode="&#xe263;" horiz-adv-x="672" 
d="M339 681c211 0 282 -175 282 -349c0 -127 -32 -279 -156 -326h176v-6h-185v9c125 43 159 191 159 323c0 170 -69 343 -276 343s-276 -173 -276 -343c0 -138 30 -278 159 -323v-9h-187v6h178c-128 48 -156 188 -156 326c0 174 71 349 282 349zM-72 419l-5 -4
c-32 42 -45 73 -45 99c0 30 16 56 70 73l2 -7c-46 -14 -64 -38 -64 -66c0 -23 11 -55 42 -95zM-217 618l-6 2c17 35 44 51 73 51c18 0 41 -12 65 -23c23 -11 47 -22 64 -22c23 0 44 10 62 42l6 -2c-20 -35 -43 -47 -68 -47c-19 0 -43 11 -66 22c-24 11 -47 23 -63 23
c-27 0 -51 -14 -67 -46zM334 -61h6v-99c0 -49 8 -64 53 -64c9 0 21 1 31 2v-6c-10 -1 -22 -2 -31 -2c-51 0 -59 17 -59 70v99z" />
    <glyph glyph-name="uniE264" unicode="&#xe264;" horiz-adv-x="547" 
d="M533 0h-7l-73 190h-360l-72 -190h-6l253 673h8zM272 667l-177 -471h356zM274 -61h6v-99c0 -49 8 -64 53 -64c9 0 21 1 31 2v-6c-10 -1 -22 -2 -31 -2c-51 0 -59 17 -59 70v99z" />
    <glyph glyph-name="uniE265" unicode="&#xe265;" horiz-adv-x="632" 
d="M70 673h6v-324h480v324h6v-673h-6v343h-480v-343h-6v673zM309 -61h6v-99c0 -49 8 -64 53 -64c9 0 21 1 31 2v-6c-10 -1 -22 -2 -31 -2c-51 0 -59 17 -59 70v99z" />
    <glyph glyph-name="uniE266" unicode="&#xe266;" horiz-adv-x="672" 
d="M339 681c211 0 282 -175 282 -349c0 -127 -32 -279 -156 -326h176v-6h-185v9c125 43 159 191 159 323c0 170 -69 343 -276 343s-276 -173 -276 -343c0 -138 30 -278 159 -323v-9h-187v6h178c-128 48 -156 188 -156 326c0 174 71 349 282 349zM334 -61h6v-99
c0 -49 8 -64 53 -64c9 0 21 1 31 2v-6c-10 -1 -22 -2 -31 -2c-51 0 -59 17 -59 70v99z" />
    <glyph glyph-name="afii10023" unicode="&#x401;" horiz-adv-x="520" 
d="M442 349v-6h-366v-337h416v-6h-422v673h398v-6h-392v-318h366zM187 779c0 4 4 9 10 9s9 -5 9 -9c0 -6 -4 -9 -9 -9s-10 3 -10 9zM334 779c0 4 3 9 10 9c5 0 8 -5 8 -9c0 -6 -4 -9 -8 -9c-6 0 -10 3 -10 9z" />
    <glyph glyph-name="afii10052" unicode="&#x403;" horiz-adv-x="497" 
d="M76 667v-667h-6v673h402v-6h-396zM230 746l-4 4l121 106l6 -6z" />
    <glyph glyph-name="afii10054" unicode="&#x405;" horiz-adv-x="581" 
d="M508 506h-6c1 6 1 13 1 15c0 76 -59 154 -208 154c-144 0 -208 -75 -208 -155c0 -112 93 -128 235 -149c132 -20 211 -71 211 -184c0 -92 -62 -191 -247 -191c-163 0 -236 83 -236 188c0 3 1 13 2 19h6c-1 -7 -2 -16 -2 -19c0 -101 71 -183 230 -183
c181 0 241 96 241 186c0 106 -73 159 -205 178c-151 21 -241 41 -241 155c0 84 66 160 214 160c153 0 214 -80 214 -158c0 -2 0 -9 -1 -16z" />
    <glyph glyph-name="afii10055" unicode="&#x406;" horiz-adv-x="186" 
d="M90 673h6v-673h-6v673z" />
    </font>
</defs>
</svg>
