<?xml version="1.0" standalone="no"?>
<!DOCTYPE svg PUBLIC "-//W3C//DTD SVG 1.1//EN" "http://www.w3.org/Graphics/SVG/1.1/DTD/svg11.dtd" >
<svg xmlns="http://www.w3.org/2000/svg" xmlns:xlink="http://www.w3.org/1999/xlink" version="1.1">
<metadata>
Created by FontForge 20160405 at Thu Oct  5 05:35:49 2017
 By www-data
Copyright (c) 2005-2009 Parachute :, www.parachute.gr.  All rights reserved.
</metadata>
<defs>
<font id="PFEncoreSansPro-Thin" horiz-adv-x="1818" >
  <font-face 
    font-family="PF Encore Sans Pro Thin"
    font-weight="300"
    font-stretch="normal"
    units-per-em="1000"
    panose-1="2 0 5 6 0 0 0 2 0 4"
    ascent="750"
    descent="-250"
    x-height="478"
    cap-height="674"
    bbox="-323 -248 1760 913"
    underline-thickness="30"
    underline-position="-100"
    stemh="36"
    stemv="43"
    unicode-range="U+0020-FB05"
  />
<missing-glyph horiz-adv-x="431" 
d="M0 0v700h431v-700h-431zM215 375l163 297h-325zM234 350l169 -306v615zM53 28h325l-163 296zM27 655v-610l170 305z" />
    <glyph glyph-name="fj" unicode="fj" horiz-adv-x="457" 
d="M291 -186h-29v37h23c44 0 55 26 55 79v514h-204v-444h-41v444h-82v27l81 8v76c0 115 70 162 174 162c33 0 60 -2 93 -8v-35c-26 4 -51 7 -84 7c-93 0 -141 -33 -141 -125v-77h246v-550c0 -73 -19 -115 -91 -115z" />
    <glyph glyph-name="ffj" unicode="ffj" horiz-adv-x="708" 
d="M542 -185h-29v36h23c44 0 54 26 54 79v514h-204v-444h-42v444h-206v-444h-41v444h-82v27c28 2 54 5 82 8v79c0 108 41 152 135 152c19 0 43 -3 62 -7c0 -12 -1 -23 -1 -35c-23 4 -42 5 -58 5c-68 0 -97 -23 -97 -110v-84h206v83c0 115 69 163 174 163c33 0 60 -4 93 -9
v-34c-26 3 -52 6 -84 6c-93 0 -141 -33 -141 -125v-84h246v-550c0 -74 -21 -114 -90 -114z" />
    <glyph glyph-name="ff" unicode="ff" horiz-adv-x="559" 
d="M548 479v-35h-153v-444h-42v444h-206v-444h-42v444h-82v27c28 2 54 5 82 8v81c0 107 37 152 135 152c20 0 43 -3 62 -7v-35c-24 3 -43 5 -59 5c-74 0 -96 -23 -96 -110v-86h206v101c0 107 39 151 135 151c20 0 44 -2 62 -7v-35c-23 4 -42 6 -59 6c-74 0 -96 -25 -96 -111
v-105h153z" />
    <glyph glyph-name="fi" unicode="fi" horiz-adv-x="457" 
d="M136 479h246v-479h-42v444h-204v-444h-42v444h-81v27c27 2 54 5 81 8v75c0 116 70 163 174 163c33 0 60 -3 93 -9v-34c-26 4 -52 6 -84 6c-93 0 -141 -32 -141 -125v-76z" />
    <glyph glyph-name="fl" unicode="fl" horiz-adv-x="458" 
d="M285 479v-35h-149v-444h-41v444h-82v27l81 8v77c0 116 71 162 174 162c32 0 59 -3 89 -8h26v-710h-41v676c-22 3 -41 5 -65 5c-93 0 -141 -31 -141 -124v-78h149z" />
    <glyph glyph-name="ffi" unicode="ffi" horiz-adv-x="708" 
d="M344 479v83c0 116 68 163 174 163c33 0 60 -3 93 -9v-34c-26 3 -52 6 -84 6c-93 0 -141 -32 -141 -125v-84h247v-479h-42v444h-205v-444h-42v444h-205v-444h-42v444h-82v27l82 8v80c0 107 41 151 135 151c20 0 43 -2 62 -7v-34c-24 3 -43 5 -59 5c-67 0 -96 -22 -96 -111
v-84h205z" />
    <glyph glyph-name="ffl" unicode="ffl" horiz-adv-x="706" 
d="M532 479v-35h-148v-444h-42v444h-206v-444h-42v444h-81v27c27 2 54 5 81 8v79c0 108 42 152 135 152c20 0 44 -3 62 -7v-35c-23 4 -42 5 -59 5c-66 0 -96 -21 -96 -110v-84h206v85c0 115 71 161 174 161c32 0 59 -3 89 -8h26v-717h-41v684c-22 2 -41 4 -65 4
c-93 0 -142 -31 -142 -123v-86h149z" />
    <glyph glyph-name="ft" unicode="ft" horiz-adv-x="576" 
d="M395 600v-121h147v-33h-147v-299c0 -87 34 -118 106 -118c15 0 48 1 65 3v-34c-19 -3 -53 -5 -70 -5c-107 0 -143 43 -143 159v294h-206v-445h-42v445h-81v26l81 7v87c0 107 36 150 135 150c20 0 45 -1 63 -6v-34c-23 3 -43 5 -60 5c-74 0 -96 -22 -96 -111v-91h207
l13 121h28z" />
    <glyph glyph-name="fb" unicode="fb" horiz-adv-x="805" 
d="M549 -8c-71 0 -130 23 -163 81h-4c0 -33 -1 -57 -8 -73h-32v676c-22 3 -42 5 -65 5c-93 0 -141 -31 -141 -124v-78h147v-35h-147v-444h-41v444h-82v27l81 8v77c0 116 71 162 174 162c29 0 54 -3 82 -7h34v-221c0 -35 -1 -75 -5 -106l3 -1c24 51 82 104 172 104
c151 0 201 -105 201 -249c0 -140 -59 -246 -206 -246zM548 450c-118 0 -164 -104 -164 -186v-65c0 -101 57 -171 161 -171c115 0 167 75 167 210c0 125 -39 212 -164 212z" />
    <glyph glyph-name="ffb" unicode="ffb" horiz-adv-x="1053" 
d="M383 557v-78h147v-35h-146v-444h-42v444h-206v-444h-42v444h-81v27c27 2 54 5 81 8v79c0 108 42 152 135 152c20 0 44 -3 62 -7v-35c-23 4 -42 5 -59 5c-67 0 -96 -24 -96 -110v-84h206v77c0 116 70 161 173 161c29 0 54 -2 82 -6h34v-221c0 -35 -1 -75 -5 -107h4
c23 51 81 104 172 104c150 0 200 -106 200 -250c0 -139 -59 -245 -206 -245c-71 0 -130 22 -163 81h-4c0 -34 -1 -57 -8 -73h-32v676c-22 3 -41 5 -64 5c-93 0 -142 -31 -142 -124zM796 450c-119 0 -165 -105 -165 -186v-65c0 -101 57 -171 161 -171c115 0 167 75 167 210
c0 125 -39 212 -163 212z" />
    <glyph glyph-name="fh" unicode="fh" horiz-adv-x="797" 
d="M384 488c0 -30 -1 -65 -5 -97h4c30 61 93 96 173 96c160 0 182 -101 182 -213v-274h-43v274c0 93 -16 177 -146 177c-116 0 -165 -91 -165 -182v-269h-42v676c-22 3 -42 5 -65 5c-93 0 -141 -31 -141 -124v-78h146v-35h-146v-444h-41v444h-82v27l81 8v77
c0 116 71 162 174 162c29 0 54 -3 82 -7h34v-223z" />
    <glyph glyph-name="ffh" unicode="ffh" horiz-adv-x="1044" 
d="M383 557v-78h146v-35h-145v-444h-42v444h-206v-444h-42v444h-81v27c27 2 54 5 81 8v79c0 108 42 152 135 152c20 0 44 -3 62 -7v-35c-23 4 -42 5 -59 5c-67 0 -96 -24 -96 -110v-84h206v77c0 116 70 161 173 161c29 0 54 -2 82 -6h34v-223c0 -31 -1 -65 -5 -97h4
c30 61 93 96 173 96c160 0 182 -102 182 -213v-274h-43v274c0 93 -16 177 -146 177c-116 0 -165 -91 -165 -182v-269h-42v676c-22 3 -41 5 -64 5c-93 0 -142 -31 -142 -124z" />
    <glyph glyph-name="fk" unicode="fk" horiz-adv-x="723" 
d="M658 479h49l-186 -217l197 -262h-53l-180 242h-101v-242h-42c0 225 -1 451 -1 676c-21 3 -41 5 -64 5c-93 0 -141 -31 -141 -124v-78h146v-35h-146v-444h-42v444h-81v27c27 2 54 5 81 8v77c0 116 70 161 174 161c29 0 54 -2 82 -6h34v-432h101c58 66 116 134 173 200z
" />
    <glyph glyph-name="ffk" unicode="ffk" horiz-adv-x="971" 
d="M383 557v-78h146v-35h-145v-444h-42v444h-206v-444h-42v444h-81v27c27 2 54 5 81 8v79c0 108 42 152 135 152c20 0 44 -3 62 -7v-35c-23 4 -42 5 -59 5c-67 0 -96 -24 -96 -110v-84h206v77c0 116 70 161 173 161c29 0 54 -2 82 -6h34v-432h102c57 66 115 134 173 200h49
c-62 -73 -125 -145 -187 -217l197 -262h-52l-180 242h-102v-242h-42v676c-22 3 -41 5 -64 5c-93 0 -142 -31 -142 -124z" />
    <glyph glyph-name="r_y" unicode="ry" horiz-adv-x="674" 
d="M113 0h-42v479h32c8 -23 9 -62 9 -93h4c31 69 102 102 187 102l73 -209c24 -70 58 -161 84 -243h7c21 71 50 149 74 220l75 222h43l-180 -532c-26 -78 -47 -145 -147 -145h-54v36h49c55 0 81 20 100 77l28 84l-24 -2c-21 67 -43 124 -62 178l-97 272
c-131 -13 -159 -104 -159 -184v-262z" />
    <glyph glyph-name=".notdef" horiz-adv-x="431" 
d="M0 0v700h431v-700h-431zM215 375l163 297h-325zM234 350l169 -306v615zM53 28h325l-163 296zM27 655v-610l170 305z" />
    <glyph glyph-name="quotedbl" unicode="&#x22;" horiz-adv-x="290" 
d="M212 461h-30l-8 210h47zM114 461h-30l-9 210h47z" />
    <glyph glyph-name="numbersign" unicode="#" horiz-adv-x="579" 
d="M577 418h-119l-29 -175h117l-5 -31h-118l-35 -212h-38l38 212h-183l-38 -212h-36l38 212h-118l5 31h117l31 175h-119l5 30h120l34 199h34l-33 -199h184l32 199h36l-34 -199h120zM240 418l-30 -175h182l31 175h-183z" />
    <glyph glyph-name="dollar" unicode="$" horiz-adv-x="579" 
d="M312 -80v803h29v-73c100 -11 180 -63 180 -161c0 -4 -1 -10 -2 -14h-36c-1 61 -35 121 -142 135v-254c115 -26 194 -69 194 -178c0 -87 -61 -167 -194 -179v-79h-29zM276 723v-803h-29v78c-122 12 -202 74 -202 177c0 5 0 11 1 16h39c0 -68 32 -137 162 -156v299
c-109 23 -180 54 -180 153c0 74 52 149 180 164v72h29zM494 172c0 79 -44 120 -153 144v-280c113 14 153 78 153 136zM111 489c0 -68 41 -92 136 -113v235c-97 -13 -136 -65 -136 -122z" />
    <glyph glyph-name="percent" unicode="%" horiz-adv-x="801" 
d="M206 -30h-40l420 734h40zM203 679c129 0 166 -96 166 -201c0 -99 -39 -194 -166 -194c-129 0 -169 79 -169 193c0 119 48 202 169 202zM202 645c-97 0 -129 -68 -129 -168c0 -110 44 -161 129 -161c76 0 127 51 127 162c0 99 -35 167 -127 167zM608 390
c129 0 166 -95 166 -201c0 -98 -39 -194 -166 -194c-129 0 -169 80 -169 193c0 120 48 202 169 202zM607 357c-97 0 -129 -69 -129 -169c0 -109 44 -160 129 -160c76 0 127 51 127 161c0 99 -35 168 -127 168z" />
    <glyph glyph-name="quotesingle" unicode="'" horiz-adv-x="216" 
d="M126 461h-29l-10 210h47z" />
    <glyph glyph-name="parenleft" unicode="(" horiz-adv-x="284" 
d="M97 300c0 -160 69 -293 152 -397l-21 -19c-97 101 -174 246 -174 409c0 170 76 314 174 417l22 -18c-88 -108 -153 -243 -153 -392z" />
    <glyph glyph-name="parenright" unicode=")" horiz-adv-x="284" 
d="M181 300c0 149 -65 284 -153 392l22 18c98 -103 174 -247 174 -417c0 -163 -78 -308 -174 -409l-21 19c83 104 152 237 152 397z" />
    <glyph glyph-name="asterisk" unicode="*" horiz-adv-x="432" 
d="M245 505l83 -103l-40 -29l-70 112l-67 -111l-40 27l81 104l-125 38l16 42l119 -51l-5 127h45l-8 -127l121 51l17 -41z" />
    <glyph glyph-name="comma" unicode="," horiz-adv-x="207" 
d="M60 35c0 24 18 44 42 44c25 0 44 -17 44 -43c0 -5 -1 -15 -6 -25l-73 -152l-18 6l45 128c-19 4 -34 21 -34 42z" />
    <glyph glyph-name="period" unicode="." horiz-adv-x="206" 
d="M60 35c0 24 18 44 42 44c25 0 44 -20 44 -44s-19 -43 -44 -43c-24 0 -42 19 -42 43z" />
    <glyph glyph-name="slash" unicode="/" horiz-adv-x="498" 
d="M46 -45h-42l447 762h42z" />
    <glyph glyph-name="zero" unicode="0" horiz-adv-x="579" 
d="M291 655c196 0 251 -161 251 -338c0 -164 -58 -325 -252 -325c-195 0 -255 133 -255 324c0 201 72 339 256 339zM289 618c-159 0 -212 -124 -212 -302c0 -195 74 -289 212 -289c127 0 211 94 211 290c0 177 -59 301 -211 301z" />
    <glyph glyph-name="one" unicode="1" horiz-adv-x="579" 
d="M492 36v-36h-405v36h181v561l-157 -28v28l159 47h41v-608h181z" />
    <glyph glyph-name="two" unicode="2" horiz-adv-x="579" 
d="M288 655c152 0 211 -75 211 -162c0 -100 -97 -164 -179 -215c-140 -88 -218 -123 -217 -242h408v-36h-453v32c0 135 90 186 230 273c85 52 165 103 165 186c0 75 -51 125 -163 125c-126 0 -179 -68 -182 -149h-35c-1 7 -2 14 -2 19c0 110 100 168 217 169z" />
    <glyph glyph-name="four" unicode="4" horiz-adv-x="579" 
d="M393 645h39v-437h110v-37h-110v-171h-43v171h-354v35zM90 213l2 -5h297v364l-5 2z" />
    <glyph glyph-name="five" unicode="5" horiz-adv-x="579" 
d="M516 202c0 -125 -92 -210 -240 -210c-121 0 -217 52 -217 160c0 5 0 11 1 18h36c3 -77 53 -141 179 -141c123 0 198 65 198 171c0 125 -91 174 -198 174c-43 0 -101 -8 -145 -23l-32 16l42 278h339v-37h-303l-32 -215c39 12 92 18 130 18c127 0 242 -55 242 -209z" />
    <glyph glyph-name="six" unicode="6" horiz-adv-x="579" 
d="M306 619c-166 0 -203 -167 -205 -349l4 -1c25 74 103 134 197 134c130 0 214 -70 214 -201c0 -119 -76 -210 -224 -210c-162 1 -229 89 -229 297c0 175 46 366 244 366c103 0 185 -54 185 -142c0 -4 0 -9 -1 -14h-35c-3 60 -41 120 -150 120zM296 27
c101 0 179 61 179 175c0 97 -54 166 -177 166c-100 0 -179 -81 -179 -176c0 -116 83 -165 177 -165z" />
    <glyph glyph-name="seven" unicode="7" horiz-adv-x="579" 
d="M204 0h-47c101 202 202 405 304 607h-394v37h442v-33c-102 -204 -204 -407 -305 -611z" />
    <glyph glyph-name="eight" unicode="8" horiz-adv-x="579" 
d="M367 351v-4c136 -37 152 -132 152 -177c0 -92 -79 -178 -231 -178c-142 0 -229 66 -229 176c0 53 27 140 159 179l1 4c-119 31 -134 105 -134 144c0 72 63 160 203 160c157 0 205 -88 205 -160c0 -40 -27 -111 -126 -144zM477 168c0 84 -64 151 -186 163
c-120 -17 -190 -79 -190 -165c0 -99 94 -139 187 -139c91 0 189 43 189 141zM288 619c-86 0 -159 -45 -159 -123c0 -73 63 -109 161 -133c99 17 161 71 161 133c0 81 -73 123 -163 123z" />
    <glyph glyph-name="nine" unicode="9" horiz-adv-x="579" 
d="M268 28c170 0 205 141 208 348l-5 1c-23 -75 -98 -133 -188 -133c-133 0 -214 70 -214 201c0 124 77 210 220 210c147 0 226 -96 226 -300c0 -190 -41 -363 -249 -363c-103 0 -187 54 -187 142c0 4 0 9 1 14h36c3 -55 43 -120 152 -120zM289 619
c-96 0 -179 -50 -179 -174c0 -97 49 -166 176 -166c101 0 172 81 172 176c0 108 -79 164 -169 164z" />
    <glyph glyph-name="colon" unicode=":" horiz-adv-x="206" 
d="M60 35c0 24 18 44 42 44c25 0 44 -20 44 -44s-19 -43 -44 -43c-24 0 -42 19 -42 43zM60 362c0 24 18 44 42 44c25 0 44 -20 44 -44s-19 -43 -44 -43c-24 0 -42 19 -42 43z" />
    <glyph glyph-name="semicolon" unicode=";" horiz-adv-x="206" 
d="M60 362c0 24 18 44 42 44c25 0 44 -20 44 -44s-19 -43 -44 -43c-24 0 -42 19 -42 43zM60 35c0 24 18 44 42 44c25 0 44 -17 44 -43c0 -5 -1 -15 -6 -25l-73 -152l-18 6l45 128c-19 4 -34 21 -34 42z" />
    <glyph glyph-name="less" unicode="&#x3c;" horiz-adv-x="579" 
d="M96 251v37l387 185v-39l-343 -163l343 -163v-41c-34 17 -353 168 -387 184z" />
    <glyph glyph-name="greater" unicode="&#x3e;" horiz-adv-x="579" 
d="M483 288v-37c-35 -16 -353 -167 -387 -184v41l343 163l-343 163v39c32 -16 354 -170 387 -185z" />
    <glyph glyph-name="question" unicode="?" horiz-adv-x="552" 
d="M268 699c135 0 194 -67 194 -158c0 -56 -37 -108 -95 -161c-55 -51 -101 -102 -101 -194v-24h-45v16c0 83 30 150 97 212c56 52 97 96 97 148c0 72 -41 122 -146 122c-124 0 -157 -67 -160 -141h-37c-1 7 -2 13 -2 17c0 111 87 163 198 163zM200 34c0 22 19 41 41 41
s41 -19 41 -41s-19 -41 -41 -41s-41 19 -41 41z" />
    <glyph glyph-name="at" unicode="@" horiz-adv-x="857" 
d="M410 515c108 0 146 -55 146 -125v-159c0 -34 22 -58 61 -58c71 0 124 54 124 194c0 188 -151 280 -304 280c-181 0 -327 -134 -327 -326c0 -194 140 -329 338 -329c59 0 121 3 200 37l13 -32c-67 -26 -139 -40 -211 -40c-217 0 -380 140 -380 364c0 199 152 359 367 359
c197 0 342 -117 342 -313c0 -152 -64 -230 -162 -230c-30 0 -82 15 -93 64h-5c-33 -48 -87 -66 -143 -66c-67 0 -126 32 -126 104c0 75 67 126 180 126c27 0 56 -2 87 -8v27c0 50 -21 98 -107 98c-71 0 -100 -38 -102 -76h-33c0 4 -1 7 -1 11c0 72 78 98 136 98zM379 168
c104 0 138 68 138 117v38c-32 8 -61 10 -87 10c-94 0 -139 -40 -139 -94c0 -39 27 -71 88 -71z" />
    <glyph glyph-name="A" unicode="A" horiz-adv-x="579" 
d="M522 0l-70 183h-328l-68 -183h-46l255 675h47l257 -675h-47zM291 619h-7c-20 -63 -42 -123 -65 -184l-81 -214h302l-82 212c-23 60 -45 122 -67 186z" />
    <glyph glyph-name="D" unicode="D" horiz-adv-x="623" 
d="M108 39h136c107 0 280 48 280 297c0 250 -173 299 -280 299h-136v-596zM65 0v673h189c146 0 315 -80 315 -339c0 -209 -132 -334 -315 -334h-189z" />
    <glyph glyph-name="E" unicode="E" horiz-adv-x="529" 
d="M65 0v674h418v-39h-375v-266h346v-39h-346v-290h388v-40h-431z" />
    <glyph glyph-name="F" unicode="F" horiz-adv-x="510" 
d="M66 0v674h429v-39h-385v-273h340v-40h-340v-322h-44z" />
    <glyph glyph-name="G" unicode="G" horiz-adv-x="638" 
d="M335 682c119 0 228 -58 228 -173c0 -4 0 -9 -1 -15h-38c-2 74 -52 149 -192 149c-164 0 -234 -127 -234 -312c0 -203 77 -301 232 -301c178 0 212 126 212 210v72h-186v38h228v-110c0 -140 -77 -247 -254 -247c-201 0 -275 133 -275 338c0 206 82 351 280 351z" />
    <glyph glyph-name="H" unicode="H" horiz-adv-x="638" 
d="M528 0v330h-420v-330h-43v675h43v-306h420v306h45v-675h-45z" />
    <glyph glyph-name="I" unicode="I" horiz-adv-x="213" 
d="M85 0v674h43v-674h-43z" />
    <glyph glyph-name="J" unicode="J" horiz-adv-x="536" 
d="M237 -7c-127 0 -217 59 -217 169c0 5 0 12 1 19h40c1 -70 35 -148 176 -149c128 0 183 74 183 187v455h43v-465c0 -103 -53 -216 -226 -216z" />
    <glyph glyph-name="K" unicode="K" horiz-adv-x="532" 
d="M108 674v-304h124l236 304h51l-251 -322l260 -352h-56l-240 330h-124v-330h-43v674h43z" />
    <glyph glyph-name="L" unicode="L" horiz-adv-x="513" 
d="M65 0v674h44v-635h394v-39h-438z" />
    <glyph glyph-name="M" unicode="M" horiz-adv-x="771" 
d="M119 674l134 -266c66 -131 98 -194 129 -259h6c43 91 95 187 139 283l123 242h54v-674h-45v599h-4c-25 -56 -53 -110 -81 -165l-168 -333h-43l-190 371c-21 41 -40 86 -60 127h-4v-599h-43v674h53z" />
    <glyph glyph-name="N" unicode="N" horiz-adv-x="643" 
d="M113 596c-1 -1 -3 -1 -5 -1v-595h-43v674h40l241 -335c60 -86 123 -175 182 -261h5v596h45v-674h-42l-310 430c-39 53 -76 109 -113 166z" />
    <glyph glyph-name="O" unicode="O" horiz-adv-x="666" 
d="M336 681c220 0 275 -166 275 -350c0 -171 -60 -338 -282 -338c-213 0 -274 137 -274 337c0 207 75 351 281 351zM334 642c-175 0 -236 -126 -236 -312c0 -205 76 -299 230 -299c151 0 237 94 237 300c0 185 -58 311 -231 311z" />
    <glyph glyph-name="P" unicode="P" horiz-adv-x="552" 
d="M318 253h-210v-253h-43v674h255c140 0 216 -95 216 -213c0 -88 -49 -208 -218 -208zM315 635h-207v-342h206c87 0 177 42 177 168c0 107 -73 174 -176 174z" />
    <glyph glyph-name="Q" unicode="Q" horiz-adv-x="663" 
d="M335 681c220 0 275 -166 275 -350c0 -153 -48 -304 -213 -333c64 -32 126 -52 173 -66l-16 -40c-73 25 -155 59 -220 100c-218 0 -280 138 -280 338c0 207 75 351 281 351zM333 642c-175 0 -236 -126 -236 -312c0 -205 77 -300 236 -300c144 0 231 95 231 301
c0 185 -58 311 -231 311z" />
    <glyph glyph-name="R" unicode="R" horiz-adv-x="563" 
d="M316 674c144 0 218 -80 218 -198c0 -76 -38 -193 -227 -192l215 -284h-52c-72 94 -144 189 -215 284h-147v-284h-43v674h251zM310 635h-202v-311h203c88 0 178 31 178 153c0 106 -76 158 -179 158z" />
    <glyph glyph-name="S" unicode="S" horiz-adv-x="587" 
d="M289 32c153 0 206 78 206 146c0 94 -62 140 -196 158c-124 16 -234 37 -234 163c0 91 61 183 234 183c116 0 228 -52 228 -178c0 -5 -1 -11 -2 -17h-39c-1 80 -55 154 -188 154c-127 0 -187 -64 -187 -135c0 -100 81 -110 216 -131c123 -19 214 -67 214 -190
c0 -95 -68 -192 -251 -192c-148 0 -244 65 -244 193c0 6 0 13 1 20h40c1 -86 43 -174 202 -174z" />
    <glyph glyph-name="T" unicode="T" horiz-adv-x="544" 
d="M296 635v-635h-44v635h-237v39h514v-39h-233z" />
    <glyph glyph-name="U" unicode="U" horiz-adv-x="644" 
d="M579 674v-405c0 -162 -62 -276 -254 -276c-201 0 -260 104 -260 276v405h43v-406c0 -182 80 -236 218 -236c128 0 209 63 209 237v405h44z" />
    <glyph glyph-name="V" unicode="V" horiz-adv-x="575" 
d="M313 0h-54l-248 674h47l135 -369c30 -82 66 -174 91 -257h5c29 87 60 174 91 256l137 370h46z" />
    <glyph glyph-name="W" unicode="W" horiz-adv-x="855" 
d="M428 607h-4c-18 -68 -37 -137 -58 -207l-120 -400h-52l-184 674h48c30 -116 59 -231 90 -348l71 -272h4c27 95 51 182 75 262l106 358h46l104 -345c27 -89 52 -178 78 -275h5l70 273c41 160 67 254 90 347h47l-183 -674h-51l-113 373c-25 82 -49 159 -69 234z" />
    <glyph glyph-name="X" unicode="X" horiz-adv-x="537" 
d="M474 0l-207 316c-69 -105 -138 -212 -207 -316h-52l234 349l-215 325h50c63 -98 127 -195 190 -292l192 292h50l-216 -325c78 -115 157 -234 234 -349h-53z" />
    <glyph glyph-name="Y" unicode="Y" horiz-adv-x="527" 
d="M256 318h7c5 13 90 161 96 173l105 183h51l-234 -402v-272h-45v271l-226 403h50l101 -180c31 -56 65 -117 95 -176z" />
    <glyph glyph-name="Z" unicode="Z" horiz-adv-x="542" 
d="M27 0v38l425 597h-408v40h461v-37l-425 -599h435v-39h-488z" />
    <glyph glyph-name="bracketleft" unicode="[" horiz-adv-x="288" 
d="M77 -122v832h142v-34h-102v-764h102v-34h-142z" />
    <glyph glyph-name="backslash" unicode="\" horiz-adv-x="508" 
d="M494 -45h-42l-447 762h42z" />
    <glyph glyph-name="bracketright" unicode="]" horiz-adv-x="288" 
d="M215 710v-832h-142v34h102v764h-102v34h142z" />
    <glyph glyph-name="asciicircum" unicode="^" horiz-adv-x="579" 
d="M271 671h36c68 -139 139 -274 207 -412h-44l-181 361c-45 -94 -136 -268 -180 -361h-45c69 140 138 272 207 412z" />
    <glyph glyph-name="underscore" unicode="_" horiz-adv-x="505" 
d="M2 -102v36h500v-36h-500z" />
    <glyph glyph-name="grave" unicode="`" horiz-adv-x="522" 
d="M373 560l-22 -17l-131 131l43 32z" />
    <glyph glyph-name="b" unicode="b" horiz-adv-x="523" 
d="M267 -8c-71 0 -130 23 -163 81h-4c0 -33 -1 -57 -8 -73h-32v711h42v-221c0 -35 -2 -76 -6 -107l4 -1c23 52 82 105 173 105c150 0 200 -105 200 -249c0 -140 -59 -246 -206 -246zM267 450c-119 0 -165 -104 -165 -186v-65c0 -101 57 -171 161 -171c115 0 167 75 167 210
c0 125 -39 212 -163 212z" />
    <glyph glyph-name="c" unicode="c" horiz-adv-x="477" 
d="M263 487c91 0 171 -40 171 -131c0 -4 0 -9 -1 -14h-36c-2 56 -42 108 -136 108c-118 0 -168 -91 -168 -213c0 -152 59 -208 169 -208c106 0 143 62 144 121h36c1 -6 1 -10 1 -14c0 -92 -78 -144 -181 -144c-149 0 -212 80 -212 242c0 137 54 253 213 253z" />
    <glyph glyph-name="d" unicode="d" horiz-adv-x="523" 
d="M249 -8c-158 0 -199 112 -199 242c0 143 58 253 207 253c100 0 138 -51 160 -91h4v314h42v-710h-33c-7 17 -8 43 -8 80h-4c-41 -71 -103 -88 -169 -88zM258 27c110 0 163 83 163 172v71c0 83 -44 180 -163 180s-165 -92 -165 -216c0 -141 53 -207 165 -207z" />
    <glyph glyph-name="e" unicode="e" horiz-adv-x="502" 
d="M258 450c-114 0 -157 -84 -163 -180h313c0 98 -31 180 -150 180zM258 487c142 0 190 -93 190 -203c0 -16 -1 -32 -3 -48h-352c0 -140 54 -208 168 -208c119 0 146 66 148 118h36c1 -5 1 -10 1 -14c0 -92 -85 -140 -186 -140c-154 0 -210 97 -210 246
c0 136 57 249 208 249z" />
    <glyph glyph-name="f" unicode="f" horiz-adv-x="318" 
d="M151 479h155v-35h-155v-444h-42v444h-82v27l82 8v86c0 107 36 150 135 150c20 0 43 -2 62 -6v-34c-24 3 -43 5 -59 5c-74 0 -96 -22 -96 -111v-90z" />
    <glyph glyph-name="g" unicode="g" horiz-adv-x="535" 
d="M263 487c24 0 56 -2 83 -9h148v-25c-16 -6 -57 -8 -83 -8v-5c39 -25 64 -69 64 -126c0 -99 -75 -172 -207 -172c-74 0 -112 19 -129 26c-29 -17 -40 -34 -40 -49c0 -51 117 -59 211 -71c113 -15 181 -45 181 -123c0 -98 -109 -132 -239 -132c-153 0 -207 49 -207 123
c0 55 39 98 83 124c-44 11 -71 39 -71 74c0 25 14 52 53 75c-34 29 -54 70 -54 123c0 101 77 175 207 175zM263 453c-106 0 -165 -60 -165 -140c0 -76 46 -137 168 -137c106 0 167 54 167 139c0 59 -36 138 -170 138zM293 15l-118 14c-52 -25 -89 -62 -89 -112
c0 -53 51 -90 169 -90c95 0 193 21 193 97c0 44 -26 76 -155 91z" />
    <glyph glyph-name="h" unicode="h" horiz-adv-x="515" 
d="M97 391h4c30 61 93 96 173 96c160 0 182 -101 182 -213v-274h-43v274c0 93 -16 177 -146 177c-116 0 -165 -91 -165 -182v-269h-42v710h42v-222c0 -30 -1 -65 -5 -97z" />
    <glyph glyph-name="i" unicode="i" horiz-adv-x="222" 
d="M90 0v479h42v-479h-42zM78 641c0 18 15 33 33 33c19 0 33 -15 33 -33c0 -19 -14 -33 -33 -33c-18 0 -33 14 -33 33z" />
    <glyph glyph-name="j" unicode="j" horiz-adv-x="220" 
d="M42 -198h-29v37h23c44 0 55 26 55 79v561h42v-562c0 -73 -19 -115 -91 -115zM79 641c0 18 14 33 33 33c18 0 33 -15 33 -33c0 -19 -15 -33 -33 -33c-19 0 -33 14 -33 33z" />
    <glyph glyph-name="k" unicode="k" horiz-adv-x="444" 
d="M376 479h49l-180 -217l191 -262h-52l-175 243h-107v-243h-42v711h42v-431h108z" />
    <glyph glyph-name="l" unicode="l" horiz-adv-x="204" 
d="M73 710h42v-637c0 -41 16 -44 56 -44v-33c-10 -2 -15 -2 -20 -2c-75 0 -78 28 -78 83v633z" />
    <glyph glyph-name="m" unicode="m" horiz-adv-x="844" 
d="M603 452c-112 0 -160 -90 -160 -181v-271h-43v263c0 93 -14 188 -138 188c-112 0 -160 -89 -160 -180v-271h-42v479h33c9 -19 8 -42 8 -79h4c42 71 111 87 164 87c95 0 146 -47 161 -108c34 71 96 109 180 109c158 0 175 -104 175 -215v-273h-43v269
c0 94 -14 183 -139 183z" />
    <glyph glyph-name="n" unicode="n" horiz-adv-x="515" 
d="M277 488c155 0 179 -101 179 -205v-283h-43v274c0 78 -10 178 -143 178c-111 0 -168 -90 -168 -181v-271h-42v479h32c9 -19 9 -42 9 -79h4c43 70 119 88 172 88z" />
    <glyph glyph-name="o" unicode="o" horiz-adv-x="528" 
d="M266 487c166 0 212 -122 212 -249c0 -125 -49 -246 -212 -246s-216 95 -216 243c0 144 61 252 216 252zM266 450c-126 0 -173 -91 -173 -215c0 -137 49 -206 173 -206c106 0 168 65 168 209c0 121 -42 212 -168 212z" />
    <glyph glyph-name="p" unicode="p" horiz-adv-x="523" 
d="M274 487c148 0 200 -111 200 -241c0 -144 -60 -254 -206 -254c-91 0 -140 44 -162 85h-4v-277h-42v679h33c7 -16 9 -46 9 -80h4c38 66 102 88 168 88zM265 451c-109 0 -162 -84 -162 -173v-73c0 -83 43 -177 163 -177c118 0 164 92 164 217c0 140 -60 206 -165 206z" />
    <glyph glyph-name="q" unicode="q" horiz-adv-x="523" 
d="M50 237c0 139 61 250 205 250c69 0 129 -21 164 -81h4c1 33 3 57 9 73h31v-680h-42v189c0 34 1 74 5 108l-3 1c-24 -52 -82 -105 -172 -105c-151 0 -201 101 -201 245zM257 29c118 0 164 105 164 186v65c0 101 -57 172 -161 172c-115 0 -167 -81 -167 -216
c0 -125 39 -207 164 -207z" />
    <glyph glyph-name="r" unicode="r" horiz-adv-x="295" 
d="M113 0h-42v479h32c8 -23 9 -58 9 -93h4c26 66 95 102 170 103l3 -44c-145 -8 -176 -83 -176 -181v-264z" />
    <glyph glyph-name="s" unicode="s" horiz-adv-x="460" 
d="M228 28c104 0 143 51 143 98c0 65 -46 92 -140 104c-88 10 -174 28 -174 123c0 70 46 134 174 134c83 0 169 -35 169 -122c0 -4 0 -8 -1 -13h-37c-3 52 -40 99 -133 99c-89 0 -129 -43 -129 -92c0 -70 55 -80 151 -93c94 -13 163 -45 163 -135c0 -70 -53 -139 -188 -139
c-97 0 -183 41 -183 140c0 4 0 9 1 15h37c2 -64 43 -119 147 -119z" />
    <glyph glyph-name="t" unicode="t" horiz-adv-x="327" 
d="M144 600v-121h146v-35h-146v-297c0 -94 39 -118 113 -118c16 0 36 1 57 4v-35c-25 -3 -49 -5 -69 -5c-99 0 -144 36 -144 159v292h-81v28l83 8l12 120h29z" />
    <glyph glyph-name="u" unicode="u" horiz-adv-x="505" 
d="M445 479v-479h-32c-9 19 -9 43 -9 80h-4c-43 -70 -113 -88 -162 -88c-156 0 -180 99 -180 208v279h44v-275c0 -93 16 -176 143 -176c106 0 157 89 157 180v271h43z" />
    <glyph glyph-name="v" unicode="v" horiz-adv-x="434" 
d="M214 44h5c24 79 54 160 88 248l71 187h43l-182 -482h-48l-181 482h44l74 -196c29 -77 61 -159 86 -239z" />
    <glyph glyph-name="w" unicode="w" horiz-adv-x="678" 
d="M339 425h-5c-18 -69 -41 -146 -65 -222l-66 -205h-49c-48 160 -97 320 -145 481h43l44 -148c27 -92 56 -187 81 -283h5c22 82 43 159 84 282l49 149h46l65 -206l69 -226h5c21 85 44 164 67 243l56 189h43c-48 -161 -97 -321 -145 -481h-49c-15 46 -31 92 -65 200
c-24 76 -46 154 -68 227z" />
    <glyph glyph-name="x" unicode="x" horiz-adv-x="420" 
d="M360 0l-150 216l-149 -216h-51l175 248l-164 231h51l138 -200c9 14 129 187 137 200h50l-162 -231l175 -248h-50z" />
    <glyph glyph-name="y" unicode="y" horiz-adv-x="422" 
d="M208 36h7c21 71 50 150 74 220l75 222h43l-181 -534c-27 -79 -47 -145 -147 -145h-54v36h49c55 0 79 21 99 77l30 86l-24 -2c-24 80 -51 146 -171 482h45l75 -211c23 -66 56 -154 80 -231z" />
    <glyph glyph-name="z" unicode="z" horiz-adv-x="419" 
d="M17 0v31l321 411h-296v37h347v-34l-320 -410h321v-35h-373z" />
    <glyph glyph-name="braceleft" unicode="{" horiz-adv-x="339" 
d="M133 286v-4c50 -20 52 -76 52 -123v-173c0 -52 15 -75 54 -75h29v-34h-37c-50 0 -83 36 -83 96v179c0 72 -7 103 -64 119v27c58 13 63 46 63 121v193c0 58 25 94 77 94h44v-32h-31c-45 0 -51 -30 -51 -73v-194c0 -56 -5 -101 -53 -121z" />
    <glyph glyph-name="bar" unicode="|" horiz-adv-x="273" 
d="M113 -122v839h41v-839h-41z" />
    <glyph glyph-name="braceright" unicode="}" horiz-adv-x="339" 
d="M218 283v5c-48 20 -53 63 -53 119v194c0 43 -6 73 -51 73h-31v32h44c52 0 77 -36 77 -94v-193c0 -75 5 -108 63 -121v-27c-57 -16 -64 -47 -64 -119v-179c0 -60 -33 -96 -83 -96h-37v34h29c39 0 54 23 54 75v173c0 47 2 104 52 124z" />
    <glyph glyph-name="asciitilde" unicode="~" horiz-adv-x="579" 
d="M391 231c-73 0 -149 59 -200 59c-36 0 -60 -13 -91 -56l-27 17c25 54 69 78 117 78c64 0 149 -60 200 -60c41 0 65 15 94 57l29 -14c-25 -56 -74 -81 -122 -81z" />
    <glyph glyph-name="Adieresis" unicode="&#xc4;" horiz-adv-x="579" 
d="M522 0l-70 183h-328l-68 -183h-46l255 675h47l257 -675h-47zM291 619h-7c-20 -63 -42 -123 -65 -184l-81 -214h302l-82 212c-23 60 -45 122 -67 186zM179 782c0 17 13 31 30 31s31 -14 31 -31c0 -16 -14 -30 -31 -30s-30 14 -30 30zM338 782c0 17 13 31 30 31
s31 -14 31 -31c0 -16 -14 -30 -31 -30s-30 14 -30 30z" />
    <glyph glyph-name="Eacute" unicode="&#xc9;" horiz-adv-x="528" 
d="M66 0v674h418v-39h-375v-266h346v-39h-346v-290h388v-40h-431zM255 728l-16 22l140 105l33 -42z" />
    <glyph glyph-name="Odieresis" unicode="&#xd6;" horiz-adv-x="666" 
d="M336 681c220 0 275 -166 275 -350c0 -171 -60 -338 -282 -338c-213 0 -274 137 -274 337c0 207 75 351 281 351zM334 642c-175 0 -236 -126 -236 -312c0 -205 76 -299 230 -299c151 0 237 94 237 300c0 185 -58 311 -231 311zM218 782c0 17 13 31 30 31s31 -14 31 -31
c0 -16 -14 -30 -31 -30s-30 14 -30 30zM377 782c0 17 13 31 30 31s31 -14 31 -31c0 -16 -14 -30 -31 -30s-30 14 -30 30z" />
    <glyph glyph-name="Udieresis" unicode="&#xdc;" horiz-adv-x="644" 
d="M579 674v-405c0 -162 -62 -276 -254 -276c-201 0 -260 104 -260 276v405h43v-406c0 -182 80 -236 218 -236c128 0 209 63 209 237v405h44zM214 782c0 17 13 31 30 31s31 -14 31 -31c0 -16 -14 -30 -31 -30s-30 14 -30 30zM373 782c0 17 13 31 30 31s31 -14 31 -31
c0 -16 -14 -30 -31 -30s-30 14 -30 30z" />
    <glyph glyph-name="agrave" unicode="&#xe0;" horiz-adv-x="478" 
d="M235 487c140 0 185 -72 185 -164v-323h-33c-7 15 -8 42 -8 78h-4c-48 -74 -124 -86 -181 -86c-87 0 -159 37 -159 135c0 101 87 160 227 160c35 0 74 -3 115 -11v39c0 66 -23 136 -140 136c-95 0 -132 -52 -135 -104h-36c-1 5 -1 9 -1 12c0 95 93 128 170 128zM195 26
c139 0 183 93 183 159v55c-43 10 -82 13 -116 13c-122 0 -185 -55 -185 -128c0 -55 38 -99 118 -99zM296 560l-22 -17l-131 131l43 32z" />
    <glyph glyph-name="acircumflex" unicode="&#xe2;" horiz-adv-x="478" 
d="M235 487c140 0 185 -72 185 -164v-323h-33c-7 15 -8 42 -8 78h-4c-48 -74 -124 -86 -181 -86c-87 0 -159 37 -159 135c0 101 87 160 227 160c35 0 74 -3 115 -11v39c0 66 -23 136 -140 136c-95 0 -132 -52 -135 -104h-36c-1 5 -1 9 -1 12c0 95 93 128 170 128zM195 26
c139 0 183 93 183 159v55c-43 10 -82 13 -116 13c-122 0 -185 -55 -185 -128c0 -55 38 -99 118 -99zM369 545l-131 103c-32 -27 -99 -78 -132 -104c-1 2 -16 16 -18 19c33 29 100 95 134 126h36c32 -30 99 -96 130 -126z" />
    <glyph glyph-name="adieresis" unicode="&#xe4;" horiz-adv-x="478" 
d="M235 487c140 0 185 -72 185 -164v-323h-33c-7 15 -8 42 -8 78h-4c-48 -74 -124 -86 -181 -86c-87 0 -159 37 -159 135c0 101 87 160 227 160c35 0 74 -3 115 -11v39c0 66 -23 136 -140 136c-95 0 -132 -52 -135 -104h-36c-1 5 -1 9 -1 12c0 95 93 128 170 128zM195 26
c139 0 183 93 183 159v55c-43 10 -82 13 -116 13c-122 0 -185 -55 -185 -128c0 -55 38 -99 118 -99zM129 598c0 17 13 31 30 31s31 -14 31 -31c0 -16 -14 -30 -31 -30s-30 14 -30 30zM288 598c0 17 13 31 30 31s31 -14 31 -31c0 -16 -14 -30 -31 -30s-30 14 -30 30z" />
    <glyph glyph-name="ccedilla" unicode="&#xe7;" horiz-adv-x="478" 
d="M249 -205c-29 0 -55 4 -86 17l9 25c32 -11 58 -14 73 -14c30 0 66 15 66 49c0 30 -30 47 -61 47c-11 0 -23 -1 -36 -6l-18 12l37 69c-129 9 -183 88 -183 239c0 138 53 254 213 254c91 0 171 -40 171 -131c0 -4 0 -9 -1 -14h-36c-2 56 -43 108 -136 108
c-118 0 -168 -91 -168 -213c0 -152 59 -209 169 -209c106 0 142 63 144 122h36c1 -6 1 -11 1 -14c0 -91 -78 -142 -179 -144l-26 -46h11c78 0 101 -41 101 -72c0 -43 -33 -78 -101 -79z" />
    <glyph glyph-name="eacute" unicode="&#xe9;" horiz-adv-x="503" 
d="M258 450c-114 0 -157 -84 -163 -180h313c0 98 -31 180 -150 180zM258 487c142 0 190 -93 190 -203c0 -16 -1 -32 -3 -48h-352c0 -140 54 -208 168 -208c119 0 146 66 148 118h36c1 -5 1 -10 1 -14c0 -92 -85 -140 -186 -140c-154 0 -210 97 -210 246
c0 136 57 249 208 249zM243 547l-22 18l109 139l42 -34z" />
    <glyph glyph-name="egrave" unicode="&#xe8;" horiz-adv-x="503" 
d="M258 450c-114 0 -157 -84 -163 -180h313c0 98 -31 180 -150 180zM258 487c142 0 190 -93 190 -203c0 -16 -1 -32 -3 -48h-352c0 -140 54 -208 168 -208c119 0 146 66 148 118h36c1 -5 1 -10 1 -14c0 -92 -85 -140 -186 -140c-154 0 -210 97 -210 246
c0 136 57 249 208 249zM313 560l-22 -17l-131 131l43 32z" />
    <glyph glyph-name="ecircumflex" unicode="&#xea;" horiz-adv-x="503" 
d="M258 450c-114 0 -157 -84 -163 -180h313c0 98 -31 180 -150 180zM258 487c142 0 190 -93 190 -203c0 -16 -1 -32 -3 -48h-352c0 -140 54 -208 168 -208c119 0 146 66 148 118h36c1 -5 1 -10 1 -14c0 -92 -85 -140 -186 -140c-154 0 -210 97 -210 246
c0 136 57 249 208 249zM391 545l-131 103c-32 -27 -99 -78 -132 -104c-1 2 -16 16 -18 19c33 29 100 95 134 126h36c32 -30 99 -96 130 -126z" />
    <glyph glyph-name="edieresis" unicode="&#xeb;" horiz-adv-x="503" 
d="M258 450c-114 0 -157 -84 -163 -180h313c0 98 -31 180 -150 180zM258 487c142 0 190 -93 190 -203c0 -16 -1 -32 -3 -48h-352c0 -140 54 -208 168 -208c119 0 146 66 148 118h36c1 -5 1 -10 1 -14c0 -92 -85 -140 -186 -140c-154 0 -210 97 -210 246
c0 136 57 249 208 249zM150 598c0 17 13 31 30 31s31 -14 31 -31c0 -16 -14 -30 -31 -30s-30 14 -30 30zM309 598c0 17 13 31 30 31s31 -14 31 -31c0 -16 -14 -30 -31 -30s-30 14 -30 30z" />
    <glyph glyph-name="dagger" unicode="&#x2020;" horiz-adv-x="548" 
d="M281 455v-568h-46v568h-168v39h167v196h46v-196h164v-39h-163z" />
    <glyph glyph-name="germandbls" unicode="&#xdf;" horiz-adv-x="524" 
d="M344 424v-4c95 -18 135 -104 135 -203c0 -112 -61 -224 -207 -224c-16 0 -31 1 -48 4l8 31c13 -3 31 -3 43 -3c94 0 163 72 163 193c0 144 -79 181 -167 183v33c80 4 123 62 123 120c0 89 -61 129 -144 129c-128 0 -144 -110 -144 -191v-492h-42v507
c0 119 56 209 187 209c119 0 184 -63 184 -163c0 -30 -22 -104 -91 -129z" />
    <glyph glyph-name="registered" unicode="&#xae;" horiz-adv-x="568" 
d="M513 463c0 -129 -105 -234 -236 -234c-143 0 -234 105 -234 234c0 130 105 236 234 236c137 0 236 -106 236 -236zM484 463c0 115 -93 211 -207 211c-119 0 -206 -96 -206 -211c0 -112 84 -208 206 -208c114 0 207 96 207 208zM316 453l63 -123h-32l-59 120h-62v-120h-27
v275h88c48 0 89 -24 89 -80c0 -30 -15 -62 -60 -72zM289 579h-63v-105h64c34 0 58 14 58 52c0 39 -32 53 -59 53z" />
    <glyph glyph-name="copyright" unicode="&#xa9;" horiz-adv-x="813" 
d="M405 99c-148 0 -204 82 -204 239c0 132 54 248 205 248c86 0 168 -40 168 -129c0 -4 0 -9 -1 -14h-32c-2 54 -36 111 -137 111c-116 0 -165 -90 -165 -215c0 -151 56 -208 166 -208c111 0 143 67 144 121h32c1 -5 1 -9 1 -13c0 -90 -79 -140 -177 -140zM405 -13
c-221 0 -358 155 -358 367c0 213 162 365 358 365c194 0 355 -152 355 -365c0 -212 -161 -367 -355 -367zM405 684c-183 0 -322 -146 -322 -330c0 -198 133 -334 322 -334c178 0 320 148 320 334c0 184 -142 330 -320 330z" />
    <glyph glyph-name="plusminus" unicode="&#xb1;" horiz-adv-x="579" 
d="M309 251v-162h-39v162h-171v35h171v163h39v-163h170v-35h-170zM99 35h380v-35h-380v35z" />
    <glyph glyph-name="yen" unicode="&#xa5;" horiz-adv-x="579" 
d="M510 268h-434v29h176l-203 348h49l95 -164c30 -51 64 -109 92 -164h9c27 52 60 110 90 159l102 169h48l-209 -348h185v-29zM76 213h434v-30h-200v-183h-44v183h-190v30z" />
    <glyph glyph-name="guillemotleft" unicode="&#xab;" horiz-adv-x="419" 
d="M226 24c-55 63 -108 127 -163 191v17c53 64 104 128 156 192l22 -16l-129 -185l137 -181zM355 24c-55 63 -108 127 -163 191v17l156 192l22 -16l-130 -185l138 -181z" />
    <glyph glyph-name="guillemotright" unicode="&#xbb;" horiz-adv-x="419" 
d="M378 215c-55 -64 -108 -128 -163 -191l-23 18l138 181l-130 185l22 16l156 -192v-17zM249 215l-162 -191l-23 18l137 181l-130 185l22 16c53 -64 104 -128 156 -192v-17z" />
    <glyph glyph-name="ellipsis" unicode="&#x2026;" horiz-adv-x="662" 
d="M60 35c0 24 18 44 42 44c25 0 44 -20 44 -44s-19 -43 -44 -43c-24 0 -42 19 -42 43zM288 35c0 24 19 44 43 44s44 -20 44 -44s-20 -43 -44 -43s-43 19 -43 43zM517 35c0 24 19 44 43 44s44 -20 44 -44s-20 -43 -44 -43s-43 19 -43 43z" />
    <glyph glyph-name="oe" unicode="&#x153;" horiz-adv-x="889" 
d="M266 487c110 0 165 -54 191 -128c27 75 86 128 188 128c141 0 191 -86 191 -198c0 -17 -1 -35 -3 -53h-353c0 -141 54 -208 168 -208c118 0 146 66 148 118h36c1 -5 1 -9 1 -12c0 -94 -84 -142 -187 -142c-106 0 -164 46 -191 124c-26 -72 -83 -123 -190 -123
c-162 0 -215 94 -215 241c0 145 61 253 216 253zM266 450c-127 0 -173 -91 -173 -216c0 -137 49 -206 173 -206c106 0 168 66 168 210c0 121 -42 212 -168 212zM645 450c-115 0 -158 -84 -163 -180h312c0 96 -21 180 -149 180z" />
    <glyph glyph-name="endash" unicode="&#x2013;" horiz-adv-x="505" 
d="M26 235v36h455v-36h-455z" />
    <glyph glyph-name="quotedblleft" unicode="&#x201c;" horiz-adv-x="325" 
d="M148 571c0 -24 -19 -44 -43 -44c-25 0 -44 17 -44 43c0 5 2 15 6 25l64 132l18 -6l-36 -108c19 -4 35 -21 35 -42zM261 571c0 -24 -19 -44 -42 -44c-25 0 -44 17 -44 43c0 5 1 15 6 25l64 132l18 -6l-37 -108c20 -4 35 -21 35 -42z" />
    <glyph glyph-name="quotedblright" unicode="&#x201d;" horiz-adv-x="325" 
d="M177 678c0 25 19 44 43 44c25 0 44 -17 44 -43c0 -5 -2 -15 -6 -25l-65 -132l-18 6l37 109c-19 3 -35 20 -35 41zM64 678c0 25 18 44 42 44c25 0 44 -17 44 -43c0 -5 -1 -15 -6 -25l-64 -132l-18 6l37 109c-20 3 -35 20 -35 41z" />
    <glyph glyph-name="quoteleft" unicode="&#x2018;" horiz-adv-x="211" 
d="M148 571c0 -24 -19 -44 -43 -44c-25 0 -44 17 -44 43c0 5 2 15 6 25l64 132l18 -6l-36 -108c19 -4 35 -21 35 -42z" />
    <glyph glyph-name="quoteright" unicode="&#x2019;" horiz-adv-x="211" 
d="M64 678c0 25 18 44 42 44c25 0 44 -17 44 -43c0 -5 -1 -15 -6 -25l-64 -132l-18 6l37 109c-20 3 -35 20 -35 41z" />
    <glyph glyph-name="divide" unicode="&#xf7;" horiz-adv-x="579" 
d="M479 243h-380v39h380v-39zM252 408c0 23 19 42 42 42s42 -19 42 -42s-19 -42 -42 -42s-42 19 -42 42zM252 108c0 23 19 42 42 42s42 -19 42 -42c0 -22 -19 -41 -42 -41s-42 19 -42 41z" />
    <glyph glyph-name="a" unicode="a" horiz-adv-x="478" 
d="M235 487c140 0 185 -72 185 -164v-323h-33c-7 15 -8 42 -8 78h-4c-48 -74 -124 -86 -181 -86c-87 0 -159 37 -159 135c0 101 87 160 227 160c35 0 74 -3 115 -11v39c0 66 -23 136 -140 136c-95 0 -132 -52 -135 -104h-36c-1 5 -1 9 -1 12c0 95 93 128 170 128zM195 26
c139 0 183 93 183 159v55c-43 10 -82 13 -116 13c-122 0 -185 -55 -185 -128c0 -55 38 -99 118 -99z" />
    <glyph glyph-name="B" unicode="B" horiz-adv-x="599" 
d="M424 354v-4c86 -23 125 -90 125 -166c0 -99 -63 -184 -216 -184h-268v674h264c122 0 198 -61 198 -174c0 -48 -27 -121 -103 -146zM320 635h-212v-264h224c82 0 151 40 151 127c0 102 -78 137 -163 137zM343 332h-235v-293h221c91 0 174 38 174 141
c0 105 -75 152 -160 152z" />
    <glyph glyph-name="ampersand" unicode="&#x26;" horiz-adv-x="716" 
d="M63 163c0 76 56 155 154 212c-50 57 -81 111 -81 160c0 68 50 141 143 141c87 0 135 -55 135 -123c0 -77 -58 -135 -142 -188c79 -99 163 -187 256 -266c77 62 111 154 111 232c0 63 -23 120 -99 156c2 5 8 24 11 28c83 -28 126 -97 126 -181c0 -83 -37 -187 -122 -258
c36 -30 74 -58 113 -85l-21 -28c-43 28 -84 57 -123 89c-57 -37 -132 -61 -226 -61c-128 0 -235 43 -235 172zM297 25c82 0 148 20 199 51c-88 75 -170 162 -258 271c-88 -53 -135 -115 -135 -181c0 -93 78 -141 194 -141zM278 641c-76 0 -99 -66 -99 -104
c0 -53 35 -98 71 -143c69 43 121 84 121 156c0 52 -36 91 -93 91z" />
    <glyph glyph-name="tonos" unicode="&#x384;" horiz-adv-x="488" 
d="M251 539l-25 12l68 161l50 -20z" />
    <glyph glyph-name="dieresistonos" unicode="&#x385;" horiz-adv-x="488" 
d="M239 539l-25 12l68 161l50 -20zM136 596c0 17 13 31 30 31s31 -14 31 -31c0 -16 -14 -30 -31 -30s-30 14 -30 30zM319 596c0 17 13 31 30 31s31 -14 31 -31c0 -16 -14 -30 -31 -30s-30 14 -30 30z" />
    <glyph glyph-name="dieresis" unicode="&#xa8;" horiz-adv-x="488" 
d="M142 598c0 17 13 31 30 31s31 -14 31 -31c0 -16 -14 -30 -31 -30s-30 14 -30 30zM301 598c0 17 13 31 30 31s31 -14 31 -31c0 -16 -14 -30 -31 -30s-30 14 -30 30z" />
    <glyph glyph-name="circumflex" unicode="&#x2c6;" horiz-adv-x="488" 
d="M378 545l-131 103c-32 -27 -99 -78 -132 -104c-1 2 -16 16 -18 19c33 29 100 95 134 126h36c32 -30 99 -96 130 -126z" />
    <glyph glyph-name="caron" unicode="&#x2c7;" horiz-adv-x="488" 
d="M245 589l130 101l20 -18c-32 -30 -98 -95 -130 -125h-36c-34 31 -102 96 -135 125c3 3 18 17 19 19c33 -26 100 -76 132 -102z" />
    <glyph glyph-name="tilde" unicode="&#x2dc;" horiz-adv-x="485" 
d="M307 574c-45 0 -95 37 -132 37c-23 0 -40 -9 -62 -41l-24 15c17 43 54 64 88 64c44 0 93 -37 129 -37c26 0 43 9 64 41l25 -15c-18 -45 -54 -64 -88 -64z" />
    <glyph glyph-name="Grave" unicode="&#xf6ce;" horiz-adv-x="648" 
d="M359 749l-15 -22l-158 85l34 42z" />
    <glyph glyph-name="Acute" unicode="&#xf6c9;" horiz-adv-x="648" 
d="M307 728l-16 22l140 105l33 -42z" />
    <glyph glyph-name="Dieresis" unicode="&#xf6cb;" horiz-adv-x="665" 
d="M231 782c0 17 13 31 30 31s31 -14 31 -31c0 -16 -14 -30 -31 -30s-30 14 -30 30zM390 782c0 17 13 31 30 31s31 -14 31 -31c0 -16 -14 -30 -31 -30s-30 14 -30 30z" />
    <glyph glyph-name="ugrave" unicode="&#xf9;" horiz-adv-x="505" 
d="M445 479v-479h-32c-9 19 -9 43 -9 80h-4c-43 -70 -113 -88 -162 -88c-156 0 -180 99 -180 208v279h44v-275c0 -93 16 -176 143 -176c106 0 157 89 157 180v271h43zM299 560l-22 -17l-131 131l43 32z" />
    <glyph glyph-name="perthousand" unicode="&#x2030;" horiz-adv-x="1165" 
d="M206 -30h-40l420 734h40zM203 679c129 0 166 -96 166 -201c0 -99 -39 -194 -166 -194c-129 0 -169 79 -169 193c0 119 48 202 169 202zM202 645c-97 0 -129 -68 -129 -168c0 -110 44 -161 129 -161c76 0 127 51 127 162c0 99 -35 167 -127 167zM608 390
c129 0 166 -95 166 -201c0 -98 -39 -194 -166 -194c-129 0 -169 80 -169 193c0 120 48 202 169 202zM607 357c-97 0 -129 -69 -129 -169c0 -109 44 -160 129 -160c76 0 127 51 127 161c0 99 -35 168 -127 168zM972 390c129 0 166 -95 166 -201c0 -98 -39 -194 -166 -194
c-129 0 -169 80 -169 193c0 120 48 202 169 202zM971 357c-97 0 -129 -69 -129 -169c0 -109 44 -160 129 -160c76 0 127 51 127 161c0 99 -35 168 -127 168z" />
    <glyph glyph-name="cedilla" unicode="&#xb8;" horiz-adv-x="482" 
d="M251 -205c-28 0 -54 4 -86 17c4 8 6 17 10 25c32 -11 57 -14 72 -14c31 0 66 15 66 49c0 32 -28 47 -60 47c-12 0 -24 -1 -36 -6l-19 12l48 87h33c-13 -21 -26 -44 -38 -66c10 1 20 1 28 1c65 -4 84 -48 84 -73c0 -43 -33 -78 -102 -79z" />
    <glyph glyph-name="afii00208" unicode="&#x2015;" horiz-adv-x="1005" 
d="M23 235v36h962v-36h-962z" />
    <glyph glyph-name="otilde" unicode="&#xf5;" horiz-adv-x="528" 
d="M266 487c166 0 212 -122 212 -249c0 -125 -49 -246 -212 -246s-216 95 -216 243c0 144 61 252 216 252zM266 450c-126 0 -173 -91 -173 -215c0 -137 49 -206 173 -206c106 0 168 65 168 209c0 121 -42 212 -168 212zM327 574c-45 0 -95 37 -132 37c-23 0 -40 -9 -62 -41
l-24 15c17 43 54 64 88 64c44 0 93 -37 129 -37c26 0 43 9 64 41l25 -15c-18 -45 -54 -64 -88 -64z" />
    <glyph glyph-name="sterling" unicode="&#xa3;" horiz-adv-x="579" 
d="M315 619c-106 0 -164 -59 -164 -146c0 -27 13 -79 26 -114h195v-33h-187c13 -59 13 -88 13 -111c0 -62 -18 -125 -53 -179h359v-36h-439v36h34c38 51 59 128 59 182c0 26 -5 62 -17 108h-75v33h68c-18 61 -24 92 -24 122c0 97 70 175 203 175c113 0 198 -55 198 -138
c0 -4 0 -8 -1 -14h-35c-3 60 -52 115 -160 115z" />
    <glyph glyph-name="trademark" unicode="&#x2122;" horiz-adv-x="694" 
d="M477 455h5c39 73 80 146 119 220h34v-368h-33v295c-1 0 -3 1 -4 1l-106 -198h-26c-35 66 -71 132 -107 198c-1 0 -2 -1 -3 -1v-295h-34v368h36zM178 644v-337h-35v337h-108v31h255v-31h-112z" />
    <glyph glyph-name="bullet" unicode="&#x2022;" horiz-adv-x="395" 
d="M100 250c0 53 43 96 96 96s96 -43 96 -96s-43 -96 -96 -96s-96 43 -96 96z" />
    <glyph glyph-name="brokenbar" unicode="&#xa6;" horiz-adv-x="327" 
d="M138 264h42v-385h-42v385zM180 353h-42v360h42v-360z" />
    <glyph glyph-name="Euro" unicode="&#x20ac;" horiz-adv-x="579" 
d="M338 656c111 0 207 -54 207 -159c0 -3 0 -8 -1 -13h-35c-4 68 -49 134 -175 134c-134 0 -202 -89 -212 -227h337v-29h-434v29h54c11 156 93 265 259 265zM336 31c139 0 182 78 185 151h35c1 -7 1 -11 1 -15c0 -108 -95 -174 -222 -174c-184 0 -252 111 -258 285h-51v30
h434v-30h-340c5 -167 76 -247 216 -247z" />
    <glyph glyph-name="dotlessi" unicode="&#x131;" horiz-adv-x="222" 
d="M90 0v479h42v-479h-42z" />
    <glyph glyph-name="icircumflex" unicode="&#xee;" horiz-adv-x="222" 
d="M90 0v479h42v-479h-42zM242 545l-131 103c-32 -27 -99 -78 -132 -104c-1 2 -16 16 -18 19c33 29 100 95 134 126h36c32 -30 99 -96 130 -126z" />
    <glyph glyph-name="idieresis" unicode="&#xef;" horiz-adv-x="222" 
d="M1 598c0 17 13 31 30 31s31 -14 31 -31c0 -16 -14 -30 -31 -30s-30 14 -30 30zM160 598c0 17 13 31 30 31s31 -14 31 -31c0 -16 -14 -30 -31 -30s-30 14 -30 30zM90 0v479h42v-479h-42z" />
    <glyph glyph-name="ocircumflex" unicode="&#xf4;" horiz-adv-x="528" 
d="M266 487c166 0 212 -122 212 -249c0 -125 -49 -246 -212 -246s-216 95 -216 243c0 144 61 252 216 252zM266 450c-126 0 -173 -91 -173 -215c0 -137 49 -206 173 -206c106 0 168 65 168 209c0 121 -42 212 -168 212zM398 545l-131 103c-32 -27 -99 -78 -132 -104
c-1 2 -16 16 -18 19c33 29 100 95 134 126h36c32 -30 99 -96 130 -126z" />
    <glyph glyph-name="odieresis" unicode="&#xf6;" horiz-adv-x="528" 
d="M266 487c166 0 212 -122 212 -249c0 -125 -49 -246 -212 -246s-216 95 -216 243c0 144 61 252 216 252zM266 450c-126 0 -173 -91 -173 -215c0 -137 49 -206 173 -206c106 0 168 65 168 209c0 121 -42 212 -168 212zM157 598c0 17 13 31 30 31s31 -14 31 -31
c0 -16 -14 -30 -31 -30s-30 14 -30 30zM316 598c0 17 13 31 30 31s31 -14 31 -31c0 -16 -14 -30 -31 -30s-30 14 -30 30z" />
    <glyph glyph-name="ucircumflex" unicode="&#xfb;" horiz-adv-x="505" 
d="M445 479v-479h-32c-9 19 -9 43 -9 80h-4c-43 -70 -113 -88 -162 -88c-156 0 -180 99 -180 208v279h44v-275c0 -93 16 -176 143 -176c106 0 157 89 157 180v271h43zM389 545l-131 103c-32 -27 -99 -78 -132 -104c-1 2 -16 16 -18 19c33 29 100 95 134 126h36
c32 -30 99 -96 130 -126z" />
    <glyph glyph-name="udieresis" unicode="&#xfc;" horiz-adv-x="505" 
d="M445 479v-479h-32c-9 19 -9 43 -9 80h-4c-43 -70 -113 -88 -162 -88c-156 0 -180 99 -180 208v279h44v-275c0 -93 16 -176 143 -176c106 0 157 89 157 180v271h43zM141 598c0 17 13 31 30 31s31 -14 31 -31c0 -16 -14 -30 -31 -30s-30 14 -30 30zM300 598
c0 17 13 31 30 31s31 -14 31 -31c0 -16 -14 -30 -31 -30s-30 14 -30 30z" />
    <glyph glyph-name="Gamma" unicode="&#x393;" horiz-adv-x="513" 
d="M65 0v674h429v-40h-387v-634h-42z" />
    <glyph glyph-name="Alpha" unicode="&#x391;" horiz-adv-x="579" 
d="M522 0l-70 183h-328l-68 -183h-46l255 675h47l257 -675h-47zM291 619h-7c-20 -63 -42 -123 -65 -184l-81 -214h302l-82 212c-23 60 -45 122 -67 186z" />
    <glyph glyph-name="Iotadieresis" unicode="&#x3aa;" horiz-adv-x="213" 
d="M85 0v674h43v-674h-43zM-4 782c0 17 13 31 30 31s31 -14 31 -31c0 -16 -14 -30 -31 -30s-30 14 -30 30zM155 782c0 17 13 31 30 31s31 -14 31 -31c0 -16 -14 -30 -31 -30s-30 14 -30 30z" />
    <glyph glyph-name="periodcentered" unicode="&#xb7;" horiz-adv-x="203" 
d="M58 255c0 25 19 46 44 46s45 -21 45 -46c0 -24 -20 -44 -45 -44s-44 20 -44 44z" />
    <glyph glyph-name="Sigma" unicode="&#x3a3;" horiz-adv-x="554" 
d="M35 40l231 319l-228 277v39h480v-39h-427l229 -277l-233 -319h446v-40h-498v40z" />
    <glyph glyph-name="Lambda" unicode="&#x39b;" horiz-adv-x="585" 
d="M525 0l-166 436c-23 60 -44 121 -66 181h-6c-20 -60 -42 -120 -64 -179l-165 -438h-47l256 674h47l259 -674h-48z" />
    <glyph glyph-name="Pi" unicode="&#x3a0;" horiz-adv-x="637" 
d="M528 0v635h-420v-635h-43v674h507v-674h-44z" />
    <glyph glyph-name="logicalnot" unicode="&#xac;" horiz-adv-x="579" 
d="M479 287v-202h-40v166h-340v36h380z" />
    <glyph glyph-name="section" unicode="&#xa7;" horiz-adv-x="523" 
d="M461 274c0 -53 -37 -106 -103 -130c63 -29 89 -67 89 -121c0 -61 -52 -140 -197 -140c-85 0 -182 36 -182 130c0 2 0 7 1 11h38c4 -53 50 -105 145 -105c97 0 151 44 151 104c0 61 -58 92 -138 110c-107 24 -195 63 -195 160c0 51 36 102 99 128c-52 24 -82 60 -82 111
c0 62 42 143 184 143c84 0 173 -36 173 -130c0 -2 0 -6 -1 -10h-37c-3 53 -42 105 -137 105c-92 0 -140 -45 -140 -106c0 -62 62 -85 138 -102c104 -24 194 -65 194 -158zM420 273c0 72 -80 113 -201 131c-69 -19 -109 -65 -109 -109c0 -82 86 -114 188 -132
c71 10 122 53 122 110z" />
    <glyph glyph-name="notequal" unicode="&#x2260;" horiz-adv-x="579" 
d="M426 458l-60 -97h113v-35h-136l-69 -114h205v-35h-228c-23 -36 -45 -73 -67 -109l-29 18l55 91h-111v35h134l69 114h-203v35h225l70 114z" />
    <glyph glyph-name="lessequal" unicode="&#x2264;" horiz-adv-x="579" 
d="M100 255v33c126 54 253 108 379 163v-40l-327 -138l327 -138v-40c-126 53 -253 106 -379 160zM99 36h380v-36h-380v36z" />
    <glyph glyph-name="greaterequal" unicode="&#x2265;" horiz-adv-x="579" 
d="M477 288v-33c-126 -54 -252 -107 -378 -160v40l326 138l-326 138v40c126 -55 252 -109 378 -163zM99 36h380v-36h-380v36z" />
    <glyph glyph-name="approxequal" unicode="&#x2248;" horiz-adv-x="579" 
d="M384 303c-78 0 -127 52 -192 52c-28 0 -53 -12 -84 -43l-24 19c28 39 68 63 111 63c65 0 127 -53 192 -53c24 0 54 12 83 42l24 -18c-28 -37 -69 -62 -110 -62zM384 146c-78 0 -127 52 -192 52c-28 0 -53 -12 -84 -44l-24 20c28 39 68 62 111 62c65 0 127 -52 192 -52
c24 0 54 11 83 41l24 -17c-28 -38 -69 -62 -110 -62z" />
    <glyph glyph-name="ae" unicode="&#xe6;" horiz-adv-x="836" 
d="M594 28c119 0 147 64 149 118h36c1 -6 1 -10 1 -14c0 -92 -86 -140 -187 -140c-100 0 -157 40 -184 104c-67 -91 -147 -104 -216 -104c-86 0 -158 39 -158 133c0 92 65 146 203 146h143v42c0 56 -20 137 -143 137c-96 0 -133 -51 -137 -104h-36c-1 5 -1 9 -1 12
c0 97 101 128 174 128c99 0 156 -43 174 -108c29 65 86 109 179 109c133 0 194 -86 194 -201c0 -16 -1 -33 -3 -50h-356c0 -141 54 -208 168 -208zM197 26c124 0 171 65 197 104c-8 34 -11 59 -11 105h-142c-115 0 -163 -40 -163 -110c0 -55 38 -99 119 -99zM591 450
c-114 0 -156 -84 -162 -180h312c0 96 -29 180 -150 180z" />
    <glyph glyph-name="degree" unicode="&#xb0;" horiz-adv-x="450" 
d="M213 413c-71 0 -130 56 -130 125c0 70 59 124 130 124s130 -54 130 -124c0 -69 -59 -125 -130 -125zM212 630c-50 0 -95 -40 -95 -92c0 -50 45 -93 95 -93c51 0 95 43 95 93c0 51 -44 92 -95 92z" />
    <glyph glyph-name="Delta" unicode="&#x394;" horiz-adv-x="584" 
d="M573 0h-562l255 674h48zM293 619h-7c-22 -68 -58 -166 -83 -231l-129 -348h435l-132 352z" />
    <glyph glyph-name="Delta" unicode="&#x2206;" horiz-adv-x="584" 
d="M573 0h-562l255 674h48zM293 619h-7c-22 -68 -58 -166 -83 -231l-129 -348h435l-132 352z" />
    <glyph glyph-name="Theta" unicode="&#x398;" horiz-adv-x="684" 
d="M172 330v38h341v-38h-341zM346 681c221 0 283 -166 283 -350c0 -171 -64 -338 -287 -338c-215 0 -287 137 -287 337c0 207 83 351 291 351zM344 642c-177 0 -245 -126 -245 -312c0 -205 86 -299 242 -299c153 0 242 93 242 299c0 185 -64 312 -239 312z" />
    <glyph glyph-name="Xi" unicode="&#x39e;" horiz-adv-x="552" 
d="M31 40h491v-40h-491v40zM76 370h398v-39h-398v39zM506 634h-464v40h464v-40z" />
    <glyph glyph-name="Beta" unicode="&#x392;" horiz-adv-x="599" 
d="M424 354v-4c86 -23 125 -90 125 -166c0 -99 -63 -184 -216 -184h-268v674h264c122 0 198 -61 198 -174c0 -48 -27 -121 -103 -146zM320 635h-212v-264h224c82 0 151 40 151 127c0 102 -78 137 -163 137zM343 332h-235v-293h221c91 0 174 38 174 141
c0 105 -75 152 -160 152z" />
    <glyph glyph-name="Epsilon" unicode="&#x395;" horiz-adv-x="529" 
d="M65 0v674h418v-39h-375v-266h346v-39h-346v-290h388v-40h-431z" />
    <glyph glyph-name="Zeta" unicode="&#x396;" horiz-adv-x="542" 
d="M27 0v38l425 597h-408v40h461v-37l-425 -599h435v-39h-488z" />
    <glyph glyph-name="Eta" unicode="&#x397;" horiz-adv-x="638" 
d="M528 0v330h-420v-330h-43v675h43v-306h420v306h45v-675h-45z" />
    <glyph glyph-name="Iota" unicode="&#x399;" horiz-adv-x="213" 
d="M85 0v674h43v-674h-43z" />
    <glyph glyph-name="Kappa" unicode="&#x39a;" horiz-adv-x="532" 
d="M108 674v-304h124l236 304h51l-251 -322l260 -352h-56l-240 330h-124v-330h-43v674h43z" />
    <glyph glyph-name="Mu" unicode="&#x39c;" horiz-adv-x="771" 
d="M119 674l134 -266c66 -131 98 -194 129 -259h6c43 91 95 187 139 283l123 242h54v-674h-45v599h-4c-25 -56 -53 -110 -81 -165l-168 -333h-43l-190 371c-21 41 -40 86 -60 127h-4v-599h-43v674h53z" />
    <glyph glyph-name="Nu" unicode="&#x39d;" horiz-adv-x="643" 
d="M113 596c-1 -1 -3 -1 -5 -1v-595h-43v674h40l241 -335c60 -86 123 -175 182 -261h5v596h45v-674h-42l-310 430c-39 53 -76 109 -113 166z" />
    <glyph glyph-name="Omicron" unicode="&#x39f;" horiz-adv-x="666" 
d="M336 681c220 0 275 -166 275 -350c0 -171 -60 -338 -282 -338c-213 0 -274 137 -274 337c0 207 75 351 281 351zM334 642c-175 0 -236 -126 -236 -312c0 -205 76 -299 230 -299c151 0 237 94 237 300c0 185 -58 311 -231 311z" />
    <glyph glyph-name="Rho" unicode="&#x3a1;" horiz-adv-x="552" 
d="M318 253h-210v-253h-43v674h255c140 0 216 -95 216 -213c0 -88 -49 -208 -218 -208zM315 635h-207v-342h206c87 0 177 42 177 168c0 107 -73 174 -176 174z" />
    <glyph glyph-name="Tau" unicode="&#x3a4;" horiz-adv-x="544" 
d="M296 635v-635h-44v635h-237v39h514v-39h-233z" />
    <glyph glyph-name="Upsilon" unicode="&#x3a5;" horiz-adv-x="527" 
d="M256 318h7c5 13 90 161 96 173l105 183h51l-234 -402v-272h-45v271l-226 403h50l101 -180c31 -56 65 -117 95 -176z" />
    <glyph glyph-name="Chi" unicode="&#x3a7;" horiz-adv-x="519" 
d="M474 0l-207 316c-69 -105 -138 -212 -207 -316h-52l234 349l-215 325h50c63 -98 127 -195 190 -292l192 292h50l-216 -325c78 -115 157 -234 234 -349h-53z" />
    <glyph glyph-name="eta" unicode="&#x3b7;" horiz-adv-x="515" 
d="M277 488c155 0 179 -101 179 -205v-283h-43v274c0 78 -10 178 -143 178c-111 0 -168 -90 -168 -181v-271h-42v479h32c9 -19 9 -42 9 -79h4c43 70 119 88 172 88z" />
    <glyph glyph-name="iota" unicode="&#x3b9;" horiz-adv-x="222" 
d="M90 0v479h43v-479h-43z" />
    <glyph glyph-name="kappa" unicode="&#x3ba;" horiz-adv-x="443" 
d="M377 479h48l-180 -219l190 -260h-52c-58 79 -115 159 -173 239h-108v-239h-42v479h42v-203h106z" />
    <glyph glyph-name="nu" unicode="&#x3bd;" horiz-adv-x="434" 
d="M214 44h5c24 79 54 160 88 248l71 187h43l-182 -482h-48l-181 482h44l74 -196c29 -77 61 -159 86 -239z" />
    <glyph glyph-name="omicron" unicode="&#x3bf;" horiz-adv-x="528" 
d="M266 487c166 0 212 -122 212 -249c0 -125 -49 -246 -212 -246s-216 95 -216 243c0 144 61 252 216 252zM266 450c-126 0 -173 -91 -173 -215c0 -137 49 -206 173 -206c106 0 168 65 168 209c0 121 -42 212 -168 212z" />
    <glyph glyph-name="chi" unicode="&#x3c7;" horiz-adv-x="408" 
d="M360 0l-150 216l-149 -216h-51l175 248l-164 231h51l138 -200c9 14 129 187 137 200h50l-162 -231l175 -248h-50z" />
    <glyph glyph-name="iotadieresis" unicode="&#x3ca;" horiz-adv-x="222" 
d="M90 0v479h43v-479h-43zM2 598c0 17 13 31 30 31s31 -14 31 -31c0 -16 -14 -30 -31 -30s-30 14 -30 30zM161 598c0 17 13 31 30 31s31 -14 31 -31c0 -16 -14 -30 -31 -30s-30 14 -30 30z" />
    <glyph glyph-name="iotadieresistonos" unicode="&#x390;" horiz-adv-x="222" 
d="M90 0v479h43v-479h-43zM105 539l-25 12l68 161l50 -20zM2 596c0 17 13 31 30 31s31 -14 31 -31c0 -16 -14 -30 -31 -30s-30 14 -30 30zM185 596c0 17 13 31 30 31s31 -14 31 -31c0 -16 -14 -30 -31 -30s-30 14 -30 30z" />
    <glyph glyph-name="alpha" unicode="&#x3b1;" horiz-adv-x="523" 
d="M257 487c75 0 130 -25 162 -79h4c0 32 3 56 9 71h31v-479h-33c-7 17 -8 49 -8 86h-4c-40 -70 -101 -94 -166 -94c-154 0 -202 101 -202 245c0 139 62 250 207 250zM257 29c117 0 164 104 164 185v67c0 101 -57 171 -161 171c-112 0 -167 -76 -167 -215
c0 -125 39 -208 164 -208z" />
    <glyph glyph-name="alphatonos" unicode="&#x3ac;" horiz-adv-x="523" 
d="M257 487c75 0 130 -25 162 -79h4c0 32 3 56 9 71h31v-479h-33c-7 17 -8 49 -8 86h-4c-40 -70 -101 -94 -166 -94c-154 0 -202 101 -202 245c0 139 62 250 207 250zM257 29c117 0 164 104 164 185v67c0 101 -57 171 -161 171c-112 0 -167 -76 -167 -215
c0 -125 39 -208 164 -208zM265 539l-25 12l68 161l50 -20z" />
    <glyph glyph-name="Upsilondieresis" unicode="&#x3ab;" horiz-adv-x="527" 
d="M256 318h7c5 13 90 161 96 173l105 183h51l-234 -402v-272h-45v271l-226 403h50l101 -180c31 -56 65 -117 95 -176zM150 776c0 17 13 31 30 31s31 -14 31 -31c0 -16 -14 -30 -31 -30s-30 14 -30 30zM309 776c0 17 13 31 30 31s31 -14 31 -31c0 -16 -14 -30 -31 -30
s-30 14 -30 30z" />
    <glyph glyph-name="Alphatonos" unicode="&#x386;" horiz-adv-x="579" 
d="M522 0l-70 183h-328l-68 -183h-46l255 675h47l257 -675h-47zM291 619h-7c-20 -63 -42 -123 -65 -184l-81 -214h302l-82 212c-23 60 -45 122 -67 186zM20 532l-25 12l68 161l50 -20z" />
    <glyph glyph-name="Epsilontonos" unicode="&#x388;" horiz-adv-x="530" 
d="M66 0v674h418v-39h-375v-266h346v-39h-346v-290h388v-40h-431zM-95 532l-25 12l68 161l50 -20z" />
    <glyph glyph-name="Etatonos" unicode="&#x389;" horiz-adv-x="638" 
d="M528 0v330h-420v-330h-43v675h43v-306h420v306h45v-675h-45zM-89 532l-25 12l68 161l50 -20z" />
    <glyph glyph-name="Iotatonos" unicode="&#x38a;" horiz-adv-x="213" 
d="M85 0v674h43v-674h-43zM-72 532l-25 12l68 161l50 -20z" />
    <glyph glyph-name="Omicrontonos" unicode="&#x38c;" horiz-adv-x="666" 
d="M336 681c220 0 275 -166 275 -350c0 -171 -60 -338 -282 -338c-213 0 -274 137 -274 337c0 207 75 351 281 351zM334 642c-175 0 -236 -126 -236 -312c0 -205 76 -299 230 -299c151 0 237 94 237 300c0 185 -58 311 -231 311zM-46 532l-25 12l68 161l50 -20z" />
    <glyph glyph-name="Upsilontonos" unicode="&#x38e;" horiz-adv-x="527" 
d="M256 318h7c5 13 90 161 96 173l105 183h51l-234 -402v-272h-45v271l-226 403h50l101 -180c31 -56 65 -117 95 -176zM-119 532l-25 12l68 161l50 -20z" />
    <glyph glyph-name="mu" unicode="&#xb5;" horiz-adv-x="506" 
d="M446 479v-479h-34c-9 19 -8 45 -8 82h-4c-43 -73 -110 -90 -159 -90c-71 0 -113 21 -140 58v-251h-43v680h44v-276c0 -90 18 -175 144 -175c105 0 157 89 157 180v271h43z" />
    <glyph glyph-name="mu" unicode="&#x3bc;" horiz-adv-x="506" 
d="M446 479v-479h-34c-9 19 -8 45 -8 82h-4c-43 -73 -110 -90 -159 -90c-71 0 -113 21 -140 58v-251h-43v680h44v-276c0 -90 18 -175 144 -175c105 0 157 89 157 180v271h43z" />
    <glyph glyph-name="lambda" unicode="&#x3bb;" horiz-adv-x="440" 
d="M224 440h-5c-20 -58 -41 -114 -64 -174l-102 -266h-44c61 160 123 320 185 480h17l-41 123c-21 62 -38 71 -78 71h-31v37h44c78 0 89 -43 120 -138l164 -508c8 -25 15 -32 42 -30l4 -28c-14 -6 -26 -9 -37 -9c-40 0 -51 55 -67 105l-49 156c-19 59 -41 123 -58 181z" />
    <glyph glyph-name="tau" unicode="&#x3c4;" horiz-adv-x="364" 
d="M346 442h-166c0 -99 -1 -197 -1 -295c0 -88 34 -118 106 -118c15 0 48 1 65 3v-34c-19 -3 -53 -4 -70 -4c-107 0 -143 42 -143 158v290h-122v37h331v-37z" />
    <glyph glyph-name="Phi" unicode="&#x3a6;" horiz-adv-x="721" 
d="M387 675v-29c226 -11 284 -152 284 -298c0 -132 -69 -277 -284 -291v-57h-44v56c-216 12 -293 135 -293 291c0 165 88 291 293 299v29h44zM93 347c0 -158 83 -243 250 -254v517c-181 -9 -250 -120 -250 -263zM626 348c0 143 -59 254 -239 262v-517c147 11 239 98 239 255
z" />
    <glyph glyph-name="Psi" unicode="&#x3a8;" horiz-adv-x="681" 
d="M321 0v181c-208 10 -279 123 -279 273v220h44v-219c0 -159 88 -224 235 -234v454h45v-454c138 11 229 80 229 235v218h43v-220c0 -128 -70 -261 -272 -273v-181h-45z" />
    <glyph glyph-name="Omega" unicode="&#x3a9;" horiz-adv-x="697" 
d="M349 643c-169 0 -249 -125 -249 -303c0 -186 58 -260 163 -296v-44h-227v40h141l1 4c-93 53 -121 159 -121 293c0 195 89 345 294 345c212 0 291 -165 291 -342c0 -120 -38 -242 -128 -296l1 -4h144v-40h-227v43c102 34 164 122 164 299c0 178 -81 301 -247 301z" />
    <glyph glyph-name="Omegatonos" unicode="&#x38f;" horiz-adv-x="697" 
d="M349 643c-169 0 -249 -125 -249 -303c0 -186 58 -260 163 -296v-44h-227v40h141l1 4c-93 53 -121 159 -121 293c0 195 89 345 294 345c212 0 291 -165 291 -342c0 -120 -38 -242 -128 -296l1 -4h144v-40h-227v43c102 34 164 122 164 299c0 178 -81 301 -247 301zM-45 532
l-25 12l68 161l50 -20z" />
    <glyph glyph-name="etatonos" unicode="&#x3ae;" horiz-adv-x="515" 
d="M277 488c155 0 179 -101 179 -205v-283h-43v274c0 78 -10 178 -143 178c-111 0 -168 -90 -168 -181v-271h-42v479h32c9 -19 9 -42 9 -79h4c43 70 119 88 172 88zM231 539l-25 12l68 161l50 -20z" />
    <glyph glyph-name="iotatonos" unicode="&#x3af;" horiz-adv-x="222" 
d="M116 539l-25 12l68 161l50 -20zM90 0v479h42v-479h-42z" />
    <glyph glyph-name="omicrontonos" unicode="&#x3cc;" horiz-adv-x="528" 
d="M266 487c166 0 212 -122 212 -249c0 -125 -49 -246 -212 -246s-216 95 -216 243c0 144 61 252 216 252zM266 450c-126 0 -173 -91 -173 -215c0 -137 49 -206 173 -206c106 0 168 65 168 209c0 121 -42 212 -168 212zM272 539l-25 12l68 161l50 -20z" />
    <glyph glyph-name="pi" unicode="&#x3c0;" horiz-adv-x="526" 
d="M423 442h-321v-442h-42v479h406v-479h-43v442z" />
    <glyph glyph-name="sigma" unicode="&#x3c3;" horiz-adv-x="534" 
d="M390 446l-2 -4c63 -35 90 -109 90 -210c0 -109 -46 -240 -211 -240s-216 100 -216 239c0 134 56 248 216 248h239v-37h-37c-25 0 -57 1 -79 4zM267 444c-133 0 -173 -98 -173 -213c0 -130 49 -203 173 -203c106 0 168 74 168 204c0 124 -43 212 -168 212z" />
    <glyph glyph-name="rho" unicode="&#x3c1;" horiz-adv-x="526" 
d="M264 29c121 0 168 82 168 213c0 142 -63 209 -165 209c-124 0 -165 -99 -165 -188v-52c0 -91 46 -182 162 -182zM59 -200v444c0 140 59 243 209 243c160 0 208 -117 208 -248c0 -124 -47 -247 -207 -247c-68 0 -134 24 -163 90h-5v-282h-42z" />
    <glyph glyph-name="delta" unicode="&#x3b4;" horiz-adv-x="528" 
d="M94 230c0 -124 45 -202 171 -202c125 0 169 103 169 203c0 69 -18 138 -70 200c-28 4 -53 6 -78 6c-126 0 -192 -74 -192 -207zM446 659h-288c217 -139 320 -259 320 -424c0 -153 -80 -242 -217 -242c-145 0 -211 84 -211 231c0 111 46 248 226 248c18 0 37 -1 58 -4
c-58 62 -121 113 -252 191v38h364v-38z" />
    <glyph glyph-name="upsilon" unicode="&#x3c5;" horiz-adv-x="515" 
d="M459 181c0 -128 -81 -189 -205 -189c-126 0 -198 62 -198 189v298h43v-298c0 -112 71 -153 156 -153c83 0 161 41 161 154v297h43v-298z" />
    <glyph glyph-name="upsilontonos" unicode="&#x3cd;" horiz-adv-x="515" 
d="M254 539l-25 12l68 161l50 -20zM459 181c0 -128 -81 -189 -205 -189c-126 0 -198 62 -198 189v298h43v-298c0 -112 71 -153 156 -153c83 0 161 41 161 154v297h43v-298z" />
    <glyph glyph-name="upsilondieresis" unicode="&#x3cb;" horiz-adv-x="515" 
d="M459 181c0 -128 -81 -189 -205 -189c-126 0 -198 62 -198 189v298h43v-298c0 -112 71 -153 156 -153c83 0 161 41 161 154v297h43v-298zM148 598c0 17 13 31 30 31s31 -14 31 -31c0 -16 -14 -30 -31 -30s-30 14 -30 30zM307 598c0 17 13 31 30 31s31 -14 31 -31
c0 -16 -14 -30 -31 -30s-30 14 -30 30z" />
    <glyph glyph-name="upsilondieresistonos" unicode="&#x3b0;" horiz-adv-x="515" 
d="M459 181c0 -128 -81 -189 -205 -189c-126 0 -198 62 -198 189v298h43v-298c0 -112 71 -153 156 -153c83 0 161 41 161 154v297h43v-298zM244 539l-25 12l68 161l50 -20zM141 596c0 17 13 31 30 31s31 -14 31 -31c0 -16 -14 -30 -31 -30s-30 14 -30 30zM324 596
c0 17 13 31 30 31s31 -14 31 -31c0 -16 -14 -30 -31 -30s-30 14 -30 30z" />
    <glyph glyph-name="gamma" unicode="&#x3b3;" horiz-adv-x="425" 
d="M215 75h5c20 61 44 128 65 184l82 220h45l-173 -457v-223h-44v219l-140 392c-10 29 -14 36 -30 36c-3 0 -9 0 -13 -1l-4 34c15 5 26 8 36 8c28 0 37 -22 50 -58l58 -162c22 -62 44 -128 63 -192z" />
    <glyph glyph-name="sigma1" unicode="&#x3c2;" horiz-adv-x="448" 
d="M260 450c-125 0 -167 -87 -167 -218c0 -98 48 -126 174 -179c91 -38 118 -58 118 -94c0 -16 -18 -62 -62 -117l-32 20c31 47 45 81 45 95c0 19 -31 35 -101 64c-140 57 -186 105 -186 211c0 138 47 255 212 255c85 0 173 -38 173 -121c0 -7 -1 -15 -2 -23h-33
c-2 55 -42 107 -139 107z" />
    <glyph glyph-name="beta" unicode="&#x3b2;" horiz-adv-x="521" 
d="M102 -152h-42v657c0 120 59 211 187 211c125 0 186 -64 186 -162c0 -21 -15 -101 -84 -128v-5c85 -21 127 -102 127 -204c0 -116 -52 -225 -208 -225c-96 0 -141 45 -162 87h-4v-231zM247 680c-128 0 -144 -116 -144 -184v-286c0 -94 48 -182 167 -182
c105 0 162 70 162 194c0 148 -96 178 -150 178h-66v37h63c66 0 110 58 110 118c0 88 -59 125 -142 125z" />
    <glyph glyph-name="theta" unicode="&#x3b8;" horiz-adv-x="524" 
d="M262 716c182 0 212 -178 212 -365c0 -167 -30 -359 -212 -359c-174 0 -212 159 -212 357c0 206 45 367 212 367zM262 28c133 0 170 123 170 335h-340c0 -203 30 -335 170 -335zM262 680c-132 0 -164 -126 -170 -283h338c-4 158 -37 283 -168 283z" />
    <glyph glyph-name="omega" unicode="&#x3c9;" horiz-adv-x="778" 
d="M728 237c0 -119 -31 -245 -189 -245c-77 0 -127 43 -148 90h-5c-23 -43 -69 -90 -153 -90c-151 0 -183 106 -183 243c0 138 50 251 205 253v-38c-126 -4 -162 -92 -162 -213c0 -119 24 -209 143 -209c88 0 131 71 131 140v153h43v-161c0 -69 55 -132 130 -132
c118 0 145 97 145 209c0 115 -40 208 -162 213v38c152 -3 205 -117 205 -251z" />
    <glyph glyph-name="omegatonos" unicode="&#x3ce;" horiz-adv-x="778" 
d="M728 237c0 -119 -31 -245 -189 -245c-77 0 -127 43 -148 90h-5c-23 -43 -69 -90 -153 -90c-151 0 -183 106 -183 243c0 138 50 251 205 253v-38c-126 -4 -162 -92 -162 -213c0 -119 24 -209 143 -209c88 0 131 71 131 140v153h43v-161c0 -69 55 -132 130 -132
c118 0 145 97 145 209c0 115 -40 208 -162 213v38c152 -3 205 -117 205 -251zM386 539l-25 12l68 161l50 -20z" />
    <glyph glyph-name="epsilon" unicode="&#x3b5;" horiz-adv-x="448" 
d="M236 -8c-136 0 -189 64 -189 140c0 39 14 97 80 122v4c-58 19 -71 58 -71 95c0 73 51 134 179 134c90 0 170 -45 170 -131c0 -4 0 -8 -1 -13l-36 -1c-2 56 -41 109 -139 109c-68 0 -128 -31 -128 -96c0 -58 52 -77 96 -77h96v-39h-99c-64 0 -103 -46 -103 -104
s41 -108 144 -108c115 0 147 67 149 126h35c0 -6 1 -10 1 -14c0 -96 -77 -147 -184 -147z" />
    <glyph glyph-name="epsilontonos" unicode="&#x3ad;" horiz-adv-x="448" 
d="M225 539l-25 12l68 161l50 -20zM236 -8c-136 0 -189 64 -189 140c0 39 14 97 80 122v4c-58 19 -71 58 -71 95c0 73 51 134 179 134c90 0 170 -45 170 -131c0 -4 0 -8 -1 -13l-36 -1c-2 56 -41 109 -139 109c-68 0 -128 -31 -128 -96c0 -58 52 -77 96 -77h96v-39h-99
c-64 0 -103 -46 -103 -104s41 -108 144 -108c115 0 147 67 149 126h35c0 -6 1 -10 1 -14c0 -96 -77 -147 -184 -147z" />
    <glyph glyph-name="psi" unicode="&#x3c8;" horiz-adv-x="600" 
d="M274 -201v194c-134 6 -217 63 -217 208v278h44v-276c0 -125 75 -168 173 -174v450h43v-450c98 5 181 43 181 174v276h44v-278c0 -142 -91 -204 -225 -209v-193h-43z" />
    <glyph glyph-name="phi" unicode="&#x3c6;" horiz-adv-x="628" 
d="M335 448v-419c126 8 200 70 200 210c0 127 -53 208 -200 209zM292 29v456h44c196 0 242 -122 242 -246c0 -117 -56 -238 -243 -245v-195h-43v195c-195 5 -242 124 -242 245c0 102 39 196 135 230l14 -31c-74 -33 -106 -105 -106 -199c0 -143 71 -202 199 -210z" />
    <glyph glyph-name="xi" unicode="&#x3be;" horiz-adv-x="420" 
d="M254 714c86 0 173 -37 173 -128c0 -4 0 -10 -1 -16h-35c-2 54 -40 107 -137 107c-102 0 -143 -60 -143 -123c0 -98 93 -127 165 -127h94v-38h-103c-121 0 -174 -92 -174 -174c0 -91 57 -126 217 -174c87 -27 104 -49 104 -81c0 -15 -9 -46 -62 -118l-32 19
c36 60 45 85 45 94c0 19 -17 33 -81 52c-159 47 -234 94 -234 204c0 74 36 160 132 194v5c-86 26 -116 84 -116 145c0 76 53 160 188 159z" />
    <glyph glyph-name="zeta" unicode="&#x3b6;" horiz-adv-x="400" 
d="M295 33c76 -32 107 -49 107 -86c0 -22 -33 -76 -71 -119l-31 20c34 48 53 81 53 96c0 19 -31 32 -105 62c-129 53 -200 91 -200 203c0 134 168 315 328 454h-303v38h361v-37c-181 -156 -342 -325 -342 -456c0 -89 70 -122 203 -175z" />
    <glyph glyph-name="three" unicode="3" horiz-adv-x="579" 
d="M271 29c124 0 200 61 200 170c0 108 -74 156 -214 156c-10 0 -26 0 -36 -1l-20 29l238 220l-3 4h-351v38h418v-36l-235 -216l2 -4h9c144 0 235 -60 235 -188c0 -127 -94 -209 -242 -209c-122 0 -218 51 -218 160c0 5 0 11 2 18h35c4 -79 54 -141 180 -141z" />
    <glyph glyph-name="onesuperior" unicode="&#xb9;" horiz-adv-x="367" 
d="M318 411v-33h-271v33h115v312l-100 -15v28l106 28h33v-353h117z" />
    <glyph glyph-name="twosuperior" unicode="&#xb2;" horiz-adv-x="370" 
d="M184 770c100 0 139 -46 139 -100c0 -61 -62 -100 -117 -129c-86 -47 -134 -71 -135 -129h259v-34h-300v26c0 77 53 106 150 161c52 30 102 58 102 104c0 40 -29 68 -96 68c-78 0 -110 -41 -111 -87h-31c-2 8 -2 13 -2 16c0 68 65 103 142 104z" />
    <glyph glyph-name="threesuperior" unicode="&#xb3;" horiz-adv-x="369" 
d="M259 727c0 2 -1 3 -1 5h-212v32h277v-28l-142 -118c92 0 150 -42 150 -117c0 -77 -64 -127 -161 -127c-81 0 -144 33 -144 100c0 4 0 9 1 15h33c3 -46 32 -82 109 -82c76 0 123 34 123 93c0 62 -46 86 -126 86c-8 0 -19 0 -32 -2c-6 8 -11 17 -16 25z" />
    <glyph glyph-name="sfthyphen" unicode="&#xad;" horiz-adv-x="457" 
d="M101 228v44h254v-44h-254z" />
    <glyph glyph-name="acute" unicode="&#xb4;" horiz-adv-x="488" 
d="M238 547l-22 18l109 139l42 -34z" />
    <glyph glyph-name="space" unicode=" " horiz-adv-x="270" 
 />
    <glyph glyph-name="emdash" unicode="&#x2014;" horiz-adv-x="1005" 
d="M23 235v36h962v-36h-962z" />
    <glyph glyph-name="daggerdbl" unicode="&#x2021;" horiz-adv-x="548" 
d="M235 213v242h-168v39h167v196h46v-196h164v-39h-163v-242h163v-39h-163v-287h-46v287h-168v39h168z" />
    <glyph glyph-name="guilsinglleft" unicode="&#x2039;" horiz-adv-x="314" 
d="M226 24c-55 63 -108 127 -163 191v17c53 64 104 128 156 192l22 -16l-129 -185l137 -181z" />
    <glyph glyph-name="guilsinglright" unicode="&#x203a;" horiz-adv-x="310" 
d="M249 215l-162 -191l-23 18l137 181l-130 185l22 16c53 -64 104 -128 156 -192v-17z" />
    <glyph glyph-name="quotesinglbase" unicode="&#x201a;" horiz-adv-x="205" 
d="M60 35c0 24 18 44 42 44c25 0 44 -17 44 -43c0 -5 -1 -15 -6 -25l-73 -152l-18 6l45 128c-19 4 -34 21 -34 42z" />
    <glyph glyph-name="quotedblbase" unicode="&#x201e;" horiz-adv-x="323" 
d="M60 35c0 24 18 44 42 44c25 0 44 -17 44 -43c0 -5 -1 -15 -6 -25l-73 -152l-18 6l45 128c-19 4 -34 21 -34 42zM175 35c0 24 19 44 43 44c25 0 44 -17 44 -43c0 -5 -2 -15 -6 -25l-73 -152l-19 6l46 128c-20 4 -35 21 -35 42z" />
    <glyph glyph-name="exclamdown" unicode="&#xa1;" horiz-adv-x="283" 
d="M127 311h34l9 -523h-51c3 127 6 396 8 523zM103 441c0 22 18 41 41 41c22 0 41 -19 41 -41c0 -23 -19 -41 -41 -41c-23 0 -41 18 -41 41z" />
    <glyph glyph-name="questiondown" unicode="&#xbf;" horiz-adv-x="484" 
d="M252 -221c-135 0 -194 66 -194 158c0 56 37 108 94 161c55 51 102 102 102 194v24h45v-16c0 -83 -30 -150 -97 -212c-57 -52 -98 -96 -98 -148c0 -72 41 -122 147 -122c124 0 156 67 160 140h37c1 -6 1 -12 1 -16c0 -111 -86 -163 -197 -163zM320 444
c0 -23 -19 -41 -41 -41c-23 0 -41 18 -41 41c0 22 18 41 41 41c22 0 41 -19 41 -41z" />
    <glyph glyph-name="AE" unicode="&#xc6;" horiz-adv-x="935" 
d="M478 241h-259l-162 -241h-49l450 674h442v-36h-376v-285h343v-36h-343v-281h385v-36h-431v241zM479 628c-2 0 -3 1 -5 1l-136 -208c-31 -48 -64 -95 -93 -141h233c0 116 1 232 1 348z" />
    <glyph glyph-name="OE" unicode="&#x152;" horiz-adv-x="860" 
d="M334 681c26 0 49 -3 71 -7h422v-36h-376v-269h344v-36h-344v-297h385v-36h-427c-23 -5 -48 -8 -76 -8c-214 0 -281 138 -281 338c0 207 75 351 282 351zM332 27c26 0 50 3 73 10v599c-22 5 -46 9 -73 9c-176 0 -237 -127 -237 -315c0 -206 82 -303 237 -303z" />
    <glyph glyph-name="thorn" unicode="&#xfe;" horiz-adv-x="522" 
d="M266 27c119 0 164 92 164 218c0 140 -60 206 -165 206c-110 0 -163 -83 -163 -173v-67c0 -90 45 -184 164 -184zM60 -205v916h41v-162c0 -49 0 -98 -2 -148h4c39 64 104 86 169 86c149 0 201 -112 201 -242c0 -144 -60 -253 -207 -253c-90 0 -138 43 -160 86h-4v-283h-42
z" />
    <glyph glyph-name="Thorn" unicode="&#xde;" horiz-adv-x="561" 
d="M319 141h-209v-141h-44v673h43v-122h210c140 0 218 -90 218 -208c0 -88 -49 -202 -218 -202zM314 516h-205v-338h205c88 0 178 36 178 166c0 109 -74 172 -178 172z" />
    <glyph glyph-name="multiply" unicode="&#xd7;" horiz-adv-x="579" 
d="M120 129l141 141l-140 139c9 10 18 19 28 28l140 -139l140 139l28 -28l-140 -139l140 -141c-9 -10 -18 -19 -28 -28l-140 141l-141 -141z" />
    <glyph glyph-name="Oslash" unicode="&#xd8;" horiz-adv-x="666" 
d="M336 681c86 0 146 -25 189 -68l56 74l26 -21l-60 -78c48 -65 64 -159 64 -257c0 -171 -60 -338 -282 -338c-88 0 -150 23 -192 64l-56 -74l-27 20l61 79c-44 59 -60 145 -60 248c0 207 75 351 281 351zM565 331c0 89 -14 165 -48 219l-352 -458c37 -41 92 -61 163 -61
c151 0 237 94 237 300zM334 642c-175 0 -236 -126 -236 -312c0 -93 15 -162 46 -210l353 458c-36 41 -89 64 -163 64z" />
    <glyph glyph-name="oslash" unicode="&#xf8;" horiz-adv-x="528" 
d="M266 487c67 0 114 -20 147 -52l46 53l24 -20l-49 -57c32 -47 44 -109 44 -173c0 -125 -49 -246 -212 -246c-70 0 -120 17 -154 49l-43 -49l-23 19l46 53c-30 42 -42 100 -42 171c0 144 61 252 216 252zM266 450c-126 0 -173 -91 -173 -215c0 -59 9 -104 29 -137l263 306
c-26 29 -65 46 -119 46zM434 238c0 55 -9 103 -30 139l-264 -305c28 -29 69 -43 126 -43c106 0 168 65 168 209z" />
    <glyph glyph-name="breve" unicode="&#x2d8;" horiz-adv-x="490" 
d="M249 548c-101 0 -141 83 -142 139h36c0 -41 27 -101 107 -101c78 0 106 63 108 101h34c-2 -57 -43 -139 -143 -139z" />
    <glyph glyph-name="dotaccent" unicode="&#x2d9;" horiz-adv-x="490" 
d="M220 606c0 19 15 35 35 35c19 0 35 -16 35 -35c0 -20 -16 -35 -35 -35c-20 0 -35 15 -35 35z" />
    <glyph glyph-name="ring" unicode="&#x2da;" horiz-adv-x="488" 
d="M249 541c-51 0 -92 42 -92 92c0 49 41 91 92 91c53 0 94 -42 94 -91c0 -51 -42 -92 -94 -92zM249 696c-34 0 -61 -29 -61 -63s26 -64 61 -64c38 0 64 30 64 64c0 33 -26 63 -64 63z" />
    <glyph glyph-name="ogonek" unicode="&#x2db;" horiz-adv-x="490" 
d="M416 19l10 -11c-53 -49 -69 -97 -69 -128c0 -35 23 -51 64 -51c24 0 50 4 72 11l6 -19c-29 -14 -60 -22 -95 -22c-59 0 -88 28 -88 67c0 38 24 100 100 153z" />
    <glyph glyph-name="hungarumlaut" unicode="&#x2dd;" horiz-adv-x="488" 
d="M173 549l-22 18l109 139l42 -34zM288 549l-22 18l109 139l42 -34z" />
    <glyph glyph-name="Circumflex" unicode="&#xf6c0;" horiz-adv-x="648" 
d="M459 727l-131 89l-132 -90c-1 2 -16 18 -18 20l134 111h36l130 -110z" />
    <glyph glyph-name="commaaccent" unicode="&#xf6c3;" horiz-adv-x="658" 
d="M294 -87c0 22 17 40 38 40c23 0 40 -15 40 -39c0 -4 -1 -14 -5 -22l-57 -119l-17 6l33 97c-18 3 -32 18 -32 37z" />
    <glyph glyph-name="Caron" unicode="&#xf6ca;" horiz-adv-x="648" 
d="M327 767l131 89l19 -20l-129 -110h-37l-134 111c2 2 17 18 18 20z" />
    <glyph glyph-name="DieresisAcute" unicode="&#xf6cc;" horiz-adv-x="562" 
d="M259 722l-22 18l109 139l42 -34zM360 782c0 17 13 31 30 31s31 -14 31 -31c0 -16 -14 -30 -31 -30s-30 14 -30 30zM181 782c0 17 13 31 30 31s31 -14 31 -31c0 -16 -14 -30 -31 -30s-30 14 -30 30z" />
    <glyph glyph-name="DieresisGrave" unicode="&#xf6cd;" horiz-adv-x="562" 
d="M362 740l-22 -18l-129 123l42 34zM360 782c0 17 13 31 30 31s31 -14 31 -31c0 -16 -14 -30 -31 -30s-30 14 -30 30zM181 782c0 17 13 31 30 31s31 -14 31 -31c0 -16 -14 -30 -31 -30s-30 14 -30 30z" />
    <glyph glyph-name="Hungarumlaut" unicode="&#xf6cf;" horiz-adv-x="662" 
d="M245 729l-16 22l139 105l34 -42zM379 729l-15 22l139 105l34 -42z" />
    <glyph glyph-name="Macron" unicode="&#xf6d0;" horiz-adv-x="648" 
d="M184 761v40h286v-40h-286z" />
    <glyph glyph-name="cyrBreve" unicode="&#xf6d1;" horiz-adv-x="648" 
d="M325 729c-101 0 -141 85 -143 141h36c1 -40 28 -103 108 -103c77 0 106 65 107 103h35c-2 -57 -43 -141 -143 -141z" />
    <glyph glyph-name="cyrbreve" unicode="&#xf6d4;" horiz-adv-x="512" 
d="M273 550c-102 0 -141 85 -143 141h36c1 -40 28 -103 108 -103c77 0 106 65 107 103h35c-3 -57 -43 -141 -143 -141z" />
    <glyph glyph-name="uniF6DA" unicode="&#xf6da;" horiz-adv-x="540" 
d="M313 545l-25 -12l-111 189l51 21z" />
    <glyph glyph-name="uniF6DB" unicode="&#xf6db;" horiz-adv-x="514" 
d="M268 533l-26 12l85 198l51 -21z" />
    <glyph glyph-name="uniF6DC" unicode="&#xf6dc;" horiz-adv-x="484" 
d="M311 577c-46 0 -95 38 -132 38c-23 0 -40 -9 -62 -41l-24 15c17 43 53 64 87 64c45 0 94 -37 130 -37c26 0 42 8 64 40l24 -15c-17 -45 -53 -64 -87 -64z" />
    <glyph glyph-name="macron" unicode="&#xaf;" horiz-adv-x="488" 
d="M106 580v38h286v-38h-286z" />
    <glyph glyph-name="Scaron" unicode="&#x160;" horiz-adv-x="587" 
d="M289 32c153 0 206 78 206 146c0 94 -62 140 -196 158c-124 16 -234 37 -234 163c0 91 61 183 234 183c116 0 228 -52 228 -178c0 -5 -1 -11 -2 -17h-39c-1 80 -55 154 -188 154c-127 0 -187 -64 -187 -135c0 -100 81 -110 216 -131c123 -19 214 -67 214 -190
c0 -95 -68 -192 -251 -192c-148 0 -244 65 -244 193c0 6 0 13 1 20h40c1 -86 43 -174 202 -174zM297 767l131 89l19 -20l-129 -110h-37l-134 111c2 2 17 18 18 20z" />
    <glyph glyph-name="Zcaron" unicode="&#x17d;" horiz-adv-x="542" 
d="M27 0v38l425 597h-408v40h461v-37l-425 -599h435v-39h-488zM278 767l131 89l19 -20l-129 -110h-37l-134 111c2 2 17 18 18 20z" />
    <glyph glyph-name="scaron" unicode="&#x161;" horiz-adv-x="462" 
d="M228 28c104 0 143 51 143 98c0 65 -46 92 -140 104c-88 10 -174 28 -174 123c0 70 46 134 174 134c83 0 169 -35 169 -122c0 -4 0 -8 -1 -13h-37c-3 52 -40 99 -133 99c-89 0 -129 -43 -129 -92c0 -70 55 -80 151 -93c94 -13 163 -45 163 -135c0 -70 -53 -139 -188 -139
c-97 0 -183 41 -183 140c0 4 0 9 1 15h37c2 -64 43 -119 147 -119zM237 589l130 101l20 -18c-32 -30 -98 -95 -130 -125h-36c-34 31 -102 96 -135 125c3 3 18 17 19 19c33 -26 100 -76 132 -102z" />
    <glyph glyph-name="zcaron" unicode="&#x17e;" horiz-adv-x="419" 
d="M17 0v31l321 411h-296v37h347v-34l-320 -410h321v-35h-373zM214 589l130 101l20 -18c-32 -30 -98 -95 -130 -125h-36c-34 31 -102 96 -135 125c3 3 18 17 19 19c33 -26 100 -76 132 -102z" />
    <glyph glyph-name="Ydieresis" unicode="&#x178;" horiz-adv-x="527" 
d="M256 318h7c5 13 90 161 96 173l105 183h51l-234 -402v-272h-45v271l-226 403h50l101 -180c31 -56 65 -117 95 -176zM158 772c0 17 13 31 30 31s31 -14 31 -31c0 -16 -14 -30 -31 -30s-30 14 -30 30zM317 772c0 17 13 31 30 31s31 -14 31 -31c0 -16 -14 -30 -31 -30
s-30 14 -30 30z" />
    <glyph glyph-name="Agrave" unicode="&#xc0;" horiz-adv-x="579" 
d="M522 0l-70 183h-328l-68 -183h-46l255 675h47l257 -675h-47zM291 619h-7c-20 -63 -42 -123 -65 -184l-81 -214h302l-82 212c-23 60 -45 122 -67 186zM316 749l-15 -22l-158 85l34 42z" />
    <glyph glyph-name="Aacute" unicode="&#xc1;" horiz-adv-x="579" 
d="M522 0l-70 183h-328l-68 -183h-46l255 675h47l257 -675h-47zM291 619h-7c-20 -63 -42 -123 -65 -184l-81 -214h302l-82 212c-23 60 -45 122 -67 186zM283 728l-16 22l140 105l33 -42z" />
    <glyph glyph-name="Acircumflex" unicode="&#xc2;" horiz-adv-x="579" 
d="M522 0l-70 183h-328l-68 -183h-46l255 675h47l257 -675h-47zM291 619h-7c-20 -63 -42 -123 -65 -184l-81 -214h302l-82 212c-23 60 -45 122 -67 186zM416 718l-131 89l-132 -90c-1 2 -16 18 -18 20l134 111h36l130 -110z" />
    <glyph glyph-name="Atilde" unicode="&#xc3;" horiz-adv-x="579" 
d="M522 0l-70 183h-328l-68 -183h-46l255 675h47l257 -675h-47zM291 619h-7c-20 -63 -42 -123 -65 -184l-81 -214h302l-82 212c-23 60 -45 122 -67 186zM351 752c-45 0 -95 37 -132 37c-23 0 -40 -9 -62 -41l-24 15c17 43 54 64 88 64c44 0 93 -37 129 -37c26 0 43 9 64 41
l25 -15c-18 -45 -54 -64 -88 -64z" />
    <glyph glyph-name="Egrave" unicode="&#xc8;" horiz-adv-x="529" 
d="M65 0v674h418v-39h-375v-266h346v-39h-346v-290h388v-40h-431zM339 749l-15 -22l-158 85l34 42z" />
    <glyph glyph-name="Ecircumflex" unicode="&#xca;" horiz-adv-x="529" 
d="M65 0v674h418v-39h-375v-266h346v-39h-346v-290h388v-40h-431zM401 727l-131 89l-132 -90c-1 2 -16 18 -18 20l134 111h36l130 -110z" />
    <glyph glyph-name="Edieresis" unicode="&#xcb;" horiz-adv-x="529" 
d="M65 0v674h418v-39h-375v-266h346v-39h-346v-290h388v-40h-431zM161 782c0 17 13 31 30 31s31 -14 31 -31c0 -16 -14 -30 -31 -30s-30 14 -30 30zM320 782c0 17 13 31 30 31s31 -14 31 -31c0 -16 -14 -30 -31 -30s-30 14 -30 30z" />
    <glyph glyph-name="Igrave" unicode="&#xcc;" horiz-adv-x="213" 
d="M85 0v674h43v-674h-43zM137 749l-15 -22l-158 85l34 42z" />
    <glyph glyph-name="Iacute" unicode="&#xcd;" horiz-adv-x="213" 
d="M85 0v674h43v-674h-43zM99 728l-16 22l140 105l33 -42z" />
    <glyph glyph-name="Icircumflex" unicode="&#xce;" horiz-adv-x="213" 
d="M85 0v674h43v-674h-43zM236 727l-131 89l-132 -90c-1 2 -16 18 -18 20l134 111h36l130 -110z" />
    <glyph glyph-name="Idieresis" unicode="&#xcf;" horiz-adv-x="213" 
d="M85 0v674h43v-674h-43zM-5 782c0 17 13 31 30 31s31 -14 31 -31c0 -16 -14 -30 -31 -30s-30 14 -30 30zM154 782c0 17 13 31 30 31s31 -14 31 -31c0 -16 -14 -30 -31 -30s-30 14 -30 30z" />
    <glyph glyph-name="Eth" unicode="&#xd0;" horiz-adv-x="623" 
d="M65 366v307h189c146 0 315 -80 315 -339c0 -209 -132 -334 -315 -334h-189v332h-64v34h64zM108 39h136c107 0 280 48 280 297c0 250 -173 299 -280 299h-136v-269h243v-34h-243v-293z" />
    <glyph glyph-name="Ntilde" unicode="&#xd1;" horiz-adv-x="643" 
d="M113 596c-1 -1 -3 -1 -5 -1v-595h-43v674h40l241 -335c60 -86 123 -175 182 -261h5v596h45v-674h-42l-310 430c-39 53 -76 109 -113 166zM394 740c-45 0 -95 37 -132 37c-23 0 -40 -9 -62 -41l-24 15c17 43 54 64 88 64c44 0 93 -37 129 -37c26 0 43 9 64 41l25 -15
c-18 -45 -54 -64 -88 -64z" />
    <glyph glyph-name="Ograve" unicode="&#xd2;" horiz-adv-x="666" 
d="M336 681c220 0 275 -166 275 -350c0 -171 -60 -338 -282 -338c-213 0 -274 137 -274 337c0 207 75 351 281 351zM334 642c-175 0 -236 -126 -236 -312c0 -205 76 -299 230 -299c151 0 237 94 237 300c0 185 -58 311 -231 311zM374 749l-15 -22l-158 85l34 42z" />
    <glyph glyph-name="Oacute" unicode="&#xd3;" horiz-adv-x="666" 
d="M336 681c220 0 275 -166 275 -350c0 -171 -60 -338 -282 -338c-213 0 -274 137 -274 337c0 207 75 351 281 351zM334 642c-175 0 -236 -126 -236 -312c0 -205 76 -299 230 -299c151 0 237 94 237 300c0 185 -58 311 -231 311zM313 728l-16 22l140 105l33 -42z" />
    <glyph glyph-name="Ocircumflex" unicode="&#xd4;" horiz-adv-x="666" 
d="M336 681c220 0 275 -166 275 -350c0 -171 -60 -338 -282 -338c-213 0 -274 137 -274 337c0 207 75 351 281 351zM334 642c-175 0 -236 -126 -236 -312c0 -205 76 -299 230 -299c151 0 237 94 237 300c0 185 -58 311 -231 311zM461 727l-131 89l-132 -90
c-1 2 -16 18 -18 20l134 111h36l130 -110z" />
    <glyph glyph-name="Otilde" unicode="&#xd5;" horiz-adv-x="666" 
d="M336 681c220 0 275 -166 275 -350c0 -171 -60 -338 -282 -338c-213 0 -274 137 -274 337c0 207 75 351 281 351zM334 642c-175 0 -236 -126 -236 -312c0 -205 76 -299 230 -299c151 0 237 94 237 300c0 185 -58 311 -231 311zM400 756c-45 0 -95 37 -132 37
c-23 0 -40 -9 -62 -41l-24 15c17 43 54 64 88 64c44 0 93 -37 129 -37c26 0 43 9 64 41l25 -15c-18 -45 -54 -64 -88 -64z" />
    <glyph glyph-name="Ugrave" unicode="&#xd9;" horiz-adv-x="644" 
d="M579 674v-405c0 -162 -62 -276 -254 -276c-201 0 -260 104 -260 276v405h43v-406c0 -182 80 -236 218 -236c128 0 209 63 209 237v405h44zM384 749l-15 -22l-158 85l34 42z" />
    <glyph glyph-name="Uacute" unicode="&#xda;" horiz-adv-x="644" 
d="M579 674v-405c0 -162 -62 -276 -254 -276c-201 0 -260 104 -260 276v405h43v-406c0 -182 80 -236 218 -236c128 0 209 63 209 237v405h44zM287 728l-16 22l140 105l33 -42z" />
    <glyph glyph-name="Ucircumflex" unicode="&#xdb;" horiz-adv-x="644" 
d="M579 674v-405c0 -162 -62 -276 -254 -276c-201 0 -260 104 -260 276v405h43v-406c0 -182 80 -236 218 -236c128 0 209 63 209 237v405h44zM453 727l-131 89l-132 -90c-1 2 -16 18 -18 20l134 111h36l130 -110z" />
    <glyph glyph-name="Yacute" unicode="&#xdd;" horiz-adv-x="527" 
d="M256 318h7c5 13 90 161 96 173l105 183h51l-234 -402v-272h-45v271l-226 403h50l101 -180c31 -56 65 -117 95 -176zM242 716l-16 22l140 105l33 -42z" />
    <glyph glyph-name="aacute" unicode="&#xe1;" horiz-adv-x="478" 
d="M235 487c140 0 185 -72 185 -164v-323h-33c-7 15 -8 42 -8 78h-4c-48 -74 -124 -86 -181 -86c-87 0 -159 37 -159 135c0 101 87 160 227 160c35 0 74 -3 115 -11v39c0 66 -23 136 -140 136c-95 0 -132 -52 -135 -104h-36c-1 5 -1 9 -1 12c0 95 93 128 170 128zM195 26
c139 0 183 93 183 159v55c-43 10 -82 13 -116 13c-122 0 -185 -55 -185 -128c0 -55 38 -99 118 -99zM230 547l-22 18l109 139l42 -34z" />
    <glyph glyph-name="atilde" unicode="&#xe3;" horiz-adv-x="478" 
d="M235 487c140 0 185 -72 185 -164v-323h-33c-7 15 -8 42 -8 78h-4c-48 -74 -124 -86 -181 -86c-87 0 -159 37 -159 135c0 101 87 160 227 160c35 0 74 -3 115 -11v39c0 66 -23 136 -140 136c-95 0 -132 -52 -135 -104h-36c-1 5 -1 9 -1 12c0 95 93 128 170 128zM195 26
c139 0 183 93 183 159v55c-43 10 -82 13 -116 13c-122 0 -185 -55 -185 -128c0 -55 38 -99 118 -99zM303 575c-45 0 -95 37 -132 37c-23 0 -40 -9 -62 -41l-24 15c17 43 54 64 88 64c44 0 93 -37 129 -37c26 0 43 9 64 41l25 -15c-18 -45 -54 -64 -88 -64z" />
    <glyph glyph-name="aring" unicode="&#xe5;" horiz-adv-x="478" 
d="M235 487c140 0 185 -72 185 -164v-323h-33c-7 15 -8 42 -8 78h-4c-48 -74 -124 -86 -181 -86c-87 0 -159 37 -159 135c0 101 87 160 227 160c35 0 74 -3 115 -11v39c0 66 -23 136 -140 136c-95 0 -132 -52 -135 -104h-36c-1 5 -1 9 -1 12c0 95 93 128 170 128zM195 26
c139 0 183 93 183 159v55c-43 10 -82 13 -116 13c-122 0 -185 -55 -185 -128c0 -55 38 -99 118 -99zM236 541c-51 0 -92 42 -92 92c0 49 41 91 92 91c53 0 94 -42 94 -91c0 -51 -42 -92 -94 -92zM236 696c-34 0 -61 -29 -61 -63s26 -64 61 -64c38 0 64 30 64 64
c0 33 -26 63 -64 63z" />
    <glyph glyph-name="igrave" unicode="&#xec;" horiz-adv-x="222" 
d="M139 560l-22 -17l-131 131l43 32zM90 0v479h42v-479h-42z" />
    <glyph glyph-name="iacute" unicode="&#xed;" horiz-adv-x="222" 
d="M100 547l-22 18l109 139l42 -34zM90 0v479h42v-479h-42z" />
    <glyph glyph-name="ntilde" unicode="&#xf1;" horiz-adv-x="515" 
d="M277 488c155 0 179 -101 179 -205v-283h-43v274c0 78 -10 178 -143 178c-111 0 -168 -90 -168 -181v-271h-42v479h32c9 -19 9 -42 9 -79h4c43 70 119 88 172 88zM309 574c-45 0 -95 37 -132 37c-23 0 -40 -9 -62 -41l-24 15c17 43 54 64 88 64c44 0 93 -37 129 -37
c26 0 43 9 64 41l25 -15c-18 -45 -54 -64 -88 -64z" />
    <glyph glyph-name="ograve" unicode="&#xf2;" horiz-adv-x="528" 
d="M266 487c166 0 212 -122 212 -249c0 -125 -49 -246 -212 -246s-216 95 -216 243c0 144 61 252 216 252zM266 450c-126 0 -173 -91 -173 -215c0 -137 49 -206 173 -206c106 0 168 65 168 209c0 121 -42 212 -168 212zM314 560l-22 -17l-131 131l43 32z" />
    <glyph glyph-name="oacute" unicode="&#xf3;" horiz-adv-x="528" 
d="M266 487c166 0 212 -122 212 -249c0 -125 -49 -246 -212 -246s-216 95 -216 243c0 144 61 252 216 252zM266 450c-126 0 -173 -91 -173 -215c0 -137 49 -206 173 -206c106 0 168 65 168 209c0 121 -42 212 -168 212zM263 547l-22 18l109 139l42 -34z" />
    <glyph glyph-name="uacute" unicode="&#xfa;" horiz-adv-x="505" 
d="M445 479v-479h-32c-9 19 -9 43 -9 80h-4c-43 -70 -113 -88 -162 -88c-156 0 -180 99 -180 208v279h44v-275c0 -93 16 -176 143 -176c106 0 157 89 157 180v271h43zM238 547l-22 18l109 139l42 -34z" />
    <glyph glyph-name="yacute" unicode="&#xfd;" horiz-adv-x="422" 
d="M208 36h7c21 71 50 150 74 220l75 222h43l-181 -534c-27 -79 -47 -145 -147 -145h-54v36h49c55 0 79 21 99 77l30 86l-24 -2c-24 80 -51 146 -171 482h45l75 -211c23 -66 56 -154 80 -231zM207 541l-22 18l109 139l42 -34z" />
    <glyph glyph-name="ydieresis" unicode="&#xff;" horiz-adv-x="422" 
d="M208 36h7c21 71 50 150 74 220l75 222h43l-181 -534c-27 -79 -47 -145 -147 -145h-54v36h49c55 0 79 21 99 77l30 86l-24 -2c-24 80 -51 146 -171 482h45l75 -211c23 -66 56 -154 80 -231zM102 595c0 17 13 31 30 31s31 -14 31 -31c0 -16 -14 -30 -31 -30s-30 14 -30 30z
M261 595c0 17 13 31 30 31s31 -14 31 -31c0 -16 -14 -30 -31 -30s-30 14 -30 30z" />
    <glyph glyph-name="Amacron" unicode="&#x100;" horiz-adv-x="579" 
d="M522 0l-70 183h-328l-68 -183h-46l255 675h47l257 -675h-47zM291 619h-7c-20 -63 -42 -123 -65 -184l-81 -214h302l-82 212c-23 60 -45 122 -67 186zM144 761v40h286v-40h-286z" />
    <glyph glyph-name="amacron" unicode="&#x101;" horiz-adv-x="478" 
d="M235 487c140 0 185 -72 185 -164v-323h-33c-7 15 -8 42 -8 78h-4c-48 -74 -124 -86 -181 -86c-87 0 -159 37 -159 135c0 101 87 160 227 160c35 0 74 -3 115 -11v39c0 66 -23 136 -140 136c-95 0 -132 -52 -135 -104h-36c-1 5 -1 9 -1 12c0 95 93 128 170 128zM195 26
c139 0 183 93 183 159v55c-43 10 -82 13 -116 13c-122 0 -185 -55 -185 -128c0 -55 38 -99 118 -99zM88 580v38h286v-38h-286z" />
    <glyph glyph-name="Abreve" unicode="&#x102;" horiz-adv-x="579" 
d="M522 0l-70 183h-328l-68 -183h-46l255 675h47l257 -675h-47zM291 619h-7c-20 -63 -42 -123 -65 -184l-81 -214h302l-82 212c-23 60 -45 122 -67 186zM288 729c-101 0 -141 85 -143 141h36c1 -40 28 -103 108 -103c77 0 106 65 107 103h35c-2 -57 -43 -141 -143 -141z" />
    <glyph glyph-name="abreve" unicode="&#x103;" horiz-adv-x="478" 
d="M235 487c140 0 185 -72 185 -164v-323h-33c-7 15 -8 42 -8 78h-4c-48 -74 -124 -86 -181 -86c-87 0 -159 37 -159 135c0 101 87 160 227 160c35 0 74 -3 115 -11v39c0 66 -23 136 -140 136c-95 0 -132 -52 -135 -104h-36c-1 5 -1 9 -1 12c0 95 93 128 170 128zM195 26
c139 0 183 93 183 159v55c-43 10 -82 13 -116 13c-122 0 -185 -55 -185 -128c0 -55 38 -99 118 -99zM241 548c-101 0 -141 83 -142 139h36c0 -41 27 -101 107 -101c78 0 106 63 108 101h34c-2 -57 -43 -139 -143 -139z" />
    <glyph glyph-name="Aogonek" unicode="&#x104;" horiz-adv-x="579" 
d="M436 -134c0 36 20 91 82 140l-66 177h-328l-69 -183h-45l254 674h47l258 -674h-31c-47 -46 -61 -90 -61 -119c0 -36 23 -52 64 -52c24 0 50 5 72 12l6 -19c-29 -14 -60 -23 -95 -23c-59 0 -88 28 -88 67zM291 619h-7c-21 -65 -46 -130 -70 -194l-77 -204h303l-85 221
c-22 58 -43 117 -64 177z" />
    <glyph glyph-name="aogonek" unicode="&#x105;" horiz-adv-x="478" 
d="M235 487c140 0 185 -72 185 -164v-323h-21c-47 -46 -61 -90 -61 -119c0 -36 23 -52 65 -52c24 0 50 5 72 12c1 -6 4 -13 5 -19c-28 -14 -60 -23 -95 -23c-59 0 -87 28 -87 68c0 36 20 92 86 141c-5 16 -5 39 -5 70h-4c-48 -74 -124 -86 -181 -86c-86 0 -159 38 -159 133
c0 102 86 162 227 162c35 0 74 -3 115 -11v39c0 65 -23 136 -140 136c-95 0 -132 -52 -135 -104h-36c-1 5 -1 9 -1 12c0 95 93 128 170 128zM195 26c139 0 183 93 183 159v55c-43 10 -82 13 -116 13c-122 0 -185 -55 -185 -128c0 -55 38 -99 118 -99z" />
    <glyph glyph-name="Cacute" unicode="&#x106;" horiz-adv-x="591" 
d="M326 -7c-206 0 -271 135 -271 338c0 206 76 350 274 350c117 0 220 -58 220 -173c0 -4 0 -9 -1 -15h-37c-2 75 -53 149 -186 149c-163 0 -227 -126 -227 -311c0 -201 71 -299 227 -299c147 0 195 85 197 163h38c1 -7 1 -11 1 -16c0 -114 -100 -186 -235 -186zM303 728
l-16 22l140 105l33 -42z" />
    <glyph glyph-name="cacute" unicode="&#x107;" horiz-adv-x="478" 
d="M263 487c91 0 171 -40 171 -131c0 -4 0 -9 -1 -14h-36c-2 56 -42 108 -136 108c-118 0 -168 -91 -168 -213c0 -152 59 -208 169 -208c106 0 143 62 144 121h36c1 -6 1 -10 1 -14c0 -92 -78 -144 -181 -144c-149 0 -212 80 -212 242c0 137 54 253 213 253zM240 547l-22 18
l109 139l42 -34z" />
    <glyph glyph-name="Ccircumflex" unicode="&#x108;" horiz-adv-x="591" 
d="M326 -7c-206 0 -271 135 -271 338c0 206 76 350 274 350c117 0 220 -58 220 -173c0 -4 0 -9 -1 -15h-37c-2 75 -53 149 -186 149c-163 0 -227 -126 -227 -311c0 -201 71 -299 227 -299c147 0 195 85 197 163h38c1 -7 1 -11 1 -16c0 -114 -100 -186 -235 -186zM459 727
l-131 89l-132 -90c-1 2 -16 18 -18 20l134 111h36l130 -110z" />
    <glyph glyph-name="ccircumflex" unicode="&#x109;" horiz-adv-x="478" 
d="M263 487c91 0 171 -40 171 -131c0 -4 0 -9 -1 -14h-36c-2 56 -42 108 -136 108c-118 0 -168 -91 -168 -213c0 -152 59 -208 169 -208c106 0 143 62 144 121h36c1 -6 1 -10 1 -14c0 -92 -78 -144 -181 -144c-149 0 -212 80 -212 242c0 137 54 253 213 253zM387 545
l-131 103c-32 -27 -99 -78 -132 -104c-1 2 -16 16 -18 19c33 29 100 95 134 126h36c32 -30 99 -96 130 -126z" />
    <glyph glyph-name="Cdotaccent" unicode="&#x10a;" horiz-adv-x="591" 
d="M326 -7c-206 0 -271 135 -271 338c0 206 76 350 274 350c117 0 220 -58 220 -173c0 -4 0 -9 -1 -15h-37c-2 75 -53 149 -186 149c-163 0 -227 -126 -227 -311c0 -201 71 -299 227 -299c147 0 195 85 197 163h38c1 -7 1 -11 1 -16c0 -114 -100 -186 -235 -186zM293 776
c0 19 15 35 35 35c19 0 35 -16 35 -35c0 -20 -16 -35 -35 -35c-20 0 -35 15 -35 35z" />
    <glyph glyph-name="cdotaccent" unicode="&#x10b;" horiz-adv-x="478" 
d="M263 487c91 0 171 -40 171 -131c0 -4 0 -9 -1 -14h-36c-2 56 -42 108 -136 108c-118 0 -168 -91 -168 -213c0 -152 59 -208 169 -208c106 0 143 62 144 121h36c1 -6 1 -10 1 -14c0 -92 -78 -144 -181 -144c-149 0 -212 80 -212 242c0 137 54 253 213 253zM220 606
c0 19 15 35 35 35c19 0 35 -16 35 -35c0 -20 -16 -35 -35 -35c-20 0 -35 15 -35 35z" />
    <glyph glyph-name="Ccaron" unicode="&#x10c;" horiz-adv-x="591" 
d="M326 -7c-206 0 -271 135 -271 338c0 206 76 350 274 350c117 0 220 -58 220 -173c0 -4 0 -9 -1 -15h-37c-2 75 -53 149 -186 149c-163 0 -227 -126 -227 -311c0 -201 71 -299 227 -299c147 0 195 85 197 163h38c1 -7 1 -11 1 -16c0 -114 -100 -186 -235 -186zM323 767
l131 89l19 -20l-129 -110h-37l-134 111c2 2 17 18 18 20z" />
    <glyph glyph-name="ccaron" unicode="&#x10d;" horiz-adv-x="478" 
d="M263 487c91 0 171 -40 171 -131c0 -4 0 -9 -1 -14h-36c-2 56 -42 108 -136 108c-118 0 -168 -91 -168 -213c0 -152 59 -208 169 -208c106 0 143 62 144 121h36c1 -6 1 -10 1 -14c0 -92 -78 -144 -181 -144c-149 0 -212 80 -212 242c0 137 54 253 213 253zM257 589
l130 101l20 -18c-32 -30 -98 -95 -130 -125h-36c-34 31 -102 96 -135 125c3 3 18 17 19 19c33 -26 100 -76 132 -102z" />
    <glyph glyph-name="Dcaron" unicode="&#x10e;" horiz-adv-x="623" 
d="M108 39h136c107 0 280 48 280 297c0 250 -173 299 -280 299h-136v-596zM65 0v673h189c146 0 315 -80 315 -339c0 -209 -132 -334 -315 -334h-189zM276 767l131 89l19 -20l-129 -110h-37l-134 111c2 2 17 18 18 20z" />
    <glyph glyph-name="dcaron" unicode="&#x10f;" horiz-adv-x="612" 
d="M249 -8c-158 0 -199 112 -199 242c0 143 58 253 207 253c100 0 138 -51 160 -91h4v314h42v-710h-33c-7 17 -8 43 -8 80h-4c-41 -71 -103 -88 -169 -88zM258 27c110 0 163 83 163 172v71c0 83 -44 180 -163 180s-165 -92 -165 -216c0 -141 53 -207 165 -207zM529 682
c0 22 17 40 38 40c23 0 40 -15 40 -39c0 -4 -1 -14 -5 -22l-57 -119l-17 6l33 97c-18 3 -32 18 -32 37z" />
    <glyph glyph-name="Dcroat" unicode="&#x110;" horiz-adv-x="623" 
d="M65 366v307h189c146 0 315 -80 315 -339c0 -209 -132 -334 -315 -334h-189v332h-64v34h64zM108 39h136c107 0 280 48 280 297c0 250 -173 299 -280 299h-136v-269h243v-34h-243v-293z" />
    <glyph glyph-name="dcroat" unicode="&#x111;" horiz-adv-x="523" 
d="M249 -8c-158 0 -199 110 -199 240c0 144 58 253 207 253c99 0 138 -51 160 -91h4v185h-172v31h172v100h42v-100h60v-31h-60v-579h-33c-7 17 -8 43 -8 80h-4c-41 -71 -103 -88 -169 -88zM258 27c110 0 163 83 163 172v70c0 83 -45 179 -163 179s-165 -91 -165 -215
c0 -141 53 -206 165 -206z" />
    <glyph glyph-name="Emacron" unicode="&#x112;" horiz-adv-x="529" 
d="M65 0v674h418v-39h-375v-266h346v-39h-346v-290h388v-40h-431zM134 763v40h286v-40h-286z" />
    <glyph glyph-name="emacron" unicode="&#x113;" horiz-adv-x="503" 
d="M258 450c-114 0 -157 -84 -163 -180h313c0 98 -31 180 -150 180zM258 487c142 0 190 -93 190 -203c0 -16 -1 -32 -3 -48h-352c0 -140 54 -208 168 -208c119 0 146 66 148 118h36c1 -5 1 -10 1 -14c0 -92 -85 -140 -186 -140c-154 0 -210 97 -210 246
c0 136 57 249 208 249zM115 580v38h286v-38h-286z" />
    <glyph glyph-name="Ebreve" unicode="&#x114;" horiz-adv-x="529" 
d="M65 0v674h418v-39h-375v-266h346v-39h-346v-290h388v-40h-431zM280 729c-101 0 -141 85 -143 141h36c1 -40 28 -103 108 -103c77 0 106 65 107 103h35c-2 -57 -43 -141 -143 -141z" />
    <glyph glyph-name="ebreve" unicode="&#x115;" horiz-adv-x="503" 
d="M258 450c-114 0 -157 -84 -163 -180h313c0 98 -31 180 -150 180zM258 487c142 0 190 -93 190 -203c0 -16 -1 -32 -3 -48h-352c0 -140 54 -208 168 -208c119 0 146 66 148 118h36c1 -5 1 -10 1 -14c0 -92 -85 -140 -186 -140c-154 0 -210 97 -210 246
c0 136 57 249 208 249zM258 548c-101 0 -141 83 -142 139h36c0 -41 27 -101 107 -101c78 0 106 63 108 101h34c-2 -57 -43 -139 -143 -139z" />
    <glyph glyph-name="Edotaccent" unicode="&#x116;" horiz-adv-x="529" 
d="M65 0v674h418v-39h-375v-266h346v-39h-346v-290h388v-40h-431zM241 776c0 19 15 35 35 35c19 0 35 -16 35 -35c0 -20 -16 -35 -35 -35c-20 0 -35 15 -35 35z" />
    <glyph glyph-name="edotaccent" unicode="&#x117;" horiz-adv-x="503" 
d="M258 450c-114 0 -157 -84 -163 -180h313c0 98 -31 180 -150 180zM258 487c142 0 190 -93 190 -203c0 -16 -1 -32 -3 -48h-352c0 -140 54 -208 168 -208c119 0 146 66 148 118h36c1 -5 1 -10 1 -14c0 -92 -85 -140 -186 -140c-154 0 -210 97 -210 246
c0 136 57 249 208 249zM225 606c0 19 15 35 35 35c19 0 35 -16 35 -35c0 -20 -16 -35 -35 -35c-20 0 -35 15 -35 35z" />
    <glyph glyph-name="Eogonek" unicode="&#x118;" horiz-adv-x="529" 
d="M65 0v674h418v-39h-375v-258h346v-39h-346v-298h388v-40h-29c-51 -49 -66 -95 -66 -125c0 -36 23 -52 65 -52c24 0 50 5 72 12l5 -19c-29 -14 -60 -23 -95 -23c-59 0 -88 28 -88 68c0 35 20 90 81 139h-376z" />
    <glyph glyph-name="eogonek" unicode="&#x119;" horiz-adv-x="503" 
d="M258 487c142 0 190 -93 190 -203c0 -16 -1 -32 -3 -48h-352c0 -140 54 -208 168 -208c119 0 146 66 148 118h36c1 -5 1 -10 1 -14c0 -55 -31 -95 -76 -118c-43 -44 -56 -85 -56 -112c0 -36 24 -52 65 -52c24 0 50 5 72 12l5 -19c-28 -14 -59 -23 -94 -23
c-59 0 -88 28 -88 67c0 29 13 71 52 112c-21 -5 -43 -7 -66 -7c-154 0 -210 97 -210 246c0 136 57 249 208 249zM258 450c-114 0 -157 -84 -163 -180h313c0 98 -31 180 -150 180z" />
    <glyph glyph-name="Ecaron" unicode="&#x11a;" horiz-adv-x="529" 
d="M65 0v674h418v-39h-375v-266h346v-39h-346v-290h388v-40h-431zM279 767l131 89l19 -20l-129 -110h-37l-134 111c2 2 17 18 18 20z" />
    <glyph glyph-name="ecaron" unicode="&#x11b;" horiz-adv-x="503" 
d="M258 450c-114 0 -157 -84 -163 -180h313c0 98 -31 180 -150 180zM258 487c142 0 190 -93 190 -203c0 -16 -1 -32 -3 -48h-352c0 -140 54 -208 168 -208c119 0 146 66 148 118h36c1 -5 1 -10 1 -14c0 -92 -85 -140 -186 -140c-154 0 -210 97 -210 246
c0 136 57 249 208 249zM256 589l130 101l20 -18c-32 -30 -98 -95 -130 -125h-36c-34 31 -102 96 -135 125c3 3 18 17 19 19c33 -26 100 -76 132 -102z" />
    <glyph glyph-name="Gcircumflex" unicode="&#x11c;" horiz-adv-x="638" 
d="M335 682c119 0 228 -58 228 -173c0 -4 0 -9 -1 -15h-38c-2 74 -52 149 -192 149c-164 0 -234 -127 -234 -312c0 -203 77 -301 232 -301c178 0 212 126 212 210v72h-186v38h228v-110c0 -140 -77 -247 -254 -247c-201 0 -275 133 -275 338c0 206 82 351 280 351zM459 727
l-131 89l-132 -90c-1 2 -16 18 -18 20l134 111h36l130 -110z" />
    <glyph glyph-name="gcircumflex" unicode="&#x11d;" horiz-adv-x="535" 
d="M263 487c24 0 56 -2 83 -9h148v-25c-16 -6 -57 -8 -83 -8v-5c39 -25 64 -69 64 -126c0 -99 -75 -172 -207 -172c-74 0 -112 19 -129 26c-29 -17 -40 -34 -40 -49c0 -51 117 -59 211 -71c113 -15 181 -45 181 -123c0 -98 -109 -132 -239 -132c-153 0 -207 49 -207 123
c0 55 39 98 83 124c-44 11 -71 39 -71 74c0 25 14 52 53 75c-34 29 -54 70 -54 123c0 101 77 175 207 175zM263 453c-106 0 -165 -60 -165 -140c0 -76 46 -137 168 -137c106 0 167 54 167 139c0 59 -36 138 -170 138zM293 15l-118 14c-52 -25 -89 -62 -89 -112
c0 -53 51 -90 169 -90c95 0 193 21 193 97c0 44 -26 76 -155 91zM395 545l-131 103c-32 -27 -99 -78 -132 -104c-1 2 -16 16 -18 19c33 29 100 95 134 126h36c32 -30 99 -96 130 -126z" />
    <glyph glyph-name="Gbreve" unicode="&#x11e;" horiz-adv-x="638" 
d="M335 682c119 0 228 -58 228 -173c0 -4 0 -9 -1 -15h-38c-2 74 -52 149 -192 149c-164 0 -234 -127 -234 -312c0 -203 77 -301 232 -301c178 0 212 126 212 210v72h-186v38h228v-110c0 -140 -77 -247 -254 -247c-201 0 -275 133 -275 338c0 206 82 351 280 351zM327 729
c-101 0 -141 85 -143 141h36c1 -40 28 -103 108 -103c77 0 106 65 107 103h35c-2 -57 -43 -141 -143 -141z" />
    <glyph glyph-name="gbreve" unicode="&#x11f;" horiz-adv-x="535" 
d="M263 487c24 0 56 -2 83 -9h148v-25c-16 -6 -57 -8 -83 -8v-5c39 -25 64 -69 64 -126c0 -99 -75 -172 -207 -172c-74 0 -112 19 -129 26c-29 -17 -40 -34 -40 -49c0 -51 117 -59 211 -71c113 -15 181 -45 181 -123c0 -98 -109 -132 -239 -132c-153 0 -207 49 -207 123
c0 55 39 98 83 124c-44 11 -71 39 -71 74c0 25 14 52 53 75c-34 29 -54 70 -54 123c0 101 77 175 207 175zM263 453c-106 0 -165 -60 -165 -140c0 -76 46 -137 168 -137c106 0 167 54 167 139c0 59 -36 138 -170 138zM293 15l-118 14c-52 -25 -89 -62 -89 -112
c0 -53 51 -90 169 -90c95 0 193 21 193 97c0 44 -26 76 -155 91zM273 548c-101 0 -141 83 -142 139h36c0 -41 27 -101 107 -101c78 0 106 63 108 101h34c-2 -57 -43 -139 -143 -139z" />
    <glyph glyph-name="Gdotaccent" unicode="&#x120;" horiz-adv-x="638" 
d="M335 682c119 0 228 -58 228 -173c0 -4 0 -9 -1 -15h-38c-2 74 -52 149 -192 149c-164 0 -234 -127 -234 -312c0 -203 77 -301 232 -301c178 0 212 126 212 210v72h-186v38h228v-110c0 -140 -77 -247 -254 -247c-201 0 -275 133 -275 338c0 206 82 351 280 351zM294 776
c0 19 15 35 35 35c19 0 35 -16 35 -35c0 -20 -16 -35 -35 -35c-20 0 -35 15 -35 35z" />
    <glyph glyph-name="gdotaccent" unicode="&#x121;" horiz-adv-x="535" 
d="M263 487c24 0 56 -2 83 -9h148v-25c-16 -6 -57 -8 -83 -8v-5c39 -25 64 -69 64 -126c0 -99 -75 -172 -207 -172c-74 0 -112 19 -129 26c-29 -17 -40 -34 -40 -49c0 -51 117 -59 211 -71c113 -15 181 -45 181 -123c0 -98 -109 -132 -239 -132c-153 0 -207 49 -207 123
c0 55 39 98 83 124c-44 11 -71 39 -71 74c0 25 14 52 53 75c-34 29 -54 70 -54 123c0 101 77 175 207 175zM263 453c-106 0 -165 -60 -165 -140c0 -76 46 -137 168 -137c106 0 167 54 167 139c0 59 -36 138 -170 138zM293 15l-118 14c-52 -25 -89 -62 -89 -112
c0 -53 51 -90 169 -90c95 0 193 21 193 97c0 44 -26 76 -155 91zM228 606c0 19 15 35 35 35c19 0 35 -16 35 -35c0 -20 -16 -35 -35 -35c-20 0 -35 15 -35 35z" />
    <glyph glyph-name="Gcommaaccent" unicode="&#x122;" horiz-adv-x="638" 
d="M335 682c119 0 228 -58 228 -173c0 -4 0 -9 -1 -15h-38c-2 74 -52 149 -192 149c-164 0 -234 -127 -234 -312c0 -203 77 -301 232 -301c178 0 212 126 212 210v72h-186v38h228v-110c0 -140 -77 -247 -254 -247c-201 0 -275 133 -275 338c0 206 82 351 280 351zM294 -87
c0 22 17 40 38 40c23 0 40 -15 40 -39c0 -4 -1 -14 -5 -22l-57 -119l-17 6l33 97c-18 3 -32 18 -32 37z" />
    <glyph glyph-name="gcommaaccent" unicode="&#x123;" horiz-adv-x="535" 
d="M300 589c0 -21 -17 -38 -37 -38c-22 0 -39 15 -39 37c0 5 2 13 5 22l56 114l17 -5l-34 -93c20 -4 32 -19 32 -37zM263 487c24 0 56 -2 83 -9h148v-25c-16 -6 -57 -8 -83 -8v-5c39 -25 64 -69 64 -126c0 -99 -75 -172 -207 -172c-74 0 -112 19 -129 26
c-29 -17 -40 -34 -40 -49c0 -51 117 -59 211 -71c113 -15 181 -45 181 -123c0 -98 -109 -132 -239 -132c-153 0 -207 49 -207 123c0 55 39 98 83 124c-44 11 -71 39 -71 74c0 25 14 52 53 75c-34 29 -54 70 -54 123c0 101 77 175 207 175zM263 453
c-106 0 -165 -60 -165 -140c0 -76 46 -137 168 -137c106 0 167 54 167 139c0 59 -36 138 -170 138zM293 15l-118 14c-52 -25 -89 -62 -89 -112c0 -53 51 -90 169 -90c95 0 193 21 193 97c0 44 -26 76 -155 91z" />
    <glyph glyph-name="Hcircumflex" unicode="&#x124;" horiz-adv-x="638" 
d="M528 0v330h-420v-330h-43v675h43v-306h420v306h45v-675h-45zM456 727l-131 89l-132 -90c-1 2 -16 18 -18 20l134 111h36l130 -110z" />
    <glyph glyph-name="hcircumflex" unicode="&#x125;" horiz-adv-x="515" 
d="M97 391h4c30 61 93 96 173 96c160 0 182 -101 182 -213v-274h-43v274c0 93 -16 177 -146 177c-116 0 -165 -91 -165 -182v-269h-42v710h42v-222c0 -30 -1 -65 -5 -97zM213 727l-131 89l-132 -90c-1 2 -16 18 -18 20l134 111h36l130 -110z" />
    <glyph glyph-name="Hbar" unicode="&#x126;" horiz-adv-x="638" 
d="M528 0v335h-420v-335h-43v539h-51v34h51v102h43v-102h420v102h45v-102h48v-34h-48v-539h-45zM108 374h420v165h-420v-165z" />
    <glyph glyph-name="hbar" unicode="&#x127;" horiz-adv-x="515" 
d="M97 389h4c30 61 93 96 173 96c160 0 182 -102 182 -213v-272h-43v271c0 94 -16 177 -146 177c-116 0 -165 -90 -165 -181v-267h-42v578h-49v33h49v99h42v-99h254v-33h-254v-90c0 -30 -1 -67 -5 -99z" />
    <glyph glyph-name="Itilde" unicode="&#x128;" horiz-adv-x="213" 
d="M85 0v674h43v-674h-43zM171 744c-45 0 -95 37 -132 37c-23 0 -40 -9 -62 -41l-24 15c17 43 54 64 88 64c44 0 93 -37 129 -37c26 0 43 9 64 41l25 -15c-18 -45 -54 -64 -88 -64z" />
    <glyph glyph-name="itilde" unicode="&#x129;" horiz-adv-x="222" 
d="M176 574c-45 0 -95 37 -132 37c-23 0 -40 -9 -62 -41l-24 15c17 43 54 64 88 64c44 0 93 -37 129 -37c26 0 43 9 64 41l25 -15c-18 -45 -54 -64 -88 -64zM90 0v479h42v-479h-42z" />
    <glyph glyph-name="Imacron" unicode="&#x12a;" horiz-adv-x="213" 
d="M85 0v674h43v-674h-43zM-36 761v40h286v-40h-286z" />
    <glyph glyph-name="imacron" unicode="&#x12b;" horiz-adv-x="222" 
d="M-31 580v38h286v-38h-286zM90 0v479h42v-479h-42z" />
    <glyph glyph-name="Ibreve" unicode="&#x12c;" horiz-adv-x="271" 
d="M106 0v674h43v-674h-43zM127 729c-101 0 -141 85 -143 141h36c1 -40 28 -103 108 -103c77 0 106 65 107 103h35c-2 -57 -43 -141 -143 -141z" />
    <glyph glyph-name="ibreve" unicode="&#x12d;" horiz-adv-x="222" 
d="M90 0v479h42v-479h-42zM110 552c-101 0 -141 83 -142 139h36c0 -41 27 -101 107 -101c78 0 106 63 108 101h34c-2 -57 -43 -139 -143 -139z" />
    <glyph glyph-name="Iogonek" unicode="&#x12e;" horiz-adv-x="213" 
d="M-2 -134c0 36 20 93 87 143v665h43v-674h-29c-47 -47 -61 -91 -61 -120c0 -36 23 -52 64 -52c24 0 50 5 72 12l6 -19c-29 -14 -60 -23 -95 -23c-59 0 -87 28 -87 68z" />
    <glyph glyph-name="iogonek" unicode="&#x12f;" horiz-adv-x="222" 
d="M6 -136c0 36 20 92 84 140v475h42v-479h-22c-49 -47 -63 -92 -63 -121c0 -36 25 -52 64 -52c24 0 50 5 72 12l6 -19c-29 -14 -60 -23 -95 -23c-59 0 -88 28 -88 67zM78 641c0 19 12 31 33 31c20 0 32 -12 32 -31c0 -22 -12 -33 -32 -33c-21 0 -33 11 -33 33z" />
    <glyph glyph-name="Idotaccent" unicode="&#x130;" horiz-adv-x="213" 
d="M85 0v674h43v-674h-43zM71 776c0 19 15 35 35 35c19 0 35 -16 35 -35c0 -20 -16 -35 -35 -35c-20 0 -35 15 -35 35z" />
    <glyph glyph-name="IJ" unicode="&#x132;" horiz-adv-x="680" 
d="M69 0v674h43v-674h-43zM382 -7c-127 0 -217 59 -217 169c0 5 0 12 1 19h40c1 -70 35 -148 176 -149c128 0 183 74 183 187v455h43v-465c0 -103 -53 -216 -226 -216z" />
    <glyph glyph-name="ij" unicode="&#x133;" horiz-adv-x="351" 
d="M75 0v479h42v-479h-42zM63 641c0 18 15 33 33 33c19 0 33 -15 33 -33c0 -19 -14 -33 -33 -33c-18 0 -33 14 -33 33zM187 -198h-29v37h23c44 0 55 26 55 79v561h42v-562c0 -73 -19 -115 -91 -115zM224 641c0 18 14 33 33 33c18 0 33 -15 33 -33c0 -19 -15 -33 -33 -33
c-19 0 -33 14 -33 33z" />
    <glyph glyph-name="Jcircumflex" unicode="&#x134;" horiz-adv-x="536" 
d="M237 -6c-127 0 -217 59 -217 169c0 5 0 12 1 19h40c1 -70 35 -148 176 -149c128 0 183 74 183 187v455h43v-465c0 -103 -53 -216 -226 -216zM573 729l-131 89l-132 -90c-1 2 -16 18 -18 20l134 111h36l130 -110z" />
    <glyph glyph-name="jcircumflex" unicode="&#x135;" horiz-adv-x="218" 
d="M41 -186h-29v37h23c44 0 55 26 55 79v549h42v-550c0 -73 -19 -115 -91 -115zM243 545l-131 103c-32 -27 -99 -78 -132 -104c-1 2 -16 16 -18 19c33 29 100 95 134 126h36c32 -30 99 -96 130 -126z" />
    <glyph glyph-name="Kcommaaccent" unicode="&#x136;" horiz-adv-x="532" 
d="M108 674v-304h124l236 304h51l-251 -322l260 -352h-56l-240 330h-124v-330h-43v674h43zM216 -62c0 22 17 40 38 40c23 0 40 -15 40 -39c0 -4 -1 -14 -5 -22l-57 -119l-17 6l33 97c-18 3 -32 18 -32 37z" />
    <glyph glyph-name="kcommaaccent" unicode="&#x137;" horiz-adv-x="444" 
d="M376 479h49l-180 -217l191 -262h-52l-175 243h-107v-243h-42v711h42v-431h108zM187 -77c0 22 17 40 38 40c23 0 40 -15 40 -39c0 -4 -1 -14 -5 -22l-57 -119l-17 6l33 97c-18 3 -32 18 -32 37z" />
    <glyph glyph-name="kgreenlandic" unicode="&#x138;" horiz-adv-x="443" 
d="M377 479h48l-180 -219l190 -260h-52c-58 79 -115 159 -173 239h-108v-239h-42v479h42v-203h106z" />
    <glyph glyph-name="Lacute" unicode="&#x139;" horiz-adv-x="513" 
d="M65 0v674h44v-635h394v-39h-438zM84 728l-16 22l140 105l33 -42z" />
    <glyph glyph-name="lacute" unicode="&#x13a;" horiz-adv-x="204" 
d="M73 710h42v-637c0 -41 16 -44 56 -44v-33c-10 -2 -15 -2 -20 -2c-75 0 -78 28 -78 83v633zM93 751l-16 22l140 105l33 -42z" />
    <glyph glyph-name="Lcommaaccent" unicode="&#x13b;" horiz-adv-x="513" 
d="M65 0v674h44v-635h394v-39h-438zM232 -87c0 22 17 40 38 40c23 0 40 -15 40 -39c0 -4 -1 -14 -5 -22l-57 -119l-17 6l33 97c-18 3 -32 18 -32 37z" />
    <glyph glyph-name="lcommaaccent" unicode="&#x13c;" horiz-adv-x="204" 
d="M73 710h42v-637c0 -41 16 -44 56 -44v-33c-10 -2 -15 -2 -20 -2c-75 0 -78 28 -78 83v633zM71 -87c0 22 17 40 38 40c23 0 40 -15 40 -39c0 -4 -1 -14 -5 -22l-57 -119l-17 6l33 97c-18 3 -32 18 -32 37z" />
    <glyph glyph-name="Lcaron" unicode="&#x13d;" horiz-adv-x="513" 
d="M65 0v674h44v-635h394v-39h-438zM300 647c0 22 17 40 38 40c23 0 40 -15 40 -39c0 -4 -1 -14 -5 -22l-57 -119l-17 6l33 97c-18 3 -32 18 -32 37z" />
    <glyph glyph-name="lcaron" unicode="&#x13e;" horiz-adv-x="272" 
d="M78 710h42v-637c0 -41 16 -44 56 -44v-33c-10 -2 -15 -2 -20 -2c-75 0 -78 28 -78 83v633zM192 686c0 22 17 40 38 40c23 0 40 -15 40 -39c0 -4 -1 -14 -5 -22l-57 -119l-17 6l33 97c-18 3 -32 18 -32 37z" />
    <glyph glyph-name="Ldot" unicode="&#x13f;" horiz-adv-x="513" 
d="M65 0v674h44v-635h394v-39h-438zM274 360c0 19 15 35 35 35c19 0 35 -16 35 -35c0 -20 -16 -35 -35 -35c-20 0 -35 15 -35 35z" />
    <glyph glyph-name="ldot" unicode="&#x140;" horiz-adv-x="269" 
d="M78 710h42v-637c0 -41 16 -44 56 -44v-33c-10 -2 -15 -2 -20 -2c-75 0 -78 28 -78 83v633zM188 377c0 19 15 35 35 35c19 0 35 -16 35 -35c0 -20 -16 -35 -35 -35c-20 0 -35 15 -35 35z" />
    <glyph glyph-name="Lslash" unicode="&#x141;" horiz-adv-x="513" 
d="M-10 218c-6 9 -11 20 -16 30c29 18 61 35 91 53v373h44v-348l151 87l17 -30l-168 -97v-247h394v-39h-438v261c-26 -14 -51 -29 -75 -43z" />
    <glyph glyph-name="lslash" unicode="&#x142;" horiz-adv-x="204" 
d="M73 710h42v-333l97 56l16 -31l-113 -65v-264c0 -41 16 -44 56 -44v-33c-10 -2 -15 -2 -20 -2c-88 0 -78 49 -78 116v203l-81 -47c-5 10 -10 21 -16 30l97 57v357z" />
    <glyph glyph-name="Nacute" unicode="&#x143;" horiz-adv-x="643" 
d="M113 596c-1 -1 -3 -1 -5 -1v-595h-43v674h40l241 -335c60 -86 123 -175 182 -261h5v596h45v-674h-42l-310 430c-39 53 -76 109 -113 166zM306 719l-16 22l140 105l33 -42z" />
    <glyph glyph-name="nacute" unicode="&#x144;" horiz-adv-x="515" 
d="M277 488c155 0 179 -101 179 -205v-283h-43v274c0 78 -10 178 -143 178c-111 0 -168 -90 -168 -181v-271h-42v479h32c9 -19 9 -42 9 -79h4c43 70 119 88 172 88zM217 547l-22 18l109 139l42 -34z" />
    <glyph glyph-name="Ncommaaccent" unicode="&#x145;" horiz-adv-x="643" 
d="M113 596c-1 -1 -3 -1 -5 -1v-595h-43v674h40l241 -335c60 -86 123 -175 182 -261h5v596h45v-674h-42l-310 430c-39 53 -76 109 -113 166zM272 -64c0 22 17 40 38 40c23 0 40 -15 40 -39c0 -4 -1 -14 -5 -22l-57 -119l-17 6l33 97c-18 3 -32 18 -32 37z" />
    <glyph glyph-name="ncommaaccent" unicode="&#x146;" horiz-adv-x="515" 
d="M277 488c155 0 179 -101 179 -205v-283h-43v274c0 78 -10 178 -143 178c-111 0 -168 -90 -168 -181v-271h-42v479h32c9 -19 9 -42 9 -79h4c43 70 119 88 172 88zM222 -71c0 22 17 40 38 40c23 0 40 -15 40 -39c0 -4 -1 -14 -5 -22l-57 -119l-17 6l33 97
c-18 3 -32 18 -32 37z" />
    <glyph glyph-name="Ncaron" unicode="&#x147;" horiz-adv-x="643" 
d="M113 596c-1 -1 -3 -1 -5 -1v-595h-43v674h40l241 -335c60 -86 123 -175 182 -261h5v596h45v-674h-42l-310 430c-39 53 -76 109 -113 166zM323 767l131 89l19 -20l-129 -110h-37l-134 111c2 2 17 18 18 20z" />
    <glyph glyph-name="ncaron" unicode="&#x148;" horiz-adv-x="515" 
d="M277 488c155 0 179 -101 179 -205v-283h-43v274c0 78 -10 178 -143 178c-111 0 -168 -90 -168 -181v-271h-42v479h32c9 -19 9 -42 9 -79h4c43 70 119 88 172 88zM248 589l130 101l20 -18c-32 -30 -98 -95 -130 -125h-36c-34 31 -102 96 -135 125c3 3 18 17 19 19
c33 -26 100 -76 132 -102z" />
    <glyph glyph-name="napostrophe" unicode="&#x149;" horiz-adv-x="560" 
d="M321 488c155 0 179 -101 179 -205v-283h-43v274c0 78 -10 178 -143 178c-111 0 -168 -90 -168 -181v-271h-42v479h32c9 -19 9 -42 9 -79h4c43 70 119 88 172 88zM8 614c0 22 17 40 38 40c23 0 40 -15 40 -39c0 -4 -1 -14 -5 -22l-57 -119l-17 6l33 97
c-18 3 -32 18 -32 37z" />
    <glyph glyph-name="Eng" unicode="&#x14a;" horiz-adv-x="643" 
d="M113 596c-1 -1 -3 -1 -5 -1v-595h-43v674h40l287 -400c46 -65 92 -131 136 -196h5v596h45v-778c0 -60 -47 -85 -99 -85c-18 0 -37 3 -54 9c3 12 7 22 10 34c16 -4 33 -5 44 -5c38 0 58 16 58 57v94c-89 123 -178 245 -311 430c-39 53 -76 109 -113 166z" />
    <glyph glyph-name="eng" unicode="&#x14b;" horiz-adv-x="515" 
d="M271 487c160 0 185 -101 185 -213v-378c0 -60 -36 -87 -93 -87c-16 0 -39 3 -61 10l11 36c13 -3 27 -6 40 -6c31 0 58 13 60 56v369c0 93 -16 177 -149 177c-111 0 -162 -89 -162 -180v-271h-42v479h32c9 -19 9 -42 9 -79h4c43 70 113 87 166 87z" />
    <glyph glyph-name="Omacron" unicode="&#x14c;" horiz-adv-x="666" 
d="M336 681c220 0 275 -166 275 -350c0 -171 -60 -338 -282 -338c-213 0 -274 137 -274 337c0 207 75 351 281 351zM334 642c-175 0 -236 -126 -236 -312c0 -205 76 -299 230 -299c151 0 237 94 237 300c0 185 -58 311 -231 311zM189 764v40h286v-40h-286z" />
    <glyph glyph-name="omacron" unicode="&#x14d;" horiz-adv-x="528" 
d="M266 487c166 0 212 -122 212 -249c0 -125 -49 -246 -212 -246s-216 95 -216 243c0 144 61 252 216 252zM266 450c-126 0 -173 -91 -173 -215c0 -137 49 -206 173 -206c106 0 168 65 168 209c0 121 -42 212 -168 212zM123 580v38h286v-38h-286z" />
    <glyph glyph-name="Obreve" unicode="&#x14e;" horiz-adv-x="666" 
d="M336 681c220 0 275 -166 275 -350c0 -171 -60 -338 -282 -338c-213 0 -274 137 -274 337c0 207 75 351 281 351zM334 642c-175 0 -236 -126 -236 -312c0 -205 76 -299 230 -299c151 0 237 94 237 300c0 185 -58 311 -231 311zM330 731c-101 0 -141 85 -143 141h36
c1 -40 28 -103 108 -103c77 0 106 65 107 103h35c-2 -57 -43 -141 -143 -141z" />
    <glyph glyph-name="obreve" unicode="&#x14f;" horiz-adv-x="528" 
d="M266 487c166 0 212 -122 212 -249c0 -125 -49 -246 -212 -246s-216 95 -216 243c0 144 61 252 216 252zM266 450c-126 0 -173 -91 -173 -215c0 -137 49 -206 173 -206c106 0 168 65 168 209c0 121 -42 212 -168 212zM266 548c-101 0 -141 83 -142 139h36
c0 -41 27 -101 107 -101c78 0 106 63 108 101h34c-2 -57 -43 -139 -143 -139z" />
    <glyph glyph-name="Ohungarumlaut" unicode="&#x150;" horiz-adv-x="666" 
d="M336 681c220 0 275 -166 275 -350c0 -171 -60 -338 -282 -338c-213 0 -274 137 -274 337c0 207 75 351 281 351zM334 642c-175 0 -236 -126 -236 -312c0 -205 76 -299 230 -299c151 0 237 94 237 300c0 185 -58 311 -231 311zM243 729l-16 22l139 105l34 -42zM377 729
l-15 22l139 105l34 -42z" />
    <glyph glyph-name="ohungarumlaut" unicode="&#x151;" horiz-adv-x="528" 
d="M266 487c166 0 212 -122 212 -249c0 -125 -49 -246 -212 -246s-216 95 -216 243c0 144 61 252 216 252zM266 450c-126 0 -173 -91 -173 -215c0 -137 49 -206 173 -206c106 0 168 65 168 209c0 121 -42 212 -168 212zM198 549l-22 18l109 139l42 -34zM313 549l-22 18
l109 139l42 -34z" />
    <glyph glyph-name="Racute" unicode="&#x154;" horiz-adv-x="564" 
d="M316 674c144 0 218 -80 218 -198c0 -76 -38 -193 -227 -192l215 -284h-52c-72 94 -144 189 -215 284h-147v-284h-43v674h251zM310 635h-202v-311h203c88 0 178 31 178 153c0 106 -76 158 -179 158zM238 728l-16 22l140 105l33 -42z" />
    <glyph glyph-name="racute" unicode="&#x155;" horiz-adv-x="295" 
d="M113 0h-42v479h32c8 -23 9 -58 9 -93h4c26 66 95 102 170 103l3 -44c-145 -8 -176 -83 -176 -181v-264zM113 547l-22 18l109 139l42 -34z" />
    <glyph glyph-name="Rcommaaccent" unicode="&#x156;" horiz-adv-x="564" 
d="M316 674c144 0 218 -80 218 -198c0 -76 -38 -193 -227 -192l215 -284h-52c-72 94 -144 189 -215 284h-147v-284h-43v674h251zM310 635h-202v-311h203c88 0 178 31 178 153c0 106 -76 158 -179 158zM233 -56c0 22 17 40 38 40c23 0 40 -15 40 -39c0 -4 -1 -14 -5 -22
l-57 -119l-17 6l33 97c-18 3 -32 18 -32 37z" />
    <glyph glyph-name="rcommaaccent" unicode="&#x157;" horiz-adv-x="295" 
d="M113 0h-42v479h32c8 -23 9 -58 9 -93h4c26 66 95 102 170 103l3 -44c-145 -8 -176 -83 -176 -181v-264zM54 -82c0 22 17 40 38 40c23 0 40 -15 40 -39c0 -4 -1 -14 -5 -22l-57 -119l-17 6l33 97c-18 3 -32 18 -32 37z" />
    <glyph glyph-name="Rcaron" unicode="&#x158;" horiz-adv-x="564" 
d="M316 674c144 0 218 -80 218 -198c0 -76 -38 -193 -227 -192l215 -284h-52c-72 94 -144 189 -215 284h-147v-284h-43v674h251zM310 635h-202v-311h203c88 0 178 31 178 153c0 106 -76 158 -179 158zM270 767l131 89l19 -20l-129 -110h-37l-134 111c2 2 17 18 18 20z" />
    <glyph glyph-name="rcaron" unicode="&#x159;" horiz-adv-x="295" 
d="M113 0h-42v479h32c8 -23 9 -58 9 -93h4c26 66 95 102 170 103l3 -44c-145 -8 -176 -83 -176 -181v-264zM135 589l130 101l20 -18c-32 -30 -98 -95 -130 -125h-36c-34 31 -102 96 -135 125c3 3 18 17 19 19c33 -26 100 -76 132 -102z" />
    <glyph glyph-name="Sacute" unicode="&#x15a;" horiz-adv-x="587" 
d="M289 32c153 0 206 78 206 146c0 94 -62 140 -196 158c-124 16 -234 37 -234 163c0 91 61 183 234 183c116 0 228 -52 228 -178c0 -5 -1 -11 -2 -17h-39c-1 80 -55 154 -188 154c-127 0 -187 -64 -187 -135c0 -100 81 -110 216 -131c123 -19 214 -67 214 -190
c0 -95 -68 -192 -251 -192c-148 0 -244 65 -244 193c0 6 0 13 1 20h40c1 -86 43 -174 202 -174zM271 728l-16 22l140 105l33 -42z" />
    <glyph glyph-name="sacute" unicode="&#x15b;" horiz-adv-x="462" 
d="M228 28c104 0 143 51 143 98c0 65 -46 92 -140 104c-88 10 -174 28 -174 123c0 70 46 134 174 134c83 0 169 -35 169 -122c0 -4 0 -8 -1 -13h-37c-3 52 -40 99 -133 99c-89 0 -129 -43 -129 -92c0 -70 55 -80 151 -93c94 -13 163 -45 163 -135c0 -70 -53 -139 -188 -139
c-97 0 -183 41 -183 140c0 4 0 9 1 15h37c2 -64 43 -119 147 -119zM219 547l-22 18l109 139l42 -34z" />
    <glyph glyph-name="Scircumflex" unicode="&#x15c;" horiz-adv-x="587" 
d="M289 32c153 0 206 78 206 146c0 94 -62 140 -196 158c-124 16 -234 37 -234 163c0 91 61 183 234 183c116 0 228 -52 228 -178c0 -5 -1 -11 -2 -17h-39c-1 80 -55 154 -188 154c-127 0 -187 -64 -187 -135c0 -100 81 -110 216 -131c123 -19 214 -67 214 -190
c0 -95 -68 -192 -251 -192c-148 0 -244 65 -244 193c0 6 0 13 1 20h40c1 -86 43 -174 202 -174zM422 727l-131 89l-132 -90c-1 2 -16 18 -18 20l134 111h36l130 -110z" />
    <glyph glyph-name="scircumflex" unicode="&#x15d;" horiz-adv-x="462" 
d="M228 28c104 0 143 51 143 98c0 65 -46 92 -140 104c-88 10 -174 28 -174 123c0 70 46 134 174 134c83 0 169 -35 169 -122c0 -4 0 -8 -1 -13h-37c-3 52 -40 99 -133 99c-89 0 -129 -43 -129 -92c0 -70 55 -80 151 -93c94 -13 163 -45 163 -135c0 -70 -53 -139 -188 -139
c-97 0 -183 41 -183 140c0 4 0 9 1 15h37c2 -64 43 -119 147 -119zM359 545l-131 103c-32 -27 -99 -78 -132 -104c-1 2 -16 16 -18 19c33 29 100 95 134 126h36c32 -30 99 -96 130 -126z" />
    <glyph glyph-name="Scedilla" unicode="&#x15e;" horiz-adv-x="587" 
d="M289 32c153 0 206 78 206 146c0 94 -62 140 -196 158c-124 16 -234 37 -234 163c0 91 61 183 234 183c116 0 228 -52 228 -178c0 -5 -1 -11 -2 -17h-39c-1 80 -55 154 -188 154c-127 0 -187 -64 -187 -135c0 -100 81 -110 216 -131c123 -19 214 -67 214 -190
c0 -93 -66 -188 -240 -192l-23 -47c5 0 11 1 17 1c47 0 95 -20 95 -73c0 -41 -34 -79 -101 -79c-29 0 -55 4 -86 17l9 25c32 -11 58 -14 73 -14c30 0 66 15 66 49c0 31 -28 47 -61 47c-11 0 -23 -1 -36 -6l-18 12l33 69c-136 6 -223 70 -223 192c0 6 0 13 1 20h40
c1 -86 43 -174 202 -174z" />
    <glyph glyph-name="scedilla" unicode="&#x15f;" horiz-adv-x="462" 
d="M230 -207c-29 0 -55 4 -86 16c4 9 6 18 10 26c32 -11 57 -14 72 -14c31 0 66 14 66 49c0 30 -28 47 -61 47c-10 0 -23 -2 -35 -7c-7 4 -12 9 -19 13l38 70c-94 3 -173 44 -173 138c0 4 1 9 2 15h37c2 -64 43 -119 146 -119c105 0 144 52 144 99c0 62 -48 92 -140 103
c-88 10 -175 29 -175 123c0 70 47 135 175 135c82 0 169 -35 169 -122c0 -4 0 -8 -1 -14h-38c-3 53 -39 100 -132 100c-89 0 -130 -44 -130 -92c0 -72 56 -80 152 -93c94 -13 162 -45 162 -143c0 -63 -51 -123 -165 -129c-10 -17 -19 -34 -29 -50h22c70 0 90 -46 90 -72
c0 -43 -32 -78 -101 -79z" />
    <glyph glyph-name="Tcommaaccent" unicode="&#x162;" horiz-adv-x="544" 
d="M296 635v-635h-44v635h-237v39h514v-39h-233zM236 -87c0 22 17 40 38 40c23 0 40 -15 40 -39c0 -4 -1 -14 -5 -22l-57 -119l-17 6l33 97c-18 3 -32 18 -32 37z" />
    <glyph glyph-name="tcommaaccent" unicode="&#x163;" horiz-adv-x="327" 
d="M144 600v-121h146v-35h-146v-297c0 -94 39 -118 113 -118c16 0 36 1 57 4v-35c-25 -3 -49 -5 -69 -5c-99 0 -144 36 -144 159v292h-81v28l83 8l12 120h29zM119 -87c0 22 17 40 38 40c23 0 40 -15 40 -39c0 -4 -1 -14 -5 -22l-57 -119l-17 6l33 97c-18 3 -32 18 -32 37z
" />
    <glyph glyph-name="Tcaron" unicode="&#x164;" horiz-adv-x="544" 
d="M296 635v-635h-44v635h-237v39h514v-39h-233zM276 767l131 89l19 -20l-129 -110h-37l-134 111c2 2 17 18 18 20z" />
    <glyph glyph-name="tcaron" unicode="&#x165;" horiz-adv-x="343" 
d="M153 600v-121h146v-35h-146v-297c0 -94 39 -118 113 -118c16 0 36 1 57 4v-35c-25 -3 -49 -5 -69 -5c-99 0 -144 36 -144 159v292h-81v28l83 8l12 120h29zM258 675c0 22 17 40 38 40c23 0 40 -15 40 -39c0 -4 -1 -14 -5 -22l-57 -119l-17 6l33 97c-18 3 -32 18 -32 37z
" />
    <glyph glyph-name="Tbar" unicode="&#x166;" horiz-adv-x="544" 
d="M296 635v-233h179v-33h-179v-369h-44v369h-186v33h186v233h-237v39h514v-39h-233z" />
    <glyph glyph-name="tbar" unicode="&#x167;" horiz-adv-x="327" 
d="M144 600v-121h146v-35h-146v-134h140v-34h-140v-129c0 -94 39 -118 113 -118c16 0 36 1 57 4v-35c-25 -3 -49 -5 -69 -5c-99 0 -144 36 -144 159v124h-75v34h75v134h-81v28l83 8l12 120h29z" />
    <glyph glyph-name="Utilde" unicode="&#x168;" horiz-adv-x="644" 
d="M579 674v-405c0 -162 -62 -276 -254 -276c-201 0 -260 104 -260 276v405h43v-406c0 -182 80 -236 218 -236c128 0 209 63 209 237v405h44zM389 738c-45 0 -95 37 -132 37c-23 0 -40 -9 -62 -41l-24 15c17 43 54 64 88 64c44 0 93 -37 129 -37c26 0 43 9 64 41l25 -15
c-18 -45 -54 -64 -88 -64z" />
    <glyph glyph-name="utilde" unicode="&#x169;" horiz-adv-x="505" 
d="M445 479v-479h-32c-9 19 -9 43 -9 80h-4c-43 -70 -113 -88 -162 -88c-156 0 -180 99 -180 208v279h44v-275c0 -93 16 -176 143 -176c106 0 157 89 157 180v271h43zM318 574c-45 0 -95 37 -132 37c-23 0 -40 -9 -62 -41l-24 15c17 43 54 64 88 64c44 0 93 -37 129 -37
c26 0 43 9 64 41l25 -15c-18 -45 -54 -64 -88 -64z" />
    <glyph glyph-name="Umacron" unicode="&#x16a;" horiz-adv-x="644" 
d="M579 674v-405c0 -162 -62 -276 -254 -276c-201 0 -260 104 -260 276v405h43v-406c0 -182 80 -236 218 -236c128 0 209 63 209 237v405h44zM177 755v40h286v-40h-286z" />
    <glyph glyph-name="umacron" unicode="&#x16b;" horiz-adv-x="505" 
d="M445 479v-479h-32c-9 19 -9 43 -9 80h-4c-43 -70 -113 -88 -162 -88c-156 0 -180 99 -180 208v279h44v-275c0 -93 16 -176 143 -176c106 0 157 89 157 180v271h43zM110 580v38h286v-38h-286z" />
    <glyph glyph-name="Ubreve" unicode="&#x16c;" horiz-adv-x="644" 
d="M579 674v-405c0 -162 -62 -276 -254 -276c-201 0 -260 104 -260 276v405h43v-406c0 -182 80 -236 218 -236c128 0 209 63 209 237v405h44zM326 717c-101 0 -141 85 -143 141h36c1 -40 28 -103 108 -103c77 0 106 65 107 103h35c-2 -57 -43 -141 -143 -141z" />
    <glyph glyph-name="ubreve" unicode="&#x16d;" horiz-adv-x="505" 
d="M445 479v-479h-32c-9 19 -9 43 -9 80h-4c-43 -70 -113 -88 -162 -88c-156 0 -180 99 -180 208v279h44v-275c0 -93 16 -176 143 -176c106 0 157 89 157 180v271h43zM258 548c-101 0 -141 83 -142 139h36c0 -41 27 -101 107 -101c78 0 106 63 108 101h34
c-2 -57 -43 -139 -143 -139z" />
    <glyph glyph-name="Uring" unicode="&#x16e;" horiz-adv-x="644" 
d="M579 674v-405c0 -162 -62 -276 -254 -276c-201 0 -260 104 -260 276v405h43v-406c0 -182 80 -236 218 -236c128 0 209 63 209 237v405h44zM324 697c-51 0 -92 42 -92 92c0 49 41 91 92 91c53 0 94 -42 94 -91c0 -51 -42 -92 -94 -92zM324 852c-34 0 -61 -29 -61 -63
s26 -64 61 -64c38 0 64 30 64 64c0 33 -26 63 -64 63z" />
    <glyph glyph-name="uring" unicode="&#x16f;" horiz-adv-x="505" 
d="M445 479v-479h-32c-9 19 -9 43 -9 80h-4c-43 -70 -113 -88 -162 -88c-156 0 -180 99 -180 208v279h44v-275c0 -93 16 -176 143 -176c106 0 157 89 157 180v271h43zM251 535c-51 0 -92 42 -92 92c0 49 41 91 92 91c53 0 94 -42 94 -91c0 -51 -42 -92 -94 -92zM251 690
c-34 0 -61 -29 -61 -63s26 -64 61 -64c38 0 64 30 64 64c0 33 -26 63 -64 63z" />
    <glyph glyph-name="Uhungarumlaut" unicode="&#x170;" horiz-adv-x="644" 
d="M579 674v-405c0 -162 -62 -276 -254 -276c-201 0 -260 104 -260 276v405h43v-406c0 -182 80 -236 218 -236c128 0 209 63 209 237v405h44zM227 729l-16 22l139 105l34 -42zM361 729l-15 22l139 105l34 -42z" />
    <glyph glyph-name="uhungarumlaut" unicode="&#x171;" horiz-adv-x="505" 
d="M445 479v-479h-32c-9 19 -9 43 -9 80h-4c-43 -70 -113 -88 -162 -88c-156 0 -180 99 -180 208v279h44v-275c0 -93 16 -176 143 -176c106 0 157 89 157 180v271h43zM174 549l-22 18l109 139l42 -34zM289 549l-22 18l109 139l42 -34z" />
    <glyph glyph-name="Uogonek" unicode="&#x172;" horiz-adv-x="644" 
d="M579 674v-405c0 -160 -60 -273 -247 -276c-43 -45 -56 -87 -56 -114c0 -36 24 -52 65 -52c24 0 50 5 72 12l5 -20c-28 -14 -59 -22 -94 -22c-59 0 -88 28 -88 67c0 33 16 83 69 129c-185 7 -240 110 -240 276v405h43v-406c0 -182 80 -236 218 -236c128 0 209 63 209 237
v405h44z" />
    <glyph glyph-name="uogonek" unicode="&#x173;" horiz-adv-x="505" 
d="M445 479v-479h-20c-47 -46 -61 -90 -61 -119c0 -36 24 -52 65 -52c24 0 50 5 72 12c2 -6 4 -13 5 -19c-28 -14 -59 -23 -94 -23c-59 0 -88 28 -88 67c0 37 20 93 85 142c-5 18 -5 40 -5 72h-4c-43 -70 -113 -88 -162 -88c-156 0 -180 99 -180 208v279h44v-263
c0 -101 13 -188 143 -188c106 0 157 89 157 180v271h43z" />
    <glyph glyph-name="Wcircumflex" unicode="&#x174;" horiz-adv-x="855" 
d="M428 607h-4c-18 -68 -37 -137 -58 -207l-120 -400h-52l-184 674h48c30 -116 59 -231 90 -348l71 -272h4c27 95 51 182 75 262l106 358h46l104 -345c27 -89 52 -178 78 -275h5l70 273c41 160 67 254 90 347h47l-183 -674h-51l-113 373c-25 82 -49 159 -69 234zM556 727
l-131 89l-132 -90c-1 2 -16 18 -18 20l134 111h36l130 -110z" />
    <glyph glyph-name="wcircumflex" unicode="&#x175;" horiz-adv-x="678" 
d="M339 425h-5c-18 -69 -41 -146 -65 -222l-66 -205h-49c-48 160 -97 320 -145 481h43l44 -148c27 -92 56 -187 81 -283h5c22 82 43 159 84 282l49 149h46l65 -206l69 -226h5c21 85 44 164 67 243l56 189h43c-48 -161 -97 -321 -145 -481h-49c-15 46 -31 92 -65 200
c-24 76 -46 154 -68 227zM470 545l-131 103c-32 -27 -99 -78 -132 -104c-1 2 -16 16 -18 19c33 29 100 95 134 126h36c32 -30 99 -96 130 -126z" />
    <glyph glyph-name="Ycircumflex" unicode="&#x176;" horiz-adv-x="527" 
d="M256 318h7c5 13 90 161 96 173l105 183h51l-234 -402v-272h-45v271l-226 403h50l101 -180c31 -56 65 -117 95 -176zM394 725l-131 89l-132 -90c-1 2 -16 18 -18 20l134 111h36l130 -110z" />
    <glyph glyph-name="ycircumflex" unicode="&#x177;" horiz-adv-x="422" 
d="M208 36h7c21 71 50 150 74 220l75 222h43l-181 -534c-27 -79 -47 -145 -147 -145h-54v36h49c55 0 79 21 99 77l30 86l-24 -2c-24 80 -51 146 -171 482h45l75 -211c23 -66 56 -154 80 -231zM345 547l-131 103c-32 -27 -99 -78 -132 -104c-1 2 -16 16 -18 19
c33 29 100 95 134 126h36c32 -30 99 -96 130 -126z" />
    <glyph glyph-name="Zacute" unicode="&#x179;" horiz-adv-x="542" 
d="M27 0v38l425 597h-408v40h461v-37l-425 -599h435v-39h-488zM258 728l-16 22l140 105l33 -42z" />
    <glyph glyph-name="zacute" unicode="&#x17a;" horiz-adv-x="419" 
d="M17 0v31l321 411h-296v37h347v-34l-320 -410h321v-35h-373zM189 547l-22 18l109 139l42 -34z" />
    <glyph glyph-name="Zdotaccent" unicode="&#x17b;" horiz-adv-x="542" 
d="M27 0v38l425 597h-408v40h461v-37l-425 -599h435v-39h-488zM245 776c0 19 15 35 35 35c19 0 35 -16 35 -35c0 -20 -16 -35 -35 -35c-20 0 -35 15 -35 35z" />
    <glyph glyph-name="zdotaccent" unicode="&#x17c;" horiz-adv-x="419" 
d="M17 0v31l321 411h-296v37h347v-34l-320 -410h321v-35h-373zM187 606c0 19 15 35 35 35c19 0 35 -16 35 -35c0 -20 -16 -35 -35 -35c-20 0 -35 15 -35 35z" />
    <glyph glyph-name="AEacute" unicode="&#x1fc;" horiz-adv-x="935" 
d="M478 241h-259l-162 -241h-49l450 674h442v-36h-376v-285h343v-36h-343v-281h385v-36h-431v241zM479 628c-2 0 -3 1 -5 1l-136 -208c-31 -48 -64 -95 -93 -141h233c0 116 1 232 1 348zM590 728l-16 22l140 105l33 -42z" />
    <glyph glyph-name="aeacute" unicode="&#x1fd;" horiz-adv-x="838" 
d="M593 28c119 0 147 64 149 118h36c1 -6 1 -10 1 -14c0 -92 -86 -140 -187 -140c-100 0 -157 40 -184 104c-67 -91 -147 -104 -216 -104c-86 0 -158 39 -158 133c0 92 65 146 203 146h143v42c0 56 -20 137 -143 137c-96 0 -133 -51 -137 -104h-36c-1 5 -1 9 -1 12
c0 97 101 128 174 128c99 0 156 -43 174 -108c29 65 86 109 179 109c133 0 194 -86 194 -201c0 -16 -1 -33 -3 -50h-356c0 -141 54 -208 168 -208zM196 26c124 0 171 65 197 104c-8 34 -11 59 -11 105h-142c-115 0 -163 -40 -163 -110c0 -55 38 -99 119 -99zM590 450
c-114 0 -156 -84 -162 -180h312c0 96 -29 180 -150 180zM417 547l-22 18l109 139l42 -34z" />
    <glyph glyph-name="Oslashacute" unicode="&#x1fe;" horiz-adv-x="666" 
d="M322 728l-16 22l140 105l33 -42zM336 681c86 0 146 -25 189 -68l56 74l26 -21l-60 -78c48 -65 64 -159 64 -257c0 -171 -60 -338 -282 -338c-88 0 -150 23 -192 64l-56 -74l-27 20l61 79c-44 59 -60 145 -60 248c0 207 75 351 281 351zM565 331c0 89 -14 165 -48 219
l-352 -458c37 -41 92 -61 163 -61c151 0 237 94 237 300zM334 642c-175 0 -236 -126 -236 -312c0 -93 15 -162 46 -210l353 458c-36 41 -89 64 -163 64z" />
    <glyph glyph-name="oslashacute" unicode="&#x1ff;" horiz-adv-x="528" 
d="M257 547l-22 18l109 139l42 -34zM266 487c67 0 114 -20 147 -52l46 53l24 -20l-49 -57c32 -47 44 -109 44 -173c0 -125 -49 -246 -212 -246c-70 0 -120 17 -154 49l-43 -49l-23 19l46 53c-30 42 -42 100 -42 171c0 144 61 252 216 252zM266 450
c-126 0 -173 -91 -173 -215c0 -59 9 -104 29 -137l263 306c-26 29 -65 46 -119 46zM434 238c0 55 -9 103 -30 139l-264 -305c28 -29 69 -43 126 -43c106 0 168 65 168 209z" />
    <glyph glyph-name="Aring" unicode="&#xc5;" horiz-adv-x="579" 
d="M522 0l-70 183h-328l-68 -183h-46l255 675h47l257 -675h-47zM291 619h-7c-20 -63 -42 -123 -65 -184l-81 -214h302l-82 212c-23 60 -45 122 -67 186zM286 704c-51 0 -92 42 -92 92c0 49 41 91 92 91c53 0 94 -42 94 -91c0 -51 -42 -92 -94 -92zM286 859
c-34 0 -61 -29 -61 -63s26 -64 61 -64c38 0 64 30 64 64c0 33 -26 63 -64 63z" />
    <glyph glyph-name="Ccedilla" unicode="&#xc7;" horiz-adv-x="591" 
d="M327 -205c-28 0 -54 4 -86 17c4 8 6 17 10 25c32 -11 57 -14 72 -14c31 0 66 15 66 49c0 32 -28 47 -60 47c-12 0 -24 -1 -36 -6l-19 12l38 69c-195 6 -257 138 -257 337c0 206 76 350 274 350c117 0 220 -58 220 -173c0 -4 0 -9 -1 -15h-37c-2 75 -53 149 -186 149
c-163 0 -227 -126 -227 -311c0 -201 71 -299 227 -299c147 0 195 85 197 163h38c1 -7 1 -11 1 -16c0 -109 -91 -179 -217 -185c-9 -16 -19 -32 -27 -48c10 1 20 1 28 1c65 -4 84 -48 84 -73c0 -43 -33 -78 -102 -79z" />
    <glyph glyph-name="cent" unicode="&#xa2;" horiz-adv-x="579" 
d="M286 569v118h29v-117c83 -3 163 -41 163 -132c0 -3 0 -7 -1 -12h-36c-2 52 -37 103 -126 107v-419c101 2 134 64 135 120h36v-12c0 -90 -72 -142 -171 -145v-131h-29v131c-135 7 -191 87 -191 241c0 130 51 241 191 251zM138 321c0 -142 52 -199 148 -207v418
c-104 -9 -148 -94 -148 -211z" />
    <glyph glyph-name="florin" unicode="&#x192;" horiz-adv-x="501" 
d="M139 358v35h90c1 7 6 48 8 59c19 148 57 206 144 206c24 0 51 -4 77 -12l-11 -36c-20 6 -43 9 -64 9c-69 0 -91 -61 -106 -172l-6 -54h103v-35h-108c-2 -12 -25 -189 -26 -203c-29 -223 -80 -257 -152 -257c-22 0 -40 3 -67 13l11 36c24 -6 36 -9 55 -9
c68 0 90 63 113 238l23 182h-84z" />
    <glyph glyph-name="uni1FBD" unicode="&#x1fbd;" horiz-adv-x="514" 
d="M279 534l-20 13c22 31 35 62 35 86c0 29 -15 50 -60 68l12 45c60 -18 90 -53 90 -98c0 -35 -20 -76 -57 -114z" />
    <glyph glyph-name="uni1FBE" unicode="&#x1fbe;" horiz-adv-x="540" 
d="M260 -62h40v-93c0 -57 19 -56 79 -56v-33c-16 -3 -32 -4 -41 -4c-59 0 -78 25 -78 86v100z" />
    <glyph glyph-name="uni1FC1" unicode="&#x1fc1;" horiz-adv-x="540" 
d="M353 709c26 0 42 9 64 41l24 -15c-18 -45 -54 -63 -87 -63c-46 0 -96 36 -132 36c-23 0 -40 -9 -62 -41l-25 16c18 43 54 64 88 64c44 0 94 -38 130 -38zM184 591c0 17 13 30 29 30s30 -13 30 -30c0 -16 -14 -29 -30 -29s-29 13 -29 29zM343 591c0 17 13 30 29 30
s30 -13 30 -30c0 -16 -14 -29 -30 -29s-29 13 -29 29z" />
    <glyph glyph-name="uni1FCD" unicode="&#x1fcd;" horiz-adv-x="540" 
d="M409 552l-25 -12l-110 189l50 20zM209 535c-6 4 -12 9 -19 13c22 29 36 60 36 83c0 28 -16 48 -63 66l13 44c62 -17 93 -52 93 -95c0 -34 -21 -75 -60 -111z" />
    <glyph glyph-name="uni1FCE" unicode="&#x1fce;" horiz-adv-x="540" 
d="M326 538l-25 12l85 197c16 -6 34 -13 50 -20c-36 -63 -73 -126 -110 -189zM225 539c-6 4 -12 9 -19 13c22 30 35 62 35 86c0 29 -15 49 -61 68l13 45c60 -18 90 -54 90 -98c0 -35 -20 -77 -58 -114z" />
    <glyph glyph-name="uni1FCF" unicode="&#x1fcf;" horiz-adv-x="540" 
d="M276 536l-21 12c22 26 36 53 36 73c0 24 -13 43 -60 55l11 40c63 -14 90 -45 90 -83c0 -30 -19 -64 -56 -97zM342 738c-46 0 -95 38 -132 38c-23 0 -40 -9 -62 -41l-24 15c17 43 53 64 87 64c45 0 94 -37 130 -37c26 0 42 8 64 40l24 -14c-17 -46 -53 -65 -87 -65z" />
    <glyph glyph-name="uni1FDD" unicode="&#x1fdd;" horiz-adv-x="540" 
d="M396 551l-25 -12l-110 190c16 6 34 13 50 20c29 -66 57 -132 85 -198zM220 545l-19 -14c-37 38 -57 80 -57 115c0 44 29 80 89 98l13 -45c-46 -19 -61 -40 -61 -68c0 -24 13 -56 35 -86z" />
    <glyph glyph-name="uni1FDE" unicode="&#x1fde;" horiz-adv-x="540" 
d="M326 539l-26 12c29 66 57 132 85 198c17 -7 34 -14 51 -20zM264 549c-7 -4 -13 -9 -19 -13c-38 38 -58 79 -58 114c0 45 30 80 90 98l13 -45c-46 -18 -61 -39 -61 -68c0 -22 13 -55 35 -86z" />
    <glyph glyph-name="uni1FDF" unicode="&#x1fdf;" horiz-adv-x="540" 
d="M294 548l-21 -12c-37 33 -56 67 -56 97c0 38 28 69 90 83l11 -40c-46 -12 -60 -31 -60 -55c0 -20 15 -47 36 -73zM339 749c-46 0 -95 37 -132 37c-23 0 -40 -9 -62 -41l-25 15c18 43 54 64 88 64c44 0 94 -37 130 -37c26 0 42 8 64 40l24 -14c-17 -46 -54 -64 -87 -64z
" />
    <glyph glyph-name="uni1FED" unicode="&#x1fed;" horiz-adv-x="540" 
d="M315 554l-25 -12l-111 189l51 21zM154 602c0 17 13 31 30 31s31 -14 31 -31c0 -16 -14 -30 -31 -30s-30 14 -30 30zM337 602c0 17 13 31 30 31s31 -14 31 -31c0 -16 -14 -30 -31 -30s-30 14 -30 30z" />
    <glyph glyph-name="uni1FEE" unicode="&#x1fee;" horiz-adv-x="540" 
d="M250 542l-25 12l85 198l51 -21zM154 602c0 17 13 31 30 31s31 -14 31 -31c0 -16 -14 -30 -31 -30s-30 14 -30 30zM337 602c0 17 13 31 30 31s31 -14 31 -31c0 -16 -14 -30 -31 -30s-30 14 -30 30z" />
    <glyph glyph-name="uni1FFE" unicode="&#x1ffe;" horiz-adv-x="540" 
d="M315 547l-20 -13c-37 38 -57 79 -57 114c0 45 29 80 89 98l13 -45c-46 -18 -61 -39 -61 -68c0 -24 14 -55 36 -86z" />
    <glyph glyph-name="uni1F00" unicode="&#x1f00;" horiz-adv-x="523" 
d="M257 487c75 0 130 -25 162 -79h4c0 32 3 56 9 71h31v-479h-33c-7 17 -8 49 -8 86h-4c-40 -70 -101 -94 -166 -94c-154 0 -202 101 -202 245c0 139 62 250 207 250zM257 29c117 0 164 104 164 185v67c0 101 -57 171 -161 171c-112 0 -167 -76 -167 -215
c0 -125 39 -208 164 -208zM265 534l-20 13c22 31 35 62 35 86c0 29 -15 50 -60 68l12 45c60 -18 90 -53 90 -98c0 -35 -20 -76 -57 -114z" />
    <glyph glyph-name="uni1F01" unicode="&#x1f01;" horiz-adv-x="523" 
d="M257 487c75 0 130 -25 162 -79h4c0 32 3 56 9 71h31v-479h-33c-7 17 -8 49 -8 86h-4c-40 -70 -101 -94 -166 -94c-154 0 -202 101 -202 245c0 139 62 250 207 250zM257 29c117 0 164 104 164 185v67c0 101 -57 171 -161 171c-112 0 -167 -76 -167 -215
c0 -125 39 -208 164 -208zM298 547l-20 -13c-37 38 -57 79 -57 114c0 45 29 80 89 98l13 -45c-46 -18 -61 -39 -61 -68c0 -24 14 -55 36 -86z" />
    <glyph glyph-name="uni1F02" unicode="&#x1f02;" horiz-adv-x="523" 
d="M257 487c75 0 130 -25 162 -79h4c0 32 3 56 9 71h31v-479h-33c-7 17 -8 49 -8 86h-4c-40 -70 -101 -94 -166 -94c-154 0 -202 101 -202 245c0 139 62 250 207 250zM257 29c117 0 164 104 164 185v67c0 101 -57 171 -161 171c-112 0 -167 -76 -167 -215
c0 -125 39 -208 164 -208zM395 552l-25 -12l-110 189l50 20zM195 535c-6 4 -12 9 -19 13c22 29 36 60 36 83c0 28 -16 48 -63 66l13 44c62 -17 93 -52 93 -95c0 -34 -21 -75 -60 -111z" />
    <glyph glyph-name="uni1F03" unicode="&#x1f03;" horiz-adv-x="523" 
d="M257 487c75 0 130 -25 162 -79h4c0 32 3 56 9 71h31v-479h-33c-7 17 -8 49 -8 86h-4c-40 -70 -101 -94 -166 -94c-154 0 -202 101 -202 245c0 139 62 250 207 250zM257 29c117 0 164 104 164 185v67c0 101 -57 171 -161 171c-112 0 -167 -76 -167 -215
c0 -125 39 -208 164 -208zM387 551l-25 -12l-110 190c16 6 34 13 50 20c29 -66 57 -132 85 -198zM211 545l-19 -14c-37 38 -57 80 -57 115c0 44 29 80 89 98l13 -45c-46 -19 -61 -40 -61 -68c0 -24 13 -56 35 -86z" />
    <glyph glyph-name="uni1F04" unicode="&#x1f04;" horiz-adv-x="523" 
d="M257 487c75 0 130 -25 162 -79h4c0 32 3 56 9 71h31v-479h-33c-7 17 -8 49 -8 86h-4c-40 -70 -101 -94 -166 -94c-154 0 -202 101 -202 245c0 139 62 250 207 250zM257 29c117 0 164 104 164 185v67c0 101 -57 171 -161 171c-112 0 -167 -76 -167 -215
c0 -125 39 -208 164 -208zM308 538l-25 12l85 197c16 -6 34 -13 50 -20c-36 -63 -73 -126 -110 -189zM207 539c-6 4 -12 9 -19 13c22 30 35 62 35 86c0 29 -15 49 -61 68l13 45c60 -18 90 -54 90 -98c0 -35 -20 -77 -58 -114z" />
    <glyph glyph-name="uni1F05" unicode="&#x1f05;" horiz-adv-x="523" 
d="M257 487c75 0 130 -25 162 -79h4c0 32 3 56 9 71h31v-479h-33c-7 17 -8 49 -8 86h-4c-40 -70 -101 -94 -166 -94c-154 0 -202 101 -202 245c0 139 62 250 207 250zM257 29c117 0 164 104 164 185v67c0 101 -57 171 -161 171c-112 0 -167 -76 -167 -215
c0 -125 39 -208 164 -208zM296 539l-26 12c29 66 57 132 85 198c17 -7 34 -14 51 -20zM234 549c-7 -4 -13 -9 -19 -13c-38 38 -58 79 -58 114c0 45 30 80 90 98l13 -45c-46 -18 -61 -39 -61 -68c0 -22 13 -55 35 -86z" />
    <glyph glyph-name="uni1F06" unicode="&#x1f06;" horiz-adv-x="523" 
d="M257 487c75 0 130 -25 162 -79h4c0 32 3 56 9 71h31v-479h-33c-7 17 -8 49 -8 86h-4c-40 -70 -101 -94 -166 -94c-154 0 -202 101 -202 245c0 139 62 250 207 250zM257 29c117 0 164 104 164 185v67c0 101 -57 171 -161 171c-112 0 -167 -76 -167 -215
c0 -125 39 -208 164 -208zM252 536l-21 12c22 26 36 53 36 73c0 24 -13 43 -60 55l11 40c63 -14 90 -45 90 -83c0 -30 -19 -64 -56 -97zM318 738c-46 0 -95 38 -132 38c-23 0 -40 -9 -62 -41l-24 15c17 43 53 64 87 64c45 0 94 -37 130 -37c26 0 42 8 64 40l24 -14
c-17 -46 -53 -65 -87 -65z" />
    <glyph glyph-name="uni1F07" unicode="&#x1f07;" horiz-adv-x="523" 
d="M257 487c75 0 130 -25 162 -79h4c0 32 3 56 9 71h31v-479h-33c-7 17 -8 49 -8 86h-4c-40 -70 -101 -94 -166 -94c-154 0 -202 101 -202 245c0 139 62 250 207 250zM257 29c117 0 164 104 164 185v67c0 101 -57 171 -161 171c-112 0 -167 -76 -167 -215
c0 -125 39 -208 164 -208zM294 548l-21 -12c-37 33 -56 67 -56 97c0 38 28 69 90 83l11 -40c-46 -12 -60 -31 -60 -55c0 -20 15 -47 36 -73zM339 749c-46 0 -95 37 -132 37c-23 0 -40 -9 -62 -41l-25 15c18 43 54 64 88 64c44 0 94 -37 130 -37c26 0 42 8 64 40l24 -14
c-17 -46 -54 -64 -87 -64z" />
    <glyph glyph-name="uni1F08" unicode="&#x1f08;" horiz-adv-x="579" 
d="M522 0l-70 183h-328l-68 -183h-46l255 675h47l257 -675h-47zM291 619h-7c-20 -63 -42 -123 -65 -184l-81 -214h302l-82 212c-23 60 -45 122 -67 186zM27 475l-20 13c22 31 35 62 35 86c0 29 -15 50 -60 68l12 45c60 -18 90 -53 90 -98c0 -35 -20 -76 -57 -114z" />
    <glyph glyph-name="uni1F09" unicode="&#x1f09;" horiz-adv-x="579" 
d="M522 0l-70 183h-328l-68 -183h-46l255 675h47l257 -675h-47zM291 619h-7c-20 -63 -42 -123 -65 -184l-81 -214h302l-82 212c-23 60 -45 122 -67 186zM65 489l-20 -13c-37 38 -57 79 -57 114c0 45 29 80 89 98l13 -45c-46 -18 -61 -39 -61 -68c0 -24 14 -55 36 -86z" />
    <glyph glyph-name="uni1F0A" unicode="&#x1f0a;" horiz-adv-x="579" 
d="M522 0l-70 183h-328l-68 -183h-46l255 675h47l257 -675h-47zM291 619h-7c-20 -63 -42 -123 -65 -184l-81 -214h302l-82 212c-23 60 -45 122 -67 186zM124 491l-25 -12l-110 189l50 20zM-76 474c-6 4 -12 9 -19 13c22 29 36 60 36 83c0 28 -16 48 -63 66l13 44
c62 -17 93 -52 93 -95c0 -34 -21 -75 -60 -111z" />
    <glyph glyph-name="uni1F0B" unicode="&#x1f0b;" horiz-adv-x="579" 
d="M522 0l-70 183h-328l-68 -183h-46l255 675h47l257 -675h-47zM291 619h-7c-20 -63 -42 -123 -65 -184l-81 -214h302l-82 212c-23 60 -45 122 -67 186zM123 492l-25 -12l-110 190c16 6 34 13 50 20c29 -66 57 -132 85 -198zM-53 486l-19 -14c-37 38 -57 80 -57 115
c0 44 29 80 89 98l13 -45c-46 -19 -61 -40 -61 -68c0 -24 13 -56 35 -86z" />
    <glyph glyph-name="uni1F0C" unicode="&#x1f0c;" horiz-adv-x="579" 
d="M522 0l-70 183h-328l-68 -183h-46l255 675h47l257 -675h-47zM291 619h-7c-20 -63 -42 -123 -65 -184l-81 -214h302l-82 212c-23 60 -45 122 -67 186zM43 479l-25 12l85 197c16 -6 34 -13 50 -20c-36 -63 -73 -126 -110 -189zM-58 480c-6 4 -12 9 -19 13
c22 30 35 62 35 86c0 29 -15 49 -61 68l13 45c60 -18 90 -54 90 -98c0 -35 -20 -77 -58 -114z" />
    <glyph glyph-name="uni1F0D" unicode="&#x1f0d;" horiz-adv-x="579" 
d="M522 0l-70 183h-328l-68 -183h-46l255 675h47l257 -675h-47zM291 619h-7c-20 -63 -42 -123 -65 -184l-81 -214h302l-82 212c-23 60 -45 122 -67 186zM23 481l-26 12c29 66 57 132 85 198c17 -7 34 -14 51 -20zM-39 491c-7 -4 -13 -9 -19 -13c-38 38 -58 79 -58 114
c0 45 30 80 90 98l13 -45c-46 -18 -61 -39 -61 -68c0 -22 13 -55 35 -86z" />
    <glyph glyph-name="uni1F0E" unicode="&#x1f0e;" horiz-adv-x="579" 
d="M522 0l-70 183h-328l-68 -183h-46l255 675h47l257 -675h-47zM291 619h-7c-20 -63 -42 -123 -65 -184l-81 -214h302l-82 212c-23 60 -45 122 -67 186zM11 425l-21 12c22 26 36 53 36 73c0 24 -13 43 -60 55l11 40c63 -14 90 -45 90 -83c0 -30 -19 -64 -56 -97zM77 627
c-46 0 -95 38 -132 38c-23 0 -40 -9 -62 -41l-24 15c17 43 53 64 87 64c45 0 94 -37 130 -37c26 0 42 8 64 40l24 -14c-17 -46 -53 -65 -87 -65z" />
    <glyph glyph-name="uni1F0F" unicode="&#x1f0f;" horiz-adv-x="579" 
d="M522 0l-70 183h-328l-68 -183h-46l255 675h47l257 -675h-47zM291 619h-7c-20 -63 -42 -123 -65 -184l-81 -214h302l-82 212c-23 60 -45 122 -67 186zM28 427l-21 -12c-37 33 -56 67 -56 97c0 38 28 69 90 83l11 -40c-46 -12 -60 -31 -60 -55c0 -20 15 -47 36 -73zM73 628
c-46 0 -95 37 -132 37c-23 0 -40 -9 -62 -41l-25 15c18 43 54 64 88 64c44 0 94 -37 130 -37c26 0 42 8 64 40l24 -14c-17 -46 -54 -64 -87 -64z" />
    <glyph glyph-name="uni1F10" unicode="&#x1f10;" horiz-adv-x="448" 
d="M236 -8c-136 0 -189 64 -189 140c0 39 14 97 80 122v4c-58 19 -71 58 -71 95c0 73 51 134 179 134c90 0 170 -45 170 -131c0 -4 0 -8 -1 -13l-36 -1c-2 56 -41 109 -139 109c-68 0 -128 -31 -128 -96c0 -58 52 -77 96 -77h96v-39h-99c-64 0 -103 -46 -103 -104
s41 -108 144 -108c115 0 147 67 149 126h35c0 -6 1 -10 1 -14c0 -96 -77 -147 -184 -147zM224 534l-20 13c22 31 35 62 35 86c0 29 -15 50 -60 68l12 45c60 -18 90 -53 90 -98c0 -35 -20 -76 -57 -114z" />
    <glyph glyph-name="uni1F11" unicode="&#x1f11;" horiz-adv-x="448" 
d="M236 -8c-136 0 -189 64 -189 140c0 39 14 97 80 122v4c-58 19 -71 58 -71 95c0 73 51 134 179 134c90 0 170 -45 170 -131c0 -4 0 -8 -1 -13l-36 -1c-2 56 -41 109 -139 109c-68 0 -128 -31 -128 -96c0 -58 52 -77 96 -77h96v-39h-99c-64 0 -103 -46 -103 -104
s41 -108 144 -108c115 0 147 67 149 126h35c0 -6 1 -10 1 -14c0 -96 -77 -147 -184 -147zM260 547l-20 -13c-37 38 -57 79 -57 114c0 45 29 80 89 98l13 -45c-46 -18 -61 -39 -61 -68c0 -24 14 -55 36 -86z" />
    <glyph glyph-name="uni1F12" unicode="&#x1f12;" horiz-adv-x="448" 
d="M236 -8c-136 0 -189 64 -189 140c0 39 14 97 80 122v4c-58 19 -71 58 -71 95c0 73 51 134 179 134c90 0 170 -45 170 -131c0 -4 0 -8 -1 -13l-36 -1c-2 56 -41 109 -139 109c-68 0 -128 -31 -128 -96c0 -58 52 -77 96 -77h96v-39h-99c-64 0 -103 -46 -103 -104
s41 -108 144 -108c115 0 147 67 149 126h35c0 -6 1 -10 1 -14c0 -96 -77 -147 -184 -147zM361 552l-25 -12l-110 189l50 20zM161 535c-6 4 -12 9 -19 13c22 29 36 60 36 83c0 28 -16 48 -63 66l13 44c62 -17 93 -52 93 -95c0 -34 -21 -75 -60 -111z" />
    <glyph glyph-name="uni1F13" unicode="&#x1f13;" horiz-adv-x="448" 
d="M236 -8c-136 0 -189 64 -189 140c0 39 14 97 80 122v4c-58 19 -71 58 -71 95c0 73 51 134 179 134c90 0 170 -45 170 -131c0 -4 0 -8 -1 -13l-36 -1c-2 56 -41 109 -139 109c-68 0 -128 -31 -128 -96c0 -58 52 -77 96 -77h96v-39h-99c-64 0 -103 -46 -103 -104
s41 -108 144 -108c115 0 147 67 149 126h35c0 -6 1 -10 1 -14c0 -96 -77 -147 -184 -147zM348 551l-25 -12l-110 190c16 6 34 13 50 20c29 -66 57 -132 85 -198zM172 545l-19 -14c-37 38 -57 80 -57 115c0 44 29 80 89 98l13 -45c-46 -19 -61 -40 -61 -68
c0 -24 13 -56 35 -86z" />
    <glyph glyph-name="uni1F14" unicode="&#x1f14;" horiz-adv-x="448" 
d="M236 -8c-136 0 -189 64 -189 140c0 39 14 97 80 122v4c-58 19 -71 58 -71 95c0 73 51 134 179 134c90 0 170 -45 170 -131c0 -4 0 -8 -1 -13l-36 -1c-2 56 -41 109 -139 109c-68 0 -128 -31 -128 -96c0 -58 52 -77 96 -77h96v-39h-99c-64 0 -103 -46 -103 -104
s41 -108 144 -108c115 0 147 67 149 126h35c0 -6 1 -10 1 -14c0 -96 -77 -147 -184 -147zM271 538l-25 12l85 197c16 -6 34 -13 50 -20c-36 -63 -73 -126 -110 -189zM170 539c-6 4 -12 9 -19 13c22 30 35 62 35 86c0 29 -15 49 -61 68l13 45c60 -18 90 -54 90 -98
c0 -35 -20 -77 -58 -114z" />
    <glyph glyph-name="uni1F15" unicode="&#x1f15;" horiz-adv-x="448" 
d="M236 -8c-136 0 -189 64 -189 140c0 39 14 97 80 122v4c-58 19 -71 58 -71 95c0 73 51 134 179 134c90 0 170 -45 170 -131c0 -4 0 -8 -1 -13l-36 -1c-2 56 -41 109 -139 109c-68 0 -128 -31 -128 -96c0 -58 52 -77 96 -77h96v-39h-99c-64 0 -103 -46 -103 -104
s41 -108 144 -108c115 0 147 67 149 126h35c0 -6 1 -10 1 -14c0 -96 -77 -147 -184 -147zM268 539l-26 12c29 66 57 132 85 198c17 -7 34 -14 51 -20zM206 549c-7 -4 -13 -9 -19 -13c-38 38 -58 79 -58 114c0 45 30 80 90 98l13 -45c-46 -18 -61 -39 -61 -68
c0 -22 13 -55 35 -86z" />
    <glyph glyph-name="uni1F18" unicode="&#x1f18;" horiz-adv-x="529" 
d="M65 0v674h418v-39h-375v-266h346v-39h-346v-290h388v-40h-431zM-80 473l-20 13c22 31 35 62 35 86c0 29 -15 50 -60 68l12 45c60 -18 90 -53 90 -98c0 -35 -20 -76 -57 -114z" />
    <glyph glyph-name="uni1F19" unicode="&#x1f19;" horiz-adv-x="529" 
d="M65 0v674h418v-39h-375v-266h346v-39h-346v-290h388v-40h-431zM-41 487l-20 -13c-37 38 -57 79 -57 114c0 45 29 80 89 98l13 -45c-46 -18 -61 -39 -61 -68c0 -24 14 -55 36 -86z" />
    <glyph glyph-name="uni1F1A" unicode="&#x1f1a;" horiz-adv-x="529" 
d="M65 0v674h418v-39h-375v-266h346v-39h-346v-290h388v-40h-431zM24 492l-25 -12l-110 189l50 20zM-176 475c-6 4 -12 9 -19 13c22 29 36 60 36 83c0 28 -16 48 -63 66l13 44c62 -17 93 -52 93 -95c0 -34 -21 -75 -60 -111z" />
    <glyph glyph-name="uni1F1B" unicode="&#x1f1b;" horiz-adv-x="529" 
d="M65 0v674h418v-39h-375v-266h346v-39h-346v-290h388v-40h-431zM9 491l-25 -12l-110 190c16 6 34 13 50 20c29 -66 57 -132 85 -198zM-167 485l-19 -14c-37 38 -57 80 -57 115c0 44 29 80 89 98l13 -45c-46 -19 -61 -40 -61 -68c0 -24 13 -56 35 -86z" />
    <glyph glyph-name="uni1F1C" unicode="&#x1f1c;" horiz-adv-x="529" 
d="M65 0v674h418v-39h-375v-266h346v-39h-346v-290h388v-40h-431zM-91 478l-25 12l85 197c16 -6 34 -13 50 -20c-36 -63 -73 -126 -110 -189zM-192 479c-6 4 -12 9 -19 13c22 30 35 62 35 86c0 29 -15 49 -61 68l13 45c60 -18 90 -54 90 -98c0 -35 -20 -77 -58 -114z" />
    <glyph glyph-name="uni1F1D" unicode="&#x1f1d;" horiz-adv-x="529" 
d="M65 0v674h418v-39h-375v-266h346v-39h-346v-290h388v-40h-431zM-87 481l-26 12c29 66 57 132 85 198c17 -7 34 -14 51 -20zM-149 491c-7 -4 -13 -9 -19 -13c-38 38 -58 79 -58 114c0 45 30 80 90 98l13 -45c-46 -18 -61 -39 -61 -68c0 -22 13 -55 35 -86z" />
    <glyph glyph-name="uni1F20" unicode="&#x1f20;" horiz-adv-x="515" 
d="M277 488c155 0 179 -101 179 -205v-283h-43v274c0 78 -10 178 -143 178c-111 0 -168 -90 -168 -181v-271h-42v479h32c9 -19 9 -42 9 -79h4c43 70 119 88 172 88zM226 534l-20 13c22 31 35 62 35 86c0 29 -15 50 -60 68l12 45c60 -18 90 -53 90 -98
c0 -35 -20 -76 -57 -114z" />
    <glyph glyph-name="uni1F21" unicode="&#x1f21;" horiz-adv-x="515" 
d="M277 488c155 0 179 -101 179 -205v-283h-43v274c0 78 -10 178 -143 178c-111 0 -168 -90 -168 -181v-271h-42v479h32c9 -19 9 -42 9 -79h4c43 70 119 88 172 88zM262 547l-20 -13c-37 38 -57 79 -57 114c0 45 29 80 89 98l13 -45c-46 -18 -61 -39 -61 -68
c0 -24 14 -55 36 -86z" />
    <glyph glyph-name="uni1F22" unicode="&#x1f22;" horiz-adv-x="515" 
d="M277 488c155 0 179 -101 179 -205v-283h-43v274c0 78 -10 178 -143 178c-111 0 -168 -90 -168 -181v-271h-42v479h32c9 -19 9 -42 9 -79h4c43 70 119 88 172 88zM374 552l-25 -12l-110 189l50 20zM174 535c-6 4 -12 9 -19 13c22 29 36 60 36 83c0 28 -16 48 -63 66l13 44
c62 -17 93 -52 93 -95c0 -34 -21 -75 -60 -111z" />
    <glyph glyph-name="uni1F23" unicode="&#x1f23;" horiz-adv-x="515" 
d="M277 488c155 0 179 -101 179 -205v-283h-43v274c0 78 -10 178 -143 178c-111 0 -168 -90 -168 -181v-271h-42v479h32c9 -19 9 -42 9 -79h4c43 70 119 88 172 88zM366 551l-25 -12l-110 190c16 6 34 13 50 20c29 -66 57 -132 85 -198zM190 545l-19 -14
c-37 38 -57 80 -57 115c0 44 29 80 89 98l13 -45c-46 -19 -61 -40 -61 -68c0 -24 13 -56 35 -86z" />
    <glyph glyph-name="uni1F24" unicode="&#x1f24;" horiz-adv-x="515" 
d="M277 488c155 0 179 -101 179 -205v-283h-43v274c0 78 -10 178 -143 178c-111 0 -168 -90 -168 -181v-271h-42v479h32c9 -19 9 -42 9 -79h4c43 70 119 88 172 88zM293 538l-25 12l85 197c16 -6 34 -13 50 -20c-36 -63 -73 -126 -110 -189zM192 539c-6 4 -12 9 -19 13
c22 30 35 62 35 86c0 29 -15 49 -61 68l13 45c60 -18 90 -54 90 -98c0 -35 -20 -77 -58 -114z" />
    <glyph glyph-name="uni1F25" unicode="&#x1f25;" horiz-adv-x="515" 
d="M277 488c155 0 179 -101 179 -205v-283h-43v274c0 78 -10 178 -143 178c-111 0 -168 -90 -168 -181v-271h-42v479h32c9 -19 9 -42 9 -79h4c43 70 119 88 172 88zM291 539l-26 12c29 66 57 132 85 198c17 -7 34 -14 51 -20zM229 549c-7 -4 -13 -9 -19 -13
c-38 38 -58 79 -58 114c0 45 30 80 90 98l13 -45c-46 -18 -61 -39 -61 -68c0 -22 13 -55 35 -86z" />
    <glyph glyph-name="uni1F26" unicode="&#x1f26;" horiz-adv-x="515" 
d="M277 488c155 0 179 -101 179 -205v-283h-43v274c0 78 -10 178 -143 178c-111 0 -168 -90 -168 -181v-271h-42v479h32c9 -19 9 -42 9 -79h4c43 70 119 88 172 88zM237 536l-21 12c22 26 36 53 36 73c0 24 -13 43 -60 55l11 40c63 -14 90 -45 90 -83c0 -30 -19 -64 -56 -97
zM303 738c-46 0 -95 38 -132 38c-23 0 -40 -9 -62 -41l-24 15c17 43 53 64 87 64c45 0 94 -37 130 -37c26 0 42 8 64 40l24 -14c-17 -46 -53 -65 -87 -65z" />
    <glyph glyph-name="uni1F27" unicode="&#x1f27;" horiz-adv-x="515" 
d="M277 488c155 0 179 -101 179 -205v-283h-43v274c0 78 -10 178 -143 178c-111 0 -168 -90 -168 -181v-271h-42v479h32c9 -19 9 -42 9 -79h4c43 70 119 88 172 88zM261 547l-21 -12c-37 33 -56 67 -56 97c0 38 28 69 90 83l11 -40c-46 -12 -60 -31 -60 -55
c0 -20 15 -47 36 -73zM306 748c-46 0 -95 37 -132 37c-23 0 -40 -9 -62 -41l-25 15c18 43 54 64 88 64c44 0 94 -37 130 -37c26 0 42 8 64 40l24 -14c-17 -46 -54 -64 -87 -64z" />
    <glyph glyph-name="uni1F28" unicode="&#x1f28;" horiz-adv-x="638" 
d="M528 0v330h-420v-330h-43v675h43v-306h420v306h45v-675h-45zM-82 476l-20 13c22 31 35 62 35 86c0 29 -15 50 -60 68l12 45c60 -18 90 -53 90 -98c0 -35 -20 -76 -57 -114z" />
    <glyph glyph-name="uni1F29" unicode="&#x1f29;" horiz-adv-x="638" 
d="M528 0v330h-420v-330h-43v675h43v-306h420v306h45v-675h-45zM-42 489l-20 -13c-37 38 -57 79 -57 114c0 45 29 80 89 98l13 -45c-46 -18 -61 -39 -61 -68c0 -24 14 -55 36 -86z" />
    <glyph glyph-name="uni1F2A" unicode="&#x1f2a;" horiz-adv-x="638" 
d="M528 0v330h-420v-330h-43v675h43v-306h420v306h45v-675h-45zM33 489l-25 -12l-110 189l50 20zM-167 472c-6 4 -12 9 -19 13c22 29 36 60 36 83c0 28 -16 48 -63 66l13 44c62 -17 93 -52 93 -95c0 -34 -21 -75 -60 -111z" />
    <glyph glyph-name="uni1F2B" unicode="&#x1f2b;" horiz-adv-x="638" 
d="M528 0v330h-420v-330h-43v675h43v-306h420v306h45v-675h-45zM16 492l-25 -12l-110 190c16 6 34 13 50 20c29 -66 57 -132 85 -198zM-160 486l-19 -14c-37 38 -57 80 -57 115c0 44 29 80 89 98l13 -45c-46 -19 -61 -40 -61 -68c0 -24 13 -56 35 -86z" />
    <glyph glyph-name="uni1F2C" unicode="&#x1f2c;" horiz-adv-x="638" 
d="M528 0v330h-420v-330h-43v675h43v-306h420v306h45v-675h-45zM-92 479l-25 12l85 197c16 -6 34 -13 50 -20c-36 -63 -73 -126 -110 -189zM-193 480c-6 4 -12 9 -19 13c22 30 35 62 35 86c0 29 -15 49 -61 68l13 45c60 -18 90 -54 90 -98c0 -35 -20 -77 -58 -114z" />
    <glyph glyph-name="uni1F2D" unicode="&#x1f2d;" horiz-adv-x="638" 
d="M528 0v330h-420v-330h-43v675h43v-306h420v306h45v-675h-45zM-89 479l-26 12c29 66 57 132 85 198c17 -7 34 -14 51 -20zM-151 489c-7 -4 -13 -9 -19 -13c-38 38 -58 79 -58 114c0 45 30 80 90 98l13 -45c-46 -18 -61 -39 -61 -68c0 -22 13 -55 35 -86z" />
    <glyph glyph-name="uni1F2E" unicode="&#x1f2e;" horiz-adv-x="638" 
d="M528 0v330h-420v-330h-43v675h43v-306h420v306h45v-675h-45zM-134 428l-21 12c22 26 36 53 36 73c0 24 -13 43 -60 55l11 40c63 -14 90 -45 90 -83c0 -30 -19 -64 -56 -97zM-68 630c-46 0 -95 38 -132 38c-23 0 -40 -9 -62 -41l-24 15c17 43 53 64 87 64
c45 0 94 -37 130 -37c26 0 42 8 64 40l24 -14c-17 -46 -53 -65 -87 -65z" />
    <glyph glyph-name="uni1F2F" unicode="&#x1f2f;" horiz-adv-x="638" 
d="M528 0v330h-420v-330h-43v675h43v-306h420v306h45v-675h-45zM-113 433l-21 -12c-37 33 -56 67 -56 97c0 38 28 69 90 83l11 -40c-46 -12 -60 -31 -60 -55c0 -20 15 -47 36 -73zM-68 634c-46 0 -95 37 -132 37c-23 0 -40 -9 -62 -41l-25 15c18 43 54 64 88 64
c44 0 94 -37 130 -37c26 0 42 8 64 40l24 -14c-17 -46 -54 -64 -87 -64z" />
    <glyph glyph-name="uni1F30" unicode="&#x1f30;" horiz-adv-x="222" 
d="M90 0v479h43v-479h-43zM113 534l-20 13c22 31 35 62 35 86c0 29 -15 50 -60 68l12 45c60 -18 90 -53 90 -98c0 -35 -20 -76 -57 -114z" />
    <glyph glyph-name="uni1F31" unicode="&#x1f31;" horiz-adv-x="222" 
d="M90 0v479h43v-479h-43zM141 547l-20 -13c-37 38 -57 79 -57 114c0 45 29 80 89 98l13 -45c-46 -18 -61 -39 -61 -68c0 -24 14 -55 36 -86z" />
    <glyph glyph-name="uni1F32" unicode="&#x1f32;" horiz-adv-x="222" 
d="M90 0v479h43v-479h-43zM245 552l-25 -12l-110 189l50 20zM45 535c-6 4 -12 9 -19 13c22 29 36 60 36 83c0 28 -16 48 -63 66l13 44c62 -17 93 -52 93 -95c0 -34 -21 -75 -60 -111z" />
    <glyph glyph-name="uni1F33" unicode="&#x1f33;" horiz-adv-x="222" 
d="M90 0v479h43v-479h-43zM229 553l-25 -12l-110 190c16 6 34 13 50 20c29 -66 57 -132 85 -198zM53 547l-19 -14c-37 38 -57 80 -57 115c0 44 29 80 89 98l13 -45c-46 -19 -61 -40 -61 -68c0 -24 13 -56 35 -86z" />
    <glyph glyph-name="uni1F34" unicode="&#x1f34;" horiz-adv-x="222" 
d="M90 0v479h43v-479h-43zM149 538l-25 12l85 197c16 -6 34 -13 50 -20c-36 -63 -73 -126 -110 -189zM48 539c-6 4 -12 9 -19 13c22 30 35 62 35 86c0 29 -15 49 -61 68l13 45c60 -18 90 -54 90 -98c0 -35 -20 -77 -58 -114z" />
    <glyph glyph-name="uni1F35" unicode="&#x1f35;" horiz-adv-x="222" 
d="M90 0v479h43v-479h-43zM145 539l-26 12c29 66 57 132 85 198c17 -7 34 -14 51 -20zM83 549c-7 -4 -13 -9 -19 -13c-38 38 -58 79 -58 114c0 45 30 80 90 98l13 -45c-46 -18 -61 -39 -61 -68c0 -22 13 -55 35 -86z" />
    <glyph glyph-name="uni1F36" unicode="&#x1f36;" horiz-adv-x="222" 
d="M90 0v479h43v-479h-43zM111 527l-21 12c22 26 36 53 36 73c0 24 -13 43 -60 55l11 40c63 -14 90 -45 90 -83c0 -30 -19 -64 -56 -97zM177 729c-46 0 -95 38 -132 38c-23 0 -40 -9 -62 -41l-24 15c17 43 53 64 87 64c45 0 94 -37 130 -37c26 0 42 8 64 40l24 -14
c-17 -46 -53 -65 -87 -65z" />
    <glyph glyph-name="uni1F37" unicode="&#x1f37;" horiz-adv-x="222" 
d="M90 0v479h43v-479h-43zM135 548l-21 -12c-37 33 -56 67 -56 97c0 38 28 69 90 83l11 -40c-46 -12 -60 -31 -60 -55c0 -20 15 -47 36 -73zM180 749c-46 0 -95 37 -132 37c-23 0 -40 -9 -62 -41l-25 15c18 43 54 64 88 64c44 0 94 -37 130 -37c26 0 42 8 64 40l24 -14
c-17 -46 -54 -64 -87 -64z" />
    <glyph glyph-name="uni1F38" unicode="&#x1f38;" horiz-adv-x="213" 
d="M85 0v674h43v-674h-43zM-76 476l-20 13c22 31 35 62 35 86c0 29 -15 50 -60 68l12 45c60 -18 90 -53 90 -98c0 -35 -20 -76 -57 -114z" />
    <glyph glyph-name="uni1F39" unicode="&#x1f39;" horiz-adv-x="213" 
d="M85 0v674h43v-674h-43zM-31 489l-20 -13c-37 38 -57 79 -57 114c0 45 29 80 89 98l13 -45c-46 -18 -61 -39 -61 -68c0 -24 14 -55 36 -86z" />
    <glyph glyph-name="uni1F3A" unicode="&#x1f3a;" horiz-adv-x="213" 
d="M85 0v674h43v-674h-43zM36 489l-25 -12l-110 189l50 20zM-164 472c-6 4 -12 9 -19 13c22 29 36 60 36 83c0 28 -16 48 -63 66l13 44c62 -17 93 -52 93 -95c0 -34 -21 -75 -60 -111z" />
    <glyph glyph-name="uni1F3B" unicode="&#x1f3b;" horiz-adv-x="213" 
d="M85 0v674h43v-674h-43zM33 491l-25 -12l-110 190c16 6 34 13 50 20c29 -66 57 -132 85 -198zM-143 485l-19 -14c-37 38 -57 80 -57 115c0 44 29 80 89 98l13 -45c-46 -19 -61 -40 -61 -68c0 -24 13 -56 35 -86z" />
    <glyph glyph-name="uni1F3C" unicode="&#x1f3c;" horiz-adv-x="213" 
d="M85 0v674h43v-674h-43zM-72 478l-25 12l85 197c16 -6 34 -13 50 -20c-36 -63 -73 -126 -110 -189zM-173 479c-6 4 -12 9 -19 13c22 30 35 62 35 86c0 29 -15 49 -61 68l13 45c60 -18 90 -54 90 -98c0 -35 -20 -77 -58 -114z" />
    <glyph glyph-name="uni1F3D" unicode="&#x1f3d;" horiz-adv-x="213" 
d="M85 0v674h43v-674h-43zM-70 479l-26 12c29 66 57 132 85 198c17 -7 34 -14 51 -20zM-132 489c-7 -4 -13 -9 -19 -13c-38 38 -58 79 -58 114c0 45 30 80 90 98l13 -45c-46 -18 -61 -39 -61 -68c0 -22 13 -55 35 -86z" />
    <glyph glyph-name="uni1F3E" unicode="&#x1f3e;" horiz-adv-x="213" 
d="M85 0v674h43v-674h-43zM-113 429l-21 12c22 26 36 53 36 73c0 24 -13 43 -60 55l11 40c63 -14 90 -45 90 -83c0 -30 -19 -64 -56 -97zM-47 631c-46 0 -95 38 -132 38c-23 0 -40 -9 -62 -41l-24 15c17 43 53 64 87 64c45 0 94 -37 130 -37c26 0 42 8 64 40l24 -14
c-17 -46 -53 -65 -87 -65z" />
    <glyph glyph-name="uni1F3F" unicode="&#x1f3f;" horiz-adv-x="213" 
d="M85 0v674h43v-674h-43zM-83 432l-21 -12c-37 33 -56 67 -56 97c0 38 28 69 90 83l11 -40c-46 -12 -60 -31 -60 -55c0 -20 15 -47 36 -73zM-38 633c-46 0 -95 37 -132 37c-23 0 -40 -9 -62 -41l-25 15c18 43 54 64 88 64c44 0 94 -37 130 -37c26 0 42 8 64 40l24 -14
c-17 -46 -54 -64 -87 -64z" />
    <glyph glyph-name="uni1F40" unicode="&#x1f40;" horiz-adv-x="528" 
d="M266 487c166 0 212 -122 212 -249c0 -125 -49 -246 -212 -246s-216 95 -216 243c0 144 61 252 216 252zM266 450c-126 0 -173 -91 -173 -215c0 -137 49 -206 173 -206c106 0 168 65 168 209c0 121 -42 212 -168 212zM262 534l-20 13c22 31 35 62 35 86
c0 29 -15 50 -60 68l12 45c60 -18 90 -53 90 -98c0 -35 -20 -76 -57 -114z" />
    <glyph glyph-name="uni1F41" unicode="&#x1f41;" horiz-adv-x="528" 
d="M266 487c166 0 212 -122 212 -249c0 -125 -49 -246 -212 -246s-216 95 -216 243c0 144 61 252 216 252zM266 450c-126 0 -173 -91 -173 -215c0 -137 49 -206 173 -206c106 0 168 65 168 209c0 121 -42 212 -168 212zM302 547l-20 -13c-37 38 -57 79 -57 114
c0 45 29 80 89 98l13 -45c-46 -18 -61 -39 -61 -68c0 -24 14 -55 36 -86z" />
    <glyph glyph-name="uni1F42" unicode="&#x1f42;" horiz-adv-x="528" 
d="M266 487c166 0 212 -122 212 -249c0 -125 -49 -246 -212 -246s-216 95 -216 243c0 144 61 252 216 252zM266 450c-126 0 -173 -91 -173 -215c0 -137 49 -206 173 -206c106 0 168 65 168 209c0 121 -42 212 -168 212zM402 552l-25 -12l-110 189l50 20zM202 535
c-6 4 -12 9 -19 13c22 29 36 60 36 83c0 28 -16 48 -63 66l13 44c62 -17 93 -52 93 -95c0 -34 -21 -75 -60 -111z" />
    <glyph glyph-name="uni1F43" unicode="&#x1f43;" horiz-adv-x="528" 
d="M266 487c166 0 212 -122 212 -249c0 -125 -49 -246 -212 -246s-216 95 -216 243c0 144 61 252 216 252zM266 450c-126 0 -173 -91 -173 -215c0 -137 49 -206 173 -206c106 0 168 65 168 209c0 121 -42 212 -168 212zM396 551l-25 -12l-110 190c16 6 34 13 50 20
c29 -66 57 -132 85 -198zM220 545l-19 -14c-37 38 -57 80 -57 115c0 44 29 80 89 98l13 -45c-46 -19 -61 -40 -61 -68c0 -24 13 -56 35 -86z" />
    <glyph glyph-name="uni1F44" unicode="&#x1f44;" horiz-adv-x="528" 
d="M266 487c166 0 212 -122 212 -249c0 -125 -49 -246 -212 -246s-216 95 -216 243c0 144 61 252 216 252zM266 450c-126 0 -173 -91 -173 -215c0 -137 49 -206 173 -206c106 0 168 65 168 209c0 121 -42 212 -168 212zM314 538l-25 12l85 197c16 -6 34 -13 50 -20
c-36 -63 -73 -126 -110 -189zM213 539c-6 4 -12 9 -19 13c22 30 35 62 35 86c0 29 -15 49 -61 68l13 45c60 -18 90 -54 90 -98c0 -35 -20 -77 -58 -114z" />
    <glyph glyph-name="uni1F45" unicode="&#x1f45;" horiz-adv-x="528" 
d="M266 487c166 0 212 -122 212 -249c0 -125 -49 -246 -212 -246s-216 95 -216 243c0 144 61 252 216 252zM266 450c-126 0 -173 -91 -173 -215c0 -137 49 -206 173 -206c106 0 168 65 168 209c0 121 -42 212 -168 212zM312 539l-26 12c29 66 57 132 85 198
c17 -7 34 -14 51 -20zM250 549c-7 -4 -13 -9 -19 -13c-38 38 -58 79 -58 114c0 45 30 80 90 98l13 -45c-46 -18 -61 -39 -61 -68c0 -22 13 -55 35 -86z" />
    <glyph glyph-name="uni1F48" unicode="&#x1f48;" horiz-adv-x="666" 
d="M336 681c220 0 275 -166 275 -350c0 -171 -60 -338 -282 -338c-213 0 -274 137 -274 337c0 207 75 351 281 351zM334 642c-175 0 -236 -126 -236 -312c0 -205 76 -299 230 -299c151 0 237 94 237 300c0 185 -58 311 -231 311zM-55 476l-20 13c22 31 35 62 35 86
c0 29 -15 50 -60 68l12 45c60 -18 90 -53 90 -98c0 -35 -20 -76 -57 -114z" />
    <glyph glyph-name="uni1F49" unicode="&#x1f49;" horiz-adv-x="666" 
d="M336 681c220 0 275 -166 275 -350c0 -171 -60 -338 -282 -338c-213 0 -274 137 -274 337c0 207 75 351 281 351zM334 642c-175 0 -236 -126 -236 -312c0 -205 76 -299 230 -299c151 0 237 94 237 300c0 185 -58 311 -231 311zM-7 498l-20 -13c-37 38 -57 79 -57 114
c0 45 29 80 89 98l13 -45c-46 -18 -61 -39 -61 -68c0 -24 14 -55 36 -86z" />
    <glyph glyph-name="uni1F4A" unicode="&#x1f4a;" horiz-adv-x="666" 
d="M336 681c220 0 275 -166 275 -350c0 -171 -60 -338 -282 -338c-213 0 -274 137 -274 337c0 207 75 351 281 351zM334 642c-175 0 -236 -126 -236 -312c0 -205 76 -299 230 -299c151 0 237 94 237 300c0 185 -58 311 -231 311zM31 489l-25 -12l-110 189l50 20zM-169 472
c-6 4 -12 9 -19 13c22 29 36 60 36 83c0 28 -16 48 -63 66l13 44c62 -17 93 -52 93 -95c0 -34 -21 -75 -60 -111z" />
    <glyph glyph-name="uni1F4B" unicode="&#x1f4b;" horiz-adv-x="666" 
d="M336 681c220 0 275 -166 275 -350c0 -171 -60 -338 -282 -338c-213 0 -274 137 -274 337c0 207 75 351 281 351zM334 642c-175 0 -236 -126 -236 -312c0 -205 76 -299 230 -299c151 0 237 94 237 300c0 185 -58 311 -231 311zM30 492l-25 -12l-110 190c16 6 34 13 50 20
c29 -66 57 -132 85 -198zM-146 486l-19 -14c-37 38 -57 80 -57 115c0 44 29 80 89 98l13 -45c-46 -19 -61 -40 -61 -68c0 -24 13 -56 35 -86z" />
    <glyph glyph-name="uni1F4C" unicode="&#x1f4c;" horiz-adv-x="666" 
d="M336 681c220 0 275 -166 275 -350c0 -171 -60 -338 -282 -338c-213 0 -274 137 -274 337c0 207 75 351 281 351zM334 642c-175 0 -236 -126 -236 -312c0 -205 76 -299 230 -299c151 0 237 94 237 300c0 185 -58 311 -231 311zM-46 478l-25 12l85 197c16 -6 34 -13 50 -20
c-36 -63 -73 -126 -110 -189zM-147 479c-6 4 -12 9 -19 13c22 30 35 62 35 86c0 29 -15 49 -61 68l13 45c60 -18 90 -54 90 -98c0 -35 -20 -77 -58 -114z" />
    <glyph glyph-name="uni1F4D" unicode="&#x1f4d;" horiz-adv-x="666" 
d="M336 681c220 0 275 -166 275 -350c0 -171 -60 -338 -282 -338c-213 0 -274 137 -274 337c0 207 75 351 281 351zM334 642c-175 0 -236 -126 -236 -312c0 -205 76 -299 230 -299c151 0 237 94 237 300c0 185 -58 311 -231 311zM-55 479l-26 12c29 66 57 132 85 198
c17 -7 34 -14 51 -20zM-117 489c-7 -4 -13 -9 -19 -13c-38 38 -58 79 -58 114c0 45 30 80 90 98l13 -45c-46 -18 -61 -39 -61 -68c0 -22 13 -55 35 -86z" />
    <glyph glyph-name="uni1F50" unicode="&#x1f50;" horiz-adv-x="515" 
d="M245 534l-20 13c22 31 35 62 35 86c0 29 -15 50 -60 68l12 45c60 -18 90 -53 90 -98c0 -35 -20 -76 -57 -114zM459 181c0 -128 -81 -189 -205 -189c-126 0 -198 62 -198 189v298h43v-298c0 -112 71 -153 156 -153c83 0 161 41 161 154v297h43v-298z" />
    <glyph glyph-name="uni1F51" unicode="&#x1f51;" horiz-adv-x="515" 
d="M281 547l-20 -13c-37 38 -57 79 -57 114c0 45 29 80 89 98l13 -45c-46 -18 -61 -39 -61 -68c0 -24 14 -55 36 -86zM459 181c0 -128 -81 -189 -205 -189c-126 0 -198 62 -198 189v298h43v-298c0 -112 71 -153 156 -153c83 0 161 41 161 154v297h43v-298z" />
    <glyph glyph-name="uni1F52" unicode="&#x1f52;" horiz-adv-x="515" 
d="M392 552l-25 -12l-110 189l50 20zM192 535c-6 4 -12 9 -19 13c22 29 36 60 36 83c0 28 -16 48 -63 66l13 44c62 -17 93 -52 93 -95c0 -34 -21 -75 -60 -111zM459 181c0 -128 -81 -189 -205 -189c-126 0 -198 62 -198 189v298h43v-298c0 -112 71 -153 156 -153
c83 0 161 41 161 154v297h43v-298z" />
    <glyph glyph-name="uni1F53" unicode="&#x1f53;" horiz-adv-x="515" 
d="M381 551l-25 -12l-110 190c16 6 34 13 50 20c29 -66 57 -132 85 -198zM205 545l-19 -14c-37 38 -57 80 -57 115c0 44 29 80 89 98l13 -45c-46 -19 -61 -40 -61 -68c0 -24 13 -56 35 -86zM459 181c0 -128 -81 -189 -205 -189c-126 0 -198 62 -198 189v298h43v-298
c0 -112 71 -153 156 -153c83 0 161 41 161 154v297h43v-298z" />
    <glyph glyph-name="uni1F54" unicode="&#x1f54;" horiz-adv-x="515" 
d="M296 538l-25 12l85 197c16 -6 34 -13 50 -20c-36 -63 -73 -126 -110 -189zM195 539c-6 4 -12 9 -19 13c22 30 35 62 35 86c0 29 -15 49 -61 68l13 45c60 -18 90 -54 90 -98c0 -35 -20 -77 -58 -114zM459 181c0 -128 -81 -189 -205 -189c-126 0 -198 62 -198 189v298h43
v-298c0 -112 71 -153 156 -153c83 0 161 41 161 154v297h43v-298z" />
    <glyph glyph-name="uni1F55" unicode="&#x1f55;" horiz-adv-x="515" 
d="M300 539l-26 12c29 66 57 132 85 198c17 -7 34 -14 51 -20zM238 549c-7 -4 -13 -9 -19 -13c-38 38 -58 79 -58 114c0 45 30 80 90 98l13 -45c-46 -18 -61 -39 -61 -68c0 -22 13 -55 35 -86zM459 181c0 -128 -81 -189 -205 -189c-126 0 -198 62 -198 189v298h43v-298
c0 -112 71 -153 156 -153c83 0 161 41 161 154v297h43v-298z" />
    <glyph glyph-name="uni1F56" unicode="&#x1f56;" horiz-adv-x="515" 
d="M256 517l-21 12c22 26 36 53 36 73c0 24 -13 43 -60 55l11 40c63 -14 90 -45 90 -83c0 -30 -19 -64 -56 -97zM322 719c-46 0 -95 38 -132 38c-23 0 -40 -9 -62 -41l-24 15c17 43 53 64 87 64c45 0 94 -37 130 -37c26 0 42 8 64 40l24 -14c-17 -46 -53 -65 -87 -65z
M459 181c0 -128 -81 -189 -205 -189c-126 0 -198 62 -198 189v298h43v-298c0 -112 71 -153 156 -153c83 0 161 41 161 154v297h43v-298z" />
    <glyph glyph-name="uni1F57" unicode="&#x1f57;" horiz-adv-x="515" 
d="M284 525l-21 -12c-37 33 -56 67 -56 97c0 38 28 69 90 83l11 -40c-46 -12 -60 -31 -60 -55c0 -20 15 -47 36 -73zM329 726c-46 0 -95 37 -132 37c-23 0 -40 -9 -62 -41l-25 15c18 43 54 64 88 64c44 0 94 -37 130 -37c26 0 42 8 64 40l24 -14c-17 -46 -54 -64 -87 -64z
M459 181c0 -128 -81 -189 -205 -189c-126 0 -198 62 -198 189v298h43v-298c0 -112 71 -153 156 -153c83 0 161 41 161 154v297h43v-298z" />
    <glyph glyph-name="uni1F59" unicode="&#x1f59;" horiz-adv-x="527" 
d="M256 318h7c5 13 90 161 96 173l105 183h51l-234 -402v-272h-45v271l-226 403h50l101 -180c31 -56 65 -117 95 -176zM-54 487l-20 -13c-37 38 -57 79 -57 114c0 45 29 80 89 98l13 -45c-46 -18 -61 -39 -61 -68c0 -24 14 -55 36 -86z" />
    <glyph glyph-name="uni1F5B" unicode="&#x1f5b;" horiz-adv-x="527" 
d="M256 318h7c5 13 90 161 96 173l105 183h51l-234 -402v-272h-45v271l-226 403h50l101 -180c31 -56 65 -117 95 -176zM-5 491l-25 -12l-110 190c16 6 34 13 50 20c29 -66 57 -132 85 -198zM-181 485l-19 -14c-37 38 -57 80 -57 115c0 44 29 80 89 98l13 -45
c-46 -19 -61 -40 -61 -68c0 -24 13 -56 35 -86z" />
    <glyph glyph-name="uni1F5D" unicode="&#x1f5d;" horiz-adv-x="527" 
d="M256 318h7c5 13 90 161 96 173l105 183h51l-234 -402v-272h-45v271l-226 403h50l101 -180c31 -56 65 -117 95 -176zM-124 480l-26 12c29 66 57 132 85 198c17 -7 34 -14 51 -20zM-186 490c-7 -4 -13 -9 -19 -13c-38 38 -58 79 -58 114c0 45 30 80 90 98l13 -45
c-46 -18 -61 -39 -61 -68c0 -22 13 -55 35 -86z" />
    <glyph glyph-name="uni1F5F" unicode="&#x1f5f;" horiz-adv-x="527" 
d="M256 318h7c5 13 90 161 96 173l105 183h51l-234 -402v-272h-45v271l-226 403h50l101 -180c31 -56 65 -117 95 -176zM-149 421l-21 -12c-37 33 -56 67 -56 97c0 38 28 69 90 83l11 -40c-46 -12 -60 -31 -60 -55c0 -20 15 -47 36 -73zM-104 622c-46 0 -95 37 -132 37
c-23 0 -40 -9 -62 -41l-25 15c18 43 54 64 88 64c44 0 94 -37 130 -37c26 0 42 8 64 40l24 -14c-17 -46 -54 -64 -87 -64z" />
    <glyph glyph-name="uni1F60" unicode="&#x1f60;" horiz-adv-x="778" 
d="M728 237c0 -119 -31 -245 -189 -245c-77 0 -127 43 -148 90h-5c-23 -43 -69 -90 -153 -90c-151 0 -183 106 -183 243c0 138 50 251 205 253v-38c-126 -4 -162 -92 -162 -213c0 -119 24 -209 143 -209c88 0 131 71 131 140v153h43v-161c0 -69 55 -132 130 -132
c118 0 145 97 145 209c0 115 -40 208 -162 213v38c152 -3 205 -117 205 -251zM382 534l-20 13c22 31 35 62 35 86c0 29 -15 50 -60 68l12 45c60 -18 90 -53 90 -98c0 -35 -20 -76 -57 -114z" />
    <glyph glyph-name="uni1F61" unicode="&#x1f61;" horiz-adv-x="778" 
d="M728 237c0 -119 -31 -245 -189 -245c-77 0 -127 43 -148 90h-5c-23 -43 -69 -90 -153 -90c-151 0 -183 106 -183 243c0 138 50 251 205 253v-38c-126 -4 -162 -92 -162 -213c0 -119 24 -209 143 -209c88 0 131 71 131 140v153h43v-161c0 -69 55 -132 130 -132
c118 0 145 97 145 209c0 115 -40 208 -162 213v38c152 -3 205 -117 205 -251zM416 547l-20 -13c-37 38 -57 79 -57 114c0 45 29 80 89 98l13 -45c-46 -18 -61 -39 -61 -68c0 -24 14 -55 36 -86z" />
    <glyph glyph-name="uni1F62" unicode="&#x1f62;" horiz-adv-x="778" 
d="M728 237c0 -119 -31 -245 -189 -245c-77 0 -127 43 -148 90h-5c-23 -43 -69 -90 -153 -90c-151 0 -183 106 -183 243c0 138 50 251 205 253v-38c-126 -4 -162 -92 -162 -213c0 -119 24 -209 143 -209c88 0 131 71 131 140v153h43v-161c0 -69 55 -132 130 -132
c118 0 145 97 145 209c0 115 -40 208 -162 213v38c152 -3 205 -117 205 -251zM527 552l-25 -12l-110 189l50 20zM327 535c-6 4 -12 9 -19 13c22 29 36 60 36 83c0 28 -16 48 -63 66l13 44c62 -17 93 -52 93 -95c0 -34 -21 -75 -60 -111z" />
    <glyph glyph-name="uni1F63" unicode="&#x1f63;" horiz-adv-x="778" 
d="M728 237c0 -119 -31 -245 -189 -245c-77 0 -127 43 -148 90h-5c-23 -43 -69 -90 -153 -90c-151 0 -183 106 -183 243c0 138 50 251 205 253v-38c-126 -4 -162 -92 -162 -213c0 -119 24 -209 143 -209c88 0 131 71 131 140v153h43v-161c0 -69 55 -132 130 -132
c118 0 145 97 145 209c0 115 -40 208 -162 213v38c152 -3 205 -117 205 -251zM520 551l-25 -12l-110 190c16 6 34 13 50 20c29 -66 57 -132 85 -198zM344 545l-19 -14c-37 38 -57 80 -57 115c0 44 29 80 89 98l13 -45c-46 -19 -61 -40 -61 -68c0 -24 13 -56 35 -86z" />
    <glyph glyph-name="uni1F64" unicode="&#x1f64;" horiz-adv-x="778" 
d="M728 237c0 -119 -31 -245 -189 -245c-77 0 -127 43 -148 90h-5c-23 -43 -69 -90 -153 -90c-151 0 -183 106 -183 243c0 138 50 251 205 253v-38c-126 -4 -162 -92 -162 -213c0 -119 24 -209 143 -209c88 0 131 71 131 140v153h43v-161c0 -69 55 -132 130 -132
c118 0 145 97 145 209c0 115 -40 208 -162 213v38c152 -3 205 -117 205 -251zM430 538l-25 12l85 197c16 -6 34 -13 50 -20c-36 -63 -73 -126 -110 -189zM329 539c-6 4 -12 9 -19 13c22 30 35 62 35 86c0 29 -15 49 -61 68l13 45c60 -18 90 -54 90 -98
c0 -35 -20 -77 -58 -114z" />
    <glyph glyph-name="uni1F65" unicode="&#x1f65;" horiz-adv-x="778" 
d="M728 237c0 -119 -31 -245 -189 -245c-77 0 -127 43 -148 90h-5c-23 -43 -69 -90 -153 -90c-151 0 -183 106 -183 243c0 138 50 251 205 253v-38c-126 -4 -162 -92 -162 -213c0 -119 24 -209 143 -209c88 0 131 71 131 140v153h43v-161c0 -69 55 -132 130 -132
c118 0 145 97 145 209c0 115 -40 208 -162 213v38c152 -3 205 -117 205 -251zM427 539l-26 12c29 66 57 132 85 198c17 -7 34 -14 51 -20zM365 549c-7 -4 -13 -9 -19 -13c-38 38 -58 79 -58 114c0 45 30 80 90 98l13 -45c-46 -18 -61 -39 -61 -68c0 -22 13 -55 35 -86z" />
    <glyph glyph-name="uni1F66" unicode="&#x1f66;" horiz-adv-x="778" 
d="M728 237c0 -119 -31 -245 -189 -245c-77 0 -127 43 -148 90h-5c-23 -43 -69 -90 -153 -90c-151 0 -183 106 -183 243c0 138 50 251 205 253v-38c-126 -4 -162 -92 -162 -213c0 -119 24 -209 143 -209c88 0 131 71 131 140v153h43v-161c0 -69 55 -132 130 -132
c118 0 145 97 145 209c0 115 -40 208 -162 213v38c152 -3 205 -117 205 -251zM389 532l-21 12c22 26 36 53 36 73c0 24 -13 43 -60 55l11 40c63 -14 90 -45 90 -83c0 -30 -19 -64 -56 -97zM455 734c-46 0 -95 38 -132 38c-23 0 -40 -9 -62 -41l-24 15c17 43 53 64 87 64
c45 0 94 -37 130 -37c26 0 42 8 64 40l24 -14c-17 -46 -53 -65 -87 -65z" />
    <glyph glyph-name="uni1F67" unicode="&#x1f67;" horiz-adv-x="778" 
d="M728 237c0 -119 -31 -245 -189 -245c-77 0 -127 43 -148 90h-5c-23 -43 -69 -90 -153 -90c-151 0 -183 106 -183 243c0 138 50 251 205 253v-38c-126 -4 -162 -92 -162 -213c0 -119 24 -209 143 -209c88 0 131 71 131 140v153h43v-161c0 -69 55 -132 130 -132
c118 0 145 97 145 209c0 115 -40 208 -162 213v38c152 -3 205 -117 205 -251zM409 531l-21 -12c-37 33 -56 67 -56 97c0 38 28 69 90 83l11 -40c-46 -12 -60 -31 -60 -55c0 -20 15 -47 36 -73zM454 732c-46 0 -95 37 -132 37c-23 0 -40 -9 -62 -41l-25 15c18 43 54 64 88 64
c44 0 94 -37 130 -37c26 0 42 8 64 40l24 -14c-17 -46 -54 -64 -87 -64z" />
    <glyph glyph-name="uni1F68" unicode="&#x1f68;" horiz-adv-x="697" 
d="M349 643c-169 0 -249 -125 -249 -303c0 -186 58 -260 163 -296v-44h-227v40h141l1 4c-93 53 -121 159 -121 293c0 195 89 345 294 345c212 0 291 -165 291 -342c0 -120 -38 -242 -128 -296l1 -4h144v-40h-227v43c102 34 164 122 164 299c0 178 -81 301 -247 301zM-55 487
l-20 13c22 31 35 62 35 86c0 29 -15 50 -60 68l12 45c60 -18 90 -53 90 -98c0 -35 -20 -76 -57 -114z" />
    <glyph glyph-name="uni1F69" unicode="&#x1f69;" horiz-adv-x="697" 
d="M349 643c-169 0 -249 -125 -249 -303c0 -186 58 -260 163 -296v-44h-227v40h141l1 4c-93 53 -121 159 -121 293c0 195 89 345 294 345c212 0 291 -165 291 -342c0 -120 -38 -242 -128 -296l1 -4h144v-40h-227v43c102 34 164 122 164 299c0 178 -81 301 -247 301zM-14 499
l-20 -13c-37 38 -57 79 -57 114c0 45 29 80 89 98l13 -45c-46 -18 -61 -39 -61 -68c0 -24 14 -55 36 -86z" />
    <glyph glyph-name="uni1F6A" unicode="&#x1f6a;" horiz-adv-x="697" 
d="M349 643c-169 0 -249 -125 -249 -303c0 -186 58 -260 163 -296v-44h-227v40h141l1 4c-93 53 -121 159 -121 293c0 195 89 345 294 345c212 0 291 -165 291 -342c0 -120 -38 -242 -128 -296l1 -4h144v-40h-227v43c102 34 164 122 164 299c0 178 -81 301 -247 301zM32 503
l-25 -12l-110 189l50 20zM-168 486c-6 4 -12 9 -19 13c22 29 36 60 36 83c0 28 -16 48 -63 66l13 44c62 -17 93 -52 93 -95c0 -34 -21 -75 -60 -111z" />
    <glyph glyph-name="uni1F6B" unicode="&#x1f6b;" horiz-adv-x="697" 
d="M349 643c-169 0 -249 -125 -249 -303c0 -186 58 -260 163 -296v-44h-227v40h141l1 4c-93 53 -121 159 -121 293c0 195 89 345 294 345c212 0 291 -165 291 -342c0 -120 -38 -242 -128 -296l1 -4h144v-40h-227v43c102 34 164 122 164 299c0 178 -81 301 -247 301zM19 506
l-25 -12l-110 190c16 6 34 13 50 20c29 -66 57 -132 85 -198zM-157 500l-19 -14c-37 38 -57 80 -57 115c0 44 29 80 89 98l13 -45c-46 -19 -61 -40 -61 -68c0 -24 13 -56 35 -86z" />
    <glyph glyph-name="uni1F6C" unicode="&#x1f6c;" horiz-adv-x="697" 
d="M349 643c-169 0 -249 -125 -249 -303c0 -186 58 -260 163 -296v-44h-227v40h141l1 4c-93 53 -121 159 -121 293c0 195 89 345 294 345c212 0 291 -165 291 -342c0 -120 -38 -242 -128 -296l1 -4h144v-40h-227v43c102 34 164 122 164 299c0 178 -81 301 -247 301zM-57 484
l-25 12l85 197c16 -6 34 -13 50 -20c-36 -63 -73 -126 -110 -189zM-158 485c-6 4 -12 9 -19 13c22 30 35 62 35 86c0 29 -15 49 -61 68l13 45c60 -18 90 -54 90 -98c0 -35 -20 -77 -58 -114z" />
    <glyph glyph-name="uni1F6D" unicode="&#x1f6d;" horiz-adv-x="697" 
d="M349 643c-169 0 -249 -125 -249 -303c0 -186 58 -260 163 -296v-44h-227v40h141l1 4c-93 53 -121 159 -121 293c0 195 89 345 294 345c212 0 291 -165 291 -342c0 -120 -38 -242 -128 -296l1 -4h144v-40h-227v43c102 34 164 122 164 299c0 178 -81 301 -247 301zM-56 483
l-26 12c29 66 57 132 85 198c17 -7 34 -14 51 -20zM-118 493c-7 -4 -13 -9 -19 -13c-38 38 -58 79 -58 114c0 45 30 80 90 98l13 -45c-46 -18 -61 -39 -61 -68c0 -22 13 -55 35 -86z" />
    <glyph glyph-name="uni1F6E" unicode="&#x1f6e;" horiz-adv-x="697" 
d="M349 643c-169 0 -249 -125 -249 -303c0 -186 58 -260 163 -296v-44h-227v40h141l1 4c-93 53 -121 159 -121 293c0 195 89 345 294 345c212 0 291 -165 291 -342c0 -120 -38 -242 -128 -296l1 -4h144v-40h-227v43c102 34 164 122 164 299c0 178 -81 301 -247 301zM-85 428
l-21 12c22 26 36 53 36 73c0 24 -13 43 -60 55l11 40c63 -14 90 -45 90 -83c0 -30 -19 -64 -56 -97zM-19 630c-46 0 -95 38 -132 38c-23 0 -40 -9 -62 -41l-24 15c17 43 53 64 87 64c45 0 94 -37 130 -37c26 0 42 8 64 40l24 -14c-17 -46 -53 -65 -87 -65z" />
    <glyph glyph-name="uni1F6F" unicode="&#x1f6f;" horiz-adv-x="697" 
d="M349 643c-169 0 -249 -125 -249 -303c0 -186 58 -260 163 -296v-44h-227v40h141l1 4c-93 53 -121 159 -121 293c0 195 89 345 294 345c212 0 291 -165 291 -342c0 -120 -38 -242 -128 -296l1 -4h144v-40h-227v43c102 34 164 122 164 299c0 178 -81 301 -247 301zM-65 431
l-21 -12c-37 33 -56 67 -56 97c0 38 28 69 90 83l11 -40c-46 -12 -60 -31 -60 -55c0 -20 15 -47 36 -73zM-20 632c-46 0 -95 37 -132 37c-23 0 -40 -9 -62 -41l-25 15c18 43 54 64 88 64c44 0 94 -37 130 -37c26 0 42 8 64 40l24 -14c-17 -46 -54 -64 -87 -64z" />
    <glyph glyph-name="uni1F70" unicode="&#x1f70;" horiz-adv-x="523" 
d="M257 487c75 0 130 -25 162 -79h4c0 32 3 56 9 71h31v-479h-33c-7 17 -8 49 -8 86h-4c-40 -70 -101 -94 -166 -94c-154 0 -202 101 -202 245c0 139 62 250 207 250zM257 29c117 0 164 104 164 185v67c0 101 -57 171 -161 171c-112 0 -167 -76 -167 -215
c0 -125 39 -208 164 -208zM313 545l-25 -12l-111 189l51 21z" />
    <glyph glyph-name="uni1F71" unicode="&#x1f71;" horiz-adv-x="523" 
d="M257 487c75 0 130 -25 162 -79h4c0 32 3 56 9 71h31v-479h-33c-7 17 -8 49 -8 86h-4c-40 -70 -101 -94 -166 -94c-154 0 -202 101 -202 245c0 139 62 250 207 250zM257 29c117 0 164 104 164 185v67c0 101 -57 171 -161 171c-112 0 -167 -76 -167 -215
c0 -125 39 -208 164 -208zM263 533l-26 12l85 198l51 -21z" />
    <glyph glyph-name="uni1F72" unicode="&#x1f72;" horiz-adv-x="448" 
d="M236 -8c-136 0 -189 64 -189 140c0 39 14 97 80 122v4c-58 19 -71 58 -71 95c0 73 51 134 179 134c90 0 170 -45 170 -131c0 -4 0 -8 -1 -13l-36 -1c-2 56 -41 109 -139 109c-68 0 -128 -31 -128 -96c0 -58 52 -77 96 -77h96v-39h-99c-64 0 -103 -46 -103 -104
s41 -108 144 -108c115 0 147 67 149 126h35c0 -6 1 -10 1 -14c0 -96 -77 -147 -184 -147zM277 545l-25 -12l-111 189l51 21z" />
    <glyph glyph-name="uni1F73" unicode="&#x1f73;" horiz-adv-x="448" 
d="M236 -8c-136 0 -189 64 -189 140c0 39 14 97 80 122v4c-58 19 -71 58 -71 95c0 73 51 134 179 134c90 0 170 -45 170 -131c0 -4 0 -8 -1 -13l-36 -1c-2 56 -41 109 -139 109c-68 0 -128 -31 -128 -96c0 -58 52 -77 96 -77h96v-39h-99c-64 0 -103 -46 -103 -104
s41 -108 144 -108c115 0 147 67 149 126h35c0 -6 1 -10 1 -14c0 -96 -77 -147 -184 -147zM234 533l-26 12l85 198l51 -21z" />
    <glyph glyph-name="uni1F74" unicode="&#x1f74;" horiz-adv-x="515" 
d="M277 488c155 0 179 -101 179 -205v-283h-43v274c0 78 -10 178 -143 178c-111 0 -168 -90 -168 -181v-271h-42v479h32c9 -19 9 -42 9 -79h4c43 70 119 88 172 88zM264 545l-25 -12l-111 189l51 21z" />
    <glyph glyph-name="uni1F75" unicode="&#x1f75;" horiz-adv-x="515" 
d="M277 488c155 0 179 -101 179 -205v-283h-43v274c0 78 -10 178 -143 178c-111 0 -168 -90 -168 -181v-271h-42v479h32c9 -19 9 -42 9 -79h4c43 70 119 88 172 88zM227 533l-26 12l85 198l51 -21z" />
    <glyph glyph-name="uni1F76" unicode="&#x1f76;" horiz-adv-x="222" 
d="M90 0v479h43v-479h-43zM135 545l-25 -12l-111 189l51 21z" />
    <glyph glyph-name="uni1F77" unicode="&#x1f77;" horiz-adv-x="222" 
d="M90 0v479h43v-479h-43zM121 533l-26 12l85 198l51 -21z" />
    <glyph glyph-name="uni1F78" unicode="&#x1f78;" horiz-adv-x="528" 
d="M266 487c166 0 212 -122 212 -249c0 -125 -49 -246 -212 -246s-216 95 -216 243c0 144 61 252 216 252zM266 450c-126 0 -173 -91 -173 -215c0 -137 49 -206 173 -206c106 0 168 65 168 209c0 121 -42 212 -168 212zM308 545l-25 -12l-111 189l51 21z" />
    <glyph glyph-name="uni1F79" unicode="&#x1f79;" horiz-adv-x="528" 
d="M266 487c166 0 212 -122 212 -249c0 -125 -49 -246 -212 -246s-216 95 -216 243c0 144 61 252 216 252zM266 450c-126 0 -173 -91 -173 -215c0 -137 49 -206 173 -206c106 0 168 65 168 209c0 121 -42 212 -168 212zM265 533l-26 12l85 198l51 -21z" />
    <glyph glyph-name="uni1F7A" unicode="&#x1f7a;" horiz-adv-x="515" 
d="M301 545l-25 -12l-111 189l51 21zM459 181c0 -128 -81 -189 -205 -189c-126 0 -198 62 -198 189v298h43v-298c0 -112 71 -153 156 -153c83 0 161 41 161 154v297h43v-298z" />
    <glyph glyph-name="uni1F7B" unicode="&#x1f7b;" horiz-adv-x="515" 
d="M240 533l-26 12l85 198l51 -21zM459 181c0 -128 -81 -189 -205 -189c-126 0 -198 62 -198 189v298h43v-298c0 -112 71 -153 156 -153c83 0 161 41 161 154v297h43v-298z" />
    <glyph glyph-name="uni1F7C" unicode="&#x1f7c;" horiz-adv-x="778" 
d="M728 237c0 -119 -31 -245 -189 -245c-77 0 -127 43 -148 90h-5c-23 -43 -69 -90 -153 -90c-151 0 -183 106 -183 243c0 138 50 251 205 253v-38c-126 -4 -162 -92 -162 -213c0 -119 24 -209 143 -209c88 0 131 71 131 140v153h43v-161c0 -69 55 -132 130 -132
c118 0 145 97 145 209c0 115 -40 208 -162 213v38c152 -3 205 -117 205 -251zM429 545l-25 -12l-111 189l51 21z" />
    <glyph glyph-name="uni1F7D" unicode="&#x1f7d;" horiz-adv-x="778" 
d="M728 237c0 -119 -31 -245 -189 -245c-77 0 -127 43 -148 90h-5c-23 -43 -69 -90 -153 -90c-151 0 -183 106 -183 243c0 138 50 251 205 253v-38c-126 -4 -162 -92 -162 -213c0 -119 24 -209 143 -209c88 0 131 71 131 140v153h43v-161c0 -69 55 -132 130 -132
c118 0 145 97 145 209c0 115 -40 208 -162 213v38c152 -3 205 -117 205 -251zM394 533l-26 12l85 198l51 -21z" />
    <glyph glyph-name="uni1F80" unicode="&#x1f80;" horiz-adv-x="523" 
d="M257 487c75 0 130 -25 162 -79h4c0 32 3 56 9 71h31v-479h-33c-7 17 -8 49 -8 86h-4c-40 -70 -101 -94 -166 -94c-154 0 -202 101 -202 245c0 139 62 250 207 250zM257 29c117 0 164 104 164 185v67c0 101 -57 171 -161 171c-112 0 -167 -76 -167 -215
c0 -125 39 -208 164 -208zM265 534l-20 13c22 31 35 62 35 86c0 29 -15 50 -60 68l12 45c60 -18 90 -53 90 -98c0 -35 -20 -76 -57 -114zM250 -62h40v-93c0 -57 19 -56 79 -56v-33c-16 -3 -32 -4 -41 -4c-59 0 -78 25 -78 86v100z" />
    <glyph glyph-name="uni1F81" unicode="&#x1f81;" horiz-adv-x="523" 
d="M257 487c75 0 130 -25 162 -79h4c0 32 3 56 9 71h31v-479h-33c-7 17 -8 49 -8 86h-4c-40 -70 -101 -94 -166 -94c-154 0 -202 101 -202 245c0 139 62 250 207 250zM257 29c117 0 164 104 164 185v67c0 101 -57 171 -161 171c-112 0 -167 -76 -167 -215
c0 -125 39 -208 164 -208zM251 -62h40v-93c0 -57 19 -56 79 -56v-33c-16 -3 -32 -4 -41 -4c-59 0 -78 25 -78 86v100zM300 547l-20 -13c-37 38 -57 79 -57 114c0 45 29 80 89 98l13 -45c-46 -18 -61 -39 -61 -68c0 -24 14 -55 36 -86z" />
    <glyph glyph-name="uni1F82" unicode="&#x1f82;" horiz-adv-x="523" 
d="M257 487c75 0 130 -25 162 -79h4c0 32 3 56 9 71h31v-479h-33c-7 17 -8 49 -8 86h-4c-40 -70 -101 -94 -166 -94c-154 0 -202 101 -202 245c0 139 62 250 207 250zM257 29c117 0 164 104 164 185v67c0 101 -57 171 -161 171c-112 0 -167 -76 -167 -215
c0 -125 39 -208 164 -208zM260 -62h40v-93c0 -57 19 -56 79 -56v-33c-16 -3 -32 -4 -41 -4c-59 0 -78 25 -78 86v100zM402 552l-25 -12l-110 189l50 20zM202 535c-6 4 -12 9 -19 13c22 29 36 60 36 83c0 28 -16 48 -63 66l13 44c62 -17 93 -52 93 -95
c0 -34 -21 -75 -60 -111z" />
    <glyph glyph-name="uni1F83" unicode="&#x1f83;" horiz-adv-x="523" 
d="M257 487c75 0 130 -25 162 -79h4c0 32 3 56 9 71h31v-479h-33c-7 17 -8 49 -8 86h-4c-40 -70 -101 -94 -166 -94c-154 0 -202 101 -202 245c0 139 62 250 207 250zM257 29c117 0 164 104 164 185v67c0 101 -57 171 -161 171c-112 0 -167 -76 -167 -215
c0 -125 39 -208 164 -208zM260 -62h40v-93c0 -57 19 -56 79 -56v-33c-16 -3 -32 -4 -41 -4c-59 0 -78 25 -78 86v100zM390 551l-25 -12l-110 190c16 6 34 13 50 20c29 -66 57 -132 85 -198zM214 545l-19 -14c-37 38 -57 80 -57 115c0 44 29 80 89 98l13 -45
c-46 -19 -61 -40 -61 -68c0 -24 13 -56 35 -86z" />
    <glyph glyph-name="uni1F84" unicode="&#x1f84;" horiz-adv-x="523" 
d="M257 487c75 0 130 -25 162 -79h4c0 32 3 56 9 71h31v-479h-33c-7 17 -8 49 -8 86h-4c-40 -70 -101 -94 -166 -94c-154 0 -202 101 -202 245c0 139 62 250 207 250zM257 29c117 0 164 104 164 185v67c0 101 -57 171 -161 171c-112 0 -167 -76 -167 -215
c0 -125 39 -208 164 -208zM249 -62h40v-93c0 -57 19 -56 79 -56v-33c-16 -3 -32 -4 -41 -4c-59 0 -78 25 -78 86v100zM314 538l-25 12l85 197c16 -6 34 -13 50 -20c-36 -63 -73 -126 -110 -189zM213 539c-6 4 -12 9 -19 13c22 30 35 62 35 86c0 29 -15 49 -61 68l13 45
c60 -18 90 -54 90 -98c0 -35 -20 -77 -58 -114z" />
    <glyph glyph-name="uni1F85" unicode="&#x1f85;" horiz-adv-x="523" 
d="M257 487c75 0 130 -25 162 -79h4c0 32 3 56 9 71h31v-479h-33c-7 17 -8 49 -8 86h-4c-40 -70 -101 -94 -166 -94c-154 0 -202 101 -202 245c0 139 62 250 207 250zM257 29c117 0 164 104 164 185v67c0 101 -57 171 -161 171c-112 0 -167 -76 -167 -215
c0 -125 39 -208 164 -208zM250 -62h40v-93c0 -57 19 -56 79 -56v-33c-16 -3 -32 -4 -41 -4c-59 0 -78 25 -78 86v100zM305 539l-26 12c29 66 57 132 85 198c17 -7 34 -14 51 -20zM243 549c-7 -4 -13 -9 -19 -13c-38 38 -58 79 -58 114c0 45 30 80 90 98l13 -45
c-46 -18 -61 -39 -61 -68c0 -22 13 -55 35 -86z" />
    <glyph glyph-name="uni1F86" unicode="&#x1f86;" horiz-adv-x="523" 
d="M257 487c75 0 130 -25 162 -79h4c0 32 3 56 9 71h31v-479h-33c-7 17 -8 49 -8 86h-4c-40 -70 -101 -94 -166 -94c-154 0 -202 101 -202 245c0 139 62 250 207 250zM257 29c117 0 164 104 164 185v67c0 101 -57 171 -161 171c-112 0 -167 -76 -167 -215
c0 -125 39 -208 164 -208zM245 -62h40v-93c0 -57 19 -56 79 -56v-33c-16 -3 -32 -4 -41 -4c-59 0 -78 25 -78 86v100zM257 536l-21 12c22 26 36 53 36 73c0 24 -13 43 -60 55l11 40c63 -14 90 -45 90 -83c0 -30 -19 -64 -56 -97zM323 738c-46 0 -95 38 -132 38
c-23 0 -40 -9 -62 -41l-24 15c17 43 53 64 87 64c45 0 94 -37 130 -37c26 0 42 8 64 40l24 -14c-17 -46 -53 -65 -87 -65z" />
    <glyph glyph-name="uni1F87" unicode="&#x1f87;" horiz-adv-x="523" 
d="M257 487c75 0 130 -25 162 -79h4c0 32 3 56 9 71h31v-479h-33c-7 17 -8 49 -8 86h-4c-40 -70 -101 -94 -166 -94c-154 0 -202 101 -202 245c0 139 62 250 207 250zM257 29c117 0 164 104 164 185v67c0 101 -57 171 -161 171c-112 0 -167 -76 -167 -215
c0 -125 39 -208 164 -208zM248 -62h40v-93c0 -57 19 -56 79 -56v-33c-16 -3 -32 -4 -41 -4c-59 0 -78 25 -78 86v100zM281 550l-21 -12c-37 33 -56 67 -56 97c0 38 28 69 90 83l11 -40c-46 -12 -60 -31 -60 -55c0 -20 15 -47 36 -73zM326 751c-46 0 -95 37 -132 37
c-23 0 -40 -9 -62 -41l-25 15c18 43 54 64 88 64c44 0 94 -37 130 -37c26 0 42 8 64 40l24 -14c-17 -46 -54 -64 -87 -64z" />
    <glyph glyph-name="uni1F90" unicode="&#x1f90;" horiz-adv-x="515" 
d="M277 488c155 0 179 -101 179 -205v-283h-43v274c0 78 -10 178 -143 178c-111 0 -168 -90 -168 -181v-271h-42v479h32c9 -19 9 -42 9 -79h4c43 70 119 88 172 88zM237 534l-20 13c22 31 35 62 35 86c0 29 -15 50 -60 68l12 45c60 -18 90 -53 90 -98
c0 -35 -20 -76 -57 -114zM245 -62h40v-93c0 -57 19 -56 79 -56v-33c-16 -3 -32 -4 -41 -4c-59 0 -78 25 -78 86v100z" />
    <glyph glyph-name="uni1F91" unicode="&#x1f91;" horiz-adv-x="515" 
d="M277 488c155 0 179 -101 179 -205v-283h-43v274c0 78 -10 178 -143 178c-111 0 -168 -90 -168 -181v-271h-42v479h32c9 -19 9 -42 9 -79h4c43 70 119 88 172 88zM245 -62h40v-93c0 -57 19 -56 79 -56v-33c-16 -3 -32 -4 -41 -4c-59 0 -78 25 -78 86v100zM287 547l-20 -13
c-37 38 -57 79 -57 114c0 45 29 80 89 98l13 -45c-46 -18 -61 -39 -61 -68c0 -24 14 -55 36 -86z" />
    <glyph glyph-name="uni1F92" unicode="&#x1f92;" horiz-adv-x="515" 
d="M277 488c155 0 179 -101 179 -205v-283h-43v274c0 78 -10 178 -143 178c-111 0 -168 -90 -168 -181v-271h-42v479h32c9 -19 9 -42 9 -79h4c43 70 119 88 172 88zM244 -62h40v-93c0 -57 19 -56 79 -56v-33c-16 -3 -32 -4 -41 -4c-59 0 -78 25 -78 86v100zM385 552l-25 -12
l-110 189l50 20zM185 535c-6 4 -12 9 -19 13c22 29 36 60 36 83c0 28 -16 48 -63 66l13 44c62 -17 93 -52 93 -95c0 -34 -21 -75 -60 -111z" />
    <glyph glyph-name="uni1F93" unicode="&#x1f93;" horiz-adv-x="515" 
d="M277 488c155 0 179 -101 179 -205v-283h-43v274c0 78 -10 178 -143 178c-111 0 -168 -90 -168 -181v-271h-42v479h32c9 -19 9 -42 9 -79h4c43 70 119 88 172 88zM245 -62h40v-93c0 -57 19 -56 79 -56v-33c-16 -3 -32 -4 -41 -4c-59 0 -78 25 -78 86v100zM377 551l-25 -12
l-110 190c16 6 34 13 50 20c29 -66 57 -132 85 -198zM201 545l-19 -14c-37 38 -57 80 -57 115c0 44 29 80 89 98l13 -45c-46 -19 -61 -40 -61 -68c0 -24 13 -56 35 -86z" />
    <glyph glyph-name="uni1F94" unicode="&#x1f94;" horiz-adv-x="515" 
d="M277 488c155 0 179 -101 179 -205v-283h-43v274c0 78 -10 178 -143 178c-111 0 -168 -90 -168 -181v-271h-42v479h32c9 -19 9 -42 9 -79h4c43 70 119 88 172 88zM244 -62h40v-93c0 -57 19 -56 79 -56v-33c-16 -3 -32 -4 -41 -4c-59 0 -78 25 -78 86v100zM291 538l-25 12
l85 197c16 -6 34 -13 50 -20c-36 -63 -73 -126 -110 -189zM190 539c-6 4 -12 9 -19 13c22 30 35 62 35 86c0 29 -15 49 -61 68l13 45c60 -18 90 -54 90 -98c0 -35 -20 -77 -58 -114z" />
    <glyph glyph-name="uni1F95" unicode="&#x1f95;" horiz-adv-x="515" 
d="M277 488c155 0 179 -101 179 -205v-283h-43v274c0 78 -10 178 -143 178c-111 0 -168 -90 -168 -181v-271h-42v479h32c9 -19 9 -42 9 -79h4c43 70 119 88 172 88zM241 -62h40v-93c0 -57 19 -56 79 -56v-33c-16 -3 -32 -4 -41 -4c-59 0 -78 25 -78 86v100zM288 539l-26 12
c29 66 57 132 85 198c17 -7 34 -14 51 -20zM226 549c-7 -4 -13 -9 -19 -13c-38 38 -58 79 -58 114c0 45 30 80 90 98l13 -45c-46 -18 -61 -39 -61 -68c0 -22 13 -55 35 -86z" />
    <glyph glyph-name="uni1F96" unicode="&#x1f96;" horiz-adv-x="515" 
d="M277 488c155 0 179 -101 179 -205v-283h-43v274c0 78 -10 178 -143 178c-111 0 -168 -90 -168 -181v-271h-42v479h32c9 -19 9 -42 9 -79h4c43 70 119 88 172 88zM243 -62h40v-93c0 -57 19 -56 79 -56v-33c-16 -3 -32 -4 -41 -4c-59 0 -78 25 -78 86v100zM246 536l-21 12
c22 26 36 53 36 73c0 24 -13 43 -60 55l11 40c63 -14 90 -45 90 -83c0 -30 -19 -64 -56 -97zM312 738c-46 0 -95 38 -132 38c-23 0 -40 -9 -62 -41l-24 15c17 43 53 64 87 64c45 0 94 -37 130 -37c26 0 42 8 64 40l24 -14c-17 -46 -53 -65 -87 -65z" />
    <glyph glyph-name="uni1F97" unicode="&#x1f97;" horiz-adv-x="515" 
d="M277 488c155 0 179 -101 179 -205v-283h-43v274c0 78 -10 178 -143 178c-111 0 -168 -90 -168 -181v-271h-42v479h32c9 -19 9 -42 9 -79h4c43 70 119 88 172 88zM249 -62h40v-93c0 -57 19 -56 79 -56v-33c-16 -3 -32 -4 -41 -4c-59 0 -78 25 -78 86v100zM273 547l-21 -12
c-37 33 -56 67 -56 97c0 38 28 69 90 83l11 -40c-46 -12 -60 -31 -60 -55c0 -20 15 -47 36 -73zM318 748c-46 0 -95 37 -132 37c-23 0 -40 -9 -62 -41l-25 15c18 43 54 64 88 64c44 0 94 -37 130 -37c26 0 42 8 64 40l24 -14c-17 -46 -54 -64 -87 -64z" />
    <glyph glyph-name="uni1FA0" unicode="&#x1fa0;" horiz-adv-x="778" 
d="M728 237c0 -119 -31 -245 -189 -245c-77 0 -127 43 -148 90h-5c-23 -43 -69 -90 -153 -90c-151 0 -183 106 -183 243c0 138 50 251 205 253v-38c-126 -4 -162 -92 -162 -213c0 -119 24 -209 143 -209c88 0 131 71 131 140v153h43v-161c0 -69 55 -132 130 -132
c118 0 145 97 145 209c0 115 -40 208 -162 213v38c152 -3 205 -117 205 -251zM383 547l-20 13c22 31 35 62 35 86c0 29 -15 50 -60 68l12 45c60 -18 90 -53 90 -98c0 -35 -20 -76 -57 -114zM362 -62h40v-93c0 -57 19 -56 79 -56v-33c-16 -3 -32 -4 -41 -4
c-59 0 -78 25 -78 86v100z" />
    <glyph glyph-name="uni1FA1" unicode="&#x1fa1;" horiz-adv-x="778" 
d="M728 237c0 -119 -31 -245 -189 -245c-77 0 -127 43 -148 90h-5c-23 -43 -69 -90 -153 -90c-151 0 -183 106 -183 243c0 138 50 251 205 253v-38c-126 -4 -162 -92 -162 -213c0 -119 24 -209 143 -209c88 0 131 71 131 140v153h43v-161c0 -69 55 -132 130 -132
c118 0 145 97 145 209c0 115 -40 208 -162 213v38c152 -3 205 -117 205 -251zM364 -62h40v-93c0 -57 19 -56 79 -56v-33c-16 -3 -32 -4 -41 -4c-59 0 -78 25 -78 86v100zM416 547l-20 -13c-37 38 -57 79 -57 114c0 45 29 80 89 98l13 -45c-46 -18 -61 -39 -61 -68
c0 -24 14 -55 36 -86z" />
    <glyph glyph-name="uni1FA2" unicode="&#x1fa2;" horiz-adv-x="778" 
d="M728 237c0 -119 -31 -245 -189 -245c-77 0 -127 43 -148 90h-5c-23 -43 -69 -90 -153 -90c-151 0 -183 106 -183 243c0 138 50 251 205 253v-38c-126 -4 -162 -92 -162 -213c0 -119 24 -209 143 -209c88 0 131 71 131 140v153h43v-161c0 -69 55 -132 130 -132
c118 0 145 97 145 209c0 115 -40 208 -162 213v38c152 -3 205 -117 205 -251zM362 -62h40v-93c0 -57 19 -56 79 -56v-33c-16 -3 -32 -4 -41 -4c-59 0 -78 25 -78 86v100zM527 552l-25 -12l-110 189l50 20zM327 535c-6 4 -12 9 -19 13c22 29 36 60 36 83c0 28 -16 48 -63 66
l13 44c62 -17 93 -52 93 -95c0 -34 -21 -75 -60 -111z" />
    <glyph glyph-name="uni1FA3" unicode="&#x1fa3;" horiz-adv-x="778" 
d="M728 237c0 -119 -31 -245 -189 -245c-77 0 -127 43 -148 90h-5c-23 -43 -69 -90 -153 -90c-151 0 -183 106 -183 243c0 138 50 251 205 253v-38c-126 -4 -162 -92 -162 -213c0 -119 24 -209 143 -209c88 0 131 71 131 140v153h43v-161c0 -69 55 -132 130 -132
c118 0 145 97 145 209c0 115 -40 208 -162 213v38c152 -3 205 -117 205 -251zM363 -62h40v-93c0 -57 19 -56 79 -56v-33c-16 -3 -32 -4 -41 -4c-59 0 -78 25 -78 86v100zM520 551l-25 -12l-110 190c16 6 34 13 50 20c29 -66 57 -132 85 -198zM344 545l-19 -14
c-37 38 -57 80 -57 115c0 44 29 80 89 98l13 -45c-46 -19 -61 -40 -61 -68c0 -24 13 -56 35 -86z" />
    <glyph glyph-name="uni1FA4" unicode="&#x1fa4;" horiz-adv-x="778" 
d="M728 237c0 -119 -31 -245 -189 -245c-77 0 -127 43 -148 90h-5c-23 -43 -69 -90 -153 -90c-151 0 -183 106 -183 243c0 138 50 251 205 253v-38c-126 -4 -162 -92 -162 -213c0 -119 24 -209 143 -209c88 0 131 71 131 140v153h43v-161c0 -69 55 -132 130 -132
c118 0 145 97 145 209c0 115 -40 208 -162 213v38c152 -3 205 -117 205 -251zM363 -62h40v-93c0 -57 19 -56 79 -56v-33c-16 -3 -32 -4 -41 -4c-59 0 -78 25 -78 86v100zM429 538l-25 12l85 197c16 -6 34 -13 50 -20c-36 -63 -73 -126 -110 -189zM328 539c-6 4 -12 9 -19 13
c22 30 35 62 35 86c0 29 -15 49 -61 68l13 45c60 -18 90 -54 90 -98c0 -35 -20 -77 -58 -114z" />
    <glyph glyph-name="uni1FA5" unicode="&#x1fa5;" horiz-adv-x="778" 
d="M728 237c0 -119 -31 -245 -189 -245c-77 0 -127 43 -148 90h-5c-23 -43 -69 -90 -153 -90c-151 0 -183 106 -183 243c0 138 50 251 205 253v-38c-126 -4 -162 -92 -162 -213c0 -119 24 -209 143 -209c88 0 131 71 131 140v153h43v-161c0 -69 55 -132 130 -132
c118 0 145 97 145 209c0 115 -40 208 -162 213v38c152 -3 205 -117 205 -251zM363 -62h40v-93c0 -57 19 -56 79 -56v-33c-16 -3 -32 -4 -41 -4c-59 0 -78 25 -78 86v100zM420 539l-26 12c29 66 57 132 85 198c17 -7 34 -14 51 -20zM358 549c-7 -4 -13 -9 -19 -13
c-38 38 -58 79 -58 114c0 45 30 80 90 98l13 -45c-46 -18 -61 -39 -61 -68c0 -22 13 -55 35 -86z" />
    <glyph glyph-name="uni1FA6" unicode="&#x1fa6;" horiz-adv-x="778" 
d="M728 237c0 -119 -31 -245 -189 -245c-77 0 -127 43 -148 90h-5c-23 -43 -69 -90 -153 -90c-151 0 -183 106 -183 243c0 138 50 251 205 253v-38c-126 -4 -162 -92 -162 -213c0 -119 24 -209 143 -209c88 0 131 71 131 140v153h43v-161c0 -69 55 -132 130 -132
c118 0 145 97 145 209c0 115 -40 208 -162 213v38c152 -3 205 -117 205 -251zM363 -62h40v-93c0 -57 19 -56 79 -56v-33c-16 -3 -32 -4 -41 -4c-59 0 -78 25 -78 86v100zM386 519l-21 12c22 26 36 53 36 73c0 24 -13 43 -60 55l11 40c63 -14 90 -45 90 -83
c0 -30 -19 -64 -56 -97zM452 721c-46 0 -95 38 -132 38c-23 0 -40 -9 -62 -41l-24 15c17 43 53 64 87 64c45 0 94 -37 130 -37c26 0 42 8 64 40l24 -14c-17 -46 -53 -65 -87 -65z" />
    <glyph glyph-name="uni1FA7" unicode="&#x1fa7;" horiz-adv-x="778" 
d="M728 237c0 -119 -31 -245 -189 -245c-77 0 -127 43 -148 90h-5c-23 -43 -69 -90 -153 -90c-151 0 -183 106 -183 243c0 138 50 251 205 253v-38c-126 -4 -162 -92 -162 -213c0 -119 24 -209 143 -209c88 0 131 71 131 140v153h43v-161c0 -69 55 -132 130 -132
c118 0 145 97 145 209c0 115 -40 208 -162 213v38c152 -3 205 -117 205 -251zM362 -62h40v-93c0 -57 19 -56 79 -56v-33c-16 -3 -32 -4 -41 -4c-59 0 -78 25 -78 86v100zM419 531l-21 -12c-37 33 -56 67 -56 97c0 38 28 69 90 83l11 -40c-46 -12 -60 -31 -60 -55
c0 -20 15 -47 36 -73zM464 732c-46 0 -95 37 -132 37c-23 0 -40 -9 -62 -41l-25 15c18 43 54 64 88 64c44 0 94 -37 130 -37c26 0 42 8 64 40l24 -14c-17 -46 -54 -64 -87 -64z" />
    <glyph glyph-name="uni1FB0" unicode="&#x1fb0;" horiz-adv-x="523" 
d="M257 487c75 0 130 -25 162 -79h4c0 32 3 56 9 71h31v-479h-33c-7 17 -8 49 -8 86h-4c-40 -70 -101 -94 -166 -94c-154 0 -202 101 -202 245c0 139 62 250 207 250zM257 29c117 0 164 104 164 185v67c0 101 -57 171 -161 171c-112 0 -167 -76 -167 -215
c0 -125 39 -208 164 -208zM266 549c-101 0 -141 83 -142 139h36c0 -41 27 -101 107 -101c78 0 106 63 108 101h34c-2 -57 -43 -139 -143 -139z" />
    <glyph glyph-name="uni1FB1" unicode="&#x1fb1;" horiz-adv-x="523" 
d="M257 487c75 0 130 -25 162 -79h4c0 32 3 56 9 71h31v-479h-33c-7 17 -8 49 -8 86h-4c-40 -70 -101 -94 -166 -94c-154 0 -202 101 -202 245c0 139 62 250 207 250zM257 29c117 0 164 104 164 185v67c0 101 -57 171 -161 171c-112 0 -167 -76 -167 -215
c0 -125 39 -208 164 -208zM120 580v38h286v-38h-286z" />
    <glyph glyph-name="uni1FB2" unicode="&#x1fb2;" horiz-adv-x="523" 
d="M257 487c75 0 130 -25 162 -79h4c0 32 3 56 9 71h31v-479h-33c-7 17 -8 49 -8 86h-4c-40 -70 -101 -94 -166 -94c-154 0 -202 101 -202 245c0 139 62 250 207 250zM257 29c117 0 164 104 164 185v67c0 101 -57 171 -161 171c-112 0 -167 -76 -167 -215
c0 -125 39 -208 164 -208zM245 -62h40v-93c0 -57 19 -56 79 -56v-33c-16 -3 -32 -4 -41 -4c-59 0 -78 25 -78 86v100zM298 545l-25 -12l-111 189l51 21z" />
    <glyph glyph-name="uni1FB3" unicode="&#x1fb3;" horiz-adv-x="523" 
d="M257 487c75 0 130 -25 162 -79h4c0 32 3 56 9 71h31v-479h-33c-7 17 -8 49 -8 86h-4c-40 -70 -101 -94 -166 -94c-154 0 -202 101 -202 245c0 139 62 250 207 250zM257 29c117 0 164 104 164 185v67c0 101 -57 171 -161 171c-112 0 -167 -76 -167 -215
c0 -125 39 -208 164 -208zM245 -62h40v-93c0 -57 19 -56 79 -56v-33c-16 -3 -32 -4 -41 -4c-59 0 -78 25 -78 86v100z" />
    <glyph glyph-name="uni1FB4" unicode="&#x1fb4;" horiz-adv-x="523" 
d="M257 487c75 0 130 -25 162 -79h4c0 32 3 56 9 71h31v-479h-33c-7 17 -8 49 -8 86h-4c-40 -70 -101 -94 -166 -94c-154 0 -202 101 -202 245c0 139 62 250 207 250zM257 29c117 0 164 104 164 185v67c0 101 -57 171 -161 171c-112 0 -167 -76 -167 -215
c0 -125 39 -208 164 -208zM245 -62h40v-93c0 -57 19 -56 79 -56v-33c-16 -3 -32 -4 -41 -4c-59 0 -78 25 -78 86v100zM261 533l-26 12l85 198l51 -21z" />
    <glyph glyph-name="uni1FB6" unicode="&#x1fb6;" horiz-adv-x="523" 
d="M257 487c75 0 130 -25 162 -79h4c0 32 3 56 9 71h31v-479h-33c-7 17 -8 49 -8 86h-4c-40 -70 -101 -94 -166 -94c-154 0 -202 101 -202 245c0 139 62 250 207 250zM257 29c117 0 164 104 164 185v67c0 101 -57 171 -161 171c-112 0 -167 -76 -167 -215
c0 -125 39 -208 164 -208zM328 580c-46 0 -95 38 -132 38c-23 0 -40 -9 -62 -41l-24 15c17 43 53 64 87 64c45 0 94 -37 130 -37c26 0 42 8 64 40l24 -15c-17 -45 -53 -64 -87 -64z" />
    <glyph glyph-name="uni1FB7" unicode="&#x1fb7;" horiz-adv-x="523" 
d="M257 487c75 0 130 -25 162 -79h4c0 32 3 56 9 71h31v-479h-33c-7 17 -8 49 -8 86h-4c-40 -70 -101 -94 -166 -94c-154 0 -202 101 -202 245c0 139 62 250 207 250zM257 29c117 0 164 104 164 185v67c0 101 -57 171 -161 171c-112 0 -167 -76 -167 -215
c0 -125 39 -208 164 -208zM260 -62h40v-93c0 -57 19 -56 79 -56v-33c-16 -3 -32 -4 -41 -4c-59 0 -78 25 -78 86v100zM330 577c-46 0 -95 38 -132 38c-23 0 -40 -9 -62 -41l-24 15c17 43 53 64 87 64c45 0 94 -37 130 -37c26 0 42 8 64 40l24 -15c-17 -45 -53 -64 -87 -64z
" />
    <glyph glyph-name="uni1FB8" unicode="&#x1fb8;" horiz-adv-x="579" 
d="M522 0l-70 183h-328l-68 -183h-46l255 675h47l257 -675h-47zM291 619h-7c-20 -63 -42 -123 -65 -184l-81 -214h302l-82 212c-23 60 -45 122 -67 186zM287 729c-101 0 -141 85 -143 141h36c1 -40 28 -103 108 -103c77 0 106 65 107 103h35c-2 -57 -43 -141 -143 -141z" />
    <glyph glyph-name="uni1FB9" unicode="&#x1fb9;" horiz-adv-x="579" 
d="M522 0l-70 183h-328l-68 -183h-46l255 675h47l257 -675h-47zM291 619h-7c-20 -63 -42 -123 -65 -184l-81 -214h302l-82 212c-23 60 -45 122 -67 186zM147 761v40h286v-40h-286z" />
    <glyph glyph-name="uni1FBA" unicode="&#x1fba;" horiz-adv-x="579" 
d="M522 0l-70 183h-328l-68 -183h-46l255 675h47l257 -675h-47zM291 619h-7c-20 -63 -42 -123 -65 -184l-81 -214h302l-82 212c-23 60 -45 122 -67 186zM92 494l-25 -12l-111 189l51 21z" />
    <glyph glyph-name="uni1FBB" unicode="&#x1fbb;" horiz-adv-x="579" 
d="M522 0l-70 183h-328l-68 -183h-46l255 675h47l257 -675h-47zM291 619h-7c-20 -63 -42 -123 -65 -184l-81 -214h302l-82 212c-23 60 -45 122 -67 186zM-8 478l-26 12l85 198l51 -21z" />
    <glyph glyph-name="uni1FC2" unicode="&#x1fc2;" horiz-adv-x="515" 
d="M277 488c155 0 179 -101 179 -205v-283h-43v274c0 78 -10 178 -143 178c-111 0 -168 -90 -168 -181v-271h-42v479h32c9 -19 9 -42 9 -79h4c43 70 119 88 172 88zM242 -62h40v-93c0 -57 19 -56 79 -56v-33c-16 -3 -32 -4 -41 -4c-59 0 -78 25 -78 86v100zM284 545l-25 -12
l-111 189l51 21z" />
    <glyph glyph-name="uni1FC3" unicode="&#x1fc3;" horiz-adv-x="515" 
d="M277 488c155 0 179 -101 179 -205v-283h-43v274c0 78 -10 178 -143 178c-111 0 -168 -90 -168 -181v-271h-42v479h32c9 -19 9 -42 9 -79h4c43 70 119 88 172 88zM240 -62h40v-93c0 -57 19 -56 79 -56v-33c-16 -3 -32 -4 -41 -4c-59 0 -78 25 -78 86v100z" />
    <glyph glyph-name="uni1FC4" unicode="&#x1fc4;" horiz-adv-x="515" 
d="M277 488c155 0 179 -101 179 -205v-283h-43v274c0 78 -10 178 -143 178c-111 0 -168 -90 -168 -181v-271h-42v479h32c9 -19 9 -42 9 -79h4c43 70 119 88 172 88zM244 -62h40v-93c0 -57 19 -56 79 -56v-33c-16 -3 -32 -4 -41 -4c-59 0 -78 25 -78 86v100zM243 539l-26 12
l85 198l51 -21z" />
    <glyph glyph-name="uni1FC6" unicode="&#x1fc6;" horiz-adv-x="524" 
d="M292 488c155 0 179 -101 179 -205v-283h-43v274c0 78 -10 178 -143 178c-111 0 -168 -90 -168 -181v-271h-42v479h32c9 -19 9 -42 9 -79h4c43 70 119 88 172 88zM331 577c-46 0 -95 38 -132 38c-23 0 -40 -9 -62 -41l-24 15c17 43 53 64 87 64c45 0 94 -37 130 -37
c26 0 42 8 64 40l24 -15c-17 -45 -53 -64 -87 -64z" />
    <glyph glyph-name="uni1FC7" unicode="&#x1fc7;" horiz-adv-x="524" 
d="M292 488c155 0 179 -101 179 -205v-283h-43v274c0 78 -10 178 -143 178c-111 0 -168 -90 -168 -181v-271h-42v479h32c9 -19 9 -42 9 -79h4c43 70 119 88 172 88zM257 -62h40v-93c0 -57 19 -56 79 -56v-33c-16 -3 -32 -4 -41 -4c-59 0 -78 25 -78 86v100zM331 577
c-46 0 -95 38 -132 38c-23 0 -40 -9 -62 -41l-24 15c17 43 53 64 87 64c45 0 94 -37 130 -37c26 0 42 8 64 40l24 -15c-17 -45 -53 -64 -87 -64z" />
    <glyph glyph-name="uni1FC8" unicode="&#x1fc8;" horiz-adv-x="529" 
d="M65 0v674h418v-39h-375v-266h346v-39h-346v-290h388v-40h-431zM6 480l-25 -12l-111 189l51 21z" />
    <glyph glyph-name="uni1FC9" unicode="&#x1fc9;" horiz-adv-x="529" 
d="M65 0v674h418v-39h-375v-266h346v-39h-346v-290h388v-40h-431zM-100 469l-26 12l85 198l51 -21z" />
    <glyph glyph-name="uni1FCA" unicode="&#x1fca;" horiz-adv-x="638" 
d="M528 0v330h-420v-330h-43v675h43v-306h420v306h45v-675h-45zM5 480l-25 -12l-111 189l51 21z" />
    <glyph glyph-name="uni1FCB" unicode="&#x1fcb;" horiz-adv-x="638" 
d="M528 0v330h-420v-330h-43v675h43v-306h420v306h45v-675h-45zM-100 468l-26 12l85 198l51 -21z" />
    <glyph glyph-name="uni1FD0" unicode="&#x1fd0;" horiz-adv-x="222" 
d="M90 0v479h43v-479h-43zM112 548c-101 0 -141 83 -142 139h36c0 -41 27 -101 107 -101c78 0 106 63 108 101h34c-2 -57 -43 -139 -143 -139z" />
    <glyph glyph-name="uni1FD1" unicode="&#x1fd1;" horiz-adv-x="222" 
d="M90 0v479h43v-479h-43zM-29 570v38h286v-38h-286z" />
    <glyph glyph-name="uni1FD6" unicode="&#x1fd6;" horiz-adv-x="222" 
d="M90 0v479h43v-479h-43zM176 577c-46 0 -95 38 -132 38c-23 0 -40 -9 -62 -41l-24 15c17 43 53 64 87 64c45 0 94 -37 130 -37c26 0 42 8 64 40l24 -15c-17 -45 -53 -64 -87 -64z" />
    <glyph glyph-name="uni1FD8" unicode="&#x1fd8;" horiz-adv-x="213" 
d="M85 0v674h43v-674h-43zM107 729c-101 0 -141 85 -143 141h36c1 -40 28 -103 108 -103c77 0 106 65 107 103h35c-2 -57 -43 -141 -143 -141z" />
    <glyph glyph-name="uni1FD9" unicode="&#x1fd9;" horiz-adv-x="213" 
d="M85 0v674h43v-674h-43zM-35 761v40h286v-40h-286z" />
    <glyph glyph-name="uni1FDA" unicode="&#x1fda;" horiz-adv-x="213" 
d="M85 0v674h43v-674h-43zM7 481l-25 -12l-111 189l51 21z" />
    <glyph glyph-name="uni1FDB" unicode="&#x1fdb;" horiz-adv-x="213" 
d="M85 0v674h43v-674h-43zM-88 472l-26 12l85 198l51 -21z" />
    <glyph glyph-name="uni1FE0" unicode="&#x1fe0;" horiz-adv-x="515" 
d="M459 181c0 -128 -81 -189 -205 -189c-126 0 -198 62 -198 189v298h43v-298c0 -112 71 -153 156 -153c83 0 161 41 161 154v297h43v-298zM265 548c-101 0 -141 83 -142 139h36c0 -41 27 -101 107 -101c78 0 106 63 108 101h34c-2 -57 -43 -139 -143 -139z" />
    <glyph glyph-name="uni1FE1" unicode="&#x1fe1;" horiz-adv-x="515" 
d="M114 570v38h286v-38h-286zM459 181c0 -128 -81 -189 -205 -189c-126 0 -198 62 -198 189v298h43v-298c0 -112 71 -153 156 -153c83 0 161 41 161 154v297h43v-298z" />
    <glyph glyph-name="uni1FE4" unicode="&#x1fe4;" horiz-adv-x="526" 
d="M264 29c121 0 168 82 168 213c0 142 -63 209 -165 209c-124 0 -165 -99 -165 -188v-52c0 -91 46 -182 162 -182zM59 -200v444c0 140 59 243 209 243c160 0 208 -117 208 -248c0 -124 -47 -247 -207 -247c-68 0 -134 24 -163 90h-5v-282h-42zM255 534l-20 13
c22 31 35 62 35 86c0 29 -15 50 -60 68l12 45c60 -18 90 -53 90 -98c0 -35 -20 -76 -57 -114z" />
    <glyph glyph-name="uni1FE5" unicode="&#x1fe5;" horiz-adv-x="526" 
d="M264 29c121 0 168 82 168 213c0 142 -63 209 -165 209c-124 0 -165 -99 -165 -188v-52c0 -91 46 -182 162 -182zM59 -200v444c0 140 59 243 209 243c160 0 208 -117 208 -248c0 -124 -47 -247 -207 -247c-68 0 -134 24 -163 90h-5v-282h-42zM293 547l-20 -13
c-37 38 -57 79 -57 114c0 45 29 80 89 98l13 -45c-46 -18 -61 -39 -61 -68c0 -24 14 -55 36 -86z" />
    <glyph glyph-name="uni1FE6" unicode="&#x1fe6;" horiz-adv-x="515" 
d="M323 577c-46 0 -95 38 -132 38c-23 0 -40 -9 -62 -41l-24 15c17 43 53 64 87 64c45 0 94 -37 130 -37c26 0 42 8 64 40l24 -15c-17 -45 -53 -64 -87 -64zM459 181c0 -128 -81 -189 -205 -189c-126 0 -198 62 -198 189v298h43v-298c0 -112 71 -153 156 -153
c83 0 161 41 161 154v297h43v-298z" />
    <glyph glyph-name="uni1FE7" unicode="&#x1fe7;" horiz-adv-x="515" 
d="M322 709c26 0 42 9 64 41l24 -15c-18 -45 -54 -63 -87 -63c-46 0 -96 36 -132 36c-23 0 -40 -9 -62 -41l-25 16c18 43 54 64 88 64c44 0 94 -38 130 -38zM153 591c0 17 13 30 29 30s30 -13 30 -30c0 -16 -14 -29 -30 -29s-29 13 -29 29zM312 591c0 17 13 30 29 30
s30 -13 30 -30c0 -16 -14 -29 -30 -29s-29 13 -29 29zM459 181c0 -128 -81 -189 -205 -189c-126 0 -198 62 -198 189v298h43v-298c0 -112 71 -153 156 -153c83 0 161 41 161 154v297h43v-298z" />
    <glyph glyph-name="uni1FE8" unicode="&#x1fe8;" horiz-adv-x="527" 
d="M256 318h7c5 13 90 161 96 173l105 183h51l-234 -402v-272h-45v271l-226 403h50l101 -180c31 -56 65 -117 95 -176zM261 723c-101 0 -141 85 -143 141h36c1 -40 28 -103 108 -103c77 0 106 65 107 103h35c-2 -57 -43 -141 -143 -141z" />
    <glyph glyph-name="uni1FE9" unicode="&#x1fe9;" horiz-adv-x="527" 
d="M256 318h7c5 13 90 161 96 173l105 183h51l-234 -402v-272h-45v271l-226 403h50l101 -180c31 -56 65 -117 95 -176zM118 761v40h286v-40h-286z" />
    <glyph glyph-name="uni1FEA" unicode="&#x1fea;" horiz-adv-x="527" 
d="M256 318h7c5 13 90 161 96 173l105 183h51l-234 -402v-272h-45v271l-226 403h50l101 -180c31 -56 65 -117 95 -176zM-25 481l-25 -12l-111 189l51 21z" />
    <glyph glyph-name="uni1FEB" unicode="&#x1feb;" horiz-adv-x="527" 
d="M256 318h7c5 13 90 161 96 173l105 183h51l-234 -402v-272h-45v271l-226 403h50l101 -180c31 -56 65 -117 95 -176zM-135 469l-26 12l85 198l51 -21z" />
    <glyph glyph-name="uni1FEC" unicode="&#x1fec;" horiz-adv-x="552" 
d="M318 253h-210v-253h-43v674h255c140 0 216 -95 216 -213c0 -88 -49 -208 -218 -208zM315 635h-207v-342h206c87 0 177 42 177 168c0 107 -73 174 -176 174zM-72 470l-20 13c22 31 35 62 35 86c0 29 -15 50 -60 68l12 45c60 -18 90 -53 90 -98c0 -35 -20 -76 -57 -114z
" />
    <glyph glyph-name="uni1FF2" unicode="&#x1ff2;" horiz-adv-x="778" 
d="M728 237c0 -119 -31 -245 -189 -245c-77 0 -127 43 -148 90h-5c-23 -43 -69 -90 -153 -90c-151 0 -183 106 -183 243c0 138 50 251 205 253v-38c-126 -4 -162 -92 -162 -213c0 -119 24 -209 143 -209c88 0 131 71 131 140v153h43v-161c0 -69 55 -132 130 -132
c118 0 145 97 145 209c0 115 -40 208 -162 213v38c152 -3 205 -117 205 -251zM363 -62h40v-93c0 -57 19 -56 79 -56v-33c-16 -3 -32 -4 -41 -4c-59 0 -78 25 -78 86v100zM411 545l-25 -12l-111 189l51 21z" />
    <glyph glyph-name="uni1FF3" unicode="&#x1ff3;" horiz-adv-x="778" 
d="M728 237c0 -119 -31 -245 -189 -245c-77 0 -127 43 -148 90h-5c-23 -43 -69 -90 -153 -90c-151 0 -183 106 -183 243c0 138 50 251 205 253v-38c-126 -4 -162 -92 -162 -213c0 -119 24 -209 143 -209c88 0 131 71 131 140v153h43v-161c0 -69 55 -132 130 -132
c118 0 145 97 145 209c0 115 -40 208 -162 213v38c152 -3 205 -117 205 -251zM363 -62h40v-93c0 -57 19 -56 79 -56v-33c-16 -3 -32 -4 -41 -4c-59 0 -78 25 -78 86v100z" />
    </font>
</defs>
</svg>
