<svg width="102" height="61" viewBox="0 0 102 61" fill="none" xmlns="http://www.w3.org/2000/svg"><path fill-rule="evenodd" clip-rule="evenodd" d="M12 0C5.373 0 0 5.373 0 12v22c0 6.627 5.373 12 12 12h29.888l6.667 10.725c2.739 4.406 9.151 4.406 11.89 0L67.112 46H90c6.627 0 12-5.373 12-12V12c0-6.627-5.373-12-12-12H12zm54.04 42H90a8 8 0 0 0 8-8V12a8 8 0 0 0-8-8H12a8 8 0 0 0-8 8v22a8 8 0 0 0 8 8h30.96a1.998 1.998 0 0 1 1.739.944l7.253 11.669c1.174 1.888 3.922 1.888 5.096 0l7.254-11.669A1.999 1.999 0 0 1 66.04 42z" fill="#fff"/></svg>