<?xml version="1.0" encoding="utf-8"?><svg xmlns="http://www.w3.org/2000/svg" xmlns:xlink="http://www.w3.org/1999/xlink"><symbol fill="none" viewBox="0 0 40 40" id="calendar" xmlns="http://www.w3.org/2000/svg"><g clip-path="url(#aclip0)"><path d="M5 6.25v-5a1.25 1.25 0 1 1 2.5 0v5a1.25 1.25 0 1 1-2.5 0zM26.252 7.5c.69 0 1.25-.559 1.25-1.25v-5a1.25 1.25 0 1 0-2.5 0v5c0 .691.56 1.25 1.25 1.25zM40.001 30c0 5.523-4.478 10-10 10s-10-4.477-10-10 4.478-10 10-10 10 4.477 10 10zm-2.5 0c0-4.136-3.364-7.5-7.5-7.5s-7.5 3.364-7.5 7.5 3.364 7.5 7.5 7.5 7.5-3.364 7.5-7.5zm-27.5-15h-5v5h5v-5zm-5 12.5h5v-5h-5v5zm7.5-7.5h5v-5h-5v5zm0 7.5h5v-5h-5v5zm-10 2.251V12.5h27.5v5h2.5V7.75c0-1.52-1.211-2.75-2.707-2.75H28.75v1.25c0 1.377-1.12 2.5-2.5 2.5s-2.5-1.123-2.5-2.5V5h-15v1.25c0 1.377-1.12 2.5-2.5 2.5s-2.5-1.123-2.5-2.5V5H2.71C1.213 5 0 6.23 0 7.75V29.75c0 1.514 1.212 2.75 2.709 2.75H17.5V30H2.71c-.114 0-.209-.117-.209-.249zM25.001 20v-5h-5v5h5zm8.75 10H30v-3.75a1.25 1.25 0 1 0-2.5 0v5c0 .69.559 1.25 1.25 1.25h5a1.25 1.25 0 1 0 0-2.5z" fill="#C45092"/></g><defs><clipPath id="aclip0"><path fill="#fff" d="M0 0h40v40H0z"/></clipPath></defs></symbol><symbol fill="none" viewBox="0 0 40 40" id="cart" xmlns="http://www.w3.org/2000/svg"><path d="M12 32c-2.2 0-4 1.8-4 4s1.8 4 4 4 4-1.8 4-4-1.8-4-4-4zM0 0v4h4l7.2 15.2L8.4 24c-.2.6-.4 1.4-.4 2 0 2.2 1.8 4 4 4h24v-4H12.8c-.2 0-.4-.2-.4-.4v-.2l1.8-3.4H29c1.6 0 2.8-.8 3.4-2l7.2-13c.4-.4.4-.6.4-1 0-1.2-.8-2-2-2H8.4L6.6 0H0zm32 32c-2.2 0-4 1.8-4 4s1.8 4 4 4 4-1.8 4-4-1.8-4-4-4z" fill="#C45092"/></symbol><symbol fill="none" viewBox="0 0 40 40" id="comment" xmlns="http://www.w3.org/2000/svg"><g clip-path="url(#cclip0)" fill="#C45092"><path d="M23.605 25.613c2.418-1.02 4.327-2.407 5.726-4.163 1.398-1.756 2.097-3.668 2.097-5.737 0-2.068-.699-3.98-2.098-5.736-1.398-1.756-3.307-3.144-5.725-4.163-2.418-1.02-5.048-1.53-7.89-1.53-2.843 0-5.473.51-7.892 1.53-2.418 1.02-4.326 2.407-5.725 4.163C.7 11.733 0 13.645 0 15.713c0 1.771.53 3.438 1.586 5.001 1.056 1.562 2.507 2.88 4.352 3.95-.149.358-.301.685-.458.983a5.662 5.662 0 0 1-.558.86c-.215.275-.383.49-.502.646-.119.157-.312.377-.58.659-.268.283-.44.469-.514.558 0-.015-.03.018-.09.1-.059.082-.092.12-.1.112-.007-.008-.037.03-.089.111l-.078.123-.056.111a.479.479 0 0 0-.045.134.875.875 0 0 0-.01.145c0 .052.007.1.022.145a.74.74 0 0 0 .256.469.697.697 0 0 0 .458.178h.067a18.7 18.7 0 0 0 1.92-.357c2.291-.595 4.36-1.548 6.205-2.857a22.41 22.41 0 0 0 3.928.357c2.843 0 5.473-.509 7.891-1.528z"/><path d="M38.415 26.438C39.472 24.883 40 23.214 40 21.428c0-1.83-.559-3.543-1.674-5.135-1.117-1.592-2.635-2.917-4.554-3.973a11.52 11.52 0 0 1 .513 3.393c0 1.993-.498 3.883-1.496 5.67-.997 1.785-2.425 3.362-4.285 4.731-1.727 1.25-3.69 2.21-5.893 2.88a23.583 23.583 0 0 1-6.897 1.004c-.447 0-1.101-.03-1.965-.089 2.991 1.964 6.504 2.946 10.536 2.946 1.28 0 2.59-.119 3.929-.357 1.845 1.31 3.913 2.262 6.205 2.858.536.134 1.176.252 1.92.357a.673.673 0 0 0 .49-.157.825.825 0 0 0 .291-.49c-.007-.09 0-.138.022-.146.022-.007.019-.055-.01-.144l-.045-.134-.056-.112c-.015-.03-.04-.07-.078-.122a.946.946 0 0 0-.09-.112 2.783 2.783 0 0 1-.1-.111 15.695 15.695 0 0 0-.603-.658 8.85 8.85 0 0 1-.58-.659 66.567 66.567 0 0 0-.502-.647 5.644 5.644 0 0 1-.558-.86 12.312 12.312 0 0 1-.457-.982c1.845-1.072 3.296-2.385 4.352-3.94z"/></g><defs><clipPath id="cclip0"><path fill="#fff" d="M0 0h40v40H0z"/></clipPath></defs></symbol><symbol viewBox="0 0 25 24" id="comment1" xmlns="http://www.w3.org/2000/svg"><path d="M21.821.34H2.95A2.366 2.366 0 0 0 .59 2.697v21.228l4.718-4.717h16.513a2.366 2.366 0 0 0 2.36-2.359V2.698A2.366 2.366 0 0 0 21.82.34z"/></symbol><symbol fill="none" viewBox="0 0 18 19" id="controls" xmlns="http://www.w3.org/2000/svg"><path d="M2.333 5c1.173 0 2.144-.934 2.307-2.143h13.027c.184 0 .333-.16.333-.357 0-.197-.149-.357-.333-.357H4.64C4.477.933 3.506 0 2.333 0 1.047 0 0 1.122 0 2.5S1.047 5 2.333 5zm0-4.286C3.253.714 4 1.515 4 2.5s-.748 1.786-1.667 1.786S.667 3.485.667 2.5 1.414.714 2.333.714zM15.667 14c-1.173 0-2.144.934-2.307 2.143H.333c-.184 0-.333.16-.333.357 0 .198.15.357.333.357H13.36c.163 1.21 1.134 2.143 2.307 2.143C16.953 19 18 17.878 18 16.5S16.953 14 15.667 14zm0 4.286c-.92 0-1.667-.801-1.667-1.786s.748-1.786 1.667-1.786 1.666.801 1.666 1.786-.747 1.786-1.666 1.786zM17.667 9.225h-6.211C11.324 7.975 10.304 7 9.069 7s-2.255.976-2.387 2.225H.333A.34.34 0 0 0 0 9.572c0 .192.15.347.333.347h6.37C6.895 11.099 7.882 12 9.069 12s2.173-.902 2.366-2.081h6.232A.34.34 0 0 0 18 9.572a.34.34 0 0 0-.333-.347zm-8.598 2.081c-.957 0-1.736-.81-1.736-1.806s.779-1.806 1.736-1.806 1.736.81 1.736 1.806-.779 1.806-1.736 1.806z" fill="#D1CECE"/></symbol><symbol viewBox="0 0 31 30" id="like" xmlns="http://www.w3.org/2000/svg"><path d="M15.593 29.085l-2.108-2.168C5.655 19.795.535 14.995.535 9.112c0-4.8 3.614-8.516 8.282-8.516 2.56 0 5.12 1.239 6.776 3.252C17.25 1.835 19.81.596 22.37.596c4.668 0 8.282 3.716 8.282 8.516 0 5.883-5.12 10.683-12.95 17.805l-2.108 2.168z"/></symbol><symbol fill="none" viewBox="0 0 40 40" id="mail" xmlns="http://www.w3.org/2000/svg"><g clip-path="url(#gclip0)" fill="#C45092"><path d="M3.84 13.973c.505.357 2.03 1.418 4.575 3.181 2.545 1.764 4.494 3.121 5.848 4.073.15.105.465.332.949.681.483.35.885.633 1.205.849.32.215.707.457 1.16.725.455.268.883.469 1.284.602.402.134.774.201 1.117.201h.045a3.54 3.54 0 0 0 1.116-.2c.401-.134.83-.336 1.283-.603.454-.268.84-.51 1.16-.725.32-.216.722-.499 1.206-.849s.8-.576.949-.68c1.369-.953 4.851-3.371 10.446-7.255a10.604 10.604 0 0 0 2.723-2.746c.73-1.07 1.094-2.194 1.094-3.37 0-.982-.354-1.823-1.06-2.522-.707-.7-1.545-1.05-2.511-1.05H3.57c-1.145 0-2.027.388-2.645 1.161C.31 6.22 0 7.188 0 8.348c0 .938.41 1.954 1.228 3.047.818 1.094 1.689 1.953 2.611 2.578z"/><path d="M37.768 16.362c-4.88 3.303-8.587 5.87-11.116 7.7a52.778 52.778 0 0 1-2.065 1.462c-.528.35-1.231.707-2.11 1.072-.877.365-1.695.547-2.454.547h-.045c-.76 0-1.578-.182-2.456-.547-.877-.365-1.58-.722-2.109-1.072a52.94 52.94 0 0 1-2.065-1.461c-2.009-1.473-5.706-4.04-11.093-7.701A11.825 11.825 0 0 1 0 14.42v17.722c0 .983.35 1.823 1.049 2.523.7.7 1.54 1.05 2.523 1.05h32.857c.982 0 1.823-.35 2.522-1.05.7-.7 1.05-1.54 1.05-2.523V14.42a12.31 12.31 0 0 1-2.233 1.942z"/></g><defs><clipPath id="gclip0"><path fill="#fff" d="M0 0h40v40H0z"/></clipPath></defs></symbol><symbol fill="none" viewBox="0 0 40 40" id="plan" xmlns="http://www.w3.org/2000/svg"><g clip-path="url(#hclip0)"><path d="M20.303 2.857h-.88a.851.851 0 0 1-.851-.851v-.029A1.977 1.977 0 0 0 16.593 0h-.045a1.977 1.977 0 0 0-1.977 1.977v.029c0 .47-.382.851-.852.851h-.88c-.937 0-1.697.76-1.697 1.697v.035c0 .937.76 1.697 1.697 1.697h7.463c.937 0 1.697-.76 1.697-1.697v-.035c0-.937-.76-1.697-1.697-1.697zm-3.732 0a.857.857 0 1 1 0-1.714.857.857 0 0 1 0 1.714zM20.389 36H6a2.286 2.286 0 0 1-2.286-2.286V6.286C3.714 5.023 4.738 4 5.43 4h4.63a2.843 2.843 0 0 0 2.78 3.429h7.464c1.566 0 2.84-1.274 2.84-2.875 0-.19-.02-.375-.056-.554h3.485c1.833 0 2.857 1.023 2.857 2.286v17.172c-.19-.012-.379-.03-.572-.03-.79 0-1.553.112-2.285.302V10.286h-20v22.857h13.171A9.075 9.075 0 0 0 20.388 36zm8.47-10.857a7.429 7.429 0 1 0 0 14.857 7.429 7.429 0 0 0 0-14.857zm4.853 5.902l-4.571 5.143a1.14 1.14 0 0 1-1.568.133l-2.857-2.286a1.142 1.142 0 1 1 1.428-1.784l2.01 1.607 3.85-4.332a1.143 1.143 0 1 1 1.708 1.52zM23.714 20h-9.142a.571.571 0 0 1-.572-.571v-.572c0-.316.256-.571.572-.571h9.142c.316 0 .572.256.572.571v.572a.572.572 0 0 1-.572.571zm0-5.143h-9.142a.571.571 0 0 1-.572-.571v-.572c0-.315.256-.571.572-.571h9.142c.316 0 .572.256.572.571v.572a.572.572 0 0 1-.572.571zm-2.857 9.714h-6.285A.571.571 0 0 1 14 24v-.571c0-.316.256-.572.572-.572h6.285c.316 0 .572.256.572.572V24a.572.572 0 0 1-.572.571zm-1.143 5.143h-5.142a.572.572 0 0 1-.572-.571v-.572c0-.315.256-.571.572-.571h5.142c.316 0 .572.256.572.571v.572a.571.571 0 0 1-.572.571zm-6.808-16.97l-2.104 2.367a.525.525 0 0 1-.722.062L8.764 14.12a.526.526 0 1 1 .658-.821l.925.74 1.773-1.994a.526.526 0 1 1 .786.699zm0 5.084l-2.104 2.367a.525.525 0 0 1-.722.061l-1.316-1.052a.526.526 0 1 1 .658-.821l.925.74 1.773-1.994a.526.526 0 1 1 .786.699zm0 4.862l-2.104 2.367a.525.525 0 0 1-.722.062l-1.316-1.053a.526.526 0 1 1 .658-.821l.925.74 1.773-1.994a.526.526 0 1 1 .786.699zm0 4.896l-2.104 2.368a.525.525 0 0 1-.722.061l-1.316-1.052a.526.526 0 1 1 .658-.822l.925.74 1.773-1.994a.526.526 0 1 1 .786.7z" fill="#C45092"/></g><defs><clipPath id="hclip0"><path fill="#fff" d="M0 0h40v40H0z"/></clipPath></defs></symbol><symbol fill="none" viewBox="0 0 40 53" id="robot" xmlns="http://www.w3.org/2000/svg"><path d="M24.523 21.049c0-1.057.853-1.914 1.906-1.914 1.05 0 1.904.857 1.904 1.914a1.91 1.91 0 0 1-1.904 1.914 1.91 1.91 0 0 1-1.906-1.914zm-5.928-16.3h-.016V7.37h2.417V4.825a2.545 2.545 0 0 0 1.409-2.274A2.545 2.545 0 0 0 19.864 0a2.546 2.546 0 0 0-1.27 4.748zm-5.29 18.213a1.91 1.91 0 0 0 1.904-1.914 1.91 1.91 0 0 0-1.904-1.913 1.909 1.909 0 0 0-1.906 1.913 1.91 1.91 0 0 0 1.906 1.914zm6.56 29.765c2.867 0 5.304-1.832 6.23-4.394h-12.46c.925 2.562 3.361 4.394 6.23 4.394zM0 44.953c0-1.013.592-1.88 1.443-2.292V31.813a4.03 4.03 0 0 1 3.756-4.026v-5.25s.51-9.568 8.435-12.544c2.354-.883 4.504-1.24 6.366-1.308 1.864.067 4.013.425 6.365 1.308 7.927 2.976 8.437 12.544 8.437 12.544v5.25a4.03 4.03 0 0 1 3.755 4.025v10.85a2.546 2.546 0 0 1-1.097 4.842 2.546 2.546 0 0 1-2.54-2.55c0-1.013.592-1.88 1.441-2.293V35.41a3.998 3.998 0 0 1-1.558.427v2.52c.014.204.03.406.03.615 0 .221-.013.44-.03.658v.059H34.8c-.338 4.199-3.61 7.563-7.756 8.022l.003.057H12.952l.004-.057c-4.146-.459-7.417-3.823-7.755-8.023H5.2v-.058a9.125 9.125 0 0 1-.031-.658c0-.208.015-.41.03-.614v-2.52a3.99 3.99 0 0 1-1.56-.428v7.254a2.545 2.545 0 0 1-1.098 4.842A2.546 2.546 0 0 1 0 44.953zM24.24 31.61c0-.677-.547-1.228-1.223-1.228-.677 0-1.224.55-1.224 1.228 0 .679.547 1.229 1.224 1.229.675 0 1.222-.55 1.222-1.229zm3.01 0c0-.677-.547-1.228-1.223-1.228s-1.224.55-1.224 1.228c0 .679.548 1.229 1.224 1.229.675 0 1.222-.55 1.222-1.229zm3.01 0c0-.677-.546-1.228-1.222-1.228-.677 0-1.223.55-1.223 1.228 0 .679.546 1.229 1.223 1.229.676 0 1.223-.55 1.223-1.229zM9.707 21.403c0 3.26 2.54 3.473 2.54 3.473.884.28 2.753.141 3.598 0 .778-.132 3.633-.38 4.088-.42.017.002.044.005.067.006.024-.001.052-.004.068-.006.455.04 3.308.288 4.087.42.847.141 2.714.28 3.599 0 0 0 2.54-.212 2.54-3.473 0 0 0-3.614-2.54-5.811-2.464-2.131-6.166-2.594-7.619-2.621v-.002l-.068.001L20 12.97l-.068.001-.067-.001v.002c-1.451.027-5.155.49-7.618 2.62-2.54 2.198-2.54 5.812-2.54 5.812z" fill="#C45092"/></symbol><symbol fill="none" viewBox="0 0 40 40" id="rub" xmlns="http://www.w3.org/2000/svg"><g clip-path="url(#jclip0)"><path d="M2.728 33.636H9.09v5.455a.88.88 0 0 0 .256.653c.17.17.388.256.654.256h4.744c.246 0 .46-.086.64-.256.179-.17.269-.388.269-.653v-5.455H30a.884.884 0 0 0 .654-.256.884.884 0 0 0 .256-.653V29.09a.882.882 0 0 0-.256-.652.884.884 0 0 0-.654-.257H15.653V24.83h9.66c3.787 0 6.878-1.154 9.275-3.466 2.395-2.309 3.594-5.292 3.594-8.948 0-3.655-1.199-6.638-3.594-8.95C32.192 1.158 29.1 0 25.312 0H10a.887.887 0 0 0-.653.255.888.888 0 0 0-.256.654v17.87H2.728a.861.861 0 0 0-.654.27.899.899 0 0 0-.256.638v4.233c0 .265.085.483.256.654.171.17.388.255.654.255H9.09v3.352H2.728a.884.884 0 0 0-.654.257.884.884 0 0 0-.256.652v3.637c0 .265.085.483.256.653.17.171.388.256.654.256zM15.653 6.052h9.091c2.008 0 3.627.587 4.858 1.76 1.23 1.175 1.846 2.71 1.846 4.603 0 1.894-.615 3.43-1.846 4.602-1.231 1.175-2.85 1.762-4.858 1.762h-9.09V6.052z" fill="#C45092"/></g><defs><clipPath id="jclip0"><path fill="#fff" d="M0 0h40v40H0z"/></clipPath></defs></symbol><symbol fill="none" viewBox="0 0 40 48" id="shield" xmlns="http://www.w3.org/2000/svg"><path d="M39.95 12.305c-.057-1.258-.057-2.458-.057-3.659 0-.971-.739-1.715-1.705-1.715-7.104 0-12.504-2.058-16.994-6.46a1.746 1.746 0 0 0-2.387 0c-4.49 4.402-9.889 6.46-16.993 6.46-.966 0-1.705.744-1.705 1.715 0 1.2 0 2.401-.057 3.659-.227 12.005-.568 28.468 19.38 35.385l.569.115.568-.114c19.892-6.918 19.608-23.324 19.38-35.386zM18.637 28.94c-.341.286-.739.457-1.194.457h-.056c-.455 0-.91-.228-1.194-.571l-5.286-5.888 2.558-2.287 4.149 4.63 9.207-8.803 2.33 2.515-10.514 9.947z" fill="#C45092"/></symbol><symbol viewBox="0 0 26 26" id="user" xmlns="http://www.w3.org/2000/svg"><path d="M13 12.992c3.465 0 6.3-2.835 6.3-6.3s-2.835-6.3-6.3-6.3-6.3 2.835-6.3 6.3 2.835 6.3 6.3 6.3zm0 3.15c-4.253 0-12.6 2.047-12.6 6.3v3.15h25.2v-3.15c0-4.253-8.348-6.3-12.6-6.3z"/></symbol><symbol fill="none" viewBox="0 0 40 34" id="users" xmlns="http://www.w3.org/2000/svg"><path d="M24.138 5.721c1.85 1.149 3.147 3.092 3.383 5.347.754.35 1.591.55 2.479.55 3.24 0 5.866-2.6 5.866-5.809C35.866 2.601 33.24 0 30 0c-3.21.001-5.813 2.555-5.862 5.721zm-3.843 11.895c3.24 0 5.866-2.602 5.866-5.81 0-3.208-2.626-5.808-5.866-5.808-3.24 0-5.867 2.6-5.867 5.809 0 3.208 2.627 5.809 5.867 5.809zm2.488.396h-4.977c-4.142 0-7.512 3.337-7.512 7.438v6.028l.016.095.42.13c3.952 1.223 7.386 1.63 10.212 1.63 5.52 0 8.72-1.558 8.918-1.658l.391-.196h.042V25.45c.002-4.101-3.368-7.438-7.51-7.438zm9.706-5.998h-4.94a7.128 7.128 0 0 1-2.23 4.987c3.68 1.084 6.375 4.465 6.375 8.458v1.858c4.877-.177 7.687-1.546 7.872-1.638l.392-.197H40v-6.03c0-4.101-3.37-7.438-7.51-7.438zm-22.488-.395a5.869 5.869 0 0 0 3.12-.897 7.177 7.177 0 0 1 2.73-4.585c.005-.109.016-.217.016-.326C15.867 2.602 13.24 0 10 0c-3.24 0-5.866 2.601-5.866 5.81 0 3.207 2.626 5.808 5.866 5.808zM15.27 17a7.132 7.132 0 0 1-2.23-4.959c-.183-.013-.365-.028-.551-.028H7.51C3.37 12.014 0 15.351 0 19.452v6.03l.015.092.42.131c3.17.98 6 1.432 8.459 1.574v-1.82c0-3.993 2.693-7.373 6.376-8.458z" fill="#C45092"/></symbol><symbol fill="none" viewBox="0 0 40 32" id="window" xmlns="http://www.w3.org/2000/svg"><path d="M5.333 2.667h-2v26.666h2V2.667zM36.666 2.667h-2v26.666h2V2.667zM40 5.333h-2v21.334h2V5.333zM2 5.333H0v21.334h2V5.333zM33.333 0H6.667v32h26.666V0z" fill="#C45092"/></symbol></svg>