<svg xmlns="http://www.w3.org/2000/svg" viewBox="0 0 312.682 59.445">
  <title>bbox_final_black</title>
  <g>
    <path d="M277.094,16.873a15.429,15.429,0,0,0-4.872-3.189,15.235,15.235,0,0,0-19.98,7.946,14.485,14.485,0,0,0-1.19,5.858,14.336,14.336,0,0,0,1.19,5.8,14.944,14.944,0,0,0,8.09,7.947,15.574,15.574,0,0,0,16.762-3.19,14.822,14.822,0,0,0,3.277-4.757,14.352,14.352,0,0,0,1.189-5.8,14.5,14.5,0,0,0-1.189-5.858A14.866,14.866,0,0,0,277.094,16.873Zm-2.349,14.182a9.381,9.381,0,0,1-4.872,4.872,8.787,8.787,0,0,1-3.567.725,9.064,9.064,0,0,1-6.5-2.7,9.641,9.641,0,0,1-1.942-2.9,8.758,8.758,0,0,1-.726-3.567,8.962,8.962,0,0,1,.726-3.6,9.538,9.538,0,0,1,1.942-2.929,9.058,9.058,0,0,1,6.5-2.7,8.8,8.8,0,0,1,3.567.724,9.446,9.446,0,0,1,2.9,1.973,9.323,9.323,0,0,1,1.972,2.929,8.995,8.995,0,0,1,.725,3.6A8.791,8.791,0,0,1,274.745,31.055Zm36.818,9.762,1.021,1.577h-7.06l-6.585-11.632-6.414,11.632h-7.167l.968-1.476h0l8.408-13.6L286.6,14.1l-.986-1.572h6.845v0l.011,0,6.52,10.865,6.829-10.839v-.026h6.858L311.772,14l-8.52,13.158,8.294,13.66Zm-65.687-13.97a14.405,14.405,0,0,0-1.024-4.863c-.043-.109-.077-.221-.123-.328l-.009-.026c-.046-.106-.1-.2-.151-.308a14.822,14.822,0,0,0-1.237-2.219c-.123-.181-.262-.35-.393-.525-.148-.2-.288-.4-.445-.59-.259-.314-.537-.612-.822-.9-.042-.043-.079-.09-.122-.133-.025-.025-.046-.053-.071-.078-.29-.285-.6-.55-.906-.81-.026-.022-.05-.047-.076-.068-.306-.253-.628-.486-.954-.714-.07-.048-.135-.1-.206-.15-.292-.2-.6-.375-.909-.552-.111-.064-.217-.135-.331-.2-.467-.252-.949-.488-1.451-.7a15.168,15.168,0,0,0-5.906-1.16,12.427,12.427,0,0,0-3.647.608c-.107.033-.2.073-.309.108a14.8,14.8,0,0,0-5.179,2.765V.112h-5.974V27.488a14.35,14.35,0,0,0,1.187,5.8,15.291,15.291,0,0,0,19.827,7.947c.5-.21.982-.445,1.449-.7.121-.065.234-.141.353-.21.3-.173.6-.348.89-.54.071-.048.136-.1.205-.151.327-.227.649-.461.955-.714.024-.019.045-.041.068-.061.314-.261.622-.529.914-.817.025-.025.046-.053.071-.078.042-.041.078-.087.119-.129.287-.294.566-.594.827-.909.14-.17.264-.352.4-.527.148-.2.3-.386.441-.59q.4-.582.738-1.2h0c.181-.327.34-.667.5-1.008.049-.106.106-.2.153-.312l.009-.025c.04-.094.07-.193.109-.288a14.389,14.389,0,0,0,1.069-5.486v-.029C245.907,27.252,245.885,27.052,245.876,26.847Zm-6.668,4.19a9.708,9.708,0,0,1-1.943,2.91,9.054,9.054,0,0,1-6.5,2.7,8.787,8.787,0,0,1-3.567-.725,9.444,9.444,0,0,1-2.111-1.276,9.322,9.322,0,0,1-.419-14c.149-.125.29-.252.457-.373a10.553,10.553,0,0,1,1.771-1.035,11.928,11.928,0,0,1,1.973-.708,7.534,7.534,0,0,1,1.887-.265,8.994,8.994,0,0,1,3.6.727,9.019,9.019,0,0,1,4.848,4.859,9.01,9.01,0,0,1,.726,3.606A8.821,8.821,0,0,1,239.208,31.037Z" transform="translate(0.001)" style="fill: #ff8272"/>
    <path d="M60.435,29.4l5.975,1.334a11.966,11.966,0,0,1-1.773,4.552,14.873,14.873,0,0,1-3.37,3.684,16.611,16.611,0,0,1-4.534,2.494,14.98,14.98,0,0,1-5.2.928,15.3,15.3,0,0,1-5.928-1.16,15.46,15.46,0,0,1-4.881-3.19,14.82,14.82,0,0,1-3.281-4.757,14.321,14.321,0,0,1-1.19-5.8,14.472,14.472,0,0,1,1.19-5.857,14.855,14.855,0,0,1,3.284-4.757,15.468,15.468,0,0,1,4.881-3.189,15.281,15.281,0,0,1,5.929-1.16,14.743,14.743,0,0,1,4.56.724,16.37,16.37,0,0,1,7.514,5.076,12.091,12.091,0,0,1,2.147,3.711L46.885,32.3l-2.558-5.046,12.9-6.96a7.44,7.44,0,0,0-2.443-1.45,9,9,0,0,0-3.256-.58,8.833,8.833,0,0,0-3.577.725,9.467,9.467,0,0,0-2.908,1.972,9.323,9.323,0,0,0-1.977,2.931,8.98,8.98,0,0,0-.726,3.6,8.782,8.782,0,0,0,.724,3.567,9.384,9.384,0,0,0,4.873,4.873,9.063,9.063,0,0,0,6.583.2,9.516,9.516,0,0,0,2.668-1.479A8.966,8.966,0,0,0,60.435,29.4ZM30.249,26.842c0,.209.026.41.026.617v.029a14.4,14.4,0,0,1-1.07,5.488c-.038.094-.068.192-.107.286l-.01.025c-.047.108-.1.208-.154.314-.155.341-.314.68-.494,1.006q-.341.62-.738,1.2c-.138.2-.294.4-.443.593-.132.174-.256.355-.4.524-.261.315-.54.615-.827.909-.041.042-.077.088-.119.13-.025.025-.046.052-.071.077-.293.289-.6.559-.918.821-.022.018-.041.039-.063.057-.308.254-.631.489-.959.717-.069.048-.132.1-.2.147-.289.194-.591.369-.9.544-.117.067-.229.142-.349.207-.466.252-.947.487-1.449.7a15.182,15.182,0,0,1-5.905,1.16A15.071,15.071,0,0,1,1.181,33.286,14.353,14.353,0,0,1,0,27.486V.112H5.973V16.006a14.806,14.806,0,0,1,5.18-2.767c.1-.034.2-.074.308-.107a12.454,12.454,0,0,1,3.647-.608,15.169,15.169,0,0,1,5.906,1.16q.743.314,1.451.7c.115.062.222.134.335.2.307.177.614.354.9.55.072.048.139.1.21.153.325.227.645.459.949.71.028.023.054.05.082.073.308.259.613.522.9.806.025.025.046.053.071.078.044.044.083.093.127.138.283.291.559.587.816.9.16.191.3.4.451.6.129.173.266.339.388.518a14.952,14.952,0,0,1,1.244,2.215c.048.1.1.2.15.3l.009.025c.046.109.081.222.124.332A14.4,14.4,0,0,1,30.249,26.842Zm-5.948.617a9.143,9.143,0,0,0-9.17-9.192,7.474,7.474,0,0,0-1.887.266,11.806,11.806,0,0,0-1.973.708A10.388,10.388,0,0,0,9.5,20.274c-.167.121-.308.248-.457.373a9.321,9.321,0,0,0-.456,13.175,9.22,9.22,0,0,0,.875.825,9.516,9.516,0,0,0,2.111,1.276,8.783,8.783,0,0,0,3.567.725,9.056,9.056,0,0,0,6.5-2.7,9.691,9.691,0,0,0,1.943-2.91,8.822,8.822,0,0,0,.717-3.579Zm76.878-5.829a14.5,14.5,0,0,1,1.189,5.858V41.814H96.4V38.775a14.858,14.858,0,0,1-2.895,1.88,15.217,15.217,0,0,1-2.7,1.1,12.34,12.34,0,0,1-3.567.638,15.236,15.236,0,0,1-5.916-1.16,14.944,14.944,0,0,1-8.09-7.947,14.338,14.338,0,0,1-1.19-5.8v-.114a14.852,14.852,0,0,1,14.85-14.85c.057,0,.111.008.167.008s.119-.008.179-.008a15.109,15.109,0,0,1,13.947,9.108Zm-4.844,5.744a9.392,9.392,0,0,0-.687-3.519,9.064,9.064,0,0,0-1.989-2.892,9.8,9.8,0,0,0-2.938-1.969,8.7,8.7,0,0,0-3.52-.725,9.114,9.114,0,0,0-6.516,2.7,9.542,9.542,0,0,0-1.95,2.929,8.964,8.964,0,0,0-.727,3.6,8.753,8.753,0,0,0,.728,3.567,9.651,9.651,0,0,0,1.949,2.9,9.115,9.115,0,0,0,6.52,2.7A7.672,7.672,0,0,0,89.1,36.4a12.169,12.169,0,0,0,1.978-.7,10.584,10.584,0,0,0,1.776-1.015c.087-.062.156-.132.238-.2A9.423,9.423,0,0,0,96.335,27.374Zm85.608,2.955a6.079,6.079,0,0,1-1.827,4.525,6.227,6.227,0,0,1-4.553,1.8,6.154,6.154,0,0,1-6.323-5.98q0-.172,0-.345V13.1h-5.973V30.152c0,.108.013.213.016.32.006.262.016.522.039.779.026.28.065.557.11.831.012.072.021.144.033.215a12.248,12.248,0,0,0,2.5,5.524c.019.026.036.053.055.078.118.15.245.289.369.433.159.179.314.363.484.532l.006.007A12.29,12.29,0,0,0,181.941,40.7v6.678a6.077,6.077,0,0,1-1.827,4.524,6.224,6.224,0,0,1-4.523,1.8v5.743a11.792,11.792,0,0,0,4.726-.985,12.669,12.669,0,0,0,3.945-2.668,12.8,12.8,0,0,0,2.668-3.915,11.587,11.587,0,0,0,.986-4.727V13.1h-5.973ZM147.027,5.564h0V0h-5.973V32.824a8.425,8.425,0,0,0,.725,3.48,9.355,9.355,0,0,0,4.785,4.79,8.425,8.425,0,0,0,3.48.725h6.9V36.077h-6.9a2.8,2.8,0,0,1-2.175-.928,3.321,3.321,0,0,1-.841-2.32V18.846h9.916V13.1h-9.918ZM128.178,30.329a6.083,6.083,0,0,1-1.827,4.525,6.233,6.233,0,0,1-4.553,1.8,6.154,6.154,0,0,1-6.324-5.979c0-.115,0-.231,0-.346V13.1H109.5V30.09a11.551,11.551,0,0,0,.986,4.727,12.731,12.731,0,0,0,6.584,6.583,11.587,11.587,0,0,0,4.727.986,11.793,11.793,0,0,0,4.756-.986,12.642,12.642,0,0,0,6.612-6.583,11.587,11.587,0,0,0,.986-4.727V13.1h-5.974Z" transform="translate(0.001)"/>
  </g>
</svg>
