<svg 
	xmlns="http://www.w3.org/2000/svg" 
	viewBox="0 0 23 23"
>
  <path d="M20.008,0H2.992A2.993,2.993,0,0,0,0,2.992V20.008A2.993,2.993,0,0,0,2.992,23H20.008A2.993,2.993,0,0,0,23,20.008V2.992A2.993,2.993,0,0,0,20.008,0ZM8.559,9.529a3.724,3.724,0,0,1,1.419-1.05,4.5,4.5,0,0,1,1.76-.347,3.348,3.348,0,0,1,2.617,1.045,5.151,5.151,0,0,1,.947,3.487,5.157,5.157,0,0,1-1.089,3.63,4.3,4.3,0,0,1-3.278,1.155,8.2,8.2,0,0,1-2.376-.319ZM21.25,19.26a1.99,1.99,0,0,1-1.991,1.99H3.741A1.99,1.99,0,0,1,1.75,19.26V3.741A1.991,1.991,0,0,1,3.741,1.75H6.755V3.755h0V18.34a13.707,13.707,0,0,0,4.015.572,6.456,6.456,0,0,0,4.768-1.606,6.542,6.542,0,0,0,1.6-4.807A7.745,7.745,0,0,0,16.5,9.133,4.269,4.269,0,0,0,14.773,7.2a4.975,4.975,0,0,0-2.5-.616,5.125,5.125,0,0,0-2.046.4A4.483,4.483,0,0,0,8.669,8.066h-.11V3.755h0v-2h10.7A1.991,1.991,0,0,1,21.25,3.741Z" style="fill: #fff"/>
  <circle cx="15.451" cy="17.405" r="1.5" style="fill: #ff8272;stroke: #fff;stroke-miterlimit: 10;stroke-width: 0.2px"/>
</svg>
