<svg xmlns="http://www.w3.org/2000/svg" viewBox="0 0 270.443 35.98">
    <path d="M8.54,28.665q-.84,0-1.715-.035t-1.908-.14q-1.032-.1-2.239-.3T0,27.685V0H4.865V11.41a7.355,7.355,0,0,1,5.88-2.345,7.4,7.4,0,0,1,5.9,2.31q2.012,2.31,2.012,7.105,0,4.935-2.677,7.542A10.329,10.329,0,0,1,8.54,28.665ZM8.47,25.27a8.2,8.2,0,0,0,2.415-.315,3.4,3.4,0,0,0,1.645-1.068,4.8,4.8,0,0,0,.928-1.977,13.181,13.181,0,0,0,.3-3.045A14.159,14.159,0,0,0,13.51,16a4.848,4.848,0,0,0-.77-1.873,2.938,2.938,0,0,0-1.365-1.032,5.8,5.8,0,0,0-2.03-.315,5.158,5.158,0,0,0-3.22.962,3.447,3.447,0,0,0-1.26,2.923v8.295a15.84,15.84,0,0,0,1.628.227Q7.419,25.271,8.47,25.27ZM32.83,28.6q-9.417,0-9.415-9.59,0-4.9,2.362-7.42t6.948-2.52q7.944,0,7.944,8.435,0,.84-.052,1.5a6.232,6.232,0,0,1-.227,1.26H28.209a7.976,7.976,0,0,0,.438,2.17,3.351,3.351,0,0,0,2.467,2.187,9.2,9.2,0,0,0,2.205.228,25.482,25.482,0,0,0,3.238-.228,21.972,21.972,0,0,0,3.237-.647l.176,3.535A24.438,24.438,0,0,1,36.5,28.3,23.645,23.645,0,0,1,32.83,28.6ZM32.549,12.53A3.964,3.964,0,0,0,29.435,13.7a6.208,6.208,0,0,0-1.226,3.763h8.155a6.539,6.539,0,0,0-.962-3.8A3.405,3.405,0,0,0,32.549,12.53ZM50.5,28.455a5.343,5.343,0,0,1-3.972-1.365,5.3,5.3,0,0,1-1.347-3.885,5.236,5.236,0,0,1,1.732-4.253A9.557,9.557,0,0,1,52.36,17.22l4.445-.315v-.63a7.121,7.121,0,0,0-.176-1.733,2.139,2.139,0,0,0-.647-1.1,2.79,2.79,0,0,0-1.3-.595,10.53,10.53,0,0,0-2.117-.175,27.4,27.4,0,0,0-2.765.157q-1.541.158-3.116.473l-.314-3.465a40.4,40.4,0,0,1,7.035-.7q4.233,0,6.247,1.54a5.653,5.653,0,0,1,2.012,4.8V28.28H57.68l-.455-2.345h-.28A9.958,9.958,0,0,1,50.5,28.455Zm2-3.43a6,6,0,0,0,2.2-.455,10,10,0,0,0,2.1-1.12V19.565l-2.975.28a5.816,5.816,0,0,0-2.923.8,2.394,2.394,0,0,0-.823,2.03A2.105,2.105,0,0,0,52.5,25.025ZM73.149,28.63a5.159,5.159,0,0,1-3.867-1.348,5.316,5.316,0,0,1-1.313-3.867V9.38h4.865V21.91a3.587,3.587,0,0,0,.542,2.24,2.3,2.3,0,0,0,1.873.665,8.393,8.393,0,0,0,2.783-.525q1.486-.525,2.922-1.155V9.38h4.865v18.9H81.724l-.28-2.24H81.3q-1.365.7-2.4,1.19a20.119,20.119,0,0,1-1.926.8,9.977,9.977,0,0,1-1.8.455A13.463,13.463,0,0,1,73.149,28.63Zm27.23.035a6.462,6.462,0,0,1-4.62-1.47,5.675,5.675,0,0,1-1.54-4.3V13.51h-3.57V9.38H94.5l.735-5.18,3.78-.455V9.38h5.145v4.13h-5.11v8.26a3.493,3.493,0,0,0,.683,2.415,2.912,2.912,0,0,0,2.222.735,7.358,7.358,0,0,0,2.31-.42v3.675a15.835,15.835,0,0,1-1.837.35A15.29,15.29,0,0,1,100.379,28.665Zm12.04,6.615-.035-.42,2.765-6.825L107.344,9.9V9.38h5.215l3.92,10.57.98,3.22h.28l.98-3.22,4.06-10.57h5.075V9.9L116.969,35.98Z" style="fill: #010101"/>
    <path d="M141.189,9.38h4.025l.28,2.17h.21a24.942,24.942,0,0,1,3.727-1.89,8.747,8.747,0,0,1,3.168-.63q3.429,0,4.655,2.555h.14a22.673,22.673,0,0,1,3.762-1.925,8.937,8.937,0,0,1,3.168-.63,5.287,5.287,0,0,1,3.85,1.33,5.184,5.184,0,0,1,1.365,3.885V28.28h-4.83V15.96A3.353,3.353,0,0,0,164.1,13.7a2.438,2.438,0,0,0-1.907-.682,6.91,6.91,0,0,0-2.013.367,12.169,12.169,0,0,0-2.4,1.068V28.28h-4.83V15.96a3.426,3.426,0,0,0-.595-2.258,2.431,2.431,0,0,0-1.925-.682,6.533,6.533,0,0,0-2.03.4,14.276,14.276,0,0,0-2.38,1.068V28.28h-4.83Zm38.989,19.075a5.343,5.343,0,0,1-3.972-1.365,5.293,5.293,0,0,1-1.348-3.885,5.239,5.239,0,0,1,1.732-4.253,9.562,9.562,0,0,1,5.443-1.732l4.445-.315v-.63a7.177,7.177,0,0,0-.175-1.733,2.14,2.14,0,0,0-.648-1.1,2.79,2.79,0,0,0-1.295-.595,10.53,10.53,0,0,0-2.117-.175,27.42,27.42,0,0,0-2.765.157q-1.541.158-3.115.473l-.315-3.465a40.4,40.4,0,0,1,7.035-.7q4.234,0,6.248,1.54a5.655,5.655,0,0,1,2.012,4.8V28.28h-3.99l-.455-2.345h-.28A9.958,9.958,0,0,1,180.178,28.455Zm2-3.43a6,6,0,0,0,2.2-.455,10,10,0,0,0,2.1-1.12V19.565l-2.975.28a5.809,5.809,0,0,0-2.922.8,2.394,2.394,0,0,0-.823,2.03A2.1,2.1,0,0,0,182.173,25.025ZM197.783,9.38h4.06l.28,2.73h.14a33.549,33.549,0,0,1,3.22-1.925,11.265,11.265,0,0,1,3.08-1.12h1.54v4.2h-1.715a14.378,14.378,0,0,0-3.028.7,14.953,14.953,0,0,0-2.712,1.225V28.28h-4.865ZM214.723,0h4.864V16.975h2.52l5.286-7.6h5.39l-6.58,8.855-.77.245v.14l.805.28,7.139,9.38h-5.389l-5.95-8.155h-2.451V28.28h-4.864Zm30.415,28.6q-9.417,0-9.415-9.59,0-4.9,2.362-7.42t6.948-2.52q7.944,0,7.945,8.435,0,.84-.053,1.5a6.232,6.232,0,0,1-.227,1.26h-12.18a7.941,7.941,0,0,0,.437,2.17,3.351,3.351,0,0,0,2.467,2.187,9.2,9.2,0,0,0,2.205.228,25.47,25.47,0,0,0,3.238-.228,21.986,21.986,0,0,0,3.238-.647l.175,3.535a24.406,24.406,0,0,1-3.466.787A23.645,23.645,0,0,1,245.138,28.6Zm-.281-16.065a3.964,3.964,0,0,0-3.114,1.172,6.2,6.2,0,0,0-1.225,3.763h8.154a6.539,6.539,0,0,0-.962-3.8A3.405,3.405,0,0,0,244.857,12.53Zm21.7,16.135a6.459,6.459,0,0,1-4.62-1.47,5.675,5.675,0,0,1-1.54-4.3V13.51h-3.57V9.38h3.85l.735-5.18,3.78-.455V9.38h5.145v4.13h-5.11v8.26a3.493,3.493,0,0,0,.683,2.415,2.91,2.91,0,0,0,2.222.735,7.358,7.358,0,0,0,2.31-.42v3.675a15.855,15.855,0,0,1-1.838.35A15.275,15.275,0,0,1,266.558,28.665Z" style="fill: #ef7f73"/>
</svg>
