<svg 
	xmlns="http://www.w3.org/2000/svg" 
	viewBox="0 0 206.673 35.98"
>
  <g>
    <path d="M8.54,28.665q-.84,0-1.715-.036T4.917,28.49q-1.032-.106-2.239-.3T0,27.684V0H4.865V11.41a7.355,7.355,0,0,1,5.88-2.345,7.4,7.4,0,0,1,5.9,2.31q2.012,2.31,2.012,7.105,0,4.935-2.677,7.542A10.333,10.333,0,0,1,8.54,28.665ZM8.47,25.27a8.2,8.2,0,0,0,2.415-.315,3.4,3.4,0,0,0,1.645-1.068,4.8,4.8,0,0,0,.928-1.977,13.181,13.181,0,0,0,.3-3.045A14.146,14.146,0,0,0,13.51,16a4.835,4.835,0,0,0-.77-1.873,2.933,2.933,0,0,0-1.365-1.033,5.8,5.8,0,0,0-2.03-.314,5.151,5.151,0,0,0-3.22.962,3.446,3.446,0,0,0-1.26,2.923v8.295a15.84,15.84,0,0,0,1.628.227Q7.419,25.271,8.47,25.27Zm24.36,3.324q-9.417,0-9.415-9.59,0-4.9,2.362-7.419t6.948-2.52q7.944,0,7.944,8.435c0,.559-.017,1.062-.052,1.5a6.207,6.207,0,0,1-.227,1.26H28.209a7.96,7.96,0,0,0,.438,2.17,3.35,3.35,0,0,0,2.467,2.188,9.2,9.2,0,0,0,2.205.227,25.469,25.469,0,0,0,3.238-.227,22.1,22.1,0,0,0,3.237-.648l.176,3.535A24.434,24.434,0,0,1,36.5,28.3,23.642,23.642,0,0,1,32.83,28.594ZM32.549,12.53A3.961,3.961,0,0,0,29.435,13.7a6.207,6.207,0,0,0-1.226,3.762h8.155a6.536,6.536,0,0,0-.962-3.8A3.405,3.405,0,0,0,32.549,12.53ZM50.5,28.455a5.339,5.339,0,0,1-3.972-1.366,5.3,5.3,0,0,1-1.347-3.884,5.235,5.235,0,0,1,1.732-4.253,9.564,9.564,0,0,1,5.443-1.733l4.445-.314v-.63a7.121,7.121,0,0,0-.176-1.733,2.135,2.135,0,0,0-.647-1.1,2.79,2.79,0,0,0-1.3-.6,10.53,10.53,0,0,0-2.117-.175,27.428,27.428,0,0,0-2.765.158q-1.541.158-3.116.472l-.314-3.464a40.4,40.4,0,0,1,7.035-.7q4.233,0,6.247,1.54a5.651,5.651,0,0,1,2.012,4.794V28.28H57.68l-.455-2.346h-.28A9.954,9.954,0,0,1,50.5,28.455Zm2-3.43a6,6,0,0,0,2.2-.455,10.047,10.047,0,0,0,2.1-1.12V19.565l-2.975.279a5.815,5.815,0,0,0-2.923.806,2.393,2.393,0,0,0-.823,2.029A2.105,2.105,0,0,0,52.5,25.025Zm20.649,3.6a5.162,5.162,0,0,1-3.867-1.347,5.318,5.318,0,0,1-1.313-3.867V9.38h4.865V21.91a3.589,3.589,0,0,0,.542,2.24,2.3,2.3,0,0,0,1.873.665,8.419,8.419,0,0,0,2.783-.525q1.486-.525,2.922-1.156V9.38h4.865v18.9H81.724l-.28-2.24H81.3q-1.365.7-2.4,1.19a20.379,20.379,0,0,1-1.926.8,9.977,9.977,0,0,1-1.8.455A13.471,13.471,0,0,1,73.149,28.629Zm27.23.036a6.467,6.467,0,0,1-4.62-1.47,5.678,5.678,0,0,1-1.54-4.306v-9.38h-3.57V9.38H94.5l.735-5.18,3.78-.455V9.38h5.146v4.129H99.049V21.77a3.49,3.49,0,0,0,.683,2.414,2.912,2.912,0,0,0,2.222.735,7.35,7.35,0,0,0,2.31-.419v3.674a15.614,15.614,0,0,1-1.837.351A15.29,15.29,0,0,1,100.379,28.665Zm12.04,6.615-.035-.42,2.765-6.825L107.344,9.9V9.38h5.215l3.92,10.57.98,3.219h.28l.98-3.219,4.06-10.57h5.075V9.9L116.969,35.98Z" style="fill: #fff"/>
    <path d="M149.659,28.665q-.84,0-1.715-.036c-.583-.023-1.22-.07-1.907-.139s-1.436-.17-2.241-.3-1.7-.3-2.677-.508V0h4.865V11.41a8.613,8.613,0,0,1,11.777-.035q2.013,2.31,2.013,7.105,0,4.935-2.678,7.542A10.329,10.329,0,0,1,149.659,28.665Zm-.07-3.395A8.2,8.2,0,0,0,152,24.955a3.407,3.407,0,0,0,1.645-1.068,4.8,4.8,0,0,0,.928-1.977,13.181,13.181,0,0,0,.3-3.045,14.146,14.146,0,0,0-.245-2.87,4.85,4.85,0,0,0-.77-1.873,2.933,2.933,0,0,0-1.365-1.033,5.8,5.8,0,0,0-2.03-.314,5.151,5.151,0,0,0-3.22.962,3.446,3.446,0,0,0-1.26,2.923v8.295a15.84,15.84,0,0,0,1.628.227Q148.538,25.271,149.589,25.27Zm24.5,3.359q-4.69,0-7.157-2.5t-2.468-7.3q0-4.8,2.468-7.3t7.157-2.5q4.691,0,7.158,2.5t2.467,7.3q0,4.8-2.467,7.3T174.088,28.629Zm0-3.745A4.361,4.361,0,0,0,177.71,23.5q1.1-1.381,1.1-4.672t-1.1-4.656a5.488,5.488,0,0,0-7.244,0q-1.1,1.365-1.1,4.656t1.1,4.672A4.363,4.363,0,0,0,174.088,24.884Zm12.356,2.87,6.79-9.274L186.759,9.7V9.38H191.9l3.465,4.9,1.085,1.679h.245l1.085-1.679,3.429-4.9h5.146V9.7l-6.475,8.925,6.789,9.134v.526h-5.109l-3.745-5.25-1.155-1.891h-.28l-1.12,1.891-3.71,5.25h-5.11Z" style="fill: #ef7f73"/>
  </g>
</svg>
