<svg xmlns="http://www.w3.org/2000/svg" viewBox="0 0 206.673 35.98">
    <path d="M8.54,28.665q-.84,0-1.715-.035t-1.908-.14q-1.032-.1-2.239-.3T0,27.685V0H4.865V11.41a7.355,7.355,0,0,1,5.88-2.345,7.4,7.4,0,0,1,5.9,2.31q2.012,2.31,2.012,7.105,0,4.935-2.677,7.542A10.329,10.329,0,0,1,8.54,28.665ZM8.47,25.27a8.2,8.2,0,0,0,2.415-.315,3.4,3.4,0,0,0,1.645-1.068,4.8,4.8,0,0,0,.928-1.977,13.181,13.181,0,0,0,.3-3.045A14.159,14.159,0,0,0,13.51,16a4.848,4.848,0,0,0-.77-1.873,2.938,2.938,0,0,0-1.365-1.032,5.8,5.8,0,0,0-2.03-.315,5.158,5.158,0,0,0-3.22.962,3.447,3.447,0,0,0-1.26,2.923v8.295a15.84,15.84,0,0,0,1.628.227Q7.419,25.271,8.47,25.27ZM32.83,28.6q-9.417,0-9.415-9.59,0-4.9,2.362-7.42t6.948-2.52q7.944,0,7.944,8.435,0,.84-.052,1.5a6.232,6.232,0,0,1-.227,1.26H28.209a7.976,7.976,0,0,0,.438,2.17,3.351,3.351,0,0,0,2.467,2.187,9.2,9.2,0,0,0,2.205.228,25.482,25.482,0,0,0,3.238-.228,21.972,21.972,0,0,0,3.237-.647l.176,3.535A24.438,24.438,0,0,1,36.5,28.3,23.645,23.645,0,0,1,32.83,28.6ZM32.549,12.53A3.964,3.964,0,0,0,29.435,13.7a6.208,6.208,0,0,0-1.226,3.763h8.155a6.539,6.539,0,0,0-.962-3.8A3.405,3.405,0,0,0,32.549,12.53ZM50.5,28.455a5.343,5.343,0,0,1-3.972-1.365,5.3,5.3,0,0,1-1.347-3.885,5.236,5.236,0,0,1,1.732-4.253A9.557,9.557,0,0,1,52.36,17.22l4.445-.315v-.63a7.121,7.121,0,0,0-.176-1.733,2.139,2.139,0,0,0-.647-1.1,2.79,2.79,0,0,0-1.3-.595,10.53,10.53,0,0,0-2.117-.175,27.4,27.4,0,0,0-2.765.157q-1.541.158-3.116.473l-.314-3.465a40.4,40.4,0,0,1,7.035-.7q4.233,0,6.247,1.54a5.653,5.653,0,0,1,2.012,4.8V28.28H57.68l-.455-2.345h-.28A9.958,9.958,0,0,1,50.5,28.455Zm2-3.43a6,6,0,0,0,2.2-.455,10,10,0,0,0,2.1-1.12V19.565l-2.975.28a5.816,5.816,0,0,0-2.923.8,2.394,2.394,0,0,0-.823,2.03A2.105,2.105,0,0,0,52.5,25.025ZM73.149,28.63a5.159,5.159,0,0,1-3.867-1.348,5.316,5.316,0,0,1-1.313-3.867V9.38h4.865V21.91a3.587,3.587,0,0,0,.542,2.24,2.3,2.3,0,0,0,1.873.665,8.393,8.393,0,0,0,2.783-.525q1.486-.525,2.922-1.155V9.38h4.865v18.9H81.724l-.28-2.24H81.3q-1.365.7-2.4,1.19a20.119,20.119,0,0,1-1.926.8,9.977,9.977,0,0,1-1.8.455A13.463,13.463,0,0,1,73.149,28.63Zm27.23.035a6.462,6.462,0,0,1-4.62-1.47,5.675,5.675,0,0,1-1.54-4.3V13.51h-3.57V9.38H94.5l.735-5.18,3.78-.455V9.38h5.145v4.13h-5.11v8.26a3.493,3.493,0,0,0,.683,2.415,2.912,2.912,0,0,0,2.222.735,7.358,7.358,0,0,0,2.31-.42v3.675a15.835,15.835,0,0,1-1.837.35A15.29,15.29,0,0,1,100.379,28.665Zm12.04,6.615-.035-.42,2.765-6.825L107.344,9.9V9.38h5.215l3.92,10.57.98,3.22h.28l.98-3.22,4.06-10.57h5.075V9.9L116.969,35.98Z" style="fill: #010101"/>
    <path d="M149.659,28.665q-.84,0-1.715-.035t-1.908-.14q-1.032-.1-2.24-.3t-2.677-.507V0h4.865V11.41a8.613,8.613,0,0,1,11.777-.035q2.013,2.31,2.013,7.105,0,4.935-2.678,7.542A10.325,10.325,0,0,1,149.659,28.665Zm-.07-3.395A8.2,8.2,0,0,0,152,24.955a3.407,3.407,0,0,0,1.645-1.068,4.785,4.785,0,0,0,.927-1.977,13.175,13.175,0,0,0,.3-3.045,14.159,14.159,0,0,0-.245-2.87,4.863,4.863,0,0,0-.77-1.873,2.938,2.938,0,0,0-1.365-1.032,5.8,5.8,0,0,0-2.03-.315,5.158,5.158,0,0,0-3.22.962,3.447,3.447,0,0,0-1.26,2.923v8.295a15.817,15.817,0,0,0,1.627.227Q148.538,25.271,149.589,25.27Zm24.5,3.36q-4.69,0-7.157-2.5t-2.468-7.3q0-4.8,2.468-7.3t7.157-2.5q4.691,0,7.158,2.5t2.467,7.3q0,4.8-2.467,7.3T174.088,28.63Zm0-3.745A4.361,4.361,0,0,0,177.71,23.5q1.1-1.381,1.1-4.672t-1.1-4.655a5.488,5.488,0,0,0-7.244,0q-1.1,1.365-1.1,4.655t1.1,4.672A4.363,4.363,0,0,0,174.088,24.885Zm12.355,2.87,6.79-9.275L186.759,9.7V9.38H191.9l3.465,4.9,1.085,1.68h.245l1.085-1.68,3.429-4.9h5.145V9.7l-6.474,8.925,6.789,9.135v.525h-5.11l-3.745-5.25-1.154-1.89h-.28l-1.12,1.89-3.71,5.25h-5.111Z" style="fill: #ef7f73"/>
</svg>
