<svg 
  xmlns="http://www.w3.org/2000/svg" 
  viewBox="0 0 113.488 171.305">
<polygon points="40.251 161.74 39.404 162.227 39.404 161.253 40.251 160.767 40.251 161.74" style="fill: #4f2e17"/>
<path d="M73.463,112.831l-4.37-2.526-14.045-8.111-13.069,7.529-2.158,1.247-.219.134-1.984,1.144-14.222,8.2,12.832,7.42,1.29.745.227.134,2.08,1.2,2.071,1.2,13.831,7.993,14.135-8.158,2.073-1.2.219-.134,2.087-1.2,13.116-7.566.015-.017Z" transform="translate(0 0)" style="fill: #fedda8"/>
<polygon points="55.736 139.127 55.724 171.305 41.899 163.383 41.844 163.35 39.404 161.953 38.582 161.484 37.516 160.876 36.225 160.137 23.396 152.779 23.407 120.447 37.524 128.607 38.593 129.225 39.413 129.701 41.909 131.141 55.736 139.127" style="fill: #bc7d45"/>
<path d="M74.227,128.445l-1.133.657-.819.476-.167.1-.212.124-2.047,1.176-14.113,8.151-.012,32.178,14.115-8.095,2.423-1.387.824-.478,1.132-.649,13.14-7.529.009-32.292Z" transform="translate(0 0)" style="fill: #dea966"/>

<polygon points="58.478 164.469 58.261 164.599 58.262 160.831 58.478 160.703 58.478 164.469" style="fill: #4f2e17"/>
<polygon points="59.252 161.086 59.097 161.346 58.372 160.862 57.647 162.187 57.485 162.107 58.372 160.499 59.252 161.086" style="fill: #4f2e17"/>

<polygon points="60.643 163.221 60.426 163.35 60.427 159.581 60.644 159.457 60.643 163.221" style="fill: #4f2e17"/>
<polygon points="61.421 159.836 61.259 160.1 60.539 159.614 59.809 160.937 59.648 160.858 60.539 159.248 61.421 159.836" style="fill: #4f2e17"/>

<path d="M61.474,162.869,57.43,165.2c-.058.033-.1.007-.1-.065a.237.237,0,0,1,.1-.187l4.045-2.329c.058-.038.108-.01.107.063A.242.242,0,0,1,61.474,162.869Z" transform="translate(0 0)" style="fill: #4f2e17"/>
<path d="M61.44,163.889l-3.972,2.293c-.42.242-.762.047-.762-.439v-4.585a1.667,1.667,0,0,1,.763-1.311l3.972-2.294c.415-.239.753-.045.753.439v4.587A1.679,1.679,0,0,1,61.44,163.889ZM57.47,160.1a1.2,1.2,0,0,0-.545.939v4.584c0,.346.244.486.544.315l3.972-2.295a1.183,1.183,0,0,0,.535-.937l0-4.583c0-.349-.243-.489-.538-.316Z" transform="translate(0 0)" style="fill: #4f2e17"/>

<path d="M68.454,159.9l-4.085,2.359c-.43.248-.778.046-.778-.45l0-4.716a1.729,1.729,0,0,1,.777-1.352l4.088-2.356c.427-.246.773-.046.773.449v4.718A1.72,1.72,0,0,1,68.454,159.9ZM64.37,156a1.211,1.211,0,0,0-.556.961l0,4.72c0,.35.248.5.559.321l4.087-2.359a1.24,1.24,0,0,0,.556-.963v-4.719c0-.355-.253-.5-.556-.321Z" transform="translate(0 0)" style="fill: #4f2e17"/>
<path d="M66.412,159.8c-.066.033-.119,0-.119-.068v-3.375a.246.246,0,0,1,.12-.193c.057-.036.105,0,.106.062V159.6A.257.257,0,0,1,66.412,159.8Z" transform="translate(0 0)" style="fill: #4f2e17"/>
<path d="M66.915,159.5l-1.012.583c-.06.039-.113.01-.114-.061a.246.246,0,0,1,.114-.193l1.012-.585c.061-.037.114-.008.112.065A.25.25,0,0,1,66.915,159.5Z" transform="translate(0 0)" style="fill: #4f2e17"/>
<path d="M67.487,155.23v1.579a1.463,1.463,0,0,1-.667,1.155l-.819.468c-.367.217-.664.043-.664-.382v-1.578l.4-.234,0,1.691c0,.068.047.1.106.063a.249.249,0,0,0,.115-.195v-1.691Z" transform="translate(0 0)" style="fill: #4f2e17"/>
<path d="M55.043,102.684l-30.789,17.77L55.726,138.5l30.787-17.636Z" transform="translate(0 0)" style="fill: #f9c98a"/>
<polygon points="87.36 121.203 87.36 121.452 55.727 139.703 55.727 139.45 87.36 121.203" style="fill: #bc7d45"/>
<polygon points="72.151 129.652 71.936 129.782 39.602 111.104 39.82 110.975 72.151 129.652" style="fill: #bc7d45"/>
<polygon points="72.108 129.682 72.106 130.202 71.892 130.201 71.891 129.803 72.108 129.682" style="fill: #bc7d45"/>
<polygon points="74.234 128.423 74.222 160.699 69.844 163.211 69.852 130.952 74.234 128.423" style="fill: #9b7552"/>
<polygon points="74.241 128.446 72.154 129.649 71.935 129.782 69.862 130.98 37.618 112.248 39.602 111.104 39.821 110.97 41.979 109.723 74.241 128.446" style="fill: #cab090"/>
<polygon points="41.908 131.118 41.897 163.384 41.841 163.351 37.509 160.876 37.521 128.585 41.908 131.118" style="fill: #9b7552"/>
<polygon points="73.462 112.83 41.895 131.148 39.825 129.939 39.602 129.808 37.748 128.74 37.516 128.608 64.046 113.228 66.043 112.071 69.093 110.307 70.793 111.284 71.899 111.933 73.462 112.83" style="fill: #cab090"/>

<polygon points="85.653 133.424 76.513 138.697 76.514 130.841 85.655 125.57 85.653 133.424" style="fill: #e4e0dc"/>
<polygon points="84.782 127.925 77.382 132.196 77.382 131.316 84.782 127.046 84.782 127.925" style="fill: #4f2e17"/>
<polygon points="84.782 129.504 77.382 133.775 77.382 133.386 84.782 129.12 84.782 129.504" style="fill: #b2afab"/>
<polygon points="84.782 130.539 77.381 134.808 77.381 134.421 84.782 130.15 84.782 130.539" style="fill: #b2afab"/>
<polygon points="84.782 131.648 77.381 135.919 77.381 135.53 84.782 131.26 84.782 131.648" style="fill: #b2afab"/>
<polygon points="84.782 132.683 77.381 136.952 77.381 136.563 84.781 132.293 84.782 132.683" style="fill: #b2afab"/>

<rect x="53.976" y="113.313" width="2.037" height="2.728" transform="translate(-49.99 42.889) rotate(-30.015)" style="fill: #94999a"/>
<polygon points="71.899 111.933 64.046 113.228 55.43 114.656 55.296 113.849 66.043 112.071 70.793 111.284 71.899 111.933" style="fill: #3c3c3b"/>
<path d="M54.594,112.215a2.159,2.159,0,0,0-.052.467,3.391,3.391,0,0,0,.151.936l.005.008a.537.537,0,0,1,.318.09,1.717,1.717,0,0,1,.776,1.326.641.641,0,0,1-.082.333,3.028,3.028,0,0,0,.731.6,2.039,2.039,0,0,0,.432.187,1.129,1.129,0,0,0,.916-.052,1.062,1.062,0,0,0,.407-.452,1.847,1.847,0,0,0,.155-.784,4.216,4.216,0,0,0-1.906-3.3,1.78,1.78,0,0,0-.75-.248,1.031,1.031,0,0,0-.594.123A1.133,1.133,0,0,0,54.594,112.215Z" transform="translate(0 0)" style="fill: #94999a"/>
<path d="M53.678,112.268l1.423-.82a1.031,1.031,0,0,1,.594-.123l2.5,4.334a1.062,1.062,0,0,1-.407.452l-1.423.818-.8-1.394a.316.316,0,0,0,.147-.16.641.641,0,0,0,.082-.333,1.717,1.717,0,0,0-.776-1.326.537.537,0,0,0-.318-.09l-.005-.008a.415.415,0,0,0-.21.046Z" transform="translate(0 0)" style="fill: #94999a"/>
<path d="M55.018,112.4a1.432,1.432,0,0,0-.426-.18,1.088,1.088,0,0,0-.914.056,1.328,1.328,0,0,0-.558,1.233,3.858,3.858,0,0,0,.517,1.808,4.853,4.853,0,0,0,.469.689,3.556,3.556,0,0,0,.911.8,1.341,1.341,0,0,0,1.348.131,1.135,1.135,0,0,0,.508-.771,1.611,1.611,0,0,0,.051-.46A4.226,4.226,0,0,0,55.018,112.4Zm.773,2.646a.667.667,0,0,1-.081.337.347.347,0,0,1-.15.155.557.557,0,0,1-.543-.057.72.72,0,0,1-.188-.139,1.773,1.773,0,0,1-.468-.691,1.361,1.361,0,0,1-.107-.493.56.56,0,0,1,.23-.491.318.318,0,0,1,.206-.04l.007,0a.5.5,0,0,1,.32.09,1.134,1.134,0,0,1,.191.141l.088-.082.559.6-.171.165A1.392,1.392,0,0,1,55.791,115.042Z" transform="translate(0 0)" style="fill: #d1d1d1"/>
<polygon points="39.413 129.701 39.404 162.227 38.582 161.74 38.593 129.225 39.413 129.701" style="fill: #3c3c3b"/>
<path d="M55.855,114.376l-.171.165a1.779,1.779,0,0,0-.476-.682l.088-.082Z" transform="translate(0 0)" style="fill: #3c3c3b"/>
<path d="M55.684,114.541l-.855.8-.723.664L39.413,129.7l-.82-.483,15.044-13.9.724-.666.847-.788A1.779,1.779,0,0,1,55.684,114.541Z" transform="translate(0 0)" style="fill: #3c3c3b"/>

<path d="M55.568,114.312a1.115,1.115,0,0,1,.133.293l-.008-.005-.215-.191Z" transform="translate(0 0)" style="fill: #3c3c3b"/>
<path d="M106.829,55.1,57.31,112.317c.122.145.247.3.354.458L106.83,55.969Z" transform="translate(0 0)" style="fill: #3c3c3b"/>

<polygon points="55.302 114.791 5.266 54.69 5.709 54.319 55.684 114.541 55.302 114.791" style="fill: #3c3c3b"/>
<polygon points="55.213 114.679 37.054 71.928 37.582 71.703 55.684 114.541 55.213 114.679" style="fill: #3c3c3b"/>
<path d="M55.568,114.312a1.115,1.115,0,0,1,.133.293l-.008-.005-.264-.125.107-.221A.141.141,0,0,1,55.568,114.312Z" transform="translate(0 0)" style="fill: #3c3c3b"/>
<path d="M76.793,70.892,57.171,112.16a3.562,3.562,0,0,0-.453-.4L76.274,70.648Z" transform="translate(0 0)" style="fill: #3c3c3b"/>

<path d="M95.009,12.7c-21.125-14.5-55.38-14.513-76.51-.022S-2.64,50.666,18.482,65.166,73.861,79.679,95,65.188,116.131,27.2,95.009,12.7Z" transform="translate(0 0)" style="fill: #e94944"/>
<path d="M113.054,34.136c-1.5-8.306-6.885-16.346-16.172-22.726A60.639,60.639,0,0,0,83.242,4.5,76.023,76.023,0,0,0,65,.41Q60.882,0,56.726,0c-.313,0-.62,0-.932.012-2.326.021-4.659.142-6.972.366-2.168.21-4.33.5-6.461.89-.046.006-.1.02-.147.027q-3.513.63-6.907,1.575c-.005-.007-.005-.007-.013,0a62.959,62.959,0,0,0-18.67,8.516,48.167,48.167,0,0,0-5.341,4.228C23.29,8.788,38.429,5.883,53.1,6.887c.267-.1.539-.183.826-.259a1.515,1.515,0,0,1,.157-.033,7.191,7.191,0,0,1,.883-.182c.266-.042.536-.082.816-.1.149-.012.3-.027.455-.033.327-.007.653-.006.98.006.2.007.386.021.583.035s.369.042.545.068a.052.052,0,0,1,.046.007c.159.021.314.042.471.076a.368.368,0,0,1,.117.019c.143.029.284.061.419.1a.667.667,0,0,1,.124.026,8.1,8.1,0,0,1,1.981.8,5.266,5.266,0,0,1,.922.666,2.551,2.551,0,0,1,.414,3.728A4.919,4.919,0,0,1,61.5,12.9,9.174,9.174,0,0,1,57.539,14a10.927,10.927,0,0,1-1.648-.007,9.963,9.963,0,0,1-2.59-.517,7.36,7.36,0,0,1-1.3-.578,6.416,6.416,0,0,1-.674-.45,72.411,72.411,0,0,0-15.792,3.464,61.474,61.474,0,0,0-13.951,7.267C8.722,32,3.321,44.006,5.4,55.506a42.739,42.739,0,0,0,11.22,10.939c1.066.736,2.161,1.429,3.291,2.089a66.5,66.5,0,0,0,19.284,7.419c18.021,4.025,38.4,1.684,53.689-7,1.366-.776,2.7-1.6,3.977-2.481C109.73,57.645,115.134,45.635,113.054,34.136Z" transform="translate(0 0)" style="fill: #d5edf9"/>
<path d="M16.624,11.386a48.167,48.167,0,0,0-5.341,4.228c1.679-.953,3.425-1.822,5.214-2.623A39.12,39.12,0,0,1,19.309,9.67C18.4,10.221,17.5,10.788,16.624,11.386Z" transform="translate(0 0)" style="fill: #d5edf9"/>
<path d="M15.371,41.452c2.042.682,4.761,2.721,7.481,1.362,2.041-1.359,4.081-2.038,4.762-4.758,1.359,4.079,2.717,12.241,8.837,10.882,1.361,0,3.4-2.718,4.082-4.759,2.038,8.162,12.238,10.884,20.4,9.527,4.08-1.359,9.522-2.716,10.882-6.8,1.363-3.4,4.083-6.121,4.084-9.521,0,1.36.68,3.4,2.038,2.721,1.363,0,0-2.72.684-4.08,6.8,4.083,19.038,6.805,22.441-2.035,1.363-4.079,2.044-9.519-1.354-13.6-1.36-1.359-2.038-3.4-3.4-4.761,1.362.68,2.04-1.359,2.04-2.04a7.784,7.784,0,0,0,.656-.634c-.686-.524-1.388-1.045-2.123-1.548A60.639,60.639,0,0,0,83.242,4.5,76.023,76.023,0,0,0,65,.41Q60.882,0,56.726,0c-.313,0-.62,0-.932.012-2.326.021-4.659.142-6.972.366-2.168.21-4.33.5-6.461.89-.046.006-.1.02-.147.027q-3.513.63-6.907,1.575c-.005-.007-.005-.007-.013,0a64.666,64.666,0,0,0-15.985,6.8A39.12,39.12,0,0,0,16.5,12.991,77.924,77.924,0,0,1,53.1,6.887c.267-.1.539-.183.826-.259a1.515,1.515,0,0,1,.157-.033,7.191,7.191,0,0,1,.883-.182c.266-.042.536-.082.816-.1.149-.012.3-.027.455-.033.327-.007.653-.006.98.006.2.007.386.021.583.035s.369.042.545.068a.052.052,0,0,1,.046.007c.159.021.314.042.471.076a.368.368,0,0,1,.117.019c.143.029.284.061.419.1a.667.667,0,0,1,.124.026,8.1,8.1,0,0,1,1.981.8,5.266,5.266,0,0,1,.922.666,2.551,2.551,0,0,1,.414,3.728A4.919,4.919,0,0,1,61.5,12.9,9.174,9.174,0,0,1,57.539,14a10.927,10.927,0,0,1-1.648-.007,9.963,9.963,0,0,1-2.59-.517,7.36,7.36,0,0,1-1.3-.578,6.416,6.416,0,0,1-.674-.45,72.411,72.411,0,0,0-15.792,3.464,61.474,61.474,0,0,0-13.951,7.267,47.766,47.766,0,0,0-5.821,4.677h.289C11.974,30.57,9.252,38.051,15.371,41.452Z" transform="translate(0 0)" style="fill: #e9f5f9"/>
<path d="M51.33,12.443a85.815,85.815,0,0,0-11.4,2.341,58.381,58.381,0,0,0-18.341,8.39C8.722,32,3.321,44.006,5.4,55.506c-8.8-12.816-6.834-28.245,5.886-39.892C23.29,8.788,38.429,5.883,53.1,6.887a7.82,7.82,0,0,0-1.1.517C49.628,8.777,49.4,10.919,51.33,12.443Z" transform="translate(0 0)" style="fill: #e94944"/>
<path d="M62.123,12.447a85.46,85.46,0,0,1,11.4,2.347,58.477,58.477,0,0,1,18.335,8.4c12.856,8.832,18.254,20.844,16.169,32.344,8.812-12.81,6.85-28.242-5.865-39.9-12-6.832-27.139-9.747-41.815-8.752a7.75,7.75,0,0,1,1.1.518C63.824,8.781,64.054,10.924,62.123,12.447Z" transform="translate(0 0)" style="fill: #e94944"/>
<path d="M39.192,75.953a66.5,66.5,0,0,1-19.284-7.419,47.623,47.623,0,0,1,1.884-21C26.447,32.33,41.331,17.807,53.3,13.471a9.963,9.963,0,0,0,2.59.517C47.506,21.82,35.855,67.927,39.192,75.953Z" transform="translate(0 0)" style="fill: #e94944"/>
<path d="M74.178,75.963a66.562,66.562,0,0,0,19.289-7.407,47.7,47.7,0,0,0-1.871-21c-4.647-15.208-19.523-29.74-31.49-34.082a10.051,10.051,0,0,1-2.594.515C65.9,21.826,77.519,67.939,74.178,75.963Z" transform="translate(0 0)" style="fill: #e94944"/>
<path d="M83.242,4.5C74.312,3.16,64.369,4.265,59.607,6.63c-.027-.007-.052-.014-.081-.02a.667.667,0,0,0-.124-.026c-.135-.041-.276-.068-.419-.1a.368.368,0,0,0-.117-.019c-.095-.021-.2-.041-.3-.055a1.526,1.526,0,0,0-.172-.021.052.052,0,0,0-.046-.007,4.636,4.636,0,0,0-.545-.068c-.17-.02-.338-.035-.508-.041C57.317,5.236,60.885,2.258,65,.41A76.023,76.023,0,0,1,83.242,4.5Z" transform="translate(0 0)" style="fill: #cd1417"/>
<path d="M55.786,6.309c-.28.022-.55.062-.816.1a7.191,7.191,0,0,0-.883.182C50.154,4.758,42.354,2.184,35.307,2.87Q38.7,1.922,42.214,1.3c.045-.007.1-.021.147-.027,2.131-.389,4.293-.68,6.461-.89C51.243,1.766,55.08,4.366,55.786,6.309Z" transform="translate(0 0)" style="fill: #cd1417"/>
<path d="M52.005,7.4a7.82,7.82,0,0,1,1.1-.517c-14.675-1-29.814,1.9-41.821,8.727-.865.793-1.675,1.6-2.44,2.429C7.1,22.173,7.586,26.31,12.654,28.53a5.834,5.834,0,0,0,1.855.556,46.868,46.868,0,0,1,7.078-5.912,58.381,58.381,0,0,1,18.341-8.39,85.815,85.815,0,0,1,11.4-2.341C49.4,10.919,49.628,8.777,52.005,7.4Z" transform="translate(0 0)" style="fill: #ed6e6b"/>
<path d="M107.868,23.8A28.826,28.826,0,0,0,106.12,19.8a41.1,41.1,0,0,0-3.957-4.163c-12-6.832-27.139-9.747-41.815-8.752a7.75,7.75,0,0,1,1.1.518c2.374,1.374,2.6,3.517.673,5.04a85.46,85.46,0,0,1,11.4,2.347,58.477,58.477,0,0,1,18.335,8.4,43.506,43.506,0,0,1,10.662,10.155C107.5,33.066,109.111,28.155,107.868,23.8Z" transform="translate(0 0)" style="fill: #ed6e6b"/>
<path d="M55.891,13.988a9.963,9.963,0,0,1-2.59-.517C42.7,17.31,29.819,29.142,23.775,42.361c-.632,1.39.842,4.57,1.569,5.7a8.874,8.874,0,0,0,5.237,3.9,9.037,9.037,0,0,0,6.8-1.508c1.449-.905,5.214-3.422,5.665-5.164C46.592,31.652,51.658,17.942,55.891,13.988Z" transform="translate(0 0)" style="fill: #ed6e6b"/>
<path d="M60.106,13.473a10.051,10.051,0,0,1-2.594.515C62.1,18.276,67.65,34.008,71.2,48.7c2.944,2.856,6.551,5.073,10.819,3.653,5.5-1.962,6.685-6.646,6.71-11.821C82.384,28.065,70.208,17.139,60.106,13.473Z" transform="translate(0 0)" style="fill: #ed6e6b"/>
<path d="M65,.41C60.885,2.258,57.317,5.236,57.3,6.276c.17.006.338.021.508.041a4.636,4.636,0,0,1,.545.068.052.052,0,0,1,.046.007,1.526,1.526,0,0,1,.172.021c.1.014.2.034.3.055a.368.368,0,0,1,.117.019c.143.029.284.056.419.1a.667.667,0,0,1,.124.026c.029.006.054.013.081.02,4.762-2.365,14.7-3.47,23.635-2.134A76.023,76.023,0,0,0,65,.41Z" transform="translate(0 0)" style="fill: #ed6e6b"/>
<path d="M55.786,6.309c-.28.022-.55.062-.816.1a7.191,7.191,0,0,0-.883.182C50.154,4.758,42.354,2.184,35.307,2.87Q38.7,1.922,42.214,1.3c.045-.007.1-.021.147-.027,2.131-.389,4.293-.68,6.461-.89C51.243,1.766,55.08,4.366,55.786,6.309Z" transform="translate(0 0)" style="fill: #ed6e6b"/>

</svg>
