<svg 
	xmlns="http://www.w3.org/2000/svg" 
	xmlns:xlink="http://www.w3.org/1999/xlink" 
	viewBox="0 0 168 32"
>
	<defs>
		<path id="116wa" d="M119.117 995.44l2.623 8.527h8.493l-6.87 5.27 2.624 8.528-6.87-5.272-6.87 5.272 2.623-8.528-6.87-5.27h8.493z"/>
		<path id="116wb" d="M153.594 995.44l2.624 8.527h8.493l-6.87 5.27 2.623 8.528-6.87-5.272-6.87 5.272 2.624-8.528-6.87-5.27h8.493z"/>
		<path id="116wc" d="M188.072 995.44l2.623 8.527h8.493l-6.87 5.27 2.624 8.528-6.87-5.272-6.87 5.272 2.623-8.528-6.87-5.27h8.493z"/>
		<path id="116wd" d="M221.684 995.44l2.624 8.527h8.493l-6.87 5.27 2.623 8.528-6.87-5.272-6.87 5.272 2.624-8.528-6.87-5.27h8.493z"/>
		<path id="116we" d="M255.297 995.44l2.623 8.527h8.493l-6.87 5.27 2.624 8.528-6.87-5.272-6.87 5.272 2.623-8.528-6.87-5.27h8.493z"/>
	</defs>
	<g>
		<g opacity=".6" transform="translate(-103 -990)">
			<use fill="#fff" fill-opacity="0" stroke="#a5a5a5" stroke-miterlimit="50" stroke-width="3" xlink:href="#116wa"/>
		</g>
		<g opacity=".6" transform="translate(-103 -990)">
			<use fill="#fff" fill-opacity="0" stroke="#a5a5a5" stroke-miterlimit="50" stroke-width="3" xlink:href="#116wb"/>
		</g>
		<g opacity=".6" transform="translate(-103 -990)">
			<use fill="#fff" fill-opacity="0" stroke="#a5a5a5" stroke-miterlimit="50" stroke-width="3" xlink:href="#116wc"/>
		</g>
		<g opacity=".6" transform="translate(-103 -990)">
			<use fill="#fff" fill-opacity="0" stroke="#a5a5a5" stroke-miterlimit="50" stroke-width="3" xlink:href="#116wd"/></g><g opacity=".6" transform="translate(-103 -990)">
			<use fill="#fff" fill-opacity="0" stroke="#a5a5a5" stroke-miterlimit="50" stroke-width="3" xlink:href="#116we"/>
		</g>
	</g>
</svg>