<svg 
	xmlns="http://www.w3.org/2000/svg" 
	viewBox="0 0 33 33"
>
	<g>
		<g>
			<path fill="#fff" d="M11.59 25.871l-4.924 2.686a4.424 4.424 0 0 0-.79.562 16.424 16.424 0 0 0 10.625 3.88c4.018 0 7.7-1.438 10.563-3.825a4.368 4.368 0 0 0-.868-.582l-5.273-2.636a2.01 2.01 0 0 1-1.111-1.798V22.09c.148-.17.318-.386.499-.642a12.131 12.131 0 0 0 1.639-3.302 1.656 1.656 0 0 0 1.174-1.576v-2.208c0-.485-.216-.92-.552-1.223V9.947s.656-4.967-6.07-4.967c-6.727 0-6.072 4.967-6.072 4.967v3.192a1.646 1.646 0 0 0-.551 1.223v2.208c0 .582.305 1.094.763 1.39.552 2.401 1.996 4.13 1.996 4.13v2.017c0 .735-.403 1.412-1.048 1.764z"/>
		</g>
		<g>
			<path fill="#a5a5a5" d="M16.783 0C7.67-.154.158 7.106.003 16.218c-.089 5.166 2.214 9.81 5.88 12.897.24-.21.497-.401.783-.557l4.923-2.685a2.011 2.011 0 0 0 1.048-1.766V22.09s-1.445-1.729-1.996-4.13a1.656 1.656 0 0 1-.764-1.39v-2.207c0-.486.216-.92.552-1.224V9.946S9.773 4.98 16.5 4.98c6.727 0 6.071 4.967 6.071 4.967v3.192c.336.304.552.738.552 1.224v2.208c0 .742-.498 1.366-1.175 1.575a12.131 12.131 0 0 1-1.639 3.303c-.18.256-.35.472-.498.641v2.068c0 .762.43 1.459 1.111 1.799l5.272 2.635c.317.159.602.358.866.58 3.555-2.964 5.852-7.398 5.938-12.39C33.154 7.669 25.895.156 16.783 0z"/>
		</g>
	</g>
</svg>