<?xml version="1.0" encoding="iso-8859-1"?><!DOCTYPE svg PUBLIC "-//W3C//DTD SVG 1.1//EN" "http://www.w3.org/Graphics/SVG/1.1/DTD/svg11.dtd"><svg xmlns="http://www.w3.org/2000/svg" xmlns:xlink="http://www.w3.org/1999/xlink"><symbol viewBox="0 0 60 60" id="address" xmlns="http://www.w3.org/2000/svg"><path d="M30 26c3.86 0 7-3.141 7-7s-3.14-7-7-7-7 3.141-7 7 3.14 7 7 7zm0-12c2.757 0 5 2.243 5 5s-2.243 5-5 5-5-2.243-5-5 2.243-5 5-5z"/><path d="M29.823 54.757L45.164 32.6c5.754-7.671 4.922-20.28-1.781-26.982C39.761 1.995 34.945 0 29.823 0s-9.938 1.995-13.56 5.617c-6.703 6.702-7.535 19.311-1.804 26.952l15.364 22.188zM17.677 7.031C20.922 3.787 25.235 2 29.823 2s8.901 1.787 12.146 5.031c6.05 6.049 6.795 17.437 1.573 24.399L29.823 51.243 16.082 31.4c-5.2-6.932-4.454-18.32 1.595-24.369z"/><path d="M42.117 43.007a1 1 0 0 0-.234 1.986C52.399 46.231 58 49.567 58 51.5c0 2.714-10.652 6.5-28 6.5S2 54.214 2 51.5c0-1.933 5.601-5.269 16.117-6.507a1 1 0 0 0-.234-1.986C7.354 44.247 0 47.739 0 51.5 0 55.724 10.305 60 30 60s30-4.276 30-8.5c0-3.761-7.354-7.253-17.883-8.493z"/></symbol><symbol viewBox="0 0 22 22" id="card" xmlns="http://www.w3.org/2000/svg"><defs><path id="ba" d="M1677.4 73.8c.94 0 1.72-.78 1.73-1.74a1.73 1.73 0 0 0-1.74-1.73c-.94 0-1.73.76-1.74 1.7 0 .97.76 1.75 1.72 1.76zm-9.66 0c.95 0 1.73-.78 1.74-1.74a1.72 1.72 0 0 0-1.74-1.73c-.95 0-1.73.76-1.74 1.7-.01.97.76 1.75 1.72 1.76zm11.4-4.85v-1.53h-10.99c-.24-.02-.43-.21-.42-.51l.05-.15.92-1.7h7.32c.62 0 1.2-.33 1.5-.89l3.63-6.62-1.32-.75-.98 1.78-2.72 4.96h-7.03l-.17-.39-3.08-6.52-.85-1.82h-2.83v1.53h1.85l3.58 7.57-1.36 2.47a1.74 1.74 0 0 0 1.52 2.56z"/></defs><use xlink:href="#ba" transform="translate(-1661 -53)"/></symbol><symbol viewBox="0 0 22 22" id="cart" xmlns="http://www.w3.org/2000/svg"><defs><path id="ca" d="M1677.4 73.8c.95 0 1.73-.78 1.74-1.74a1.72 1.72 0 0 0-1.74-1.73c-.95 0-1.73.76-1.74 1.71-.01.96.76 1.75 1.72 1.75zm-9.65 0c.94 0 1.73-.78 1.74-1.74a1.72 1.72 0 0 0-1.74-1.73c-.95 0-1.74.76-1.75 1.71 0 .96.77 1.75 1.73 1.75zm11.39-4.85v-1.53h-10.98c-.25-.02-.44-.21-.43-.51l.05-.15.93-1.7h7.31c.63 0 1.2-.33 1.5-.89l3.63-6.62-1.31-.75-.99 1.78-2.71 4.96h-7.03l-.17-.39-3.09-6.52-.85-1.82h-2.82v1.53h1.85l3.58 7.57-1.36 2.47a1.74 1.74 0 0 0 1.52 2.56z"/></defs><use xlink:href="#ca" transform="translate(-1661 -53)"/></symbol><symbol viewBox="0 0 224.512 224.512" id="close" xmlns="http://www.w3.org/2000/svg"><path d="M224.507 6.997L217.521 0 112.256 105.258 6.998 0 .005 6.997l105.258 105.257L.005 217.512l6.993 7L112.256 119.24l105.265 105.272 6.986-7-105.258-105.258z"/></symbol><symbol viewBox="0 0 59 59" id="del" xmlns="http://www.w3.org/2000/svg"><path d="M29.5 51a1 1 0 0 0 1-1V17a1 1 0 1 0-2 0v33a1 1 0 0 0 1 1zM19.5 51a1 1 0 0 0 1-1V17a1 1 0 1 0-2 0v33a1 1 0 0 0 1 1zM39.5 51a1 1 0 0 0 1-1V17a1 1 0 1 0-2 0v33a1 1 0 0 0 1 1z"/><path d="M52.5 6H38.456c-.11-1.25-.495-3.358-1.813-4.711C35.809.434 34.751 0 33.499 0H23.5c-1.252 0-2.31.434-3.144 1.289C19.038 2.642 18.653 4.75 18.543 6H6.5a1 1 0 1 0 0 2h2.041l1.915 46.021C10.493 55.743 11.565 59 15.364 59h28.272c3.799 0 4.871-3.257 4.907-4.958L50.459 8H52.5a1 1 0 1 0 0-2zM21.792 2.681C22.24 2.223 22.799 2 23.5 2h9.999c.701 0 1.26.223 1.708.681.805.823 1.128 2.271 1.24 3.319H20.553c.112-1.048.435-2.496 1.239-3.319zm24.752 51.298C46.538 54.288 46.4 57 43.636 57H15.364c-2.734 0-2.898-2.717-2.909-3.042L10.542 8h37.915l-1.913 45.979z"/></symbol><symbol viewBox="0 0 104 138" id="dilevery" xmlns="http://www.w3.org/2000/svg"><defs><path id="fa" d="M768.1 3220.2a.64.64 0 0 1 0-1.27h8.55c.37 0 .64.28.64.64 0 .35-.28.64-.64.64zm-41.24 53.78a4.88 4.88 0 0 1-4.36-2.69 4.98 4.98 0 0 1-.31-3.8l2.79-8.9a24.67 24.67 0 0 1 10.6-12.7l.75-.44v-.87c-.05-6.51-.47-13-1.24-19.27-3.3-28.26 8.79-41.06 12.57-44.3l.53-.46v-8.27c0-13.4 10.84-24.3 24.18-24.3a24.26 24.26 0 0 1 24.18 24.3v8.27l.52.45c3.78 3.25 15.86 16.03 12.58 44.32a159.18 159.18 0 0 0-1.27 19.26v.87l.75.44a24.42 24.42 0 0 1 10.6 12.67l2.84 8.94c.16.49.23.96.2 1.45 0 2.8-2.2 5.03-4.92 5.03zm73.97-13.57v12.26h17.05a3.62 3.62 0 0 0 3.4-4.87l-2.78-8.82a23.52 23.52 0 0 0-21.83-15.26h-2.16l.14 1.63c.2 2.31-.35 4.6-1.58 6.6a6.5 6.5 0 0 1-.83.93l-1.58 1.4 9.79 5.55c.06.04.13.09.17.14.09.08.1.1.12.15l.1.21v.08zm-55.6 12.26h54.33v-11.6h-54.34zm-8.17-26.18A23.52 23.52 0 0 0 726.2 3259l-2.8 8.86a3.82 3.82 0 0 0 .53 3.3c.68.94 1.78 1.5 2.94 1.5h17.05v-12.26c0-.07.01-.1.02-.12l.06-.14.11-.19.09-.06 9.87-5.6-1.6-1.4c-.29-.26-.59-.6-.83-.94a10.78 10.78 0 0 1-1.56-6.59l.14-1.63h-2.3c-3.58 0-7.17.87-10.4 2.52h-.03zm10 13.3h50.7l-12.89-7.3h-24.96zm32-17.24a3.67 3.67 0 0 0-1.74 3.12v5.51h7.71a.7.7 0 0 1 .34.1l3.42 1.92.59-.15a4.87 4.87 0 0 0 2.68-1.86l.05-.07.05-.08a10.1 10.1 0 0 0 1.2-6l-.15-1.32h-3.7a.65.65 0 0 1-.62-.48l-1.68-5.62zm-27.66 2.5c-.23 2.04.18 4.11 1.2 5.98l.05.08.05.08a4.68 4.68 0 0 0 2.73 1.84l.57.13 3.4-1.92a.8.8 0 0 1 .33-.08h7.71v-5.51c0-1.3-.68-2.5-1.77-3.14l-8.12-4.89-1.68 5.63a.66.66 0 0 1-.63.47h-3.69zm5.92-17.73l.06.45.04.22c.31 2.44.44 4.92.37 7.36l-.03.88 8.6 5.19a4.96 4.96 0 0 1 2.38 4.25v5.51h7.28v-5.5c0-1.76.9-3.35 2.4-4.27l8.58-5.18-.02-.88c-.08-2.44.05-4.92.36-7.35l.02-.15c.04-.23.07-.46.07-.7v-3.43l-2.51 2.33a80.26 80.26 0 0 1-4.14 3.61 13.35 13.35 0 0 1-16.82 0 81.42 81.42 0 0 1-4.14-3.61l-2.95-2.73zm-15.46-36.83c-3.6 6.38-7.45 17.58-5.45 34.67.72 6.35 1.14 12.2 1.24 17.42l.04 2.1 1.97-.72a24.2 24.2 0 0 1 8.44-1.52h6.7l1.62-5.44.01-.17c.21-2.94.13-5.88-.26-8.72-.29-2.43-.69-4.78-1.17-6.95l-.09-.4-.27-.29a16.86 16.86 0 0 1-4.28-9.69l-.18-1.93-1.82.67c-.08.02-.22.04-.37.05-.2 0-.4-.04-.63-.12-2.99-1.02-3.43-8.92-3.43-13.54a11.5 11.5 0 0 1 .64-4.19zm52.56 20.32a16.86 16.86 0 0 1-4.27 9.69l-.27.29-.09.4c-.5 2.19-.89 4.53-1.18 6.94a42.58 42.58 0 0 0-.26 8.7l.02.17 1.61 5.44h6.7c2.88 0 5.72.5 8.44 1.52l1.97.73.05-2.1c.12-5.74.54-11.6 1.24-17.42 1.94-16.73-1.82-27.9-5.31-34.31l-2.75 1.15c.4 1.33.58 2.63.54 3.87 0 4.67-.44 12.57-3.44 13.6-.23.07-.43.11-.62.12a3.33 3.33 0 0 1-.5-.1l-1.7-.47zm-44.86-26.5c0 .22-.03.42-.04.63l-.06.85v.07l.03.56c.02 1.3.22 2.7.6 4.1a52.4 52.4 0 0 1 1.58 18.8 24.2 24.2 0 0 0-.05 1.53c0 5.93 7.16 13 13.16 17.88a12.1 12.1 0 0 0 15.2 0c6-4.87 13.17-11.92 13.17-17.88 0-.5 0-1.04-.06-1.57a52.32 52.32 0 0 1 1.58-18.77c.37-1.3.58-2.7.6-4.14l.03-.27v-.07c0-.62-.02-1.2-.08-1.76l-.21-2.17-5.81 2.92a2.8 2.8 0 0 1-3.27-.6c-.5-.54-.97-.98-1.48-1.38a19.6 19.6 0 0 0-12.52-3.8c-4.19 0-8.18 1.3-11.55 3.77-.52.4-1.02.87-1.51 1.39a2.81 2.81 0 0 1-3.29.6l-5.9-2.97zm47.44 7.06c-.4.18-.72.37-1.03.6l-.42.34-.12.52a49.88 49.88 0 0 0-1.21 12.84l.01.45.27.37c.34.48.77.9 1.1 1.2l1.38 1.3.93-1.65c.5-.88 1.65-3.74 1.65-11.38.09-1.3-.1-2.56-.54-3.75l-.56-1.5zm-51.75 4.59c0 7.64 1.15 10.5 1.65 11.38l.93 1.64 1.38-1.28c.38-.36.74-.75 1.06-1.16l.3-.39.02-.5a50.9 50.9 0 0 0-1.26-12.82l-.12-.52-.42-.33c-.32-.25-.63-.42-.87-.56l-1.52-.84-.6 1.63a9 9 0 0 0-.55 3.75zm.32-10.94a31.4 31.4 0 0 0-3.02 4.28l2.51 1.62c.26-.37.58-.64.98-.83.25-.1.55-.16.88-.16h1.73l-.25-1.72c-.09-.57-.14-1.16-.16-1.85v-.12l-.03-.11v-4.26zm52.45 4.9c.23 0 .51.07.8.2.26.12.54.34.75.6l2.43-1.74a33.4 33.4 0 0 0-2.78-3.9l-2.09-2.53-.54 3.23a3.7 3.7 0 0 0-.04.66c-.02.56-.07 1.21-.14 1.82l-.2 1.76zm-25.62-22.45c-7.3.06-14.14 3.3-18.78 8.91a27.6 27.6 0 0 0-2.28 3.2l-.86 1.39 6.73 3.4.76-.88c.43-.48.95-.98 1.57-1.47a20.63 20.63 0 0 1 12.4-4.11h.92c4.52 0 8.82 1.42 12.43 4.12.58.47 1.12.97 1.6 1.5l.76.83 6.67-3.39-.84-1.38a25.18 25.18 0 0 0-2.32-3.24 24.43 24.43 0 0 0-18.76-8.88zm10.68-8.73c.35 0 .63.28.63.64v9.48l.78.46a26.5 26.5 0 0 1 7.62 6.2c.09.1.15.19.21.28l.25.35 2.68 3.46v-7.33a23 23 0 0 0-22.88-23 23 23 0 0 0-22.89 23v1.5h.03v5.45l2.62-3.02c.14-.15.27-.33.4-.52l.16-.22a26.45 26.45 0 0 1 7.58-6.15l.78-.43v-9.51c0-.36.28-.64.64-.64zm-10.7 7.45c2.76 0 5.48.45 8.08 1.34l1.98.67v-8.18h-20.12v8.18l1.98-.67a25.17 25.17 0 0 1 8.09-1.34zm-2.14 45.43a.64.64 0 0 1 0-1.28h4.28c.36 0 .64.29.64.64 0 .35-.28.64-.64.64zm-8.55-10.79a.64.64 0 0 1-.64-.64v-3.64h-3.63a.64.64 0 0 1 0-1.28h8.55c.23 0 .37.12.44.2.07.06.18.2.18.4 0 .4-.29.68-.64.68h-3.63v3.64c0 .36-.28.64-.63.64zm21.39 0a.64.64 0 0 1-.64-.64v-3.64h-3.63a.64.64 0 0 1-.63-.64c0-.35.28-.64.63-.64h8.55a.6.6 0 0 1 .44.2c.07.06.18.2.17.4 0 .4-.28.68-.63.68h-3.63v3.64c0 .36-.28.64-.63.64z"/><path id="fb" d="M800.95 3260.95zm0 0v18a21.46 21.46 0 0 0-.14 3.43l.03.36h-56.75a2.23 2.23 0 0 1-.06-.19l-.02-.6c0-.18-.03-.35-.06-.52v-20.4c0-.07.02-.11.02-.13l.06-.14.12-.19.08-.06 9.9-5.62h-.01a4.9 4.9 0 0 0 1.24-.75 4 4 0 0 0 .63-.38l.02-.02h.03l3.42-1.93c.07-.03.14-.04.22-.06h25.44c.1 0 .22.03.34.1l3.07 1.74c.1.08.21.16.33.23.74.41 1.4.93 2.2 1.21l9.5 5.41.18.14c.08.08.1.1.1.15l.1.22zm-53.86-.54h50.79l-12.92-7.35h-25zm52.58 1.28h-54.42v19.74h54.42z"/></defs><use xlink:href="#fa" transform="translate(-720 -3146)"/><use xlink:href="#fb" transform="translate(-720 -3146)"/></symbol><symbol viewBox="0 0 1792 1792" id="favorite" xmlns="http://www.w3.org/2000/svg"><path d="M1664 596q0-81-21.5-143t-55-98.5T1506 295t-94-31-98-8-112 25.5-110.5 64-86.5 72-60 61.5q-18 22-49 22t-49-22q-24-28-60-61.5t-86.5-72-110.5-64T478 256t-98 8-94 31-81.5 59.5-55 98.5T128 596q0 168 187 355l581 560 580-559q188-188 188-356zm128 0q0 221-229 450l-623 600q-18 18-44 18t-44-18l-624-602q-10-8-27.5-26T145 952.5 77 855 23.5 734 0 596q0-220 127-344t351-124q62 0 126.5 21.5t120 58T820 276t76 68q36-36 76-68t95.5-68.5 120-58T1314 128q224 0 351 124t127 344z"/></symbol><symbol viewBox="0 0 183 183" id="favorite-img" xmlns="http://www.w3.org/2000/svg"><defs><path id="ha" d="M1410.68 379.42v-1.49h102.64v1.49zM1378.69 430c-3.7 0-6.7-3-6.7-6.7v-32.94l20.81-32.7-8.8-85a20.57 20.57 0 0 1 20.44-22.66h115.11a20.57 20.57 0 0 1 20.44 22.67l-8.8 85 20.78 32.7.03 32.93c0 1.79-.7 3.47-1.96 4.73a6.66 6.66 0 0 1-4.74 1.97zm161.41-1.49h5.2c1.4 0 2.7-.54 3.69-1.53a5.15 5.15 0 0 0 1.52-3.68l-.03-31.98h-10.38v11.9h-1.49v-11.9h-10.41v11.9h-1.49v-11.9h-10.41v11.9h-1.49v-11.9h-10.41v11.9h-1.49v-11.9h-10.41v11.9h-1.5v-11.9h-10.4v11.9h-1.5v-11.9h-10.4v11.9h-1.5v-11.9h-10.4v11.9h-1.5v-11.9h-10.4v11.9h-1.5v-11.9H1433v11.9h-1.49v-11.9h-10.41v11.9h-1.49v-11.9h-10.41v11.9h-1.49v-11.9h-10.41v11.9h-1.49v-11.9h-10.41v11.9h-1.5v-11.9h-10.4v31.98c0 2.87 2.33 5.21 5.2 5.21h5.2v-5.95h1.5v5.95h10.41v-5.95h1.49v5.95h10.41v-5.95h1.49v5.95h10.41v-5.95h1.49v5.95h10.41v-5.95h1.49v5.95h10.41v-5.95h1.5v5.95h10.4v-5.95h1.5v5.95h10.4v-5.95h1.5v5.95h10.4v-5.95h1.5v5.95h10.4v-5.95h1.5v5.95h10.41v-5.95h1.49v5.95h10.41v-5.95h1.49v5.95h10.41v-5.95h1.49v5.95h10.41v-5.95h1.49zm-166-38.68h175.77l-19.85-31.24h-21.16v-1.48h20.9l8.75-84.6a19.08 19.08 0 0 0-18.96-21.02h-115.1a19.08 19.08 0 0 0-18.96 21.02l8.75 84.6h20.9v1.48h-21.16z"/><path id="hb" d="M1482.76 277.51h-2.24v-1.48h2.24zm-4.47 0h-2.24v-1.48h2.24zm-4.47 0h-2.24v-1.48h2.24zm-4.48 0h-2.23v-1.48h2.23zm-4.47 0h-2.24v-1.48h2.24zm-4.47 0h-2.24v-1.48h2.24zm-4.47 0h-2.24v-1.48h2.24zm-4.48 0h-2.23v-1.48h2.23zm-4.47 0h-2.24v-1.48h2.24zm-4.47 0h-1.84l-1.02 1.53-1.24-.83 1.24-1.85.62.41v-.74h2.24zm52.25 17.28l1.25-.83 1.24 1.86-.62.4.55.51-1.52 1.64-1.1-1 1.12-1.21zm-1.23-1.86l-1.24-1.85 1.24-.83 1.23 1.86zm-2.48-3.7l-1.25-1.86 1.25-.82 1.24 1.85zm-2.49-3.71l-1.24-1.86 1.24-.82 1.24 1.85zm-2.48-3.71l-1.24-1.85 1.24-.83 1.24 1.86zm-2.48-3.7l-.61-.93 1.24-.82.61.92zm-56.96 17.7l.6-.9 1.25.81-.29.44 1.12 1.2-1.1 1.01-1.51-1.64.55-.5zm3.1-1.94l-1.25-.82 1.24-1.86 1.24.83zm2.47-3.7l-1.24-.83 1.24-1.86 1.24.83zm2.48-3.72l-1.24-.82 1.24-1.85 1.24.82zm2.48-3.7l-1.24-.83 1.24-1.85 1.24.82zm24.97 49.86l.7-.75 1.1 1-.39.42c.27 0 .54.01.8.03l-.06 1.48c-.72-.03-1.45-.05-2.2-.05v-1.48h.77zm3.3-1.39l-1.1-1 1.52-1.64 1.1 1zm3.02-3.28l-1.1-1 1.52-1.65 1.1 1zm3.03-3.29l-1.1-1 1.51-1.64 1.1 1zm3.02-3.28l-1.1-1 1.51-1.65 1.1 1zm3.02-3.29l-1.1-1 1.51-1.64 1.1 1zm3.03-3.28l-1.1-1 1.5-1.65 1.1 1zm3.02-3.29l-1.1-1 1.5-1.64 1.1 1zm3.02-3.28l-1.1-1 1.51-1.65 1.1 1zm3.02-3.29l-1.1-1 1.51-1.64 1.1 1zm3.02-3.28l-1.1-1 1.52-1.65 1.1 1zm-32 31.95l-.69-.75 1.1-1 .7.75zm-2.2-2.39l-1.51-1.64 1.1-1 1.5 1.64zm-3.02-3.28l-1.51-1.65 1.1-1 1.5 1.64zm-3.02-3.29l-1.52-1.64 1.1-1 1.52 1.64zm-3.03-3.28l-1.51-1.65 1.1-1 1.51 1.64zm-3.02-3.29l-1.51-1.64 1.1-1 1.51 1.64zm-3.02-3.28l-1.51-1.64 1.1-1 1.51 1.63zm-3.02-3.29l-1.51-1.64 1.1-1 1.5 1.64zm-3.03-3.28l-1.5-1.65 1.1-1 1.5 1.64zm-3.02-3.29l-1.5-1.64 1.1-1 1.5 1.64zm-3.02-3.28l-1.51-1.64 1.1-1.01 1.5 1.64zm-5.8 68.09h-1.49c0-.03 0-.88.14-2.31l1.48.14a26.37 26.37 0 0 0-.12 2.17zm72.9-1.88a41.9 41.9 0 0 0-.25-2.18l1.47-.2c.1.77.2 1.53.26 2.26zm-72.5-2.48l-1.48-.21c.11-.74.24-1.5.4-2.24l1.45.29a44.5 44.5 0 0 0-.37 2.16zm71.88-1.87c-.13-.71-.29-1.44-.46-2.14l1.45-.35c.18.73.34 1.48.48 2.22zm-71.03-2.43l-1.44-.36c.18-.74.39-1.48.6-2.2l1.43.44c-.21.69-.4 1.4-.59 2.12zm70-1.83c-.2-.7-.44-1.4-.68-2.09l1.4-.5c.26.72.5 1.44.7 2.16zm-68.72-2.37l-1.4-.5c.26-.72.54-1.43.83-2.12l1.37.58c-.28.66-.55 1.35-.8 2.04zm67.25-1.77a37.6 37.6 0 0 0-.9-2l1.34-.64c.33.68.65 1.38.94 2.08zm-65.53-2.26l-1.34-.66c.35-.69.7-1.36 1.08-2l1.29.73c-.36.62-.7 1.27-1.03 1.93zm63.62-1.67c-.36-.64-.74-1.26-1.13-1.87l1.25-.8c.4.62.8 1.28 1.18 1.94zm-61.44-2.12l-1.25-.81c.42-.64.87-1.26 1.32-1.86l1.2.9c-.45.57-.87 1.17-1.27 1.77zm59.06-1.54c-.44-.58-.9-1.15-1.37-1.7l1.13-.96c.5.57.98 1.17 1.43 1.78zm-56.42-1.91l-1.12-.98a30.9 30.9 0 0 1 1.57-1.66l1.05 1.06c-.51.5-1.02 1.03-1.5 1.58zm53.57-1.38c-.5-.5-1.04-1-1.59-1.48l.97-1.12c.58.5 1.14 1.02 1.68 1.56zm-50.46-1.67l-.97-1.13c.58-.49 1.18-.96 1.8-1.41l.87 1.2c-.58.42-1.16.88-1.7 1.34zm47.17-1.17c-.58-.43-1.18-.85-1.79-1.23l.8-1.26c.64.41 1.27.85 1.88 1.3zm-43.66-1.39l-.79-1.26c.64-.4 1.3-.78 1.98-1.13l.7 1.3c-.64.35-1.28.71-1.9 1.1zm40-.95a31.5 31.5 0 0 0-1.96-.96l.62-1.36c.7.32 1.38.66 2.04 1.02zm-36.15-1.08l-.61-1.36c.69-.3 1.4-.6 2.11-.85l.52 1.4c-.69.24-1.37.52-2.02.8zm32.18-.72c-.67-.25-1.36-.49-2.07-.7l.44-1.42c.74.22 1.46.47 2.16.73zm-28.09-.79l-.42-1.42c.7-.21 1.45-.4 2.2-.58l.33 1.44c-.71.17-1.42.36-2.1.56zm23.9-.5c-.7-.16-1.41-.32-2.13-.45l.27-1.46c.75.14 1.5.3 2.22.48zm-19.64-.5l-.26-1.47c.73-.13 1.48-.24 2.24-.34l.2 1.48a42 42 0 0 0-2.18.33zm15.34-.3c-.7-.1-1.43-.17-2.18-.24l.12-1.48c.78.07 1.54.15 2.26.25zm-10.98-.26l-.12-1.48c.74-.06 1.49-.1 2.26-.13l.05 1.48c-.74.03-1.48.07-2.2.13z"/></defs><use xlink:href="#ha" transform="translate(-1370 -248)"/><use xlink:href="#hb" transform="translate(-1370 -248)"/></symbol><symbol viewBox="0 0 512.001 512.001" id="history-order" xmlns="http://www.w3.org/2000/svg"><path d="M423.243 108.24c-40.719-40.719-93.671-64.753-150.568-68.69l28.76-28.761L290.646 0l-48.12 48.12 48.12 48.12 10.789-10.789-30.726-30.726c115.169 7.597 206.549 103.699 206.549 220.758 0 122.002-99.256 221.258-221.258 221.258S34.742 397.486 34.742 275.483c0-4.907.163-9.869.483-14.745l-15.227-1.001a241.413 241.413 0 0 0-.516 15.746c0 63.176 24.602 122.571 69.275 167.243S192.824 512.001 256 512.001s122.571-24.602 167.243-69.275 69.275-104.067 69.275-167.243-24.602-122.572-69.275-167.243zM60.777 141.921a237.051 237.051 0 0 0-8.475 13.293l13.133 7.77a222.487 222.487 0 0 1 7.929-12.437l-12.587-8.626zM80.277 117.169a238.575 238.575 0 0 0-10.16 12.051l11.986 9.443a224.06 224.06 0 0 1 9.509-11.277l-11.335-10.217z"/><path d="M24.152 228.49a236.4 236.4 0 0 0-2.598 15.556l15.126 2.009a221.97 221.97 0 0 1 2.43-14.549l-14.958-3.016zM102.875 95.218a239.13 239.13 0 0 0-11.663 10.601l10.633 10.945a223.463 223.463 0 0 1 10.913-9.919l-9.883-11.627zM44.731 169.042a237.045 237.045 0 0 0-6.632 14.308l14.052 5.949a222.417 222.417 0 0 1 6.202-13.381l-13.622-6.876zM32.443 198.073a234.638 234.638 0 0 0-4.657 15.069l14.722 4.012a221.531 221.531 0 0 1 4.354-14.088l-14.419-4.993zM257.065 107.631c-92.26 0-167.319 75.059-167.319 167.319s75.059 167.32 167.319 167.32 167.319-75.059 167.319-167.319-75.059-167.32-167.319-167.32zm0 319.379c-83.845 0-152.06-68.214-152.06-152.06s68.215-152.06 152.06-152.06c83.846 0 152.06 68.214 152.06 152.06s-68.214 152.06-152.06 152.06z"/><path d="M248.369 140.69h15.259v15.259h-15.259zM248.369 392.975h15.259v15.259h-15.259zM122.226 266.833h15.259v15.259h-15.259zM374.512 266.833h15.259v15.259h-15.259zM263.63 268.762v-84.326h-15.259v90.647l47.503 47.503 10.79-10.79z"/></symbol><symbol viewBox="0 0 288 73" id="logo" xmlns="http://www.w3.org/2000/svg"><defs><path id="ja" d="M841.04 81.8c-2.45 2.4-5.7 3.59-9.7 3.59-4 0-7.25-1.15-9.64-3.5-2.42-2.23-3.6-5.22-3.6-8.98h5.12c0 5.47 2.72 8.2 8.12 8.2 2.61 0 4.6-.7 6.03-2.1 1.42-1.42 2.15-3.33 2.15-5.77 0-1.8-.53-3.29-1.59-4.4-1.16-1.22-3.58-2.67-7.15-4.38-3.78-1.78-6.46-3.5-8.05-5.14a8.9 8.9 0 0 1-2.55-6.35c0-2.7.96-4.97 2.88-6.78 2.02-1.98 4.77-2.93 8.18-2.93 3.31 0 6.03.82 8.18 2.53a8.74 8.74 0 0 1 3.31 7.15h-4.96c0-3.62-2.16-5.43-6.43-5.43-4.07 0-6.13 1.77-6.13 5.3 0 1.67.57 3.02 1.7 4.08 1.08 1.01 3.34 2.33 6.65 3.88 4.3 1.97 7.22 3.85 8.77 5.63 1.5 1.7 2.22 3.91 2.22 6.68 0 3.52-1.15 6.45-3.5 8.72zm39.35-10.76c0 4.18-1.26 7.6-3.8 10.2-2.66 2.77-6.23 4.15-10.77 4.15-4.57 0-8.15-1.38-10.8-4.15-2.55-2.6-3.8-6.02-3.8-10.2v-26.6h4.83v26.6c0 2.86.83 5.2 2.45 7 1.75 1.98 4.17 2.97 7.32 2.97 3.08 0 5.53-.99 7.32-2.96 1.62-1.81 2.42-4.15 2.42-7.01v-26.6h4.83zm43.09 14.61l-29.15-30.77V84.2h-4.7V43l29.15 30.7V44.41h4.7zm42.13-1.45h-5.07l-4.9-11.06h-17.99l-4.9 11.06h-5.06L946.63 43zm-11.8-15.14l-7.18-16.12-7.15 16.12zm49.82 16.6l-29.15-30.78V84.2h-4.7V43l29.15 30.7V44.41h4.7zm41.96-2.8a35.53 35.53 0 0 1-12.35 2.46c-6.33 0-11.5-1.8-15.57-5.46-4.3-3.85-6.42-9.02-6.42-15.5 0-6.36 1.99-11.49 6-15.34 3.97-3.85 9.3-5.76 15.99-5.76 3.21 0 7.32.99 12.35 3v5.3c-5.07-2.6-9.17-3.92-12.35-3.92-4.93 0-8.94 1.41-12.02 4.28-3.25 3.02-4.87 7.17-4.87 12.44 0 4.9 1.46 8.88 4.37 11.88 3.05 3.13 7.22 4.7 12.52 4.7 2.75 0 5.3-.46 7.72-1.34V67.29h-10v-4.45h14.63zm31.04 1.34h-21.83V44.44h21.83v4.25h-16.96v11.75h15.83v4.18h-15.83v15.27h16.96zm26.36 0h-18.35V44.44h4.87V79.9h13.48zm-186.43 23.5c0 1.55-.33 2.67-.96 3.33-.67.65-1.6.98-2.78.98-1.2 0-2.09-.33-2.69-.98-.6-.63-.93-1.62-.93-2.9l1.6-.2c.03.86.2 1.48.53 1.91.32.43.82.63 1.49.63.6 0 1.06-.14 1.35-.4.27-.26.47-.6.53-.95.07-.37.1-.8.1-1.35v-8.79h1.76zm15.6 4.08h-10v-12.8h9.67v1.55h-7.92v3.88h7.42v1.51h-7.42v4.35h8.25zm21.03-12.8l-3.71 12.8h-1.7l-2.9-10.07c-.17-.53-.24-.92-.3-1.18h-.04l-.36 1.51-2.85 9.74h-1.79l-3.57-12.8h1.79l2.08 8.4c.27 1.11.43 1.9.53 2.43v.2h.03c.27-1.12.44-1.91.6-2.37l2.52-8.66h2.15l1.92 6.48c.46 1.62.83 3.13 1.03 4.55h.03c.13-.7.33-1.65.63-2.8l2.12-8.23zm14.27 12.8h-10v-12.8h9.67v1.55h-7.91v3.88h7.41v1.51h-7.41v4.35h8.24zm13.38 0h-8.38v-12.8h1.76v11.29h6.62zm16.5 0h-2.22c-1.33-2-2.15-3.25-2.49-3.72a7.31 7.31 0 0 0-1.02-1.18c-.37-.3-.7-.53-1-.63a6.6 6.6 0 0 0-1.26-.1h-2.05v5.63h-1.75v-12.8h5.92c.8 0 1.5.07 2.03.17a3.21 3.21 0 0 1 2.42 1.8c.19.5.32 1 .32 1.55 0 .96-.32 1.75-.95 2.34-.63.56-1.6.95-2.82 1.08v.07a5.93 5.93 0 0 1 2.55 2.3zm-10.04-7.17h3.8c.77 0 1.4-.03 1.83-.17.46-.13.8-.36 1.1-.72.26-.36.4-.8.4-1.22 0-.6-.24-1.08-.67-1.48-.46-.43-1.2-.62-2.22-.62h-4.24zm24.88-5.63l-5.33 7.37v5.43h-1.8v-5.43l-5.16-7.37h2.18l2.92 4.31c.3.43.66 1.02 1.06 1.71.26-.46 1.62-2.47 4.07-6.02zm-105.6 7.93c-29.97-.46-67.33-.53-88.59-1.41 21.2-1.12 58.62-.8 88.6-1.19zm108.31-2.6c29.97.4 66.9.07 88.07 1.19-21.23.88-58.1.95-88.07 1.41z"/></defs><use xlink:href="#ja" transform="translate(-816 -41)"/></symbol><symbol viewBox="0 0 331.493 331.493" id="pay-method" xmlns="http://www.w3.org/2000/svg"><path d="M298.761 57.093l-101.2-54.8c-9.6-5.2-22.8-1.2-28 8.4l-59.2 110h-72c-9.2 0-16.4 7.2-16.4 16.4v178c0 9.2 7.2 16.4 16.4 16.4h230c9.2 0 16.4-7.2 16.4-16.4v-41.6h6.8c3.6 0 6.4-2.8 6.4-6.4v-47.6c0-3.6-2.8-6.4-6.4-6.4h-6.8v-46.8c0-7.6-5.6-14.4-12.8-16l35.2-65.2c5.2-10 1.6-22.4-8.4-28zm-72-24.4l-63.2 117.2h-18l67.6-124.4 13.6 7.2zm-45.6-16c2-3.6 6.8-5.2 10.4-3.2l10 5.6-70.4 130.8h-22l72-133.2zm-146.8 120c0-1.2 1.6-3.2 3.6-3.2h65.2l-8.8 16h-56.4c-1.2 0-2.4 0-3.6.4v-13.2zm237.2 178.4c0 2-1.6 3.6-3.6 3.6h-230c-2 0-3.6-1.6-3.6-3.6v-148.8c0-2 1.6-3.6 3.6-3.6H267.561c2 0 3.6 1.6 3.6 3.6v46.8h-24.4c-10.8 0-19.2 8.8-19.2 19.2v22c0 10.8 8.8 19.2 19.2 19.2h24.8v41.6zm12.8-89.2h.4v34.8h-38c-3.6 0-6.4-2.8-6.4-6.4v-22c0-3.6 2.8-6.4 6.4-6.4h37.6zm11.2-147.2l-38.4 71.2h-79.2l60-110.8 54.4 29.6c4 1.6 5.2 6.4 3.2 10z"/><path d="M271.161 72.693l-3.2-1.6c-8-4.4-18.8-1.2-23.2 6.8l-4 7.6c-2 4-2.8 8.8-1.2 13.2 1.2 4.4 4.4 8 8.4 10l3.2 1.6c2.4 1.2 5.2 2 8 2 6.4 0 12-3.6 15.2-8.8l4-7.6c4-8.4.8-18.8-7.2-23.2zm-4.4 17.2l-4 7.6c-1.2 2-4 2.8-6 1.6l-3.2-2c-.8-.4-1.6-1.6-2-2.4-.4-1.2-.4-2.4.4-3.2l4-7.6c.8-1.2 2.4-2.4 4-2.4.8 0 1.2 0 2 .4l3.2 1.6c1.6 1.6 2.4 4 1.6 6.4z"/></symbol><symbol viewBox="0 0 599.535 599.535" id="personal-data" xmlns="http://www.w3.org/2000/svg"><path d="M540.896 89.852H58.64C26.581 89.852.5 115.934.5 147.992v303.552c0 32.058 26.082 58.14 58.14 58.14h482.256c32.059 0 58.139-26.082 58.139-58.14V147.992c0-32.059-26.08-58.14-58.139-58.14zm15.299 361.692c0 8.449-6.85 15.3-15.299 15.3H58.64c-8.45 0-15.3-6.851-15.3-15.3V147.992c0-8.45 6.85-15.3 15.3-15.3h482.256c8.449 0 15.299 6.85 15.299 15.3v303.552z"/><path d="M540.896 510.184H58.64c-32.334 0-58.64-26.306-58.64-58.64V147.992c0-32.334 26.306-58.64 58.64-58.64h482.256c32.333 0 58.639 26.306 58.639 58.64v303.552c0 32.334-26.306 58.64-58.639 58.64zM58.64 90.352C26.857 90.352 1 116.209 1 147.992v303.552c0 31.782 25.857 57.64 57.64 57.64h482.256c31.782 0 57.639-25.857 57.639-57.64V147.992c0-31.783-25.856-57.64-57.639-57.64H58.64zm482.256 376.992H58.64c-8.712 0-15.8-7.088-15.8-15.8V147.992c0-8.712 7.088-15.8 15.8-15.8h482.256c8.712 0 15.799 7.088 15.799 15.8v303.552c0 8.712-7.087 15.8-15.799 15.8zM58.64 133.191c-8.161 0-14.8 6.639-14.8 14.8v303.552c0 8.16 6.639 14.8 14.8 14.8h482.256c8.16 0 14.799-6.64 14.799-14.8V147.992c0-8.161-6.639-14.8-14.799-14.8H58.64z"/><path d="M237.43 307.441a106.172 106.172 0 0 0-6.863-5.006 80.295 80.295 0 0 0 15.591-23.892c4.217-9.971 6.355-20.538 6.355-31.407s-2.138-21.436-6.355-31.407a80.33 80.33 0 0 0-17.267-25.624 80.33 80.33 0 0 0-25.624-17.267c-9.971-4.218-20.538-6.356-31.407-6.356s-21.437 2.139-31.407 6.356a80.326 80.326 0 0 0-25.623 17.267 80.32 80.32 0 0 0-17.267 25.624c-4.217 9.971-6.355 20.538-6.355 31.407 0 10.87 2.138 21.436 6.355 31.407a80.314 80.314 0 0 0 15.591 23.892 105.897 105.897 0 0 0-6.863 5.006c-18.235 14.457-31.35 34.815-36.927 57.324-4.097 16.535-.422 33.717 10.081 47.139a55.498 55.498 0 0 0 18.702 15.312 55.362 55.362 0 0 0 24.695 5.837h98.038a55.362 55.362 0 0 0 24.695-5.837 55.498 55.498 0 0 0 18.702-15.312c10.503-13.423 14.178-30.604 10.082-47.138-5.58-22.509-18.694-42.868-36.929-57.325zm-65.57-98.118c20.884 0 37.814 16.93 37.814 37.813 0 10.598-4.55 20.866-12.395 27.99-23.792 21.607-63.232 3.864-63.232-27.99-.001-20.884 16.929-37.813 37.813-37.813zm49.019 180.89h-98.038c-7.935 0-13.804-7.441-11.896-15.144 3.532-14.256 12.173-27.006 24.049-35.638 31.992-23.253 78.962-10.082 94.51 25.938a62.238 62.238 0 0 1 3.27 9.698c1.909 7.704-3.961 15.146-11.895 15.146z"/><path d="M220.879 433.553h-98.038a55.857 55.857 0 0 1-24.919-5.89 55.992 55.992 0 0 1-18.871-15.451c-10.599-13.544-14.307-30.882-10.172-47.566 5.604-22.616 18.78-43.07 37.102-57.596a106.979 106.979 0 0 1 6.408-4.701 80.849 80.849 0 0 1-15.286-23.61c-4.244-10.033-6.395-20.666-6.395-31.602 0-10.937 2.151-21.569 6.395-31.602a80.826 80.826 0 0 1 17.374-25.782 80.832 80.832 0 0 1 25.782-17.374c10.033-4.244 20.665-6.396 31.602-6.396s21.569 2.152 31.602 6.396a80.838 80.838 0 0 1 25.782 17.374 80.826 80.826 0 0 1 17.374 25.782c4.244 10.032 6.395 20.665 6.395 31.602 0 10.937-2.151 21.569-6.395 31.602a80.815 80.815 0 0 1-15.286 23.61 107.272 107.272 0 0 1 6.408 4.701c18.321 14.525 31.498 34.979 37.103 57.597 4.133 16.684.425 34.021-10.173 47.565a55.992 55.992 0 0 1-18.871 15.451 55.872 55.872 0 0 1-24.921 5.89zM171.86 166.982c-10.802 0-21.304 2.125-31.212 6.317a79.842 79.842 0 0 0-25.464 17.16 79.819 79.819 0 0 0-17.16 25.465c-4.191 9.908-6.316 20.41-6.316 31.212s2.125 21.304 6.316 31.212a79.871 79.871 0 0 0 15.495 23.744l.405.43-.491.328a106.573 106.573 0 0 0-6.831 4.982c-18.149 14.389-31.201 34.65-36.752 57.053-4.06 16.385-.419 33.41 9.989 46.71a54.98 54.98 0 0 0 18.532 15.173 54.85 54.85 0 0 0 24.471 5.784h98.038c8.465 0 16.927-2 24.471-5.784a54.99 54.99 0 0 0 18.532-15.173c10.408-13.301 14.049-30.326 9.99-46.709-5.552-22.403-18.604-42.665-36.753-57.054a106.438 106.438 0 0 0-6.831-4.982l-.491-.328.405-.43a79.871 79.871 0 0 0 15.495-23.744c4.191-9.909 6.316-20.41 6.316-31.212s-2.125-21.304-6.316-31.212a79.835 79.835 0 0 0-17.16-25.465 79.835 79.835 0 0 0-25.465-17.16c-9.909-4.191-20.411-6.317-31.213-6.317zm49.019 223.731h-98.038a12.686 12.686 0 0 1-10.052-4.9 12.606 12.606 0 0 1-2.329-10.863c3.566-14.395 12.175-27.152 24.24-35.922 10.544-7.664 23.128-11.716 36.39-11.716 25.837 0 48.946 14.861 58.873 37.86a62.888 62.888 0 0 1 3.296 9.776 12.609 12.609 0 0 1-2.329 10.865 12.684 12.684 0 0 1-10.051 4.9zm-49.788-62.401c-13.049 0-25.43 3.985-35.802 11.524-11.875 8.632-20.348 21.188-23.857 35.354a11.611 11.611 0 0 0 2.146 10.007 11.694 11.694 0 0 0 9.264 4.517h98.038c3.642 0 7.018-1.646 9.264-4.516a11.616 11.616 0 0 0 2.146-10.009 61.798 61.798 0 0 0-3.244-9.62c-9.77-22.633-32.518-37.257-57.955-37.257zm1.679-43.181c-9.848 0-19.711-3.852-27.061-10.567-7.843-7.167-12.163-16.907-12.163-27.428 0-10.234 3.985-19.855 11.221-27.092 7.236-7.236 16.858-11.222 27.092-11.222 21.126 0 38.314 17.188 38.314 38.313a38.387 38.387 0 0 1-12.559 28.36c-6.94 6.305-15.531 9.636-24.844 9.636zm-.91-75.308c-9.967 0-19.337 3.881-26.385 10.929-7.047 7.048-10.928 16.418-10.928 26.385 0 17.792 14.614 36.995 38.223 36.995 9.061 0 17.419-3.242 24.173-9.375a37.384 37.384 0 0 0 12.231-27.62c0-20.575-16.739-37.314-37.314-37.314zM496.848 388.508H340.707c-11.83 0-21.42 9.59-21.42 21.42s9.59 21.42 21.42 21.42h156.141c11.83 0 21.42-9.59 21.42-21.42s-9.59-21.42-21.42-21.42z"/><path d="M496.848 431.848H340.707c-12.087 0-21.92-9.833-21.92-21.92s9.833-21.92 21.92-21.92h156.141c12.087 0 21.92 9.833 21.92 21.92s-9.833 21.92-21.92 21.92zm-156.141-42.84c-11.535 0-20.92 9.385-20.92 20.92s9.385 20.92 20.92 20.92h156.141c11.535 0 20.92-9.385 20.92-20.92s-9.385-20.92-20.92-20.92H340.707zM496.848 277.43H340.707c-11.83 0-21.42 9.59-21.42 21.42s9.59 21.42 21.42 21.42h156.141c11.83 0 21.42-9.59 21.42-21.42s-9.59-21.42-21.42-21.42z"/><path d="M496.848 320.77H340.707c-12.087 0-21.92-9.833-21.92-21.92s9.833-21.92 21.92-21.92h156.141c12.087 0 21.92 9.833 21.92 21.92s-9.833 21.92-21.92 21.92zm-156.141-42.84c-11.535 0-20.92 9.385-20.92 20.92s9.385 20.92 20.92 20.92h156.141c11.535 0 20.92-9.385 20.92-20.92s-9.385-20.92-20.92-20.92H340.707zM496.848 166.352H340.707c-11.83 0-21.42 9.59-21.42 21.42s9.59 21.42 21.42 21.42h156.141c11.83 0 21.42-9.59 21.42-21.42s-9.59-21.42-21.42-21.42z"/><path d="M496.848 209.691H340.707c-12.087 0-21.92-9.833-21.92-21.92s9.833-21.92 21.92-21.92h156.141c12.087 0 21.92 9.833 21.92 21.92s-9.833 21.92-21.92 21.92zm-156.141-42.839c-11.535 0-20.92 9.385-20.92 20.92s9.385 20.92 20.92 20.92h156.141c11.535 0 20.92-9.385 20.92-20.92s-9.385-20.92-20.92-20.92H340.707z"/></symbol><symbol viewBox="0 0 104 103" id="quality" xmlns="http://www.w3.org/2000/svg"><defs><path id="ma" d="M1472.83 3283v-100h59.91l14.55 14.5v85.5zm1.29-1.29l1.5.02h70.39v-82.4h-15.07v-15.03h-56.82zm58.1-83.68h13.76l-13.75-13.72zm-11.4 61.37a.66.66 0 0 1-.66-.65c0-.36.3-.65.66-.65h12.91a.65.65 0 1 1 0 1.3zm-34.42-36.47a.65.65 0 0 1 0-1.3h47.33c.36 0 .67.3.68.67 0 .34-.3.63-.66.63zm0 12.87a.65.65 0 1 1 0-1.3h47.33c.36 0 .67.3.68.68 0 .33-.3.62-.66.62zm0-25.77a.65.65 0 0 1 0-1.3h23.66c.36 0 .66.3.66.65 0 .36-.3.65-.66.65z"/><path id="mb" d="M1559.85 3273.84l2.9-10.15h-3.15v-56.44a7.1 7.1 0 0 1 14.22 0v56.44h-3.17l2.93 10.15-6.87 4.55zm1.5-.55l5.37 3.56 5.33-3.56-2.75-9.6h-5.2zm5.36-71.83a5.8 5.8 0 0 0-5.8 5.79v55.15h11.6v-55.15a5.8 5.8 0 0 0-5.8-5.79z"/><path id="mc" d="M1495 3272.17l-4.96 1.66v-9.39l-.6-.45a9.22 9.22 0 0 1 5.55-16.62 9.22 9.22 0 0 1 5.56 16.61l-.6.45v9.4zm-3.65-.13l3.66-1.23.86.3 1.04.34h1.75l.02-1.5v-4.66l-1.8.36a9.4 9.4 0 0 1-3.72 0l-1.81-.37zm3.64-23.38a7.96 7.96 0 0 0-7.96 7.94 7.96 7.96 0 0 0 15.92 0 7.96 7.96 0 0 0-7.96-7.94zm0 8.6a.66.66 0 0 1-.65-.64.66.66 0 0 1 1.3 0c0 .36-.29.65-.65.65z"/></defs><use xlink:href="#ma" transform="translate(-1471 -3181)"/><use xlink:href="#mb" transform="translate(-1471 -3181)"/><use xlink:href="#mc" transform="translate(-1471 -3181)"/></symbol><symbol viewBox="0 0 451 451" id="search" xmlns="http://www.w3.org/2000/svg"><path d="M447.05 428l-109.6-109.6c29.4-33.8 47.2-77.9 47.2-126.1C384.65 86.2 298.35 0 192.35 0 86.25 0 .05 86.3.05 192.3s86.3 192.3 192.3 192.3c48.2 0 92.3-17.8 126.1-47.2L428.05 447c2.6 2.6 6.1 4 9.5 4s6.9-1.3 9.5-4c5.2-5.2 5.2-13.8 0-19zM26.95 192.3c0-91.2 74.2-165.3 165.3-165.3 91.2 0 165.3 74.2 165.3 165.3s-74.1 165.4-165.3 165.4c-91.1 0-165.3-74.2-165.3-165.4z"/></symbol><symbol viewBox="0 0 122 122" id="service" xmlns="http://www.w3.org/2000/svg"><defs><path id="oa" d="M1146.45 3287c-1.85 0-3.47-1.22-5.03-2.4-1.27-.99-2.53-1.9-3.7-2.08a3.57 3.57 0 0 0-.6-.05c-1.08 0-2.33.43-3.53.85l-.24.08c-1.31.45-2.67.9-3.94.9-.5 0-.93-.06-1.35-.2-1.74-.55-2.94-2.28-4-3.8-.87-1.28-1.78-2.6-2.92-3.17-.9-.46-2.1-.53-3.26-.53l-1.04.01-1 .01c-1.82 0-3.26-.17-4.37-.98-1.44-1.07-2.05-3.08-2.6-4.85-.49-1.6-.93-3.03-1.8-3.9-.87-.88-2.32-1.32-3.84-1.79l-.15-.04c-1.37-.42-2.77-.85-3.83-1.64l1.04-.76c.83.52 1.95.88 3.25 1.26 1.62.5 3.32 1.03 4.4 2.12 1.1 1.09 1.58 2.66 2.09 4.32l.03.1c.5 1.67 1.01 3.42 2.16 4.24.92.65 2.3.74 3.64.74h1.03l.97-.02c1.34 0 2.75.08 3.9.67 1.35.7 2.36 2.14 3.32 3.53 1.03 1.47 2.05 2.93 3.38 3.37.31.1.63.14 1 .14 1.02 0 2.19-.37 3.42-.76l.2-.07c1.52-.53 2.85-.96 4.15-.96.26 0 .51.01.76.05 1.53.25 2.9 1.3 4.22 2.3 1.4 1.06 2.85 2.15 4.3 2.15 1.43 0 2.88-1.1 4.28-2.15 1.42-1.08 2.73-2.08 4.23-2.3.24-.03.48-.05.73-.05 1.32 0 2.66.45 4.09.94l.18.06c1.2.4 2.43.83 3.49.83.38 0 .72-.06 1.03-.16 1.32-.45 2.4-2 3.35-3.37 1-1.47 2-2.84 3.34-3.53 1.14-.58 2.55-.66 3.9-.66h.96l1.01.02c1.34 0 2.71-.09 3.63-.75 1.08-.8 1.6-2.33 2.16-4.25.5-1.62 1.02-3.32 2.11-4.4 1.1-1.1 2.66-1.58 4.33-2.09l.32-.1c1.12-.35 2.18-.69 3-1.22l1 .74c-1.07.81-2.5 1.25-3.91 1.68-1.6.49-3.04.93-3.91 1.8-.88.88-1.32 2.32-1.79 3.84l-.05.16c-.55 1.82-1.13 3.7-2.56 4.75-1.11.82-2.56 1-4.38 1a106.41 106.41 0 0 1-2.05-.03c-1.17 0-2.37.07-3.28.55-1.1.55-2.01 1.87-2.9 3.15-1.05 1.52-2.24 3.25-3.98 3.8-.42.14-.86.2-1.35.2-1.28 0-2.63-.45-3.95-.9l-.1-.03c-1.24-.44-2.53-.9-3.66-.9-.22 0-.43.02-.63.05-1.14.18-2.38 1.11-3.59 2.02l-.22.16c-1.53 1.13-3.11 2.3-4.9 2.3zm-55.42-52.02c-.4-.79-1-1.59-1.58-2.37l-.16-.21c-1.13-1.54-2.3-3.12-2.3-4.9 0-1.85 1.22-3.47 2.4-5.03.98-1.27 1.9-2.53 2.07-3.7.2-1.28-.34-2.8-.84-4.27l-.04-.1c-.6-1.8-1.23-3.66-.7-5.3.56-1.73 2.29-2.93 3.81-3.99 1.27-.88 2.6-1.79 3.16-2.92.58-1.13.55-2.75.52-4.3v-.11c-.03-1.9-.05-3.87.98-5.27 1.07-1.44 3.07-2.05 4.84-2.6 1.6-.48 3.03-.92 3.91-1.8.87-.87 1.31-2.31 1.78-3.84.51-1.75 1.11-3.81 2.61-4.9 1.12-.83 2.56-1 4.4-1l.98.01 1.05.02c1.17 0 2.38-.07 3.28-.55 1.1-.55 2.01-1.88 2.9-3.15 1.05-1.52 2.25-3.25 3.98-3.8.42-.14.86-.21 1.35-.21 1.28 0 2.64.46 3.95.9l.1.04c1.32.46 2.6.89 3.7.89.2 0 .38-.02.55-.04 1.19-.19 2.43-1.12 3.63-2.02l.22-.16c1.53-1.13 3.11-2.3 4.9-2.3 1.75 0 3.3 1.08 5.01 2.39 1.28 1 2.54 1.9 3.71 2.09.19.02.37.04.56.04 1.15 0 2.51-.48 3.71-.9 1.36-.46 2.74-.93 4.05-.93.49 0 .93.07 1.34.2 1.74.56 2.94 2.29 4 3.81.88 1.27 1.79 2.6 2.92 3.16.9.47 2.1.54 3.26.54l1.05-.02h.98c1.83 0 3.27.16 4.38.98 1.46 1.04 2.05 2.97 2.62 4.83.5 1.6.93 3.05 1.81 3.92.87.88 2.31 1.32 3.83 1.78 1.76.51 3.82 1.12 4.92 2.62 1.03 1.4 1 3.37.98 5.27v.1c-.03 1.58-.06 3.22.53 4.34.56 1.1 1.87 2.01 3.15 2.9 1.52 1.05 3.25 2.25 3.8 3.98.54 1.64-.09 3.5-.7 5.3l-.03.1c-.55 1.55-1.03 3.04-.85 4.26.19 1.18 1.12 2.42 2.02 3.63l.16.21c1.13 1.53 2.3 3.12 2.3 4.9 0 1.85-1.22 3.46-2.4 5.02-.64.84-1.25 1.66-1.65 2.46l-1.24-.2c.46-1.05 1.2-2.03 1.93-2.99 1.06-1.4 2.15-2.85 2.15-4.3 0-1.43-1.1-2.88-2.15-4.28-1.02-1.35-2.07-2.73-2.3-4.24-.23-1.53.31-3.13.89-4.82.57-1.68 1.14-3.36.73-4.66-.45-1.36-2-2.44-3.37-3.39-1.47-1-2.84-2-3.53-3.34-.7-1.38-.68-3.15-.65-4.86.03-1.73.06-3.52-.74-4.64-.8-1.08-2.33-1.6-4.25-2.16-1.62-.5-3.32-1.02-4.4-2.11-1.1-1.1-1.58-2.67-2.09-4.33-.52-1.77-1.04-3.51-2.19-4.33-.92-.66-2.3-.75-3.64-.75a53.85 53.85 0 0 0-2 .02c-1.34 0-2.75-.08-3.9-.66-1.3-.68-2.24-2-3.24-3.42l-.09-.12c-.94-1.36-2.03-2.91-3.36-3.36-.3-.1-.64-.15-1.02-.15-1.06 0-2.3.42-3.5.83l-.12.04c-1.29.45-2.73.96-4.07.96-.27 0-.53-.02-.78-.06-1.55-.25-2.92-1.3-4.24-2.3-1.4-1.06-2.85-2.15-4.3-2.15-1.44 0-2.88 1.1-4.28 2.15-1.35 1.02-2.73 2.07-4.24 2.3-.23.04-.47.05-.73.05-1.3 0-2.65-.45-4.08-.94l-.17-.05c-1.2-.41-2.44-.83-3.5-.83-.38 0-.72.05-1.03.16-1.23.4-2.2 1.7-3.36 3.36-1.03 1.53-2 2.84-3.34 3.53-1.13.58-2.54.66-3.88.66a71.42 71.42 0 0 1-1.99-.02c-1.34 0-2.7.09-3.62.75-1.08.8-1.6 2.33-2.17 4.25-.5 1.62-1.02 3.32-2.1 4.4-1.1 1.1-2.67 1.58-4.34 2.1-1.76.52-3.5 1.04-4.33 2.18-.8 1.08-.76 2.8-.73 4.64.02 1.71.05 3.48-.65 4.87-.7 1.36-2.14 2.36-3.53 3.33-1.47 1.02-2.94 2.05-3.37 3.38-.43 1.25.1 2.83.67 4.5l.05.13c.57 1.62 1.15 3.28.9 4.85-.25 1.55-1.3 2.92-2.3 4.24-1.06 1.41-2.15 2.86-2.15 4.3s1.1 2.89 2.15 4.29c.77 1.01 1.5 1.97 1.94 2.99zm55.45 38.73a45.78 45.78 0 0 1-27.18-8.84l.74-.96a44.53 44.53 0 0 0 26.44 8.6c9.58 0 18.69-2.98 26.43-8.6l.74.96a45.77 45.77 0 0 1-27.17 8.84zm-45.97-41.72a46.26 46.26 0 0 1 45.97-50.7 46.26 46.26 0 0 1 46 50.7l-1.18-.14a45.07 45.07 0 0 0-44.8-49.38 45.07 45.07 0 0 0-44.8 49.38z"/></defs><use xlink:href="#oa" transform="translate(-1085 -3166)"/></symbol><symbol viewBox="0 0 513.32 513.32" id="user" xmlns="http://www.w3.org/2000/svg"><path d="M346.491 316.547c49.193-29.944 81.275-83.414 81.275-145.44C427.767 76.998 350.768 0 256.66 0S85.553 76.998 85.553 171.107c0 62.026 32.082 115.497 81.275 145.44C81.275 348.63 17.11 423.489 0 513.32h42.777c21.388-98.386 109.081-171.107 213.883-171.107s192.495 72.72 213.883 171.107h42.777c-17.11-91.97-81.275-166.829-166.829-196.773zM128.33 171.107c0-70.581 57.749-128.33 128.33-128.33s128.33 57.749 128.33 128.33-57.749 128.33-128.33 128.33-128.33-57.749-128.33-128.33z"/></symbol></svg>