<?xml version="1.0" encoding="utf-8"?><!DOCTYPE svg PUBLIC "-//W3C//DTD SVG 1.1//EN" "http://www.w3.org/Graphics/SVG/1.1/DTD/svg11.dtd"><svg xmlns="http://www.w3.org/2000/svg" xmlns:xlink="http://www.w3.org/1999/xlink"><symbol viewBox="0 0 57 57" id="box" xmlns="http://www.w3.org/2000/svg"><defs><path id="aaa" d="M984.39 1912.52a1.12 1.12 0 0 0-1.46-.7l-11.8 4.52c-.6.23-.9.9-.68 1.52.17.47.6.77 1.06.77.13 0 .27-.03.4-.08l11.8-4.51c.6-.23.9-.9.68-1.52z"/><path id="aab" d="M984.39 1907.72a1.12 1.12 0 0 0-1.46-.7l-9.33 3.58c-.6.22-.9.9-.67 1.51.16.48.6.77 1.06.77.13 0 .26-.02.4-.07l9.33-3.57c.58-.23.89-.9.67-1.52z"/><path id="aac" d="M984.39 1902.97a1.12 1.12 0 0 0-1.46-.7l-9.33 3.58c-.6.22-.9.9-.67 1.51.16.48.6.77 1.06.77.13 0 .26-.02.4-.07l9.33-3.57c.58-.23.89-.9.67-1.52z"/><path id="aad" d="M986.73 1915.4l-25.1 9.6v-31.18l25.1-9.6zm-26.23-23.65l-4.45-1.7 9.38-3.6c.45-.17.75-.61.75-1.1 0-.5-.3-.94-.75-1.11l-12.26-4.7a1.1 1.1 0 0 0-.78 0l-11.89 4.55-4.08-1.56 24.08-9.22 24.08 9.22zm-16.7-6.4l8.98-3.45 8.98 3.44-8.98 3.44zm7.84 5.52v12.58l-9.99-3.83v-12.58zm7.72 34.14zm-25.09-9.6v-31.2l5.11 1.96v14.27c0 .5.3.94.74 1.1l12.27 4.7a1.1 1.1 0 0 0 1.04-.14c.3-.22.48-.58.48-.96v-13.4l5.45 2.08v31.19zm53.99-33.99l-27.37-10.47a1.1 1.1 0 0 0-.78 0l-27.37 10.47a1.2 1.2 0 0 0-.74 1.1v33.7c0 .5.3.94.74 1.11l27.37 10.47a1.1 1.1 0 0 0 .78 0l27.37-10.47c.44-.17.74-.61.74-1.1v-33.7c0-.5-.3-.94-.74-1.1z"/></defs><use xlink:href="#aaa" transform="translate(-932 -1871)"/><use xlink:href="#aab" transform="translate(-932 -1871)"/><use xlink:href="#aac" transform="translate(-932 -1871)"/><use xlink:href="#aad" transform="translate(-932 -1871)"/></symbol><symbol viewBox="0 0 75 66" id="box2" xmlns="http://www.w3.org/2000/svg"><defs><path id="aba" d="M755.49 668.46c0 .51-.42.93-.94.93h-19.72a.93.93 0 0 1-.94-.93v-15.17c0-.52.42-.93.94-.93h12.99a.93.93 0 1 0 0-1.86h-13c-.17 0-.33.01-.5.04 1.05-5.6 5.15-9.52 10.18-9.52h.38c5.08 0 9.06 3.84 10 9.49l-2.11-.01a.93.93 0 1 0 0 1.86h1.82c.5 0 .9.41.9.93v15.17zm1.39-16.91c-.62-7.3-5.56-12.4-12-12.4h-.38c-6.46 0-11.6 5.35-12.23 12.72-.01.09-.24 1-.24 1.42v15.17a2.8 2.8 0 0 0 2.8 2.8h19.72a2.8 2.8 0 0 0 2.8-2.8v-15.17a2.8 2.8 0 0 0-.47-1.56v-.18z"/><path id="abb" d="M747.42 661.96a.93.93 0 0 0-.94.93 1.8 1.8 0 0 1-3.58 0v-4.04c0-.99.8-1.8 1.79-1.8a.93.93 0 1 0 0-1.85 3.66 3.66 0 0 0-3.66 3.65v4.04a3.66 3.66 0 0 0 7.32 0 .93.93 0 0 0-.93-.93z"/><path id="abc" d="M733.7 641.02c.52 0 .94-.42.94-.93v-20.96c0-.72.26-1.33.73-1.7.48-.39 1.13-.51 1.83-.36l28.5 6.34c2.15.48 5.65.43 7.8-.1l28.68-7.16c.55-.14 2.23-.56 2.2-1.8-.02-1.23-1.71-1.59-2.27-1.7l-28.42-5.93a22.74 22.74 0 0 0-7.8 0l-24.04 5.01a.93.93 0 1 0 .38 1.83l24.04-5.02c1.91-.4 5.13-.4 7.04 0l28.15 5.87-28.42 7.1c-1.87.46-5.05.5-6.94.08l-28.5-6.33a3.94 3.94 0 0 0-3.4.71 3.94 3.94 0 0 0-1.43 3.16v20.96c0 .51.42.93.93.93z"/><path id="abd" d="M805.88 619.4a.93.93 0 0 0-.93.93v36.91a4.3 4.3 0 0 1-2.97 3.88l-28.58 7.71c-1.85.5-4.96.5-6.79 0l-3.62-.98a.93.93 0 0 0-.49 1.8l3.62.98c1.08.3 2.47.44 3.87.44s2.8-.14 3.9-.44l28.57-7.72a6.12 6.12 0 0 0 4.35-5.67v-36.91a.93.93 0 0 0-.93-.93z"/></defs><use xlink:href="#aba" transform="translate(-732 -606)"/><use xlink:href="#abb" transform="translate(-732 -606)"/><use xlink:href="#abc" transform="translate(-732 -606)"/><use xlink:href="#abd" transform="translate(-732 -606)"/></symbol><symbol viewBox="0 0 61 72" id="callcenter" xmlns="http://www.w3.org/2000/svg"><defs><path id="aca" d="M1085.63 674.55a23 23 0 0 1-16.02-6.4.8.8 0 1 1 1.08-1.18 21.45 21.45 0 0 0 14.94 5.98c12.23 0 22-12.03 23.46-23.27a.8.8 0 1 1 1.58.2c-1.54 11.92-11.97 24.67-25.04 24.67z"/><path id="acb" d="M1091.53 660.9a.8.8 0 0 0-.8.8c0 1.22-1 2.22-2.22 2.22h-3.94a2.22 2.22 0 0 1 0-4.44h3.94a.8.8 0 1 0 0-1.6h-3.94a3.82 3.82 0 0 0-3.73 3.01c-14.68-.14-29.31-4.7-29.31-13.32 0-20.77 8.88-42.97 33.82-42.97a.8.8 0 1 0 0-1.6c-12.58 0-22.09 5.2-28.27 15.46-6.22 10.31-7.15 22.67-7.15 29.11 0 4.67 3.5 8.57 10.14 11.29 5.56 2.27 12.91 3.56 20.77 3.63a3.82 3.82 0 0 0 3.73 3.02h3.94c2.1 0 3.82-1.7 3.82-3.81a.8.8 0 0 0-.8-.8z"/><path id="acc" d="M1061.92 652.5a.8.8 0 0 1-.72-.45c-1.84-3.76-2.1-11.11.68-16.44 1.67-3.22 4.21-5.18 7.34-5.67 3.79-.6 5.8-3.92 7.58-6.84 1.2-1.98 2.33-3.84 3.9-4.7.57-.31 1.12-.4 1.62-.23.97.3 1.49 1.34 2.15 2.67 1.6 3.18 4 8 13.75 8.33l2.3.07c7.61.2 9.91.27 10.56 7.7a.8.8 0 1 1-1.6.14c-.51-6-1.48-6.04-9-6.24l-2.31-.07c-10.7-.37-13.58-6.13-15.13-9.22-.41-.82-.88-1.76-1.2-1.86-.07-.02-.2.02-.38.11-1.19.65-2.21 2.34-3.3 4.12-1.86 3.07-4.17 6.88-8.7 7.6-2.64.41-4.71 2.04-6.17 4.83-2.46 4.73-2.33 11.58-.66 15a.8.8 0 0 1-.71 1.15z"/></defs><use xlink:href="#aca" transform="translate(-1050 -603)"/><use xlink:href="#acb" transform="translate(-1050 -603)"/><use xlink:href="#acc" transform="translate(-1050 -603)"/></symbol><symbol viewBox="0 0 512 512" id="cart" xmlns="http://www.w3.org/2000/svg"><path d="M509.867 89.6c-2.133-2.133-4.267-4.267-8.533-4.267H96L85.333 29.867c0-4.267-6.4-8.533-10.667-8.533h-64C4.267 21.333 0 25.6 0 32s4.267 10.667 10.667 10.667h55.467l51.2 260.267c6.4 34.133 38.4 59.733 72.533 59.733H435.2c6.4 0 10.667-4.267 10.667-10.667 0-6.4-4.267-10.667-10.667-10.667H192c-17.067 0-34.133-8.533-42.667-23.467L460.8 275.2c4.267 0 8.533-4.267 8.533-8.533L512 96s0-4.267-2.133-6.4zM450.133 256l-311.467 40.533-38.4-192H486.4L450.133 256zM181.333 384C151.467 384 128 407.467 128 437.333c0 29.867 23.467 53.333 53.333 53.333 29.867 0 53.333-23.467 53.333-53.333C234.667 407.467 211.2 384 181.333 384zm0 85.333c-17.067 0-32-14.934-32-32s14.933-32 32-32 32 14.934 32 32-14.933 32-32 32zM394.667 384c-29.867 0-53.333 23.467-53.333 53.333 0 29.867 23.467 53.333 53.333 53.333 29.867 0 53.333-23.467 53.333-53.333S424.533 384 394.667 384zm0 85.333c-17.067 0-32-14.934-32-32s14.933-32 32-32 32 14.934 32 32-14.934 32-32 32z"/></symbol><symbol viewBox="0 0 512 512" id="close" xmlns="http://www.w3.org/2000/svg"><path d="M505.943 6.058c-8.077-8.077-21.172-8.077-29.249 0L6.058 476.693c-8.077 8.077-8.077 21.172 0 29.249A20.612 20.612 0 0 0 20.683 512a20.614 20.614 0 0 0 14.625-6.059L505.943 35.306c8.076-8.076 8.076-21.171 0-29.248z"/><path d="M505.942 476.694L35.306 6.059c-8.076-8.077-21.172-8.077-29.248 0-8.077 8.076-8.077 21.171 0 29.248l470.636 470.636a20.616 20.616 0 0 0 14.625 6.058 20.615 20.615 0 0 0 14.624-6.057c8.075-8.078 8.075-21.173-.001-29.25z"/></symbol><symbol viewBox="0 0 47.971 47.971" id="close--bold" xmlns="http://www.w3.org/2000/svg"><path d="M28.228 23.986L47.092 5.122a2.998 2.998 0 0 0 0-4.242 2.998 2.998 0 0 0-4.242 0L23.986 19.744 5.121.88a2.998 2.998 0 0 0-4.242 0 2.998 2.998 0 0 0 0 4.242l18.865 18.864L.879 42.85a2.998 2.998 0 1 0 4.242 4.241l18.865-18.864L42.85 47.091c.586.586 1.354.879 2.121.879s1.535-.293 2.121-.879a2.998 2.998 0 0 0 0-4.242L28.228 23.986z"/></symbol><symbol viewBox="0 0 77 58" id="delivery" xmlns="http://www.w3.org/2000/svg"><defs><path id="aga" d="M429.1 656.57c-1.28 0-2.54.35-3.63 1.02a.85.85 0 1 0 .89 1.44 5.24 5.24 0 1 1-2.5 4.48.85.85 0 0 0-.85-.85h-7.9a2.54 2.54 0 0 1-2.55-2.54v-25.06a.85.85 0 1 0-1.69 0v25.06c0 2.34 1.9 4.24 4.23 4.24h7.12a6.95 6.95 0 1 0 6.88-7.8z"/><path id="agb" d="M444.53 630.54l-29.43-.07a4.25 4.25 0 0 1-4.23-4.24v-8.5c0-2.33 1.9-4.22 4.23-4.22h31.54c2.33 0 4.23 1.9 4.23 4.23v4.43a.85.85 0 1 1-1.7 0v-4.43c0-1.4-1.13-2.54-2.53-2.54H415.1a2.54 2.54 0 0 0-2.54 2.54v8.5c0 1.4 1.14 2.54 2.55 2.54l29.43.07a.85.85 0 0 1 0 1.69z"/><path id="agc" d="M481.85 664.33h-3.08a.85.85 0 1 1 0-1.7h3.08a2.76 2.76 0 0 0 2.76-2.76v-11.36c0-1.84-.76-4.74-1.66-6.34l-9.27-16.44a5.98 5.98 0 0 0-4.64-2.72h-7.47a2.76 2.76 0 0 0-2.76 2.77v15.51a2.76 2.76 0 0 0 2.76 2.76h14.15a.85.85 0 1 1 0 1.7h-14.15c-2.46 0-4.46-2-4.46-4.46v-15.51c0-2.46 2-4.46 4.46-4.46h7.47c2.3 0 4.99 1.57 6.12 3.58l9.26 16.44a16.98 16.98 0 0 1 1.88 7.17v11.36c0 2.46-2 4.46-4.45 4.46z"/><path id="agd" d="M466.96 655.86c-1.4 0-2.76.39-3.94 1.11a.85.85 0 1 0 .88 1.45 5.83 5.83 0 1 1-2.78 4.98.85.85 0 0 0-.85-.85h-18.03a.85.85 0 1 0 0 1.7h17.23a7.54 7.54 0 0 0 15.02-.85 7.54 7.54 0 0 0-7.53-7.54z"/></defs><use xlink:href="#aga" transform="translate(-410 -613)"/><use xlink:href="#agb" transform="translate(-410 -613)"/><use xlink:href="#agc" transform="translate(-410 -613)"/><use xlink:href="#agd" transform="translate(-410 -613)"/></symbol><symbol viewBox="0 0 59 57" id="delivery2" xmlns="http://www.w3.org/2000/svg"><defs><path id="aha" d="M950.23 1095v-16.31l30.5-17.6v16.3zm28.37-11.28l-.56.33c-.18-.28-.42-.5-.7-.67-.73-.42-1.64-.38-2.57.11a6.33 6.33 0 0 0-2.95 4.14l-.43.26c-.2-.3-.44-.55-.76-.73-1.44-.84-3.54.2-4.78 2.34a6.3 6.3 0 0 0-.75 2.02l-5.85 3.37v-3.96l19.35-11.17zm-1.77 4.48a4.78 4.78 0 0 1-1.81 1.85c-.62.33-1.2.38-1.61.14-.42-.25-.67-.76-.7-1.46-.02-.79.22-1.68.7-2.5a4.78 4.78 0 0 1 1.82-1.86c.36-.19.7-.28 1-.28.23 0 .43.05.6.15.43.24.67.76.7 1.46.03.78-.22 1.67-.7 2.5zm-6.7 3.78c-.93 1.6-2.5 2.52-3.42 1.98-.93-.53-.93-2.35 0-3.96.75-1.3 1.91-2.14 2.82-2.14.22 0 .43.05.6.15.94.54.93 2.35 0 3.97zm-18.75 6.4c-.34-.2-.73-.29-1.15-.28v-1.96l8.03-4.64v3.96l-6.18 3.57a2.15 2.15 0 0 0-.7-.64zm-.5 4.83c-.93 1.6-2.5 2.52-3.43 1.98-.92-.53-.92-2.35 0-3.96a4.78 4.78 0 0 1 1.83-1.85c.35-.2.7-.29 1-.29.23 0 .43.05.6.16.93.53.93 2.34 0 3.96zm-5.01-.6l-6.76 3.85v-7.24l4.72-2.73a.5.5 0 0 0 .25-.43v-8.75l5.16-2.95v13.95a5.78 5.78 0 0 0-2.64 2.43c-.36.62-.6 1.26-.73 1.88zm-10.55 2.23v-1.07l2.8 1.68v1zm-11.33-7.88l2.8 1.68v1.28l-2.8-1.62zm16.75-7.75l2.34-1.34v7.9l-3.74 2.17zm-1.52 3.18l-.92 5.79-14.25-8.23.96-5.77zm.17-1.05l-14.21-8.2.36-2.18 14.2 8.2zm-4.32 9.03l-7.54-4.35a.5.5 0 0 0-.74.43v1.04l-2.8-1.69v-4.74l14.12 8.15v5.09l-2.8-1.69v-1.8a.5.5 0 0 0-.24-.44zm-.75 3.9l-6.54-3.78v-3.18l6.54 3.78zm.3-28.91l14.12 8.15-8.45 4.81-14.12-8.15zm.5-4.83l14.12 8.16v3.96l-14.12-8.15zm30.99-18.46l14.12 8.15-30.5 17.6-14.12-8.15zm15.36 7.72l-15.12-8.72a.5.5 0 0 0-.5 0l-31.48 18.17a.5.5 0 0 0-.24.43v4.82l-9.2 5.25a.5.5 0 0 0-.25.35L923 1090.2v8.39c0 .17.1.34.25.42l15.11 8.73a.5.5 0 0 0 .5 0l6.91-3.93c.05 1 .45 1.81 1.19 2.24.33.2.7.29 1.1.29 1.27 0 2.73-1 3.68-2.64.75-1.3 1-2.68.73-3.75l12.56-7.25c.07.94.47 1.71 1.18 2.12.34.2.71.29 1.1.29 1.28 0 2.73-1 3.68-2.64.58-1 .86-2.05.84-2.96.17.69.54 1.22 1.08 1.53.33.2.7.3 1.1.3.46 0 .96-.14 1.47-.4a5.78 5.78 0 0 0 2.21-2.24c.57-1 .87-2.07.83-3.04 0-.24-.04-.48-.09-.7l.92-.52a.5.5 0 0 0 .24-.43v-4.83l1.88-1.08a.5.5 0 0 0 .25-.43v-17.45a.5.5 0 0 0-.25-.43z"/></defs><use xlink:href="#aha" transform="translate(-923 -1051)"/></symbol><symbol viewBox="0 0 512 512" id="filter" xmlns="http://www.w3.org/2000/svg"><path d="M504.396 21.498H7.604A7.604 7.604 0 0 0 0 29.102v74.516c0 1.814.649 3.568 1.828 4.946l199.068 232.474v66.724a7.605 7.605 0 0 0 15.208 0v-61.931h79.793V431.9l-79.793 38.84v-37.631a7.605 7.605 0 0 0-15.208 0v49.79a7.605 7.605 0 0 0 10.933 6.838l95.001-46.243a7.603 7.603 0 0 0 4.275-6.837V341.04l199.068-232.474a7.603 7.603 0 0 0 1.828-4.946V29.102a7.606 7.606 0 0 0-7.605-7.604zm-7.604 74.516H377.299a7.605 7.605 0 0 0 0 15.208h110.575l-187.873 219.4H212L24.126 111.221h327.827a7.605 7.605 0 0 0 0-15.208H15.208V36.706h481.584v59.308z"/></symbol><symbol viewBox="0 0 971.986 971.986" id="filter-btn" xmlns="http://www.w3.org/2000/svg"><path d="M370.216 459.3c10.2 11.1 15.8 25.6 15.8 40.6v442c0 26.601 32.1 40.101 51.1 21.4l123.3-141.3c16.5-19.8 25.6-29.601 25.6-49.2V500c0-15 5.7-29.5 15.8-40.601L955.615 75.5c26.5-28.8 6.101-75.5-33.1-75.5h-873c-39.2 0-59.7 46.6-33.1 75.5l353.801 383.8z"/></symbol><symbol viewBox="0 0 57 53" id="graphic" xmlns="http://www.w3.org/2000/svg"><defs><path id="aka" d="M1352.17 1899.29c.28.37.68.61 1.13.64.45.06.88-.12 1.21-.44l5.11-5 9.51 13.26-5.7-1.17c-.85-.17-1.7.43-1.87 1.35-.16.93.4 1.83 1.27 2l9.49 1.94c.1.02.2.04.3.04.33 0 .66-.12.94-.33.35-.28.58-.7.65-1.17l1.24-10.21c.11-.94-.5-1.8-1.38-1.92-.86-.13-1.68.54-1.8 1.47l-.7 5.78-10.47-14.62a1.6 1.6 0 0 0-1.13-.66c-.45-.04-.89.12-1.22.44l-5.12 5.02-12.25-16.78a1.53 1.53 0 0 0-2.25-.3c-.7.59-.82 1.66-.27 2.4zm26.83 22.88c0 .94-.71 1.7-1.6 1.7h-46.35c-.88 0-1.6-.76-1.6-1.7v-2.85h-5.85c-.89 0-1.6-.77-1.6-1.71 0-.95.71-1.71 1.6-1.71h5.85v-6.56h-5.85c-.89 0-1.6-.76-1.6-1.7 0-.95.71-1.72 1.6-1.72h5.85v-6.55h-5.85c-.89 0-1.6-.76-1.6-1.7 0-.95.71-1.72 1.6-1.72h5.85v-6.55h-5.85c-.89 0-1.6-.77-1.6-1.71s.71-1.71 1.6-1.71h5.85v-6.56h-5.85c-.89 0-1.6-.76-1.6-1.7 0-.95.71-1.71 1.6-1.71h5.85v-3.42c0-.95.72-1.71 1.6-1.71.89 0 1.6.76 1.6 1.7v47.88h44.75c.89 0 1.6.77 1.6 1.7z"/></defs><use xlink:href="#aka" transform="translate(-1322 -1871)"/></symbol><symbol viewBox="0 0 68 72" id="gz" xmlns="http://www.w3.org/2000/svg"><defs><path id="ala" d="M1367.59 658.18a3.15 3.15 0 0 0 3.14 2.76c.13 0 .27 0 .4-.02l23.2-3.01a.81.81 0 0 0 .7-.92l-1.23-9.55c-.05-.39-.37-.74-.75-.7l-1.73.2 2.62-4.63 3.82 3.8-1.7.22a.82.82 0 0 0-.7.91l1.24 9.55c.06.41.4.71.81.71.24 0 7.52-.97 7.52-.97a2.22 2.22 0 0 0 1.93-2.5l-3.71-28.6a.82.82 0 0 0-1.62.21l3.71 28.6a.6.6 0 0 1-.12.44.6.6 0 0 1-.4.24l-6.6.85-1.03-7.93 2.21-.29c.4-.05.7-.29.83-.64a.97.97 0 0 0-.27-1.01l-5.3-5.27a1.06 1.06 0 0 0-.9-.31c-.32.04-.6.24-.77.54l-3.63 6.42c-.2.35-.2.74.01 1.04.18.27.48.42.81.42l.15-.01 2.06-.27 1.03 7.93-22.4 2.9a1.53 1.53 0 0 1-1.72-1.33l-3.48-26.83a1.53 1.53 0 0 1 1.33-1.72l28.42-3.7a.81.81 0 1 0-.2-1.61l-28.43 3.68a3.17 3.17 0 0 0-2.74 3.56z"/><path id="alb" d="M1407.85 661.25a.81.81 0 0 0-.92-.7l-39 5.24a.82.82 0 0 0-.7.91c.4 3.03-1.54 5.8-4.34 6.17a5.13 5.13 0 1 1 1.13-9.86c.12.05.34.08.49.06a.81.81 0 0 0 .7-.92l-6.7-49.84a10.76 10.76 0 0 0-17.44-6.9.82.82 0 0 0 1.03 1.27 9.1 9.1 0 0 1 14.8 5.85l6.53 48.59a6.55 6.55 0 0 0-2.12-.02 6.76 6.76 0 0 0 1.8 13.39c3.43-.46 5.9-3.6 5.8-7.19l38.24-5.14a.82.82 0 0 0 .7-.91z"/></defs><use xlink:href="#ala" transform="translate(-1340 -603)"/><use xlink:href="#alb" transform="translate(-1340 -603)"/></symbol><symbol viewBox="0 0 48 49" id="list" xmlns="http://www.w3.org/2000/svg"><defs><path id="ama" d="M942.23 818.58c0 .12-.1.22-.21.22h-5.43l5.64-5.64zm27.05-2.03c.64 0 1.16-.52 1.16-1.16v-3.66c0-1.4-1.14-2.53-2.54-2.53h-24.5c-.31 0-.6.12-.83.34l-9.6 9.6c-.21.21-.33.5-.33.82v34.7c0 1.4 1.13 2.54 2.53 2.54h32.73c1.4 0 2.53-1.14 2.53-2.53v-17.7a1.16 1.16 0 1 0-2.31 0v17.7c0 .12-.1.21-.22.21h-32.73a.22.22 0 0 1-.22-.21V821.1h7.07c1.4 0 2.53-1.13 2.53-2.53v-7.06h23.35c.12 0 .22.1.22.21v3.66c0 .64.52 1.16 1.16 1.16z"/><path id="amb" d="M976.56 822.52l-1.46 1.46-3.63-3.63 1.46-1.46a1.6 1.6 0 0 1 2.26 0l1.37 1.36a1.6 1.6 0 0 1 0 2.27zm-21.63 21.63l-3.63-3.63 18.53-18.53 3.63 3.63zm-5.63 2l.94-3.41 2.46 2.46zm28.9-27.54l-1.37-1.36a3.93 3.93 0 0 0-5.54 0l-10.82 10.82H941.7a1.16 1.16 0 0 0 0 2.32h16.45l-6.97 6.97h-9.48a1.16 1.16 0 0 0 0 2.32h7.16l-.02.02c-.14.14-.24.31-.3.5l-1.79 6.45h-5.05a1.16 1.16 0 0 0 0 2.32h5.93l.3-.04 7.3-2.03c.2-.05.38-.16.52-.3l8.23-8.23 14.21-14.21a3.92 3.92 0 0 0 0-5.55z"/></defs><use xlink:href="#ama" transform="translate(-932 -809)"/><use xlink:href="#amb" transform="translate(-932 -809)"/></symbol><symbol viewBox="0 0 512 512" id="location" xmlns="http://www.w3.org/2000/svg"><path d="M256 0C156.748 0 76 80.748 76 180c0 33.534 9.289 66.26 26.869 94.652l142.885 230.257A15 15 0 0 0 258.499 512h.119a14.997 14.997 0 0 0 12.75-7.292L410.611 272.22C427.221 244.428 436 212.539 436 180 436 80.748 355.252 0 256 0zm128.866 256.818L258.272 468.186l-129.905-209.34C113.734 235.214 105.8 207.95 105.8 180c0-82.71 67.49-150.2 150.2-150.2S406.1 97.29 406.1 180c0 27.121-7.411 53.688-21.234 76.818z"/><path d="M256 90c-49.626 0-90 40.374-90 90 0 49.309 39.717 90 90 90 50.903 0 90-41.233 90-90 0-49.626-40.374-90-90-90zm0 150.2c-33.257 0-60.2-27.033-60.2-60.2 0-33.084 27.116-60.2 60.2-60.2s60.1 27.116 60.1 60.2c0 32.683-26.316 60.2-60.1 60.2z"/></symbol><symbol viewBox="0 0 47 50" id="mail" xmlns="http://www.w3.org/2000/svg"><defs><path id="aoa" d="M601.19 830.07v1.86H577.1v-1.86zm0-5.55v1.85H577.1v-1.85zm0-5.56v1.85H577.1v-1.85zm-32.76 34.68l14.24-12.42-14.82-13v24.08c0 .52.23 1 .58 1.34zm41.43 0c.36-.34.58-.82.58-1.34v-24.08l-14.81 13 14.23 12.42zm-26.27-10.6l-12.96 11.1h37.04l-12.97-11.1zm-12.03-19.12l-2.78 2.45 2.78 2.47zm35.18 4.92l2.78-2.47-2.78-2.45zm-14.02-17.28l-3.57-3.15-3.57 3.15zm-9.88 0l6.3-5.56.18.15 6.14 5.4h7.58a3.7 3.7 0 0 1 3.7 3.7v6.23l5.56 4.89v25.94a3.7 3.7 0 0 1-3.71 3.69H569.7a3.7 3.7 0 0 1-3.71-3.7v-25.93l5.56-4.89v-6.22a3.7 3.7 0 0 1 3.7-3.7zm16.04 24.07l6-5.37v-14.98c0-1.04-.83-1.87-1.84-1.87h-27.78c-1.02 0-1.85.82-1.85 1.85v15.18l5.87 5.19zm-2.07 1.85zm0 0h-15.43l4.16 3.67 4.2.02-3.14.02h6.25l.04-.04h-.19z"/></defs><use xlink:href="#aoa" transform="translate(-566 -806)"/></symbol><symbol viewBox="0 0 62 56" id="manager" xmlns="http://www.w3.org/2000/svg"><defs><path id="apa" d="M1354.4 1097.86c.85 0 1.19.48 1.32.84h-2.65c.13-.36.47-.84 1.32-.84zm-3.5 2.07h6.98v3.34h-6.98zm8.21 3.95v-4.56a.61.61 0 0 0-.61-.62h-1.5a2.5 2.5 0 0 0-2.6-2.07 2.5 2.5 0 0 0-2.6 2.07h-1.51a.61.61 0 0 0-.61.62v4.56c0 .34.27.62.61.62h8.2c.35 0 .62-.28.62-.62zm-17.5-51.65a1.49 1.49 0 0 1 .1 0c.06 0 5.06-.14 7.95 3.85 1.71 2.34 1.86 5.54 1.69 7.8l-1.24-4.38a.61.61 0 0 0-.82-.4c-.02 0-2.6 1.02-7.6 1.02s-7.57-1.02-7.59-1.03a.61.61 0 0 0-.82.4l-1.24 4.4c-.17-2.26-.02-5.46 1.69-7.81 2.7-3.73 7.28-3.85 7.88-3.85zm-6.15 25.65a14.26 14.26 0 0 1-1.47-3.7.61.61 0 0 0-.34-.42l-.82-.37c-1.1-.5-1.97-2.63-1.85-4.55.08-1.36.73-1.44.85-1.44a.6.6 0 0 0 .33-.07l.02-.02c.13-.08.23-.2.27-.36l1.83-6.5c1.1.33 3.56.9 7.42.9 3.85 0 6.31-.57 7.4-.9l1.84 6.5c.08.28.33.46.62.45.06 0 .76.03.85 1.44.12 1.92-.74 4.05-1.85 4.55l-.81.37a.61.61 0 0 0-.35.47c-.06.4-.37 2.41-1.47 4.32-.16.24-2.58 3.7-6.23 3.7-3.73 0-6.22-4.32-6.24-4.37zm2.36 4.33a6.9 6.9 0 0 0 7.36.39l-1.7 1.74h-3.57zm7.64 4.68a.72.72 0 0 0-.03-.05l-.96-1.76 4.54-4.63 2.02 3.05-4 5.82-1.57-2.43zm-11.08-6.44l.08.08.06.08 4.4 4.48-.96 1.75a.6.6 0 0 0-.03.05l-1.57 2.43-4-5.82zm1.49 10.32c.11.17.32.26.51.27.2 0 .4-.11.5-.28l1.44-2.2.72 2.2-1.1 8.12-4.07-11.01zm9.2-2.22l1.43 2.2c.11.18.3.28.5.29.2 0 .4-.1.52-.27l2-2.91-4.06 11.02-1.11-8.12zm-23.75 6.93a.61.61 0 0 0-1.23 0v10.28h-7.67l4.11-14.6a5.63 5.63 0 0 1 3.89-3.89l10.8-3.02 6.42 17.36 1.52 4.15h-17.84zm17.52 5.85l1.44-10.54c0-.1 0-.19-.03-.27l-1.08-3.31.87-1.61h3.3l.88 1.6-1.08 3.32a.61.61 0 0 0-.03.27l1.45 10.53-1.65 4.44h-2.44zm24.46 4.43v-10.28a.61.61 0 0 0-1.23 0v10.28h-17.85l1.54-4.15 6.4-17.36 10.81 3.02c1.87.53 3.36 2.01 3.89 3.88l4.1 14.61h-7.66zm-19.96 1.23h28.44a.61.61 0 0 0 .59-.78l-4.33-15.39a6.87 6.87 0 0 0-4.74-4.73l-11.14-3.11-2.55-3.84a.61.61 0 0 0-.45-.27c.9-1.67 1.27-3.37 1.4-4.13l.5-.23c1.79-.81 2.71-3.56 2.58-5.74-.1-1.47-.76-2.17-1.38-2.44.36-1.82 1.13-7.22-1.6-10.97-3.21-4.42-8.52-4.37-8.96-4.36-.45 0-5.76-.05-8.97 4.36-2.73 3.75-1.96 9.15-1.6 10.97-.62.27-1.28.97-1.38 2.44-.13 2.18.8 4.93 2.58 5.74l.54.24c.18.7.6 2.1 1.44 3.6l.01.52h-.09a.61.61 0 0 0-.45.27l-2.55 3.84-11.14 3.11a6.87 6.87 0 0 0-4.74 4.73l-4.33 15.39a.61.61 0 0 0 .6.78h31.71z"/></defs><use xlink:href="#apa" transform="translate(-1311 -1051)"/></symbol><symbol viewBox="0 0 31.444 31.444" id="plus" xmlns="http://www.w3.org/2000/svg"><path d="M1.119 16.841a1.118 1.118 0 0 1-1.111-1.127c0-.619.492-1.111 1.111-1.111h13.475V1.127A1.133 1.133 0 0 1 15.722 0c.619 0 1.111.508 1.111 1.127v13.476h13.475c.619 0 1.127.492 1.127 1.111s-.508 1.127-1.127 1.127H16.833v13.476c0 .619-.492 1.127-1.111 1.127a1.131 1.131 0 0 1-1.127-1.127V16.841H1.119z"/></symbol><symbol viewBox="0 0 286.376 286.376" id="plus--bold" xmlns="http://www.w3.org/2000/svg"><path d="M268.477 125.29H161.086V17.899c0-9.885-8.013-17.898-17.898-17.898S125.29 8.014 125.29 17.899v107.39H17.9c-9.885 0-17.9 8.013-17.9 17.898s8.015 17.898 17.9 17.898h107.39v107.39c0 9.885 8.013 17.898 17.898 17.898s17.898-8.013 17.898-17.898v-107.39h107.391c9.885 0 17.898-8.014 17.898-17.898.001-9.884-8.013-17.897-17.898-17.897z" fill-rule="evenodd" clip-rule="evenodd"/></symbol><symbol viewBox="0 0 2133.335 405.785" id="rating" xmlns="http://www.w3.org/2000/svg"><path fill="#fac917" d="M320 258.969l25.173 146.816-131.84-69.316-131.848 69.316 25.182-146.816L0 154.995l147.409-21.419L213.333 0l65.916 133.576 147.418 21.419z"/><path fill="#fac917" d="M426.667 154.995l147.409-21.419L640 0l65.916 133.576 147.418 21.419-106.667 103.974 25.173 146.816L640 336.469l-131.848 69.316 25.182-146.816zM853.334 154.995l147.409-21.419L1066.667 0l65.916 133.576 147.418 21.419-106.667 103.974 25.173 146.816-131.84-69.316-131.848 69.316 25.182-146.816zM1600.001 258.969l25.173 146.816-131.84-69.316-131.848 69.316 25.182-146.816-106.667-103.974 147.409-21.419L1493.334 0l65.916 133.576 147.418 21.419z"/><path fill="#fac917" d="M1706.668 154.995l147.409-21.419L1920.001 0l65.916 133.576 147.418 21.419-106.667 103.974 25.173 146.816-131.84-69.316-131.848 69.316 25.182-146.816z"/></symbol><symbol viewBox="0 0 2133.335 405.785" id="rating--gray" xmlns="http://www.w3.org/2000/svg"><path fill-opacity=".118" d="M320 258.969l25.173 146.816-131.84-69.316-131.848 69.316 25.182-146.816L0 154.995l147.409-21.419L213.333 0l65.916 133.576 147.418 21.419z"/><path fill-opacity=".118" d="M426.667 154.995l147.409-21.419L640 0l65.916 133.576 147.418 21.419-106.667 103.974 25.173 146.816L640 336.469l-131.848 69.316 25.182-146.816zM853.334 154.995l147.409-21.419L1066.667 0l65.916 133.576 147.418 21.419-106.667 103.974 25.173 146.816-131.84-69.316-131.848 69.316 25.182-146.816zM1600.001 258.969l25.173 146.816-131.84-69.316-131.848 69.316 25.182-146.816-106.667-103.974 147.409-21.419L1493.334 0l65.916 133.576 147.418 21.419z"/><path fill-opacity=".118" d="M1706.668 154.995l147.409-21.419L1920.001 0l65.916 133.576 147.418 21.419-106.667 103.974 25.173 146.816-131.84-69.316-131.848 69.316 25.182-146.816z"/></symbol><symbol viewBox="0 0 56 56" id="rub" xmlns="http://www.w3.org/2000/svg"><defs><path id="aua" d="M597.4 1097.4a25.99 25.99 0 0 1-18.5 7.67 25.99 25.99 0 0 1-18.5-7.66 25.99 25.99 0 0 1-7.66-18.5c0-7 2.73-13.56 7.67-18.5a25.99 25.99 0 0 1 18.5-7.67c6.99 0 13.56 2.73 18.5 7.67a25.99 25.99 0 0 1 7.66 18.5c0 6.99-2.72 13.56-7.66 18.5zm1.24-38.22a27.72 27.72 0 0 0-19.73-8.18c-7.46 0-14.46 2.9-19.73 8.18a27.72 27.72 0 0 0-8.18 19.73c0 7.45 2.9 14.46 8.18 19.73a27.72 27.72 0 0 0 19.73 8.18c7.45 0 14.46-2.9 19.73-8.18a27.72 27.72 0 0 0 8.18-19.73c0-7.46-2.9-14.46-8.18-19.73z"/><path id="aub" d="M584.83 1078.7c-2.5 2.3-6.67 1.96-6.8 1.95h-5.23v-13.95h5.31c.05-.01 4.2-.36 6.72 1.94 1.28 1.17 1.93 2.87 1.93 5.03 0 2.17-.65 3.86-1.93 5.03zm-6.8-13.75h-6.96v15.7h-3.49v1.75h3.49v3.48h-3.49v1.75h3.49v5.23h1.74v-5.23h6.1v-1.75h-6.1v-3.49h5.16c.04 0 .34.03.8.03 1.53 0 4.88-.27 7.24-2.43 1.66-1.51 2.5-3.64 2.5-6.32 0-2.67-.84-4.8-2.5-6.31-3.08-2.82-7.84-2.42-7.96-2.4z"/></defs><g opacity=".9"><use xlink:href="#aua" opacity=".9" transform="translate(-551 -1051)"/><use xlink:href="#aub" opacity=".9" transform="translate(-551 -1051)"/></g></symbol><symbol viewBox="0 0 483.083 483.083" id="search" xmlns="http://www.w3.org/2000/svg"><path d="M332.74 315.35c30.883-33.433 50.15-78.2 50.15-127.5C382.89 84.433 298.74 0 195.04 0S7.19 84.433 7.19 187.85 91.34 375.7 195.04 375.7c42.217 0 81.033-13.883 112.483-37.4l139.683 139.683c3.4 3.4 7.65 5.1 11.9 5.1s8.783-1.7 11.9-5.1c6.517-6.517 6.517-17.283 0-24.083L332.74 315.35zM41.19 187.85C41.19 103.133 110.04 34 195.04 34c84.717 0 153.85 68.85 153.85 153.85S280.04 341.7 195.04 341.7 41.19 272.567 41.19 187.85z"/></symbol><symbol viewBox="0 0 56.966 56.966" id="search-bold" xmlns="http://www.w3.org/2000/svg"><path d="M55.146 51.887L41.588 37.786A22.926 22.926 0 0 0 46.984 23c0-12.682-10.318-23-23-23s-23 10.318-23 23 10.318 23 23 23c4.761 0 9.298-1.436 13.177-4.162l13.661 14.208c.571.593 1.339.92 2.162.92.779 0 1.518-.297 2.079-.837a3.004 3.004 0 0 0 .083-4.242zM23.984 6c9.374 0 17 7.626 17 17s-7.626 17-17 17-17-7.626-17-17 7.626-17 17-17z"/></symbol><symbol viewBox="0 0 16 16" id="social__instagram" xmlns="http://www.w3.org/2000/svg"><defs><path id="axa" d="M891 1969.53c0 .24-.25.47-.5.47h-11.23c-.24 0-.59-.23-.59-.47v-6.8h1.62c-.11.55-.17.81-.17 1.25a4.76 4.76 0 0 0 9.52 0c0-.44-.06-.7-.17-1.26H891zm-6.11-8.56a3 3 0 1 1 0 6.02 3 3 0 0 1 0-6.02zm5.58-2.73c.3 0 .53.24.53.54v1.72c0 .3-.24.54-.53.54h-1.73a.54.54 0 0 1-.54-.54v-1.72c0-.3.24-.54.54-.54zm.36-2.24h-11.92c-1.03 0-1.91.97-1.91 1.99v11.94c0 1.02.88 1.75 1.9 1.75h11.93c1.03 0 1.85-.73 1.85-1.75v-11.94c0-1.02-.82-1.99-1.85-1.99z"/></defs><use xlink:href="#axa" transform="translate(-877 -1956)"/></symbol><symbol viewBox="0 0 18 15" id="social__telegram" xmlns="http://www.w3.org/2000/svg"><defs><path id="aya" d="M981.54 1964.85l7.72-4.76c.14-.08.28.1.16.22l-6.37 5.92c-.23.2-.37.49-.41.79l-.22 1.6c-.03.22-.33.25-.39.04l-.83-2.94a.76.76 0 0 1 .34-.87zm-5.24-.7l3.95 1.48 1.53 4.92c.1.32.49.43.74.22l2.2-1.8a.66.66 0 0 1 .8-.01l3.98 2.88c.27.2.66.05.73-.28l2.9-14a.47.47 0 0 0-.62-.53l-16.21 6.26c-.4.15-.4.72 0 .87z"/></defs><use xlink:href="#aya" transform="translate(-976 -1957)"/></symbol><symbol viewBox="0 0 18 11" id="social__vk" xmlns="http://www.w3.org/2000/svg"><defs><path id="aza" d="M1043.13 1967.2c-.53-.65-1.16-1.2-1.75-1.77-.54-.52-.57-.82-.14-1.43.47-.65.97-1.28 1.45-1.94.44-.6.89-1.22 1.12-1.95.15-.46.02-.67-.46-.75a1.47 1.47 0 0 0-.25-.02h-2.83c-.35 0-.54.15-.67.46-.16.41-.33.83-.53 1.23-.45.92-.96 1.8-1.66 2.55-.16.17-.33.37-.59.29-.32-.12-.42-.66-.41-.84v-3.26c-.07-.47-.17-.68-.63-.77h-2.95c-.39 0-.58.15-.8.4-.12.14-.15.23.1.28.48.1.76.4.83.9.12.78.11 1.56.04 2.35-.02.23-.06.46-.15.67-.14.34-.37.4-.67.2a2.73 2.73 0 0 1-.65-.72c-.7-1-1.27-2.07-1.73-3.2-.13-.33-.36-.52-.7-.53h-2.55c-.52.01-.67.26-.46.72a31.63 31.63 0 0 0 3.3 5.88 8.21 8.21 0 0 0 2.5 2.35c1.17.66 2.41.86 3.73.8.62-.03.8-.19.83-.8.02-.42.07-.84.27-1.22.2-.37.51-.44.87-.2.18.1.33.26.47.41.34.38.68.77 1.04 1.14.45.46.98.73 1.66.67h2.6c.42-.03.64-.54.4-1-.17-.33-.4-.63-.63-.9z"/></defs><use xlink:href="#aza" transform="translate(-1026 -1959)"/></symbol><symbol viewBox="0 0 17 19" id="social__youtube" xmlns="http://www.w3.org/2000/svg"><defs><path id="baa" d="M941.11 1966.99a.42.42 0 0 0-.16-.34.6.6 0 0 0-.38-.13h-.05a.53.53 0 0 0-.36.14c-.1.09-.15.2-.15.33l-.02.6h1.1zm.86 2.07c.03.14.04.27.05.39 0 .36-.1.66-.33.88-.3.31-.65.48-1.04.5h-.1c-.35 0-.68-.13-1-.39-.34-.27-.51-.73-.51-1.38v-1.53c0-.46.05-.82.15-1.08.1-.26.26-.46.48-.61.18-.13.39-.2.62-.24.24-.03.47-.02.7.03.23.05.43.14.6.28.17.13.27.32.3.54.04.13.06.32.07.56l.01.74v.68h-1.98v1.19c0 .13.04.24.13.31.09.08.2.11.33.11h.18c.13 0 .24-.03.34-.11.1-.07.14-.18.14-.31v-.56h.86zm-4.47-8.31c.09.15.18.26.3.34.12.08.28.12.47.12.16 0 .3-.04.43-.12.11-.1.22-.22.34-.39l-.02.41h1.27v-5.09h-1v3.97c0 .1-.04.19-.13.26a.43.43 0 0 1-.3.11.41.41 0 0 1-.3-.1.36.36 0 0 1-.1-.27v-3.97h-1.08v3.98a1.9 1.9 0 0 0 .06.54l.06.21zm-.89 5.68c-.1.08-.15.17-.15.27v2.9c0 .1.05.18.15.26.1.07.22.1.36.1a.6.6 0 0 0 .35-.1c.1-.08.16-.17.16-.27v-2.9c0-.09-.05-.18-.16-.26a.57.57 0 0 0-.35-.12.58.58 0 0 0-.36.12zm1.74 2.95c0 .3-.05.58-.14.82a1 1 0 0 1-.4.51.8.8 0 0 1-.62.07 2.14 2.14 0 0 1-.83-.47l-.08.4-.95.03v-6.6h1.15v1.92c.36-.25.67-.38.95-.38a.8.8 0 0 1 .4.1c.35.2.52.55.52 1.04v2.56zm-3.73-12.19c0-.15.06-.27.16-.38.1-.1.22-.15.35-.15a.5.5 0 0 1 .36.15c.1.1.15.23.15.38v2.71c0 .14-.05.26-.15.36a.5.5 0 0 1-.72 0 .5.5 0 0 1-.15-.36zm-1.02 2.02c0 .46.03.8.07 1.03.07.24.16.42.26.56.1.17.25.3.46.36.22.08.47.13.74.13s.5-.05.72-.15c.17-.07.33-.2.48-.41.15-.24.23-.45.25-.64.05-.21.08-.55.08-1.03v-1.3c0-.35-.03-.63-.08-.84-.05-.2-.12-.36-.22-.51-.14-.21-.3-.36-.51-.44-.21-.1-.47-.15-.78-.15-.35 0-.63.08-.86.25-.22.13-.38.35-.49.66-.08.3-.12.68-.12 1.14zm1.05 11.58l-.95-.02.02-.61c-.06.11-.17.22-.31.33a1.87 1.87 0 0 1-1 .33.86.86 0 0 1-.47-.13.48.48 0 0 1-.24-.37l-.04-.43c-.02-.08-.03-.2-.02-.37l.02-.6-.03-3.06h1.15l.02 3.11-.01.5c-.01.13 0 .22.01.25.09.24.2.33.37.27.16-.07.26-.16.3-.3.03-.03.05-.1.04-.23v-3.6h1.14zm-3.6-9.53h1.21v-3.9l1.44-3.36h-1.33l-.76 2.5-.77-2.5h-1.33l1.53 3.35zm-1.71 9.53v-5.8h-1.2v-.85h3.71v.88h-1.37v5.77zm14.33-6.09c0-.32-.07-.63-.22-.92-.15-.3-.34-.55-.6-.77a3.01 3.01 0 0 0-1.93-.7h-11.19a2.88 2.88 0 0 0-2.51 1.47c-.15.29-.22.6-.22.92v5.48c0 .34.07.65.22.94.14.29.34.54.6.76a2.83 2.83 0 0 0 1.91.7h11.2a3 3 0 0 0 1.93-.7c.25-.22.44-.47.59-.76.14-.29.22-.6.22-.94v-5.48z"/></defs><use xlink:href="#baa" transform="translate(-927 -1954)"/></symbol><symbol viewBox="0 0 55 55" id="time" xmlns="http://www.w3.org/2000/svg"><defs><path id="bba" d="M545.94 1899.23a24.52 24.52 0 0 1 24.56-24.43 24.6 24.6 0 0 1 17.83 7.63h-1.25c-.81 0-1.47.66-1.47 1.46 0 .81.66 1.46 1.47 1.46h4.98c.81 0 1.47-.65 1.47-1.46v-4.95c0-.81-.66-1.46-1.47-1.46-.8 0-1.47.65-1.47 1.46v1.62a27.54 27.54 0 0 0-20.09-8.68 27.46 27.46 0 0 0-27.5 27.35c0 6.65 2.43 13.06 6.84 18.05a1.47 1.47 0 0 0 2.2-1.93 24.32 24.32 0 0 1-6.1-16.12z"/><path id="bbb" d="M596.25 1889.6a1.47 1.47 0 0 0-2.75 1.03 24.22 24.22 0 0 1 1.56 8.6 24.52 24.52 0 0 1-24.56 24.42c-3.92 0-7.81-.94-11.27-2.72l1.33-.46a1.46 1.46 0 1 0-.98-2.76l-4.7 1.66a1.46 1.46 0 0 0-.89 1.86l1.66 4.67a1.47 1.47 0 0 0 2.77-.97l-.49-1.37a27.7 27.7 0 0 0 12.57 3.01 27.46 27.46 0 0 0 27.5-27.34c0-3.32-.59-6.56-1.75-9.63z"/><path id="bbc" d="M584.4 1900.49h1.19a15.14 15.14 0 0 1-13.62 13.54v-1.19a1.47 1.47 0 0 0-2.94 0v1.2a15.14 15.14 0 0 1-13.62-13.55h1.2c.8 0 1.47-.66 1.47-1.46 0-.81-.66-1.46-1.47-1.46h-1.2a15.14 15.14 0 0 1 13.62-13.55v1.19c0 .8.66 1.46 1.47 1.46.81 0 1.47-.65 1.47-1.46v-1.19c7.19.7 12.92 6.4 13.62 13.55h-1.2c-.8 0-1.47.65-1.47 1.46 0 .8.66 1.46 1.47 1.46zm-13.9-19.46c-9.98 0-18.1 8.07-18.1 18 0 9.92 8.12 18 18.1 18 9.98 0 18.1-8.08 18.1-18 0-9.93-8.12-18-18.1-18z"/><path id="bbd" d="M577.1 1899.03h-5.12v-7.92a1.47 1.47 0 0 0-2.94 0v9.39c0 .8.66 1.46 1.47 1.46h6.6c.82 0 1.48-.66 1.48-1.46 0-.81-.66-1.47-1.47-1.47z"/></defs><use xlink:href="#bba" transform="translate(-543 -1872)"/><use xlink:href="#bbb" transform="translate(-543 -1872)"/><use xlink:href="#bbc" transform="translate(-543 -1872)"/><use xlink:href="#bbd" transform="translate(-543 -1872)"/></symbol><symbol viewBox="0 0 53 52" id="upload" xmlns="http://www.w3.org/2000/svg"><defs><path id="bca" d="M1342.11 844.47h-48.53V817.6a2.6 2.6 0 0 1 2.6-2.6h10.18a13 13 0 1 0 22.98 0h10.17a2.6 2.6 0 0 1 2.6 2.6zm0 4.33a2.6 2.6 0 0 1-2.6 2.6h-43.33a2.6 2.6 0 0 1-2.6-2.6v-2.6h48.53v2.6zm-30.33 6.07v-1.73h12.13v1.73zm17.33 1.73c.96 0 1.74.78 1.74 1.74h-26c0-.96.77-1.73 1.73-1.74zm-11.26-46.8a11.27 11.27 0 1 1 0 22.54 11.27 11.27 0 0 1 0-22.54zm21.66 3.47h-11.29a12.95 12.95 0 0 0-20.75 0h-11.29a4.34 4.34 0 0 0-4.33 4.33v31.2c0 2.4 1.94 4.33 4.33 4.34h13.87v1.73h-3.47a3.47 3.47 0 0 0-3.47 3.47v.86a.87.87 0 0 0 .87.87h27.73a.87.87 0 0 0 .87-.87v-.86a3.47 3.47 0 0 0-3.47-3.47h-3.46v-1.73h13.86c2.4 0 4.33-1.94 4.34-4.34v-31.2c0-2.39-1.94-4.33-4.34-4.33z"/><path id="bcb" d="M1337.78 840.14c0 .48-.39.86-.87.86h-16.46v-3.46h16.46c.48 0 .87.39.87.86v1.74zm-19.07.86h-2.24l2.24-2.24zm-6.57 0l3.47-3.46h1.88l-3.47 3.46zm-4.33 0l3.46-3.46h1.89l-3.47 3.46zm-4.34 0l3.47-3.46h1.88l-3.46 3.46zm-4.33 0l3.47-3.46h1.88l-3.47 3.46zm-1.23-1.22v-1.38c0-.47.4-.86.87-.86h1.38zm39-3.98h-38.13a2.6 2.6 0 0 0-2.6 2.6v1.74a2.6 2.6 0 0 0 2.6 2.6h38.13a2.6 2.6 0 0 0 2.6-2.6v-1.74a2.6 2.6 0 0 0-2.6-2.6z"/><path id="bcc" d="M1317.85 813.27a7.8 7.8 0 1 1 0 15.6 7.8 7.8 0 0 1 0-15.6zm0 17.33a9.53 9.53 0 1 0 0-19.06 9.53 9.53 0 0 0 0 19.06z"/><path id="bcd" d="M1320.7 826.02a.87.87 0 1 0 1.23-1.23l-3.22-3.21v-5.7a.87.87 0 1 0-1.73 0v6.06c0 .23.1.45.25.61z"/></defs><use xlink:href="#bca" transform="translate(-1291 -808)"/><use xlink:href="#bcb" transform="translate(-1291 -808)"/><use xlink:href="#bcc" transform="translate(-1291 -808)"/><use xlink:href="#bcd" transform="translate(-1291 -808)"/></symbol></svg>