<svg width="137" height="167" viewBox="0 0 137 167" fill="none" xmlns="http://www.w3.org/2000/svg"><path d="M7.214 17.315l-.496-.868a1 1 0 0 0-.426 1.255l.922-.387zm12.051 28.737l-.922.387a1 1 0 0 0 1.359.513l-.437-.9zm80.34 13.905l.038 1a1 1 0 0 0 .962-1h-1zm-24.411.927l.033 1h.005l-.038-1zm60.255 90.846l.453.891a.998.998 0 0 0 .547-.891h-1zm-35.844-24.102l.305.952a.999.999 0 0 0 .695-.952h-1zM75.194 88.694l-.025-1h-.013l.038 1zm24.411-.618h1a1 1 0 0 0-1.025-1l.025 1zm36.844-28.428c0-21.724-7.361-36.494-19.671-45.796C104.519 4.589 87.503.865 68.396.865v2c18.9 0 35.411 3.692 47.176 12.583 11.715 8.851 18.877 22.973 18.877 44.2h2zM68.396.865c-23.958 0-44.215 5.603-61.678 15.582l.992 1.736C24.855 8.386 44.768 2.865 68.396 2.865v-2zM6.292 17.702l12.05 28.737 1.845-.774-12.05-28.737-1.845.774zm13.41 29.25c10.692-5.194 26.612-10.097 46.222-10.097v-2c-19.942 0-36.158 4.985-47.096 10.298l.874 1.799zm46.222-10.097c10.165 0 18.393 1.085 24.05 3.839 2.81 1.368 4.953 3.132 6.398 5.353 1.443 2.217 2.233 4.956 2.233 8.348h2c0-3.715-.87-6.847-2.556-9.439-1.684-2.588-4.138-4.57-7.199-6.06-6.085-2.963-14.697-4.041-24.926-4.041v2zm32.681 17.54v5.562h2v-5.562h-2zm.962 4.563l-24.41.927.075 1.998 24.411-.927-.076-1.998zm-24.406.927c-23.264.775-41.933 5.35-54.817 13.678C7.406 81.925.343 94.053.343 109.706h2c0-14.937 6.687-26.449 19.087-34.463 12.455-8.05 30.711-12.59 53.797-13.36l-.066-1.998zM.343 109.706v1.854h2v-1.854h-2zm0 1.854c0 18.884 8.44 32.699 21.241 41.759 12.765 9.034 29.824 13.316 47.121 13.316v-2c-17.002 0-33.624-4.215-45.965-12.949-12.305-8.708-20.397-21.93-20.397-40.126h-2zm68.362 55.075c24.829 0 48.788-4.653 67.197-14.014l-.906-1.782c-18.053 9.179-41.68 13.796-66.291 13.796v2zm67.744-14.905V59.648h-2v92.082h2zM99.3 126.676c-7.608 2.434-16.772 3.969-29.977 3.969v2c13.369 0 22.745-1.555 30.587-4.065l-.61-1.904zm-29.977 3.969c-8.878 0-16.717-1.458-22.3-4.585-5.525-3.094-8.836-7.806-8.836-14.5h-2c0 7.52 3.796 12.85 9.859 16.245 6.004 3.363 14.233 4.84 23.277 4.84v-2zM38.187 111.56v-1.854h-2v1.854h2zm0-1.854c0-3.224.803-5.985 2.343-8.342 1.544-2.363 3.865-4.374 6.977-6.032 6.25-3.331 15.57-5.177 27.725-5.639l-.076-1.998c-12.256.465-21.94 2.327-28.59 5.872-3.338 1.779-5.943 3.998-7.71 6.703-1.773 2.713-2.669 5.862-2.669 9.436h2zm37.032-20.012l24.411-.618-.05-2-24.411.618.05 2zm23.386-1.618v39.552h2V88.076h-2z"/></svg>