<svg width="112" height="223" viewBox="0 0 112 223" fill="none" xmlns="http://www.w3.org/2000/svg"><path d="M1.832 222h-1a1 1 0 0 0 1 1v-1zm35.535 0v1a1 1 0 0 0 1-1h-1zm0-120.51v-1a1 1 0 0 0-1 1h1zm57.165 0v1a1 1 0 0 0 1-1h-1zm0-33.99h1a1 1 0 0 0-1-1v1zm-57.165 0h-1a1 1 0 0 0 1 1v-1zm60.255-19.776l-.596.803a1 1 0 0 0 1.52-.419l-.924-.384zM110.6 16.515l.923.384a1 1 0 0 0-.343-1.199l-.58.815zM1.832 223h35.535v-2H1.832v2zm36.535-1V101.49h-2V222h2zm-1-119.51h57.165v-2H37.367v2zm58.165-1V67.5h-2v33.99h2zm-1-34.99H37.367v2h57.165v-2zm-56.165 1v-8.652h-2V67.5h2zm0-8.652c0-8.817 2.129-14.455 5.648-17.903 3.522-3.45 8.624-4.89 14.982-4.89v-2c-6.62 0-12.333 1.496-16.382 5.461-4.05 3.969-6.248 10.227-6.248 19.332h2zm20.63-22.793c15.52 0 28.601 5.477 38.03 12.472l1.19-1.606c-9.729-7.219-23.221-12.866-39.22-12.866v2zm39.548 12.053l12.978-31.209-1.846-.768L96.699 47.34l1.846.768zM111.18 15.7C97.09 5.681 79.58.065 58.997.065v2c20.205 0 37.302 5.508 51.023 15.265l1.16-1.63zM58.997.065C42.485.065 27.913 3.88 17.464 13.26 6.994 22.66.832 37.492.832 59.157h2c0-21.286 6.043-35.499 15.968-44.408C28.745 5.82 42.755 2.065 58.997 2.065v-2zM.832 59.157V222h2V59.157h-2z"/></svg>