<svg width="46" height="221" viewBox="0 0 46 221" fill="none" xmlns="http://www.w3.org/2000/svg"><path d="M5.394 220h-1a1 1 0 0 0 1 1v-1zm35.535 0v1a1 1 0 0 0 1-1h-1zm0-154.5h1a1 1 0 0 0-1-1v1zm-35.535 0v-1a1 1 0 0 0-1 1h1zm0 155.5h35.535v-2H5.394v2zm36.535-1V65.5h-2V220h2zm-1-155.5H5.394v2h35.535v-2zm-36.535 1V220h2V65.5h-2zM.377 23.167c0 12.594 10.326 22.939 22.63 22.939v-2c-11.18 0-20.63-9.431-20.63-20.939h-2zm22.63 22.939c12.603 0 22.939-10.336 22.939-22.939h-2c0 11.499-9.44 20.939-20.939 20.939v2zm22.939-22.939c0-12.622-10.354-22.63-22.939-22.63v2c11.517 0 20.939 9.15 20.939 20.63h2zM23.007.537C10.722.537.377 10.554.377 23.167h2c0-11.49 9.431-20.63 20.63-20.63v-2z"/></svg>