<svg width="89" height="223" viewBox="0 0 89 223" fill="none" xmlns="http://www.w3.org/2000/svg"><path d="M87.369 212.129l.535.845a1 1 0 0 0 .407-1.181l-.942.336zM76.245 180.92l.942-.336a1.002 1.002 0 0 0-1.542-.464l.6.8zM37.311 1.7h1a1 1 0 0 0-1-1v1zm-35.844 0v-1a1 1 0 0 0-1 1h1zm-1 162.534c0 21.17 5.371 35.68 14.544 44.893 9.173 9.212 21.984 12.963 36.514 12.963v-2c-14.207 0-26.425-3.665-35.097-12.375-8.672-8.709-13.961-22.627-13.961-43.481h-2zm51.058 57.856c14.037 0 26.907-3.117 36.38-9.116l-1.071-1.69c-9.068 5.743-21.536 8.806-35.309 8.806v2zm36.786-10.297l-11.124-31.209-1.884.672 11.124 31.209 1.884-.672zM75.645 180.12c-4.763 3.572-11.657 5.98-18.867 5.98v2c7.622 0 14.942-2.536 20.067-6.38l-1.2-1.6zm-18.867 5.98c-5.729 0-10.281-1.357-13.418-4.601-3.145-3.252-5.049-8.588-5.049-16.956h-2c0 8.627 1.958 14.569 5.611 18.347 3.662 3.786 8.843 5.21 14.856 5.21v-2zm-18.467-21.557V1.7h-2v162.843h2zM37.311.7H1.467v2h35.844v-2zM.467 1.7v162.534h2V1.7h-2z"/></svg>