<svg width="137" height="162" viewBox="0 0 137 162" fill="none" xmlns="http://www.w3.org/2000/svg"><path d="M1.467 161h-1a1 1 0 0 0 1 1v-1zm35.844 0v1a1 1 0 0 0 1-1h-1zm0-121.128l-.346-.938a1 1 0 0 0-.654.938h1zM100.038 161h-1a1 1 0 0 0 1 1v-1zm35.535 0v1a1 1 0 0 0 1-1h-1zM1.467 15.77l-.49-.872a1 1 0 0 0-.51.872h1zm0 146.23h35.844v-2H1.467v2zm36.844-1V39.872h-2V161h2zm-.654-120.19c5.743-2.116 14.275-3.955 26.846-3.955v-2c-12.767 0-21.539 1.869-27.538 4.079l.692 1.876zm26.846-3.955c10.666 0 19.227 2.589 25.145 8.988 5.935 6.417 9.39 16.857 9.39 32.963h2c0-16.339-3.497-27.374-9.922-34.321-6.442-6.966-15.649-9.63-26.613-9.63v2zm34.535 41.951V161h2V78.806h-2zm1 83.194h35.535v-2h-35.535v2zm36.535-1V81.278h-2V161h2zm0-79.722c0-27.517-7.309-47.645-19.698-60.9C104.479 7.119 87.118.866 67.284.866v2c19.409 0 36.192 6.108 48.13 18.88 11.945 12.778 19.159 32.357 19.159 59.533h2zM67.284.865C41.844.865 16.009 6.443.977 14.898l.98 1.744C16.59 8.412 42.048 2.865 67.284 2.865v-2zM.467 15.77V161h2V15.77h-2z"/></svg>