<svg width="133" height="166" viewBox="0 0 133 166" fill="none" xmlns="http://www.w3.org/2000/svg"><path d="M1.905 148.64l-.943-.333a1 1 0 0 0 .44 1.197l.503-.864zm67.671-85.593l-.179.984.009.001.17-.985zm47.895-14.523l-.568.823a1 1 0 0 0 1.513-.496l-.945-.327zm10.815-31.209l.945.327a1 1 0 0 0-.434-1.186l-.511.859zm-64.89 81.267l-.177.984.013.002.164-.986zm-50.367 18.54l.504-.864a1.003 1.003 0 0 0-1.447.531l.943.333zM1.401 149.504c14.988 8.743 36.174 15.586 62.613 15.586v-2c-26.091 0-46.929-6.753-61.605-15.314L1.4 149.504zm62.613 15.586c14.58 0 31.53-1.934 44.872-8.722 6.684-3.401 12.49-8.035 16.622-14.278 4.137-6.25 6.559-14.055 6.559-23.732h-2c0 9.327-2.329 16.74-6.226 22.628-3.902 5.894-9.413 10.318-15.862 13.599-12.923 6.576-29.5 8.505-43.965 8.505v2zm68.053-46.732c0-14.912-4.721-27.168-14.961-36.618-10.203-9.415-25.79-15.954-47.36-19.678l-.34 1.97c21.382 3.692 36.54 10.131 46.344 19.178 9.768 9.014 14.317 20.705 14.317 35.148h2zM69.755 62.063c-5.244-.953-12.158-1.538-17.914-3.368-2.853-.907-5.29-2.086-7.004-3.68-1.68-1.564-2.689-3.545-2.689-6.182h-2c0 3.234 1.27 5.733 3.327 7.646 2.023 1.882 4.78 3.175 7.76 4.122 5.91 1.878 13.209 2.53 18.162 3.43l.358-1.968zm-27.607-13.23c0-4.182 2.924-7.166 7.979-9.15 5.046-1.981 11.932-2.828 19.14-2.828v-2c-7.315 0-14.488.853-19.871 2.966-5.374 2.11-9.248 5.615-9.248 11.012h2zm27.119-11.978c21.147 0 38.864 6.443 47.636 12.492l1.136-1.646c-9.15-6.31-27.277-12.846-48.772-12.846v2zm49.149 11.996l10.815-31.209-1.89-.654-10.815 31.209 1.89.654zm10.381-32.395C117.25 9.588 98.225.865 69.267.865v2c28.516 0 47.189 8.58 58.508 15.31l1.022-1.72zM69.267.865c-15.675 0-31.879 2.4-44.196 9.72C12.675 17.95 4.304 30.252 4.304 49.76h2c0-18.809 8.006-30.454 19.789-37.456 11.862-7.05 27.64-9.439 43.174-9.439v-2zM4.304 49.76c0 9.505 2.162 17.14 5.828 23.305 3.664 6.16 8.797 10.798 14.66 14.36 11.693 7.1 26.397 9.982 38.427 12.141l.354-1.968C51.5 95.43 37.159 92.596 25.83 85.715c-5.646-3.43-10.517-7.85-13.98-13.673-3.46-5.819-5.547-13.093-5.547-22.282h-2zm58.928 49.808c8.312 1.386 16.15 3.375 21.883 6.279 5.76 2.918 9.108 6.598 9.108 11.275h2c0-5.829-4.222-10.028-10.204-13.059-6.009-3.044-14.085-5.072-22.459-6.467l-.328 1.972zm30.991 17.554c0 4.569-3.512 7.582-9.351 9.478-5.796 1.882-13.472 2.5-20.858 2.5v2c7.446 0 15.375-.618 21.475-2.598 6.057-1.967 10.734-5.443 10.734-11.38h-2zM64.014 129.1c-27.25 0-46.846-10.721-50.481-12.842l-1.008 1.728c3.781 2.205 23.737 13.114 51.489 13.114v-2zm-51.928-12.311L.962 148.307l1.886.666 11.124-31.518-1.886-.666z"/></svg>