<svg width="112" height="207" viewBox="0 0 112 207" fill="none" xmlns="http://www.w3.org/2000/svg"><path d="M110.544 189.64l.58.815c.363-.259.512-.727.363-1.148l-.943.333zM99.42 158.122l.943-.333a1 1 0 0 0-1.576-.441l.633.774zm-27.192 11.433l-.169-.986-.06.013.229.973zm-15.45 1.236l.062-.998-.01-.001-.052.999zM37.311 81.49v-1a1 1 0 0 0-1 1h1zm59.637 0v1a1 1 0 0 0 1-1h-1zm0-33.99h1a1 1 0 0 0-1-1v1zm-59.637 0h-1a1 1 0 0 0 1 1v-1zm0-46.35h1a1 1 0 0 0-1-1v1zm-35.844 0v-1a1 1 0 0 0-1 1h1zm-1 145.848c0 21.513 6.163 36.344 16.67 45.781 10.487 9.418 25.135 13.311 41.804 13.311v-2c-16.394 0-30.483-3.832-40.467-12.799-9.965-8.949-16.007-23.164-16.007-44.293h-2zm58.474 59.092c20.272 0 38.092-5.615 52.183-15.635l-1.16-1.63c-13.72 9.756-31.125 15.265-51.023 15.265v2zm52.546-16.783l-11.124-31.518-1.886.666 11.124 31.518 1.886-.666zm-12.7-31.959c-6.634 5.428-16.04 9.389-26.728 11.221l.338 1.972c10.942-1.876 20.694-5.949 27.656-11.645l-1.266-1.548zm-26.788 11.234c-5.145 1.21-10.299 1.515-15.159 1.211l-.124 1.996c5.028.314 10.38.001 15.741-1.261l-.458-1.946zm-15.168 1.21c-5.717-.3-10.292-1.945-13.453-5.393-3.167-3.456-5.067-8.888-5.067-17.092h-2c0 8.482 1.963 14.483 5.593 18.443 3.637 3.968 8.796 5.722 14.821 6.04l.106-1.998zm-18.52-22.485V81.49h-2v65.817h2zm-1-64.817h59.637v-2H37.311v2zm60.637-1V47.5h-2v33.99h2zm-1-34.99H37.311v2h59.637v-2zm-58.637 1V1.15h-2V47.5h2zm-1-47.35H1.467v2h35.844v-2zm-36.844 1v145.848h2V1.15h-2z"/></svg>