<svg width="137" height="235" viewBox="0 0 137 235" fill="none" xmlns="http://www.w3.org/2000/svg"><path d="M135.32 1.5h1a1 1 0 0 0-1-1v1zm-35.844 0v-1a1 1 0 0 0-1 1h1zm0 119.892l.486.874a1 1 0 0 0 .514-.874h-1zM36.749 1.5h1a1 1 0 0 0-1-1v1zm-35.535 0v-1a1 1 0 0 0-1 1h1zm98.262 153.882h1a1 1 0 0 0-1.447-.894l.447.894zM15.737 186.9l.52-.854a1.003 1.003 0 0 0-1.463.518l.943.336zM4.613 218.109l-.942-.336a1 1 0 0 0 .432 1.196l.51-.86zM135.32.5H99.476v2h35.844v-2zm-36.844 1v119.892h2V1.5h-2zm.514 119.018c-5.415 3.008-11.737 5.127-21.453 5.127v2c10.06 0 16.716-2.207 22.425-5.379l-.972-1.748zm-21.453 5.127c-12.243 0-22.138-2.605-28.979-9.037-6.83-6.422-10.809-16.842-10.809-32.914h-2c0 16.373 4.055 27.428 11.439 34.371 7.373 6.932 17.872 9.58 30.349 9.58v-2zM37.749 83.694V1.5h-2v82.194h2zM36.749.5H1.214v2h35.535v-2zM.214 1.5v79.722h2V1.5h-2zm0 79.722c0 27.536 7.86 47.668 20.874 60.917 13.012 13.249 31.06 19.496 51.196 19.496v-2c-19.725 0-37.212-6.113-49.77-18.897-12.556-12.784-20.3-32.359-20.3-59.516h-2zm72.07 80.413c8.721 0 20.024-1.551 27.64-5.359l-.895-1.788c-7.217 3.608-18.162 5.147-26.745 5.147v2zm26.192-6.253v9.579h2v-9.579h-2zm0 9.579c0 12.016-3.418 20.37-9.11 25.73-5.704 5.37-13.843 7.878-23.571 7.878v2c10.048 0 18.75-2.591 24.942-8.422 6.204-5.841 9.739-14.791 9.739-27.186h-2zm-32.681 33.608c-19.312 0-37.048-4.908-49.537-12.523l-1.042 1.708c12.85 7.835 30.957 12.815 50.579 12.815v-2zm-51-12.005L3.671 217.773l1.884.672 11.124-31.209-1.884-.672zM4.103 218.969c16.866 9.995 37.443 15.281 61.692 15.281v-2c-23.955 0-44.166-5.22-60.672-15.001l-1.02 1.72zm61.692 15.281c20.272 0 37.918-5.849 50.505-17.493 12.6-11.655 20.02-29.012 20.02-51.796h-2c0 22.33-7.258 39.117-19.378 50.328-12.132 11.223-29.248 16.961-49.147 16.961v2zm70.525-69.289V1.5h-2v163.461h2z"/></svg>