<svg width="76" height="48" viewBox="0 0 76 48" fill="none" xmlns="http://www.w3.org/2000/svg"><path d="M61.382 35.097c-1.835 0-3.578.674-4.892 1.892-1.315 1.233-2.05 2.839-2.05 4.56 0 1.72.72 3.325 2.05 4.559A7.203 7.203 0 0 0 61.382 48c3.76 0 6.818-2.896 6.818-6.452 0-3.555-3.057-6.451-6.818-6.451zm0 10.036c-2.11 0-3.883-1.635-3.883-3.585s1.773-3.584 3.883-3.584c2.079 0 3.76 1.606 3.76 3.584 0 1.979-1.681 3.585-3.76 3.585zm1.773-31.527a1.54 1.54 0 0 0-1.024-.373h-7.843c-.84 0-1.529.645-1.529 1.434v11.756c0 .789.688 1.434 1.529 1.434h12.445c.84 0 1.528-.645 1.528-1.434v-7.871c0-.401-.183-.789-.504-1.061l-4.602-3.885zm2.049 11.383h-9.387v-8.903h5.718l3.669 3.097v5.806zM24.048 35.097a7.178 7.178 0 0 0-4.892 1.892c-1.315 1.233-2.049 2.839-2.049 4.56 0 1.72.719 3.325 2.049 4.559A7.203 7.203 0 0 0 24.048 48c3.761 0 6.819-2.896 6.819-6.452 0-3.555-3.058-6.451-6.819-6.451zm0 10.036c-2.11 0-3.883-1.635-3.883-3.585s1.773-3.584 3.883-3.584c2.08 0 3.761 1.606 3.761 3.584 0 1.979-1.682 3.585-3.76 3.585zM13.851 36.86h-3.073v-3.813c0-.789-.688-1.434-1.529-1.434-.84 0-1.529.645-1.529 1.434v5.247c0 .788.688 1.434 1.53 1.434h4.601c.84 0 1.529-.646 1.529-1.434 0-.789-.688-1.434-1.529-1.434zm7.751-7.813c0-.789-.688-1.434-1.529-1.434H1.53c-.841 0-1.529.645-1.529 1.434 0 .788.688 1.433 1.529 1.433h18.544c.841 0 1.53-.63 1.53-1.433zM4.632 23.87l18.545.1c.84 0 1.529-.63 1.544-1.419.015-.803-.673-1.448-1.514-1.448l-18.544-.1h-.015c-.841 0-1.53.63-1.53 1.419-.015.803.673 1.448 1.514 1.448zm3.12-6.509h18.543c.841 0 1.53-.645 1.53-1.434 0-.788-.689-1.433-1.53-1.433H7.752c-.84 0-1.529.645-1.529 1.433 0 .789.688 1.434 1.53 1.434zm66.762-1.935L63.568 6.925a1.568 1.568 0 0 0-.978-.33H49.717V1.434C49.717.645 49.029 0 48.188 0H9.25c-.84 0-1.53.645-1.53 1.434v10.494c0 .789.688 1.434 1.53 1.434.84 0 1.528-.645 1.528-1.434v-9.06h35.897V36.86H34.138c-.84 0-1.529.645-1.529 1.434 0 .788.688 1.434 1.53 1.434h18.666c.84 0 1.529-.646 1.529-1.434 0-.789-.688-1.434-1.529-1.434h-3.073V9.462h12.322l9.968 7.742-.107 19.627h-1.59c-.84 0-1.529.646-1.529 1.434 0 .789.688 1.434 1.53 1.434h3.103c.84 0 1.528-.63 1.528-1.42l.123-21.734a1.48 1.48 0 0 0-.566-1.119z" fill="url(#a)"/><defs><linearGradient id="a" x1="-.704" y1="3.474" x2="28.933" y2="67.888" gradientUnits="userSpaceOnUse"><stop stop-color="#12026D"/><stop offset=".337" stop-color="#11022D"/><stop offset="1" stop-color="#540071" stop-opacity=".69"/></linearGradient></defs></svg>