<svg width="61" height="57" viewBox="0 0 61 57" fill="none" xmlns="http://www.w3.org/2000/svg"><path d="M47.285 11.04c1.148-1.164 1.863-2.746 1.863-4.49 0-3.642-3.085-6.55-6.825-6.55-2.84 0-9.381 4.002-11.998 7.596-2.703-3.594-9.22-7.48-11.948-7.48-3.727 0-6.826 2.908-6.826 6.55 0 1.686.667 3.21 1.74 4.362H.11v15.646h3.605V57H57V26.685h3.591V11.04H47.284zm-4.962-8.61c2.32 0 4.246 1.815 4.246 4.246 0 2.047-1.519 3.804-3.481 4.176H32.646c-.667-.186-.877-.407-.877-.535 0-2.07 7.715-7.887 10.554-7.887zm-23.946 0c2.703 0 10.553 5.817 10.553 7.887 0 .186-.456.396-.79.535H17.624c-1.962-.372-3.48-2.129-3.48-4.176-.013-2.315 1.925-4.246 4.233-4.246zm4.246 52.138H6.281V26.685h16.342V54.57zm0-30.187H2.69v-10.91h19.947v10.911h-.013zm12.862 30.187H25.19v-41.11h10.294v41.11zm18.922 0H38.064V26.685h16.343V54.57zm3.591-30.187H38.064v-10.91h19.947v10.911h-.013z" fill="url(#a)"/><defs><linearGradient id="a" x1="-.458" y1="4.126" x2="42.599" y2="67.607" gradientUnits="userSpaceOnUse"><stop stop-color="#12026D"/><stop offset=".337" stop-color="#11022D"/><stop offset="1" stop-color="#540071" stop-opacity=".69"/></linearGradient></defs></svg>