<svg width="68" height="65" viewBox="0 0 68 65" fill="none" xmlns="http://www.w3.org/2000/svg"><g clip-path="url(#a)"><path d="M13.409 25.91c-.72 0-1.304.563-1.304 1.258 0 .694.584 1.257 1.304 1.257.72 0 1.303-.563 1.303-1.258 0-.694-.583-1.257-1.303-1.257z" fill="url(#b)"/><path d="M60.335 10.817c-14.204 0-21.838-7.324-24.346-9.73-.51-.49-.767-.737-1.037-.898a1.344 1.344 0 0 0-1.373 0c-.186.11-.336.252-.697.593-.929.875-3.104 2.925-6.466 4.955-5.588 3.37-11.718 5.08-18.22 5.08-.72 0-1.303.563-1.303 1.258v16.5c0 7.921 2.59 15.467 7.49 21.822 5.313 6.89 12.24 11.843 19.508 13.947a1.347 1.347 0 0 0 .75 0c7.266-2.104 14.194-7.057 19.508-13.947 4.9-6.355 7.49-13.9 7.49-21.822v-16.5c0-.695-.584-1.258-1.304-1.258zM59.03 28.575c0 7.376-2.411 14.403-6.974 20.32-4.888 6.34-11.193 10.917-17.792 12.928-6.598-2.01-12.903-6.589-17.791-12.928C11.91 42.978 9.5 35.951 9.5 28.575V13.311c6.514-.215 12.663-2.043 18.298-5.441a39.18 39.18 0 0 0 6.474-4.884c2.733 2.62 10.53 9.903 24.76 10.327v15.262z" fill="url(#c)"/><path d="M55.264 15.582c-7.175-.766-13.981-3.567-20.231-8.326a1.34 1.34 0 0 0-1.6-.012c-6.19 4.572-13.357 7.524-20.18 8.313-.654.076-1.148.612-1.148 1.25v5.33c0 .694.584 1.257 1.304 1.257.72 0 1.303-.563 1.303-1.258v-4.232c4.96-.728 12.001-2.755 19.502-8.08 6.082 4.448 12.667 7.174 19.602 8.118v10.633c0 6.286-2.055 12.273-5.944 17.315-3.724 4.833-8.422 8.367-13.608 10.242-5.185-1.875-9.882-5.408-13.606-10.24-3.138-4.069-5.12-8.856-5.734-13.847-.085-.69-.733-1.183-1.448-1.1-.715.081-1.226.707-1.141 1.397.667 5.426 2.822 10.63 6.231 15.051 4.138 5.37 9.416 9.264 15.263 11.263a1.345 1.345 0 0 0 .87 0c5.849-2 11.127-5.895 15.265-11.265 4.226-5.479 6.46-11.985 6.46-18.816V16.833c0-.642-.5-1.18-1.16-1.25z" fill="url(#d)"/><path d="M47.204 27.571a1.292 1.292 0 0 0-1.052-.856l-7.443-1.043-3.327-6.507a1.31 1.31 0 0 0-1.168-.701c-.496 0-.95.271-1.17.7l-3.327 6.508-7.443 1.043c-.49.069-.899.4-1.052.856a1.23 1.23 0 0 0 .33 1.29l5.385 5.065-1.27 7.152c-.085.472.116.949.518 1.23a1.335 1.335 0 0 0 1.373.096l6.656-3.377 6.655 3.377a1.34 1.34 0 0 0 1.372-.096c.402-.281.603-.758.519-1.23l-1.271-7.153 5.385-5.065c.355-.334.483-.833.33-1.289zm-8.026 5.015a1.23 1.23 0 0 0-.374 1.113l.94 5.292-4.924-2.498a1.346 1.346 0 0 0-1.213 0l-4.925 2.499.94-5.293a1.23 1.23 0 0 0-.375-1.113l-3.984-3.748 5.506-.771c.425-.06.792-.317.982-.689l2.462-4.814 2.462 4.814a1.3 1.3 0 0 0 .981.689l5.507.771-3.984 3.748z" fill="url(#e)"/></g><defs><linearGradient id="b" x1="12.081" y1="26.092" x2="13.997" y2="28.851" gradientUnits="userSpaceOnUse"><stop stop-color="#12026D"/><stop offset=".337" stop-color="#11022D"/><stop offset="1" stop-color="#540071" stop-opacity=".69"/></linearGradient><linearGradient id="c" x1="6.379" y1="4.661" x2="58.017" y2="65.66" gradientUnits="userSpaceOnUse"><stop stop-color="#12026D"/><stop offset=".337" stop-color="#11022D"/><stop offset="1" stop-color="#540071" stop-opacity=".69"/></linearGradient><linearGradient id="d" x1="11.69" y1="10.731" x2="53.129" y2="60.048" gradientUnits="userSpaceOnUse"><stop stop-color="#12026D"/><stop offset=".337" stop-color="#11022D"/><stop offset="1" stop-color="#540071" stop-opacity=".69"/></linearGradient><linearGradient id="e" x1="20.913" y1="20.207" x2="38.959" y2="47.39" gradientUnits="userSpaceOnUse"><stop stop-color="#12026D"/><stop offset=".337" stop-color="#11022D"/><stop offset="1" stop-color="#540071" stop-opacity=".69"/></linearGradient><clipPath id="a"><path fill="#fff" transform="translate(.896)" d="M0 0h66.738v64.397H0z"/></clipPath></defs></svg>