<svg xmlns="http://www.w3.org/2000/svg" xmlns:xlink="http://www.w3.org/1999/xlink" width="299" height="58" viewBox="0 0 299 58"><defs><path id="79bha" d="M469.832 15.615c-2.034 2.4.135 6.245 1.5 6.133.134.358-.577 2.086-.183 2.146.148-.41 1.456-1.85 1.304-2.32-1.097-3.41 1.677-3.831-1.51-4.537-.035-.352.112-.484.552-.825 1.545-1.198 2.947-.768 3.824-.179.288.194.61.307.987.43.527.173.619.174 1.174.077.352-.06.896-.108 1.097-.326-.116-.21-1.18-.561-1.471-.723-1.719-.952-4.487-3.165-7.273.124zm4.513 22.165c.092.328.387 1.2.725 1.26.004 0 .024-.527.186-1.363a14.31 14.31 0 0 1 .376-1.495l.002-.007c.115-.394.259-.786.42-1.171.151-.37.325-.75.526-1.136l.005-.009.061-.117a12.528 12.528 0 0 1 4.685-4.922c-2.313-.127-3.001.758-3.44 1.328-.29-.725-.488-1.644 2.674-5.554-5.443 1.123-4.98 5.353-4.904 7.226-1.629 3.559-1.753 4.396-1.316 5.96zm12.189-3.153a.851.851 0 0 1-.726.412.867.867 0 0 1-.855-.877c0-.268.117-.507.3-.668-.492-.127-1.026-.59-1.071.305-.118 2.32 2.234 2.405 3.065 1.539.014-.4-.304-.615-.636-.799-.008.007-.034.04-.077.088zm5.547 20.156c-.181-.724.248-3.314-3.027-2.653a2.67 2.67 0 0 0-.214.155c.204 1.37 1.313 2.499 2.887 2.499h.353zm24.392-39.168c-2.786-3.29-5.555-1.075-7.274-.124-.291.162-1.354.513-1.47.723.2.219.745.266 1.096.327.556.096.647.095 1.174-.077.376-.123.699-.236.987-.43.878-.59 2.28-1.02 3.825.179.44.342.586.473.55.825-3.186.705-.412 1.126-1.51 4.537-.15.47 1.158 1.91 1.305 2.32.395-.06-.317-1.789-.182-2.147 1.364.112 3.533-3.732 1.5-6.133zM511.96 37.78c.437-1.564.313-2.401-1.316-5.96.077-1.873.54-6.103-4.904-7.226 3.162 3.91 2.965 4.83 2.674 5.554-.44-.57-1.128-1.455-3.44-1.328a12.528 12.528 0 0 1 4.763 5.072c.186.358.348.711.49 1.055a11.225 11.225 0 0 1 .454 1.26 14.322 14.322 0 0 1 .378 1.525c.14.734.168 1.218.174 1.297l.002.011c.338-.06.634-.932.725-1.26zm-12.188-3.153c-.043-.047-.07-.081-.077-.088-.332.184-.65.4-.637.799.832.866 3.184.78 3.066-1.539-.045-.895-.58-.432-1.071-.305.183.16.3.4.3.668a.867.867 0 0 1-.856.877.85.85 0 0 1-.725-.412zm-5.547 20.157h.354c1.574 0 2.683-1.13 2.887-2.499a2.67 2.67 0 0 0-.214-.155c-3.275-.66-2.846 1.93-3.027 2.653zm-1.065-7.589h1.949c1.898 0 3.675 1.377 3.452 3.034l-.26 1.941c-.224 1.657-1.555 3.034-3.453 3.034h-.962c-.082.514.004 2.427 1.667 2.441.927.007 2.005.096 2.911-.068 1.023-.186 1.853.41 2.005-.631.202-1.384 1.239-7.66.67-6.832-.694 1.009-.5 1.087-1.416 2.073.587-9.484-.317-10.472-.85-12.92-.414.414-.96 5.042-.979 5.095-1.651-3.328-1.15-5.9-1.947-7.422-.643-.934-1.684-1.285-2.786-1.213h-.017c-1.102-.074-2.143.278-2.787 1.212-.796 1.522-.294 4.094-1.946 7.422-.02-.054-.565-4.681-.979-5.095-.534 2.447-1.438 3.436-.85 12.92-.916-.986-.722-1.064-1.416-2.074-.57-.827.468 5.449.67 6.833.151 1.041.981.445 2.004.63.907.164 1.984.077 2.912.069 1.662-.014 1.749-1.927 1.666-2.442h-.961c-1.898 0-3.23-1.376-3.453-3.033l-.26-1.942c-.223-1.657 1.553-3.033 3.452-3.033h1.965zm.02 2.335c1.937 0 3.619.602 4.457 1.485l.054-.401c.186-1.388-2.407-2.542-3.998-2.542h-1.08c-1.59 0-4.184 1.153-3.998 2.542l.054.4c.838-.882 2.52-1.484 4.457-1.484zm.002 9.855c1.707 0 3.413-.294 3.31-.888-.145-.065-1.727-.102-3.31-.105h-.059c-1.582.002-3.163.04-3.309.105-.103.594 1.603.889 3.31.888zm24.628-35.83c4.776 4.791 3.951 8.537 6.787 16.178 2.77 7.465-.102 2.856-.298 4.24 4.19 13.3-12.55 22.119-26.463 21.795 1.613-.407 3.116-3.182 4.809-3.591 4.183-1.012 6.604-6.363 5.89-3.13 7.72-3.757 11.344-8.65 10.882-13.796-1.248.009-1.204 2.183-1.967 3.546-1.14 2.037-2.466 3.55-4.226 4.943-.716.566-3.202 2.127-3.976 2.074 0-.48.437-.847.35-1.355-.245.008-.313.14-.673.426-1.868 1.486-4.32 4.13-6.752 4.683-.937.213-3.942 5.516-4.972 3.794-.13-.218.457-.746.066-1.03-.197.056-.094-.048-.236.2-1.13 1.96-2.491 2.935-3.851 2.935H493.12c-1.36 0-2.722-.975-3.851-2.935-.142-.248-.039-.146-.236-.202-.391.284.197.813.066 1.031-1.03 1.721-4.035-3.582-4.972-3.794-2.432-.553-4.883-3.197-6.751-4.683-.36-.287-.429-.419-.673-.426-.087.508.35.876.35 1.355-.774.052-3.261-1.509-3.976-2.074-1.76-1.393-3.086-2.907-4.226-4.943-.361-.644-.542-1.47-.763-2.164 0 4.188 4.453 9.486 9.863 13.034-.282-3.26 2.6 2.398 6.016 2.237 2.27 2.214 4.172 3.335 5.73 3.884 3.317 2.186 3.886 1.118 5.567 1.327-5.016 3.349-10.559 1.422-13.781.297-1.862-.65-3.245-1.588-3.896-1.247-.309.161-.453.612-.403 1.518-7.168-1.768-13.738-6.18-15.689-16.037-.196-1.383-3.067 3.226-.297-4.24 2.987-8.05 3.608-16.277 9.3-21.457l-.157.496c.183-.191.375-.382.574-.574-2.962-1.028-5.016-7.69-3.329-10.243 4.806-7.268 9.613-.226 14.014-.827.6-.081 4.693.011 5.301.012 2.967.677 4.795.803 6.239.715h.006l.01-.001v.001c1.444.088 3.272-.038 6.24-.715.608 0 4.7-.093 5.3-.012 4.402.601 9.209-6.44 14.014.827 1.16 1.755.552 5.454-.904 7.927zm-24.682-1.47v.002l.026.007.025-.007v-.002h.002v.002c.065.019.12.022.17.013v.005c.186-.032.306-.23.557-.42 1-1.566 2.996-3.82 7.277-1.903.006.307-2.729.021-2.522.76 2.807.22 5.984.066 8.1 1.812-.045.36-8.235-.164-9.912 5.457-.049.165-.08.488.893.464.418.11 1.639-.486 3.293.517-1.287.293-2.468 1.16-3.362 2.64-.883 1.46-.877 3.397 1.034 2.682.156-.176.234-.21.428-.398.73-.705 1.805-2.37 2.644-2.885 1.355-.833 4.081 1.965 4.072 2.614-.468.196-2.52-.814-2.574-.123a.932.932 0 0 0 .05.213c.053.165.084.248.12.415.206.965-.133 1.742-.957 2.234a3.751 3.751 0 0 1-1.67.514c-.418.027-1.685-.215-1.87-.104.925 1.466 3.479 4.515 5.553 3.219 2.073-1.296.647-3.8 1.452-6.213.36-.073 1.152.134 2 .472.984.393-.065-1.448-.342-1.86.66.02 1.55.653 2.036 1.516.03.055.058.11.086.164.172.342.338.695.49 1.055.183.44.332.863.454 1.26.111.383.193.684.255.94.048.209.09.404.123.585.07.392.105.74.174 1.297 0 .006.001.01.002.011-10.446-.081-.533 3.254-4.641 8.791.004-1.523-.733-2.9-1.463-3.1.785 2.861.294 3.807-.408 5.697 2.518-.165 3.969-3.282 4.313-4.683.41-1.668.173-2.413.283-2.763.877.492-.058-1.937.064-1.65 1.339-1.7 2.609 1.057 2.912 2.222.452-.1.856-1.354 1-1.782.514-1.53.447-3.42.185-5.01-.076-.46-.511-1.88-.373-2.154 0 0 2.432-.64 4.179.391.3-2.141-1.046-5.545-3.266-8.039-1.466-6.206-3.657-9.294-8.508-10.364-2.622-.578-6.681-1.122-9.055-.203-1.408.544-2.303 1.083-3.296 1.239v.002l-.007-.001-.01.001v-.003c-.992-.155-1.887-.694-3.295-1.24-2.374-.917-6.433-.374-9.055.205-4.851 1.07-7.043 4.158-8.508 10.364-2.22 2.494-3.566 5.898-3.266 8.038 1.746-1.03 4.178-.391 4.178-.391.139.276-.296 1.694-.372 2.155-.263 1.589-.33 3.479.185 5.01.143.428.547 1.681 1 1.782.302-1.166 1.573-3.922 2.912-2.223.121-.287-.814 2.142.063 1.65.11.35-.126 1.095.283 2.763.345 1.402 1.795 4.518 4.314 4.683-.702-1.89-1.193-2.835-.409-5.697-.73.201-1.466 1.577-1.462 3.1-4.108-5.536 5.805-8.871-4.64-8.79.073-.589.107-.946.184-1.363.028-.144.06-.297.097-.458.066-.278.154-.606.28-1.038.115-.372.254-.767.421-1.177a18.494 18.494 0 0 1 .592-1.262c.485-.87 1.38-1.511 2.045-1.53-.277.412-1.326 2.253-.342 1.86.848-.34 1.64-.545 2-.472.804 2.412-.622 4.916 1.451 6.212 2.075 1.296 4.629-1.753 5.552-3.219-.184-.11-1.45.132-1.87.104a3.754 3.754 0 0 1-1.669-.514c-.824-.491-1.163-1.268-.956-2.234.035-.166.066-.25.12-.414a.965.965 0 0 0 .05-.214c-.055-.69-2.107.32-2.575.123-.009-.648 2.716-3.447 4.072-2.613.84.515 1.914 2.18 2.644 2.884.194.187.272.222.429.397 1.91.716 1.916-1.221 1.034-2.682-.894-1.479-2.075-2.346-3.363-2.64 1.655-1.002 2.875-.406 3.293-.516.974.024.943-.3.893-.464-1.677-5.621-9.866-5.098-9.912-5.458 2.117-1.745 5.293-1.591 8.1-1.81.208-.74-2.528-.455-2.52-.761 4.28-1.918 6.277.337 7.276 1.903.25.191.37.388.556.42v-.005c.05.01.106.006.17-.013v-.003l.001.001h.002z"/><path id="79bhb" d="M728.18 47.211v6.77h8.817v-6.77h4.534v17.446h-4.534v-6.51h-8.817v6.51h-4.535V47.21zm-14.006 10.155l-2.57-5.962-2.57 5.962zm-12.345 7.29v-1.041l7.507-16.404h4.534l7.508 16.404v1.042h-4.081l-1.461-3.385h-8.49l-1.435 3.385zm-10.175 0V51.379h-6.55V47.21h17.658v4.167h-6.575v13.279zm-8.29-13.278h-11.612v2.604h9.094v4.166h-9.094v2.343h11.613v4.166h-16.148V47.21h16.148zm-27.281 4.687c3.576 0 3.576-1.094 3.576-2.604 0-1.537 0-2.604-3.4-2.604-1.058 0-2.997.078-4.66.234v4.739c1.561.208 2.922.234 4.484.234zm8.111-2.083c0 3.436-1.46 6.248-6.7 6.248h-.705c-1.814 0-3.553 0-5.19-.26v4.687h-4.535V47.21c2.872-.338 6.172-.52 9.22-.52h.706c5.642 0 7.204 2.811 7.204 6.249zm-19.523-5.73L637.945 60.1c-1.511 2.995-2.721 5.077-6.374 5.077-.73 0-1.688-.078-2.367-.26V60.7c.654.156 1.612.234 2.191.234 1.46 0 1.864-.417 2.242-1.302l-7.582-11.378V47.21h4.534l5.214 8.41 4.585-8.41h4.283zm-25.543-1.041h4.534v17.445h-4.534V53.46l-8.842 11.196h-4.535V47.211h4.535v11.196zM586.354 58.85l.504-11.64h15.366v17.446h-4.534v-13.28h-6.6l-.327 7.994c-.202 3.646-1.436 5.599-5.34 5.599-.757 0-1.587-.053-2.192-.26v-3.985c.403.052 1.007.079 1.385.079 1.334 0 1.687-.677 1.738-1.953zM571.34 61.01c5.29 0 5.29-2.422 5.29-5.077 0-2.63 0-5.052-5.29-5.052s-5.29 2.422-5.29 5.052c0 2.655 0 5.077 5.29 5.077zm-9.824-5.754c0-4.713 2.04-8.567 9.371-8.567h.907c7.33 0 9.371 3.854 9.371 8.567v1.353c0 4.713-2.04 8.567-9.371 8.567h-.907c-7.33 0-9.371-3.854-9.371-8.567zm-3.275-8.046v17.445h-4.534v-13.28h-8.313v13.28h-4.535V47.211zM672.791 11v.573c0 1.615-.78 2.995-3.677 2.995h-.202c-2.897 0-3.678-1.38-3.678-2.995V11h2.268v.573c0 .495.302.911 1.41.911h.202c1.107 0 1.41-.417 1.41-.911V11zm.656 5.337h4.534v17.446h-4.534V22.587l-8.843 11.196h-4.534V16.337h4.534v11.197zm-21.438 0h4.534v17.446h-4.534V22.587l-8.842 11.196h-4.534V16.337h4.534v11.197zm-28.719 0v6.77h2.898l5.491-6.77h4.434v1.042l-6.223 7.681 6.223 7.681v1.042h-4.434l-5.29-6.51h-3.098v6.51h-4.534V16.337zm-23.83 8.045c0-4.712 1.991-8.566 9.12-8.566h.907c2.266 0 4.434.312 6.499.86v4.244c-2.318-.703-4.913-.963-6.625-.963-5.266 0-5.266 2.134-5.266 5.103 0 2.968 0 5.13 5.266 5.13 1.712 0 4.307-.287 6.625-.99v4.27c-2.065.521-4.231.833-6.499.833h-.907c-7.13 0-9.12-3.854-9.12-8.566zm-19.044 0c0-4.712 1.99-8.566 9.12-8.566h.907c2.266 0 4.433.312 6.498.86v4.244c-2.316-.703-4.911-.963-6.624-.963-5.265 0-5.265 2.134-5.265 5.103 0 2.968 0 5.13 5.265 5.13 1.712 0 4.307-.287 6.624-.99v4.27c-2.065.521-4.231.833-6.498.833h-.908c-7.128 0-9.119-3.854-9.119-8.566zm-1.436-7.002l-6.725 11.847c-1.51 2.994-2.721 5.077-6.373 5.077-.73 0-1.688-.078-2.368-.26v-4.219c.655.156 1.612.234 2.19.234 1.462 0 1.866-.416 2.243-1.302l-7.583-11.378v-1.042h4.535l5.215 8.41 4.584-8.41h4.282zm-25.04 5.207c0-1.537 0-2.604-3.4-2.604-1.059 0-2.998.077-4.66.234v4.739c1.562.209 2.922.234 4.484.234 3.577 0 3.577-1.093 3.577-2.603zm4.535.52c0 3.437-1.46 6.25-6.7 6.25h-.706c-1.814 0-3.552 0-5.19-.261v4.687h-4.534V16.337c2.872-.338 6.173-.52 9.22-.52h.705c5.643 0 7.205 2.812 7.205 6.248z"/><path id="79bhc" d="M756.34 50.519l1.366-3.336H759v4.608h-1.036v-3.05l-1.27 3.05h-.702l-1.274-3.067v3.067h-1.036v-4.608h1.303l1.356 3.336zm-3.426-2.515h-1.495v3.788h-1.037v-3.788h-1.478v-.821h4.01z"/></defs><g><g transform="translate(-460 -11)"><use xlink:href="#79bha"/></g><g transform="translate(-460 -11)"><use xlink:href="#79bhb"/></g><g transform="translate(-460 -11)"><use xlink:href="#79bhc"/></g></g></svg>