<svg xmlns="http://www.w3.org/2000/svg" viewBox="0 0 38 38"><defs><style>.cls-1,.cls-4{fill:#fff}.cls-2{fill:none}.cls-3,.cls-4{stroke:none}</style></defs><g id="icon_another_masters" data-name="icon another masters" transform="translate(-20 -2709)"><g id="hair-removal" transform="translate(27.759 2719.706)"><g id="Group_1614" data-name="Group 1614" transform="translate(1.76 3.815)"><g id="Group_1613" data-name="Group 1613"><path id="Path_5767" data-name="Path 5767" class="cls-1" d="M12.846 114.936l-3.568-2.821a1.715 1.715 0 0 1-.656-1.333 71.637 71.637 0 0 0-.912-9.7.284.284 0 0 0-.559.1 70.954 70.954 0 0 1 .9 9.61 2.28 2.28 0 0 0 .872 1.772l3.568 2.821a.252.252 0 0 1-.241.435c-.785-.28-2.249-.791-3.228-1.074a8.32 8.32 0 0 0-1.643-.275 9.115 9.115 0 0 1-1.012-.133.634.634 0 0 1-.446-.467 1.794 1.794 0 0 1 .418-1.679.284.284 0 0 0 .071-.147 13.361 13.361 0 0 0-1.186-4.92c-1.256-2.251-1.531-3.681-.982-5.1a.284.284 0 0 0-.432-.332c-.285.208-1.221.9-1.936 1.437a.284.284 0 1 0 .339.455l1.264-.94c-.285 1.542.294 3.042 1.251 4.756a13.617 13.617 0 0 1 1.125 4.484 2.349 2.349 0 0 0-.473 2.161 1.185 1.185 0 0 0 .872.847 9.7 9.7 0 0 0 1.073.142 7.857 7.857 0 0 1 1.539.255c.964.278 2.416.785 3.194 1.063a.82.82 0 0 0 .784-1.415z" transform="translate(-1.764 -100.845)"/></g></g><g id="Group_1616" data-name="Group 1616" transform="translate(1.76)"><g id="Group_1615" data-name="Group 1615"><path id="Path_5768" data-name="Path 5768" class="cls-1" d="M7.487 2.914c-.4-1.854-.727-2.3-.942-2.471-.922-.743-2.5-.462-4.586.187a.284.284 0 0 0 .169.542C3.783.657 5.42.265 6.189.884c.08.065.372.411.743 2.148a.284.284 0 1 0 .555-.119z" transform="translate(-1.76)"/></g></g><g id="Group_1618" data-name="Group 1618" transform="translate(16.156 5.813)"><g id="Group_1617" data-name="Group 1617"><path id="Path_5769" data-name="Path 5769" class="cls-1" d="M383.416 155.351l-.545-1.5a.284.284 0 0 0-.533.194l.545 1.5a.284.284 0 0 0 .533-.194z" transform="translate(-382.32 -153.666)"/></g></g><g id="Group_1620" data-name="Group 1620" transform="translate(14.57 5.813)"><g id="Group_1619" data-name="Group 1619"><path id="Path_5770" data-name="Path 5770" class="cls-1" d="M341.513 155.351l-.545-1.5a.284.284 0 1 0-.533.194l.545 1.5a.284.284 0 0 0 .533-.194z" transform="translate(-340.417 -153.666)"/></g></g><g id="Group_1622" data-name="Group 1622" transform="translate(9.76 3.975)"><g id="Group_1621" data-name="Group 1621"><path id="Path_5771" data-name="Path 5771" class="cls-1" d="M224.194 117.43h-.106a1.533 1.533 0 0 1-1.457-1.067 1.327 1.327 0 0 0 .717-1.491l-.958-4.189a.525.525 0 0 1 .132-.48l1.352-1.42a.812.812 0 0 0 .031-1.088c-1.551-1.824-2.376-2.36-2.795-2.489a8.127 8.127 0 0 0-2.669-.061.284.284 0 1 0 .048.565 7.444 7.444 0 0 1 2.455.038 8.576 8.576 0 0 1 2.529 2.314.246.246 0 0 1-.009.33l-1.352 1.42a1.091 1.091 0 0 0-.274 1l.476 2.082a4.486 4.486 0 0 1-1.152 1.783l-.481-2.1-.232-1.016-.153-.667a.784.784 0 0 0-.768-.612h-4.266a.263.263 0 0 1-.262-.262v-3.621a.261.261 0 0 1 .219-.259c.511-.084 1.3-.206 2.157-.308a.284.284 0 1 0-.067-.563c-.866.1-1.665.226-2.182.311a.827.827 0 0 0-.695.819v.106h-.673a.516.516 0 0 0-.516.516v2.126a.516.516 0 0 0 .516.516h.673v.358a.831.831 0 0 0 .83.83h4.266a.219.219 0 0 1 .215.171l.037.161h-.126a.872.872 0 0 0 0 1.743h.525a22.119 22.119 0 0 0 .678 2.822 1.329 1.329 0 0 0 1.223.755 2.1 2.1 0 0 0 2.01 1.5h.106a.284.284 0 1 0 0-.567zm-9.762-8.342h-.621v-2.023h.621zm5.22 3.262a.3.3 0 0 1 0-.608h.256v.017l.135.591zm2.163 3.538a.76.76 0 0 1-.5-.551l-.009-.041a4.638 4.638 0 0 0 1.22-1.485l.271 1.187c.006.025.01.05.013.074a.76.76 0 0 1-.995.815z" transform="translate(-213.243 -105.074)"/></g></g></g><g id="Icon_masters" data-name="Icon masters" transform="translate(31 2643)"><g id="Icon.BG" class="cls-2"><path class="cls-3" d="M19 0A19 19 0 1 1 0 19 19 19 0 0 1 19 0z" transform="translate(-11 66)"/><path class="cls-4" d="M19 1A17.882 17.882 0 0 0 6.272 6.272C2.872 9.672 1 14.192 1 19s1.872 9.328 5.272 12.728C9.672 35.128 14.192 37 19 37s9.328-1.872 12.728-5.272C35.128 28.328 37 23.808 37 19s-1.872-9.328-5.272-12.728C28.328 2.872 23.808 1 19 1m0-1c10.493 0 19 8.507 19 19s-8.507 19-19 19S0 29.493 0 19 8.507 0 19 0z" transform="translate(-11 66)"/></g></g></g></svg>