<svg xmlns="http://www.w3.org/2000/svg" viewBox="0 0 38 38"><defs><style>.cls-1{fill:none}.cls-2,.cls-4{fill:#fff}.cls-3,.cls-4{stroke:none}</style></defs><g id="icon_eyelashes" data-name="icon eyelashes" transform="translate(-20 -2477)"><g id="Icon_masters" data-name="Icon masters" transform="translate(31 2411)"><g id="Icon.BG" class="cls-1"><path class="cls-3" d="M19 0A19 19 0 1 1 0 19 19 19 0 0 1 19 0z" transform="translate(-11 66)"/><path class="cls-4" d="M19 1A17.882 17.882 0 0 0 6.272 6.272C2.872 9.672 1 14.192 1 19s1.872 9.328 5.272 12.728C9.672 35.128 14.192 37 19 37s9.328-1.872 12.728-5.272C35.128 28.328 37 23.808 37 19s-1.872-9.328-5.272-12.728C28.328 2.872 23.808 1 19 1m0-1c10.493 0 19 8.507 19 19s-8.507 19-19 19S0 29.493 0 19 8.507 0 19 0z" transform="translate(-11 66)"/></g></g><g id="liner" transform="translate(29 2486.766)"><g id="Group_1674" data-name="Group 1674" transform="translate(11.342 2.841)"><g id="Group_1673" data-name="Group 1673"><path id="Path_6059" data-name="Path 6059" class="cls-2" d="M304.214 70.142a.373.373 0 1 0 .109.264.376.376 0 0 0-.109-.264z" transform="translate(-303.577 -70.033)"/></g></g><g id="Group_1676" data-name="Group 1676" transform="translate(0 .233)"><g id="Group_1675" data-name="Group 1675"><path id="Path_6060" data-name="Path 6060" class="cls-2" d="M19.063 6.811l-3-4.406A4.972 4.972 0 0 0 10.178.56l-9.144 3.5a1.6 1.6 0 0 0-.941 2.029 1.422 1.422 0 0 0 1.794.871l8.48-2.892a.374.374 0 0 0-.241-.707l-8.48 2.892A.672.672 0 0 1 .8 5.842a.854.854 0 0 1 .5-1.086l9.144-3.5a4.209 4.209 0 0 1 5 1.568l1.842 2.706-.15-.106a.374.374 0 1 0-.43.611l1.831 1.289a.374.374 0 0 0 .524-.516z" transform="translate(0 -.233)"/></g></g><g id="Group_1678" data-name="Group 1678" transform="translate(6.311 11.19)"><g id="Group_1677" data-name="Group 1677"><path id="Path_6061" data-name="Path 6061" class="cls-2" d="M171.705 294.229a1.515 1.515 0 1 0 .2 1.142 1.5 1.5 0 0 0-.2-1.142zm-.529.98a.768.768 0 1 1-.1-.579.769.769 0 0 1 .101.578z" transform="translate(-168.912 -293.527)"/></g></g><g id="Group_1682" data-name="Group 1682" transform="translate(1.132 2.249)"><g id="Group_1681" data-name="Group 1681"><path id="Path_6063" data-name="Path 6063" class="cls-2" d="M48.271 69.718l-3.244-12.109a.374.374 0 0 0-.058-.121l-2.263-3.148a.374.374 0 0 0-.675.181l-.386 3.858a.374.374 0 0 0 .011.134l.012.046a.373.373 0 0 0-.715.192 2.42 2.42 0 0 1-2.085 2.716.374.374 0 0 0-.065.015 3.17 3.17 0 0 0 1.235-2.945.374.374 0 0 0-.741.1 2.42 2.42 0 0 1-1.593 2.6 3.18 3.18 0 0 0 .511-.679 3.148 3.148 0 0 0 .285-2.409.374.374 0 0 0-.719.2 2.419 2.419 0 0 1-1.651 2.981 6.392 6.392 0 0 0-4.1 2q-.155.157-.3.314c.078-.169.165-.34.26-.511a4.819 4.819 0 0 1 4.41-2.725h.017a.374.374 0 0 0 0-.747h-.018a5.587 5.587 0 0 0-5.063 3.108 9.474 9.474 0 0 0-1.052 3.059.374.374 0 0 0 .71.2 8.583 8.583 0 0 1 1.576-2.193 6.3 6.3 0 0 1 1.93-1.35 3.289 3.289 0 0 0 .5 4.774 13.55 13.55 0 0 1-1.943-.294.374.374 0 1 0-.162.729 13.439 13.439 0 0 0 2.91.342 8.222 8.222 0 0 0 4.626-1.292 8.064 8.064 0 0 0 2.642-2.962l1.527 5.727c.053.2.775.006.722-.193l-2.768-10.342a2.226 2.226 0 0 0 1.927-.516l3.069 11.453a.374.374 0 1 0 .722-.193zM41.067 61a3.148 3.148 0 0 0 .628-2.34l.713 2.66a12.1 12.1 0 0 1-1.85.205 3.189 3.189 0 0 0 .509-.525zm-1.607 4.2a2.538 2.538 0 1 1-.336-1.913 2.521 2.521 0 0 1 .335 1.905zm3.14-3.161l.169.63a7.511 7.511 0 0 1-2.906 3.549 3.3 3.3 0 0 0 .324-.864 3.263 3.263 0 0 0-.435-2.476 3.309 3.309 0 0 0-.5-.61 14.436 14.436 0 0 0 3.348-.229zm-.182-3.887l.257-2.574 1.51 2.1a1.477 1.477 0 0 1-1.766.474z" transform="translate(-30.288 -54.184)"/></g></g></g></g></svg>