<svg xmlns="http://www.w3.org/2000/svg" viewBox="0 0 38 38">
  <defs>
    <style>
      .cls-1 {
        fill: none;
      }

      .cls-2, .cls-4 {
        fill: #fff;
      }

      .cls-3, .cls-4 {
        stroke: none;
      }
    </style>
  </defs>
  <g id="icon_eyelashes" data-name="icon eyelashes" transform="translate(-20 -2477)">
    <g id="Icon_masters" data-name="Icon masters" transform="translate(31 2411)">
      <g id="Icon.BG" class="cls-1" transform="translate(-11 66)">
        <path class="cls-3" d="M19,0A19,19,0,1,1,0,19,19,19,0,0,1,19,0Z"/>
        <path class="cls-4" d="M 19 1 C 14.19202995300293 1 9.671829223632813 2.872329711914063 6.272079467773438 6.272079467773438 C 2.872329711914063 9.671829223632813 1 14.19202995300293 1 19 C 1 23.80797004699707 2.872329711914063 28.32817077636719 6.272079467773438 31.72792053222656 C 9.671829223632813 35.12767028808594 14.19202995300293 37 19 37 C 23.80797004699707 37 28.32817077636719 35.12767028808594 31.72792053222656 31.72792053222656 C 35.12767028808594 28.32817077636719 37 23.80797004699707 37 19 C 37 14.19202995300293 35.12767028808594 9.671829223632813 31.72792053222656 6.272079467773438 C 28.32817077636719 2.872329711914063 23.80797004699707 1 19 1 M 19 0 C 29.49341011047363 0 38 8.506589889526367 38 19 C 38 29.49341011047363 29.49341011047363 38 19 38 C 8.506589889526367 38 0 29.49341011047363 0 19 C 0 8.506589889526367 8.506589889526367 0 19 0 Z"/>
      </g>
    </g>
    <g id="liner" transform="translate(29 2486.766)">
      <g id="Group_1674" data-name="Group 1674" transform="translate(11.342 2.841)">
        <g id="Group_1673" data-name="Group 1673">
          <path id="Path_6059" data-name="Path 6059" class="cls-2" d="M304.214,70.142a.373.373,0,1,0,.109.264A.376.376,0,0,0,304.214,70.142Z" transform="translate(-303.577 -70.033)"/>
        </g>
      </g>
      <g id="Group_1676" data-name="Group 1676" transform="translate(0 0.233)">
        <g id="Group_1675" data-name="Group 1675" transform="translate(0 0)">
          <path id="Path_6060" data-name="Path 6060" class="cls-2" d="M19.063,6.811l-3-4.406A4.972,4.972,0,0,0,10.178.56l-9.144,3.5A1.6,1.6,0,0,0,.093,6.089a1.422,1.422,0,0,0,1.794.871l8.48-2.892a.374.374,0,0,0-.241-.707L1.646,6.253A.672.672,0,0,1,.8,5.842a.854.854,0,0,1,.5-1.086l9.144-3.5a4.209,4.209,0,0,1,5,1.568l1.842,2.706-.15-.106a.374.374,0,1,0-.43.611l1.831,1.289a.374.374,0,0,0,.524-.516Z" transform="translate(0 -0.233)"/>
        </g>
      </g>
      <g id="Group_1678" data-name="Group 1678" transform="translate(6.311 11.19)">
        <g id="Group_1677" data-name="Group 1677">
          <path id="Path_6061" data-name="Path 6061" class="cls-2" d="M171.705,294.229a1.515,1.515,0,1,0,.2,1.142A1.5,1.5,0,0,0,171.705,294.229Zm-.529.98a.768.768,0,1,1-.1-.579A.769.769,0,0,1,171.177,295.208Z" transform="translate(-168.912 -293.527)"/>
        </g>
      </g>
      <g id="Group_1682" data-name="Group 1682" transform="translate(1.132 2.249)">
        <g id="Group_1681" data-name="Group 1681">
          <path id="Path_6063" data-name="Path 6063" class="cls-2" d="M48.271,69.718,45.027,57.609a.374.374,0,0,0-.058-.121L42.706,54.34a.374.374,0,0,0-.675.181l-.386,3.858a.374.374,0,0,0,.011.134l.012.046a.373.373,0,0,0-.715.192,2.42,2.42,0,0,1-2.085,2.716.374.374,0,0,0-.065.015,3.17,3.17,0,0,0,1.235-2.945.374.374,0,0,0-.741.1,2.42,2.42,0,0,1-1.593,2.6,3.18,3.18,0,0,0,.511-.679,3.148,3.148,0,0,0,.285-2.409.374.374,0,0,0-.719.2,2.419,2.419,0,0,1-1.651,2.981,6.392,6.392,0,0,0-4.1,2q-.155.157-.3.314c.078-.169.165-.34.26-.511a4.819,4.819,0,0,1,4.41-2.725h.017a.374.374,0,0,0,0-.747h-.018a5.587,5.587,0,0,0-5.063,3.108,9.474,9.474,0,0,0-1.052,3.059.374.374,0,0,0,.71.2,8.583,8.583,0,0,1,1.576-2.193A6.3,6.3,0,0,1,34.5,62.485,3.289,3.289,0,0,0,35,67.259a13.55,13.55,0,0,1-1.943-.294.374.374,0,1,0-.162.729,13.439,13.439,0,0,0,2.91.342,8.222,8.222,0,0,0,4.626-1.292,8.064,8.064,0,0,0,2.642-2.962L44.6,69.509c.053.2.775.006.722-.193L42.554,58.974a2.226,2.226,0,0,0,1.927-.516L47.55,69.911a.374.374,0,1,0,.722-.193ZM41.067,61a3.148,3.148,0,0,0,.628-2.34l.713,2.66a12.1,12.1,0,0,1-1.85.205A3.189,3.189,0,0,0,41.067,61Zm-1.607,4.2a2.538,2.538,0,1,1-.336-1.913A2.521,2.521,0,0,1,39.459,65.192ZM42.6,62.039l.169.63a7.511,7.511,0,0,1-2.906,3.549,3.3,3.3,0,0,0,.324-.864,3.263,3.263,0,0,0-.435-2.476,3.309,3.309,0,0,0-.5-.61A14.436,14.436,0,0,0,42.6,62.039Zm-.182-3.887.257-2.574,1.51,2.1A1.477,1.477,0,0,1,42.419,58.152Z" transform="translate(-30.288 -54.184)"/>
        </g>
      </g>
    </g>
  </g>
</svg>
