<svg xmlns="http://www.w3.org/2000/svg" viewBox="0 0 38 38"><defs><style>.cls-1{fill:none}.cls-2,.cls-4{fill:#fff}.cls-3,.cls-4{stroke:none}</style></defs><g id="icon_makeup" data-name="icon makeup" transform="translate(-20 -2416)"><g id="Icon_masters" data-name="Icon masters" transform="translate(31 2350)"><g id="Icon.BG" class="cls-1"><path class="cls-3" d="M19 0A19 19 0 1 1 0 19 19 19 0 0 1 19 0z" transform="translate(-11 66)"/><path class="cls-4" d="M19 1A17.882 17.882 0 0 0 6.272 6.272C2.872 9.672 1 14.192 1 19s1.872 9.328 5.272 12.728C9.672 35.128 14.192 37 19 37s9.328-1.872 12.728-5.272C35.128 28.328 37 23.808 37 19s-1.872-9.328-5.272-12.728C28.328 2.872 23.808 1 19 1m0-1c10.493 0 19 8.507 19 19s-8.507 19-19 19S0 29.493 0 19 8.507 0 19 0z" transform="translate(-11 66)"/></g></g><g id="makeup_копия" data-name="makeup — копия" transform="translate(-12.947 2424)"><g id="Group_1752" data-name="Group 1752" transform="translate(47.274 12.575)"><g id="Group_1751" data-name="Group 1751"><path id="Path_6353" data-name="Path 6353" class="cls-2" d="M146.635 292.788a.43.43 0 0 0-.608 0 1.151 1.151 0 0 1-1.626 0 .43.43 0 0 0-.608.608 2.012 2.012 0 0 0 2.842 0 .43.43 0 0 0 0-.608z" transform="translate(-143.667 -292.662)"/></g></g><g id="Group_1754" data-name="Group 1754" transform="translate(53.834 12.575)"><g id="Group_1753" data-name="Group 1753"><path id="Path_6354" data-name="Path 6354" class="cls-2" d="M299.308 292.788a.43.43 0 0 0-.608 0 1.151 1.151 0 0 1-1.626 0 .43.43 0 1 0-.608.608 2.012 2.012 0 0 0 2.842 0 .43.43 0 0 0 0-.608z" transform="translate(-296.34 -292.662)"/></g></g><g id="Group_1756" data-name="Group 1756" transform="translate(42.946)"><g id="Group_1755" data-name="Group 1755"><path id="Path_6355" data-name="Path 6355" class="cls-2" d="M61.253 12.318a1.862 1.862 0 0 0-1.671-1.846V9.8a7.473 7.473 0 0 0-3.146-6.092 4.383 4.383 0 0 0-8.661 0A7.473 7.473 0 0 0 44.63 9.8v.674a1.862 1.862 0 0 0-1.682 1.847v1.088a1.859 1.859 0 0 0 1.859 1.862h.208A9.7 9.7 0 0 0 52 21.987a.43.43 0 0 0 .208 0h.007a9.733 9.733 0 0 0 2.255-.871.43.43 0 0 0-.407-.757 8.872 8.872 0 0 1-1.959.769 8.846 8.846 0 0 1-6.612-8.57v-.549l.185-.042a21.415 21.415 0 0 0 6.91-2.922 7.673 7.673 0 0 0 6.09 3h.049v.508a8.882 8.882 0 0 1-1.052 4.187.43.43 0 1 0 .757.406 9.689 9.689 0 0 0 .766-1.879h.2a1.859 1.859 0 0 0 1.859-1.863zm-16.448 2.091a1 1 0 0 1-1-1v-1.088a1 1 0 0 1 .822-.982v1.219a9.78 9.78 0 0 0 .176 1.852zm7.3-13.55a3.518 3.518 0 0 1 3.275 2.217 7.467 7.467 0 0 0-6.547 0A3.518 3.518 0 0 1 52.106.859zM58.723 11v.187h-.049A6.814 6.814 0 0 1 53.3 8.561q.446-.316.875-.655a.43.43 0 0 0-.533-.674 20.535 20.535 0 0 1-8.149 3.9V9.8a6.617 6.617 0 1 1 13.234 0zm1.377 3.116a.993.993 0 0 1-.7.293 9.715 9.715 0 0 0 .18-1.855v-1.215a1 1 0 0 1 .811.98v1.088a.993.993 0 0 1-.291.709z" transform="translate(-42.946)"/></g></g><g id="Group_1758" data-name="Group 1758" transform="translate(54.628 6.154)"><g id="Group_1757" data-name="Group 1757"><path id="Path_6356" data-name="Path 6356" class="cls-2" d="M315.572 143.367a.43.43 0 0 0-.607-.034l-.006.005a.43.43 0 0 0 .573.641l.006-.005a.43.43 0 0 0 .034-.607z" transform="translate(-314.816 -143.223)"/></g></g><g id="Group_1760" data-name="Group 1760" transform="translate(52.395 14.873)"><g id="Group_1759" data-name="Group 1759"><path id="Path_6357" data-name="Path 6357" class="cls-2" d="M270.261 351.433l-2.374-2.374-.913-2.387a.82.82 0 0 0-.913-.514 4 4 0 0 0-3.2 3.2v.01a.824.824 0 0 0 .493.9l2.342.97 1.9 1.9a.43.43 0 0 0 .608-.608l-1.657-1.657.976-.976 2.135 2.135a.43.43 0 0 0 .608-.608zm-4.427-1.058l-2.127-.881a3.14 3.14 0 0 1 2.476-2.483l.834 2.181z" transform="translate(-262.844 -346.146)"/></g></g><g id="Group_1762" data-name="Group 1762" transform="translate(60.184 21.141)"><g id="Group_1761" data-name="Group 1761"><path id="Path_6358" data-name="Path 6358" class="cls-2" d="M444.866 492.126a.43.43 0 1 0 .126.3.433.433 0 0 0-.126-.3z" transform="translate(-444.132 -492)"/></g></g></g></g></svg>