<svg xmlns="http://www.w3.org/2000/svg" viewBox="0 0 38 38">
  <defs>
    <style>
      .cls-1 {
        fill: none;
      }

      .cls-2, .cls-4 {
        fill: #fff;
      }

      .cls-3, .cls-4 {
        stroke: none;
      }
    </style>
  </defs>
  <g id="icon_makeup" data-name="icon makeup" transform="translate(-20 -2416)">
    <g id="Icon_masters" data-name="Icon masters" transform="translate(31 2350)">
      <g id="Icon.BG" class="cls-1" transform="translate(-11 66)">
        <path class="cls-3" d="M19,0A19,19,0,1,1,0,19,19,19,0,0,1,19,0Z"/>
        <path class="cls-4" d="M 19 1 C 14.19202995300293 1 9.671829223632813 2.872329711914063 6.272079467773438 6.272079467773438 C 2.872329711914063 9.671829223632813 1 14.19202995300293 1 19 C 1 23.80797004699707 2.872329711914063 28.32817077636719 6.272079467773438 31.72792053222656 C 9.671829223632813 35.12767028808594 14.19202995300293 37 19 37 C 23.80797004699707 37 28.32817077636719 35.12767028808594 31.72792053222656 31.72792053222656 C 35.12767028808594 28.32817077636719 37 23.80797004699707 37 19 C 37 14.19202995300293 35.12767028808594 9.671829223632813 31.72792053222656 6.272079467773438 C 28.32817077636719 2.872329711914063 23.80797004699707 1 19 1 M 19 0 C 29.49341011047363 0 38 8.506589889526367 38 19 C 38 29.49341011047363 29.49341011047363 38 19 38 C 8.506589889526367 38 0 29.49341011047363 0 19 C 0 8.506589889526367 8.506589889526367 0 19 0 Z"/>
      </g>
    </g>
    <g id="makeup_копия" data-name="makeup — копия" transform="translate(-12.947 2424)">
      <g id="Group_1752" data-name="Group 1752" transform="translate(47.274 12.575)">
        <g id="Group_1751" data-name="Group 1751">
          <path id="Path_6353" data-name="Path 6353" class="cls-2" d="M146.635,292.788a.43.43,0,0,0-.608,0,1.151,1.151,0,0,1-1.626,0,.43.43,0,0,0-.608.608,2.012,2.012,0,0,0,2.842,0A.43.43,0,0,0,146.635,292.788Z" transform="translate(-143.667 -292.662)"/>
        </g>
      </g>
      <g id="Group_1754" data-name="Group 1754" transform="translate(53.834 12.575)">
        <g id="Group_1753" data-name="Group 1753">
          <path id="Path_6354" data-name="Path 6354" class="cls-2" d="M299.308,292.788a.43.43,0,0,0-.608,0,1.151,1.151,0,0,1-1.626,0,.43.43,0,1,0-.608.608,2.012,2.012,0,0,0,2.842,0A.43.43,0,0,0,299.308,292.788Z" transform="translate(-296.34 -292.662)"/>
        </g>
      </g>
      <g id="Group_1756" data-name="Group 1756" transform="translate(42.946)">
        <g id="Group_1755" data-name="Group 1755">
          <path id="Path_6355" data-name="Path 6355" class="cls-2" d="M61.253,12.318a1.862,1.862,0,0,0-1.671-1.846V9.8a7.473,7.473,0,0,0-3.146-6.092,4.383,4.383,0,0,0-8.661,0A7.473,7.473,0,0,0,44.63,9.8v.674a1.862,1.862,0,0,0-1.682,1.847l0,1.088a1.859,1.859,0,0,0,1.859,1.862h.208A9.7,9.7,0,0,0,52,21.987a.43.43,0,0,0,.208,0l.007,0a9.733,9.733,0,0,0,2.255-.871.43.43,0,0,0-.407-.757,8.872,8.872,0,0,1-1.959.769,8.846,8.846,0,0,1-6.612-8.57v-.549l.185-.042a21.415,21.415,0,0,0,6.91-2.922,7.673,7.673,0,0,0,6.09,3h.049v.508a8.882,8.882,0,0,1-1.052,4.187.43.43,0,1,0,.757.406,9.689,9.689,0,0,0,.766-1.879h.2a1.859,1.859,0,0,0,1.859-1.863ZM44.805,14.409h0a1,1,0,0,1-1-1l0-1.088a1,1,0,0,1,.822-.982v1.219a9.78,9.78,0,0,0,.176,1.852h0Zm7.3-13.55A3.518,3.518,0,0,1,55.38,3.076a7.467,7.467,0,0,0-6.547,0A3.518,3.518,0,0,1,52.106.859ZM58.723,11v.187h-.049A6.814,6.814,0,0,1,53.3,8.561q.446-.316.875-.655a.43.43,0,0,0-.533-.674,20.535,20.535,0,0,1-8.149,3.9V9.8a6.617,6.617,0,1,1,13.234,0ZM60.1,14.116a.993.993,0,0,1-.7.293,9.715,9.715,0,0,0,.18-1.855V11.339a1,1,0,0,1,.811.98l0,1.088A.993.993,0,0,1,60.1,14.116Z" transform="translate(-42.946)"/>
        </g>
      </g>
      <g id="Group_1758" data-name="Group 1758" transform="translate(54.628 6.154)">
        <g id="Group_1757" data-name="Group 1757">
          <path id="Path_6356" data-name="Path 6356" class="cls-2" d="M315.572,143.367a.43.43,0,0,0-.607-.034l-.006.005a.43.43,0,0,0,.573.641l.006-.005A.43.43,0,0,0,315.572,143.367Z" transform="translate(-314.816 -143.223)"/>
        </g>
      </g>
      <g id="Group_1760" data-name="Group 1760" transform="translate(52.395 14.873)">
        <g id="Group_1759" data-name="Group 1759">
          <path id="Path_6357" data-name="Path 6357" class="cls-2" d="M270.261,351.433l-2.374-2.374-.913-2.387a.82.82,0,0,0-.913-.514,4,4,0,0,0-3.2,3.2l0,.01a.824.824,0,0,0,.493.9l2.342.97,1.9,1.9a.43.43,0,0,0,.608-.608l-1.657-1.657.976-.976,2.135,2.135a.43.43,0,0,0,.608-.608Zm-4.427-1.058-2.127-.881a3.14,3.14,0,0,1,2.476-2.483l.834,2.181Z" transform="translate(-262.844 -346.146)"/>
        </g>
      </g>
      <g id="Group_1762" data-name="Group 1762" transform="translate(60.184 21.141)">
        <g id="Group_1761" data-name="Group 1761">
          <path id="Path_6358" data-name="Path 6358" class="cls-2" d="M444.866,492.126a.43.43,0,1,0,.126.3A.433.433,0,0,0,444.866,492.126Z" transform="translate(-444.132 -492)"/>
        </g>
      </g>
    </g>
  </g>
</svg>
