<svg xmlns="http://www.w3.org/2000/svg" viewBox="0 0 38 38">
  <defs>
    <style>
      .cls-1, .cls-4 {
        fill: #fff;
      }

      .cls-2 {
        fill: none;
      }

      .cls-3, .cls-4 {
        stroke: none;
      }
    </style>
  </defs>
  <g id="icon_manicure" data-name="icon manicure" transform="translate(-20 -2359)">
    <g id="nail_4_" data-name="nail (4)" transform="translate(30.658 2367.617)">
      <path id="Path_6598" data-name="Path 6598" class="cls-1" d="M6.948,2.658a2.756,2.756,0,0,0-5.508,0A2.4,2.4,0,0,0,.055,4.834V20.012a.69.69,0,0,0,.69.69h6.9a.69.69,0,0,0,.69-.69V4.834A2.4,2.4,0,0,0,6.948,2.658Zm-4.824.105a2.07,2.07,0,0,1,4.139,0V6.558a2.063,2.063,0,0,1-.069.52c-.017-.018-.032-.039-.05-.057a2.752,2.752,0,0,0-3.952.058,2.059,2.059,0,0,1-.069-.521Zm3.747,5a2.063,2.063,0,0,1-3.354,0,2.052,2.052,0,0,1,3.354,0ZM7.644,20.012H.745V4.834a1.722,1.722,0,0,1,.69-1.38v3.1a2.737,2.737,0,0,0,.391,1.409.09.09,0,0,0,.006.009,2.752,2.752,0,0,0,4.726,0l0-.006a2.738,2.738,0,0,0,.393-1.411v-3.1a1.722,1.722,0,0,1,.69,1.38Zm0,0" transform="translate(0)"/>
      <path id="Path_6599" data-name="Path 6599" class="cls-1" d="M60.109,359.194a.346.346,0,0,0,.245-.1.355.355,0,0,0,.1-.245.342.342,0,0,0-.028-.131.338.338,0,0,0-.072-.11.351.351,0,0,0-.245-.1.345.345,0,0,0-.245.1.4.4,0,0,0-.076.11.351.351,0,0,0,.076.376A.346.346,0,0,0,60.109,359.194Zm0,0" transform="translate(-57.295 -344.011)"/>
      <path id="Path_6600" data-name="Path 6600" class="cls-1" d="M95.5,358.5H94.111a.345.345,0,0,0,0,.69H95.5a.345.345,0,0,0,0-.69Zm0,0" transform="translate(-89.923 -344.012)"/>
      <path id="Path_6601" data-name="Path 6601" class="cls-1" d="M62.89,392.641H60.13a.345.345,0,1,0,0,.69h2.76a.345.345,0,1,0,0-.69Zm0,0" transform="translate(-57.316 -376.769)"/>
      <path id="Path_6602" data-name="Path 6602" class="cls-1" d="M62.89,426.773H60.13a.345.345,0,1,0,0,.69h2.76a.345.345,0,1,0,0-.69Zm0,0" transform="translate(-57.316 -409.521)"/>
      <path id="Path_6603" data-name="Path 6603" class="cls-1" d="M260.178.272l-.006,0A3.1,3.1,0,0,0,256.055,3.2V20.449a.345.345,0,0,0,.345.345h5.519a.345.345,0,0,0,.345-.345V3.2A3.107,3.107,0,0,0,260.178.272Zm1.4,16.038h-1.927l1.927-1.927Zm0-2.9-2.9,2.9h-1.439l4.341-4.341Zm0-2.415-4.829,4.829V14.383l4.829-4.829Zm0-2.415-4.829,4.829V11.968l4.829-4.829Zm0-2.415-4.829,4.829V9.553l4.829-4.829Zm0-2.962v.547l-4.829,4.829V7.139l4.7-4.7a2.4,2.4,0,0,1,.127.766Zm-.458-1.409-4.371,4.371V4.379L260.131.994a2.423,2.423,0,0,1,.985.8ZM259.159.787c.065,0,.129,0,.193.01L256.744,3.4V3.2A2.417,2.417,0,0,1,259.159.787ZM256.744,20.1V17h4.829v3.1Zm0,0" transform="translate(-245.651 -0.092)"/>
    </g>
    <g id="Icon_masters" data-name="Icon masters" transform="translate(31 2293)">
      <g id="Icon.BG" class="cls-2" transform="translate(-11 66)">
        <path class="cls-3" d="M19,0A19,19,0,1,1,0,19,19,19,0,0,1,19,0Z"/>
        <path class="cls-4" d="M 19 1 C 14.19202995300293 1 9.671829223632813 2.872329711914063 6.272079467773438 6.272079467773438 C 2.872329711914063 9.671829223632813 1 14.19202995300293 1 19 C 1 23.80797004699707 2.872329711914063 28.32817077636719 6.272079467773438 31.72792053222656 C 9.671829223632813 35.12767028808594 14.19202995300293 37 19 37 C 23.80797004699707 37 28.32817077636719 35.12767028808594 31.72792053222656 31.72792053222656 C 35.12767028808594 28.32817077636719 37 23.80797004699707 37 19 C 37 14.19202995300293 35.12767028808594 9.671829223632813 31.72792053222656 6.272079467773438 C 28.32817077636719 2.872329711914063 23.80797004699707 1 19 1 M 19 0 C 29.49341011047363 0 38 8.506589889526367 38 19 C 38 29.49341011047363 29.49341011047363 38 19 38 C 8.506589889526367 38 0 29.49341011047363 0 19 C 0 8.506589889526367 8.506589889526367 0 19 0 Z"/>
      </g>
    </g>
  </g>
</svg>
