<svg xmlns="http://www.w3.org/2000/svg" viewBox="0 0 38 38"><defs><style>.cls-1,.cls-4{fill:#fff}.cls-2{fill:none}.cls-3,.cls-4{stroke:none}</style></defs><g id="icon_manicure" data-name="icon manicure" transform="translate(-20 -2359)"><g id="nail_4_" data-name="nail (4)" transform="translate(30.658 2367.617)"><path id="Path_6598" data-name="Path 6598" class="cls-1" d="M6.948 2.658a2.756 2.756 0 0 0-5.508 0A2.4 2.4 0 0 0 .055 4.834v15.178a.69.69 0 0 0 .69.69h6.9a.69.69 0 0 0 .69-.69V4.834a2.4 2.4 0 0 0-1.387-2.176zm-4.824.105a2.07 2.07 0 0 1 4.139 0v3.795a2.063 2.063 0 0 1-.069.52c-.017-.018-.032-.039-.05-.057a2.752 2.752 0 0 0-3.952.058 2.059 2.059 0 0 1-.069-.521zm3.747 5a2.063 2.063 0 0 1-3.354 0 2.052 2.052 0 0 1 3.354 0zm1.773 12.249H.745V4.834a1.722 1.722 0 0 1 .69-1.38v3.1a2.737 2.737 0 0 0 .391 1.409.09.09 0 0 0 .006.009 2.752 2.752 0 0 0 4.726 0v-.006a2.738 2.738 0 0 0 .393-1.411v-3.1a1.722 1.722 0 0 1 .69 1.38zm0 0"/><path id="Path_6599" data-name="Path 6599" class="cls-1" d="M60.109 359.194a.346.346 0 0 0 .245-.1.355.355 0 0 0 .1-.245.342.342 0 0 0-.028-.131.338.338 0 0 0-.072-.11.351.351 0 0 0-.245-.1.345.345 0 0 0-.245.1.4.4 0 0 0-.076.11.351.351 0 0 0 .076.376.346.346 0 0 0 .245.1zm0 0" transform="translate(-57.295 -344.011)"/><path id="Path_6600" data-name="Path 6600" class="cls-1" d="M95.5 358.5h-1.389a.345.345 0 0 0 0 .69H95.5a.345.345 0 0 0 0-.69zm0 0" transform="translate(-89.923 -344.012)"/><path id="Path_6601" data-name="Path 6601" class="cls-1" d="M62.89 392.641h-2.76a.345.345 0 1 0 0 .69h2.76a.345.345 0 1 0 0-.69zm0 0" transform="translate(-57.316 -376.769)"/><path id="Path_6602" data-name="Path 6602" class="cls-1" d="M62.89 426.773h-2.76a.345.345 0 1 0 0 .69h2.76a.345.345 0 1 0 0-.69zm0 0" transform="translate(-57.316 -409.521)"/><path id="Path_6603" data-name="Path 6603" class="cls-1" d="M260.178.272h-.006a3.1 3.1 0 0 0-4.117 2.928v17.249a.345.345 0 0 0 .345.345h5.519a.345.345 0 0 0 .345-.345V3.2a3.107 3.107 0 0 0-2.086-2.928zm1.4 16.038h-1.927l1.927-1.927zm0-2.9l-2.9 2.9h-1.439l4.341-4.341zm0-2.415l-4.829 4.829v-1.441l4.829-4.829zm0-2.415l-4.829 4.829v-1.441l4.829-4.829zm0-2.415l-4.829 4.829V9.553l4.829-4.829zm0-2.962v.547l-4.829 4.829v-1.44l4.7-4.7a2.4 2.4 0 0 1 .127.766zm-.458-1.409l-4.371 4.371V4.379l3.382-3.385a2.423 2.423 0 0 1 .985.8zM259.159.787c.065 0 .129 0 .193.01L256.744 3.4v-.2a2.417 2.417 0 0 1 2.415-2.413zM256.744 20.1V17h4.829v3.1zm0 0" transform="translate(-245.651 -.092)"/></g><g id="Icon_masters" data-name="Icon masters" transform="translate(31 2293)"><g id="Icon.BG" class="cls-2"><path class="cls-3" d="M19 0A19 19 0 1 1 0 19 19 19 0 0 1 19 0z" transform="translate(-11 66)"/><path class="cls-4" d="M19 1A17.882 17.882 0 0 0 6.272 6.272C2.872 9.672 1 14.192 1 19s1.872 9.328 5.272 12.728C9.672 35.128 14.192 37 19 37s9.328-1.872 12.728-5.272C35.128 28.328 37 23.808 37 19s-1.872-9.328-5.272-12.728C28.328 2.872 23.808 1 19 1m0-1c10.493 0 19 8.507 19 19s-8.507 19-19 19S0 29.493 0 19 8.507 0 19 0z" transform="translate(-11 66)"/></g></g></g></svg>