<svg xmlns="http://www.w3.org/2000/svg" viewBox="0 0 38 38">
  <defs>
    <style>
      .cls-1 {
        fill: none;
      }

      .cls-2, .cls-4 {
        fill: #fff;
      }

      .cls-3, .cls-4 {
        stroke: none;
      }
    </style>
  </defs>
  <g id="icon_stilist" data-name="icon stilist" transform="translate(-20 -2593)">
    <g id="Icon_masters" data-name="Icon masters" transform="translate(31 2527)">
      <g id="Icon.BG" class="cls-1" transform="translate(-11 66)">
        <path class="cls-3" d="M19,0A19,19,0,1,1,0,19,19,19,0,0,1,19,0Z"/>
        <path class="cls-4" d="M 19 1 C 14.19202995300293 1 9.671829223632813 2.872329711914063 6.272079467773438 6.272079467773438 C 2.872329711914063 9.671829223632813 1 14.19202995300293 1 19 C 1 23.80797004699707 2.872329711914063 28.32817077636719 6.272079467773438 31.72792053222656 C 9.671829223632813 35.12767028808594 14.19202995300293 37 19 37 C 23.80797004699707 37 28.32817077636719 35.12767028808594 31.72792053222656 31.72792053222656 C 35.12767028808594 28.32817077636719 37 23.80797004699707 37 19 C 37 14.19202995300293 35.12767028808594 9.671829223632813 31.72792053222656 6.272079467773438 C 28.32817077636719 2.872329711914063 23.80797004699707 1 19 1 M 19 0 C 29.49341011047363 0 38 8.506589889526367 38 19 C 38 29.49341011047363 29.49341011047363 38 19 38 C 8.506589889526367 38 0 29.49341011047363 0 19 C 0 8.506589889526367 8.506589889526367 0 19 0 Z"/>
      </g>
    </g>
    <g id="hair" transform="translate(28.947 2603)">
      <g id="Group_1571" data-name="Group 1571" transform="translate(0.053 0)">
        <g id="Group_1570" data-name="Group 1570">
          <path id="Path_5523" data-name="Path 5523" class="cls-2" d="M19.857,9.244V7.263a.33.33,0,0,0-.33-.33H13.915V5.762A5.681,5.681,0,0,0,8.573.006,5.613,5.613,0,0,0,2.7,5.342q-.007.135-.007.271v5.613a1.315,1.315,0,0,0-1.06,2.1,2.311,2.311,0,0,0,.73,4.5H4.34v-.66H2.359a1.651,1.651,0,0,1,0-3.3H4.34v-.66H2.69a.66.66,0,1,1,0-1.321h.33a.33.33,0,0,0,.33-.33V7.207L4.3,7.029a9.008,9.008,0,0,0,5.828-3.824l.239,1.2a12.83,12.83,0,0,1,.249,2.511v.02H8.962a1.321,1.321,0,0,0,0,2.641h1.651v2.134L8.791,12.923a1.405,1.405,0,0,1-1.6-.033l-1.025-.746a3.641,3.641,0,0,1-1.5-2.936V8.914H4.01v.294a4.3,4.3,0,0,0,1.768,3.47l.213.156v2.354h.66V13.314l.152.11a2.068,2.068,0,0,0,2.355.048l.135-.09v1.8h.66V12.942l.66-.44v.7a1.653,1.653,0,0,0,1.651,1.651h1.651a1.651,1.651,0,0,1,1.651,1.651c0,.912.645-.015.645-.015a2.311,2.311,0,0,0-1.992-2.274,1.632,1.632,0,0,0,.33-.746A1.817,1.817,0,0,0,15.9,11.72v-.825h-.66v.825a1.156,1.156,0,0,1-2.311,0V9.574H16.7l.894,1.491a.33.33,0,0,0,.283.16h1.981v-.66H18.063l-.594-.99h2.058A.33.33,0,0,0,19.857,9.244ZM9.293,8.914h-.33a.66.66,0,0,1,0-1.321h.33Zm1.321,0h-.66V7.593h.66Zm3.245,4.607a.988.988,0,0,1-.934.675h-.66a.99.99,0,0,1-.99-.99V9.574h.99V11.72A1.818,1.818,0,0,0,13.859,13.521ZM11.273,8.914V7.593h.99V8.914Zm.99-3.3V6.933h-.99v-.02a13.517,13.517,0,0,0-.261-2.641l-.405-2.027a.33.33,0,0,0-.613-.093A8.356,8.356,0,0,1,4.175,6.381l-.825.156V5.612A4.952,4.952,0,0,1,8.3.66q.12,0,.24.006a5.022,5.022,0,0,1,4.712,5.1V6.933h-.33V5.612Zm4.292,3.3H12.924V7.593h3.632Zm2.641,0H17.216V7.593H19.2Z" transform="translate(-0.053 0)"/>
        </g>
      </g>
      <g id="Group_1573" data-name="Group 1573" transform="translate(14.245 0)">
        <g id="Group_1572" data-name="Group 1572">
          <path id="Path_5524" data-name="Path 5524" class="cls-2" d="M344.818,2.938a.986.986,0,0,0,.452-.793.982.982,0,0,0-.452-.792c-.165-.135-.208-.182-.208-.28s.042-.145.208-.28A.982.982,0,0,0,345.27,0h-.66c0,.1-.042.145-.208.28a.983.983,0,0,0-.452.792.982.982,0,0,0,.452.792c.165.135.208.182.208.28s-.042.146-.208.281a.985.985,0,0,0-.452.792.986.986,0,0,0,.452.792c.165.135.208.182.208.281h.66a.984.984,0,0,0-.452-.792c-.165-.136-.208-.183-.208-.281S344.651,3.073,344.818,2.938Z" transform="translate(-343.949 -0.001)"/>
        </g>
      </g>
      <g id="Group_1575" data-name="Group 1575" transform="translate(15.896 0)">
        <g id="Group_1574" data-name="Group 1574">
          <path id="Path_5525" data-name="Path 5525" class="cls-2" d="M384.818,2.938a.986.986,0,0,0,.452-.793.982.982,0,0,0-.452-.792c-.165-.135-.208-.182-.208-.28s.042-.145.208-.28A.982.982,0,0,0,385.27,0h-.66c0,.1-.042.145-.208.28a.982.982,0,0,0-.452.792.982.982,0,0,0,.452.792c.165.135.208.182.208.28s-.042.146-.208.281a.984.984,0,0,0-.452.793.986.986,0,0,0,.452.792c.165.135.208.182.208.281h.66a.985.985,0,0,0-.452-.792c-.165-.136-.208-.183-.208-.281S384.651,3.073,384.818,2.938Z" transform="translate(-383.949 -0.001)"/>
        </g>
      </g>
    </g>
  </g>
</svg>
