<svg xmlns="http://www.w3.org/2000/svg" viewBox="0 0 38 38"><defs><style>.cls-1{fill:none}.cls-2,.cls-4{fill:#fff}.cls-3,.cls-4{stroke:none}</style></defs><g id="icon_stilist" data-name="icon stilist" transform="translate(-20 -2593)"><g id="Icon_masters" data-name="Icon masters" transform="translate(31 2527)"><g id="Icon.BG" class="cls-1"><path class="cls-3" d="M19 0A19 19 0 1 1 0 19 19 19 0 0 1 19 0z" transform="translate(-11 66)"/><path class="cls-4" d="M19 1A17.882 17.882 0 0 0 6.272 6.272C2.872 9.672 1 14.192 1 19s1.872 9.328 5.272 12.728C9.672 35.128 14.192 37 19 37s9.328-1.872 12.728-5.272C35.128 28.328 37 23.808 37 19s-1.872-9.328-5.272-12.728C28.328 2.872 23.808 1 19 1m0-1c10.493 0 19 8.507 19 19s-8.507 19-19 19S0 29.493 0 19 8.507 0 19 0z" transform="translate(-11 66)"/></g></g><g id="hair" transform="translate(28.947 2603)"><g id="Group_1571" data-name="Group 1571" transform="translate(.053)"><g id="Group_1570" data-name="Group 1570"><path id="Path_5523" data-name="Path 5523" class="cls-2" d="M19.857 9.244V7.263a.33.33 0 0 0-.33-.33h-5.612V5.762A5.681 5.681 0 0 0 8.573.006 5.613 5.613 0 0 0 2.7 5.342q-.007.135-.007.271v5.613a1.315 1.315 0 0 0-1.06 2.1 2.311 2.311 0 0 0 .73 4.5H4.34v-.66H2.359a1.651 1.651 0 0 1 0-3.3H4.34v-.66H2.69a.66.66 0 1 1 0-1.321h.33a.33.33 0 0 0 .33-.33V7.207l.95-.178a9.008 9.008 0 0 0 5.828-3.824l.239 1.2a12.83 12.83 0 0 1 .249 2.511v.02H8.962a1.321 1.321 0 0 0 0 2.641h1.651v2.134l-1.822 1.212a1.405 1.405 0 0 1-1.6-.033l-1.025-.746a3.641 3.641 0 0 1-1.5-2.936v-.294H4.01v.294a4.3 4.3 0 0 0 1.768 3.47l.213.156v2.354h.66v-1.874l.152.11a2.068 2.068 0 0 0 2.355.048l.135-.09v1.8h.66v-2.24l.66-.44v.7a1.653 1.653 0 0 0 1.651 1.651h1.651a1.651 1.651 0 0 1 1.651 1.651c0 .912.645-.015.645-.015a2.311 2.311 0 0 0-1.992-2.274 1.632 1.632 0 0 0 .33-.746A1.817 1.817 0 0 0 15.9 11.72v-.825h-.66v.825a1.156 1.156 0 0 1-2.311 0V9.574H16.7l.894 1.491a.33.33 0 0 0 .283.16h1.981v-.66h-1.795l-.594-.99h2.058a.33.33 0 0 0 .33-.331zm-10.564-.33h-.33a.66.66 0 0 1 0-1.321h.33zm1.321 0h-.66V7.593h.66zm3.245 4.607a.988.988 0 0 1-.934.675h-.66a.99.99 0 0 1-.99-.99V9.574h.99v2.146a1.818 1.818 0 0 0 1.594 1.801zm-2.586-4.607V7.593h.99v1.321zm.99-3.3v1.319h-.99v-.02a13.517 13.517 0 0 0-.261-2.641l-.405-2.027a.33.33 0 0 0-.613-.093 8.356 8.356 0 0 1-5.819 4.229l-.825.156v-.925A4.952 4.952 0 0 1 8.3.66q.12 0 .24.006a5.022 5.022 0 0 1 4.712 5.1v1.167h-.33V5.612zm4.292 3.3h-3.631V7.593h3.632zm2.641 0h-1.98V7.593H19.2z" transform="translate(-.053)"/></g></g><g id="Group_1573" data-name="Group 1573" transform="translate(14.245)"><g id="Group_1572" data-name="Group 1572"><path id="Path_5524" data-name="Path 5524" class="cls-2" d="M344.818 2.938a.986.986 0 0 0 .452-.793.982.982 0 0 0-.452-.792c-.165-.135-.208-.182-.208-.28s.042-.145.208-.28A.982.982 0 0 0 345.27 0h-.66c0 .1-.042.145-.208.28a.983.983 0 0 0-.452.792.982.982 0 0 0 .452.792c.165.135.208.182.208.28s-.042.146-.208.281a.985.985 0 0 0-.452.792.986.986 0 0 0 .452.792c.165.135.208.182.208.281h.66a.984.984 0 0 0-.452-.792c-.165-.136-.208-.183-.208-.281s.041-.144.208-.279z" transform="translate(-343.949 -.001)"/></g></g><g id="Group_1575" data-name="Group 1575" transform="translate(15.896)"><g id="Group_1574" data-name="Group 1574"><path id="Path_5525" data-name="Path 5525" class="cls-2" d="M384.818 2.938a.986.986 0 0 0 .452-.793.982.982 0 0 0-.452-.792c-.165-.135-.208-.182-.208-.28s.042-.145.208-.28A.982.982 0 0 0 385.27 0h-.66c0 .1-.042.145-.208.28a.982.982 0 0 0-.452.792.982.982 0 0 0 .452.792c.165.135.208.182.208.28s-.042.146-.208.281a.984.984 0 0 0-.452.793.986.986 0 0 0 .452.792c.165.135.208.182.208.281h.66a.985.985 0 0 0-.452-.792c-.165-.136-.208-.183-.208-.281s.041-.145.208-.28z" transform="translate(-383.949 -.001)"/></g></g></g></g></svg>